G04 #@! TF.FileFunction,Copper,L1,Top,Signal*
%FSLAX46Y46*%
G04 Gerber Fmt 4.6, Leading zero omitted, Abs format (unit mm)*
G04 Created by KiCad (PCBNEW 4.0.2-stable) date 10/05/17 14:13:38*
%MOMM*%
G01*
G04 APERTURE LIST*
%ADD10C,0.100000*%
%ADD11C,2.000000*%
%ADD12C,2.400000*%
%ADD13C,5.000000*%
%ADD14C,4.000000*%
%ADD15O,5.001260X2.999740*%
%ADD16O,2.999740X5.001260*%
%ADD17C,6.400000*%
%ADD18C,0.800000*%
%ADD19C,0.600000*%
%ADD20C,1.000000*%
%ADD21C,2.000000*%
%ADD22C,0.254000*%
G04 APERTURE END LIST*
D10*
D11*
X71000000Y-69000000D03*
X71000000Y-79000000D03*
X71000000Y-89000000D03*
X71000000Y-99000000D03*
X81500000Y-69000000D03*
X81500000Y-79000000D03*
X81500000Y-89000000D03*
X81500000Y-99000000D03*
D12*
X158100000Y-60600000D03*
X158100000Y-75600000D03*
X144000000Y-55000000D03*
X144000000Y-70000000D03*
D13*
X94190000Y-104050000D03*
D14*
X127210000Y-101502380D03*
D13*
X94190000Y-96430000D03*
X127210000Y-96430000D03*
X94190000Y-88810000D03*
X127210000Y-88810000D03*
X94190000Y-81190000D03*
X127210000Y-81190000D03*
X94190000Y-73570000D03*
X127210000Y-73570000D03*
X94190000Y-65950000D03*
X127210000Y-65950000D03*
D15*
X139700000Y-90518800D03*
X139700000Y-94481200D03*
X139700000Y-80418800D03*
X139700000Y-84381200D03*
D16*
X87418800Y-42000000D03*
X91381200Y-42000000D03*
X95618800Y-42100000D03*
X99581200Y-42100000D03*
D15*
X71500000Y-113481200D03*
X71500000Y-109518800D03*
X158100000Y-50218800D03*
X158100000Y-54181200D03*
X72500000Y-61781200D03*
X72500000Y-57818800D03*
X72500000Y-53781200D03*
X72500000Y-49818800D03*
D16*
X142918800Y-41500000D03*
X146881200Y-41500000D03*
X89781200Y-128000000D03*
X85818800Y-128000000D03*
X132881200Y-128400000D03*
X128918800Y-128400000D03*
D17*
X69500000Y-130000000D03*
D18*
X71900000Y-130000000D03*
X71197056Y-131697056D03*
X69500000Y-132400000D03*
X67802944Y-131697056D03*
X67100000Y-130000000D03*
X67802944Y-128302944D03*
X69500000Y-127600000D03*
X71197056Y-128302944D03*
D17*
X159500000Y-130000000D03*
D18*
X161900000Y-130000000D03*
X161197056Y-131697056D03*
X159500000Y-132400000D03*
X157802944Y-131697056D03*
X157100000Y-130000000D03*
X157802944Y-128302944D03*
X159500000Y-127600000D03*
X161197056Y-128302944D03*
D17*
X159500000Y-40000000D03*
D18*
X161900000Y-40000000D03*
X161197056Y-41697056D03*
X159500000Y-42400000D03*
X157802944Y-41697056D03*
X157100000Y-40000000D03*
X157802944Y-38302944D03*
X159500000Y-37600000D03*
X161197056Y-38302944D03*
D17*
X69500000Y-40000000D03*
D18*
X71900000Y-40000000D03*
X71197056Y-41697056D03*
X69500000Y-42400000D03*
X67802944Y-41697056D03*
X67100000Y-40000000D03*
X67802944Y-38302944D03*
X69500000Y-37600000D03*
X71197056Y-38302944D03*
D19*
X91340000Y-48240000D03*
X91380000Y-45390000D03*
X89350000Y-46020000D03*
X89450000Y-48220000D03*
X87600000Y-47350000D03*
X87500000Y-45520000D03*
X85570000Y-44730000D03*
X85760000Y-46480000D03*
X85800000Y-48270000D03*
X83900000Y-48430000D03*
X84010000Y-46670000D03*
X84120000Y-44650000D03*
X84160000Y-42520000D03*
X84210000Y-40460000D03*
X83760000Y-37770000D03*
X85690000Y-38790000D03*
X85220000Y-36620000D03*
X87500000Y-36370000D03*
X87420000Y-38400000D03*
X89470000Y-38650000D03*
X89710000Y-36370000D03*
X91660000Y-36370000D03*
X91660000Y-38180000D03*
X78790000Y-56940000D03*
X76470000Y-57050000D03*
X75890000Y-58980000D03*
X77760000Y-58650000D03*
X79710000Y-58650000D03*
X79880000Y-60410000D03*
X78090000Y-60740000D03*
X76000000Y-61130000D03*
X77340000Y-63000000D03*
X79430000Y-63000000D03*
X79680000Y-65770000D03*
X77530000Y-65770000D03*
X75210000Y-65990000D03*
X73480000Y-64370000D03*
X72500000Y-65970000D03*
X70970000Y-64350000D03*
X68790000Y-64070000D03*
X69120000Y-66110000D03*
X66830000Y-66130000D03*
X66610000Y-64180000D03*
X66780000Y-62190000D03*
X68870000Y-62250000D03*
X68820000Y-59760000D03*
X66440000Y-59790000D03*
X66750000Y-57700000D03*
X68930000Y-57670000D03*
X90920000Y-63950000D03*
X90830000Y-61830000D03*
X92790000Y-61800000D03*
X94770000Y-61660000D03*
X96500000Y-63000000D03*
X98800000Y-63340000D03*
X98740000Y-61640000D03*
X100840000Y-61860000D03*
X101060000Y-63840000D03*
X99520000Y-65380000D03*
X97760000Y-65660000D03*
X97040000Y-68150000D03*
X98940000Y-67670000D03*
X100920000Y-67560000D03*
X100840000Y-69650000D03*
X98990000Y-69910000D03*
X97040000Y-70070000D03*
X95330000Y-69540000D03*
X93070000Y-69770000D03*
X91170000Y-69930000D03*
X90940000Y-68060000D03*
X90720000Y-65830000D03*
X155910000Y-116730000D03*
X150600000Y-116230000D03*
X146910000Y-116400000D03*
X143440000Y-116620000D03*
X144450000Y-119470000D03*
X149090000Y-119750000D03*
X153500000Y-119020000D03*
X158080000Y-120250000D03*
X158250000Y-117680000D03*
X158530000Y-114390000D03*
X155400000Y-114220000D03*
X152330000Y-114330000D03*
X147690000Y-114160000D03*
X144450000Y-114160000D03*
X140820000Y-114050000D03*
X140260000Y-117850000D03*
X140710000Y-121650000D03*
X144000000Y-121990000D03*
X149140000Y-122100000D03*
X155070000Y-122990000D03*
X158360000Y-122940000D03*
X161440000Y-122380000D03*
X161440000Y-119640000D03*
X161850000Y-115940000D03*
X161730000Y-113540000D03*
X162040000Y-110910000D03*
X159940000Y-110760000D03*
X157090000Y-110760000D03*
X154420000Y-111020000D03*
X151300000Y-110730000D03*
X147720000Y-110700000D03*
X144140000Y-111010000D03*
X140990000Y-110750000D03*
X137910000Y-110390000D03*
X137910000Y-112740000D03*
X135450000Y-115620000D03*
X138140000Y-116570000D03*
X138300000Y-121090000D03*
X138810000Y-124840000D03*
X143220000Y-124720000D03*
X147580000Y-124840000D03*
X152220000Y-124840000D03*
X132690000Y-116230000D03*
X135530000Y-111760000D03*
X132080000Y-110950000D03*
X128630000Y-114600000D03*
X131670000Y-119480000D03*
X135740000Y-120090000D03*
X135740000Y-123950000D03*
X136350000Y-128020000D03*
X142850000Y-127610000D03*
X147320000Y-128630000D03*
X151990000Y-128630000D03*
X150980000Y-132080000D03*
X146510000Y-132080000D03*
X141430000Y-131880000D03*
X136750000Y-131060000D03*
X132370000Y-122950000D03*
X128640000Y-122240000D03*
X126680000Y-120640000D03*
X126770000Y-115130000D03*
X127390000Y-111480000D03*
X123660000Y-111130000D03*
X123390000Y-114860000D03*
X119840000Y-117880000D03*
X118060000Y-115660000D03*
X119930000Y-111570000D03*
X117610000Y-111570000D03*
X115210000Y-112730000D03*
X114410000Y-117970000D03*
X111040000Y-119570000D03*
X111660000Y-115390000D03*
X111660000Y-112900000D03*
X110320000Y-108280000D03*
X112990000Y-107840000D03*
X116550000Y-107120000D03*
X116280000Y-103040000D03*
X114060000Y-103300000D03*
X111130000Y-104010000D03*
X110640000Y-98070000D03*
X113050000Y-98350000D03*
X116340000Y-98850000D03*
X116510000Y-95440000D03*
X113550000Y-95050000D03*
X110310000Y-94660000D03*
X110080000Y-91030000D03*
X112600000Y-91420000D03*
X116340000Y-91700000D03*
X116400000Y-88230000D03*
X112540000Y-87120000D03*
X109410000Y-87170000D03*
X107440000Y-89610000D03*
X108050000Y-94280000D03*
X108250000Y-100580000D03*
X108450000Y-105050000D03*
X108660000Y-110950000D03*
X108660000Y-116640000D03*
X108860000Y-121920000D03*
X112110000Y-122530000D03*
X117800000Y-121310000D03*
X123080000Y-119080000D03*
X124910000Y-124560000D03*
X120040000Y-126190000D03*
X114350000Y-126190000D03*
X108860000Y-125580000D03*
X111300000Y-130450000D03*
X116990000Y-130250000D03*
X123900000Y-130860000D03*
X103920000Y-38050000D03*
X109440000Y-37690000D03*
X114950000Y-37520000D03*
X119210000Y-37690000D03*
X124370000Y-37520000D03*
X128640000Y-37870000D03*
X128730000Y-41250000D03*
X125170000Y-41430000D03*
X119750000Y-40810000D03*
X115300000Y-40810000D03*
X109440000Y-41250000D03*
X106150000Y-41340000D03*
X104810000Y-41690000D03*
X103390000Y-44180000D03*
X106150000Y-45250000D03*
X112100000Y-44720000D03*
X117440000Y-44270000D03*
X120460000Y-44630000D03*
X124370000Y-45070000D03*
X125620000Y-45070000D03*
X130060000Y-44890000D03*
X128820000Y-50050000D03*
X121700000Y-50140000D03*
X118150000Y-50140000D03*
X113970000Y-50230000D03*
X112100000Y-50230000D03*
X108280000Y-50050000D03*
X103750000Y-49430000D03*
X109350000Y-47030000D03*
X113610000Y-47120000D03*
X118500000Y-47650000D03*
X123040000Y-47830000D03*
X126150000Y-47830000D03*
X126150000Y-52900000D03*
X129620000Y-52810000D03*
X129880000Y-56540000D03*
X129790000Y-59120000D03*
X125530000Y-58760000D03*
X125790000Y-55740000D03*
X121970000Y-53430000D03*
X118060000Y-52980000D03*
X118860000Y-55920000D03*
X121620000Y-56100000D03*
X121790000Y-58410000D03*
X116280000Y-58760000D03*
X114950000Y-54580000D03*
X110410000Y-53430000D03*
X106500000Y-53870000D03*
X107920000Y-57870000D03*
X110680000Y-58230000D03*
X112370000Y-55830000D03*
X112710000Y-60800000D03*
X109520000Y-60910000D03*
X105840000Y-60850000D03*
X105450000Y-64040000D03*
X108690000Y-64210000D03*
X112260000Y-64370000D03*
X116340000Y-63030000D03*
X115950000Y-65990000D03*
X115750000Y-70140000D03*
X112460000Y-69340000D03*
X106410000Y-67560000D03*
X107480000Y-68280000D03*
X106500000Y-73430000D03*
X106590000Y-76540000D03*
X103840000Y-79480000D03*
X98860000Y-79570000D03*
X98320000Y-82410000D03*
X97970000Y-86320000D03*
X101080000Y-88720000D03*
X101260000Y-83920000D03*
X105260000Y-82410000D03*
X107210000Y-79480000D03*
X109700000Y-75570000D03*
X109350000Y-71740000D03*
X112810000Y-73160000D03*
X116370000Y-74230000D03*
X116370000Y-77790000D03*
X113350000Y-77170000D03*
X112990000Y-80100000D03*
X116190000Y-81250000D03*
X116190000Y-85080000D03*
X111300000Y-84010000D03*
X110060000Y-80190000D03*
X107840000Y-84810000D03*
X105260000Y-87570000D03*
X66470000Y-115590000D03*
X68760000Y-115840000D03*
X67670000Y-113600000D03*
X65770000Y-113460000D03*
X65970000Y-111510000D03*
X67920000Y-111260000D03*
X67840000Y-109020000D03*
X66050000Y-109470000D03*
X66190000Y-107400000D03*
X68170000Y-107180000D03*
X70800000Y-106840000D03*
X73540000Y-106950000D03*
X76360000Y-106810000D03*
X77480000Y-108350000D03*
X74990000Y-108550000D03*
X75570000Y-110180000D03*
X78030000Y-110480000D03*
X76670000Y-112000000D03*
X74820000Y-112170000D03*
X75940000Y-113840000D03*
X77950000Y-114490000D03*
X76720000Y-115830000D03*
X75020000Y-115800000D03*
X73230000Y-115920000D03*
X71450000Y-116010000D03*
X92520000Y-131170000D03*
X92700000Y-133480000D03*
X90710000Y-133580000D03*
X90480000Y-131470000D03*
X88550000Y-131250000D03*
X88700000Y-133280000D03*
X86660000Y-133200000D03*
X86620000Y-131350000D03*
X84820000Y-131370000D03*
X84590000Y-133340000D03*
X82890000Y-132970000D03*
X82860000Y-130700000D03*
X83010000Y-128200000D03*
X82810000Y-125900000D03*
X82840000Y-123410000D03*
X82810000Y-121430000D03*
X84550000Y-122130000D03*
X84490000Y-124280000D03*
X86640000Y-123910000D03*
X86530000Y-121200000D03*
X88490000Y-122460000D03*
X88320000Y-124580000D03*
X90250000Y-123860000D03*
X90440000Y-121620000D03*
X92450000Y-121930000D03*
X92560000Y-124050000D03*
X92540000Y-125920000D03*
X92620000Y-127930000D03*
X100320000Y-100200000D03*
X98260000Y-100200000D03*
X96160000Y-100770000D03*
X97610000Y-101880000D03*
X100200000Y-101880000D03*
X100390000Y-103900000D03*
X97800000Y-103750000D03*
X98030000Y-105610000D03*
X100240000Y-105650000D03*
X100280000Y-107860000D03*
X97920000Y-107940000D03*
X95940000Y-107980000D03*
X93350000Y-107630000D03*
X91250000Y-107780000D03*
X89920000Y-106870000D03*
X90410000Y-104660000D03*
X89650000Y-102680000D03*
X90080000Y-100540000D03*
X91990000Y-100460000D03*
X93980000Y-100240000D03*
X162000000Y-49570000D03*
X162140000Y-51580000D03*
X161860000Y-53980000D03*
X161630000Y-56630000D03*
X162050000Y-59200000D03*
X162160000Y-61500000D03*
X160400000Y-61500000D03*
X160260000Y-59570000D03*
X159870000Y-57080000D03*
X157810000Y-56970000D03*
X155910000Y-57000000D03*
X155820000Y-59090000D03*
X155650000Y-61300000D03*
X153870000Y-61020000D03*
X154030000Y-59010000D03*
X154060000Y-57300000D03*
X154120000Y-55280000D03*
X154180000Y-53570000D03*
X154240000Y-51800000D03*
X154430000Y-50150000D03*
X141580000Y-97540000D03*
X139900000Y-97540000D03*
X137770000Y-97960000D03*
X136020000Y-96580000D03*
X134800000Y-94560000D03*
X133080000Y-95670000D03*
X133240000Y-97650000D03*
X130800000Y-97840000D03*
X131030000Y-95550000D03*
X131600000Y-93420000D03*
X133810000Y-92540000D03*
X136090000Y-91590000D03*
X134720000Y-89880000D03*
X132210000Y-90180000D03*
X130610000Y-91330000D03*
X129350000Y-93000000D03*
X126490000Y-92770000D03*
X124400000Y-92160000D03*
X123060000Y-90260000D03*
X122910000Y-93000000D03*
X123220000Y-95210000D03*
X123290000Y-97570000D03*
X147540000Y-45130000D03*
X145130000Y-44640000D03*
X145270000Y-46760000D03*
X147520000Y-46940000D03*
X147320000Y-48830000D03*
X145350000Y-48810000D03*
X143480000Y-48730000D03*
X143380000Y-46940000D03*
X143440000Y-44890000D03*
X141670000Y-44660000D03*
X141770000Y-46470000D03*
X141550000Y-48610000D03*
X139720000Y-48480000D03*
X137550000Y-48420000D03*
X137710000Y-46470000D03*
X139860000Y-46170000D03*
X140020000Y-44080000D03*
X137460000Y-44460000D03*
X137810000Y-41910000D03*
X139870000Y-41760000D03*
X140170000Y-39200000D03*
X137660000Y-39700000D03*
X138230000Y-37340000D03*
X141120000Y-37380000D03*
X143710000Y-37570000D03*
X146530000Y-37530000D03*
X137660000Y-77950000D03*
X139830000Y-77950000D03*
X141920000Y-77950000D03*
X141010000Y-76280000D03*
X138650000Y-76280000D03*
X136470000Y-76280000D03*
X134650000Y-77040000D03*
X134800000Y-79550000D03*
X132510000Y-79900000D03*
X131940000Y-77460000D03*
X130490000Y-75480000D03*
X130760000Y-73340000D03*
X130300000Y-71090000D03*
X123670000Y-71490000D03*
X122440000Y-72980000D03*
X123440000Y-74680000D03*
X122430000Y-76080000D03*
X124400000Y-76310000D03*
X123060000Y-78370000D03*
X122910000Y-80580000D03*
X122800000Y-82520000D03*
X122950000Y-84730000D03*
X125040000Y-84730000D03*
X127100000Y-85040000D03*
X129160000Y-85150000D03*
X131670000Y-84810000D03*
X134110000Y-85000000D03*
X135830000Y-83860000D03*
X135750000Y-81340000D03*
X133620000Y-82220000D03*
X131330000Y-81880000D03*
X130910000Y-79210000D03*
X129160000Y-77300000D03*
X126720000Y-77000000D03*
D20*
X91160000Y-48060000D02*
X89430000Y-48060000D01*
X91340000Y-48240000D02*
X91160000Y-48060000D01*
X89980000Y-45390000D02*
X91380000Y-45390000D01*
X89350000Y-46020000D02*
X89980000Y-45390000D01*
X88470000Y-48220000D02*
X89450000Y-48220000D01*
X87600000Y-47350000D02*
X88470000Y-48220000D01*
X86360000Y-45520000D02*
X87500000Y-45520000D01*
X85570000Y-44730000D02*
X86360000Y-45520000D01*
X85760000Y-48230000D02*
X85760000Y-46480000D01*
X85800000Y-48270000D02*
X85760000Y-48230000D01*
X83900000Y-46780000D02*
X83900000Y-48430000D01*
X84010000Y-46670000D02*
X83900000Y-46780000D01*
X84120000Y-42560000D02*
X84120000Y-44650000D01*
X84160000Y-42520000D02*
X84120000Y-42560000D01*
X84210000Y-38220000D02*
X84210000Y-40460000D01*
X83760000Y-37770000D02*
X84210000Y-38220000D01*
X85690000Y-37090000D02*
X85690000Y-38790000D01*
X85220000Y-36620000D02*
X85690000Y-37090000D01*
X87500000Y-38320000D02*
X87500000Y-36370000D01*
X87420000Y-38400000D02*
X87500000Y-38320000D01*
X89470000Y-36610000D02*
X89470000Y-38650000D01*
X89710000Y-36370000D02*
X89470000Y-36610000D01*
X91660000Y-38180000D02*
X91660000Y-36370000D01*
X76580000Y-56940000D02*
X78790000Y-56940000D01*
X76470000Y-57050000D02*
X76580000Y-56940000D01*
X77430000Y-58980000D02*
X75890000Y-58980000D01*
X77760000Y-58650000D02*
X77430000Y-58980000D01*
X79710000Y-60240000D02*
X79710000Y-58650000D01*
X79880000Y-60410000D02*
X79710000Y-60240000D01*
X76390000Y-60740000D02*
X78090000Y-60740000D01*
X76000000Y-61130000D02*
X76390000Y-60740000D01*
X79430000Y-63000000D02*
X77340000Y-63000000D01*
X77530000Y-65770000D02*
X79680000Y-65770000D01*
X75100000Y-65990000D02*
X75210000Y-65990000D01*
X73480000Y-64370000D02*
X75100000Y-65990000D01*
X72500000Y-65880000D02*
X72500000Y-65970000D01*
X70970000Y-64350000D02*
X72500000Y-65880000D01*
X68790000Y-65780000D02*
X68790000Y-64070000D01*
X69120000Y-66110000D02*
X68790000Y-65780000D01*
X66830000Y-64400000D02*
X66830000Y-66130000D01*
X66610000Y-64180000D02*
X66830000Y-64400000D01*
X68810000Y-62190000D02*
X66780000Y-62190000D01*
X68870000Y-62250000D02*
X68810000Y-62190000D01*
X66470000Y-59760000D02*
X68820000Y-59760000D01*
X66440000Y-59790000D02*
X66470000Y-59760000D01*
X68900000Y-57700000D02*
X66750000Y-57700000D01*
X68930000Y-57670000D02*
X68900000Y-57700000D01*
X94190000Y-65950000D02*
X90840000Y-65950000D01*
X90640000Y-64230000D02*
X90640000Y-65490000D01*
X90920000Y-63950000D02*
X90640000Y-64230000D01*
X92760000Y-61830000D02*
X90830000Y-61830000D01*
X92790000Y-61800000D02*
X92760000Y-61830000D01*
X95160000Y-61660000D02*
X94770000Y-61660000D01*
X96500000Y-63000000D02*
X95160000Y-61660000D01*
X98800000Y-61700000D02*
X98800000Y-63340000D01*
X98740000Y-61640000D02*
X98800000Y-61700000D01*
X100840000Y-63620000D02*
X100840000Y-61860000D01*
X101060000Y-63840000D02*
X100840000Y-63620000D01*
X98040000Y-65380000D02*
X99520000Y-65380000D01*
X97760000Y-65660000D02*
X98040000Y-65380000D01*
X98460000Y-68150000D02*
X97040000Y-68150000D01*
X98940000Y-67670000D02*
X98460000Y-68150000D01*
X100920000Y-69570000D02*
X100920000Y-67560000D01*
X100840000Y-69650000D02*
X100920000Y-69570000D01*
X97200000Y-69910000D02*
X98990000Y-69910000D01*
X97040000Y-70070000D02*
X97200000Y-69910000D01*
X93300000Y-69540000D02*
X95330000Y-69540000D01*
X93070000Y-69770000D02*
X93300000Y-69540000D01*
X91170000Y-68290000D02*
X91170000Y-69930000D01*
X90940000Y-68060000D02*
X91170000Y-68290000D01*
X90840000Y-65950000D02*
X90720000Y-65830000D01*
X151990000Y-128630000D02*
X151990000Y-125070000D01*
X155460000Y-116280000D02*
X155460000Y-114330000D01*
X155910000Y-116730000D02*
X155460000Y-116280000D01*
X147080000Y-116230000D02*
X150600000Y-116230000D01*
X146910000Y-116400000D02*
X147080000Y-116230000D01*
X143440000Y-118460000D02*
X143440000Y-116620000D01*
X144450000Y-119470000D02*
X143440000Y-118460000D01*
X152770000Y-119750000D02*
X149090000Y-119750000D01*
X153500000Y-119020000D02*
X152770000Y-119750000D01*
X158080000Y-117850000D02*
X158080000Y-120250000D01*
X158250000Y-117680000D02*
X158080000Y-117850000D01*
X155570000Y-114390000D02*
X158530000Y-114390000D01*
X155400000Y-114220000D02*
X155570000Y-114390000D01*
X147860000Y-114330000D02*
X152330000Y-114330000D01*
X147690000Y-114160000D02*
X147860000Y-114330000D01*
X140930000Y-114160000D02*
X144450000Y-114160000D01*
X140820000Y-114050000D02*
X140930000Y-114160000D01*
X140260000Y-121200000D02*
X140260000Y-117850000D01*
X140710000Y-121650000D02*
X140260000Y-121200000D01*
X149030000Y-121990000D02*
X144000000Y-121990000D01*
X149140000Y-122100000D02*
X149030000Y-121990000D01*
X158310000Y-122990000D02*
X155070000Y-122990000D01*
X158360000Y-122940000D02*
X158310000Y-122990000D01*
X161440000Y-119640000D02*
X161440000Y-122380000D01*
X161850000Y-113660000D02*
X161850000Y-115940000D01*
X161730000Y-113540000D02*
X161850000Y-113660000D01*
X160090000Y-110910000D02*
X162040000Y-110910000D01*
X159940000Y-110760000D02*
X160090000Y-110910000D01*
X154680000Y-110760000D02*
X157090000Y-110760000D01*
X154420000Y-111020000D02*
X154680000Y-110760000D01*
X147750000Y-110730000D02*
X151300000Y-110730000D01*
X147720000Y-110700000D02*
X147750000Y-110730000D01*
X141250000Y-111010000D02*
X144140000Y-111010000D01*
X140990000Y-110750000D02*
X141250000Y-111010000D01*
X137910000Y-112740000D02*
X137910000Y-110390000D01*
X137190000Y-115620000D02*
X135450000Y-115620000D01*
X138140000Y-116570000D02*
X137190000Y-115620000D01*
X138300000Y-124330000D02*
X138300000Y-121090000D01*
X138810000Y-124840000D02*
X138300000Y-124330000D01*
X147460000Y-124720000D02*
X143220000Y-124720000D01*
X147580000Y-124840000D02*
X147460000Y-124720000D01*
X151990000Y-125070000D02*
X152220000Y-124840000D01*
X135790000Y-119330000D02*
X135790000Y-119970000D01*
X132690000Y-116230000D02*
X135790000Y-119330000D01*
X132890000Y-111760000D02*
X135530000Y-111760000D01*
X132080000Y-110950000D02*
X132890000Y-111760000D01*
X128630000Y-116440000D02*
X128630000Y-114600000D01*
X131670000Y-119480000D02*
X128630000Y-116440000D01*
X135740000Y-123950000D02*
X135740000Y-120090000D01*
X142440000Y-128020000D02*
X136350000Y-128020000D01*
X142850000Y-127610000D02*
X142440000Y-128020000D01*
X151990000Y-128630000D02*
X147320000Y-128630000D01*
X146510000Y-132080000D02*
X150980000Y-132080000D01*
X137570000Y-131880000D02*
X141430000Y-131880000D01*
X136750000Y-131060000D02*
X137570000Y-131880000D01*
X132881200Y-123461200D02*
X132881200Y-128400000D01*
X132370000Y-122950000D02*
X132881200Y-123461200D01*
X128280000Y-122240000D02*
X128640000Y-122240000D01*
X126680000Y-120640000D02*
X128280000Y-122240000D01*
X126770000Y-112100000D02*
X126770000Y-115130000D01*
X127390000Y-111480000D02*
X126770000Y-112100000D01*
X123660000Y-114590000D02*
X123660000Y-111130000D01*
X123390000Y-114860000D02*
X123660000Y-114590000D01*
X119840000Y-117440000D02*
X119840000Y-117880000D01*
X118060000Y-115660000D02*
X119840000Y-117440000D01*
X117610000Y-111570000D02*
X119930000Y-111570000D01*
X115210000Y-117170000D02*
X115210000Y-112730000D01*
X114410000Y-117970000D02*
X115210000Y-117170000D01*
X111040000Y-116010000D02*
X111040000Y-119570000D01*
X111660000Y-115390000D02*
X111040000Y-116010000D01*
X111660000Y-109620000D02*
X111660000Y-112900000D01*
X110320000Y-108280000D02*
X111660000Y-109620000D01*
X115830000Y-107840000D02*
X112990000Y-107840000D01*
X116550000Y-107120000D02*
X115830000Y-107840000D01*
X114320000Y-103040000D02*
X116280000Y-103040000D01*
X114060000Y-103300000D02*
X114320000Y-103040000D01*
X111130000Y-98560000D02*
X111130000Y-104010000D01*
X110640000Y-98070000D02*
X111130000Y-98560000D01*
X115840000Y-98350000D02*
X113050000Y-98350000D01*
X116340000Y-98850000D02*
X115840000Y-98350000D01*
X113940000Y-95440000D02*
X116510000Y-95440000D01*
X113550000Y-95050000D02*
X113940000Y-95440000D01*
X110310000Y-91260000D02*
X110310000Y-94660000D01*
X110080000Y-91030000D02*
X110310000Y-91260000D01*
X116060000Y-91420000D02*
X112600000Y-91420000D01*
X116340000Y-91700000D02*
X116060000Y-91420000D01*
X113650000Y-88230000D02*
X116400000Y-88230000D01*
X112540000Y-87120000D02*
X113650000Y-88230000D01*
X109410000Y-87640000D02*
X109410000Y-87170000D01*
X107440000Y-89610000D02*
X109410000Y-87640000D01*
X108050000Y-100380000D02*
X108050000Y-94280000D01*
X108250000Y-100580000D02*
X108050000Y-100380000D01*
X108450000Y-110740000D02*
X108450000Y-105050000D01*
X108660000Y-110950000D02*
X108450000Y-110740000D01*
X108660000Y-121720000D02*
X108660000Y-116640000D01*
X108860000Y-121920000D02*
X108660000Y-121720000D01*
X116580000Y-122530000D02*
X112110000Y-122530000D01*
X117800000Y-121310000D02*
X116580000Y-122530000D01*
X123080000Y-122730000D02*
X123080000Y-119080000D01*
X124910000Y-124560000D02*
X123080000Y-122730000D01*
X114350000Y-126190000D02*
X120040000Y-126190000D01*
X108860000Y-128010000D02*
X108860000Y-125580000D01*
X111300000Y-130450000D02*
X108860000Y-128010000D01*
X123290000Y-130250000D02*
X116990000Y-130250000D01*
X123900000Y-130860000D02*
X123290000Y-130250000D01*
X103920000Y-38050000D02*
X104280000Y-37690000D01*
X104280000Y-37690000D02*
X109440000Y-37690000D01*
X114950000Y-37520000D02*
X115120000Y-37690000D01*
X115120000Y-37690000D02*
X119210000Y-37690000D01*
X124370000Y-37520000D02*
X124720000Y-37870000D01*
X124720000Y-37870000D02*
X128640000Y-37870000D01*
X128730000Y-41250000D02*
X128550000Y-41430000D01*
X128550000Y-41430000D02*
X125170000Y-41430000D01*
X119750000Y-40810000D02*
X115300000Y-40810000D01*
X109440000Y-41250000D02*
X109350000Y-41340000D01*
X109350000Y-41340000D02*
X106150000Y-41340000D01*
X104810000Y-41690000D02*
X103390000Y-43110000D01*
X103390000Y-43110000D02*
X103390000Y-44180000D01*
X106150000Y-45250000D02*
X106680000Y-44720000D01*
X106680000Y-44720000D02*
X112100000Y-44720000D01*
X117440000Y-44270000D02*
X117800000Y-44630000D01*
X117800000Y-44630000D02*
X120460000Y-44630000D01*
X124370000Y-45070000D02*
X125620000Y-45070000D01*
X130060000Y-44890000D02*
X128820000Y-46130000D01*
X128820000Y-46130000D02*
X128820000Y-50050000D01*
X121700000Y-50140000D02*
X118150000Y-50140000D01*
X113970000Y-50230000D02*
X112100000Y-50230000D01*
X108280000Y-50050000D02*
X107660000Y-49430000D01*
X107660000Y-49430000D02*
X103750000Y-49430000D01*
X109350000Y-47030000D02*
X109440000Y-47120000D01*
X109440000Y-47120000D02*
X113610000Y-47120000D01*
X118500000Y-47650000D02*
X118680000Y-47830000D01*
X118680000Y-47830000D02*
X123040000Y-47830000D01*
X126150000Y-47830000D02*
X126150000Y-52900000D01*
X129620000Y-52810000D02*
X129880000Y-53070000D01*
X129880000Y-53070000D02*
X129880000Y-56540000D01*
X129790000Y-59120000D02*
X129430000Y-58760000D01*
X129430000Y-58760000D02*
X125530000Y-58760000D01*
X125790000Y-55740000D02*
X123480000Y-53430000D01*
X123480000Y-53430000D02*
X121970000Y-53430000D01*
X118060000Y-52980000D02*
X118860000Y-53780000D01*
X118860000Y-53780000D02*
X118860000Y-55920000D01*
X121620000Y-56100000D02*
X121790000Y-56270000D01*
X121790000Y-56270000D02*
X121790000Y-58410000D01*
X116280000Y-58760000D02*
X114950000Y-57430000D01*
X114950000Y-57430000D02*
X114950000Y-54580000D01*
X110410000Y-53430000D02*
X109970000Y-53870000D01*
X109970000Y-53870000D02*
X106500000Y-53870000D01*
X107920000Y-57870000D02*
X108280000Y-58230000D01*
X108280000Y-58230000D02*
X110680000Y-58230000D01*
X112370000Y-55830000D02*
X112710000Y-56170000D01*
X112710000Y-56170000D02*
X112710000Y-60800000D01*
X109520000Y-60910000D02*
X109460000Y-60850000D01*
X109460000Y-60850000D02*
X105840000Y-60850000D01*
X105450000Y-64040000D02*
X105620000Y-64210000D01*
X105620000Y-64210000D02*
X108690000Y-64210000D01*
X112260000Y-64370000D02*
X113600000Y-63030000D01*
X113600000Y-63030000D02*
X116340000Y-63030000D01*
X115950000Y-65990000D02*
X115750000Y-66190000D01*
X115750000Y-66190000D02*
X115750000Y-70140000D01*
X112460000Y-69340000D02*
X110680000Y-67560000D01*
X110680000Y-67560000D02*
X106410000Y-67560000D01*
X107480000Y-68280000D02*
X106500000Y-69260000D01*
X106500000Y-69260000D02*
X106500000Y-73430000D01*
X106590000Y-76540000D02*
X103840000Y-79290000D01*
X103840000Y-79290000D02*
X103840000Y-79480000D01*
X98860000Y-79570000D02*
X98320000Y-80110000D01*
X98320000Y-80110000D02*
X98320000Y-82410000D01*
X97970000Y-86320000D02*
X100370000Y-88720000D01*
X100370000Y-88720000D02*
X101080000Y-88720000D01*
X101260000Y-83920000D02*
X102770000Y-82410000D01*
X102770000Y-82410000D02*
X105260000Y-82410000D01*
X107210000Y-79480000D02*
X109700000Y-76990000D01*
X109700000Y-76990000D02*
X109700000Y-75570000D01*
X109350000Y-71740000D02*
X110770000Y-73160000D01*
X110770000Y-73160000D02*
X112810000Y-73160000D01*
X116370000Y-74230000D02*
X116370000Y-77790000D01*
X113350000Y-77170000D02*
X112990000Y-77530000D01*
X112990000Y-77530000D02*
X112990000Y-80100000D01*
X116190000Y-81250000D02*
X116190000Y-85080000D01*
X111300000Y-84010000D02*
X110060000Y-82770000D01*
X110060000Y-82770000D02*
X110060000Y-80190000D01*
X107840000Y-84810000D02*
X105260000Y-87390000D01*
X105260000Y-87390000D02*
X105260000Y-87570000D01*
D21*
X95618800Y-44418800D02*
X95618800Y-42100000D01*
D20*
X71500000Y-113481200D02*
X71500000Y-115960000D01*
X68510000Y-115590000D02*
X66470000Y-115590000D01*
X68760000Y-115840000D02*
X68510000Y-115590000D01*
X65910000Y-113600000D02*
X67670000Y-113600000D01*
X65770000Y-113460000D02*
X65910000Y-113600000D01*
X67670000Y-111510000D02*
X65970000Y-111510000D01*
X67920000Y-111260000D02*
X67670000Y-111510000D01*
X66500000Y-109020000D02*
X67840000Y-109020000D01*
X66050000Y-109470000D02*
X66500000Y-109020000D01*
X67950000Y-107400000D02*
X66190000Y-107400000D01*
X68170000Y-107180000D02*
X67950000Y-107400000D01*
X73430000Y-106840000D02*
X70800000Y-106840000D01*
X73540000Y-106950000D02*
X73430000Y-106840000D01*
X76360000Y-107230000D02*
X76360000Y-106810000D01*
X77480000Y-108350000D02*
X76360000Y-107230000D01*
X74990000Y-109600000D02*
X74990000Y-108550000D01*
X75570000Y-110180000D02*
X74990000Y-109600000D01*
X78030000Y-110640000D02*
X78030000Y-110480000D01*
X76670000Y-112000000D02*
X78030000Y-110640000D01*
X74820000Y-112720000D02*
X74820000Y-112170000D01*
X75940000Y-113840000D02*
X74820000Y-112720000D01*
X77950000Y-114600000D02*
X77950000Y-114490000D01*
X76720000Y-115830000D02*
X77950000Y-114600000D01*
X73350000Y-115800000D02*
X75020000Y-115800000D01*
X73230000Y-115920000D02*
X73350000Y-115800000D01*
X71500000Y-115960000D02*
X71450000Y-116010000D01*
X89781200Y-128000000D02*
X92550000Y-128000000D01*
X92330000Y-130980000D02*
X92330000Y-127810000D01*
X92520000Y-131170000D02*
X92330000Y-130980000D01*
X90810000Y-133480000D02*
X92700000Y-133480000D01*
X90710000Y-133580000D02*
X90810000Y-133480000D01*
X88770000Y-131470000D02*
X90480000Y-131470000D01*
X88550000Y-131250000D02*
X88770000Y-131470000D01*
X86740000Y-133280000D02*
X88700000Y-133280000D01*
X86660000Y-133200000D02*
X86740000Y-133280000D01*
X84840000Y-131350000D02*
X86620000Y-131350000D01*
X84820000Y-131370000D02*
X84840000Y-131350000D01*
X83260000Y-133340000D02*
X84590000Y-133340000D01*
X82890000Y-132970000D02*
X83260000Y-133340000D01*
X82860000Y-128350000D02*
X82860000Y-130700000D01*
X83010000Y-128200000D02*
X82860000Y-128350000D01*
X82810000Y-123440000D02*
X82810000Y-125900000D01*
X82840000Y-123410000D02*
X82810000Y-123440000D01*
X83850000Y-121430000D02*
X82810000Y-121430000D01*
X84550000Y-122130000D02*
X83850000Y-121430000D01*
X86270000Y-124280000D02*
X84490000Y-124280000D01*
X86640000Y-123910000D02*
X86270000Y-124280000D01*
X87230000Y-121200000D02*
X86530000Y-121200000D01*
X88490000Y-122460000D02*
X87230000Y-121200000D01*
X89530000Y-124580000D02*
X88320000Y-124580000D01*
X90250000Y-123860000D02*
X89530000Y-124580000D01*
X92140000Y-121620000D02*
X90440000Y-121620000D01*
X92450000Y-121930000D02*
X92140000Y-121620000D01*
X92560000Y-125900000D02*
X92560000Y-124050000D01*
X92540000Y-125920000D02*
X92560000Y-125900000D01*
X92550000Y-128000000D02*
X92620000Y-127930000D01*
X94190000Y-104050000D02*
X94190000Y-100450000D01*
X100360000Y-100240000D02*
X100360000Y-101730000D01*
X100320000Y-100200000D02*
X100360000Y-100240000D01*
X96730000Y-100200000D02*
X98260000Y-100200000D01*
X96160000Y-100770000D02*
X96730000Y-100200000D01*
X100200000Y-101880000D02*
X97610000Y-101880000D01*
X97950000Y-103900000D02*
X100390000Y-103900000D01*
X97800000Y-103750000D02*
X97950000Y-103900000D01*
X100200000Y-105610000D02*
X98030000Y-105610000D01*
X100240000Y-105650000D02*
X100200000Y-105610000D01*
X98000000Y-107860000D02*
X100280000Y-107860000D01*
X97920000Y-107940000D02*
X98000000Y-107860000D01*
X93700000Y-107980000D02*
X95940000Y-107980000D01*
X93350000Y-107630000D02*
X93700000Y-107980000D01*
X90830000Y-107780000D02*
X91250000Y-107780000D01*
X89920000Y-106870000D02*
X90830000Y-107780000D01*
X90410000Y-103440000D02*
X90410000Y-104660000D01*
X89650000Y-102680000D02*
X90410000Y-103440000D01*
X91910000Y-100540000D02*
X90080000Y-100540000D01*
X91990000Y-100460000D02*
X91910000Y-100540000D01*
X94190000Y-100450000D02*
X93980000Y-100240000D01*
X85818800Y-128998800D02*
X85818800Y-128000000D01*
X162000000Y-51440000D02*
X162000000Y-49570000D01*
X162140000Y-51580000D02*
X162000000Y-51440000D01*
X161860000Y-56400000D02*
X161860000Y-53980000D01*
X161630000Y-56630000D02*
X161860000Y-56400000D01*
X162050000Y-61390000D02*
X162050000Y-59200000D01*
X162160000Y-61500000D02*
X162050000Y-61390000D01*
X160400000Y-59710000D02*
X160400000Y-61500000D01*
X160260000Y-59570000D02*
X160400000Y-59710000D01*
X157920000Y-57080000D02*
X159870000Y-57080000D01*
X157810000Y-56970000D02*
X157920000Y-57080000D01*
X155910000Y-59000000D02*
X155910000Y-57000000D01*
X155820000Y-59090000D02*
X155910000Y-59000000D01*
X154150000Y-61300000D02*
X155650000Y-61300000D01*
X153870000Y-61020000D02*
X154150000Y-61300000D01*
X154030000Y-57330000D02*
X154030000Y-59010000D01*
X154060000Y-57300000D02*
X154030000Y-57330000D01*
X154120000Y-53630000D02*
X154120000Y-55280000D01*
X154180000Y-53570000D02*
X154120000Y-53630000D01*
X154240000Y-50340000D02*
X154240000Y-51800000D01*
X154430000Y-50150000D02*
X154240000Y-50340000D01*
X127210000Y-96430000D02*
X124430000Y-96430000D01*
X141580000Y-97540000D02*
X139700000Y-95660000D01*
X138190000Y-97540000D02*
X139900000Y-97540000D01*
X137770000Y-97960000D02*
X138190000Y-97540000D01*
X136020000Y-95780000D02*
X136020000Y-96580000D01*
X134800000Y-94560000D02*
X136020000Y-95780000D01*
X133080000Y-97490000D02*
X133080000Y-95670000D01*
X133240000Y-97650000D02*
X133080000Y-97490000D01*
X130800000Y-95780000D02*
X130800000Y-97840000D01*
X131030000Y-95550000D02*
X130800000Y-95780000D01*
X132930000Y-93420000D02*
X131600000Y-93420000D01*
X133810000Y-92540000D02*
X132930000Y-93420000D01*
X136090000Y-91250000D02*
X136090000Y-91590000D01*
X134720000Y-89880000D02*
X136090000Y-91250000D01*
X131760000Y-90180000D02*
X132210000Y-90180000D01*
X130610000Y-91330000D02*
X131760000Y-90180000D01*
X126720000Y-93000000D02*
X129350000Y-93000000D01*
X126490000Y-92770000D02*
X126720000Y-93000000D01*
X124400000Y-91600000D02*
X124400000Y-92160000D01*
X123060000Y-90260000D02*
X124400000Y-91600000D01*
X122910000Y-94900000D02*
X122910000Y-93000000D01*
X123220000Y-95210000D02*
X122910000Y-94900000D01*
X124430000Y-96430000D02*
X123290000Y-97570000D01*
X139700000Y-95660000D02*
X139700000Y-94481200D01*
X145620000Y-45130000D02*
X147540000Y-45130000D01*
X145130000Y-44640000D02*
X145620000Y-45130000D01*
X147340000Y-46760000D02*
X145270000Y-46760000D01*
X147520000Y-46940000D02*
X147340000Y-46760000D01*
X145370000Y-48830000D02*
X147320000Y-48830000D01*
X145350000Y-48810000D02*
X145370000Y-48830000D01*
X143480000Y-47040000D02*
X143480000Y-48730000D01*
X143380000Y-46940000D02*
X143480000Y-47040000D01*
X141900000Y-44890000D02*
X143440000Y-44890000D01*
X141670000Y-44660000D02*
X141900000Y-44890000D01*
X141770000Y-48390000D02*
X141770000Y-46470000D01*
X141550000Y-48610000D02*
X141770000Y-48390000D01*
X137610000Y-48480000D02*
X139720000Y-48480000D01*
X137550000Y-48420000D02*
X137610000Y-48480000D01*
X139560000Y-46470000D02*
X137710000Y-46470000D01*
X139860000Y-46170000D02*
X139560000Y-46470000D01*
X137840000Y-44080000D02*
X140020000Y-44080000D01*
X137460000Y-44460000D02*
X137840000Y-44080000D01*
X139720000Y-41910000D02*
X137810000Y-41910000D01*
X139870000Y-41760000D02*
X139720000Y-41910000D01*
X138160000Y-39200000D02*
X140170000Y-39200000D01*
X137660000Y-39700000D02*
X138160000Y-39200000D01*
X141080000Y-37340000D02*
X138230000Y-37340000D01*
X141120000Y-37380000D02*
X141080000Y-37340000D01*
X146490000Y-37570000D02*
X143710000Y-37570000D01*
X146530000Y-37530000D02*
X146490000Y-37570000D01*
X137660000Y-77950000D02*
X139700000Y-79990000D01*
X141920000Y-77950000D02*
X139830000Y-77950000D01*
X138650000Y-76280000D02*
X141010000Y-76280000D01*
X135410000Y-76280000D02*
X136470000Y-76280000D01*
X134650000Y-77040000D02*
X135410000Y-76280000D01*
X132860000Y-79550000D02*
X134800000Y-79550000D01*
X132510000Y-79900000D02*
X132860000Y-79550000D01*
X131940000Y-76930000D02*
X131940000Y-77460000D01*
X130490000Y-75480000D02*
X131940000Y-76930000D01*
X130760000Y-71550000D02*
X130760000Y-73340000D01*
X130300000Y-71090000D02*
X130760000Y-71550000D01*
X139700000Y-79990000D02*
X139700000Y-80418800D01*
X127210000Y-73570000D02*
X125750000Y-73570000D01*
X125750000Y-73570000D02*
X123670000Y-71490000D01*
X122440000Y-72980000D02*
X123440000Y-73980000D01*
X123440000Y-73980000D02*
X123440000Y-74680000D01*
X122430000Y-76080000D02*
X122660000Y-76310000D01*
X122660000Y-76310000D02*
X124400000Y-76310000D01*
X123060000Y-78370000D02*
X122910000Y-78520000D01*
X122910000Y-78520000D02*
X122910000Y-80580000D01*
X122800000Y-82520000D02*
X122950000Y-82670000D01*
X122950000Y-82670000D02*
X122950000Y-84730000D01*
X125040000Y-84730000D02*
X125350000Y-85040000D01*
X125350000Y-85040000D02*
X127100000Y-85040000D01*
X129160000Y-85150000D02*
X129500000Y-84810000D01*
X129500000Y-84810000D02*
X131670000Y-84810000D01*
X134110000Y-85000000D02*
X135250000Y-83860000D01*
X135250000Y-83860000D02*
X135830000Y-83860000D01*
X135750000Y-81340000D02*
X134870000Y-82220000D01*
X134870000Y-82220000D02*
X133620000Y-82220000D01*
X131330000Y-81880000D02*
X130910000Y-81460000D01*
X130910000Y-81460000D02*
X130910000Y-79210000D01*
X129160000Y-77300000D02*
X128860000Y-77000000D01*
X128860000Y-77000000D02*
X126720000Y-77000000D01*
D22*
G36*
X74373000Y-90873000D02*
X65627000Y-90873000D01*
X65627000Y-77127000D01*
X74373000Y-77127000D01*
X74373000Y-90873000D01*
X74373000Y-90873000D01*
G37*
X74373000Y-90873000D02*
X65627000Y-90873000D01*
X65627000Y-77127000D01*
X74373000Y-77127000D01*
X74373000Y-90873000D01*
G36*
X87873000Y-90873000D02*
X78127000Y-90873000D01*
X78127000Y-77127000D01*
X87873000Y-77127000D01*
X87873000Y-90873000D01*
X87873000Y-90873000D01*
G37*
X87873000Y-90873000D02*
X78127000Y-90873000D01*
X78127000Y-77127000D01*
X87873000Y-77127000D01*
X87873000Y-90873000D01*
G36*
X91055546Y-95803674D02*
X91054457Y-97050854D01*
X91530727Y-98203515D01*
X92411847Y-99086174D01*
X93563674Y-99564454D01*
X94810854Y-99565543D01*
X95963515Y-99089273D01*
X96846174Y-98208153D01*
X97324454Y-97056326D01*
X97325543Y-95809146D01*
X97291601Y-95727000D01*
X101372673Y-95727000D01*
X101273539Y-134290000D01*
X65210000Y-134290000D01*
X65210000Y-130759482D01*
X65664336Y-130759482D01*
X66246950Y-132169515D01*
X67324811Y-133249259D01*
X68733825Y-133834333D01*
X70259482Y-133835664D01*
X71669515Y-133253050D01*
X72749259Y-132175189D01*
X73334333Y-130766175D01*
X73335664Y-129240518D01*
X72753050Y-127830485D01*
X71675189Y-126750741D01*
X70266175Y-126165667D01*
X68740518Y-126164336D01*
X67330485Y-126746950D01*
X66250741Y-127824811D01*
X65665667Y-129233825D01*
X65664336Y-130759482D01*
X65210000Y-130759482D01*
X65210000Y-95727000D01*
X91087384Y-95727000D01*
X91055546Y-95803674D01*
X91055546Y-95803674D01*
G37*
X91055546Y-95803674D02*
X91054457Y-97050854D01*
X91530727Y-98203515D01*
X92411847Y-99086174D01*
X93563674Y-99564454D01*
X94810854Y-99565543D01*
X95963515Y-99089273D01*
X96846174Y-98208153D01*
X97324454Y-97056326D01*
X97325543Y-95809146D01*
X97291601Y-95727000D01*
X101372673Y-95727000D01*
X101273539Y-134290000D01*
X65210000Y-134290000D01*
X65210000Y-130759482D01*
X65664336Y-130759482D01*
X66246950Y-132169515D01*
X67324811Y-133249259D01*
X68733825Y-133834333D01*
X70259482Y-133835664D01*
X71669515Y-133253050D01*
X72749259Y-132175189D01*
X73334333Y-130766175D01*
X73335664Y-129240518D01*
X72753050Y-127830485D01*
X71675189Y-126750741D01*
X70266175Y-126165667D01*
X68740518Y-126164336D01*
X67330485Y-126746950D01*
X66250741Y-127824811D01*
X65665667Y-129233825D01*
X65664336Y-130759482D01*
X65210000Y-130759482D01*
X65210000Y-95727000D01*
X91087384Y-95727000D01*
X91055546Y-95803674D01*
G36*
X92773005Y-46998915D02*
X92782588Y-47048408D01*
X92817349Y-47096426D01*
X101873357Y-54858719D01*
X101972218Y-70973000D01*
X96027224Y-70973000D01*
X95968153Y-70913826D01*
X94816326Y-70435546D01*
X93569146Y-70434457D01*
X92416485Y-70910727D01*
X92354103Y-70973000D01*
X65625228Y-70973000D01*
X65328119Y-49818800D01*
X69302939Y-49818800D01*
X69465446Y-50635779D01*
X69928228Y-51328381D01*
X70620830Y-51791163D01*
X70665257Y-51800000D01*
X70620830Y-51808837D01*
X69928228Y-52271619D01*
X69465446Y-52964221D01*
X69302939Y-53781200D01*
X69465446Y-54598179D01*
X69928228Y-55290781D01*
X70620830Y-55753563D01*
X71437809Y-55916070D01*
X73562191Y-55916070D01*
X74379170Y-55753563D01*
X75071772Y-55290781D01*
X75534554Y-54598179D01*
X75697061Y-53781200D01*
X75534554Y-52964221D01*
X75071772Y-52271619D01*
X74379170Y-51808837D01*
X74334743Y-51800000D01*
X74379170Y-51791163D01*
X75071772Y-51328381D01*
X75534554Y-50635779D01*
X75697061Y-49818800D01*
X75534554Y-49001821D01*
X75071772Y-48309219D01*
X74379170Y-47846437D01*
X73562191Y-47683930D01*
X71437809Y-47683930D01*
X70620830Y-47846437D01*
X69928228Y-48309219D01*
X69465446Y-49001821D01*
X69302939Y-49818800D01*
X65328119Y-49818800D01*
X65210000Y-41408740D01*
X65210000Y-40759482D01*
X65664336Y-40759482D01*
X66246950Y-42169515D01*
X67324811Y-43249259D01*
X68733825Y-43834333D01*
X70259482Y-43835664D01*
X71669515Y-43253050D01*
X72749259Y-42175189D01*
X73334333Y-40766175D01*
X73335664Y-39240518D01*
X72753050Y-37830485D01*
X71675189Y-36750741D01*
X70266175Y-36165667D01*
X68740518Y-36164336D01*
X67330485Y-36746950D01*
X66250741Y-37824811D01*
X65665667Y-39233825D01*
X65664336Y-40759482D01*
X65210000Y-40759482D01*
X65210000Y-35710000D01*
X92869491Y-35710000D01*
X92773005Y-46998915D01*
X92773005Y-46998915D01*
G37*
X92773005Y-46998915D02*
X92782588Y-47048408D01*
X92817349Y-47096426D01*
X101873357Y-54858719D01*
X101972218Y-70973000D01*
X96027224Y-70973000D01*
X95968153Y-70913826D01*
X94816326Y-70435546D01*
X93569146Y-70434457D01*
X92416485Y-70910727D01*
X92354103Y-70973000D01*
X65625228Y-70973000D01*
X65328119Y-49818800D01*
X69302939Y-49818800D01*
X69465446Y-50635779D01*
X69928228Y-51328381D01*
X70620830Y-51791163D01*
X70665257Y-51800000D01*
X70620830Y-51808837D01*
X69928228Y-52271619D01*
X69465446Y-52964221D01*
X69302939Y-53781200D01*
X69465446Y-54598179D01*
X69928228Y-55290781D01*
X70620830Y-55753563D01*
X71437809Y-55916070D01*
X73562191Y-55916070D01*
X74379170Y-55753563D01*
X75071772Y-55290781D01*
X75534554Y-54598179D01*
X75697061Y-53781200D01*
X75534554Y-52964221D01*
X75071772Y-52271619D01*
X74379170Y-51808837D01*
X74334743Y-51800000D01*
X74379170Y-51791163D01*
X75071772Y-51328381D01*
X75534554Y-50635779D01*
X75697061Y-49818800D01*
X75534554Y-49001821D01*
X75071772Y-48309219D01*
X74379170Y-47846437D01*
X73562191Y-47683930D01*
X71437809Y-47683930D01*
X70620830Y-47846437D01*
X69928228Y-48309219D01*
X69465446Y-49001821D01*
X69302939Y-49818800D01*
X65328119Y-49818800D01*
X65210000Y-41408740D01*
X65210000Y-40759482D01*
X65664336Y-40759482D01*
X66246950Y-42169515D01*
X67324811Y-43249259D01*
X68733825Y-43834333D01*
X70259482Y-43835664D01*
X71669515Y-43253050D01*
X72749259Y-42175189D01*
X73334333Y-40766175D01*
X73335664Y-39240518D01*
X72753050Y-37830485D01*
X71675189Y-36750741D01*
X70266175Y-36165667D01*
X68740518Y-36164336D01*
X67330485Y-36746950D01*
X66250741Y-37824811D01*
X65665667Y-39233825D01*
X65664336Y-40759482D01*
X65210000Y-40759482D01*
X65210000Y-35710000D01*
X92869491Y-35710000D01*
X92773005Y-46998915D01*
G36*
X163373349Y-106673000D02*
X121627000Y-106673000D01*
X121627000Y-102024214D01*
X124574543Y-102024214D01*
X124974853Y-102993038D01*
X125715443Y-103734922D01*
X126683567Y-104136922D01*
X127731834Y-104137837D01*
X128700658Y-103737527D01*
X129442542Y-102996937D01*
X129844542Y-102028813D01*
X129845457Y-100980546D01*
X129445147Y-100011722D01*
X128704557Y-99269838D01*
X127736433Y-98867838D01*
X126688166Y-98866923D01*
X125719342Y-99267233D01*
X124977458Y-100007823D01*
X124575458Y-100975947D01*
X124574543Y-102024214D01*
X121627000Y-102024214D01*
X121627000Y-88629052D01*
X124075123Y-88668285D01*
X124074457Y-89430854D01*
X124550727Y-90583515D01*
X125431847Y-91466174D01*
X126583674Y-91944454D01*
X127830854Y-91945543D01*
X128983515Y-91469273D01*
X129866174Y-90588153D01*
X130344454Y-89436326D01*
X130345037Y-88768764D01*
X152697965Y-89126984D01*
X152747529Y-89117771D01*
X152789604Y-89090001D01*
X152817560Y-89048049D01*
X152826998Y-88999314D01*
X152727688Y-70627000D01*
X163472649Y-70627000D01*
X163373349Y-106673000D01*
X163373349Y-106673000D01*
G37*
X163373349Y-106673000D02*
X121627000Y-106673000D01*
X121627000Y-102024214D01*
X124574543Y-102024214D01*
X124974853Y-102993038D01*
X125715443Y-103734922D01*
X126683567Y-104136922D01*
X127731834Y-104137837D01*
X128700658Y-103737527D01*
X129442542Y-102996937D01*
X129844542Y-102028813D01*
X129845457Y-100980546D01*
X129445147Y-100011722D01*
X128704557Y-99269838D01*
X127736433Y-98867838D01*
X126688166Y-98866923D01*
X125719342Y-99267233D01*
X124977458Y-100007823D01*
X124575458Y-100975947D01*
X124574543Y-102024214D01*
X121627000Y-102024214D01*
X121627000Y-88629052D01*
X124075123Y-88668285D01*
X124074457Y-89430854D01*
X124550727Y-90583515D01*
X125431847Y-91466174D01*
X126583674Y-91944454D01*
X127830854Y-91945543D01*
X128983515Y-91469273D01*
X129866174Y-90588153D01*
X130344454Y-89436326D01*
X130345037Y-88768764D01*
X152697965Y-89126984D01*
X152747529Y-89117771D01*
X152789604Y-89090001D01*
X152817560Y-89048049D01*
X152826998Y-88999314D01*
X152727688Y-70627000D01*
X163472649Y-70627000D01*
X163373349Y-106673000D01*
G36*
X124074457Y-66570854D02*
X124550727Y-67723515D01*
X125431847Y-68606174D01*
X126583674Y-69084454D01*
X127830854Y-69085543D01*
X128983515Y-68609273D01*
X129866174Y-67728153D01*
X130344454Y-66576326D01*
X130345458Y-65427000D01*
X149373000Y-65427000D01*
X149373000Y-84500000D01*
X149373981Y-84515752D01*
X149556137Y-85973000D01*
X128552675Y-85973000D01*
X127836326Y-85675546D01*
X126589146Y-85674457D01*
X125866617Y-85973000D01*
X121236755Y-85973000D01*
X121426653Y-83409382D01*
X121427000Y-83400000D01*
X121427000Y-81810854D01*
X124074457Y-81810854D01*
X124550727Y-82963515D01*
X125431847Y-83846174D01*
X126583674Y-84324454D01*
X127830854Y-84325543D01*
X128983515Y-83849273D01*
X129866174Y-82968153D01*
X130344454Y-81816326D01*
X130345543Y-80569146D01*
X129869273Y-79416485D01*
X128988153Y-78533826D01*
X127836326Y-78055546D01*
X126589146Y-78054457D01*
X125436485Y-78530727D01*
X124553826Y-79411847D01*
X124075546Y-80563674D01*
X124074457Y-81810854D01*
X121427000Y-81810854D01*
X121427000Y-65427000D01*
X124075456Y-65427000D01*
X124074457Y-66570854D01*
X124074457Y-66570854D01*
G37*
X124074457Y-66570854D02*
X124550727Y-67723515D01*
X125431847Y-68606174D01*
X126583674Y-69084454D01*
X127830854Y-69085543D01*
X128983515Y-68609273D01*
X129866174Y-67728153D01*
X130344454Y-66576326D01*
X130345458Y-65427000D01*
X149373000Y-65427000D01*
X149373000Y-84500000D01*
X149373981Y-84515752D01*
X149556137Y-85973000D01*
X128552675Y-85973000D01*
X127836326Y-85675546D01*
X126589146Y-85674457D01*
X125866617Y-85973000D01*
X121236755Y-85973000D01*
X121426653Y-83409382D01*
X121427000Y-83400000D01*
X121427000Y-81810854D01*
X124074457Y-81810854D01*
X124550727Y-82963515D01*
X125431847Y-83846174D01*
X126583674Y-84324454D01*
X127830854Y-84325543D01*
X128983515Y-83849273D01*
X129866174Y-82968153D01*
X130344454Y-81816326D01*
X130345543Y-80569146D01*
X129869273Y-79416485D01*
X128988153Y-78533826D01*
X127836326Y-78055546D01*
X126589146Y-78054457D01*
X125436485Y-78530727D01*
X124553826Y-79411847D01*
X124075546Y-80563674D01*
X124074457Y-81810854D01*
X121427000Y-81810854D01*
X121427000Y-65427000D01*
X124075456Y-65427000D01*
X124074457Y-66570854D01*
G36*
X163573740Y-64573000D02*
X152727745Y-64573000D01*
X152826260Y-47727000D01*
X163672255Y-47727000D01*
X163573740Y-64573000D01*
X163573740Y-64573000D01*
G37*
X163573740Y-64573000D02*
X152727745Y-64573000D01*
X152826260Y-47727000D01*
X163672255Y-47727000D01*
X163573740Y-64573000D01*
G36*
X148873000Y-60071988D02*
X136527000Y-59974004D01*
X136527000Y-36027000D01*
X148873000Y-36027000D01*
X148873000Y-60071988D01*
X148873000Y-60071988D01*
G37*
X148873000Y-60071988D02*
X136527000Y-59974004D01*
X136527000Y-36027000D01*
X148873000Y-36027000D01*
X148873000Y-60071988D01*
G36*
X131873000Y-35725996D02*
X131873000Y-60374895D01*
X118698090Y-60573014D01*
X118648836Y-60583762D01*
X118607644Y-60612825D01*
X118581005Y-60655625D01*
X118573007Y-60698696D01*
X118073007Y-109398696D01*
X118082505Y-109448206D01*
X118110517Y-109490121D01*
X118152629Y-109517834D01*
X118200845Y-109526997D01*
X163172490Y-109227851D01*
X163095077Y-128658254D01*
X162753050Y-127830485D01*
X161675189Y-126750741D01*
X160266175Y-126165667D01*
X158740518Y-126164336D01*
X157330485Y-126746950D01*
X156250741Y-127824811D01*
X155665667Y-129233825D01*
X155664336Y-130759482D01*
X156246950Y-132169515D01*
X157324811Y-133249259D01*
X158733825Y-133834333D01*
X160259482Y-133835664D01*
X161669515Y-133253050D01*
X162749259Y-132175189D01*
X163084280Y-131368369D01*
X163073502Y-134073663D01*
X121897408Y-134290000D01*
X106226526Y-134290000D01*
X106127000Y-90299713D01*
X106116882Y-90250325D01*
X106088347Y-90208765D01*
X106045891Y-90181581D01*
X106000000Y-90173000D01*
X97018560Y-90173000D01*
X97324454Y-89436326D01*
X97325543Y-88189146D01*
X96849273Y-87036485D01*
X95968153Y-86153826D01*
X94816326Y-85675546D01*
X93569146Y-85674457D01*
X92416485Y-86150727D01*
X91573602Y-86992141D01*
X91628957Y-83061916D01*
X92411847Y-83846174D01*
X93563674Y-84324454D01*
X94810854Y-84325543D01*
X95963515Y-83849273D01*
X96846174Y-82968153D01*
X97324454Y-81816326D01*
X97325543Y-80569146D01*
X96849273Y-79416485D01*
X95968153Y-78533826D01*
X94816326Y-78055546D01*
X93569146Y-78054457D01*
X92416485Y-78530727D01*
X91682456Y-79263476D01*
X91725223Y-76227000D01*
X92413836Y-76227000D01*
X93563674Y-76704454D01*
X94810854Y-76705543D01*
X95963515Y-76229273D01*
X95965792Y-76227000D01*
X104000000Y-76227000D01*
X104049410Y-76216994D01*
X104091035Y-76188553D01*
X104118315Y-76146159D01*
X104126999Y-76099423D01*
X104026999Y-54099423D01*
X104016768Y-54050059D01*
X103980806Y-54002023D01*
X94327000Y-46040121D01*
X94327000Y-35710000D01*
X129857503Y-35710000D01*
X131873000Y-35725996D01*
X131873000Y-35725996D01*
G37*
X131873000Y-35725996D02*
X131873000Y-60374895D01*
X118698090Y-60573014D01*
X118648836Y-60583762D01*
X118607644Y-60612825D01*
X118581005Y-60655625D01*
X118573007Y-60698696D01*
X118073007Y-109398696D01*
X118082505Y-109448206D01*
X118110517Y-109490121D01*
X118152629Y-109517834D01*
X118200845Y-109526997D01*
X163172490Y-109227851D01*
X163095077Y-128658254D01*
X162753050Y-127830485D01*
X161675189Y-126750741D01*
X160266175Y-126165667D01*
X158740518Y-126164336D01*
X157330485Y-126746950D01*
X156250741Y-127824811D01*
X155665667Y-129233825D01*
X155664336Y-130759482D01*
X156246950Y-132169515D01*
X157324811Y-133249259D01*
X158733825Y-133834333D01*
X160259482Y-133835664D01*
X161669515Y-133253050D01*
X162749259Y-132175189D01*
X163084280Y-131368369D01*
X163073502Y-134073663D01*
X121897408Y-134290000D01*
X106226526Y-134290000D01*
X106127000Y-90299713D01*
X106116882Y-90250325D01*
X106088347Y-90208765D01*
X106045891Y-90181581D01*
X106000000Y-90173000D01*
X97018560Y-90173000D01*
X97324454Y-89436326D01*
X97325543Y-88189146D01*
X96849273Y-87036485D01*
X95968153Y-86153826D01*
X94816326Y-85675546D01*
X93569146Y-85674457D01*
X92416485Y-86150727D01*
X91573602Y-86992141D01*
X91628957Y-83061916D01*
X92411847Y-83846174D01*
X93563674Y-84324454D01*
X94810854Y-84325543D01*
X95963515Y-83849273D01*
X96846174Y-82968153D01*
X97324454Y-81816326D01*
X97325543Y-80569146D01*
X96849273Y-79416485D01*
X95968153Y-78533826D01*
X94816326Y-78055546D01*
X93569146Y-78054457D01*
X92416485Y-78530727D01*
X91682456Y-79263476D01*
X91725223Y-76227000D01*
X92413836Y-76227000D01*
X93563674Y-76704454D01*
X94810854Y-76705543D01*
X95963515Y-76229273D01*
X95965792Y-76227000D01*
X104000000Y-76227000D01*
X104049410Y-76216994D01*
X104091035Y-76188553D01*
X104118315Y-76146159D01*
X104126999Y-76099423D01*
X104026999Y-54099423D01*
X104016768Y-54050059D01*
X103980806Y-54002023D01*
X94327000Y-46040121D01*
X94327000Y-35710000D01*
X129857503Y-35710000D01*
X131873000Y-35725996D01*
M02*
