G04 #@! TF.FileFunction,Other,Fab,Top*
%FSLAX46Y46*%
G04 Gerber Fmt 4.6, Leading zero omitted, Abs format (unit mm)*
G04 Created by KiCad (PCBNEW 4.0.2-stable) date 10/05/17 14:13:38*
%MOMM*%
G01*
G04 APERTURE LIST*
%ADD10C,0.100000*%
%ADD11C,0.150000*%
G04 APERTURE END LIST*
D10*
X73500000Y-67500000D02*
X68500000Y-67500000D01*
X68500000Y-67500000D02*
X68500000Y-80500000D01*
X68500000Y-80500000D02*
X73500000Y-80500000D01*
X73500000Y-80500000D02*
X73500000Y-67500000D01*
X73500000Y-87500000D02*
X68500000Y-87500000D01*
X68500000Y-87500000D02*
X68500000Y-100500000D01*
X68500000Y-100500000D02*
X73500000Y-100500000D01*
X73500000Y-100500000D02*
X73500000Y-87500000D01*
X84000000Y-67500000D02*
X79000000Y-67500000D01*
X79000000Y-67500000D02*
X79000000Y-80500000D01*
X79000000Y-80500000D02*
X84000000Y-80500000D01*
X84000000Y-80500000D02*
X84000000Y-67500000D01*
X84000000Y-87500000D02*
X79000000Y-87500000D01*
X79000000Y-87500000D02*
X79000000Y-100500000D01*
X79000000Y-100500000D02*
X84000000Y-100500000D01*
X84000000Y-100500000D02*
X84000000Y-87500000D01*
X161600000Y-59100000D02*
X154600000Y-59100000D01*
X154600000Y-59100000D02*
X154600000Y-77100000D01*
X154600000Y-77100000D02*
X161600000Y-77100000D01*
X161600000Y-77100000D02*
X161600000Y-59100000D01*
X147500000Y-53500000D02*
X140500000Y-53500000D01*
X140500000Y-53500000D02*
X140500000Y-71500000D01*
X140500000Y-71500000D02*
X147500000Y-71500000D01*
X147500000Y-71500000D02*
X147500000Y-53500000D01*
D11*
X66642381Y-75690476D02*
X66642381Y-75071428D01*
X67023333Y-75404762D01*
X67023333Y-75261904D01*
X67070952Y-75166666D01*
X67118571Y-75119047D01*
X67213810Y-75071428D01*
X67451905Y-75071428D01*
X67547143Y-75119047D01*
X67594762Y-75166666D01*
X67642381Y-75261904D01*
X67642381Y-75547619D01*
X67594762Y-75642857D01*
X67547143Y-75690476D01*
X66737619Y-74690476D02*
X66690000Y-74642857D01*
X66642381Y-74547619D01*
X66642381Y-74309523D01*
X66690000Y-74214285D01*
X66737619Y-74166666D01*
X66832857Y-74119047D01*
X66928095Y-74119047D01*
X67070952Y-74166666D01*
X67642381Y-74738095D01*
X67642381Y-74119047D01*
X66975714Y-73690476D02*
X67642381Y-73690476D01*
X67070952Y-73690476D02*
X67023333Y-73642857D01*
X66975714Y-73547619D01*
X66975714Y-73404761D01*
X67023333Y-73309523D01*
X67118571Y-73261904D01*
X67642381Y-73261904D01*
X67118571Y-72452380D02*
X67118571Y-72785714D01*
X67642381Y-72785714D02*
X66642381Y-72785714D01*
X66642381Y-72309523D01*
X70833334Y-74357143D02*
X70785715Y-74404762D01*
X70642858Y-74452381D01*
X70547620Y-74452381D01*
X70404762Y-74404762D01*
X70309524Y-74309524D01*
X70261905Y-74214286D01*
X70214286Y-74023810D01*
X70214286Y-73880952D01*
X70261905Y-73690476D01*
X70309524Y-73595238D01*
X70404762Y-73500000D01*
X70547620Y-73452381D01*
X70642858Y-73452381D01*
X70785715Y-73500000D01*
X70833334Y-73547619D01*
X71785715Y-74452381D02*
X71214286Y-74452381D01*
X71500000Y-74452381D02*
X71500000Y-73452381D01*
X71404762Y-73595238D01*
X71309524Y-73690476D01*
X71214286Y-73738095D01*
X66642381Y-95690476D02*
X66642381Y-95071428D01*
X67023333Y-95404762D01*
X67023333Y-95261904D01*
X67070952Y-95166666D01*
X67118571Y-95119047D01*
X67213810Y-95071428D01*
X67451905Y-95071428D01*
X67547143Y-95119047D01*
X67594762Y-95166666D01*
X67642381Y-95261904D01*
X67642381Y-95547619D01*
X67594762Y-95642857D01*
X67547143Y-95690476D01*
X66737619Y-94690476D02*
X66690000Y-94642857D01*
X66642381Y-94547619D01*
X66642381Y-94309523D01*
X66690000Y-94214285D01*
X66737619Y-94166666D01*
X66832857Y-94119047D01*
X66928095Y-94119047D01*
X67070952Y-94166666D01*
X67642381Y-94738095D01*
X67642381Y-94119047D01*
X66975714Y-93690476D02*
X67642381Y-93690476D01*
X67070952Y-93690476D02*
X67023333Y-93642857D01*
X66975714Y-93547619D01*
X66975714Y-93404761D01*
X67023333Y-93309523D01*
X67118571Y-93261904D01*
X67642381Y-93261904D01*
X67118571Y-92452380D02*
X67118571Y-92785714D01*
X67642381Y-92785714D02*
X66642381Y-92785714D01*
X66642381Y-92309523D01*
X71357143Y-94166666D02*
X71404762Y-94214285D01*
X71452381Y-94357142D01*
X71452381Y-94452380D01*
X71404762Y-94595238D01*
X71309524Y-94690476D01*
X71214286Y-94738095D01*
X71023810Y-94785714D01*
X70880952Y-94785714D01*
X70690476Y-94738095D01*
X70595238Y-94690476D01*
X70500000Y-94595238D01*
X70452381Y-94452380D01*
X70452381Y-94357142D01*
X70500000Y-94214285D01*
X70547619Y-94166666D01*
X70547619Y-93785714D02*
X70500000Y-93738095D01*
X70452381Y-93642857D01*
X70452381Y-93404761D01*
X70500000Y-93309523D01*
X70547619Y-93261904D01*
X70642857Y-93214285D01*
X70738095Y-93214285D01*
X70880952Y-93261904D01*
X71452381Y-93833333D01*
X71452381Y-93214285D01*
X77142381Y-75690476D02*
X77142381Y-75071428D01*
X77523333Y-75404762D01*
X77523333Y-75261904D01*
X77570952Y-75166666D01*
X77618571Y-75119047D01*
X77713810Y-75071428D01*
X77951905Y-75071428D01*
X78047143Y-75119047D01*
X78094762Y-75166666D01*
X78142381Y-75261904D01*
X78142381Y-75547619D01*
X78094762Y-75642857D01*
X78047143Y-75690476D01*
X77237619Y-74690476D02*
X77190000Y-74642857D01*
X77142381Y-74547619D01*
X77142381Y-74309523D01*
X77190000Y-74214285D01*
X77237619Y-74166666D01*
X77332857Y-74119047D01*
X77428095Y-74119047D01*
X77570952Y-74166666D01*
X78142381Y-74738095D01*
X78142381Y-74119047D01*
X77475714Y-73690476D02*
X78142381Y-73690476D01*
X77570952Y-73690476D02*
X77523333Y-73642857D01*
X77475714Y-73547619D01*
X77475714Y-73404761D01*
X77523333Y-73309523D01*
X77618571Y-73261904D01*
X78142381Y-73261904D01*
X77618571Y-72452380D02*
X77618571Y-72785714D01*
X78142381Y-72785714D02*
X77142381Y-72785714D01*
X77142381Y-72309523D01*
X81857143Y-74166666D02*
X81904762Y-74214285D01*
X81952381Y-74357142D01*
X81952381Y-74452380D01*
X81904762Y-74595238D01*
X81809524Y-74690476D01*
X81714286Y-74738095D01*
X81523810Y-74785714D01*
X81380952Y-74785714D01*
X81190476Y-74738095D01*
X81095238Y-74690476D01*
X81000000Y-74595238D01*
X80952381Y-74452380D01*
X80952381Y-74357142D01*
X81000000Y-74214285D01*
X81047619Y-74166666D01*
X80952381Y-73833333D02*
X80952381Y-73214285D01*
X81333333Y-73547619D01*
X81333333Y-73404761D01*
X81380952Y-73309523D01*
X81428571Y-73261904D01*
X81523810Y-73214285D01*
X81761905Y-73214285D01*
X81857143Y-73261904D01*
X81904762Y-73309523D01*
X81952381Y-73404761D01*
X81952381Y-73690476D01*
X81904762Y-73785714D01*
X81857143Y-73833333D01*
X77142381Y-95690476D02*
X77142381Y-95071428D01*
X77523333Y-95404762D01*
X77523333Y-95261904D01*
X77570952Y-95166666D01*
X77618571Y-95119047D01*
X77713810Y-95071428D01*
X77951905Y-95071428D01*
X78047143Y-95119047D01*
X78094762Y-95166666D01*
X78142381Y-95261904D01*
X78142381Y-95547619D01*
X78094762Y-95642857D01*
X78047143Y-95690476D01*
X77237619Y-94690476D02*
X77190000Y-94642857D01*
X77142381Y-94547619D01*
X77142381Y-94309523D01*
X77190000Y-94214285D01*
X77237619Y-94166666D01*
X77332857Y-94119047D01*
X77428095Y-94119047D01*
X77570952Y-94166666D01*
X78142381Y-94738095D01*
X78142381Y-94119047D01*
X77475714Y-93690476D02*
X78142381Y-93690476D01*
X77570952Y-93690476D02*
X77523333Y-93642857D01*
X77475714Y-93547619D01*
X77475714Y-93404761D01*
X77523333Y-93309523D01*
X77618571Y-93261904D01*
X78142381Y-93261904D01*
X77618571Y-92452380D02*
X77618571Y-92785714D01*
X78142381Y-92785714D02*
X77142381Y-92785714D01*
X77142381Y-92309523D01*
X81857143Y-94166666D02*
X81904762Y-94214285D01*
X81952381Y-94357142D01*
X81952381Y-94452380D01*
X81904762Y-94595238D01*
X81809524Y-94690476D01*
X81714286Y-94738095D01*
X81523810Y-94785714D01*
X81380952Y-94785714D01*
X81190476Y-94738095D01*
X81095238Y-94690476D01*
X81000000Y-94595238D01*
X80952381Y-94452380D01*
X80952381Y-94357142D01*
X81000000Y-94214285D01*
X81047619Y-94166666D01*
X81285714Y-93309523D02*
X81952381Y-93309523D01*
X80904762Y-93547619D02*
X81619048Y-93785714D01*
X81619048Y-93166666D01*
X153647143Y-71814286D02*
X153694762Y-71861905D01*
X153742381Y-72004762D01*
X153742381Y-72100000D01*
X153694762Y-72242858D01*
X153599524Y-72338096D01*
X153504286Y-72385715D01*
X153313810Y-72433334D01*
X153170952Y-72433334D01*
X152980476Y-72385715D01*
X152885238Y-72338096D01*
X152790000Y-72242858D01*
X152742381Y-72100000D01*
X152742381Y-72004762D01*
X152790000Y-71861905D01*
X152837619Y-71814286D01*
X153837619Y-71623810D02*
X153837619Y-70861905D01*
X152742381Y-70433334D02*
X152742381Y-70242857D01*
X152790000Y-70147619D01*
X152885238Y-70052381D01*
X153075714Y-70004762D01*
X153409048Y-70004762D01*
X153599524Y-70052381D01*
X153694762Y-70147619D01*
X153742381Y-70242857D01*
X153742381Y-70433334D01*
X153694762Y-70528572D01*
X153599524Y-70623810D01*
X153409048Y-70671429D01*
X153075714Y-70671429D01*
X152885238Y-70623810D01*
X152790000Y-70528572D01*
X152742381Y-70433334D01*
X152742381Y-69576191D02*
X153551905Y-69576191D01*
X153647143Y-69528572D01*
X153694762Y-69480953D01*
X153742381Y-69385715D01*
X153742381Y-69195238D01*
X153694762Y-69100000D01*
X153647143Y-69052381D01*
X153551905Y-69004762D01*
X152742381Y-69004762D01*
X152742381Y-68671429D02*
X152742381Y-68100000D01*
X153742381Y-68385715D02*
X152742381Y-68385715D01*
X153837619Y-68004762D02*
X153837619Y-67242857D01*
X152742381Y-67100000D02*
X152742381Y-66480952D01*
X153123333Y-66814286D01*
X153123333Y-66671428D01*
X153170952Y-66576190D01*
X153218571Y-66528571D01*
X153313810Y-66480952D01*
X153551905Y-66480952D01*
X153647143Y-66528571D01*
X153694762Y-66576190D01*
X153742381Y-66671428D01*
X153742381Y-66957143D01*
X153694762Y-67052381D01*
X153647143Y-67100000D01*
X152837619Y-66100000D02*
X152790000Y-66052381D01*
X152742381Y-65957143D01*
X152742381Y-65719047D01*
X152790000Y-65623809D01*
X152837619Y-65576190D01*
X152932857Y-65528571D01*
X153028095Y-65528571D01*
X153170952Y-65576190D01*
X153742381Y-66147619D01*
X153742381Y-65528571D01*
X153075714Y-65100000D02*
X153742381Y-65100000D01*
X153170952Y-65100000D02*
X153123333Y-65052381D01*
X153075714Y-64957143D01*
X153075714Y-64814285D01*
X153123333Y-64719047D01*
X153218571Y-64671428D01*
X153742381Y-64671428D01*
X153218571Y-63861904D02*
X153218571Y-64195238D01*
X153742381Y-64195238D02*
X152742381Y-64195238D01*
X152742381Y-63719047D01*
X158457143Y-68266666D02*
X158504762Y-68314285D01*
X158552381Y-68457142D01*
X158552381Y-68552380D01*
X158504762Y-68695238D01*
X158409524Y-68790476D01*
X158314286Y-68838095D01*
X158123810Y-68885714D01*
X157980952Y-68885714D01*
X157790476Y-68838095D01*
X157695238Y-68790476D01*
X157600000Y-68695238D01*
X157552381Y-68552380D01*
X157552381Y-68457142D01*
X157600000Y-68314285D01*
X157647619Y-68266666D01*
X157552381Y-67361904D02*
X157552381Y-67838095D01*
X158028571Y-67885714D01*
X157980952Y-67838095D01*
X157933333Y-67742857D01*
X157933333Y-67504761D01*
X157980952Y-67409523D01*
X158028571Y-67361904D01*
X158123810Y-67314285D01*
X158361905Y-67314285D01*
X158457143Y-67361904D01*
X158504762Y-67409523D01*
X158552381Y-67504761D01*
X158552381Y-67742857D01*
X158504762Y-67838095D01*
X158457143Y-67885714D01*
X139547143Y-66214286D02*
X139594762Y-66261905D01*
X139642381Y-66404762D01*
X139642381Y-66500000D01*
X139594762Y-66642858D01*
X139499524Y-66738096D01*
X139404286Y-66785715D01*
X139213810Y-66833334D01*
X139070952Y-66833334D01*
X138880476Y-66785715D01*
X138785238Y-66738096D01*
X138690000Y-66642858D01*
X138642381Y-66500000D01*
X138642381Y-66404762D01*
X138690000Y-66261905D01*
X138737619Y-66214286D01*
X139737619Y-66023810D02*
X139737619Y-65261905D01*
X138642381Y-64833334D02*
X138642381Y-64642857D01*
X138690000Y-64547619D01*
X138785238Y-64452381D01*
X138975714Y-64404762D01*
X139309048Y-64404762D01*
X139499524Y-64452381D01*
X139594762Y-64547619D01*
X139642381Y-64642857D01*
X139642381Y-64833334D01*
X139594762Y-64928572D01*
X139499524Y-65023810D01*
X139309048Y-65071429D01*
X138975714Y-65071429D01*
X138785238Y-65023810D01*
X138690000Y-64928572D01*
X138642381Y-64833334D01*
X138642381Y-63976191D02*
X139451905Y-63976191D01*
X139547143Y-63928572D01*
X139594762Y-63880953D01*
X139642381Y-63785715D01*
X139642381Y-63595238D01*
X139594762Y-63500000D01*
X139547143Y-63452381D01*
X139451905Y-63404762D01*
X138642381Y-63404762D01*
X138642381Y-63071429D02*
X138642381Y-62500000D01*
X139642381Y-62785715D02*
X138642381Y-62785715D01*
X139737619Y-62404762D02*
X139737619Y-61642857D01*
X138642381Y-61500000D02*
X138642381Y-60880952D01*
X139023333Y-61214286D01*
X139023333Y-61071428D01*
X139070952Y-60976190D01*
X139118571Y-60928571D01*
X139213810Y-60880952D01*
X139451905Y-60880952D01*
X139547143Y-60928571D01*
X139594762Y-60976190D01*
X139642381Y-61071428D01*
X139642381Y-61357143D01*
X139594762Y-61452381D01*
X139547143Y-61500000D01*
X138737619Y-60500000D02*
X138690000Y-60452381D01*
X138642381Y-60357143D01*
X138642381Y-60119047D01*
X138690000Y-60023809D01*
X138737619Y-59976190D01*
X138832857Y-59928571D01*
X138928095Y-59928571D01*
X139070952Y-59976190D01*
X139642381Y-60547619D01*
X139642381Y-59928571D01*
X138975714Y-59500000D02*
X139642381Y-59500000D01*
X139070952Y-59500000D02*
X139023333Y-59452381D01*
X138975714Y-59357143D01*
X138975714Y-59214285D01*
X139023333Y-59119047D01*
X139118571Y-59071428D01*
X139642381Y-59071428D01*
X139118571Y-58261904D02*
X139118571Y-58595238D01*
X139642381Y-58595238D02*
X138642381Y-58595238D01*
X138642381Y-58119047D01*
X144357143Y-62666666D02*
X144404762Y-62714285D01*
X144452381Y-62857142D01*
X144452381Y-62952380D01*
X144404762Y-63095238D01*
X144309524Y-63190476D01*
X144214286Y-63238095D01*
X144023810Y-63285714D01*
X143880952Y-63285714D01*
X143690476Y-63238095D01*
X143595238Y-63190476D01*
X143500000Y-63095238D01*
X143452381Y-62952380D01*
X143452381Y-62857142D01*
X143500000Y-62714285D01*
X143547619Y-62666666D01*
X143452381Y-61809523D02*
X143452381Y-62000000D01*
X143500000Y-62095238D01*
X143547619Y-62142857D01*
X143690476Y-62238095D01*
X143880952Y-62285714D01*
X144261905Y-62285714D01*
X144357143Y-62238095D01*
X144404762Y-62190476D01*
X144452381Y-62095238D01*
X144452381Y-61904761D01*
X144404762Y-61809523D01*
X144357143Y-61761904D01*
X144261905Y-61714285D01*
X144023810Y-61714285D01*
X143928571Y-61761904D01*
X143880952Y-61809523D01*
X143833333Y-61904761D01*
X143833333Y-62095238D01*
X143880952Y-62190476D01*
X143928571Y-62238095D01*
X144023810Y-62285714D01*
X103814287Y-89342857D02*
X104500001Y-89342857D01*
X104157144Y-90542857D02*
X104157144Y-89342857D01*
X105585716Y-90542857D02*
X105185716Y-89971429D01*
X104900001Y-90542857D02*
X104900001Y-89342857D01*
X105357144Y-89342857D01*
X105471430Y-89400000D01*
X105528573Y-89457143D01*
X105585716Y-89571429D01*
X105585716Y-89742857D01*
X105528573Y-89857143D01*
X105471430Y-89914286D01*
X105357144Y-89971429D01*
X104900001Y-89971429D01*
X106042858Y-90200000D02*
X106614287Y-90200000D01*
X105928573Y-90542857D02*
X106328573Y-89342857D01*
X106728573Y-90542857D01*
X107128572Y-90542857D02*
X107128572Y-89342857D01*
X107814287Y-90542857D01*
X107814287Y-89342857D01*
X108328572Y-90485714D02*
X108500001Y-90542857D01*
X108785715Y-90542857D01*
X108900001Y-90485714D01*
X108957144Y-90428571D01*
X109014287Y-90314286D01*
X109014287Y-90200000D01*
X108957144Y-90085714D01*
X108900001Y-90028571D01*
X108785715Y-89971429D01*
X108557144Y-89914286D01*
X108442858Y-89857143D01*
X108385715Y-89800000D01*
X108328572Y-89685714D01*
X108328572Y-89571429D01*
X108385715Y-89457143D01*
X108442858Y-89400000D01*
X108557144Y-89342857D01*
X108842858Y-89342857D01*
X109014287Y-89400000D01*
X109928572Y-89914286D02*
X109528572Y-89914286D01*
X109528572Y-90542857D02*
X109528572Y-89342857D01*
X110100001Y-89342857D01*
X110785715Y-89342857D02*
X111014286Y-89342857D01*
X111128572Y-89400000D01*
X111242858Y-89514286D01*
X111300000Y-89742857D01*
X111300000Y-90142857D01*
X111242858Y-90371429D01*
X111128572Y-90485714D01*
X111014286Y-90542857D01*
X110785715Y-90542857D01*
X110671429Y-90485714D01*
X110557143Y-90371429D01*
X110500000Y-90142857D01*
X110500000Y-89742857D01*
X110557143Y-89514286D01*
X110671429Y-89400000D01*
X110785715Y-89342857D01*
X111814286Y-90085714D02*
X112728572Y-90085714D01*
X113242857Y-90485714D02*
X113414286Y-90542857D01*
X113700000Y-90542857D01*
X113814286Y-90485714D01*
X113871429Y-90428571D01*
X113928572Y-90314286D01*
X113928572Y-90200000D01*
X113871429Y-90085714D01*
X113814286Y-90028571D01*
X113700000Y-89971429D01*
X113471429Y-89914286D01*
X113357143Y-89857143D01*
X113300000Y-89800000D01*
X113242857Y-89685714D01*
X113242857Y-89571429D01*
X113300000Y-89457143D01*
X113357143Y-89400000D01*
X113471429Y-89342857D01*
X113757143Y-89342857D01*
X113928572Y-89400000D01*
X114671429Y-89342857D02*
X114900000Y-89342857D01*
X115014286Y-89400000D01*
X115128572Y-89514286D01*
X115185714Y-89742857D01*
X115185714Y-90142857D01*
X115128572Y-90371429D01*
X115014286Y-90485714D01*
X114900000Y-90542857D01*
X114671429Y-90542857D01*
X114557143Y-90485714D01*
X114442857Y-90371429D01*
X114385714Y-90142857D01*
X114385714Y-89742857D01*
X114442857Y-89514286D01*
X114557143Y-89400000D01*
X114671429Y-89342857D01*
X116328572Y-90542857D02*
X115642857Y-90542857D01*
X115985715Y-90542857D02*
X115985715Y-89342857D01*
X115871429Y-89514286D01*
X115757143Y-89628571D01*
X115642857Y-89685714D01*
X116785714Y-89457143D02*
X116842857Y-89400000D01*
X116957143Y-89342857D01*
X117242857Y-89342857D01*
X117357143Y-89400000D01*
X117414286Y-89457143D01*
X117471429Y-89571429D01*
X117471429Y-89685714D01*
X117414286Y-89857143D01*
X116728572Y-90542857D01*
X117471429Y-90542857D01*
X134352381Y-100719048D02*
X133352381Y-100719048D01*
X133828571Y-100719048D02*
X133828571Y-100147619D01*
X134352381Y-100147619D02*
X133352381Y-100147619D01*
X133828571Y-99338095D02*
X133828571Y-99671429D01*
X134352381Y-99671429D02*
X133352381Y-99671429D01*
X133352381Y-99195238D01*
X134447619Y-99052381D02*
X134447619Y-98290476D01*
X134352381Y-98052381D02*
X133352381Y-98052381D01*
X133828571Y-98052381D02*
X133828571Y-97480952D01*
X134352381Y-97480952D02*
X133352381Y-97480952D01*
X133352381Y-97147619D02*
X134352381Y-96814286D01*
X133352381Y-96480952D01*
X134447619Y-96385714D02*
X134447619Y-95623809D01*
X133352381Y-95195238D02*
X133352381Y-95004761D01*
X133400000Y-94909523D01*
X133495238Y-94814285D01*
X133685714Y-94766666D01*
X134019048Y-94766666D01*
X134209524Y-94814285D01*
X134304762Y-94909523D01*
X134352381Y-95004761D01*
X134352381Y-95195238D01*
X134304762Y-95290476D01*
X134209524Y-95385714D01*
X134019048Y-95433333D01*
X133685714Y-95433333D01*
X133495238Y-95385714D01*
X133400000Y-95290476D01*
X133352381Y-95195238D01*
X133352381Y-94338095D02*
X134161905Y-94338095D01*
X134257143Y-94290476D01*
X134304762Y-94242857D01*
X134352381Y-94147619D01*
X134352381Y-93957142D01*
X134304762Y-93861904D01*
X134257143Y-93814285D01*
X134161905Y-93766666D01*
X133352381Y-93766666D01*
X133352381Y-93433333D02*
X133352381Y-92861904D01*
X134352381Y-93147619D02*
X133352381Y-93147619D01*
X134352381Y-92528571D02*
X133352381Y-92528571D01*
X133352381Y-92147618D01*
X133400000Y-92052380D01*
X133447619Y-92004761D01*
X133542857Y-91957142D01*
X133685714Y-91957142D01*
X133780952Y-92004761D01*
X133828571Y-92052380D01*
X133876190Y-92147618D01*
X133876190Y-92528571D01*
X133352381Y-91528571D02*
X134161905Y-91528571D01*
X134257143Y-91480952D01*
X134304762Y-91433333D01*
X134352381Y-91338095D01*
X134352381Y-91147618D01*
X134304762Y-91052380D01*
X134257143Y-91004761D01*
X134161905Y-90957142D01*
X133352381Y-90957142D01*
X133352381Y-90623809D02*
X133352381Y-90052380D01*
X134352381Y-90338095D02*
X133352381Y-90338095D01*
X134447619Y-89957142D02*
X134447619Y-89195237D01*
X134352381Y-88957142D02*
X133352381Y-88957142D01*
X133352381Y-88576189D01*
X133400000Y-88480951D01*
X133447619Y-88433332D01*
X133542857Y-88385713D01*
X133685714Y-88385713D01*
X133780952Y-88433332D01*
X133828571Y-88480951D01*
X133876190Y-88576189D01*
X133876190Y-88957142D01*
X133447619Y-88004761D02*
X133400000Y-87957142D01*
X133352381Y-87861904D01*
X133352381Y-87623808D01*
X133400000Y-87528570D01*
X133447619Y-87480951D01*
X133542857Y-87433332D01*
X133638095Y-87433332D01*
X133780952Y-87480951D01*
X134352381Y-88052380D01*
X134352381Y-87433332D01*
X134152381Y-87719048D02*
X133152381Y-87719048D01*
X133628571Y-87719048D02*
X133628571Y-87147619D01*
X134152381Y-87147619D02*
X133152381Y-87147619D01*
X133628571Y-86338095D02*
X133628571Y-86671429D01*
X134152381Y-86671429D02*
X133152381Y-86671429D01*
X133152381Y-86195238D01*
X134247619Y-86052381D02*
X134247619Y-85290476D01*
X134152381Y-85052381D02*
X133152381Y-85052381D01*
X133628571Y-85052381D02*
X133628571Y-84480952D01*
X134152381Y-84480952D02*
X133152381Y-84480952D01*
X133152381Y-84147619D02*
X134152381Y-83814286D01*
X133152381Y-83480952D01*
X134247619Y-83385714D02*
X134247619Y-82623809D01*
X133152381Y-82195238D02*
X133152381Y-82004761D01*
X133200000Y-81909523D01*
X133295238Y-81814285D01*
X133485714Y-81766666D01*
X133819048Y-81766666D01*
X134009524Y-81814285D01*
X134104762Y-81909523D01*
X134152381Y-82004761D01*
X134152381Y-82195238D01*
X134104762Y-82290476D01*
X134009524Y-82385714D01*
X133819048Y-82433333D01*
X133485714Y-82433333D01*
X133295238Y-82385714D01*
X133200000Y-82290476D01*
X133152381Y-82195238D01*
X133152381Y-81338095D02*
X133961905Y-81338095D01*
X134057143Y-81290476D01*
X134104762Y-81242857D01*
X134152381Y-81147619D01*
X134152381Y-80957142D01*
X134104762Y-80861904D01*
X134057143Y-80814285D01*
X133961905Y-80766666D01*
X133152381Y-80766666D01*
X133152381Y-80433333D02*
X133152381Y-79861904D01*
X134152381Y-80147619D02*
X133152381Y-80147619D01*
X134152381Y-79528571D02*
X133152381Y-79528571D01*
X133152381Y-79147618D01*
X133200000Y-79052380D01*
X133247619Y-79004761D01*
X133342857Y-78957142D01*
X133485714Y-78957142D01*
X133580952Y-79004761D01*
X133628571Y-79052380D01*
X133676190Y-79147618D01*
X133676190Y-79528571D01*
X133152381Y-78528571D02*
X133961905Y-78528571D01*
X134057143Y-78480952D01*
X134104762Y-78433333D01*
X134152381Y-78338095D01*
X134152381Y-78147618D01*
X134104762Y-78052380D01*
X134057143Y-78004761D01*
X133961905Y-77957142D01*
X133152381Y-77957142D01*
X133152381Y-77623809D02*
X133152381Y-77052380D01*
X134152381Y-77338095D02*
X133152381Y-77338095D01*
X134247619Y-76957142D02*
X134247619Y-76195237D01*
X134152381Y-75957142D02*
X133152381Y-75957142D01*
X133152381Y-75576189D01*
X133200000Y-75480951D01*
X133247619Y-75433332D01*
X133342857Y-75385713D01*
X133485714Y-75385713D01*
X133580952Y-75433332D01*
X133628571Y-75480951D01*
X133676190Y-75576189D01*
X133676190Y-75957142D01*
X133152381Y-74480951D02*
X133152381Y-74957142D01*
X133628571Y-75004761D01*
X133580952Y-74957142D01*
X133533333Y-74861904D01*
X133533333Y-74623808D01*
X133580952Y-74528570D01*
X133628571Y-74480951D01*
X133723810Y-74433332D01*
X133961905Y-74433332D01*
X134057143Y-74480951D01*
X134104762Y-74528570D01*
X134152381Y-74623808D01*
X134152381Y-74861904D01*
X134104762Y-74957142D01*
X134057143Y-75004761D01*
X85190476Y-49052381D02*
X85190476Y-48052381D01*
X85428571Y-48052381D01*
X85571429Y-48100000D01*
X85666667Y-48195238D01*
X85714286Y-48290476D01*
X85761905Y-48480952D01*
X85761905Y-48623810D01*
X85714286Y-48814286D01*
X85666667Y-48909524D01*
X85571429Y-49004762D01*
X85428571Y-49052381D01*
X85190476Y-49052381D01*
X86761905Y-48957143D02*
X86714286Y-49004762D01*
X86571429Y-49052381D01*
X86476191Y-49052381D01*
X86333333Y-49004762D01*
X86238095Y-48909524D01*
X86190476Y-48814286D01*
X86142857Y-48623810D01*
X86142857Y-48480952D01*
X86190476Y-48290476D01*
X86238095Y-48195238D01*
X86333333Y-48100000D01*
X86476191Y-48052381D01*
X86571429Y-48052381D01*
X86714286Y-48100000D01*
X86761905Y-48147619D01*
X86952381Y-49147619D02*
X87714286Y-49147619D01*
X87952381Y-49052381D02*
X87952381Y-48052381D01*
X88428571Y-49052381D02*
X88428571Y-48052381D01*
X89000000Y-49052381D01*
X89000000Y-48052381D01*
X89476190Y-49052381D02*
X89476190Y-48052381D01*
X89857143Y-48052381D01*
X89952381Y-48100000D01*
X90000000Y-48147619D01*
X90047619Y-48242857D01*
X90047619Y-48385714D01*
X90000000Y-48480952D01*
X89952381Y-48528571D01*
X89857143Y-48576190D01*
X89476190Y-48576190D01*
X90476190Y-48052381D02*
X90476190Y-48861905D01*
X90523809Y-48957143D01*
X90571428Y-49004762D01*
X90666666Y-49052381D01*
X90857143Y-49052381D01*
X90952381Y-49004762D01*
X91000000Y-48957143D01*
X91047619Y-48861905D01*
X91047619Y-48052381D01*
X91380952Y-48052381D02*
X91952381Y-48052381D01*
X91666666Y-49052381D02*
X91666666Y-48052381D01*
X93809524Y-48052381D02*
X94380953Y-48052381D01*
X94095238Y-49052381D02*
X94095238Y-48052381D01*
X94714286Y-49052381D02*
X94714286Y-48052381D01*
X95190476Y-48528571D02*
X95523810Y-48528571D01*
X95666667Y-49052381D02*
X95190476Y-49052381D01*
X95190476Y-48052381D01*
X95666667Y-48052381D01*
X96666667Y-49052381D02*
X96333333Y-48576190D01*
X96095238Y-49052381D02*
X96095238Y-48052381D01*
X96476191Y-48052381D01*
X96571429Y-48100000D01*
X96619048Y-48147619D01*
X96666667Y-48242857D01*
X96666667Y-48385714D01*
X96619048Y-48480952D01*
X96571429Y-48528571D01*
X96476191Y-48576190D01*
X96095238Y-48576190D01*
X97666667Y-49052381D02*
X97333333Y-48576190D01*
X97095238Y-49052381D02*
X97095238Y-48052381D01*
X97476191Y-48052381D01*
X97571429Y-48100000D01*
X97619048Y-48147619D01*
X97666667Y-48242857D01*
X97666667Y-48385714D01*
X97619048Y-48480952D01*
X97571429Y-48528571D01*
X97476191Y-48576190D01*
X97095238Y-48576190D01*
X98047619Y-48766667D02*
X98523810Y-48766667D01*
X97952381Y-49052381D02*
X98285714Y-48052381D01*
X98619048Y-49052381D01*
X98714286Y-49147619D02*
X99476191Y-49147619D01*
X99714286Y-49052381D02*
X99714286Y-48052381D01*
X100095239Y-48052381D01*
X100190477Y-48100000D01*
X100238096Y-48147619D01*
X100285715Y-48242857D01*
X100285715Y-48385714D01*
X100238096Y-48480952D01*
X100190477Y-48528571D01*
X100095239Y-48576190D01*
X99714286Y-48576190D01*
X100904762Y-48052381D02*
X101095239Y-48052381D01*
X101190477Y-48100000D01*
X101285715Y-48195238D01*
X101333334Y-48385714D01*
X101333334Y-48719048D01*
X101285715Y-48909524D01*
X101190477Y-49004762D01*
X101095239Y-49052381D01*
X100904762Y-49052381D01*
X100809524Y-49004762D01*
X100714286Y-48909524D01*
X100666667Y-48719048D01*
X100666667Y-48385714D01*
X100714286Y-48195238D01*
X100809524Y-48100000D01*
X100904762Y-48052381D01*
X101619048Y-48052381D02*
X102190477Y-48052381D01*
X101904762Y-49052381D02*
X101904762Y-48052381D01*
X77904762Y-117480952D02*
X77952381Y-117338095D01*
X77952381Y-117099999D01*
X77904762Y-117004761D01*
X77857143Y-116957142D01*
X77761905Y-116909523D01*
X77666667Y-116909523D01*
X77571429Y-116957142D01*
X77523810Y-117004761D01*
X77476190Y-117099999D01*
X77428571Y-117290476D01*
X77380952Y-117385714D01*
X77333333Y-117433333D01*
X77238095Y-117480952D01*
X77142857Y-117480952D01*
X77047619Y-117433333D01*
X77000000Y-117385714D01*
X76952381Y-117290476D01*
X76952381Y-117052380D01*
X77000000Y-116909523D01*
X76952381Y-116576190D02*
X77952381Y-116338095D01*
X77238095Y-116147618D01*
X77952381Y-115957142D01*
X76952381Y-115719047D01*
X77952381Y-115338095D02*
X76952381Y-115338095D01*
X76952381Y-115004762D02*
X76952381Y-114433333D01*
X77952381Y-114719048D02*
X76952381Y-114719048D01*
X77857143Y-113528571D02*
X77904762Y-113576190D01*
X77952381Y-113719047D01*
X77952381Y-113814285D01*
X77904762Y-113957143D01*
X77809524Y-114052381D01*
X77714286Y-114100000D01*
X77523810Y-114147619D01*
X77380952Y-114147619D01*
X77190476Y-114100000D01*
X77095238Y-114052381D01*
X77000000Y-113957143D01*
X76952381Y-113814285D01*
X76952381Y-113719047D01*
X77000000Y-113576190D01*
X77047619Y-113528571D01*
X77952381Y-113100000D02*
X76952381Y-113100000D01*
X77428571Y-113100000D02*
X77428571Y-112528571D01*
X77952381Y-112528571D02*
X76952381Y-112528571D01*
X77428571Y-112052381D02*
X77428571Y-111719047D01*
X77952381Y-111576190D02*
X77952381Y-112052381D01*
X76952381Y-112052381D01*
X76952381Y-111576190D01*
X77952381Y-111147619D02*
X76952381Y-111147619D01*
X76952381Y-110909524D01*
X77000000Y-110766666D01*
X77095238Y-110671428D01*
X77190476Y-110623809D01*
X77380952Y-110576190D01*
X77523810Y-110576190D01*
X77714286Y-110623809D01*
X77809524Y-110671428D01*
X77904762Y-110766666D01*
X77952381Y-110909524D01*
X77952381Y-111147619D01*
X78047619Y-110385714D02*
X78047619Y-109623809D01*
X77952381Y-109385714D02*
X76952381Y-109385714D01*
X76952381Y-109004761D01*
X77000000Y-108909523D01*
X77047619Y-108861904D01*
X77142857Y-108814285D01*
X77285714Y-108814285D01*
X77380952Y-108861904D01*
X77428571Y-108909523D01*
X77476190Y-109004761D01*
X77476190Y-109385714D01*
X76952381Y-108195238D02*
X76952381Y-108004761D01*
X77000000Y-107909523D01*
X77095238Y-107814285D01*
X77285714Y-107766666D01*
X77619048Y-107766666D01*
X77809524Y-107814285D01*
X77904762Y-107909523D01*
X77952381Y-108004761D01*
X77952381Y-108195238D01*
X77904762Y-108290476D01*
X77809524Y-108385714D01*
X77619048Y-108433333D01*
X77285714Y-108433333D01*
X77095238Y-108385714D01*
X77000000Y-108290476D01*
X76952381Y-108195238D01*
X76952381Y-107433333D02*
X77952381Y-107195238D01*
X77238095Y-107004761D01*
X77952381Y-106814285D01*
X76952381Y-106576190D01*
X77428571Y-106195238D02*
X77428571Y-105861904D01*
X77952381Y-105719047D02*
X77952381Y-106195238D01*
X76952381Y-106195238D01*
X76952381Y-105719047D01*
X77952381Y-104719047D02*
X77476190Y-105052381D01*
X77952381Y-105290476D02*
X76952381Y-105290476D01*
X76952381Y-104909523D01*
X77000000Y-104814285D01*
X77047619Y-104766666D01*
X77142857Y-104719047D01*
X77285714Y-104719047D01*
X77380952Y-104766666D01*
X77428571Y-104814285D01*
X77476190Y-104909523D01*
X77476190Y-105290476D01*
X150837143Y-61446191D02*
X150884762Y-61493810D01*
X150932381Y-61636667D01*
X150932381Y-61731905D01*
X150884762Y-61874763D01*
X150789524Y-61970001D01*
X150694286Y-62017620D01*
X150503810Y-62065239D01*
X150360952Y-62065239D01*
X150170476Y-62017620D01*
X150075238Y-61970001D01*
X149980000Y-61874763D01*
X149932381Y-61731905D01*
X149932381Y-61636667D01*
X149980000Y-61493810D01*
X150027619Y-61446191D01*
X149932381Y-60827144D02*
X149932381Y-60636667D01*
X149980000Y-60541429D01*
X150075238Y-60446191D01*
X150265714Y-60398572D01*
X150599048Y-60398572D01*
X150789524Y-60446191D01*
X150884762Y-60541429D01*
X150932381Y-60636667D01*
X150932381Y-60827144D01*
X150884762Y-60922382D01*
X150789524Y-61017620D01*
X150599048Y-61065239D01*
X150265714Y-61065239D01*
X150075238Y-61017620D01*
X149980000Y-60922382D01*
X149932381Y-60827144D01*
X150932381Y-59970001D02*
X149932381Y-59970001D01*
X150932381Y-59398572D01*
X149932381Y-59398572D01*
X151027619Y-59160477D02*
X151027619Y-58398572D01*
X150932381Y-58160477D02*
X149932381Y-58160477D01*
X150408571Y-58160477D02*
X150408571Y-57589048D01*
X150932381Y-57589048D02*
X149932381Y-57589048D01*
X150408571Y-56779524D02*
X150408571Y-57112858D01*
X150932381Y-57112858D02*
X149932381Y-57112858D01*
X149932381Y-56636667D01*
X151027619Y-56493810D02*
X151027619Y-55731905D01*
X150932381Y-55493810D02*
X149932381Y-55493810D01*
X150408571Y-55493810D02*
X150408571Y-54922381D01*
X150932381Y-54922381D02*
X149932381Y-54922381D01*
X149932381Y-54589048D02*
X150932381Y-54255715D01*
X149932381Y-53922381D01*
X151027619Y-53827143D02*
X151027619Y-53065238D01*
X149932381Y-52636667D02*
X149932381Y-52446190D01*
X149980000Y-52350952D01*
X150075238Y-52255714D01*
X150265714Y-52208095D01*
X150599048Y-52208095D01*
X150789524Y-52255714D01*
X150884762Y-52350952D01*
X150932381Y-52446190D01*
X150932381Y-52636667D01*
X150884762Y-52731905D01*
X150789524Y-52827143D01*
X150599048Y-52874762D01*
X150265714Y-52874762D01*
X150075238Y-52827143D01*
X149980000Y-52731905D01*
X149932381Y-52636667D01*
X149932381Y-51779524D02*
X150741905Y-51779524D01*
X150837143Y-51731905D01*
X150884762Y-51684286D01*
X150932381Y-51589048D01*
X150932381Y-51398571D01*
X150884762Y-51303333D01*
X150837143Y-51255714D01*
X150741905Y-51208095D01*
X149932381Y-51208095D01*
X149932381Y-50874762D02*
X149932381Y-50303333D01*
X150932381Y-50589048D02*
X149932381Y-50589048D01*
X150932381Y-49970000D02*
X149932381Y-49970000D01*
X149932381Y-49589047D01*
X149980000Y-49493809D01*
X150027619Y-49446190D01*
X150122857Y-49398571D01*
X150265714Y-49398571D01*
X150360952Y-49446190D01*
X150408571Y-49493809D01*
X150456190Y-49589047D01*
X150456190Y-49970000D01*
X149932381Y-48970000D02*
X150741905Y-48970000D01*
X150837143Y-48922381D01*
X150884762Y-48874762D01*
X150932381Y-48779524D01*
X150932381Y-48589047D01*
X150884762Y-48493809D01*
X150837143Y-48446190D01*
X150741905Y-48398571D01*
X149932381Y-48398571D01*
X149932381Y-48065238D02*
X149932381Y-47493809D01*
X150932381Y-47779524D02*
X149932381Y-47779524D01*
X151027619Y-47398571D02*
X151027619Y-46636666D01*
X150932381Y-46398571D02*
X149932381Y-46398571D01*
X149932381Y-46017618D01*
X149980000Y-45922380D01*
X150027619Y-45874761D01*
X150122857Y-45827142D01*
X150265714Y-45827142D01*
X150360952Y-45874761D01*
X150408571Y-45922380D01*
X150456190Y-46017618D01*
X150456190Y-46398571D01*
X150027619Y-45446190D02*
X149980000Y-45398571D01*
X149932381Y-45303333D01*
X149932381Y-45065237D01*
X149980000Y-44969999D01*
X150027619Y-44922380D01*
X150122857Y-44874761D01*
X150218095Y-44874761D01*
X150360952Y-44922380D01*
X150932381Y-45493809D01*
X150932381Y-44874761D01*
X80572381Y-61839524D02*
X79572381Y-61839524D01*
X79572381Y-61601429D01*
X79620000Y-61458571D01*
X79715238Y-61363333D01*
X79810476Y-61315714D01*
X80000952Y-61268095D01*
X80143810Y-61268095D01*
X80334286Y-61315714D01*
X80429524Y-61363333D01*
X80524762Y-61458571D01*
X80572381Y-61601429D01*
X80572381Y-61839524D01*
X80477143Y-60268095D02*
X80524762Y-60315714D01*
X80572381Y-60458571D01*
X80572381Y-60553809D01*
X80524762Y-60696667D01*
X80429524Y-60791905D01*
X80334286Y-60839524D01*
X80143810Y-60887143D01*
X80000952Y-60887143D01*
X79810476Y-60839524D01*
X79715238Y-60791905D01*
X79620000Y-60696667D01*
X79572381Y-60553809D01*
X79572381Y-60458571D01*
X79620000Y-60315714D01*
X79667619Y-60268095D01*
X80667619Y-60077619D02*
X80667619Y-59315714D01*
X80572381Y-59077619D02*
X79572381Y-59077619D01*
X80572381Y-58601429D02*
X79572381Y-58601429D01*
X80572381Y-58030000D01*
X79572381Y-58030000D01*
X80572381Y-57553810D02*
X79572381Y-57553810D01*
X79572381Y-57172857D01*
X79620000Y-57077619D01*
X79667619Y-57030000D01*
X79762857Y-56982381D01*
X79905714Y-56982381D01*
X80000952Y-57030000D01*
X80048571Y-57077619D01*
X80096190Y-57172857D01*
X80096190Y-57553810D01*
X79572381Y-56553810D02*
X80381905Y-56553810D01*
X80477143Y-56506191D01*
X80524762Y-56458572D01*
X80572381Y-56363334D01*
X80572381Y-56172857D01*
X80524762Y-56077619D01*
X80477143Y-56030000D01*
X80381905Y-55982381D01*
X79572381Y-55982381D01*
X79572381Y-55649048D02*
X79572381Y-55077619D01*
X80572381Y-55363334D02*
X79572381Y-55363334D01*
X79572381Y-54720476D02*
X79572381Y-54149047D01*
X80572381Y-54434762D02*
X79572381Y-54434762D01*
X80572381Y-53815714D02*
X79572381Y-53815714D01*
X80048571Y-53339524D02*
X80048571Y-53006190D01*
X80572381Y-52863333D02*
X80572381Y-53339524D01*
X79572381Y-53339524D01*
X79572381Y-52863333D01*
X80572381Y-51863333D02*
X80096190Y-52196667D01*
X80572381Y-52434762D02*
X79572381Y-52434762D01*
X79572381Y-52053809D01*
X79620000Y-51958571D01*
X79667619Y-51910952D01*
X79762857Y-51863333D01*
X79905714Y-51863333D01*
X80000952Y-51910952D01*
X80048571Y-51958571D01*
X80096190Y-52053809D01*
X80096190Y-52434762D01*
X80572381Y-50863333D02*
X80096190Y-51196667D01*
X80572381Y-51434762D02*
X79572381Y-51434762D01*
X79572381Y-51053809D01*
X79620000Y-50958571D01*
X79667619Y-50910952D01*
X79762857Y-50863333D01*
X79905714Y-50863333D01*
X80000952Y-50910952D01*
X80048571Y-50958571D01*
X80096190Y-51053809D01*
X80096190Y-51434762D01*
X80286667Y-50482381D02*
X80286667Y-50006190D01*
X80572381Y-50577619D02*
X79572381Y-50244286D01*
X80572381Y-49910952D01*
X80667619Y-49815714D02*
X80667619Y-49053809D01*
X80572381Y-48815714D02*
X79572381Y-48815714D01*
X79572381Y-48434761D01*
X79620000Y-48339523D01*
X79667619Y-48291904D01*
X79762857Y-48244285D01*
X79905714Y-48244285D01*
X80000952Y-48291904D01*
X80048571Y-48339523D01*
X80096190Y-48434761D01*
X80096190Y-48815714D01*
X79572381Y-47625238D02*
X79572381Y-47434761D01*
X79620000Y-47339523D01*
X79715238Y-47244285D01*
X79905714Y-47196666D01*
X80239048Y-47196666D01*
X80429524Y-47244285D01*
X80524762Y-47339523D01*
X80572381Y-47434761D01*
X80572381Y-47625238D01*
X80524762Y-47720476D01*
X80429524Y-47815714D01*
X80239048Y-47863333D01*
X79905714Y-47863333D01*
X79715238Y-47815714D01*
X79620000Y-47720476D01*
X79572381Y-47625238D01*
X79572381Y-46910952D02*
X79572381Y-46339523D01*
X80572381Y-46625238D02*
X79572381Y-46625238D01*
X138193809Y-49477143D02*
X138146190Y-49524762D01*
X138003333Y-49572381D01*
X137908095Y-49572381D01*
X137765237Y-49524762D01*
X137669999Y-49429524D01*
X137622380Y-49334286D01*
X137574761Y-49143810D01*
X137574761Y-49000952D01*
X137622380Y-48810476D01*
X137669999Y-48715238D01*
X137765237Y-48620000D01*
X137908095Y-48572381D01*
X138003333Y-48572381D01*
X138146190Y-48620000D01*
X138193809Y-48667619D01*
X138812856Y-48572381D02*
X139003333Y-48572381D01*
X139098571Y-48620000D01*
X139193809Y-48715238D01*
X139241428Y-48905714D01*
X139241428Y-49239048D01*
X139193809Y-49429524D01*
X139098571Y-49524762D01*
X139003333Y-49572381D01*
X138812856Y-49572381D01*
X138717618Y-49524762D01*
X138622380Y-49429524D01*
X138574761Y-49239048D01*
X138574761Y-48905714D01*
X138622380Y-48715238D01*
X138717618Y-48620000D01*
X138812856Y-48572381D01*
X139669999Y-49572381D02*
X139669999Y-48572381D01*
X140241428Y-49572381D01*
X140241428Y-48572381D01*
X140479523Y-49667619D02*
X141241428Y-49667619D01*
X141479523Y-49572381D02*
X141479523Y-48572381D01*
X141479523Y-49048571D02*
X142050952Y-49048571D01*
X142050952Y-49572381D02*
X142050952Y-48572381D01*
X142860476Y-49048571D02*
X142527142Y-49048571D01*
X142527142Y-49572381D02*
X142527142Y-48572381D01*
X143003333Y-48572381D01*
X143146190Y-49667619D02*
X143908095Y-49667619D01*
X144146190Y-49572381D02*
X144146190Y-48572381D01*
X144146190Y-49048571D02*
X144717619Y-49048571D01*
X144717619Y-49572381D02*
X144717619Y-48572381D01*
X145050952Y-48572381D02*
X145384285Y-49572381D01*
X145717619Y-48572381D01*
X145812857Y-49667619D02*
X146574762Y-49667619D01*
X147003333Y-48572381D02*
X147193810Y-48572381D01*
X147289048Y-48620000D01*
X147384286Y-48715238D01*
X147431905Y-48905714D01*
X147431905Y-49239048D01*
X147384286Y-49429524D01*
X147289048Y-49524762D01*
X147193810Y-49572381D01*
X147003333Y-49572381D01*
X146908095Y-49524762D01*
X146812857Y-49429524D01*
X146765238Y-49239048D01*
X146765238Y-48905714D01*
X146812857Y-48715238D01*
X146908095Y-48620000D01*
X147003333Y-48572381D01*
X147860476Y-48572381D02*
X147860476Y-49381905D01*
X147908095Y-49477143D01*
X147955714Y-49524762D01*
X148050952Y-49572381D01*
X148241429Y-49572381D01*
X148336667Y-49524762D01*
X148384286Y-49477143D01*
X148431905Y-49381905D01*
X148431905Y-48572381D01*
X148765238Y-48572381D02*
X149336667Y-48572381D01*
X149050952Y-49572381D02*
X149050952Y-48572381D01*
X149670000Y-49572381D02*
X149670000Y-48572381D01*
X150050953Y-48572381D01*
X150146191Y-48620000D01*
X150193810Y-48667619D01*
X150241429Y-48762857D01*
X150241429Y-48905714D01*
X150193810Y-49000952D01*
X150146191Y-49048571D01*
X150050953Y-49096190D01*
X149670000Y-49096190D01*
X150670000Y-48572381D02*
X150670000Y-49381905D01*
X150717619Y-49477143D01*
X150765238Y-49524762D01*
X150860476Y-49572381D01*
X151050953Y-49572381D01*
X151146191Y-49524762D01*
X151193810Y-49477143D01*
X151241429Y-49381905D01*
X151241429Y-48572381D01*
X151574762Y-48572381D02*
X152146191Y-48572381D01*
X151860476Y-49572381D02*
X151860476Y-48572381D01*
X152241429Y-49667619D02*
X153003334Y-49667619D01*
X153241429Y-49572381D02*
X153241429Y-48572381D01*
X153622382Y-48572381D01*
X153717620Y-48620000D01*
X153765239Y-48667619D01*
X153812858Y-48762857D01*
X153812858Y-48905714D01*
X153765239Y-49000952D01*
X153717620Y-49048571D01*
X153622382Y-49096190D01*
X153241429Y-49096190D01*
X154717620Y-48572381D02*
X154241429Y-48572381D01*
X154193810Y-49048571D01*
X154241429Y-49000952D01*
X154336667Y-48953333D01*
X154574763Y-48953333D01*
X154670001Y-49000952D01*
X154717620Y-49048571D01*
X154765239Y-49143810D01*
X154765239Y-49381905D01*
X154717620Y-49477143D01*
X154670001Y-49524762D01*
X154574763Y-49572381D01*
X154336667Y-49572381D01*
X154241429Y-49524762D01*
X154193810Y-49477143D01*
X81519048Y-121404762D02*
X81661905Y-121452381D01*
X81900001Y-121452381D01*
X81995239Y-121404762D01*
X82042858Y-121357143D01*
X82090477Y-121261905D01*
X82090477Y-121166667D01*
X82042858Y-121071429D01*
X81995239Y-121023810D01*
X81900001Y-120976190D01*
X81709524Y-120928571D01*
X81614286Y-120880952D01*
X81566667Y-120833333D01*
X81519048Y-120738095D01*
X81519048Y-120642857D01*
X81566667Y-120547619D01*
X81614286Y-120500000D01*
X81709524Y-120452381D01*
X81947620Y-120452381D01*
X82090477Y-120500000D01*
X82423810Y-120452381D02*
X82661905Y-121452381D01*
X82852382Y-120738095D01*
X83042858Y-121452381D01*
X83280953Y-120452381D01*
X83661905Y-121452381D02*
X83661905Y-120452381D01*
X83995238Y-120452381D02*
X84566667Y-120452381D01*
X84280952Y-121452381D02*
X84280952Y-120452381D01*
X85471429Y-121357143D02*
X85423810Y-121404762D01*
X85280953Y-121452381D01*
X85185715Y-121452381D01*
X85042857Y-121404762D01*
X84947619Y-121309524D01*
X84900000Y-121214286D01*
X84852381Y-121023810D01*
X84852381Y-120880952D01*
X84900000Y-120690476D01*
X84947619Y-120595238D01*
X85042857Y-120500000D01*
X85185715Y-120452381D01*
X85280953Y-120452381D01*
X85423810Y-120500000D01*
X85471429Y-120547619D01*
X85900000Y-121452381D02*
X85900000Y-120452381D01*
X85900000Y-120928571D02*
X86471429Y-120928571D01*
X86471429Y-121452381D02*
X86471429Y-120452381D01*
X86947619Y-120928571D02*
X87280953Y-120928571D01*
X87423810Y-121452381D02*
X86947619Y-121452381D01*
X86947619Y-120452381D01*
X87423810Y-120452381D01*
X87852381Y-121452381D02*
X87852381Y-120452381D01*
X88090476Y-120452381D01*
X88233334Y-120500000D01*
X88328572Y-120595238D01*
X88376191Y-120690476D01*
X88423810Y-120880952D01*
X88423810Y-121023810D01*
X88376191Y-121214286D01*
X88328572Y-121309524D01*
X88233334Y-121404762D01*
X88090476Y-121452381D01*
X87852381Y-121452381D01*
X88614286Y-121547619D02*
X89376191Y-121547619D01*
X89614286Y-121452381D02*
X89614286Y-120452381D01*
X89995239Y-120452381D01*
X90090477Y-120500000D01*
X90138096Y-120547619D01*
X90185715Y-120642857D01*
X90185715Y-120785714D01*
X90138096Y-120880952D01*
X90090477Y-120928571D01*
X89995239Y-120976190D01*
X89614286Y-120976190D01*
X90804762Y-120452381D02*
X90995239Y-120452381D01*
X91090477Y-120500000D01*
X91185715Y-120595238D01*
X91233334Y-120785714D01*
X91233334Y-121119048D01*
X91185715Y-121309524D01*
X91090477Y-121404762D01*
X90995239Y-121452381D01*
X90804762Y-121452381D01*
X90709524Y-121404762D01*
X90614286Y-121309524D01*
X90566667Y-121119048D01*
X90566667Y-120785714D01*
X90614286Y-120595238D01*
X90709524Y-120500000D01*
X90804762Y-120452381D01*
X91566667Y-120452381D02*
X91804762Y-121452381D01*
X91995239Y-120738095D01*
X92185715Y-121452381D01*
X92423810Y-120452381D01*
X92804762Y-120928571D02*
X93138096Y-120928571D01*
X93280953Y-121452381D02*
X92804762Y-121452381D01*
X92804762Y-120452381D01*
X93280953Y-120452381D01*
X94280953Y-121452381D02*
X93947619Y-120976190D01*
X93709524Y-121452381D02*
X93709524Y-120452381D01*
X94090477Y-120452381D01*
X94185715Y-120500000D01*
X94233334Y-120547619D01*
X94280953Y-120642857D01*
X94280953Y-120785714D01*
X94233334Y-120880952D01*
X94185715Y-120928571D01*
X94090477Y-120976190D01*
X93709524Y-120976190D01*
X125439524Y-120232381D02*
X126010953Y-120232381D01*
X125725238Y-121232381D02*
X125725238Y-120232381D01*
X126344286Y-121232381D02*
X126344286Y-120232381D01*
X126820476Y-120708571D02*
X127153810Y-120708571D01*
X127296667Y-121232381D02*
X126820476Y-121232381D01*
X126820476Y-120232381D01*
X127296667Y-120232381D01*
X128296667Y-121232381D02*
X127963333Y-120756190D01*
X127725238Y-121232381D02*
X127725238Y-120232381D01*
X128106191Y-120232381D01*
X128201429Y-120280000D01*
X128249048Y-120327619D01*
X128296667Y-120422857D01*
X128296667Y-120565714D01*
X128249048Y-120660952D01*
X128201429Y-120708571D01*
X128106191Y-120756190D01*
X127725238Y-120756190D01*
X129296667Y-121232381D02*
X128963333Y-120756190D01*
X128725238Y-121232381D02*
X128725238Y-120232381D01*
X129106191Y-120232381D01*
X129201429Y-120280000D01*
X129249048Y-120327619D01*
X129296667Y-120422857D01*
X129296667Y-120565714D01*
X129249048Y-120660952D01*
X129201429Y-120708571D01*
X129106191Y-120756190D01*
X128725238Y-120756190D01*
X129677619Y-120946667D02*
X130153810Y-120946667D01*
X129582381Y-121232381D02*
X129915714Y-120232381D01*
X130249048Y-121232381D01*
X130344286Y-121327619D02*
X131106191Y-121327619D01*
X131344286Y-121232381D02*
X131344286Y-120232381D01*
X131725239Y-120232381D01*
X131820477Y-120280000D01*
X131868096Y-120327619D01*
X131915715Y-120422857D01*
X131915715Y-120565714D01*
X131868096Y-120660952D01*
X131820477Y-120708571D01*
X131725239Y-120756190D01*
X131344286Y-120756190D01*
X132534762Y-120232381D02*
X132725239Y-120232381D01*
X132820477Y-120280000D01*
X132915715Y-120375238D01*
X132963334Y-120565714D01*
X132963334Y-120899048D01*
X132915715Y-121089524D01*
X132820477Y-121184762D01*
X132725239Y-121232381D01*
X132534762Y-121232381D01*
X132439524Y-121184762D01*
X132344286Y-121089524D01*
X132296667Y-120899048D01*
X132296667Y-120565714D01*
X132344286Y-120375238D01*
X132439524Y-120280000D01*
X132534762Y-120232381D01*
X133249048Y-120232381D02*
X133820477Y-120232381D01*
X133534762Y-121232381D02*
X133534762Y-120232381D01*
X68761905Y-126252381D02*
X68761905Y-125252381D01*
X69142858Y-125252381D01*
X69238096Y-125300000D01*
X69285715Y-125347619D01*
X69333334Y-125442857D01*
X69333334Y-125585714D01*
X69285715Y-125680952D01*
X69238096Y-125728571D01*
X69142858Y-125776190D01*
X68761905Y-125776190D01*
X70238096Y-125252381D02*
X69761905Y-125252381D01*
X69714286Y-125728571D01*
X69761905Y-125680952D01*
X69857143Y-125633333D01*
X70095239Y-125633333D01*
X70190477Y-125680952D01*
X70238096Y-125728571D01*
X70285715Y-125823810D01*
X70285715Y-126061905D01*
X70238096Y-126157143D01*
X70190477Y-126204762D01*
X70095239Y-126252381D01*
X69857143Y-126252381D01*
X69761905Y-126204762D01*
X69714286Y-126157143D01*
X67357143Y-134652381D02*
X67357143Y-133652381D01*
X67785714Y-134604762D02*
X67928571Y-134652381D01*
X68166667Y-134652381D01*
X68261905Y-134604762D01*
X68309524Y-134557143D01*
X68357143Y-134461905D01*
X68357143Y-134366667D01*
X68309524Y-134271429D01*
X68261905Y-134223810D01*
X68166667Y-134176190D01*
X67976190Y-134128571D01*
X67880952Y-134080952D01*
X67833333Y-134033333D01*
X67785714Y-133938095D01*
X67785714Y-133842857D01*
X67833333Y-133747619D01*
X67880952Y-133700000D01*
X67976190Y-133652381D01*
X68214286Y-133652381D01*
X68357143Y-133700000D01*
X69261905Y-134652381D02*
X68785714Y-134652381D01*
X68785714Y-133652381D01*
X69595238Y-134128571D02*
X69928572Y-134128571D01*
X70071429Y-134652381D02*
X69595238Y-134652381D01*
X69595238Y-133652381D01*
X70071429Y-133652381D01*
X70357143Y-133652381D02*
X70928572Y-133652381D01*
X70642857Y-134652381D02*
X70642857Y-133652381D01*
X71214286Y-134366667D02*
X71690477Y-134366667D01*
X71119048Y-134652381D02*
X71452381Y-133652381D01*
X71785715Y-134652381D01*
X69061905Y-130452381D02*
X69061905Y-129452381D01*
X69442858Y-129452381D01*
X69538096Y-129500000D01*
X69585715Y-129547619D01*
X69633334Y-129642857D01*
X69633334Y-129785714D01*
X69585715Y-129880952D01*
X69538096Y-129928571D01*
X69442858Y-129976190D01*
X69061905Y-129976190D01*
X70538096Y-129452381D02*
X70061905Y-129452381D01*
X70014286Y-129928571D01*
X70061905Y-129880952D01*
X70157143Y-129833333D01*
X70395239Y-129833333D01*
X70490477Y-129880952D01*
X70538096Y-129928571D01*
X70585715Y-130023810D01*
X70585715Y-130261905D01*
X70538096Y-130357143D01*
X70490477Y-130404762D01*
X70395239Y-130452381D01*
X70157143Y-130452381D01*
X70061905Y-130404762D01*
X70014286Y-130357143D01*
X158761905Y-126252381D02*
X158761905Y-125252381D01*
X159142858Y-125252381D01*
X159238096Y-125300000D01*
X159285715Y-125347619D01*
X159333334Y-125442857D01*
X159333334Y-125585714D01*
X159285715Y-125680952D01*
X159238096Y-125728571D01*
X159142858Y-125776190D01*
X158761905Y-125776190D01*
X160190477Y-125252381D02*
X160000000Y-125252381D01*
X159904762Y-125300000D01*
X159857143Y-125347619D01*
X159761905Y-125490476D01*
X159714286Y-125680952D01*
X159714286Y-126061905D01*
X159761905Y-126157143D01*
X159809524Y-126204762D01*
X159904762Y-126252381D01*
X160095239Y-126252381D01*
X160190477Y-126204762D01*
X160238096Y-126157143D01*
X160285715Y-126061905D01*
X160285715Y-125823810D01*
X160238096Y-125728571D01*
X160190477Y-125680952D01*
X160095239Y-125633333D01*
X159904762Y-125633333D01*
X159809524Y-125680952D01*
X159761905Y-125728571D01*
X159714286Y-125823810D01*
X157357143Y-134652381D02*
X157357143Y-133652381D01*
X157785714Y-134604762D02*
X157928571Y-134652381D01*
X158166667Y-134652381D01*
X158261905Y-134604762D01*
X158309524Y-134557143D01*
X158357143Y-134461905D01*
X158357143Y-134366667D01*
X158309524Y-134271429D01*
X158261905Y-134223810D01*
X158166667Y-134176190D01*
X157976190Y-134128571D01*
X157880952Y-134080952D01*
X157833333Y-134033333D01*
X157785714Y-133938095D01*
X157785714Y-133842857D01*
X157833333Y-133747619D01*
X157880952Y-133700000D01*
X157976190Y-133652381D01*
X158214286Y-133652381D01*
X158357143Y-133700000D01*
X159261905Y-134652381D02*
X158785714Y-134652381D01*
X158785714Y-133652381D01*
X159595238Y-134128571D02*
X159928572Y-134128571D01*
X160071429Y-134652381D02*
X159595238Y-134652381D01*
X159595238Y-133652381D01*
X160071429Y-133652381D01*
X160357143Y-133652381D02*
X160928572Y-133652381D01*
X160642857Y-134652381D02*
X160642857Y-133652381D01*
X161214286Y-134366667D02*
X161690477Y-134366667D01*
X161119048Y-134652381D02*
X161452381Y-133652381D01*
X161785715Y-134652381D01*
X159061905Y-130452381D02*
X159061905Y-129452381D01*
X159442858Y-129452381D01*
X159538096Y-129500000D01*
X159585715Y-129547619D01*
X159633334Y-129642857D01*
X159633334Y-129785714D01*
X159585715Y-129880952D01*
X159538096Y-129928571D01*
X159442858Y-129976190D01*
X159061905Y-129976190D01*
X160490477Y-129452381D02*
X160300000Y-129452381D01*
X160204762Y-129500000D01*
X160157143Y-129547619D01*
X160061905Y-129690476D01*
X160014286Y-129880952D01*
X160014286Y-130261905D01*
X160061905Y-130357143D01*
X160109524Y-130404762D01*
X160204762Y-130452381D01*
X160395239Y-130452381D01*
X160490477Y-130404762D01*
X160538096Y-130357143D01*
X160585715Y-130261905D01*
X160585715Y-130023810D01*
X160538096Y-129928571D01*
X160490477Y-129880952D01*
X160395239Y-129833333D01*
X160204762Y-129833333D01*
X160109524Y-129880952D01*
X160061905Y-129928571D01*
X160014286Y-130023810D01*
X158761905Y-36252381D02*
X158761905Y-35252381D01*
X159142858Y-35252381D01*
X159238096Y-35300000D01*
X159285715Y-35347619D01*
X159333334Y-35442857D01*
X159333334Y-35585714D01*
X159285715Y-35680952D01*
X159238096Y-35728571D01*
X159142858Y-35776190D01*
X158761905Y-35776190D01*
X159666667Y-35252381D02*
X160333334Y-35252381D01*
X159904762Y-36252381D01*
X157357143Y-44652381D02*
X157357143Y-43652381D01*
X157785714Y-44604762D02*
X157928571Y-44652381D01*
X158166667Y-44652381D01*
X158261905Y-44604762D01*
X158309524Y-44557143D01*
X158357143Y-44461905D01*
X158357143Y-44366667D01*
X158309524Y-44271429D01*
X158261905Y-44223810D01*
X158166667Y-44176190D01*
X157976190Y-44128571D01*
X157880952Y-44080952D01*
X157833333Y-44033333D01*
X157785714Y-43938095D01*
X157785714Y-43842857D01*
X157833333Y-43747619D01*
X157880952Y-43700000D01*
X157976190Y-43652381D01*
X158214286Y-43652381D01*
X158357143Y-43700000D01*
X159261905Y-44652381D02*
X158785714Y-44652381D01*
X158785714Y-43652381D01*
X159595238Y-44128571D02*
X159928572Y-44128571D01*
X160071429Y-44652381D02*
X159595238Y-44652381D01*
X159595238Y-43652381D01*
X160071429Y-43652381D01*
X160357143Y-43652381D02*
X160928572Y-43652381D01*
X160642857Y-44652381D02*
X160642857Y-43652381D01*
X161214286Y-44366667D02*
X161690477Y-44366667D01*
X161119048Y-44652381D02*
X161452381Y-43652381D01*
X161785715Y-44652381D01*
X159061905Y-40452381D02*
X159061905Y-39452381D01*
X159442858Y-39452381D01*
X159538096Y-39500000D01*
X159585715Y-39547619D01*
X159633334Y-39642857D01*
X159633334Y-39785714D01*
X159585715Y-39880952D01*
X159538096Y-39928571D01*
X159442858Y-39976190D01*
X159061905Y-39976190D01*
X159966667Y-39452381D02*
X160633334Y-39452381D01*
X160204762Y-40452381D01*
X68761905Y-36252381D02*
X68761905Y-35252381D01*
X69142858Y-35252381D01*
X69238096Y-35300000D01*
X69285715Y-35347619D01*
X69333334Y-35442857D01*
X69333334Y-35585714D01*
X69285715Y-35680952D01*
X69238096Y-35728571D01*
X69142858Y-35776190D01*
X68761905Y-35776190D01*
X69904762Y-35680952D02*
X69809524Y-35633333D01*
X69761905Y-35585714D01*
X69714286Y-35490476D01*
X69714286Y-35442857D01*
X69761905Y-35347619D01*
X69809524Y-35300000D01*
X69904762Y-35252381D01*
X70095239Y-35252381D01*
X70190477Y-35300000D01*
X70238096Y-35347619D01*
X70285715Y-35442857D01*
X70285715Y-35490476D01*
X70238096Y-35585714D01*
X70190477Y-35633333D01*
X70095239Y-35680952D01*
X69904762Y-35680952D01*
X69809524Y-35728571D01*
X69761905Y-35776190D01*
X69714286Y-35871429D01*
X69714286Y-36061905D01*
X69761905Y-36157143D01*
X69809524Y-36204762D01*
X69904762Y-36252381D01*
X70095239Y-36252381D01*
X70190477Y-36204762D01*
X70238096Y-36157143D01*
X70285715Y-36061905D01*
X70285715Y-35871429D01*
X70238096Y-35776190D01*
X70190477Y-35728571D01*
X70095239Y-35680952D01*
X67357143Y-44652381D02*
X67357143Y-43652381D01*
X67785714Y-44604762D02*
X67928571Y-44652381D01*
X68166667Y-44652381D01*
X68261905Y-44604762D01*
X68309524Y-44557143D01*
X68357143Y-44461905D01*
X68357143Y-44366667D01*
X68309524Y-44271429D01*
X68261905Y-44223810D01*
X68166667Y-44176190D01*
X67976190Y-44128571D01*
X67880952Y-44080952D01*
X67833333Y-44033333D01*
X67785714Y-43938095D01*
X67785714Y-43842857D01*
X67833333Y-43747619D01*
X67880952Y-43700000D01*
X67976190Y-43652381D01*
X68214286Y-43652381D01*
X68357143Y-43700000D01*
X69261905Y-44652381D02*
X68785714Y-44652381D01*
X68785714Y-43652381D01*
X69595238Y-44128571D02*
X69928572Y-44128571D01*
X70071429Y-44652381D02*
X69595238Y-44652381D01*
X69595238Y-43652381D01*
X70071429Y-43652381D01*
X70357143Y-43652381D02*
X70928572Y-43652381D01*
X70642857Y-44652381D02*
X70642857Y-43652381D01*
X71214286Y-44366667D02*
X71690477Y-44366667D01*
X71119048Y-44652381D02*
X71452381Y-43652381D01*
X71785715Y-44652381D01*
X69061905Y-40452381D02*
X69061905Y-39452381D01*
X69442858Y-39452381D01*
X69538096Y-39500000D01*
X69585715Y-39547619D01*
X69633334Y-39642857D01*
X69633334Y-39785714D01*
X69585715Y-39880952D01*
X69538096Y-39928571D01*
X69442858Y-39976190D01*
X69061905Y-39976190D01*
X70204762Y-39880952D02*
X70109524Y-39833333D01*
X70061905Y-39785714D01*
X70014286Y-39690476D01*
X70014286Y-39642857D01*
X70061905Y-39547619D01*
X70109524Y-39500000D01*
X70204762Y-39452381D01*
X70395239Y-39452381D01*
X70490477Y-39500000D01*
X70538096Y-39547619D01*
X70585715Y-39642857D01*
X70585715Y-39690476D01*
X70538096Y-39785714D01*
X70490477Y-39833333D01*
X70395239Y-39880952D01*
X70204762Y-39880952D01*
X70109524Y-39928571D01*
X70061905Y-39976190D01*
X70014286Y-40071429D01*
X70014286Y-40261905D01*
X70061905Y-40357143D01*
X70109524Y-40404762D01*
X70204762Y-40452381D01*
X70395239Y-40452381D01*
X70490477Y-40404762D01*
X70538096Y-40357143D01*
X70585715Y-40261905D01*
X70585715Y-40071429D01*
X70538096Y-39976190D01*
X70490477Y-39928571D01*
X70395239Y-39880952D01*
M02*
