G04 #@! TF.FileFunction,Copper,L2,Bot,Signal*
%FSLAX46Y46*%
G04 Gerber Fmt 4.6, Leading zero omitted, Abs format (unit mm)*
G04 Created by KiCad (PCBNEW 4.0.2-stable) date 10/05/17 14:17:11*
%MOMM*%
G01*
G04 APERTURE LIST*
%ADD10C,0.100000*%
%ADD11R,1.727200X1.727200*%
%ADD12O,1.727200X1.727200*%
%ADD13R,1.700000X1.700000*%
%ADD14O,1.700000X1.700000*%
%ADD15R,2.032000X1.727200*%
%ADD16O,2.032000X1.727200*%
%ADD17R,3.960000X1.980000*%
%ADD18O,3.960000X1.980000*%
%ADD19C,1.500000*%
%ADD20O,5.001260X2.999740*%
%ADD21O,2.999740X5.001260*%
%ADD22R,1.727200X2.032000*%
%ADD23O,1.727200X2.032000*%
%ADD24C,6.400000*%
%ADD25C,0.800000*%
%ADD26C,0.500000*%
%ADD27C,0.600000*%
%ADD28C,0.500000*%
%ADD29C,0.400000*%
%ADD30C,0.250000*%
%ADD31C,1.000000*%
%ADD32C,2.000000*%
%ADD33C,0.300000*%
%ADD34C,0.700000*%
%ADD35C,0.254000*%
G04 APERTURE END LIST*
D10*
D11*
X127200000Y-42950000D03*
D12*
X127200000Y-40410000D03*
X124660000Y-42950000D03*
X124660000Y-40410000D03*
D13*
X113500000Y-127950000D03*
D14*
X116040000Y-127950000D03*
D15*
X169800000Y-58150000D03*
D16*
X169800000Y-55610000D03*
X169800000Y-53070000D03*
X169800000Y-50530000D03*
D13*
X113700000Y-118900000D03*
D14*
X113700000Y-121440000D03*
X113700000Y-123980000D03*
D13*
X77550000Y-56050000D03*
D14*
X80090000Y-56050000D03*
D13*
X85650000Y-66950000D03*
D14*
X83110000Y-66950000D03*
D13*
X85650000Y-63050000D03*
D14*
X83110000Y-63050000D03*
D13*
X157200000Y-99800000D03*
D14*
X159740000Y-99800000D03*
D13*
X159700000Y-94700000D03*
D14*
X157160000Y-94700000D03*
D13*
X92700000Y-80150000D03*
D14*
X92700000Y-77610000D03*
D13*
X106350000Y-88000000D03*
D14*
X103810000Y-88000000D03*
D13*
X159750000Y-84550000D03*
D14*
X159750000Y-82010000D03*
D13*
X159450000Y-69200000D03*
D14*
X156910000Y-69200000D03*
D13*
X113030000Y-101092000D03*
D14*
X110490000Y-101092000D03*
D13*
X136650000Y-69700000D03*
D14*
X136650000Y-72240000D03*
D13*
X124950000Y-118050000D03*
D14*
X124950000Y-120590000D03*
D17*
X78050000Y-123400000D03*
D18*
X78050000Y-120860000D03*
X78050000Y-118320000D03*
D13*
X118900000Y-134350000D03*
D14*
X118900000Y-131810000D03*
X121440000Y-134350000D03*
X121440000Y-131810000D03*
X123980000Y-134350000D03*
X123980000Y-131810000D03*
D13*
X118500000Y-118150000D03*
D14*
X121040000Y-118150000D03*
D13*
X133000000Y-94000000D03*
D14*
X133000000Y-96540000D03*
D13*
X170700000Y-93050000D03*
D14*
X170700000Y-95590000D03*
D19*
X109900000Y-132850000D03*
X122936000Y-114808000D03*
X128500000Y-117300000D03*
X164592000Y-92456000D03*
X83250000Y-59900000D03*
X101346000Y-91694000D03*
X109800000Y-88050000D03*
X123698000Y-99568000D03*
X100584000Y-56388000D03*
X159766000Y-88138000D03*
X158550000Y-105900000D03*
X78994000Y-106934000D03*
D13*
X140300000Y-129700000D03*
D14*
X137760000Y-129700000D03*
X135220000Y-129700000D03*
X132680000Y-129700000D03*
X130140000Y-129700000D03*
D13*
X78900000Y-70300000D03*
D14*
X78900000Y-67760000D03*
D20*
X167500000Y-82731200D03*
X167500000Y-78768800D03*
X167500000Y-86691060D03*
X167500000Y-74808940D03*
D21*
X89458800Y-44704000D03*
X93421200Y-44704000D03*
X85498940Y-44704000D03*
X97381060Y-44704000D03*
D20*
X167650000Y-107018800D03*
X167650000Y-110981200D03*
X167650000Y-103058940D03*
X167650000Y-114941060D03*
D13*
X116400000Y-86550000D03*
D14*
X118940000Y-86550000D03*
D13*
X133000000Y-100600000D03*
D14*
X130460000Y-100600000D03*
D13*
X116078000Y-109220000D03*
D14*
X118618000Y-109220000D03*
X121158000Y-109220000D03*
D13*
X134250000Y-108400000D03*
D14*
X136790000Y-108400000D03*
D13*
X97050000Y-99200000D03*
D14*
X99590000Y-99200000D03*
D22*
X112600000Y-41350000D03*
D23*
X115140000Y-41350000D03*
X117680000Y-41350000D03*
D11*
X138100000Y-41150000D03*
D12*
X138100000Y-43690000D03*
X140640000Y-41150000D03*
X140640000Y-43690000D03*
X143180000Y-41150000D03*
X143180000Y-43690000D03*
X145720000Y-41150000D03*
X145720000Y-43690000D03*
D24*
X79200000Y-43000000D03*
D25*
X81600000Y-43000000D03*
X80897056Y-44697056D03*
X79200000Y-45400000D03*
X77502944Y-44697056D03*
X76800000Y-43000000D03*
X77502944Y-41302944D03*
X79200000Y-40600000D03*
X80897056Y-41302944D03*
D24*
X169200000Y-43000000D03*
D25*
X171600000Y-43000000D03*
X170897056Y-44697056D03*
X169200000Y-45400000D03*
X167502944Y-44697056D03*
X166800000Y-43000000D03*
X167502944Y-41302944D03*
X169200000Y-40600000D03*
X170897056Y-41302944D03*
D24*
X169200000Y-133000000D03*
D25*
X171600000Y-133000000D03*
X170897056Y-134697056D03*
X169200000Y-135400000D03*
X167502944Y-134697056D03*
X166800000Y-133000000D03*
X167502944Y-131302944D03*
X169200000Y-130600000D03*
X170897056Y-131302944D03*
D24*
X79200000Y-133000000D03*
D25*
X81600000Y-133000000D03*
X80897056Y-134697056D03*
X79200000Y-135400000D03*
X77502944Y-134697056D03*
X76800000Y-133000000D03*
X77502944Y-131302944D03*
X79200000Y-130600000D03*
X80897056Y-131302944D03*
D15*
X169050000Y-121000000D03*
D16*
X169050000Y-123540000D03*
X169050000Y-126080000D03*
D13*
X160150000Y-42450000D03*
D14*
X157610000Y-42450000D03*
X155070000Y-42450000D03*
X152530000Y-42450000D03*
D13*
X106934000Y-41402000D03*
D14*
X104394000Y-41402000D03*
X101854000Y-41402000D03*
D13*
X129900000Y-88800000D03*
D14*
X132440000Y-88800000D03*
X134980000Y-88800000D03*
D13*
X99314000Y-66294000D03*
D14*
X101854000Y-66294000D03*
X99314000Y-68834000D03*
X101854000Y-68834000D03*
X99314000Y-71374000D03*
X101854000Y-71374000D03*
D26*
X99822000Y-126746000D03*
D27*
X106700000Y-109100000D03*
X101600000Y-126850000D03*
X105050000Y-109100000D03*
X97550000Y-123050000D03*
X141210000Y-132990000D03*
X140930000Y-136180000D03*
X138360000Y-136180000D03*
X139360000Y-133780000D03*
X137800000Y-132210000D03*
X135510000Y-133500000D03*
X137740000Y-135290000D03*
X133890000Y-136070000D03*
X131320000Y-135450000D03*
X132440000Y-134560000D03*
X133610000Y-131770000D03*
X131090000Y-133160000D03*
X129530000Y-132160000D03*
X129470000Y-135790000D03*
X127740000Y-134780000D03*
X127630000Y-132320000D03*
X126790000Y-126960000D03*
X127850000Y-125060000D03*
X127350000Y-122490000D03*
X123050000Y-123160000D03*
X122820000Y-120250000D03*
X120810000Y-120700000D03*
X121430000Y-122320000D03*
X125060000Y-123440000D03*
X124500000Y-126070000D03*
D26*
X85344000Y-82042000D03*
D27*
X84900000Y-80280000D03*
X83740000Y-78850000D03*
X80630000Y-77610000D03*
X81700000Y-75480000D03*
X85880000Y-76010000D03*
X87390000Y-79210000D03*
X86940000Y-83030000D03*
X85080000Y-85610000D03*
X88990000Y-85430000D03*
X89880000Y-84190000D03*
X88810000Y-81970000D03*
X88810000Y-77250000D03*
X86320000Y-73700000D03*
X85170000Y-71300000D03*
X82940000Y-72630000D03*
X79300000Y-73790000D03*
X77080000Y-76900000D03*
X77080000Y-80190000D03*
X77080000Y-84540000D03*
X78940000Y-87830000D03*
X81250000Y-90230000D03*
X80280000Y-93520000D03*
X76990000Y-93790000D03*
X77170000Y-97120000D03*
X80910000Y-97900000D03*
X81980000Y-101200000D03*
X78620000Y-100920000D03*
X76500000Y-100080000D03*
X75770000Y-102650000D03*
X78290000Y-104160000D03*
X81470000Y-103490000D03*
X83320000Y-103320000D03*
X85270000Y-103830000D03*
X86170000Y-106280000D03*
X83540000Y-106280000D03*
X81030000Y-107180000D03*
X82310000Y-108020000D03*
X83150000Y-110250000D03*
X85330000Y-110470000D03*
X86170000Y-108800000D03*
X88850000Y-109130000D03*
X88510000Y-111760000D03*
X84320000Y-112210000D03*
X81810000Y-112210000D03*
X80970000Y-110980000D03*
X80750000Y-109410000D03*
X78290000Y-109690000D03*
X77280000Y-112370000D03*
X79910000Y-113380000D03*
X81470000Y-116290000D03*
X79180000Y-115560000D03*
X76670000Y-115560000D03*
X76220000Y-113160000D03*
X76670000Y-110810000D03*
X77060000Y-108070000D03*
X156210000Y-129794000D03*
X152220000Y-120810000D03*
X152800000Y-118380000D03*
X153420000Y-119830000D03*
X152940000Y-121900000D03*
X153570000Y-123520000D03*
X153030000Y-124810000D03*
X151850000Y-125790000D03*
X150570000Y-126120000D03*
X151740000Y-127830000D03*
X150120000Y-128690000D03*
X148700000Y-128130000D03*
X148390000Y-126340000D03*
X147520000Y-127070000D03*
X146460000Y-128100000D03*
X148250000Y-129590000D03*
X149620000Y-131090000D03*
X151350000Y-132490000D03*
X151970000Y-131880000D03*
X151130000Y-130540000D03*
X151130000Y-129470000D03*
X152690000Y-129840000D03*
X109520000Y-73370000D03*
X108410000Y-75550000D03*
X106060000Y-78290000D03*
X104270000Y-80020000D03*
X108300000Y-79180000D03*
X108070000Y-81310000D03*
X105220000Y-82260000D03*
X103150000Y-82310000D03*
X100470000Y-83090000D03*
X99130000Y-85330000D03*
X100580000Y-86280000D03*
X102710000Y-84600000D03*
X106230000Y-85330000D03*
X108410000Y-83540000D03*
X110530000Y-82200000D03*
X110980000Y-85500000D03*
X114000000Y-87120000D03*
X113600000Y-85380000D03*
X113420000Y-83250000D03*
X116130000Y-83630000D03*
X117840000Y-82300000D03*
X119020000Y-83820000D03*
X121040000Y-83360000D03*
X121690000Y-81000000D03*
X120130000Y-81230000D03*
X116430000Y-81340000D03*
X112780000Y-80770000D03*
X110830000Y-80620000D03*
X95170000Y-40270000D03*
X97230000Y-40350000D03*
X92470000Y-40460000D03*
X90490000Y-40310000D03*
X88010000Y-40080000D03*
X85950000Y-40350000D03*
X122380000Y-41150000D03*
X122380000Y-42790000D03*
X121160000Y-42180000D03*
X121120000Y-40270000D03*
X119900000Y-40310000D03*
X119710000Y-41950000D03*
X119060000Y-44080000D03*
X118260000Y-46180000D03*
X120090000Y-45260000D03*
X120820000Y-44200000D03*
X122490000Y-44200000D03*
X122420000Y-46410000D03*
X120620000Y-47510000D03*
X118450000Y-47850000D03*
X117350000Y-49910000D03*
X116470000Y-48920000D03*
X116740000Y-46060000D03*
X117460000Y-44390000D03*
X77978000Y-65024000D03*
X83970000Y-65110000D03*
X82300000Y-64920000D03*
X80770000Y-64880000D03*
X79130000Y-65070000D03*
X170180000Y-61976000D03*
X168200000Y-64260000D03*
X167860000Y-62310000D03*
X167920000Y-60570000D03*
X166520000Y-61080000D03*
X166520000Y-62590000D03*
X164900000Y-62470000D03*
X164900000Y-61240000D03*
X165070000Y-59570000D03*
X163230000Y-59680000D03*
X162890000Y-61640000D03*
X163060000Y-62640000D03*
X161440000Y-62640000D03*
X161490000Y-61190000D03*
X161490000Y-59510000D03*
X159820000Y-59510000D03*
X159650000Y-60910000D03*
X159820000Y-62420000D03*
X159820000Y-64040000D03*
X161490000Y-64150000D03*
X163620000Y-64150000D03*
X163730000Y-65990000D03*
X163230000Y-68560000D03*
X164510000Y-70070000D03*
X169760000Y-100300000D03*
X167580000Y-99860000D03*
X165680000Y-100190000D03*
X165520000Y-98350000D03*
X166910000Y-98350000D03*
X169260000Y-98010000D03*
X168810000Y-96730000D03*
X167360000Y-96560000D03*
X165850000Y-96560000D03*
X163780000Y-97010000D03*
X161940000Y-97790000D03*
X162160000Y-99130000D03*
X164120000Y-98910000D03*
X164290000Y-100580000D03*
X163390000Y-101980000D03*
X162050000Y-100810000D03*
X160380000Y-102320000D03*
X162220000Y-103490000D03*
X163730000Y-104780000D03*
X160040000Y-97730000D03*
X157890000Y-97730000D03*
X155400000Y-97680000D03*
X155400000Y-96640000D03*
X156910000Y-96640000D03*
X158840000Y-96640000D03*
X160930000Y-96620000D03*
X162420000Y-96090000D03*
X163670000Y-95330000D03*
X166490000Y-95020000D03*
X168280000Y-95110000D03*
X171380000Y-98290000D03*
X171380000Y-100250000D03*
X171640000Y-102880000D03*
X171160000Y-104750000D03*
X171410000Y-107210000D03*
X144960000Y-133830000D03*
X144330000Y-134600000D03*
X144370000Y-136160000D03*
X145790000Y-134420000D03*
X146280000Y-133040000D03*
X146910000Y-134340000D03*
X143140000Y-131570000D03*
X141850000Y-131570000D03*
X143020000Y-129780000D03*
X144950000Y-131630000D03*
X145120000Y-132800000D03*
X142800000Y-134670000D03*
X143110000Y-132990000D03*
X142150000Y-128970000D03*
X140550000Y-127330000D03*
X139230000Y-126020000D03*
X138200000Y-125310000D03*
X137180000Y-124260000D03*
X126930000Y-129390000D03*
X128080000Y-128300000D03*
X128220000Y-129980000D03*
X126930000Y-130730000D03*
X126180000Y-131090000D03*
X126110000Y-132820000D03*
X126150000Y-134190000D03*
X126110000Y-135140000D03*
X126000000Y-136440000D03*
X124130000Y-136590000D03*
X122420000Y-136590000D03*
X120660000Y-136630000D03*
X118830000Y-136700000D03*
X117120000Y-136700000D03*
X87630000Y-134620000D03*
X116340000Y-136010000D03*
X114220000Y-136180000D03*
X113050000Y-135170000D03*
X115060000Y-131990000D03*
X115060000Y-134390000D03*
X116450000Y-132490000D03*
X116060000Y-130480000D03*
X114500000Y-131040000D03*
X113100000Y-131990000D03*
X111820000Y-134000000D03*
X111590000Y-136460000D03*
X110030000Y-135060000D03*
X108070000Y-134670000D03*
X108800000Y-136010000D03*
X106560000Y-136070000D03*
X107070000Y-134450000D03*
X104720000Y-134950000D03*
X104050000Y-136070000D03*
X101990000Y-136660000D03*
X98910000Y-136660000D03*
X97000000Y-136780000D03*
X94830000Y-136630000D03*
X92620000Y-136630000D03*
X90720000Y-136440000D03*
X88580000Y-136440000D03*
X86410000Y-136250000D03*
X86220000Y-134950000D03*
X85610000Y-132820000D03*
X84960000Y-134340000D03*
X84050000Y-136400000D03*
X83250000Y-135670000D03*
X83900000Y-133690000D03*
X84280000Y-132050000D03*
X84890000Y-131100000D03*
X87100000Y-131100000D03*
X89760000Y-130610000D03*
X92090000Y-130490000D03*
X93800000Y-132170000D03*
X92010000Y-132550000D03*
X89990000Y-132550000D03*
X87820000Y-132820000D03*
X150622000Y-88138000D03*
X154340000Y-87730000D03*
X167250000Y-71690000D03*
X165490000Y-71750000D03*
X110640000Y-78960000D03*
X110540000Y-77440000D03*
X90170000Y-66294000D03*
D26*
X91440000Y-66040000D03*
X93218000Y-66040000D03*
X94234000Y-66802000D03*
X94234000Y-68072000D03*
X92202000Y-94996000D03*
X91948000Y-100838000D03*
X91948000Y-101854000D03*
X117348000Y-92202000D03*
X122682000Y-94234000D03*
D27*
X110998000Y-96012000D03*
X110998000Y-94996000D03*
X140716000Y-95250000D03*
X140716000Y-97790000D03*
X136652000Y-74676000D03*
X125730000Y-55880000D03*
X89154000Y-65532000D03*
X77216000Y-47498000D03*
X80264000Y-47752000D03*
X86360000Y-54864000D03*
X91186000Y-54356000D03*
X110490000Y-72644000D03*
X110490000Y-74930000D03*
X124968000Y-74676000D03*
X126238000Y-74168000D03*
X127508000Y-74422000D03*
X124968000Y-76200000D03*
X127254000Y-75438000D03*
X127508000Y-77470000D03*
X125984000Y-77470000D03*
X146304000Y-91186000D03*
X147320000Y-87884000D03*
X148082000Y-89408000D03*
X162052000Y-66294000D03*
X148082000Y-104902000D03*
X153162000Y-103886000D03*
X153162000Y-105410000D03*
X151384000Y-120904000D03*
X151638000Y-122428000D03*
X136906000Y-119634000D03*
X133096000Y-121920000D03*
X99822000Y-101854000D03*
X97028000Y-101854000D03*
X109220000Y-110998000D03*
X109220000Y-113030000D03*
D26*
X99568000Y-119126000D03*
X99568000Y-120650000D03*
X98044000Y-120650000D03*
X98900000Y-119900000D03*
X98044000Y-119126000D03*
D27*
X150740000Y-66830000D03*
X155110000Y-69000000D03*
X152140000Y-69880000D03*
X151600000Y-67450000D03*
X149845000Y-65875000D03*
X153180000Y-69030000D03*
X100110000Y-79630000D03*
X96620000Y-83230000D03*
X112014000Y-67818000D03*
X113284000Y-66548000D03*
X83820000Y-92202000D03*
X83820000Y-89916000D03*
X147574000Y-109728000D03*
X146812000Y-108966000D03*
X148590000Y-110744000D03*
D26*
X157734000Y-118364000D03*
X157988000Y-119634000D03*
D27*
X140208000Y-66040000D03*
X102870000Y-115700000D03*
X103124000Y-118618000D03*
X96266000Y-104394000D03*
X89662000Y-124206000D03*
X89408000Y-114046000D03*
X124714000Y-104648000D03*
X119888000Y-99822000D03*
X85598000Y-88138000D03*
X98298000Y-81534000D03*
X158750000Y-118872000D03*
X110744000Y-69088000D03*
X122800000Y-62050000D03*
X98552000Y-91186000D03*
X92150000Y-110200000D03*
X97150000Y-113750000D03*
X93400000Y-129150000D03*
X88900000Y-72644000D03*
X89408000Y-71882000D03*
X89916000Y-71120000D03*
X116078000Y-99568000D03*
X105350000Y-93300000D03*
X127100000Y-94150000D03*
X126250000Y-87500000D03*
D28*
X99926000Y-126850000D02*
X101600000Y-126850000D01*
X99822000Y-126746000D02*
X99926000Y-126850000D01*
D29*
X105500000Y-126850000D02*
X101600000Y-126850000D01*
X106750000Y-125600000D02*
X105500000Y-126850000D01*
X106750000Y-109150000D02*
X106750000Y-125600000D01*
X106700000Y-109100000D02*
X106750000Y-109150000D01*
X105050000Y-109100000D02*
X105950000Y-110000000D01*
X105950000Y-110000000D02*
X105950000Y-120150000D01*
X105950000Y-120150000D02*
X103050000Y-123050000D01*
X103050000Y-123050000D02*
X97550000Y-123050000D01*
D28*
X126180000Y-131090000D02*
X126400000Y-131090000D01*
X141850000Y-132350000D02*
X141850000Y-131570000D01*
X141210000Y-132990000D02*
X141850000Y-132350000D01*
X138360000Y-136180000D02*
X140930000Y-136180000D01*
X139360000Y-133770000D02*
X139360000Y-133780000D01*
X137800000Y-132210000D02*
X139360000Y-133770000D01*
X135950000Y-133500000D02*
X135510000Y-133500000D01*
X137740000Y-135290000D02*
X135950000Y-133500000D01*
X131940000Y-136070000D02*
X133890000Y-136070000D01*
X131320000Y-135450000D02*
X131940000Y-136070000D01*
X132440000Y-132940000D02*
X132440000Y-134560000D01*
X133610000Y-131770000D02*
X132440000Y-132940000D01*
X130530000Y-133160000D02*
X131090000Y-133160000D01*
X129530000Y-132160000D02*
X130530000Y-133160000D01*
X128750000Y-135790000D02*
X129470000Y-135790000D01*
X127740000Y-134780000D02*
X128750000Y-135790000D01*
X126400000Y-131090000D02*
X127630000Y-132320000D01*
X125450000Y-128300000D02*
X125370000Y-128300000D01*
X126790000Y-126960000D02*
X125450000Y-128300000D01*
X127850000Y-122990000D02*
X127850000Y-125060000D01*
X127350000Y-122490000D02*
X127850000Y-122990000D01*
X123050000Y-120480000D02*
X123050000Y-123160000D01*
X122820000Y-120250000D02*
X123050000Y-120480000D01*
X120810000Y-121700000D02*
X120810000Y-120700000D01*
X121430000Y-122320000D02*
X120810000Y-121700000D01*
X125060000Y-125510000D02*
X125060000Y-123440000D01*
X124500000Y-126070000D02*
X125060000Y-125510000D01*
X85344000Y-80724000D02*
X85344000Y-82042000D01*
X84900000Y-80280000D02*
X85344000Y-80724000D01*
X81870000Y-78850000D02*
X83740000Y-78850000D01*
X80630000Y-77610000D02*
X81870000Y-78850000D01*
X85350000Y-75480000D02*
X81700000Y-75480000D01*
X85880000Y-76010000D02*
X85350000Y-75480000D01*
X87390000Y-82580000D02*
X87390000Y-79210000D01*
X86940000Y-83030000D02*
X87390000Y-82580000D01*
X88810000Y-85610000D02*
X85080000Y-85610000D01*
X88990000Y-85430000D02*
X88810000Y-85610000D01*
X89880000Y-83040000D02*
X89880000Y-84190000D01*
X88810000Y-81970000D02*
X89880000Y-83040000D01*
X88810000Y-76190000D02*
X88810000Y-77250000D01*
X86320000Y-73700000D02*
X88810000Y-76190000D01*
X84270000Y-71300000D02*
X85170000Y-71300000D01*
X82940000Y-72630000D02*
X84270000Y-71300000D01*
X79300000Y-74680000D02*
X79300000Y-73790000D01*
X77080000Y-76900000D02*
X79300000Y-74680000D01*
X77080000Y-84540000D02*
X77080000Y-80190000D01*
X78940000Y-87920000D02*
X78940000Y-87830000D01*
X81250000Y-90230000D02*
X78940000Y-87920000D01*
X77260000Y-93520000D02*
X80280000Y-93520000D01*
X76990000Y-93790000D02*
X77260000Y-93520000D01*
X80130000Y-97120000D02*
X77170000Y-97120000D01*
X80910000Y-97900000D02*
X80130000Y-97120000D01*
X78900000Y-101200000D02*
X81980000Y-101200000D01*
X78620000Y-100920000D02*
X78900000Y-101200000D01*
X76500000Y-101920000D02*
X76500000Y-100080000D01*
X75770000Y-102650000D02*
X76500000Y-101920000D01*
X80800000Y-104160000D02*
X78290000Y-104160000D01*
X81470000Y-103490000D02*
X80800000Y-104160000D01*
X84760000Y-103320000D02*
X83320000Y-103320000D01*
X85270000Y-103830000D02*
X84760000Y-103320000D01*
X83540000Y-106280000D02*
X86170000Y-106280000D01*
X81470000Y-107180000D02*
X81030000Y-107180000D01*
X82310000Y-108020000D02*
X81470000Y-107180000D01*
X85110000Y-110250000D02*
X83150000Y-110250000D01*
X85330000Y-110470000D02*
X85110000Y-110250000D01*
X88520000Y-108800000D02*
X86170000Y-108800000D01*
X88850000Y-109130000D02*
X88520000Y-108800000D01*
X84770000Y-111760000D02*
X88510000Y-111760000D01*
X84320000Y-112210000D02*
X84770000Y-111760000D01*
X81810000Y-111820000D02*
X81810000Y-112210000D01*
X80970000Y-110980000D02*
X81810000Y-111820000D01*
X78570000Y-109410000D02*
X80750000Y-109410000D01*
X78290000Y-109690000D02*
X78570000Y-109410000D01*
X78900000Y-112370000D02*
X77280000Y-112370000D01*
X79910000Y-113380000D02*
X78900000Y-112370000D01*
X79910000Y-116290000D02*
X81470000Y-116290000D01*
X79180000Y-115560000D02*
X79910000Y-116290000D01*
X76670000Y-113610000D02*
X76670000Y-115560000D01*
X76220000Y-113160000D02*
X76670000Y-113610000D01*
X76670000Y-108460000D02*
X76670000Y-110810000D01*
X77060000Y-108070000D02*
X76670000Y-108460000D01*
X156210000Y-129794000D02*
X152736000Y-129794000D01*
X152130000Y-120720000D02*
X152220000Y-120810000D01*
X152130000Y-119050000D02*
X152130000Y-120720000D01*
X152800000Y-118380000D02*
X152130000Y-119050000D01*
X153420000Y-121420000D02*
X153420000Y-119830000D01*
X152940000Y-121900000D02*
X153420000Y-121420000D01*
X153570000Y-124270000D02*
X153570000Y-123520000D01*
X153030000Y-124810000D02*
X153570000Y-124270000D01*
X150900000Y-125790000D02*
X151850000Y-125790000D01*
X150570000Y-126120000D02*
X150900000Y-125790000D01*
X150980000Y-127830000D02*
X151740000Y-127830000D01*
X150120000Y-128690000D02*
X150980000Y-127830000D01*
X148700000Y-126650000D02*
X148700000Y-128130000D01*
X148390000Y-126340000D02*
X148700000Y-126650000D01*
X147490000Y-127070000D02*
X147520000Y-127070000D01*
X146460000Y-128100000D02*
X147490000Y-127070000D01*
X148250000Y-129720000D02*
X148250000Y-129590000D01*
X149620000Y-131090000D02*
X148250000Y-129720000D01*
X151360000Y-132490000D02*
X151350000Y-132490000D01*
X151970000Y-131880000D02*
X151360000Y-132490000D01*
X151130000Y-129470000D02*
X151130000Y-130540000D01*
X152736000Y-129794000D02*
X152690000Y-129840000D01*
X110640000Y-78960000D02*
X110640000Y-80430000D01*
X110490000Y-74340000D02*
X110490000Y-74930000D01*
X109520000Y-73370000D02*
X110490000Y-74340000D01*
X108410000Y-75940000D02*
X108410000Y-75550000D01*
X106060000Y-78290000D02*
X108410000Y-75940000D01*
X107460000Y-80020000D02*
X104270000Y-80020000D01*
X108300000Y-79180000D02*
X107460000Y-80020000D01*
X106170000Y-81310000D02*
X108070000Y-81310000D01*
X105220000Y-82260000D02*
X106170000Y-81310000D01*
X101250000Y-82310000D02*
X103150000Y-82310000D01*
X100470000Y-83090000D02*
X101250000Y-82310000D01*
X99630000Y-85330000D02*
X99130000Y-85330000D01*
X100580000Y-86280000D02*
X99630000Y-85330000D01*
X105500000Y-84600000D02*
X102710000Y-84600000D01*
X106230000Y-85330000D02*
X105500000Y-84600000D01*
X109190000Y-83540000D02*
X108410000Y-83540000D01*
X110530000Y-82200000D02*
X109190000Y-83540000D01*
X112380000Y-85500000D02*
X110980000Y-85500000D01*
X114000000Y-87120000D02*
X112380000Y-85500000D01*
X113600000Y-83430000D02*
X113600000Y-85380000D01*
X113420000Y-83250000D02*
X113600000Y-83430000D01*
X116510000Y-83630000D02*
X116130000Y-83630000D01*
X117840000Y-82300000D02*
X116510000Y-83630000D01*
X120580000Y-83820000D02*
X119020000Y-83820000D01*
X121040000Y-83360000D02*
X120580000Y-83820000D01*
X120360000Y-81000000D02*
X121690000Y-81000000D01*
X120130000Y-81230000D02*
X120360000Y-81000000D01*
X113350000Y-81340000D02*
X116430000Y-81340000D01*
X112780000Y-80770000D02*
X113350000Y-81340000D01*
X110640000Y-80430000D02*
X110830000Y-80620000D01*
X97150000Y-40270000D02*
X95170000Y-40270000D01*
X97230000Y-40350000D02*
X97150000Y-40270000D01*
X92470000Y-40460000D02*
X92320000Y-40310000D01*
X92320000Y-40310000D02*
X90490000Y-40310000D01*
X88010000Y-40080000D02*
X87740000Y-40350000D01*
X87740000Y-40350000D02*
X85950000Y-40350000D01*
X122380000Y-42790000D02*
X122380000Y-41150000D01*
X121160000Y-40310000D02*
X121160000Y-42180000D01*
X121120000Y-40270000D02*
X121160000Y-40310000D01*
X119900000Y-41760000D02*
X119900000Y-40310000D01*
X119710000Y-41950000D02*
X119900000Y-41760000D01*
X119060000Y-45380000D02*
X119060000Y-44080000D01*
X118260000Y-46180000D02*
X119060000Y-45380000D01*
X120090000Y-44930000D02*
X120090000Y-45260000D01*
X120820000Y-44200000D02*
X120090000Y-44930000D01*
X122490000Y-46340000D02*
X122490000Y-44200000D01*
X122420000Y-46410000D02*
X122490000Y-46340000D01*
X118790000Y-47510000D02*
X120620000Y-47510000D01*
X118450000Y-47850000D02*
X118790000Y-47510000D01*
X117350000Y-49800000D02*
X117350000Y-49910000D01*
X116470000Y-48920000D02*
X117350000Y-49800000D01*
X116740000Y-45110000D02*
X116740000Y-46060000D01*
X117460000Y-44390000D02*
X116740000Y-45110000D01*
X82490000Y-65110000D02*
X83970000Y-65110000D01*
X82300000Y-64920000D02*
X82490000Y-65110000D01*
X79320000Y-64880000D02*
X80770000Y-64880000D01*
X79130000Y-65070000D02*
X79320000Y-64880000D01*
X167500000Y-74808940D02*
X167500000Y-73060000D01*
X168200000Y-62650000D02*
X168200000Y-64260000D01*
X167860000Y-62310000D02*
X168200000Y-62650000D01*
X167030000Y-60570000D02*
X167920000Y-60570000D01*
X166520000Y-61080000D02*
X167030000Y-60570000D01*
X165020000Y-62590000D02*
X166520000Y-62590000D01*
X164900000Y-62470000D02*
X165020000Y-62590000D01*
X164900000Y-59740000D02*
X164900000Y-61240000D01*
X165070000Y-59570000D02*
X164900000Y-59740000D01*
X163230000Y-61300000D02*
X163230000Y-59680000D01*
X162890000Y-61640000D02*
X163230000Y-61300000D01*
X161440000Y-62640000D02*
X163060000Y-62640000D01*
X161490000Y-59510000D02*
X161490000Y-61190000D01*
X159820000Y-60740000D02*
X159820000Y-59510000D01*
X159650000Y-60910000D02*
X159820000Y-60740000D01*
X159820000Y-64040000D02*
X159820000Y-62420000D01*
X163620000Y-64150000D02*
X161490000Y-64150000D01*
X163730000Y-68060000D02*
X163730000Y-65990000D01*
X163230000Y-68560000D02*
X163730000Y-68060000D01*
X167500000Y-73060000D02*
X164510000Y-70070000D01*
X169760000Y-100300000D02*
X167650000Y-102410000D01*
X166010000Y-99860000D02*
X167580000Y-99860000D01*
X165680000Y-100190000D02*
X166010000Y-99860000D01*
X166910000Y-98350000D02*
X165520000Y-98350000D01*
X169260000Y-97180000D02*
X169260000Y-98010000D01*
X168810000Y-96730000D02*
X169260000Y-97180000D01*
X165850000Y-96560000D02*
X167360000Y-96560000D01*
X162720000Y-97010000D02*
X163780000Y-97010000D01*
X161940000Y-97790000D02*
X162720000Y-97010000D01*
X163900000Y-99130000D02*
X162160000Y-99130000D01*
X164120000Y-98910000D02*
X163900000Y-99130000D01*
X164290000Y-101080000D02*
X164290000Y-100580000D01*
X163390000Y-101980000D02*
X164290000Y-101080000D01*
X161890000Y-100810000D02*
X162050000Y-100810000D01*
X160380000Y-102320000D02*
X161890000Y-100810000D01*
X162440000Y-103490000D02*
X162220000Y-103490000D01*
X163730000Y-104780000D02*
X162440000Y-103490000D01*
X167650000Y-102410000D02*
X167650000Y-103058940D01*
X170700000Y-95590000D02*
X168760000Y-95590000D01*
X157890000Y-97730000D02*
X160040000Y-97730000D01*
X155400000Y-96640000D02*
X155400000Y-97680000D01*
X158840000Y-96640000D02*
X156910000Y-96640000D01*
X161890000Y-96620000D02*
X160930000Y-96620000D01*
X162420000Y-96090000D02*
X161890000Y-96620000D01*
X166180000Y-95330000D02*
X163670000Y-95330000D01*
X166490000Y-95020000D02*
X166180000Y-95330000D01*
X168760000Y-95590000D02*
X168280000Y-95110000D01*
X170700000Y-97610000D02*
X170700000Y-95590000D01*
X171380000Y-98290000D02*
X170700000Y-97610000D01*
X171380000Y-102620000D02*
X171380000Y-100250000D01*
X171640000Y-102880000D02*
X171380000Y-102620000D01*
X171160000Y-106960000D02*
X171160000Y-104750000D01*
X171410000Y-107210000D02*
X171160000Y-106960000D01*
X145550000Y-134420000D02*
X145790000Y-134420000D01*
X144960000Y-133830000D02*
X145550000Y-134420000D01*
X144330000Y-136120000D02*
X144330000Y-134600000D01*
X144370000Y-136160000D02*
X144330000Y-136120000D01*
X146280000Y-133710000D02*
X146280000Y-133040000D01*
X146910000Y-134340000D02*
X146280000Y-133710000D01*
X143140000Y-131570000D02*
X143020000Y-131450000D01*
X143020000Y-131450000D02*
X143020000Y-129780000D01*
X144950000Y-131630000D02*
X145120000Y-131800000D01*
X145120000Y-131800000D02*
X145120000Y-132800000D01*
X142800000Y-133300000D02*
X142800000Y-134670000D01*
X143110000Y-132990000D02*
X142800000Y-133300000D01*
X141850000Y-131570000D02*
X142150000Y-131270000D01*
X142150000Y-131270000D02*
X142150000Y-128970000D01*
X140550000Y-127330000D02*
X139240000Y-126020000D01*
X139240000Y-126020000D02*
X139230000Y-126020000D01*
X138200000Y-125310000D02*
X137180000Y-124290000D01*
X137180000Y-124290000D02*
X137180000Y-124260000D01*
X116430000Y-136010000D02*
X116340000Y-136010000D01*
X125370000Y-128300000D02*
X126460000Y-129390000D01*
X126460000Y-129390000D02*
X126930000Y-129390000D01*
X128080000Y-128300000D02*
X128220000Y-128440000D01*
X128220000Y-128440000D02*
X128220000Y-129980000D01*
X126930000Y-130730000D02*
X126570000Y-131090000D01*
X126570000Y-131090000D02*
X126180000Y-131090000D01*
X126110000Y-132820000D02*
X126150000Y-132860000D01*
X126150000Y-132860000D02*
X126150000Y-134190000D01*
X126110000Y-135140000D02*
X126000000Y-135250000D01*
X126000000Y-135250000D02*
X126000000Y-136440000D01*
X124130000Y-136590000D02*
X122420000Y-136590000D01*
X120660000Y-136630000D02*
X120590000Y-136700000D01*
X120590000Y-136700000D02*
X118830000Y-136700000D01*
X117120000Y-136700000D02*
X116430000Y-136010000D01*
X87630000Y-134620000D02*
X87630000Y-133010000D01*
X114220000Y-136180000D02*
X113210000Y-135170000D01*
X113210000Y-135170000D02*
X113050000Y-135170000D01*
X115060000Y-131990000D02*
X115060000Y-134390000D01*
X116340000Y-132600000D02*
X116340000Y-136010000D01*
X116450000Y-132490000D02*
X116340000Y-132600000D01*
X115060000Y-130480000D02*
X116060000Y-130480000D01*
X114500000Y-131040000D02*
X115060000Y-130480000D01*
X113100000Y-132720000D02*
X113100000Y-131990000D01*
X111820000Y-134000000D02*
X113100000Y-132720000D01*
X111430000Y-136460000D02*
X111590000Y-136460000D01*
X110030000Y-135060000D02*
X111430000Y-136460000D01*
X108070000Y-135280000D02*
X108070000Y-134670000D01*
X108800000Y-136010000D02*
X108070000Y-135280000D01*
X106560000Y-134960000D02*
X106560000Y-136070000D01*
X107070000Y-134450000D02*
X106560000Y-134960000D01*
X104720000Y-135400000D02*
X104720000Y-134950000D01*
X104050000Y-136070000D02*
X104720000Y-135400000D01*
X98910000Y-136660000D02*
X101990000Y-136660000D01*
X94980000Y-136780000D02*
X97000000Y-136780000D01*
X94830000Y-136630000D02*
X94980000Y-136780000D01*
X90910000Y-136630000D02*
X92620000Y-136630000D01*
X90720000Y-136440000D02*
X90910000Y-136630000D01*
X86600000Y-136440000D02*
X88580000Y-136440000D01*
X86410000Y-136250000D02*
X86600000Y-136440000D01*
X86220000Y-133430000D02*
X86220000Y-134950000D01*
X85610000Y-132820000D02*
X86220000Y-133430000D01*
X84960000Y-135490000D02*
X84960000Y-134340000D01*
X84050000Y-136400000D02*
X84960000Y-135490000D01*
X83250000Y-134340000D02*
X83250000Y-135670000D01*
X83900000Y-133690000D02*
X83250000Y-134340000D01*
X84280000Y-131710000D02*
X84280000Y-132050000D01*
X84890000Y-131100000D02*
X84280000Y-131710000D01*
X89270000Y-131100000D02*
X87100000Y-131100000D01*
X89760000Y-130610000D02*
X89270000Y-131100000D01*
X92120000Y-130490000D02*
X92090000Y-130490000D01*
X93800000Y-132170000D02*
X92120000Y-130490000D01*
X89990000Y-132550000D02*
X92010000Y-132550000D01*
X87630000Y-133010000D02*
X87820000Y-132820000D01*
X165550000Y-71690000D02*
X167250000Y-71690000D01*
X165490000Y-71750000D02*
X165550000Y-71690000D01*
X110490000Y-74930000D02*
X110490000Y-77390000D01*
X110490000Y-77390000D02*
X110540000Y-77440000D01*
X110640000Y-78960000D02*
X110540000Y-78860000D01*
X110540000Y-78860000D02*
X110540000Y-77440000D01*
D29*
X93218000Y-66040000D02*
X91440000Y-66040000D01*
X94234000Y-68072000D02*
X94234000Y-66802000D01*
X91948000Y-101854000D02*
X91948000Y-100838000D01*
X110998000Y-94996000D02*
X110998000Y-96012000D01*
D28*
X80010000Y-47498000D02*
X77216000Y-47498000D01*
X80264000Y-47752000D02*
X80010000Y-47498000D01*
X90678000Y-54864000D02*
X86360000Y-54864000D01*
X91186000Y-54356000D02*
X90678000Y-54864000D01*
X110490000Y-72644000D02*
X110490000Y-74930000D01*
X127254000Y-75438000D02*
X127254000Y-74676000D01*
X125730000Y-74676000D02*
X124968000Y-74676000D01*
X126238000Y-74168000D02*
X125730000Y-74676000D01*
X127254000Y-74676000D02*
X127508000Y-74422000D01*
X124968000Y-76200000D02*
X124968000Y-76454000D01*
X127254000Y-77216000D02*
X127254000Y-75438000D01*
X127508000Y-77470000D02*
X127254000Y-77216000D01*
X124968000Y-76454000D02*
X125984000Y-77470000D01*
X153162000Y-105410000D02*
X153162000Y-103886000D01*
X151384000Y-120904000D02*
X151638000Y-121158000D01*
X151638000Y-121158000D02*
X151638000Y-122428000D01*
X97028000Y-101854000D02*
X99822000Y-101854000D01*
D30*
X99568000Y-120650000D02*
X99568000Y-119126000D01*
X98044000Y-120650000D02*
X99568000Y-120650000D01*
X98044000Y-119126000D02*
X98044000Y-120650000D01*
X98126000Y-119126000D02*
X98044000Y-119126000D01*
X98126000Y-119126000D02*
X98900000Y-119900000D01*
D31*
X150740000Y-66830000D02*
X150860000Y-66710000D01*
X150860000Y-66710000D02*
X150740000Y-66830000D01*
X150740000Y-66830000D02*
X150740000Y-66590000D01*
X155080000Y-69030000D02*
X153180000Y-69030000D01*
X155110000Y-69000000D02*
X155080000Y-69030000D01*
X152140000Y-69880000D02*
X152320000Y-70060000D01*
X152320000Y-70060000D02*
X152140000Y-69880000D01*
X152140000Y-69880000D02*
X152140000Y-70240000D01*
X149845000Y-65875000D02*
X149845000Y-65695000D01*
D32*
X153180000Y-69200000D02*
X153180000Y-69030000D01*
X141448000Y-64760000D02*
X140208000Y-66000000D01*
X148910000Y-64760000D02*
X141448000Y-64760000D01*
X153180000Y-69030000D02*
X151600000Y-67450000D01*
X151600000Y-67450000D02*
X150740000Y-66590000D01*
X150740000Y-66590000D02*
X149845000Y-65695000D01*
X149845000Y-65695000D02*
X148910000Y-64760000D01*
X146812000Y-108966000D02*
X146812000Y-108812000D01*
X153180000Y-69200000D02*
X156910000Y-69200000D01*
X144400000Y-77980000D02*
X152140000Y-70240000D01*
X152140000Y-70240000D02*
X153180000Y-69200000D01*
X144400000Y-106400000D02*
X144400000Y-77980000D01*
X146812000Y-108812000D02*
X144400000Y-106400000D01*
X98298000Y-81442000D02*
X98390000Y-81442000D01*
X98390000Y-81442000D02*
X110744000Y-69088000D01*
X98298000Y-81534000D02*
X98298000Y-81442000D01*
X98298000Y-81442000D02*
X100110000Y-79630000D01*
X96620000Y-83230000D02*
X96611000Y-83221000D01*
X96611000Y-83221000D02*
X96620000Y-83230000D01*
X96620000Y-83230000D02*
X96620000Y-83212000D01*
X112014000Y-67818000D02*
X110744000Y-69088000D01*
X113284000Y-66548000D02*
X112014000Y-67818000D01*
X117782000Y-62050000D02*
X113284000Y-66548000D01*
X122800000Y-62050000D02*
X117782000Y-62050000D01*
X83820000Y-89916000D02*
X83820000Y-92202000D01*
X85598000Y-88138000D02*
X83820000Y-89916000D01*
X147574000Y-109728000D02*
X148590000Y-110744000D01*
X147574000Y-109728000D02*
X146812000Y-108966000D01*
X148590000Y-110744000D02*
X147574000Y-109728000D01*
D28*
X157734000Y-118364000D02*
X157734000Y-118872000D01*
X157734000Y-118364000D02*
X157734000Y-118872000D01*
X158750000Y-118872000D02*
X157988000Y-119634000D01*
D32*
X140208000Y-66040000D02*
X140208000Y-66000000D01*
X140208000Y-66000000D02*
X140208000Y-66040000D01*
X140208000Y-66040000D02*
X140208000Y-66000000D01*
D30*
X102870000Y-115700000D02*
X102870000Y-115824000D01*
D31*
X102870000Y-118364000D02*
X102870000Y-115824000D01*
X103124000Y-118618000D02*
X102870000Y-118364000D01*
X102870000Y-110998000D02*
X96266000Y-104394000D01*
X102870000Y-115824000D02*
X102870000Y-110998000D01*
D33*
X89662000Y-124206000D02*
X89408000Y-123952000D01*
X89408000Y-123952000D02*
X89408000Y-114046000D01*
D31*
X119888000Y-99822000D02*
X124714000Y-104648000D01*
D32*
X91694000Y-88138000D02*
X85598000Y-88138000D01*
X98298000Y-81534000D02*
X96620000Y-83212000D01*
X96620000Y-83212000D02*
X91694000Y-88138000D01*
X156718000Y-118872000D02*
X157734000Y-118872000D01*
X148590000Y-110744000D02*
X156718000Y-118872000D01*
X157734000Y-118872000D02*
X158750000Y-118872000D01*
X140208000Y-66000000D02*
X138900000Y-66000000D01*
X134850000Y-61950000D02*
X122800000Y-61950000D01*
X138900000Y-66000000D02*
X134850000Y-61950000D01*
D34*
X122800000Y-62050000D02*
X122800000Y-61950000D01*
X122800000Y-61950000D02*
X122800000Y-62050000D01*
X122800000Y-62050000D02*
X122800000Y-61950000D01*
D29*
X101600000Y-88138000D02*
X103672000Y-88138000D01*
X98552000Y-91186000D02*
X101600000Y-88138000D01*
X103672000Y-88138000D02*
X103810000Y-88000000D01*
D28*
X101854000Y-71374000D02*
X103124000Y-71374000D01*
X160258000Y-55610000D02*
X169800000Y-55610000D01*
X158180002Y-53532002D02*
X160258000Y-55610000D01*
X120965998Y-53532002D02*
X158180002Y-53532002D01*
X103124000Y-71374000D02*
X120965998Y-53532002D01*
X101854000Y-68834000D02*
X104394000Y-68834000D01*
X154702000Y-50530000D02*
X169800000Y-50530000D01*
X152400000Y-52832000D02*
X154702000Y-50530000D01*
X120396000Y-52832000D02*
X152400000Y-52832000D01*
X104394000Y-68834000D02*
X120396000Y-52832000D01*
X93300000Y-113000000D02*
X93300000Y-112900000D01*
X92150000Y-111750000D02*
X92150000Y-110200000D01*
X93300000Y-112900000D02*
X92150000Y-111750000D01*
X97150000Y-113750000D02*
X96400000Y-113000000D01*
X96400000Y-113000000D02*
X93300000Y-113000000D01*
X93300000Y-113000000D02*
X92350000Y-113950000D01*
X92350000Y-113950000D02*
X92350000Y-128100000D01*
X92350000Y-128100000D02*
X93400000Y-129150000D01*
D29*
X97028000Y-73660000D02*
X99314000Y-71374000D01*
X89916000Y-73660000D02*
X97028000Y-73660000D01*
X88900000Y-72644000D02*
X89916000Y-73660000D01*
X95504000Y-72644000D02*
X99314000Y-68834000D01*
X90170000Y-72644000D02*
X95504000Y-72644000D01*
X89408000Y-71882000D02*
X90170000Y-72644000D01*
X97282000Y-66294000D02*
X99314000Y-66294000D01*
X96520000Y-67056000D02*
X97282000Y-66294000D01*
X96520000Y-70358000D02*
X96520000Y-67056000D01*
X94996000Y-71882000D02*
X96520000Y-70358000D01*
X90678000Y-71882000D02*
X94996000Y-71882000D01*
X89916000Y-71120000D02*
X90678000Y-71882000D01*
X118618000Y-102108000D02*
X118618000Y-109220000D01*
X116078000Y-99568000D02*
X118618000Y-102108000D01*
D28*
X101854000Y-66294000D02*
X105410000Y-66294000D01*
X150784000Y-51816000D02*
X160150000Y-42450000D01*
X119888000Y-51816000D02*
X150784000Y-51816000D01*
X105410000Y-66294000D02*
X119888000Y-51816000D01*
D29*
X116400000Y-88850000D02*
X116400000Y-86550000D01*
X114850000Y-90400000D02*
X116400000Y-88850000D01*
X108250000Y-90400000D02*
X114850000Y-90400000D01*
X105350000Y-93300000D02*
X108250000Y-90400000D01*
X127100000Y-88350000D02*
X127100000Y-94150000D01*
X126250000Y-87500000D02*
X127100000Y-88350000D01*
D35*
G36*
X173355000Y-137033326D02*
X75057000Y-137286672D01*
X75057000Y-133759482D01*
X75364336Y-133759482D01*
X75946950Y-135169515D01*
X77024811Y-136249259D01*
X78433825Y-136834333D01*
X79959482Y-136835664D01*
X81369515Y-136253050D01*
X82449259Y-135175189D01*
X83034333Y-133766175D01*
X83034892Y-133124285D01*
X108514760Y-133124285D01*
X108725169Y-133633515D01*
X109114436Y-134023461D01*
X109623298Y-134234759D01*
X110174285Y-134235240D01*
X110683515Y-134024831D01*
X111073461Y-133635564D01*
X111129752Y-133500000D01*
X117402560Y-133500000D01*
X117402560Y-135200000D01*
X117446838Y-135435317D01*
X117585910Y-135651441D01*
X117798110Y-135796431D01*
X118050000Y-135847440D01*
X119750000Y-135847440D01*
X119985317Y-135803162D01*
X120201441Y-135664090D01*
X120346431Y-135451890D01*
X120360086Y-135384459D01*
X120389946Y-135429147D01*
X120871715Y-135751054D01*
X121440000Y-135864093D01*
X122008285Y-135751054D01*
X122490054Y-135429147D01*
X122710000Y-135099974D01*
X122929946Y-135429147D01*
X123411715Y-135751054D01*
X123980000Y-135864093D01*
X124548285Y-135751054D01*
X125030054Y-135429147D01*
X125351961Y-134947378D01*
X125465000Y-134379093D01*
X125465000Y-134320907D01*
X125353326Y-133759482D01*
X165364336Y-133759482D01*
X165946950Y-135169515D01*
X167024811Y-136249259D01*
X168433825Y-136834333D01*
X169959482Y-136835664D01*
X171369515Y-136253050D01*
X172449259Y-135175189D01*
X173034333Y-133766175D01*
X173035664Y-132240518D01*
X172453050Y-130830485D01*
X171375189Y-129750741D01*
X169966175Y-129165667D01*
X168440518Y-129164336D01*
X167030485Y-129746950D01*
X165950741Y-130824811D01*
X165365667Y-132233825D01*
X165364336Y-133759482D01*
X125353326Y-133759482D01*
X125351961Y-133752622D01*
X125030054Y-133270853D01*
X124744422Y-133080000D01*
X125030054Y-132889147D01*
X125351961Y-132407378D01*
X125465000Y-131839093D01*
X125465000Y-131780907D01*
X125351961Y-131212622D01*
X125030054Y-130730853D01*
X124548285Y-130408946D01*
X123980000Y-130295907D01*
X123411715Y-130408946D01*
X122929946Y-130730853D01*
X122710000Y-131060026D01*
X122490054Y-130730853D01*
X122008285Y-130408946D01*
X121440000Y-130295907D01*
X120871715Y-130408946D01*
X120389946Y-130730853D01*
X120170000Y-131060026D01*
X119950054Y-130730853D01*
X119468285Y-130408946D01*
X118900000Y-130295907D01*
X118331715Y-130408946D01*
X117849946Y-130730853D01*
X117528039Y-131212622D01*
X117415000Y-131780907D01*
X117415000Y-131839093D01*
X117528039Y-132407378D01*
X117849946Y-132889147D01*
X117851179Y-132889971D01*
X117814683Y-132896838D01*
X117598559Y-133035910D01*
X117453569Y-133248110D01*
X117402560Y-133500000D01*
X111129752Y-133500000D01*
X111284759Y-133126702D01*
X111285240Y-132575715D01*
X111074831Y-132066485D01*
X110685564Y-131676539D01*
X110176702Y-131465241D01*
X109625715Y-131464760D01*
X109116485Y-131675169D01*
X108726539Y-132064436D01*
X108515241Y-132573298D01*
X108514760Y-133124285D01*
X83034892Y-133124285D01*
X83035664Y-132240518D01*
X82453050Y-130830485D01*
X81375189Y-129750741D01*
X79966175Y-129165667D01*
X78440518Y-129164336D01*
X77030485Y-129746950D01*
X75950741Y-130824811D01*
X75365667Y-132233825D01*
X75364336Y-133759482D01*
X75057000Y-133759482D01*
X75057000Y-118320000D01*
X75383769Y-118320000D01*
X75507465Y-118941861D01*
X75859720Y-119469049D01*
X76040736Y-119590000D01*
X75859720Y-119710951D01*
X75507465Y-120238139D01*
X75383769Y-120860000D01*
X75507465Y-121481861D01*
X75757705Y-121856372D01*
X75618559Y-121945910D01*
X75473569Y-122158110D01*
X75422560Y-122410000D01*
X75422560Y-124390000D01*
X75466838Y-124625317D01*
X75605910Y-124841441D01*
X75818110Y-124986431D01*
X76070000Y-125037440D01*
X80030000Y-125037440D01*
X80265317Y-124993162D01*
X80481441Y-124854090D01*
X80626431Y-124641890D01*
X80677440Y-124390000D01*
X80677440Y-122410000D01*
X80633162Y-122174683D01*
X80494090Y-121958559D01*
X80342997Y-121855322D01*
X80592535Y-121481861D01*
X80716231Y-120860000D01*
X80592535Y-120238139D01*
X80240280Y-119710951D01*
X80059264Y-119590000D01*
X80240280Y-119469049D01*
X80592535Y-118941861D01*
X80716231Y-118320000D01*
X80592535Y-117698139D01*
X80240280Y-117170951D01*
X79713092Y-116818696D01*
X79091231Y-116695000D01*
X77008769Y-116695000D01*
X76386908Y-116818696D01*
X75859720Y-117170951D01*
X75507465Y-117698139D01*
X75383769Y-118320000D01*
X75057000Y-118320000D01*
X75057000Y-114231167D01*
X88472838Y-114231167D01*
X88614883Y-114574943D01*
X88623000Y-114583074D01*
X88623000Y-123952000D01*
X88682755Y-124252407D01*
X88726901Y-124318477D01*
X88726838Y-124391167D01*
X88868883Y-124734943D01*
X89131673Y-124998192D01*
X89475201Y-125140838D01*
X89847167Y-125141162D01*
X90190943Y-124999117D01*
X90454192Y-124736327D01*
X90596838Y-124392799D01*
X90597162Y-124020833D01*
X90455117Y-123677057D01*
X90193000Y-123414482D01*
X90193000Y-114583506D01*
X90200192Y-114576327D01*
X90342838Y-114232799D01*
X90343162Y-113860833D01*
X90201117Y-113517057D01*
X89938327Y-113253808D01*
X89594799Y-113111162D01*
X89222833Y-113110838D01*
X88879057Y-113252883D01*
X88615808Y-113515673D01*
X88473162Y-113859201D01*
X88472838Y-114231167D01*
X75057000Y-114231167D01*
X75057000Y-110385167D01*
X91214838Y-110385167D01*
X91265000Y-110506569D01*
X91265000Y-111749995D01*
X91264999Y-111750000D01*
X91317712Y-112015000D01*
X91332367Y-112088675D01*
X91523154Y-112374210D01*
X91524210Y-112375790D01*
X92098420Y-112950000D01*
X91724210Y-113324210D01*
X91532367Y-113611325D01*
X91521190Y-113667516D01*
X91464999Y-113950000D01*
X91465000Y-113950005D01*
X91465000Y-128099995D01*
X91464999Y-128100000D01*
X91504573Y-128298946D01*
X91532367Y-128438675D01*
X91654094Y-128620853D01*
X91724210Y-128725790D01*
X92557255Y-129558835D01*
X92606883Y-129678943D01*
X92869673Y-129942192D01*
X93213201Y-130084838D01*
X93585167Y-130085162D01*
X93928943Y-129943117D01*
X94192192Y-129680327D01*
X94196103Y-129670907D01*
X128655000Y-129670907D01*
X128655000Y-129729093D01*
X128768039Y-130297378D01*
X129089946Y-130779147D01*
X129571715Y-131101054D01*
X130140000Y-131214093D01*
X130708285Y-131101054D01*
X131190054Y-130779147D01*
X131410000Y-130449974D01*
X131629946Y-130779147D01*
X132111715Y-131101054D01*
X132680000Y-131214093D01*
X133248285Y-131101054D01*
X133730054Y-130779147D01*
X133957702Y-130438447D01*
X134024817Y-130581358D01*
X134453076Y-130971645D01*
X134863110Y-131141476D01*
X135093000Y-131020155D01*
X135093000Y-129827000D01*
X135073000Y-129827000D01*
X135073000Y-129573000D01*
X135093000Y-129573000D01*
X135093000Y-128379845D01*
X135347000Y-128379845D01*
X135347000Y-129573000D01*
X135367000Y-129573000D01*
X135367000Y-129827000D01*
X135347000Y-129827000D01*
X135347000Y-131020155D01*
X135576890Y-131141476D01*
X135986924Y-130971645D01*
X136415183Y-130581358D01*
X136482298Y-130438447D01*
X136709946Y-130779147D01*
X137191715Y-131101054D01*
X137760000Y-131214093D01*
X138328285Y-131101054D01*
X138810054Y-130779147D01*
X138837850Y-130737548D01*
X138846838Y-130785317D01*
X138985910Y-131001441D01*
X139198110Y-131146431D01*
X139450000Y-131197440D01*
X141150000Y-131197440D01*
X141385317Y-131153162D01*
X141601441Y-131014090D01*
X141746431Y-130801890D01*
X141797440Y-130550000D01*
X141797440Y-128850000D01*
X141753162Y-128614683D01*
X141614090Y-128398559D01*
X141401890Y-128253569D01*
X141150000Y-128202560D01*
X139450000Y-128202560D01*
X139214683Y-128246838D01*
X138998559Y-128385910D01*
X138853569Y-128598110D01*
X138839914Y-128665541D01*
X138810054Y-128620853D01*
X138328285Y-128298946D01*
X137760000Y-128185907D01*
X137191715Y-128298946D01*
X136709946Y-128620853D01*
X136482298Y-128961553D01*
X136415183Y-128818642D01*
X135986924Y-128428355D01*
X135576890Y-128258524D01*
X135347000Y-128379845D01*
X135093000Y-128379845D01*
X134863110Y-128258524D01*
X134453076Y-128428355D01*
X134024817Y-128818642D01*
X133957702Y-128961553D01*
X133730054Y-128620853D01*
X133248285Y-128298946D01*
X132680000Y-128185907D01*
X132111715Y-128298946D01*
X131629946Y-128620853D01*
X131410000Y-128950026D01*
X131190054Y-128620853D01*
X130708285Y-128298946D01*
X130140000Y-128185907D01*
X129571715Y-128298946D01*
X129089946Y-128620853D01*
X128768039Y-129102622D01*
X128655000Y-129670907D01*
X94196103Y-129670907D01*
X94334838Y-129336799D01*
X94335162Y-128964833D01*
X94193117Y-128621057D01*
X93930327Y-128357808D01*
X93809013Y-128307434D01*
X93235000Y-127733420D01*
X93235000Y-123235167D01*
X96614838Y-123235167D01*
X96756883Y-123578943D01*
X97019673Y-123842192D01*
X97363201Y-123984838D01*
X97735167Y-123985162D01*
X97977578Y-123885000D01*
X103050000Y-123885000D01*
X103369541Y-123821439D01*
X103640434Y-123640434D01*
X105915000Y-121365868D01*
X105915000Y-125254132D01*
X105154132Y-126015000D01*
X102027234Y-126015000D01*
X101786799Y-125915162D01*
X101414833Y-125914838D01*
X101293431Y-125965000D01*
X100248899Y-125965000D01*
X99998810Y-125861154D01*
X99822004Y-125861000D01*
X99822000Y-125860999D01*
X99821996Y-125861000D01*
X99646735Y-125860847D01*
X99321343Y-125995296D01*
X99196212Y-126120209D01*
X99196210Y-126120210D01*
X99196209Y-126120212D01*
X99072171Y-126244033D01*
X98937154Y-126569190D01*
X98937000Y-126745996D01*
X98936999Y-126746000D01*
X98937000Y-126746004D01*
X98936847Y-126921265D01*
X99071296Y-127246657D01*
X99196209Y-127371788D01*
X99196210Y-127371790D01*
X99196374Y-127371954D01*
X99320033Y-127495829D01*
X99346892Y-127506982D01*
X99532269Y-127630846D01*
X99587325Y-127667633D01*
X99926000Y-127735001D01*
X99926005Y-127735000D01*
X101293178Y-127735000D01*
X101413201Y-127784838D01*
X101785167Y-127785162D01*
X102027578Y-127685000D01*
X105500000Y-127685000D01*
X105819541Y-127621439D01*
X106090434Y-127440434D01*
X106430868Y-127100000D01*
X112002560Y-127100000D01*
X112002560Y-128800000D01*
X112046838Y-129035317D01*
X112185910Y-129251441D01*
X112398110Y-129396431D01*
X112650000Y-129447440D01*
X114350000Y-129447440D01*
X114585317Y-129403162D01*
X114801441Y-129264090D01*
X114946431Y-129051890D01*
X114960086Y-128984459D01*
X114989946Y-129029147D01*
X115471715Y-129351054D01*
X116040000Y-129464093D01*
X116608285Y-129351054D01*
X117090054Y-129029147D01*
X117411961Y-128547378D01*
X117525000Y-127979093D01*
X117525000Y-127920907D01*
X117411961Y-127352622D01*
X117090054Y-126870853D01*
X116608285Y-126548946D01*
X116055681Y-126439026D01*
X167442642Y-126439026D01*
X167445291Y-126454791D01*
X167699268Y-126982036D01*
X168135680Y-127371954D01*
X168688087Y-127565184D01*
X168923000Y-127420924D01*
X168923000Y-126207000D01*
X169177000Y-126207000D01*
X169177000Y-127420924D01*
X169411913Y-127565184D01*
X169964320Y-127371954D01*
X170400732Y-126982036D01*
X170654709Y-126454791D01*
X170657358Y-126439026D01*
X170536217Y-126207000D01*
X169177000Y-126207000D01*
X168923000Y-126207000D01*
X167563783Y-126207000D01*
X167442642Y-126439026D01*
X116055681Y-126439026D01*
X116040000Y-126435907D01*
X115471715Y-126548946D01*
X114989946Y-126870853D01*
X114962150Y-126912452D01*
X114953162Y-126864683D01*
X114814090Y-126648559D01*
X114601890Y-126503569D01*
X114350000Y-126452560D01*
X112650000Y-126452560D01*
X112414683Y-126496838D01*
X112198559Y-126635910D01*
X112053569Y-126848110D01*
X112002560Y-127100000D01*
X106430868Y-127100000D01*
X107340434Y-126190434D01*
X107499082Y-125953000D01*
X107521439Y-125919541D01*
X107585000Y-125600000D01*
X107585000Y-121440000D01*
X112185907Y-121440000D01*
X112298946Y-122008285D01*
X112620853Y-122490054D01*
X112950026Y-122710000D01*
X112620853Y-122929946D01*
X112298946Y-123411715D01*
X112185907Y-123980000D01*
X112298946Y-124548285D01*
X112620853Y-125030054D01*
X113102622Y-125351961D01*
X113670907Y-125465000D01*
X113729093Y-125465000D01*
X114297378Y-125351961D01*
X114779147Y-125030054D01*
X115101054Y-124548285D01*
X115214093Y-123980000D01*
X115126572Y-123540000D01*
X167366655Y-123540000D01*
X167480729Y-124113489D01*
X167805585Y-124599670D01*
X168115069Y-124806461D01*
X167699268Y-125177964D01*
X167445291Y-125705209D01*
X167442642Y-125720974D01*
X167563783Y-125953000D01*
X168923000Y-125953000D01*
X168923000Y-125933000D01*
X169177000Y-125933000D01*
X169177000Y-125953000D01*
X170536217Y-125953000D01*
X170657358Y-125720974D01*
X170654709Y-125705209D01*
X170400732Y-125177964D01*
X169984931Y-124806461D01*
X170294415Y-124599670D01*
X170619271Y-124113489D01*
X170733345Y-123540000D01*
X170619271Y-122966511D01*
X170294415Y-122480330D01*
X170280087Y-122470757D01*
X170301317Y-122466762D01*
X170517441Y-122327690D01*
X170662431Y-122115490D01*
X170713440Y-121863600D01*
X170713440Y-120136400D01*
X170669162Y-119901083D01*
X170530090Y-119684959D01*
X170317890Y-119539969D01*
X170066000Y-119488960D01*
X168034000Y-119488960D01*
X167798683Y-119533238D01*
X167582559Y-119672310D01*
X167437569Y-119884510D01*
X167386560Y-120136400D01*
X167386560Y-121863600D01*
X167430838Y-122098917D01*
X167569910Y-122315041D01*
X167782110Y-122460031D01*
X167823439Y-122468400D01*
X167805585Y-122480330D01*
X167480729Y-122966511D01*
X167366655Y-123540000D01*
X115126572Y-123540000D01*
X115101054Y-123411715D01*
X114779147Y-122929946D01*
X114449974Y-122710000D01*
X114779147Y-122490054D01*
X115101054Y-122008285D01*
X115214093Y-121440000D01*
X115101054Y-120871715D01*
X114912819Y-120590000D01*
X123435907Y-120590000D01*
X123548946Y-121158285D01*
X123870853Y-121640054D01*
X124352622Y-121961961D01*
X124920907Y-122075000D01*
X124979093Y-122075000D01*
X125547378Y-121961961D01*
X126029147Y-121640054D01*
X126351054Y-121158285D01*
X126464093Y-120590000D01*
X126351054Y-120021715D01*
X126029147Y-119539946D01*
X125987548Y-119512150D01*
X126035317Y-119503162D01*
X126251441Y-119364090D01*
X126396431Y-119151890D01*
X126447440Y-118900000D01*
X126447440Y-117574285D01*
X127114760Y-117574285D01*
X127325169Y-118083515D01*
X127714436Y-118473461D01*
X128223298Y-118684759D01*
X128774285Y-118685240D01*
X129283515Y-118474831D01*
X129673461Y-118085564D01*
X129884759Y-117576702D01*
X129885240Y-117025715D01*
X129674831Y-116516485D01*
X129285564Y-116126539D01*
X128776702Y-115915241D01*
X128225715Y-115914760D01*
X127716485Y-116125169D01*
X127326539Y-116514436D01*
X127115241Y-117023298D01*
X127114760Y-117574285D01*
X126447440Y-117574285D01*
X126447440Y-117200000D01*
X126403162Y-116964683D01*
X126264090Y-116748559D01*
X126051890Y-116603569D01*
X125800000Y-116552560D01*
X124100000Y-116552560D01*
X123864683Y-116596838D01*
X123648559Y-116735910D01*
X123503569Y-116948110D01*
X123452560Y-117200000D01*
X123452560Y-118900000D01*
X123496838Y-119135317D01*
X123635910Y-119351441D01*
X123848110Y-119496431D01*
X123915541Y-119510086D01*
X123870853Y-119539946D01*
X123548946Y-120021715D01*
X123435907Y-120590000D01*
X114912819Y-120590000D01*
X114779147Y-120389946D01*
X114737548Y-120362150D01*
X114785317Y-120353162D01*
X115001441Y-120214090D01*
X115146431Y-120001890D01*
X115197440Y-119750000D01*
X115197440Y-118050000D01*
X115153162Y-117814683D01*
X115014090Y-117598559D01*
X114801890Y-117453569D01*
X114550000Y-117402560D01*
X112850000Y-117402560D01*
X112614683Y-117446838D01*
X112398559Y-117585910D01*
X112253569Y-117798110D01*
X112202560Y-118050000D01*
X112202560Y-119750000D01*
X112246838Y-119985317D01*
X112385910Y-120201441D01*
X112598110Y-120346431D01*
X112665541Y-120360086D01*
X112620853Y-120389946D01*
X112298946Y-120871715D01*
X112185907Y-121440000D01*
X107585000Y-121440000D01*
X107585000Y-117300000D01*
X117002560Y-117300000D01*
X117002560Y-119000000D01*
X117046838Y-119235317D01*
X117185910Y-119451441D01*
X117398110Y-119596431D01*
X117650000Y-119647440D01*
X119350000Y-119647440D01*
X119585317Y-119603162D01*
X119801441Y-119464090D01*
X119946431Y-119251890D01*
X119960086Y-119184459D01*
X119989946Y-119229147D01*
X120471715Y-119551054D01*
X121040000Y-119664093D01*
X121608285Y-119551054D01*
X122090054Y-119229147D01*
X122411961Y-118747378D01*
X122525000Y-118179093D01*
X122525000Y-118120907D01*
X122411961Y-117552622D01*
X122090054Y-117070853D01*
X121608285Y-116748946D01*
X121040000Y-116635907D01*
X120471715Y-116748946D01*
X119989946Y-117070853D01*
X119962150Y-117112452D01*
X119953162Y-117064683D01*
X119814090Y-116848559D01*
X119601890Y-116703569D01*
X119350000Y-116652560D01*
X117650000Y-116652560D01*
X117414683Y-116696838D01*
X117198559Y-116835910D01*
X117053569Y-117048110D01*
X117002560Y-117300000D01*
X107585000Y-117300000D01*
X107585000Y-115082285D01*
X121550760Y-115082285D01*
X121761169Y-115591515D01*
X122150436Y-115981461D01*
X122659298Y-116192759D01*
X123210285Y-116193240D01*
X123719515Y-115982831D01*
X124109461Y-115593564D01*
X124320759Y-115084702D01*
X124321240Y-114533715D01*
X124110831Y-114024485D01*
X123721564Y-113634539D01*
X123212702Y-113423241D01*
X122661715Y-113422760D01*
X122152485Y-113633169D01*
X121762539Y-114022436D01*
X121551241Y-114531298D01*
X121550760Y-115082285D01*
X107585000Y-115082285D01*
X107585000Y-109406822D01*
X107634838Y-109286799D01*
X107635162Y-108914833D01*
X107493117Y-108571057D01*
X107292411Y-108370000D01*
X114580560Y-108370000D01*
X114580560Y-110070000D01*
X114624838Y-110305317D01*
X114763910Y-110521441D01*
X114976110Y-110666431D01*
X115228000Y-110717440D01*
X116928000Y-110717440D01*
X117163317Y-110673162D01*
X117379441Y-110534090D01*
X117524431Y-110321890D01*
X117538086Y-110254459D01*
X117567946Y-110299147D01*
X118049715Y-110621054D01*
X118618000Y-110734093D01*
X119186285Y-110621054D01*
X119668054Y-110299147D01*
X119888000Y-109969974D01*
X120107946Y-110299147D01*
X120589715Y-110621054D01*
X121158000Y-110734093D01*
X121726285Y-110621054D01*
X122208054Y-110299147D01*
X122529961Y-109817378D01*
X122643000Y-109249093D01*
X122643000Y-109190907D01*
X122542518Y-108685750D01*
X132765000Y-108685750D01*
X132765000Y-109376309D01*
X132861673Y-109609698D01*
X133040301Y-109788327D01*
X133273690Y-109885000D01*
X133964250Y-109885000D01*
X134123000Y-109726250D01*
X134123000Y-108527000D01*
X132923750Y-108527000D01*
X132765000Y-108685750D01*
X122542518Y-108685750D01*
X122529961Y-108622622D01*
X122208054Y-108140853D01*
X121726285Y-107818946D01*
X121158000Y-107705907D01*
X120589715Y-107818946D01*
X120107946Y-108140853D01*
X119888000Y-108470026D01*
X119668054Y-108140853D01*
X119453000Y-107997159D01*
X119453000Y-107423691D01*
X132765000Y-107423691D01*
X132765000Y-108114250D01*
X132923750Y-108273000D01*
X134123000Y-108273000D01*
X134123000Y-107073750D01*
X134377000Y-107073750D01*
X134377000Y-108273000D01*
X134397000Y-108273000D01*
X134397000Y-108527000D01*
X134377000Y-108527000D01*
X134377000Y-109726250D01*
X134535750Y-109885000D01*
X135226310Y-109885000D01*
X135459699Y-109788327D01*
X135638327Y-109609698D01*
X135710597Y-109435223D01*
X135739946Y-109479147D01*
X136221715Y-109801054D01*
X136790000Y-109914093D01*
X137358285Y-109801054D01*
X137840054Y-109479147D01*
X138161961Y-108997378D01*
X138275000Y-108429093D01*
X138275000Y-108370907D01*
X138161961Y-107802622D01*
X137840054Y-107320853D01*
X137358285Y-106998946D01*
X136790000Y-106885907D01*
X136221715Y-106998946D01*
X135739946Y-107320853D01*
X135710597Y-107364777D01*
X135638327Y-107190302D01*
X135459699Y-107011673D01*
X135226310Y-106915000D01*
X134535750Y-106915000D01*
X134377000Y-107073750D01*
X134123000Y-107073750D01*
X133964250Y-106915000D01*
X133273690Y-106915000D01*
X133040301Y-107011673D01*
X132861673Y-107190302D01*
X132765000Y-107423691D01*
X119453000Y-107423691D01*
X119453000Y-102108000D01*
X119389439Y-101788459D01*
X119208434Y-101517566D01*
X117512868Y-99822000D01*
X118753000Y-99822000D01*
X118839397Y-100256345D01*
X119085434Y-100624566D01*
X123911434Y-105450566D01*
X124279655Y-105696604D01*
X124714000Y-105783000D01*
X125148346Y-105696604D01*
X125516566Y-105450566D01*
X125762604Y-105082346D01*
X125849000Y-104648000D01*
X125762604Y-104213655D01*
X125516566Y-103845434D01*
X121513417Y-99842285D01*
X122312760Y-99842285D01*
X122523169Y-100351515D01*
X122912436Y-100741461D01*
X123421298Y-100952759D01*
X123972285Y-100953240D01*
X124481515Y-100742831D01*
X124653738Y-100570907D01*
X128975000Y-100570907D01*
X128975000Y-100629093D01*
X129088039Y-101197378D01*
X129409946Y-101679147D01*
X129891715Y-102001054D01*
X130460000Y-102114093D01*
X131028285Y-102001054D01*
X131510054Y-101679147D01*
X131537850Y-101637548D01*
X131546838Y-101685317D01*
X131685910Y-101901441D01*
X131898110Y-102046431D01*
X132150000Y-102097440D01*
X133850000Y-102097440D01*
X134085317Y-102053162D01*
X134301441Y-101914090D01*
X134446431Y-101701890D01*
X134497440Y-101450000D01*
X134497440Y-99750000D01*
X134453162Y-99514683D01*
X134314090Y-99298559D01*
X134101890Y-99153569D01*
X133850000Y-99102560D01*
X132150000Y-99102560D01*
X131914683Y-99146838D01*
X131698559Y-99285910D01*
X131553569Y-99498110D01*
X131539914Y-99565541D01*
X131510054Y-99520853D01*
X131028285Y-99198946D01*
X130460000Y-99085907D01*
X129891715Y-99198946D01*
X129409946Y-99520853D01*
X129088039Y-100002622D01*
X128975000Y-100570907D01*
X124653738Y-100570907D01*
X124871461Y-100353564D01*
X125082759Y-99844702D01*
X125083240Y-99293715D01*
X124872831Y-98784485D01*
X124483564Y-98394539D01*
X123974702Y-98183241D01*
X123423715Y-98182760D01*
X122914485Y-98393169D01*
X122524539Y-98782436D01*
X122313241Y-99291298D01*
X122312760Y-99842285D01*
X121513417Y-99842285D01*
X120690566Y-99019434D01*
X120322345Y-98773397D01*
X119888000Y-98687000D01*
X119453655Y-98773397D01*
X119085434Y-99019434D01*
X118839397Y-99387655D01*
X118753000Y-99822000D01*
X117512868Y-99822000D01*
X116970535Y-99279667D01*
X116871117Y-99039057D01*
X116608327Y-98775808D01*
X116264799Y-98633162D01*
X115892833Y-98632838D01*
X115549057Y-98774883D01*
X115285808Y-99037673D01*
X115143162Y-99381201D01*
X115142838Y-99753167D01*
X115284883Y-100096943D01*
X115547673Y-100360192D01*
X115789910Y-100460778D01*
X117783000Y-102453868D01*
X117783000Y-107997159D01*
X117567946Y-108140853D01*
X117540150Y-108182452D01*
X117531162Y-108134683D01*
X117392090Y-107918559D01*
X117179890Y-107773569D01*
X116928000Y-107722560D01*
X115228000Y-107722560D01*
X114992683Y-107766838D01*
X114776559Y-107905910D01*
X114631569Y-108118110D01*
X114580560Y-108370000D01*
X107292411Y-108370000D01*
X107230327Y-108307808D01*
X106886799Y-108165162D01*
X106514833Y-108164838D01*
X106171057Y-108306883D01*
X105907808Y-108569673D01*
X105875096Y-108648452D01*
X105843117Y-108571057D01*
X105580327Y-108307808D01*
X105236799Y-108165162D01*
X104864833Y-108164838D01*
X104521057Y-108306883D01*
X104257808Y-108569673D01*
X104115162Y-108913201D01*
X104114838Y-109285167D01*
X104256883Y-109628943D01*
X104519673Y-109892192D01*
X104761910Y-109992778D01*
X105115000Y-110345868D01*
X105115000Y-119804132D01*
X102704132Y-122215000D01*
X97977234Y-122215000D01*
X97736799Y-122115162D01*
X97364833Y-122114838D01*
X97021057Y-122256883D01*
X96757808Y-122519673D01*
X96615162Y-122863201D01*
X96614838Y-123235167D01*
X93235000Y-123235167D01*
X93235000Y-114316580D01*
X93666579Y-113885000D01*
X96033420Y-113885000D01*
X96307255Y-114158835D01*
X96356883Y-114278943D01*
X96619673Y-114542192D01*
X96963201Y-114684838D01*
X97335167Y-114685162D01*
X97678943Y-114543117D01*
X97942192Y-114280327D01*
X98084838Y-113936799D01*
X98085162Y-113564833D01*
X97943117Y-113221057D01*
X97680327Y-112957808D01*
X97559013Y-112907434D01*
X97025790Y-112374210D01*
X96876130Y-112274211D01*
X96738675Y-112182367D01*
X96682484Y-112171190D01*
X96400000Y-112114999D01*
X96399995Y-112115000D01*
X93766579Y-112115000D01*
X93035000Y-111383420D01*
X93035000Y-110506822D01*
X93084838Y-110386799D01*
X93085162Y-110014833D01*
X92943117Y-109671057D01*
X92680327Y-109407808D01*
X92336799Y-109265162D01*
X91964833Y-109264838D01*
X91621057Y-109406883D01*
X91357808Y-109669673D01*
X91215162Y-110013201D01*
X91214838Y-110385167D01*
X75057000Y-110385167D01*
X75057000Y-107905517D01*
X78202088Y-107905517D01*
X78270077Y-108146460D01*
X78789171Y-108331201D01*
X79339448Y-108303230D01*
X79717923Y-108146460D01*
X79785912Y-107905517D01*
X78994000Y-107113605D01*
X78202088Y-107905517D01*
X75057000Y-107905517D01*
X75057000Y-106729171D01*
X77596799Y-106729171D01*
X77624770Y-107279448D01*
X77781540Y-107657923D01*
X78022483Y-107725912D01*
X78814395Y-106934000D01*
X79173605Y-106934000D01*
X79965517Y-107725912D01*
X80206460Y-107657923D01*
X80391201Y-107138829D01*
X80363230Y-106588552D01*
X80206460Y-106210077D01*
X79965517Y-106142088D01*
X79173605Y-106934000D01*
X78814395Y-106934000D01*
X78022483Y-106142088D01*
X77781540Y-106210077D01*
X77596799Y-106729171D01*
X75057000Y-106729171D01*
X75057000Y-105962483D01*
X78202088Y-105962483D01*
X78994000Y-106754395D01*
X79785912Y-105962483D01*
X79717923Y-105721540D01*
X79198829Y-105536799D01*
X78648552Y-105564770D01*
X78270077Y-105721540D01*
X78202088Y-105962483D01*
X75057000Y-105962483D01*
X75057000Y-104394000D01*
X95131000Y-104394000D01*
X95217397Y-104828345D01*
X95463434Y-105196566D01*
X101735000Y-111468132D01*
X101735000Y-118364000D01*
X101821397Y-118798346D01*
X102026297Y-119105000D01*
X102067434Y-119166566D01*
X102321434Y-119420566D01*
X102689655Y-119666603D01*
X103124000Y-119753000D01*
X103558345Y-119666603D01*
X103926566Y-119420566D01*
X104172603Y-119052345D01*
X104259000Y-118618000D01*
X104172603Y-118183655D01*
X104005000Y-117932819D01*
X104005000Y-110998000D01*
X103918603Y-110563654D01*
X103672566Y-110195434D01*
X97068566Y-103591434D01*
X96700345Y-103345397D01*
X96266000Y-103259000D01*
X95831655Y-103345397D01*
X95463434Y-103591434D01*
X95217397Y-103959655D01*
X95131000Y-104394000D01*
X75057000Y-104394000D01*
X75057000Y-101062907D01*
X109005000Y-101062907D01*
X109005000Y-101121093D01*
X109118039Y-101689378D01*
X109439946Y-102171147D01*
X109921715Y-102493054D01*
X110490000Y-102606093D01*
X111058285Y-102493054D01*
X111540054Y-102171147D01*
X111567850Y-102129548D01*
X111576838Y-102177317D01*
X111715910Y-102393441D01*
X111928110Y-102538431D01*
X112180000Y-102589440D01*
X113880000Y-102589440D01*
X114115317Y-102545162D01*
X114331441Y-102406090D01*
X114476431Y-102193890D01*
X114527440Y-101942000D01*
X114527440Y-100242000D01*
X114483162Y-100006683D01*
X114344090Y-99790559D01*
X114131890Y-99645569D01*
X113880000Y-99594560D01*
X112180000Y-99594560D01*
X111944683Y-99638838D01*
X111728559Y-99777910D01*
X111583569Y-99990110D01*
X111569914Y-100057541D01*
X111540054Y-100012853D01*
X111058285Y-99690946D01*
X110490000Y-99577907D01*
X109921715Y-99690946D01*
X109439946Y-100012853D01*
X109118039Y-100494622D01*
X109005000Y-101062907D01*
X75057000Y-101062907D01*
X75057000Y-98350000D01*
X95552560Y-98350000D01*
X95552560Y-100050000D01*
X95596838Y-100285317D01*
X95735910Y-100501441D01*
X95948110Y-100646431D01*
X96200000Y-100697440D01*
X97900000Y-100697440D01*
X98135317Y-100653162D01*
X98351441Y-100514090D01*
X98496431Y-100301890D01*
X98510086Y-100234459D01*
X98539946Y-100279147D01*
X99021715Y-100601054D01*
X99590000Y-100714093D01*
X100158285Y-100601054D01*
X100640054Y-100279147D01*
X100961961Y-99797378D01*
X101075000Y-99229093D01*
X101075000Y-99170907D01*
X100961961Y-98602622D01*
X100640054Y-98120853D01*
X100158285Y-97798946D01*
X99590000Y-97685907D01*
X99021715Y-97798946D01*
X98539946Y-98120853D01*
X98512150Y-98162452D01*
X98503162Y-98114683D01*
X98364090Y-97898559D01*
X98151890Y-97753569D01*
X97900000Y-97702560D01*
X96200000Y-97702560D01*
X95964683Y-97746838D01*
X95748559Y-97885910D01*
X95603569Y-98098110D01*
X95552560Y-98350000D01*
X75057000Y-98350000D01*
X75057000Y-96540000D01*
X131485907Y-96540000D01*
X131598946Y-97108285D01*
X131920853Y-97590054D01*
X132402622Y-97911961D01*
X132970907Y-98025000D01*
X133029093Y-98025000D01*
X133597378Y-97911961D01*
X134079147Y-97590054D01*
X134401054Y-97108285D01*
X134514093Y-96540000D01*
X134401054Y-95971715D01*
X134079147Y-95489946D01*
X134037548Y-95462150D01*
X134085317Y-95453162D01*
X134301441Y-95314090D01*
X134446431Y-95101890D01*
X134497440Y-94850000D01*
X134497440Y-93150000D01*
X134453162Y-92914683D01*
X134314090Y-92698559D01*
X134101890Y-92553569D01*
X133850000Y-92502560D01*
X132150000Y-92502560D01*
X131914683Y-92546838D01*
X131698559Y-92685910D01*
X131553569Y-92898110D01*
X131502560Y-93150000D01*
X131502560Y-94850000D01*
X131546838Y-95085317D01*
X131685910Y-95301441D01*
X131898110Y-95446431D01*
X131965541Y-95460086D01*
X131920853Y-95489946D01*
X131598946Y-95971715D01*
X131485907Y-96540000D01*
X75057000Y-96540000D01*
X75057000Y-89916000D01*
X82184999Y-89916000D01*
X82185000Y-89916005D01*
X82185000Y-92202000D01*
X82309457Y-92827687D01*
X82663880Y-93358120D01*
X83194313Y-93712543D01*
X83820000Y-93837000D01*
X84445687Y-93712543D01*
X84785980Y-93485167D01*
X104414838Y-93485167D01*
X104556883Y-93828943D01*
X104819673Y-94092192D01*
X105163201Y-94234838D01*
X105535167Y-94235162D01*
X105878943Y-94093117D01*
X106142192Y-93830327D01*
X106242778Y-93588090D01*
X108595868Y-91235000D01*
X114850000Y-91235000D01*
X115169541Y-91171439D01*
X115440434Y-90990434D01*
X116990434Y-89440434D01*
X117074854Y-89314090D01*
X117171439Y-89169541D01*
X117235000Y-88850000D01*
X117235000Y-88047440D01*
X117250000Y-88047440D01*
X117485317Y-88003162D01*
X117701441Y-87864090D01*
X117846431Y-87651890D01*
X117860086Y-87584459D01*
X117889946Y-87629147D01*
X118371715Y-87951054D01*
X118940000Y-88064093D01*
X119508285Y-87951054D01*
X119906213Y-87685167D01*
X125314838Y-87685167D01*
X125456883Y-88028943D01*
X125719673Y-88292192D01*
X125961910Y-88392778D01*
X126265000Y-88695868D01*
X126265000Y-93722766D01*
X126165162Y-93963201D01*
X126164838Y-94335167D01*
X126306883Y-94678943D01*
X126569673Y-94942192D01*
X126913201Y-95084838D01*
X127285167Y-95085162D01*
X127628943Y-94943117D01*
X127892192Y-94680327D01*
X128034838Y-94336799D01*
X128035162Y-93964833D01*
X127935000Y-93722422D01*
X127935000Y-88350000D01*
X127921275Y-88281000D01*
X127871440Y-88030460D01*
X127817679Y-87950000D01*
X128402560Y-87950000D01*
X128402560Y-89650000D01*
X128446838Y-89885317D01*
X128585910Y-90101441D01*
X128798110Y-90246431D01*
X129050000Y-90297440D01*
X130750000Y-90297440D01*
X130985317Y-90253162D01*
X131201441Y-90114090D01*
X131346431Y-89901890D01*
X131360086Y-89834459D01*
X131389946Y-89879147D01*
X131871715Y-90201054D01*
X132440000Y-90314093D01*
X133008285Y-90201054D01*
X133490054Y-89879147D01*
X133710000Y-89549974D01*
X133929946Y-89879147D01*
X134411715Y-90201054D01*
X134980000Y-90314093D01*
X135548285Y-90201054D01*
X136030054Y-89879147D01*
X136351961Y-89397378D01*
X136465000Y-88829093D01*
X136465000Y-88770907D01*
X136351961Y-88202622D01*
X136030054Y-87720853D01*
X135548285Y-87398946D01*
X134980000Y-87285907D01*
X134411715Y-87398946D01*
X133929946Y-87720853D01*
X133710000Y-88050026D01*
X133490054Y-87720853D01*
X133008285Y-87398946D01*
X132440000Y-87285907D01*
X131871715Y-87398946D01*
X131389946Y-87720853D01*
X131362150Y-87762452D01*
X131353162Y-87714683D01*
X131214090Y-87498559D01*
X131001890Y-87353569D01*
X130750000Y-87302560D01*
X129050000Y-87302560D01*
X128814683Y-87346838D01*
X128598559Y-87485910D01*
X128453569Y-87698110D01*
X128402560Y-87950000D01*
X127817679Y-87950000D01*
X127690434Y-87759566D01*
X127142535Y-87211667D01*
X127043117Y-86971057D01*
X126780327Y-86707808D01*
X126436799Y-86565162D01*
X126064833Y-86564838D01*
X125721057Y-86706883D01*
X125457808Y-86969673D01*
X125315162Y-87313201D01*
X125314838Y-87685167D01*
X119906213Y-87685167D01*
X119990054Y-87629147D01*
X120311961Y-87147378D01*
X120425000Y-86579093D01*
X120425000Y-86520907D01*
X120311961Y-85952622D01*
X119990054Y-85470853D01*
X119508285Y-85148946D01*
X118940000Y-85035907D01*
X118371715Y-85148946D01*
X117889946Y-85470853D01*
X117862150Y-85512452D01*
X117853162Y-85464683D01*
X117714090Y-85248559D01*
X117501890Y-85103569D01*
X117250000Y-85052560D01*
X115550000Y-85052560D01*
X115314683Y-85096838D01*
X115098559Y-85235910D01*
X114953569Y-85448110D01*
X114902560Y-85700000D01*
X114902560Y-87400000D01*
X114946838Y-87635317D01*
X115085910Y-87851441D01*
X115298110Y-87996431D01*
X115550000Y-88047440D01*
X115565000Y-88047440D01*
X115565000Y-88504132D01*
X114504132Y-89565000D01*
X108250000Y-89565000D01*
X107930459Y-89628561D01*
X107659566Y-89809566D01*
X105061667Y-92407465D01*
X104821057Y-92506883D01*
X104557808Y-92769673D01*
X104415162Y-93113201D01*
X104414838Y-93485167D01*
X84785980Y-93485167D01*
X84976120Y-93358120D01*
X85330543Y-92827687D01*
X85455000Y-92202000D01*
X85455000Y-91371167D01*
X97616838Y-91371167D01*
X97758883Y-91714943D01*
X98021673Y-91978192D01*
X98365201Y-92120838D01*
X98737167Y-92121162D01*
X99080943Y-91979117D01*
X99091793Y-91968285D01*
X99960760Y-91968285D01*
X100171169Y-92477515D01*
X100560436Y-92867461D01*
X101069298Y-93078759D01*
X101620285Y-93079240D01*
X102129515Y-92868831D01*
X102519461Y-92479564D01*
X102730759Y-91970702D01*
X102731240Y-91419715D01*
X102520831Y-90910485D01*
X102131564Y-90520539D01*
X101622702Y-90309241D01*
X101071715Y-90308760D01*
X100562485Y-90519169D01*
X100172539Y-90908436D01*
X99961241Y-91417298D01*
X99960760Y-91968285D01*
X99091793Y-91968285D01*
X99344192Y-91716327D01*
X99444778Y-91474090D01*
X101945868Y-88973000D01*
X102689021Y-88973000D01*
X102759946Y-89079147D01*
X103241715Y-89401054D01*
X103810000Y-89514093D01*
X104378285Y-89401054D01*
X104860054Y-89079147D01*
X104887850Y-89037548D01*
X104896838Y-89085317D01*
X105035910Y-89301441D01*
X105248110Y-89446431D01*
X105500000Y-89497440D01*
X107200000Y-89497440D01*
X107435317Y-89453162D01*
X107651441Y-89314090D01*
X107796431Y-89101890D01*
X107847440Y-88850000D01*
X107847440Y-88324285D01*
X108414760Y-88324285D01*
X108625169Y-88833515D01*
X109014436Y-89223461D01*
X109523298Y-89434759D01*
X110074285Y-89435240D01*
X110583515Y-89224831D01*
X110973461Y-88835564D01*
X111184759Y-88326702D01*
X111185240Y-87775715D01*
X110974831Y-87266485D01*
X110585564Y-86876539D01*
X110076702Y-86665241D01*
X109525715Y-86664760D01*
X109016485Y-86875169D01*
X108626539Y-87264436D01*
X108415241Y-87773298D01*
X108414760Y-88324285D01*
X107847440Y-88324285D01*
X107847440Y-87150000D01*
X107803162Y-86914683D01*
X107664090Y-86698559D01*
X107451890Y-86553569D01*
X107200000Y-86502560D01*
X105500000Y-86502560D01*
X105264683Y-86546838D01*
X105048559Y-86685910D01*
X104903569Y-86898110D01*
X104889914Y-86965541D01*
X104860054Y-86920853D01*
X104378285Y-86598946D01*
X103810000Y-86485907D01*
X103241715Y-86598946D01*
X102759946Y-86920853D01*
X102504604Y-87303000D01*
X101600000Y-87303000D01*
X101280459Y-87366561D01*
X101009566Y-87547566D01*
X98263667Y-90293465D01*
X98023057Y-90392883D01*
X97759808Y-90655673D01*
X97617162Y-90999201D01*
X97616838Y-91371167D01*
X85455000Y-91371167D01*
X85455000Y-90593240D01*
X86275239Y-89773000D01*
X91693995Y-89773000D01*
X91694000Y-89773001D01*
X92319688Y-89648543D01*
X92850120Y-89294120D01*
X97721874Y-84422366D01*
X97776120Y-84386120D01*
X97812366Y-84331874D01*
X99454117Y-82690122D01*
X99454120Y-82690120D01*
X99490970Y-82634970D01*
X99546120Y-82598120D01*
X109904239Y-72240000D01*
X135135907Y-72240000D01*
X135248946Y-72808285D01*
X135570853Y-73290054D01*
X136052622Y-73611961D01*
X136620907Y-73725000D01*
X136679093Y-73725000D01*
X137247378Y-73611961D01*
X137729147Y-73290054D01*
X138051054Y-72808285D01*
X138164093Y-72240000D01*
X138051054Y-71671715D01*
X137729147Y-71189946D01*
X137687548Y-71162150D01*
X137735317Y-71153162D01*
X137951441Y-71014090D01*
X138096431Y-70801890D01*
X138147440Y-70550000D01*
X138147440Y-68850000D01*
X138103162Y-68614683D01*
X137964090Y-68398559D01*
X137751890Y-68253569D01*
X137500000Y-68202560D01*
X135800000Y-68202560D01*
X135564683Y-68246838D01*
X135348559Y-68385910D01*
X135203569Y-68598110D01*
X135152560Y-68850000D01*
X135152560Y-70550000D01*
X135196838Y-70785317D01*
X135335910Y-71001441D01*
X135548110Y-71146431D01*
X135615541Y-71160086D01*
X135570853Y-71189946D01*
X135248946Y-71671715D01*
X135135907Y-72240000D01*
X109904239Y-72240000D01*
X111900117Y-70244122D01*
X111900120Y-70244120D01*
X113170117Y-68974122D01*
X113170120Y-68974120D01*
X114440117Y-67704122D01*
X114440120Y-67704120D01*
X118459239Y-63685000D01*
X122800000Y-63685000D01*
X123302733Y-63585000D01*
X134172760Y-63585000D01*
X137743880Y-67156120D01*
X138274312Y-67510543D01*
X138900000Y-67635001D01*
X138900005Y-67635000D01*
X140006907Y-67635000D01*
X140208000Y-67675000D01*
X140833687Y-67550543D01*
X141364120Y-67196120D01*
X141444666Y-67075574D01*
X142125239Y-66395000D01*
X148232761Y-66395000D01*
X148688878Y-66851117D01*
X148688880Y-66851120D01*
X149583878Y-67746117D01*
X149583880Y-67746120D01*
X150443878Y-68606117D01*
X150443880Y-68606120D01*
X150952760Y-69115000D01*
X143243880Y-76823880D01*
X142889457Y-77354312D01*
X142764999Y-77980000D01*
X142765000Y-77980005D01*
X142765000Y-106399995D01*
X142764999Y-106400000D01*
X142889457Y-107025688D01*
X143243880Y-107556120D01*
X145345776Y-109658016D01*
X145655880Y-110122120D01*
X146417878Y-110884117D01*
X146417880Y-110884120D01*
X147433880Y-111900120D01*
X155561878Y-120028117D01*
X155561880Y-120028120D01*
X155723285Y-120135967D01*
X156092312Y-120382543D01*
X156718000Y-120507001D01*
X156718005Y-120507000D01*
X157782662Y-120507000D01*
X157811190Y-120518846D01*
X157987996Y-120519000D01*
X157988000Y-120519001D01*
X157988004Y-120519000D01*
X158163265Y-120519153D01*
X158192678Y-120507000D01*
X158750000Y-120507000D01*
X159375687Y-120382543D01*
X159906120Y-120028120D01*
X160260543Y-119497687D01*
X160385000Y-118872000D01*
X160260543Y-118246313D01*
X159906120Y-117715880D01*
X159375687Y-117361457D01*
X158750000Y-117237000D01*
X157395239Y-117237000D01*
X151139440Y-110981200D01*
X164452939Y-110981200D01*
X164615446Y-111798179D01*
X165078228Y-112490781D01*
X165770830Y-112953563D01*
X165808872Y-112961130D01*
X165770830Y-112968697D01*
X165078228Y-113431479D01*
X164615446Y-114124081D01*
X164452939Y-114941060D01*
X164615446Y-115758039D01*
X165078228Y-116450641D01*
X165770830Y-116913423D01*
X166587809Y-117075930D01*
X168712191Y-117075930D01*
X169529170Y-116913423D01*
X170221772Y-116450641D01*
X170684554Y-115758039D01*
X170847061Y-114941060D01*
X170684554Y-114124081D01*
X170221772Y-113431479D01*
X169529170Y-112968697D01*
X169491128Y-112961130D01*
X169529170Y-112953563D01*
X170221772Y-112490781D01*
X170684554Y-111798179D01*
X170847061Y-110981200D01*
X170684554Y-110164221D01*
X170221772Y-109471619D01*
X169529170Y-109008837D01*
X169416972Y-108986519D01*
X169585072Y-108942562D01*
X170250144Y-108438579D01*
X170671724Y-107718447D01*
X170735745Y-107477612D01*
X170622795Y-107145800D01*
X167777000Y-107145800D01*
X167777000Y-107165800D01*
X167523000Y-107165800D01*
X167523000Y-107145800D01*
X164677205Y-107145800D01*
X164564255Y-107477612D01*
X164628276Y-107718447D01*
X165049856Y-108438579D01*
X165714928Y-108942562D01*
X165883028Y-108986519D01*
X165770830Y-109008837D01*
X165078228Y-109471619D01*
X164615446Y-110164221D01*
X164452939Y-110981200D01*
X151139440Y-110981200D01*
X149746120Y-109587880D01*
X148730120Y-108571880D01*
X148730117Y-108571878D01*
X148278225Y-108119985D01*
X147968120Y-107655880D01*
X146486525Y-106174285D01*
X157164760Y-106174285D01*
X157375169Y-106683515D01*
X157764436Y-107073461D01*
X158273298Y-107284759D01*
X158824285Y-107285240D01*
X159333515Y-107074831D01*
X159723461Y-106685564D01*
X159934759Y-106176702D01*
X159935240Y-105625715D01*
X159724831Y-105116485D01*
X159335564Y-104726539D01*
X158826702Y-104515241D01*
X158275715Y-104514760D01*
X157766485Y-104725169D01*
X157376539Y-105114436D01*
X157165241Y-105623298D01*
X157164760Y-106174285D01*
X146486525Y-106174285D01*
X146035000Y-105722760D01*
X146035000Y-103517752D01*
X164564255Y-103517752D01*
X164628276Y-103758587D01*
X165049856Y-104478719D01*
X165714928Y-104982702D01*
X165929724Y-105038870D01*
X165714928Y-105095038D01*
X165049856Y-105599021D01*
X164628276Y-106319153D01*
X164564255Y-106559988D01*
X164677205Y-106891800D01*
X167523000Y-106891800D01*
X167523000Y-103185940D01*
X167777000Y-103185940D01*
X167777000Y-106891800D01*
X170622795Y-106891800D01*
X170735745Y-106559988D01*
X170671724Y-106319153D01*
X170250144Y-105599021D01*
X169585072Y-105095038D01*
X169370276Y-105038870D01*
X169585072Y-104982702D01*
X170250144Y-104478719D01*
X170671724Y-103758587D01*
X170735745Y-103517752D01*
X170622795Y-103185940D01*
X167777000Y-103185940D01*
X167523000Y-103185940D01*
X164677205Y-103185940D01*
X164564255Y-103517752D01*
X146035000Y-103517752D01*
X146035000Y-102600128D01*
X164564255Y-102600128D01*
X164677205Y-102931940D01*
X167523000Y-102931940D01*
X167523000Y-100924070D01*
X167777000Y-100924070D01*
X167777000Y-102931940D01*
X170622795Y-102931940D01*
X170735745Y-102600128D01*
X170671724Y-102359293D01*
X170250144Y-101639161D01*
X169585072Y-101135178D01*
X168777760Y-100924070D01*
X167777000Y-100924070D01*
X167523000Y-100924070D01*
X166522240Y-100924070D01*
X165714928Y-101135178D01*
X165049856Y-101639161D01*
X164628276Y-102359293D01*
X164564255Y-102600128D01*
X146035000Y-102600128D01*
X146035000Y-98950000D01*
X155702560Y-98950000D01*
X155702560Y-100650000D01*
X155746838Y-100885317D01*
X155885910Y-101101441D01*
X156098110Y-101246431D01*
X156350000Y-101297440D01*
X158050000Y-101297440D01*
X158285317Y-101253162D01*
X158501441Y-101114090D01*
X158646431Y-100901890D01*
X158668301Y-100793893D01*
X158973076Y-101071645D01*
X159383110Y-101241476D01*
X159613000Y-101120155D01*
X159613000Y-99927000D01*
X159867000Y-99927000D01*
X159867000Y-101120155D01*
X160096890Y-101241476D01*
X160506924Y-101071645D01*
X160935183Y-100681358D01*
X161181486Y-100156892D01*
X161060819Y-99927000D01*
X159867000Y-99927000D01*
X159613000Y-99927000D01*
X159593000Y-99927000D01*
X159593000Y-99673000D01*
X159613000Y-99673000D01*
X159613000Y-98479845D01*
X159867000Y-98479845D01*
X159867000Y-99673000D01*
X161060819Y-99673000D01*
X161181486Y-99443108D01*
X160935183Y-98918642D01*
X160506924Y-98528355D01*
X160096890Y-98358524D01*
X159867000Y-98479845D01*
X159613000Y-98479845D01*
X159383110Y-98358524D01*
X158973076Y-98528355D01*
X158670063Y-98804501D01*
X158653162Y-98714683D01*
X158514090Y-98498559D01*
X158301890Y-98353569D01*
X158050000Y-98302560D01*
X156350000Y-98302560D01*
X156114683Y-98346838D01*
X155898559Y-98485910D01*
X155753569Y-98698110D01*
X155702560Y-98950000D01*
X146035000Y-98950000D01*
X146035000Y-94670907D01*
X155675000Y-94670907D01*
X155675000Y-94729093D01*
X155788039Y-95297378D01*
X156109946Y-95779147D01*
X156591715Y-96101054D01*
X157160000Y-96214093D01*
X157728285Y-96101054D01*
X158210054Y-95779147D01*
X158237850Y-95737548D01*
X158246838Y-95785317D01*
X158385910Y-96001441D01*
X158598110Y-96146431D01*
X158850000Y-96197440D01*
X160550000Y-96197440D01*
X160785317Y-96153162D01*
X161001441Y-96014090D01*
X161047356Y-95946890D01*
X169258524Y-95946890D01*
X169428355Y-96356924D01*
X169818642Y-96785183D01*
X170343108Y-97031486D01*
X170573000Y-96910819D01*
X170573000Y-95717000D01*
X170827000Y-95717000D01*
X170827000Y-96910819D01*
X171056892Y-97031486D01*
X171581358Y-96785183D01*
X171971645Y-96356924D01*
X172141476Y-95946890D01*
X172020155Y-95717000D01*
X170827000Y-95717000D01*
X170573000Y-95717000D01*
X169379845Y-95717000D01*
X169258524Y-95946890D01*
X161047356Y-95946890D01*
X161146431Y-95801890D01*
X161197440Y-95550000D01*
X161197440Y-93850000D01*
X161153162Y-93614683D01*
X161014090Y-93398559D01*
X160801890Y-93253569D01*
X160550000Y-93202560D01*
X158850000Y-93202560D01*
X158614683Y-93246838D01*
X158398559Y-93385910D01*
X158253569Y-93598110D01*
X158239914Y-93665541D01*
X158210054Y-93620853D01*
X157728285Y-93298946D01*
X157160000Y-93185907D01*
X156591715Y-93298946D01*
X156109946Y-93620853D01*
X155788039Y-94102622D01*
X155675000Y-94670907D01*
X146035000Y-94670907D01*
X146035000Y-92730285D01*
X163206760Y-92730285D01*
X163417169Y-93239515D01*
X163806436Y-93629461D01*
X164315298Y-93840759D01*
X164866285Y-93841240D01*
X165375515Y-93630831D01*
X165765461Y-93241564D01*
X165976759Y-92732702D01*
X165977224Y-92200000D01*
X169202560Y-92200000D01*
X169202560Y-93900000D01*
X169246838Y-94135317D01*
X169385910Y-94351441D01*
X169598110Y-94496431D01*
X169706107Y-94518301D01*
X169428355Y-94823076D01*
X169258524Y-95233110D01*
X169379845Y-95463000D01*
X170573000Y-95463000D01*
X170573000Y-95443000D01*
X170827000Y-95443000D01*
X170827000Y-95463000D01*
X172020155Y-95463000D01*
X172141476Y-95233110D01*
X171971645Y-94823076D01*
X171695499Y-94520063D01*
X171785317Y-94503162D01*
X172001441Y-94364090D01*
X172146431Y-94151890D01*
X172197440Y-93900000D01*
X172197440Y-92200000D01*
X172153162Y-91964683D01*
X172014090Y-91748559D01*
X171801890Y-91603569D01*
X171550000Y-91552560D01*
X169850000Y-91552560D01*
X169614683Y-91596838D01*
X169398559Y-91735910D01*
X169253569Y-91948110D01*
X169202560Y-92200000D01*
X165977224Y-92200000D01*
X165977240Y-92181715D01*
X165766831Y-91672485D01*
X165377564Y-91282539D01*
X164868702Y-91071241D01*
X164317715Y-91070760D01*
X163808485Y-91281169D01*
X163418539Y-91670436D01*
X163207241Y-92179298D01*
X163206760Y-92730285D01*
X146035000Y-92730285D01*
X146035000Y-88412285D01*
X158380760Y-88412285D01*
X158591169Y-88921515D01*
X158980436Y-89311461D01*
X159489298Y-89522759D01*
X160040285Y-89523240D01*
X160549515Y-89312831D01*
X160939461Y-88923564D01*
X161150759Y-88414702D01*
X161151240Y-87863715D01*
X160940831Y-87354485D01*
X160551564Y-86964539D01*
X160042702Y-86753241D01*
X159491715Y-86752760D01*
X158982485Y-86963169D01*
X158592539Y-87352436D01*
X158381241Y-87861298D01*
X158380760Y-88412285D01*
X146035000Y-88412285D01*
X146035000Y-82010000D01*
X158235907Y-82010000D01*
X158348946Y-82578285D01*
X158670853Y-83060054D01*
X158712452Y-83087850D01*
X158664683Y-83096838D01*
X158448559Y-83235910D01*
X158303569Y-83448110D01*
X158252560Y-83700000D01*
X158252560Y-85400000D01*
X158296838Y-85635317D01*
X158435910Y-85851441D01*
X158648110Y-85996431D01*
X158900000Y-86047440D01*
X160600000Y-86047440D01*
X160835317Y-86003162D01*
X161051441Y-85864090D01*
X161196431Y-85651890D01*
X161247440Y-85400000D01*
X161247440Y-83700000D01*
X161203162Y-83464683D01*
X161064090Y-83248559D01*
X160851890Y-83103569D01*
X160784459Y-83089914D01*
X160829147Y-83060054D01*
X161048879Y-82731200D01*
X164302939Y-82731200D01*
X164465446Y-83548179D01*
X164928228Y-84240781D01*
X165620830Y-84703563D01*
X165658872Y-84711130D01*
X165620830Y-84718697D01*
X164928228Y-85181479D01*
X164465446Y-85874081D01*
X164302939Y-86691060D01*
X164465446Y-87508039D01*
X164928228Y-88200641D01*
X165620830Y-88663423D01*
X166437809Y-88825930D01*
X168562191Y-88825930D01*
X169379170Y-88663423D01*
X170071772Y-88200641D01*
X170534554Y-87508039D01*
X170697061Y-86691060D01*
X170534554Y-85874081D01*
X170071772Y-85181479D01*
X169379170Y-84718697D01*
X169341128Y-84711130D01*
X169379170Y-84703563D01*
X170071772Y-84240781D01*
X170534554Y-83548179D01*
X170697061Y-82731200D01*
X170534554Y-81914221D01*
X170071772Y-81221619D01*
X169379170Y-80758837D01*
X169266972Y-80736519D01*
X169435072Y-80692562D01*
X170100144Y-80188579D01*
X170521724Y-79468447D01*
X170585745Y-79227612D01*
X170472795Y-78895800D01*
X167627000Y-78895800D01*
X167627000Y-78915800D01*
X167373000Y-78915800D01*
X167373000Y-78895800D01*
X164527205Y-78895800D01*
X164414255Y-79227612D01*
X164478276Y-79468447D01*
X164899856Y-80188579D01*
X165564928Y-80692562D01*
X165733028Y-80736519D01*
X165620830Y-80758837D01*
X164928228Y-81221619D01*
X164465446Y-81914221D01*
X164302939Y-82731200D01*
X161048879Y-82731200D01*
X161151054Y-82578285D01*
X161264093Y-82010000D01*
X161151054Y-81441715D01*
X160829147Y-80959946D01*
X160347378Y-80638039D01*
X159779093Y-80525000D01*
X159720907Y-80525000D01*
X159152622Y-80638039D01*
X158670853Y-80959946D01*
X158348946Y-81441715D01*
X158235907Y-82010000D01*
X146035000Y-82010000D01*
X146035000Y-78657240D01*
X149424488Y-75267752D01*
X164414255Y-75267752D01*
X164478276Y-75508587D01*
X164899856Y-76228719D01*
X165564928Y-76732702D01*
X165779724Y-76788870D01*
X165564928Y-76845038D01*
X164899856Y-77349021D01*
X164478276Y-78069153D01*
X164414255Y-78309988D01*
X164527205Y-78641800D01*
X167373000Y-78641800D01*
X167373000Y-74935940D01*
X167627000Y-74935940D01*
X167627000Y-78641800D01*
X170472795Y-78641800D01*
X170585745Y-78309988D01*
X170521724Y-78069153D01*
X170100144Y-77349021D01*
X169435072Y-76845038D01*
X169220276Y-76788870D01*
X169435072Y-76732702D01*
X170100144Y-76228719D01*
X170521724Y-75508587D01*
X170585745Y-75267752D01*
X170472795Y-74935940D01*
X167627000Y-74935940D01*
X167373000Y-74935940D01*
X164527205Y-74935940D01*
X164414255Y-75267752D01*
X149424488Y-75267752D01*
X150342112Y-74350128D01*
X164414255Y-74350128D01*
X164527205Y-74681940D01*
X167373000Y-74681940D01*
X167373000Y-72674070D01*
X167627000Y-72674070D01*
X167627000Y-74681940D01*
X170472795Y-74681940D01*
X170585745Y-74350128D01*
X170521724Y-74109293D01*
X170100144Y-73389161D01*
X169435072Y-72885178D01*
X168627760Y-72674070D01*
X167627000Y-72674070D01*
X167373000Y-72674070D01*
X166372240Y-72674070D01*
X165564928Y-72885178D01*
X164899856Y-73389161D01*
X164478276Y-74109293D01*
X164414255Y-74350128D01*
X150342112Y-74350128D01*
X153857240Y-70835000D01*
X156910000Y-70835000D01*
X157535687Y-70710543D01*
X158049531Y-70367204D01*
X158135910Y-70501441D01*
X158348110Y-70646431D01*
X158600000Y-70697440D01*
X160300000Y-70697440D01*
X160535317Y-70653162D01*
X160751441Y-70514090D01*
X160896431Y-70301890D01*
X160947440Y-70050000D01*
X160947440Y-68350000D01*
X160903162Y-68114683D01*
X160764090Y-67898559D01*
X160551890Y-67753569D01*
X160300000Y-67702560D01*
X158600000Y-67702560D01*
X158364683Y-67746838D01*
X158148559Y-67885910D01*
X158048615Y-68032183D01*
X157535687Y-67689457D01*
X156910000Y-67565000D01*
X154027239Y-67565000D01*
X152756120Y-66293880D01*
X152756117Y-66293878D01*
X151896120Y-65433880D01*
X151896117Y-65433878D01*
X151001120Y-64538880D01*
X151001117Y-64538878D01*
X150066120Y-63603880D01*
X149535688Y-63249457D01*
X148910000Y-63124999D01*
X148909995Y-63125000D01*
X141448005Y-63125000D01*
X141448000Y-63124999D01*
X140822312Y-63249457D01*
X140557097Y-63426668D01*
X140291880Y-63603880D01*
X140291878Y-63603883D01*
X139554000Y-64341760D01*
X136006120Y-60793880D01*
X135475688Y-60439457D01*
X134850000Y-60314999D01*
X134849995Y-60315000D01*
X122800000Y-60315000D01*
X122297267Y-60415000D01*
X117782005Y-60415000D01*
X117782000Y-60414999D01*
X117156313Y-60539457D01*
X116625880Y-60893880D01*
X116625878Y-60893883D01*
X112127880Y-65391880D01*
X112127878Y-65391883D01*
X110857880Y-66661880D01*
X110857878Y-66661883D01*
X109587880Y-67931880D01*
X109587878Y-67931883D01*
X99231138Y-78288623D01*
X98953880Y-78473880D01*
X97141880Y-80285880D01*
X96956621Y-80563140D01*
X95463880Y-82055880D01*
X91016760Y-86503000D01*
X85598005Y-86503000D01*
X85598000Y-86502999D01*
X84972313Y-86627457D01*
X84441880Y-86981880D01*
X84441878Y-86981883D01*
X82663880Y-88759880D01*
X82309457Y-89290312D01*
X82184999Y-89916000D01*
X75057000Y-89916000D01*
X75057000Y-77610000D01*
X91185907Y-77610000D01*
X91298946Y-78178285D01*
X91620853Y-78660054D01*
X91662452Y-78687850D01*
X91614683Y-78696838D01*
X91398559Y-78835910D01*
X91253569Y-79048110D01*
X91202560Y-79300000D01*
X91202560Y-81000000D01*
X91246838Y-81235317D01*
X91385910Y-81451441D01*
X91598110Y-81596431D01*
X91850000Y-81647440D01*
X93550000Y-81647440D01*
X93785317Y-81603162D01*
X94001441Y-81464090D01*
X94146431Y-81251890D01*
X94197440Y-81000000D01*
X94197440Y-79300000D01*
X94153162Y-79064683D01*
X94014090Y-78848559D01*
X93801890Y-78703569D01*
X93734459Y-78689914D01*
X93779147Y-78660054D01*
X94101054Y-78178285D01*
X94214093Y-77610000D01*
X94101054Y-77041715D01*
X93779147Y-76559946D01*
X93297378Y-76238039D01*
X92729093Y-76125000D01*
X92670907Y-76125000D01*
X92102622Y-76238039D01*
X91620853Y-76559946D01*
X91298946Y-77041715D01*
X91185907Y-77610000D01*
X75057000Y-77610000D01*
X75057000Y-72829167D01*
X87964838Y-72829167D01*
X88106883Y-73172943D01*
X88369673Y-73436192D01*
X88611910Y-73536778D01*
X89325566Y-74250434D01*
X89596459Y-74431439D01*
X89916000Y-74495000D01*
X97028000Y-74495000D01*
X97347541Y-74431439D01*
X97618434Y-74250434D01*
X99055500Y-72813368D01*
X99284907Y-72859000D01*
X99343093Y-72859000D01*
X99911378Y-72745961D01*
X100393147Y-72424054D01*
X100584000Y-72138422D01*
X100774853Y-72424054D01*
X101256622Y-72745961D01*
X101824907Y-72859000D01*
X101883093Y-72859000D01*
X102451378Y-72745961D01*
X102933147Y-72424054D01*
X103043432Y-72259000D01*
X103123995Y-72259000D01*
X103124000Y-72259001D01*
X103412869Y-72201540D01*
X103462675Y-72191633D01*
X103749790Y-71999790D01*
X121332577Y-54417002D01*
X157813422Y-54417002D01*
X159632208Y-56235787D01*
X159632210Y-56235790D01*
X159919325Y-56427633D01*
X159975516Y-56438810D01*
X160258000Y-56495001D01*
X160258005Y-56495000D01*
X168438874Y-56495000D01*
X168555585Y-56669670D01*
X168569913Y-56679243D01*
X168548683Y-56683238D01*
X168332559Y-56822310D01*
X168187569Y-57034510D01*
X168136560Y-57286400D01*
X168136560Y-59013600D01*
X168180838Y-59248917D01*
X168319910Y-59465041D01*
X168532110Y-59610031D01*
X168784000Y-59661040D01*
X170816000Y-59661040D01*
X171051317Y-59616762D01*
X171267441Y-59477690D01*
X171412431Y-59265490D01*
X171463440Y-59013600D01*
X171463440Y-57286400D01*
X171419162Y-57051083D01*
X171280090Y-56834959D01*
X171067890Y-56689969D01*
X171026561Y-56681600D01*
X171044415Y-56669670D01*
X171369271Y-56183489D01*
X171483345Y-55610000D01*
X171369271Y-55036511D01*
X171044415Y-54550330D01*
X170729634Y-54340000D01*
X171044415Y-54129670D01*
X171369271Y-53643489D01*
X171483345Y-53070000D01*
X171369271Y-52496511D01*
X171044415Y-52010330D01*
X170729634Y-51800000D01*
X171044415Y-51589670D01*
X171369271Y-51103489D01*
X171483345Y-50530000D01*
X171369271Y-49956511D01*
X171044415Y-49470330D01*
X170558234Y-49145474D01*
X169984745Y-49031400D01*
X169615255Y-49031400D01*
X169041766Y-49145474D01*
X168555585Y-49470330D01*
X168438874Y-49645000D01*
X154702005Y-49645000D01*
X154702000Y-49644999D01*
X154419516Y-49701190D01*
X154363325Y-49712367D01*
X154076210Y-49904210D01*
X154076208Y-49904213D01*
X152033420Y-51947000D01*
X151904580Y-51947000D01*
X159904139Y-43947440D01*
X161000000Y-43947440D01*
X161235317Y-43903162D01*
X161451441Y-43764090D01*
X161454589Y-43759482D01*
X165364336Y-43759482D01*
X165946950Y-45169515D01*
X167024811Y-46249259D01*
X168433825Y-46834333D01*
X169959482Y-46835664D01*
X171369515Y-46253050D01*
X172449259Y-45175189D01*
X173034333Y-43766175D01*
X173035664Y-42240518D01*
X172453050Y-40830485D01*
X171375189Y-39750741D01*
X169966175Y-39165667D01*
X168440518Y-39164336D01*
X167030485Y-39746950D01*
X165950741Y-40824811D01*
X165365667Y-42233825D01*
X165364336Y-43759482D01*
X161454589Y-43759482D01*
X161596431Y-43551890D01*
X161647440Y-43300000D01*
X161647440Y-41600000D01*
X161603162Y-41364683D01*
X161464090Y-41148559D01*
X161251890Y-41003569D01*
X161000000Y-40952560D01*
X159300000Y-40952560D01*
X159064683Y-40996838D01*
X158848559Y-41135910D01*
X158703569Y-41348110D01*
X158689914Y-41415541D01*
X158660054Y-41370853D01*
X158178285Y-41048946D01*
X157610000Y-40935907D01*
X157041715Y-41048946D01*
X156559946Y-41370853D01*
X156340000Y-41700026D01*
X156120054Y-41370853D01*
X155638285Y-41048946D01*
X155070000Y-40935907D01*
X154501715Y-41048946D01*
X154019946Y-41370853D01*
X153800000Y-41700026D01*
X153580054Y-41370853D01*
X153098285Y-41048946D01*
X152530000Y-40935907D01*
X151961715Y-41048946D01*
X151479946Y-41370853D01*
X151158039Y-41852622D01*
X151045000Y-42420907D01*
X151045000Y-42479093D01*
X151158039Y-43047378D01*
X151479946Y-43529147D01*
X151961715Y-43851054D01*
X152530000Y-43964093D01*
X153098285Y-43851054D01*
X153580054Y-43529147D01*
X153800000Y-43199974D01*
X154019946Y-43529147D01*
X154501715Y-43851054D01*
X155070000Y-43964093D01*
X155638285Y-43851054D01*
X156120054Y-43529147D01*
X156340000Y-43199974D01*
X156559946Y-43529147D01*
X157041715Y-43851054D01*
X157421769Y-43926652D01*
X150417420Y-50931000D01*
X119888005Y-50931000D01*
X119888000Y-50930999D01*
X119605516Y-50987190D01*
X119549325Y-50998367D01*
X119262210Y-51190210D01*
X119262208Y-51190213D01*
X105043420Y-65409000D01*
X103043432Y-65409000D01*
X102933147Y-65243946D01*
X102451378Y-64922039D01*
X101883093Y-64809000D01*
X101824907Y-64809000D01*
X101256622Y-64922039D01*
X100774853Y-65243946D01*
X100774029Y-65245179D01*
X100767162Y-65208683D01*
X100628090Y-64992559D01*
X100415890Y-64847569D01*
X100164000Y-64796560D01*
X98464000Y-64796560D01*
X98228683Y-64840838D01*
X98012559Y-64979910D01*
X97867569Y-65192110D01*
X97816560Y-65444000D01*
X97816560Y-65459000D01*
X97282000Y-65459000D01*
X96962460Y-65522560D01*
X96691566Y-65703566D01*
X95929566Y-66465566D01*
X95748561Y-66736459D01*
X95685000Y-67056000D01*
X95685000Y-70012132D01*
X94650132Y-71047000D01*
X91023868Y-71047000D01*
X90808535Y-70831667D01*
X90709117Y-70591057D01*
X90446327Y-70327808D01*
X90102799Y-70185162D01*
X89730833Y-70184838D01*
X89387057Y-70326883D01*
X89123808Y-70589673D01*
X88981162Y-70933201D01*
X88981063Y-71046735D01*
X88879057Y-71088883D01*
X88615808Y-71351673D01*
X88473162Y-71695201D01*
X88473063Y-71808735D01*
X88371057Y-71850883D01*
X88107808Y-72113673D01*
X87965162Y-72457201D01*
X87964838Y-72829167D01*
X75057000Y-72829167D01*
X75057000Y-67760000D01*
X77385907Y-67760000D01*
X77498946Y-68328285D01*
X77820853Y-68810054D01*
X77862452Y-68837850D01*
X77814683Y-68846838D01*
X77598559Y-68985910D01*
X77453569Y-69198110D01*
X77402560Y-69450000D01*
X77402560Y-71150000D01*
X77446838Y-71385317D01*
X77585910Y-71601441D01*
X77798110Y-71746431D01*
X78050000Y-71797440D01*
X79750000Y-71797440D01*
X79985317Y-71753162D01*
X80201441Y-71614090D01*
X80346431Y-71401890D01*
X80397440Y-71150000D01*
X80397440Y-69450000D01*
X80353162Y-69214683D01*
X80214090Y-68998559D01*
X80001890Y-68853569D01*
X79934459Y-68839914D01*
X79979147Y-68810054D01*
X80301054Y-68328285D01*
X80414093Y-67760000D01*
X80301054Y-67191715D01*
X80120107Y-66920907D01*
X81625000Y-66920907D01*
X81625000Y-66979093D01*
X81738039Y-67547378D01*
X82059946Y-68029147D01*
X82541715Y-68351054D01*
X83110000Y-68464093D01*
X83678285Y-68351054D01*
X84160054Y-68029147D01*
X84187850Y-67987548D01*
X84196838Y-68035317D01*
X84335910Y-68251441D01*
X84548110Y-68396431D01*
X84800000Y-68447440D01*
X86500000Y-68447440D01*
X86735317Y-68403162D01*
X86951441Y-68264090D01*
X87096431Y-68051890D01*
X87147440Y-67800000D01*
X87147440Y-66100000D01*
X87103162Y-65864683D01*
X86964090Y-65648559D01*
X86751890Y-65503569D01*
X86500000Y-65452560D01*
X84800000Y-65452560D01*
X84564683Y-65496838D01*
X84348559Y-65635910D01*
X84203569Y-65848110D01*
X84189914Y-65915541D01*
X84160054Y-65870853D01*
X83678285Y-65548946D01*
X83110000Y-65435907D01*
X82541715Y-65548946D01*
X82059946Y-65870853D01*
X81738039Y-66352622D01*
X81625000Y-66920907D01*
X80120107Y-66920907D01*
X79979147Y-66709946D01*
X79497378Y-66388039D01*
X78929093Y-66275000D01*
X78870907Y-66275000D01*
X78302622Y-66388039D01*
X77820853Y-66709946D01*
X77498946Y-67191715D01*
X77385907Y-67760000D01*
X75057000Y-67760000D01*
X75057000Y-63020907D01*
X81625000Y-63020907D01*
X81625000Y-63079093D01*
X81738039Y-63647378D01*
X82059946Y-64129147D01*
X82541715Y-64451054D01*
X83110000Y-64564093D01*
X83678285Y-64451054D01*
X84160054Y-64129147D01*
X84187850Y-64087548D01*
X84196838Y-64135317D01*
X84335910Y-64351441D01*
X84548110Y-64496431D01*
X84800000Y-64547440D01*
X86500000Y-64547440D01*
X86735317Y-64503162D01*
X86951441Y-64364090D01*
X87096431Y-64151890D01*
X87147440Y-63900000D01*
X87147440Y-62200000D01*
X87103162Y-61964683D01*
X86964090Y-61748559D01*
X86751890Y-61603569D01*
X86500000Y-61552560D01*
X84800000Y-61552560D01*
X84564683Y-61596838D01*
X84348559Y-61735910D01*
X84203569Y-61948110D01*
X84189914Y-62015541D01*
X84160054Y-61970853D01*
X83678285Y-61648946D01*
X83110000Y-61535907D01*
X82541715Y-61648946D01*
X82059946Y-61970853D01*
X81738039Y-62452622D01*
X81625000Y-63020907D01*
X75057000Y-63020907D01*
X75057000Y-60174285D01*
X81864760Y-60174285D01*
X82075169Y-60683515D01*
X82464436Y-61073461D01*
X82973298Y-61284759D01*
X83524285Y-61285240D01*
X84033515Y-61074831D01*
X84423461Y-60685564D01*
X84634759Y-60176702D01*
X84635240Y-59625715D01*
X84424831Y-59116485D01*
X84035564Y-58726539D01*
X83526702Y-58515241D01*
X82975715Y-58514760D01*
X82466485Y-58725169D01*
X82076539Y-59114436D01*
X81865241Y-59623298D01*
X81864760Y-60174285D01*
X75057000Y-60174285D01*
X75057000Y-55200000D01*
X76052560Y-55200000D01*
X76052560Y-56900000D01*
X76096838Y-57135317D01*
X76235910Y-57351441D01*
X76448110Y-57496431D01*
X76700000Y-57547440D01*
X78400000Y-57547440D01*
X78635317Y-57503162D01*
X78851441Y-57364090D01*
X78996431Y-57151890D01*
X79010086Y-57084459D01*
X79039946Y-57129147D01*
X79521715Y-57451054D01*
X80090000Y-57564093D01*
X80658285Y-57451054D01*
X81140054Y-57129147D01*
X81452000Y-56662285D01*
X99198760Y-56662285D01*
X99409169Y-57171515D01*
X99798436Y-57561461D01*
X100307298Y-57772759D01*
X100858285Y-57773240D01*
X101367515Y-57562831D01*
X101757461Y-57173564D01*
X101968759Y-56664702D01*
X101969240Y-56113715D01*
X101758831Y-55604485D01*
X101369564Y-55214539D01*
X100860702Y-55003241D01*
X100309715Y-55002760D01*
X99800485Y-55213169D01*
X99410539Y-55602436D01*
X99199241Y-56111298D01*
X99198760Y-56662285D01*
X81452000Y-56662285D01*
X81461961Y-56647378D01*
X81575000Y-56079093D01*
X81575000Y-56020907D01*
X81461961Y-55452622D01*
X81140054Y-54970853D01*
X80658285Y-54648946D01*
X80090000Y-54535907D01*
X79521715Y-54648946D01*
X79039946Y-54970853D01*
X79012150Y-55012452D01*
X79003162Y-54964683D01*
X78864090Y-54748559D01*
X78651890Y-54603569D01*
X78400000Y-54552560D01*
X76700000Y-54552560D01*
X76464683Y-54596838D01*
X76248559Y-54735910D01*
X76103569Y-54948110D01*
X76052560Y-55200000D01*
X75057000Y-55200000D01*
X75057000Y-43759482D01*
X75364336Y-43759482D01*
X75946950Y-45169515D01*
X77024811Y-46249259D01*
X78433825Y-46834333D01*
X79959482Y-46835664D01*
X81369515Y-46253050D01*
X82449259Y-45175189D01*
X83034333Y-43766175D01*
X83034441Y-43641809D01*
X83364070Y-43641809D01*
X83364070Y-45766191D01*
X83526577Y-46583170D01*
X83989359Y-47275772D01*
X84681961Y-47738554D01*
X85498940Y-47901061D01*
X86315919Y-47738554D01*
X87008521Y-47275772D01*
X87471303Y-46583170D01*
X87478870Y-46545128D01*
X87486437Y-46583170D01*
X87949219Y-47275772D01*
X88641821Y-47738554D01*
X89458800Y-47901061D01*
X90275779Y-47738554D01*
X90968381Y-47275772D01*
X91431163Y-46583170D01*
X91453481Y-46470972D01*
X91497438Y-46639072D01*
X92001421Y-47304144D01*
X92721553Y-47725724D01*
X92962388Y-47789745D01*
X93294200Y-47676795D01*
X93294200Y-44831000D01*
X93548200Y-44831000D01*
X93548200Y-47676795D01*
X93880012Y-47789745D01*
X94120847Y-47725724D01*
X94840979Y-47304144D01*
X95344962Y-46639072D01*
X95401130Y-46424276D01*
X95457298Y-46639072D01*
X95961281Y-47304144D01*
X96681413Y-47725724D01*
X96922248Y-47789745D01*
X97254060Y-47676795D01*
X97254060Y-44831000D01*
X97508060Y-44831000D01*
X97508060Y-47676795D01*
X97839872Y-47789745D01*
X98080707Y-47725724D01*
X98800839Y-47304144D01*
X99304822Y-46639072D01*
X99515930Y-45831760D01*
X99515930Y-44831000D01*
X97508060Y-44831000D01*
X97254060Y-44831000D01*
X93548200Y-44831000D01*
X93294200Y-44831000D01*
X93274200Y-44831000D01*
X93274200Y-44577000D01*
X93294200Y-44577000D01*
X93294200Y-41731205D01*
X93548200Y-41731205D01*
X93548200Y-44577000D01*
X97254060Y-44577000D01*
X97254060Y-41731205D01*
X97508060Y-41731205D01*
X97508060Y-44577000D01*
X99515930Y-44577000D01*
X99515930Y-43576240D01*
X99304822Y-42768928D01*
X98800839Y-42103856D01*
X98080707Y-41682276D01*
X97839872Y-41618255D01*
X97508060Y-41731205D01*
X97254060Y-41731205D01*
X96922248Y-41618255D01*
X96681413Y-41682276D01*
X95961281Y-42103856D01*
X95457298Y-42768928D01*
X95401130Y-42983724D01*
X95344962Y-42768928D01*
X94840979Y-42103856D01*
X94120847Y-41682276D01*
X93880012Y-41618255D01*
X93548200Y-41731205D01*
X93294200Y-41731205D01*
X92962388Y-41618255D01*
X92721553Y-41682276D01*
X92001421Y-42103856D01*
X91497438Y-42768928D01*
X91453481Y-42937028D01*
X91431163Y-42824830D01*
X90968381Y-42132228D01*
X90275779Y-41669446D01*
X89458800Y-41506939D01*
X88641821Y-41669446D01*
X87949219Y-42132228D01*
X87486437Y-42824830D01*
X87478870Y-42862872D01*
X87471303Y-42824830D01*
X87008521Y-42132228D01*
X86315919Y-41669446D01*
X85498940Y-41506939D01*
X84681961Y-41669446D01*
X83989359Y-42132228D01*
X83526577Y-42824830D01*
X83364070Y-43641809D01*
X83034441Y-43641809D01*
X83035664Y-42240518D01*
X82677175Y-41372907D01*
X100369000Y-41372907D01*
X100369000Y-41431093D01*
X100482039Y-41999378D01*
X100803946Y-42481147D01*
X101285715Y-42803054D01*
X101854000Y-42916093D01*
X102422285Y-42803054D01*
X102904054Y-42481147D01*
X103124000Y-42151974D01*
X103343946Y-42481147D01*
X103825715Y-42803054D01*
X104394000Y-42916093D01*
X104962285Y-42803054D01*
X105444054Y-42481147D01*
X105471850Y-42439548D01*
X105480838Y-42487317D01*
X105619910Y-42703441D01*
X105832110Y-42848431D01*
X106084000Y-42899440D01*
X107784000Y-42899440D01*
X108019317Y-42855162D01*
X108235441Y-42716090D01*
X108380431Y-42503890D01*
X108431440Y-42252000D01*
X108431440Y-40552000D01*
X108390421Y-40334000D01*
X111088960Y-40334000D01*
X111088960Y-42366000D01*
X111133238Y-42601317D01*
X111272310Y-42817441D01*
X111484510Y-42962431D01*
X111736400Y-43013440D01*
X113463600Y-43013440D01*
X113698917Y-42969162D01*
X113915041Y-42830090D01*
X114060031Y-42617890D01*
X114068400Y-42576561D01*
X114080330Y-42594415D01*
X114566511Y-42919271D01*
X115140000Y-43033345D01*
X115713489Y-42919271D01*
X116199670Y-42594415D01*
X116406461Y-42284931D01*
X116777964Y-42700732D01*
X117305209Y-42954709D01*
X117320974Y-42957358D01*
X117553000Y-42836217D01*
X117553000Y-41477000D01*
X117807000Y-41477000D01*
X117807000Y-42836217D01*
X118039026Y-42957358D01*
X118054791Y-42954709D01*
X118582036Y-42700732D01*
X118971954Y-42264320D01*
X119165184Y-41711913D01*
X119020924Y-41477000D01*
X117807000Y-41477000D01*
X117553000Y-41477000D01*
X117533000Y-41477000D01*
X117533000Y-41223000D01*
X117553000Y-41223000D01*
X117553000Y-39863783D01*
X117807000Y-39863783D01*
X117807000Y-41223000D01*
X119020924Y-41223000D01*
X119165184Y-40988087D01*
X118971954Y-40435680D01*
X118949010Y-40410000D01*
X123132041Y-40410000D01*
X123246115Y-40983489D01*
X123570971Y-41469670D01*
X123885752Y-41680000D01*
X123570971Y-41890330D01*
X123246115Y-42376511D01*
X123132041Y-42950000D01*
X123246115Y-43523489D01*
X123570971Y-44009670D01*
X124057152Y-44334526D01*
X124630641Y-44448600D01*
X124689359Y-44448600D01*
X125262848Y-44334526D01*
X125728442Y-44023426D01*
X125733238Y-44048917D01*
X125872310Y-44265041D01*
X126084510Y-44410031D01*
X126336400Y-44461040D01*
X128063600Y-44461040D01*
X128298917Y-44416762D01*
X128515041Y-44277690D01*
X128660031Y-44065490D01*
X128711040Y-43813600D01*
X128711040Y-43690000D01*
X136572041Y-43690000D01*
X136686115Y-44263489D01*
X137010971Y-44749670D01*
X137497152Y-45074526D01*
X138070641Y-45188600D01*
X138129359Y-45188600D01*
X138702848Y-45074526D01*
X139189029Y-44749670D01*
X139370000Y-44478828D01*
X139550971Y-44749670D01*
X140037152Y-45074526D01*
X140610641Y-45188600D01*
X140669359Y-45188600D01*
X141242848Y-45074526D01*
X141729029Y-44749670D01*
X141910000Y-44478828D01*
X142090971Y-44749670D01*
X142577152Y-45074526D01*
X143150641Y-45188600D01*
X143209359Y-45188600D01*
X143782848Y-45074526D01*
X144269029Y-44749670D01*
X144450000Y-44478828D01*
X144630971Y-44749670D01*
X145117152Y-45074526D01*
X145690641Y-45188600D01*
X145749359Y-45188600D01*
X146322848Y-45074526D01*
X146809029Y-44749670D01*
X147133885Y-44263489D01*
X147247959Y-43690000D01*
X147133885Y-43116511D01*
X146809029Y-42630330D01*
X146494248Y-42420000D01*
X146809029Y-42209670D01*
X147133885Y-41723489D01*
X147247959Y-41150000D01*
X147133885Y-40576511D01*
X146809029Y-40090330D01*
X146322848Y-39765474D01*
X145749359Y-39651400D01*
X145690641Y-39651400D01*
X145117152Y-39765474D01*
X144630971Y-40090330D01*
X144450000Y-40361172D01*
X144269029Y-40090330D01*
X143782848Y-39765474D01*
X143209359Y-39651400D01*
X143150641Y-39651400D01*
X142577152Y-39765474D01*
X142090971Y-40090330D01*
X141910000Y-40361172D01*
X141729029Y-40090330D01*
X141242848Y-39765474D01*
X140669359Y-39651400D01*
X140610641Y-39651400D01*
X140037152Y-39765474D01*
X139571558Y-40076574D01*
X139566762Y-40051083D01*
X139427690Y-39834959D01*
X139215490Y-39689969D01*
X138963600Y-39638960D01*
X137236400Y-39638960D01*
X137001083Y-39683238D01*
X136784959Y-39822310D01*
X136639969Y-40034510D01*
X136588960Y-40286400D01*
X136588960Y-42013600D01*
X136633238Y-42248917D01*
X136772310Y-42465041D01*
X136984510Y-42610031D01*
X137028131Y-42618864D01*
X137010971Y-42630330D01*
X136686115Y-43116511D01*
X136572041Y-43690000D01*
X128711040Y-43690000D01*
X128711040Y-42086400D01*
X128666762Y-41851083D01*
X128527690Y-41634959D01*
X128315490Y-41489969D01*
X128271869Y-41481136D01*
X128289029Y-41469670D01*
X128613885Y-40983489D01*
X128727959Y-40410000D01*
X128613885Y-39836511D01*
X128289029Y-39350330D01*
X127802848Y-39025474D01*
X127229359Y-38911400D01*
X127170641Y-38911400D01*
X126597152Y-39025474D01*
X126110971Y-39350330D01*
X125930000Y-39621172D01*
X125749029Y-39350330D01*
X125262848Y-39025474D01*
X124689359Y-38911400D01*
X124630641Y-38911400D01*
X124057152Y-39025474D01*
X123570971Y-39350330D01*
X123246115Y-39836511D01*
X123132041Y-40410000D01*
X118949010Y-40410000D01*
X118582036Y-39999268D01*
X118054791Y-39745291D01*
X118039026Y-39742642D01*
X117807000Y-39863783D01*
X117553000Y-39863783D01*
X117320974Y-39742642D01*
X117305209Y-39745291D01*
X116777964Y-39999268D01*
X116406461Y-40415069D01*
X116199670Y-40105585D01*
X115713489Y-39780729D01*
X115140000Y-39666655D01*
X114566511Y-39780729D01*
X114080330Y-40105585D01*
X114070757Y-40119913D01*
X114066762Y-40098683D01*
X113927690Y-39882559D01*
X113715490Y-39737569D01*
X113463600Y-39686560D01*
X111736400Y-39686560D01*
X111501083Y-39730838D01*
X111284959Y-39869910D01*
X111139969Y-40082110D01*
X111088960Y-40334000D01*
X108390421Y-40334000D01*
X108387162Y-40316683D01*
X108248090Y-40100559D01*
X108035890Y-39955569D01*
X107784000Y-39904560D01*
X106084000Y-39904560D01*
X105848683Y-39948838D01*
X105632559Y-40087910D01*
X105487569Y-40300110D01*
X105473914Y-40367541D01*
X105444054Y-40322853D01*
X104962285Y-40000946D01*
X104394000Y-39887907D01*
X103825715Y-40000946D01*
X103343946Y-40322853D01*
X103124000Y-40652026D01*
X102904054Y-40322853D01*
X102422285Y-40000946D01*
X101854000Y-39887907D01*
X101285715Y-40000946D01*
X100803946Y-40322853D01*
X100482039Y-40804622D01*
X100369000Y-41372907D01*
X82677175Y-41372907D01*
X82453050Y-40830485D01*
X81375189Y-39750741D01*
X79966175Y-39165667D01*
X78440518Y-39164336D01*
X77030485Y-39746950D01*
X75950741Y-40824811D01*
X75365667Y-42233825D01*
X75364336Y-43759482D01*
X75057000Y-43759482D01*
X75057000Y-38735000D01*
X173355000Y-38735000D01*
X173355000Y-137033326D01*
X173355000Y-137033326D01*
G37*
X173355000Y-137033326D02*
X75057000Y-137286672D01*
X75057000Y-133759482D01*
X75364336Y-133759482D01*
X75946950Y-135169515D01*
X77024811Y-136249259D01*
X78433825Y-136834333D01*
X79959482Y-136835664D01*
X81369515Y-136253050D01*
X82449259Y-135175189D01*
X83034333Y-133766175D01*
X83034892Y-133124285D01*
X108514760Y-133124285D01*
X108725169Y-133633515D01*
X109114436Y-134023461D01*
X109623298Y-134234759D01*
X110174285Y-134235240D01*
X110683515Y-134024831D01*
X111073461Y-133635564D01*
X111129752Y-133500000D01*
X117402560Y-133500000D01*
X117402560Y-135200000D01*
X117446838Y-135435317D01*
X117585910Y-135651441D01*
X117798110Y-135796431D01*
X118050000Y-135847440D01*
X119750000Y-135847440D01*
X119985317Y-135803162D01*
X120201441Y-135664090D01*
X120346431Y-135451890D01*
X120360086Y-135384459D01*
X120389946Y-135429147D01*
X120871715Y-135751054D01*
X121440000Y-135864093D01*
X122008285Y-135751054D01*
X122490054Y-135429147D01*
X122710000Y-135099974D01*
X122929946Y-135429147D01*
X123411715Y-135751054D01*
X123980000Y-135864093D01*
X124548285Y-135751054D01*
X125030054Y-135429147D01*
X125351961Y-134947378D01*
X125465000Y-134379093D01*
X125465000Y-134320907D01*
X125353326Y-133759482D01*
X165364336Y-133759482D01*
X165946950Y-135169515D01*
X167024811Y-136249259D01*
X168433825Y-136834333D01*
X169959482Y-136835664D01*
X171369515Y-136253050D01*
X172449259Y-135175189D01*
X173034333Y-133766175D01*
X173035664Y-132240518D01*
X172453050Y-130830485D01*
X171375189Y-129750741D01*
X169966175Y-129165667D01*
X168440518Y-129164336D01*
X167030485Y-129746950D01*
X165950741Y-130824811D01*
X165365667Y-132233825D01*
X165364336Y-133759482D01*
X125353326Y-133759482D01*
X125351961Y-133752622D01*
X125030054Y-133270853D01*
X124744422Y-133080000D01*
X125030054Y-132889147D01*
X125351961Y-132407378D01*
X125465000Y-131839093D01*
X125465000Y-131780907D01*
X125351961Y-131212622D01*
X125030054Y-130730853D01*
X124548285Y-130408946D01*
X123980000Y-130295907D01*
X123411715Y-130408946D01*
X122929946Y-130730853D01*
X122710000Y-131060026D01*
X122490054Y-130730853D01*
X122008285Y-130408946D01*
X121440000Y-130295907D01*
X120871715Y-130408946D01*
X120389946Y-130730853D01*
X120170000Y-131060026D01*
X119950054Y-130730853D01*
X119468285Y-130408946D01*
X118900000Y-130295907D01*
X118331715Y-130408946D01*
X117849946Y-130730853D01*
X117528039Y-131212622D01*
X117415000Y-131780907D01*
X117415000Y-131839093D01*
X117528039Y-132407378D01*
X117849946Y-132889147D01*
X117851179Y-132889971D01*
X117814683Y-132896838D01*
X117598559Y-133035910D01*
X117453569Y-133248110D01*
X117402560Y-133500000D01*
X111129752Y-133500000D01*
X111284759Y-133126702D01*
X111285240Y-132575715D01*
X111074831Y-132066485D01*
X110685564Y-131676539D01*
X110176702Y-131465241D01*
X109625715Y-131464760D01*
X109116485Y-131675169D01*
X108726539Y-132064436D01*
X108515241Y-132573298D01*
X108514760Y-133124285D01*
X83034892Y-133124285D01*
X83035664Y-132240518D01*
X82453050Y-130830485D01*
X81375189Y-129750741D01*
X79966175Y-129165667D01*
X78440518Y-129164336D01*
X77030485Y-129746950D01*
X75950741Y-130824811D01*
X75365667Y-132233825D01*
X75364336Y-133759482D01*
X75057000Y-133759482D01*
X75057000Y-118320000D01*
X75383769Y-118320000D01*
X75507465Y-118941861D01*
X75859720Y-119469049D01*
X76040736Y-119590000D01*
X75859720Y-119710951D01*
X75507465Y-120238139D01*
X75383769Y-120860000D01*
X75507465Y-121481861D01*
X75757705Y-121856372D01*
X75618559Y-121945910D01*
X75473569Y-122158110D01*
X75422560Y-122410000D01*
X75422560Y-124390000D01*
X75466838Y-124625317D01*
X75605910Y-124841441D01*
X75818110Y-124986431D01*
X76070000Y-125037440D01*
X80030000Y-125037440D01*
X80265317Y-124993162D01*
X80481441Y-124854090D01*
X80626431Y-124641890D01*
X80677440Y-124390000D01*
X80677440Y-122410000D01*
X80633162Y-122174683D01*
X80494090Y-121958559D01*
X80342997Y-121855322D01*
X80592535Y-121481861D01*
X80716231Y-120860000D01*
X80592535Y-120238139D01*
X80240280Y-119710951D01*
X80059264Y-119590000D01*
X80240280Y-119469049D01*
X80592535Y-118941861D01*
X80716231Y-118320000D01*
X80592535Y-117698139D01*
X80240280Y-117170951D01*
X79713092Y-116818696D01*
X79091231Y-116695000D01*
X77008769Y-116695000D01*
X76386908Y-116818696D01*
X75859720Y-117170951D01*
X75507465Y-117698139D01*
X75383769Y-118320000D01*
X75057000Y-118320000D01*
X75057000Y-114231167D01*
X88472838Y-114231167D01*
X88614883Y-114574943D01*
X88623000Y-114583074D01*
X88623000Y-123952000D01*
X88682755Y-124252407D01*
X88726901Y-124318477D01*
X88726838Y-124391167D01*
X88868883Y-124734943D01*
X89131673Y-124998192D01*
X89475201Y-125140838D01*
X89847167Y-125141162D01*
X90190943Y-124999117D01*
X90454192Y-124736327D01*
X90596838Y-124392799D01*
X90597162Y-124020833D01*
X90455117Y-123677057D01*
X90193000Y-123414482D01*
X90193000Y-114583506D01*
X90200192Y-114576327D01*
X90342838Y-114232799D01*
X90343162Y-113860833D01*
X90201117Y-113517057D01*
X89938327Y-113253808D01*
X89594799Y-113111162D01*
X89222833Y-113110838D01*
X88879057Y-113252883D01*
X88615808Y-113515673D01*
X88473162Y-113859201D01*
X88472838Y-114231167D01*
X75057000Y-114231167D01*
X75057000Y-110385167D01*
X91214838Y-110385167D01*
X91265000Y-110506569D01*
X91265000Y-111749995D01*
X91264999Y-111750000D01*
X91317712Y-112015000D01*
X91332367Y-112088675D01*
X91523154Y-112374210D01*
X91524210Y-112375790D01*
X92098420Y-112950000D01*
X91724210Y-113324210D01*
X91532367Y-113611325D01*
X91521190Y-113667516D01*
X91464999Y-113950000D01*
X91465000Y-113950005D01*
X91465000Y-128099995D01*
X91464999Y-128100000D01*
X91504573Y-128298946D01*
X91532367Y-128438675D01*
X91654094Y-128620853D01*
X91724210Y-128725790D01*
X92557255Y-129558835D01*
X92606883Y-129678943D01*
X92869673Y-129942192D01*
X93213201Y-130084838D01*
X93585167Y-130085162D01*
X93928943Y-129943117D01*
X94192192Y-129680327D01*
X94196103Y-129670907D01*
X128655000Y-129670907D01*
X128655000Y-129729093D01*
X128768039Y-130297378D01*
X129089946Y-130779147D01*
X129571715Y-131101054D01*
X130140000Y-131214093D01*
X130708285Y-131101054D01*
X131190054Y-130779147D01*
X131410000Y-130449974D01*
X131629946Y-130779147D01*
X132111715Y-131101054D01*
X132680000Y-131214093D01*
X133248285Y-131101054D01*
X133730054Y-130779147D01*
X133957702Y-130438447D01*
X134024817Y-130581358D01*
X134453076Y-130971645D01*
X134863110Y-131141476D01*
X135093000Y-131020155D01*
X135093000Y-129827000D01*
X135073000Y-129827000D01*
X135073000Y-129573000D01*
X135093000Y-129573000D01*
X135093000Y-128379845D01*
X135347000Y-128379845D01*
X135347000Y-129573000D01*
X135367000Y-129573000D01*
X135367000Y-129827000D01*
X135347000Y-129827000D01*
X135347000Y-131020155D01*
X135576890Y-131141476D01*
X135986924Y-130971645D01*
X136415183Y-130581358D01*
X136482298Y-130438447D01*
X136709946Y-130779147D01*
X137191715Y-131101054D01*
X137760000Y-131214093D01*
X138328285Y-131101054D01*
X138810054Y-130779147D01*
X138837850Y-130737548D01*
X138846838Y-130785317D01*
X138985910Y-131001441D01*
X139198110Y-131146431D01*
X139450000Y-131197440D01*
X141150000Y-131197440D01*
X141385317Y-131153162D01*
X141601441Y-131014090D01*
X141746431Y-130801890D01*
X141797440Y-130550000D01*
X141797440Y-128850000D01*
X141753162Y-128614683D01*
X141614090Y-128398559D01*
X141401890Y-128253569D01*
X141150000Y-128202560D01*
X139450000Y-128202560D01*
X139214683Y-128246838D01*
X138998559Y-128385910D01*
X138853569Y-128598110D01*
X138839914Y-128665541D01*
X138810054Y-128620853D01*
X138328285Y-128298946D01*
X137760000Y-128185907D01*
X137191715Y-128298946D01*
X136709946Y-128620853D01*
X136482298Y-128961553D01*
X136415183Y-128818642D01*
X135986924Y-128428355D01*
X135576890Y-128258524D01*
X135347000Y-128379845D01*
X135093000Y-128379845D01*
X134863110Y-128258524D01*
X134453076Y-128428355D01*
X134024817Y-128818642D01*
X133957702Y-128961553D01*
X133730054Y-128620853D01*
X133248285Y-128298946D01*
X132680000Y-128185907D01*
X132111715Y-128298946D01*
X131629946Y-128620853D01*
X131410000Y-128950026D01*
X131190054Y-128620853D01*
X130708285Y-128298946D01*
X130140000Y-128185907D01*
X129571715Y-128298946D01*
X129089946Y-128620853D01*
X128768039Y-129102622D01*
X128655000Y-129670907D01*
X94196103Y-129670907D01*
X94334838Y-129336799D01*
X94335162Y-128964833D01*
X94193117Y-128621057D01*
X93930327Y-128357808D01*
X93809013Y-128307434D01*
X93235000Y-127733420D01*
X93235000Y-123235167D01*
X96614838Y-123235167D01*
X96756883Y-123578943D01*
X97019673Y-123842192D01*
X97363201Y-123984838D01*
X97735167Y-123985162D01*
X97977578Y-123885000D01*
X103050000Y-123885000D01*
X103369541Y-123821439D01*
X103640434Y-123640434D01*
X105915000Y-121365868D01*
X105915000Y-125254132D01*
X105154132Y-126015000D01*
X102027234Y-126015000D01*
X101786799Y-125915162D01*
X101414833Y-125914838D01*
X101293431Y-125965000D01*
X100248899Y-125965000D01*
X99998810Y-125861154D01*
X99822004Y-125861000D01*
X99822000Y-125860999D01*
X99821996Y-125861000D01*
X99646735Y-125860847D01*
X99321343Y-125995296D01*
X99196212Y-126120209D01*
X99196210Y-126120210D01*
X99196209Y-126120212D01*
X99072171Y-126244033D01*
X98937154Y-126569190D01*
X98937000Y-126745996D01*
X98936999Y-126746000D01*
X98937000Y-126746004D01*
X98936847Y-126921265D01*
X99071296Y-127246657D01*
X99196209Y-127371788D01*
X99196210Y-127371790D01*
X99196374Y-127371954D01*
X99320033Y-127495829D01*
X99346892Y-127506982D01*
X99532269Y-127630846D01*
X99587325Y-127667633D01*
X99926000Y-127735001D01*
X99926005Y-127735000D01*
X101293178Y-127735000D01*
X101413201Y-127784838D01*
X101785167Y-127785162D01*
X102027578Y-127685000D01*
X105500000Y-127685000D01*
X105819541Y-127621439D01*
X106090434Y-127440434D01*
X106430868Y-127100000D01*
X112002560Y-127100000D01*
X112002560Y-128800000D01*
X112046838Y-129035317D01*
X112185910Y-129251441D01*
X112398110Y-129396431D01*
X112650000Y-129447440D01*
X114350000Y-129447440D01*
X114585317Y-129403162D01*
X114801441Y-129264090D01*
X114946431Y-129051890D01*
X114960086Y-128984459D01*
X114989946Y-129029147D01*
X115471715Y-129351054D01*
X116040000Y-129464093D01*
X116608285Y-129351054D01*
X117090054Y-129029147D01*
X117411961Y-128547378D01*
X117525000Y-127979093D01*
X117525000Y-127920907D01*
X117411961Y-127352622D01*
X117090054Y-126870853D01*
X116608285Y-126548946D01*
X116055681Y-126439026D01*
X167442642Y-126439026D01*
X167445291Y-126454791D01*
X167699268Y-126982036D01*
X168135680Y-127371954D01*
X168688087Y-127565184D01*
X168923000Y-127420924D01*
X168923000Y-126207000D01*
X169177000Y-126207000D01*
X169177000Y-127420924D01*
X169411913Y-127565184D01*
X169964320Y-127371954D01*
X170400732Y-126982036D01*
X170654709Y-126454791D01*
X170657358Y-126439026D01*
X170536217Y-126207000D01*
X169177000Y-126207000D01*
X168923000Y-126207000D01*
X167563783Y-126207000D01*
X167442642Y-126439026D01*
X116055681Y-126439026D01*
X116040000Y-126435907D01*
X115471715Y-126548946D01*
X114989946Y-126870853D01*
X114962150Y-126912452D01*
X114953162Y-126864683D01*
X114814090Y-126648559D01*
X114601890Y-126503569D01*
X114350000Y-126452560D01*
X112650000Y-126452560D01*
X112414683Y-126496838D01*
X112198559Y-126635910D01*
X112053569Y-126848110D01*
X112002560Y-127100000D01*
X106430868Y-127100000D01*
X107340434Y-126190434D01*
X107499082Y-125953000D01*
X107521439Y-125919541D01*
X107585000Y-125600000D01*
X107585000Y-121440000D01*
X112185907Y-121440000D01*
X112298946Y-122008285D01*
X112620853Y-122490054D01*
X112950026Y-122710000D01*
X112620853Y-122929946D01*
X112298946Y-123411715D01*
X112185907Y-123980000D01*
X112298946Y-124548285D01*
X112620853Y-125030054D01*
X113102622Y-125351961D01*
X113670907Y-125465000D01*
X113729093Y-125465000D01*
X114297378Y-125351961D01*
X114779147Y-125030054D01*
X115101054Y-124548285D01*
X115214093Y-123980000D01*
X115126572Y-123540000D01*
X167366655Y-123540000D01*
X167480729Y-124113489D01*
X167805585Y-124599670D01*
X168115069Y-124806461D01*
X167699268Y-125177964D01*
X167445291Y-125705209D01*
X167442642Y-125720974D01*
X167563783Y-125953000D01*
X168923000Y-125953000D01*
X168923000Y-125933000D01*
X169177000Y-125933000D01*
X169177000Y-125953000D01*
X170536217Y-125953000D01*
X170657358Y-125720974D01*
X170654709Y-125705209D01*
X170400732Y-125177964D01*
X169984931Y-124806461D01*
X170294415Y-124599670D01*
X170619271Y-124113489D01*
X170733345Y-123540000D01*
X170619271Y-122966511D01*
X170294415Y-122480330D01*
X170280087Y-122470757D01*
X170301317Y-122466762D01*
X170517441Y-122327690D01*
X170662431Y-122115490D01*
X170713440Y-121863600D01*
X170713440Y-120136400D01*
X170669162Y-119901083D01*
X170530090Y-119684959D01*
X170317890Y-119539969D01*
X170066000Y-119488960D01*
X168034000Y-119488960D01*
X167798683Y-119533238D01*
X167582559Y-119672310D01*
X167437569Y-119884510D01*
X167386560Y-120136400D01*
X167386560Y-121863600D01*
X167430838Y-122098917D01*
X167569910Y-122315041D01*
X167782110Y-122460031D01*
X167823439Y-122468400D01*
X167805585Y-122480330D01*
X167480729Y-122966511D01*
X167366655Y-123540000D01*
X115126572Y-123540000D01*
X115101054Y-123411715D01*
X114779147Y-122929946D01*
X114449974Y-122710000D01*
X114779147Y-122490054D01*
X115101054Y-122008285D01*
X115214093Y-121440000D01*
X115101054Y-120871715D01*
X114912819Y-120590000D01*
X123435907Y-120590000D01*
X123548946Y-121158285D01*
X123870853Y-121640054D01*
X124352622Y-121961961D01*
X124920907Y-122075000D01*
X124979093Y-122075000D01*
X125547378Y-121961961D01*
X126029147Y-121640054D01*
X126351054Y-121158285D01*
X126464093Y-120590000D01*
X126351054Y-120021715D01*
X126029147Y-119539946D01*
X125987548Y-119512150D01*
X126035317Y-119503162D01*
X126251441Y-119364090D01*
X126396431Y-119151890D01*
X126447440Y-118900000D01*
X126447440Y-117574285D01*
X127114760Y-117574285D01*
X127325169Y-118083515D01*
X127714436Y-118473461D01*
X128223298Y-118684759D01*
X128774285Y-118685240D01*
X129283515Y-118474831D01*
X129673461Y-118085564D01*
X129884759Y-117576702D01*
X129885240Y-117025715D01*
X129674831Y-116516485D01*
X129285564Y-116126539D01*
X128776702Y-115915241D01*
X128225715Y-115914760D01*
X127716485Y-116125169D01*
X127326539Y-116514436D01*
X127115241Y-117023298D01*
X127114760Y-117574285D01*
X126447440Y-117574285D01*
X126447440Y-117200000D01*
X126403162Y-116964683D01*
X126264090Y-116748559D01*
X126051890Y-116603569D01*
X125800000Y-116552560D01*
X124100000Y-116552560D01*
X123864683Y-116596838D01*
X123648559Y-116735910D01*
X123503569Y-116948110D01*
X123452560Y-117200000D01*
X123452560Y-118900000D01*
X123496838Y-119135317D01*
X123635910Y-119351441D01*
X123848110Y-119496431D01*
X123915541Y-119510086D01*
X123870853Y-119539946D01*
X123548946Y-120021715D01*
X123435907Y-120590000D01*
X114912819Y-120590000D01*
X114779147Y-120389946D01*
X114737548Y-120362150D01*
X114785317Y-120353162D01*
X115001441Y-120214090D01*
X115146431Y-120001890D01*
X115197440Y-119750000D01*
X115197440Y-118050000D01*
X115153162Y-117814683D01*
X115014090Y-117598559D01*
X114801890Y-117453569D01*
X114550000Y-117402560D01*
X112850000Y-117402560D01*
X112614683Y-117446838D01*
X112398559Y-117585910D01*
X112253569Y-117798110D01*
X112202560Y-118050000D01*
X112202560Y-119750000D01*
X112246838Y-119985317D01*
X112385910Y-120201441D01*
X112598110Y-120346431D01*
X112665541Y-120360086D01*
X112620853Y-120389946D01*
X112298946Y-120871715D01*
X112185907Y-121440000D01*
X107585000Y-121440000D01*
X107585000Y-117300000D01*
X117002560Y-117300000D01*
X117002560Y-119000000D01*
X117046838Y-119235317D01*
X117185910Y-119451441D01*
X117398110Y-119596431D01*
X117650000Y-119647440D01*
X119350000Y-119647440D01*
X119585317Y-119603162D01*
X119801441Y-119464090D01*
X119946431Y-119251890D01*
X119960086Y-119184459D01*
X119989946Y-119229147D01*
X120471715Y-119551054D01*
X121040000Y-119664093D01*
X121608285Y-119551054D01*
X122090054Y-119229147D01*
X122411961Y-118747378D01*
X122525000Y-118179093D01*
X122525000Y-118120907D01*
X122411961Y-117552622D01*
X122090054Y-117070853D01*
X121608285Y-116748946D01*
X121040000Y-116635907D01*
X120471715Y-116748946D01*
X119989946Y-117070853D01*
X119962150Y-117112452D01*
X119953162Y-117064683D01*
X119814090Y-116848559D01*
X119601890Y-116703569D01*
X119350000Y-116652560D01*
X117650000Y-116652560D01*
X117414683Y-116696838D01*
X117198559Y-116835910D01*
X117053569Y-117048110D01*
X117002560Y-117300000D01*
X107585000Y-117300000D01*
X107585000Y-115082285D01*
X121550760Y-115082285D01*
X121761169Y-115591515D01*
X122150436Y-115981461D01*
X122659298Y-116192759D01*
X123210285Y-116193240D01*
X123719515Y-115982831D01*
X124109461Y-115593564D01*
X124320759Y-115084702D01*
X124321240Y-114533715D01*
X124110831Y-114024485D01*
X123721564Y-113634539D01*
X123212702Y-113423241D01*
X122661715Y-113422760D01*
X122152485Y-113633169D01*
X121762539Y-114022436D01*
X121551241Y-114531298D01*
X121550760Y-115082285D01*
X107585000Y-115082285D01*
X107585000Y-109406822D01*
X107634838Y-109286799D01*
X107635162Y-108914833D01*
X107493117Y-108571057D01*
X107292411Y-108370000D01*
X114580560Y-108370000D01*
X114580560Y-110070000D01*
X114624838Y-110305317D01*
X114763910Y-110521441D01*
X114976110Y-110666431D01*
X115228000Y-110717440D01*
X116928000Y-110717440D01*
X117163317Y-110673162D01*
X117379441Y-110534090D01*
X117524431Y-110321890D01*
X117538086Y-110254459D01*
X117567946Y-110299147D01*
X118049715Y-110621054D01*
X118618000Y-110734093D01*
X119186285Y-110621054D01*
X119668054Y-110299147D01*
X119888000Y-109969974D01*
X120107946Y-110299147D01*
X120589715Y-110621054D01*
X121158000Y-110734093D01*
X121726285Y-110621054D01*
X122208054Y-110299147D01*
X122529961Y-109817378D01*
X122643000Y-109249093D01*
X122643000Y-109190907D01*
X122542518Y-108685750D01*
X132765000Y-108685750D01*
X132765000Y-109376309D01*
X132861673Y-109609698D01*
X133040301Y-109788327D01*
X133273690Y-109885000D01*
X133964250Y-109885000D01*
X134123000Y-109726250D01*
X134123000Y-108527000D01*
X132923750Y-108527000D01*
X132765000Y-108685750D01*
X122542518Y-108685750D01*
X122529961Y-108622622D01*
X122208054Y-108140853D01*
X121726285Y-107818946D01*
X121158000Y-107705907D01*
X120589715Y-107818946D01*
X120107946Y-108140853D01*
X119888000Y-108470026D01*
X119668054Y-108140853D01*
X119453000Y-107997159D01*
X119453000Y-107423691D01*
X132765000Y-107423691D01*
X132765000Y-108114250D01*
X132923750Y-108273000D01*
X134123000Y-108273000D01*
X134123000Y-107073750D01*
X134377000Y-107073750D01*
X134377000Y-108273000D01*
X134397000Y-108273000D01*
X134397000Y-108527000D01*
X134377000Y-108527000D01*
X134377000Y-109726250D01*
X134535750Y-109885000D01*
X135226310Y-109885000D01*
X135459699Y-109788327D01*
X135638327Y-109609698D01*
X135710597Y-109435223D01*
X135739946Y-109479147D01*
X136221715Y-109801054D01*
X136790000Y-109914093D01*
X137358285Y-109801054D01*
X137840054Y-109479147D01*
X138161961Y-108997378D01*
X138275000Y-108429093D01*
X138275000Y-108370907D01*
X138161961Y-107802622D01*
X137840054Y-107320853D01*
X137358285Y-106998946D01*
X136790000Y-106885907D01*
X136221715Y-106998946D01*
X135739946Y-107320853D01*
X135710597Y-107364777D01*
X135638327Y-107190302D01*
X135459699Y-107011673D01*
X135226310Y-106915000D01*
X134535750Y-106915000D01*
X134377000Y-107073750D01*
X134123000Y-107073750D01*
X133964250Y-106915000D01*
X133273690Y-106915000D01*
X133040301Y-107011673D01*
X132861673Y-107190302D01*
X132765000Y-107423691D01*
X119453000Y-107423691D01*
X119453000Y-102108000D01*
X119389439Y-101788459D01*
X119208434Y-101517566D01*
X117512868Y-99822000D01*
X118753000Y-99822000D01*
X118839397Y-100256345D01*
X119085434Y-100624566D01*
X123911434Y-105450566D01*
X124279655Y-105696604D01*
X124714000Y-105783000D01*
X125148346Y-105696604D01*
X125516566Y-105450566D01*
X125762604Y-105082346D01*
X125849000Y-104648000D01*
X125762604Y-104213655D01*
X125516566Y-103845434D01*
X121513417Y-99842285D01*
X122312760Y-99842285D01*
X122523169Y-100351515D01*
X122912436Y-100741461D01*
X123421298Y-100952759D01*
X123972285Y-100953240D01*
X124481515Y-100742831D01*
X124653738Y-100570907D01*
X128975000Y-100570907D01*
X128975000Y-100629093D01*
X129088039Y-101197378D01*
X129409946Y-101679147D01*
X129891715Y-102001054D01*
X130460000Y-102114093D01*
X131028285Y-102001054D01*
X131510054Y-101679147D01*
X131537850Y-101637548D01*
X131546838Y-101685317D01*
X131685910Y-101901441D01*
X131898110Y-102046431D01*
X132150000Y-102097440D01*
X133850000Y-102097440D01*
X134085317Y-102053162D01*
X134301441Y-101914090D01*
X134446431Y-101701890D01*
X134497440Y-101450000D01*
X134497440Y-99750000D01*
X134453162Y-99514683D01*
X134314090Y-99298559D01*
X134101890Y-99153569D01*
X133850000Y-99102560D01*
X132150000Y-99102560D01*
X131914683Y-99146838D01*
X131698559Y-99285910D01*
X131553569Y-99498110D01*
X131539914Y-99565541D01*
X131510054Y-99520853D01*
X131028285Y-99198946D01*
X130460000Y-99085907D01*
X129891715Y-99198946D01*
X129409946Y-99520853D01*
X129088039Y-100002622D01*
X128975000Y-100570907D01*
X124653738Y-100570907D01*
X124871461Y-100353564D01*
X125082759Y-99844702D01*
X125083240Y-99293715D01*
X124872831Y-98784485D01*
X124483564Y-98394539D01*
X123974702Y-98183241D01*
X123423715Y-98182760D01*
X122914485Y-98393169D01*
X122524539Y-98782436D01*
X122313241Y-99291298D01*
X122312760Y-99842285D01*
X121513417Y-99842285D01*
X120690566Y-99019434D01*
X120322345Y-98773397D01*
X119888000Y-98687000D01*
X119453655Y-98773397D01*
X119085434Y-99019434D01*
X118839397Y-99387655D01*
X118753000Y-99822000D01*
X117512868Y-99822000D01*
X116970535Y-99279667D01*
X116871117Y-99039057D01*
X116608327Y-98775808D01*
X116264799Y-98633162D01*
X115892833Y-98632838D01*
X115549057Y-98774883D01*
X115285808Y-99037673D01*
X115143162Y-99381201D01*
X115142838Y-99753167D01*
X115284883Y-100096943D01*
X115547673Y-100360192D01*
X115789910Y-100460778D01*
X117783000Y-102453868D01*
X117783000Y-107997159D01*
X117567946Y-108140853D01*
X117540150Y-108182452D01*
X117531162Y-108134683D01*
X117392090Y-107918559D01*
X117179890Y-107773569D01*
X116928000Y-107722560D01*
X115228000Y-107722560D01*
X114992683Y-107766838D01*
X114776559Y-107905910D01*
X114631569Y-108118110D01*
X114580560Y-108370000D01*
X107292411Y-108370000D01*
X107230327Y-108307808D01*
X106886799Y-108165162D01*
X106514833Y-108164838D01*
X106171057Y-108306883D01*
X105907808Y-108569673D01*
X105875096Y-108648452D01*
X105843117Y-108571057D01*
X105580327Y-108307808D01*
X105236799Y-108165162D01*
X104864833Y-108164838D01*
X104521057Y-108306883D01*
X104257808Y-108569673D01*
X104115162Y-108913201D01*
X104114838Y-109285167D01*
X104256883Y-109628943D01*
X104519673Y-109892192D01*
X104761910Y-109992778D01*
X105115000Y-110345868D01*
X105115000Y-119804132D01*
X102704132Y-122215000D01*
X97977234Y-122215000D01*
X97736799Y-122115162D01*
X97364833Y-122114838D01*
X97021057Y-122256883D01*
X96757808Y-122519673D01*
X96615162Y-122863201D01*
X96614838Y-123235167D01*
X93235000Y-123235167D01*
X93235000Y-114316580D01*
X93666579Y-113885000D01*
X96033420Y-113885000D01*
X96307255Y-114158835D01*
X96356883Y-114278943D01*
X96619673Y-114542192D01*
X96963201Y-114684838D01*
X97335167Y-114685162D01*
X97678943Y-114543117D01*
X97942192Y-114280327D01*
X98084838Y-113936799D01*
X98085162Y-113564833D01*
X97943117Y-113221057D01*
X97680327Y-112957808D01*
X97559013Y-112907434D01*
X97025790Y-112374210D01*
X96876130Y-112274211D01*
X96738675Y-112182367D01*
X96682484Y-112171190D01*
X96400000Y-112114999D01*
X96399995Y-112115000D01*
X93766579Y-112115000D01*
X93035000Y-111383420D01*
X93035000Y-110506822D01*
X93084838Y-110386799D01*
X93085162Y-110014833D01*
X92943117Y-109671057D01*
X92680327Y-109407808D01*
X92336799Y-109265162D01*
X91964833Y-109264838D01*
X91621057Y-109406883D01*
X91357808Y-109669673D01*
X91215162Y-110013201D01*
X91214838Y-110385167D01*
X75057000Y-110385167D01*
X75057000Y-107905517D01*
X78202088Y-107905517D01*
X78270077Y-108146460D01*
X78789171Y-108331201D01*
X79339448Y-108303230D01*
X79717923Y-108146460D01*
X79785912Y-107905517D01*
X78994000Y-107113605D01*
X78202088Y-107905517D01*
X75057000Y-107905517D01*
X75057000Y-106729171D01*
X77596799Y-106729171D01*
X77624770Y-107279448D01*
X77781540Y-107657923D01*
X78022483Y-107725912D01*
X78814395Y-106934000D01*
X79173605Y-106934000D01*
X79965517Y-107725912D01*
X80206460Y-107657923D01*
X80391201Y-107138829D01*
X80363230Y-106588552D01*
X80206460Y-106210077D01*
X79965517Y-106142088D01*
X79173605Y-106934000D01*
X78814395Y-106934000D01*
X78022483Y-106142088D01*
X77781540Y-106210077D01*
X77596799Y-106729171D01*
X75057000Y-106729171D01*
X75057000Y-105962483D01*
X78202088Y-105962483D01*
X78994000Y-106754395D01*
X79785912Y-105962483D01*
X79717923Y-105721540D01*
X79198829Y-105536799D01*
X78648552Y-105564770D01*
X78270077Y-105721540D01*
X78202088Y-105962483D01*
X75057000Y-105962483D01*
X75057000Y-104394000D01*
X95131000Y-104394000D01*
X95217397Y-104828345D01*
X95463434Y-105196566D01*
X101735000Y-111468132D01*
X101735000Y-118364000D01*
X101821397Y-118798346D01*
X102026297Y-119105000D01*
X102067434Y-119166566D01*
X102321434Y-119420566D01*
X102689655Y-119666603D01*
X103124000Y-119753000D01*
X103558345Y-119666603D01*
X103926566Y-119420566D01*
X104172603Y-119052345D01*
X104259000Y-118618000D01*
X104172603Y-118183655D01*
X104005000Y-117932819D01*
X104005000Y-110998000D01*
X103918603Y-110563654D01*
X103672566Y-110195434D01*
X97068566Y-103591434D01*
X96700345Y-103345397D01*
X96266000Y-103259000D01*
X95831655Y-103345397D01*
X95463434Y-103591434D01*
X95217397Y-103959655D01*
X95131000Y-104394000D01*
X75057000Y-104394000D01*
X75057000Y-101062907D01*
X109005000Y-101062907D01*
X109005000Y-101121093D01*
X109118039Y-101689378D01*
X109439946Y-102171147D01*
X109921715Y-102493054D01*
X110490000Y-102606093D01*
X111058285Y-102493054D01*
X111540054Y-102171147D01*
X111567850Y-102129548D01*
X111576838Y-102177317D01*
X111715910Y-102393441D01*
X111928110Y-102538431D01*
X112180000Y-102589440D01*
X113880000Y-102589440D01*
X114115317Y-102545162D01*
X114331441Y-102406090D01*
X114476431Y-102193890D01*
X114527440Y-101942000D01*
X114527440Y-100242000D01*
X114483162Y-100006683D01*
X114344090Y-99790559D01*
X114131890Y-99645569D01*
X113880000Y-99594560D01*
X112180000Y-99594560D01*
X111944683Y-99638838D01*
X111728559Y-99777910D01*
X111583569Y-99990110D01*
X111569914Y-100057541D01*
X111540054Y-100012853D01*
X111058285Y-99690946D01*
X110490000Y-99577907D01*
X109921715Y-99690946D01*
X109439946Y-100012853D01*
X109118039Y-100494622D01*
X109005000Y-101062907D01*
X75057000Y-101062907D01*
X75057000Y-98350000D01*
X95552560Y-98350000D01*
X95552560Y-100050000D01*
X95596838Y-100285317D01*
X95735910Y-100501441D01*
X95948110Y-100646431D01*
X96200000Y-100697440D01*
X97900000Y-100697440D01*
X98135317Y-100653162D01*
X98351441Y-100514090D01*
X98496431Y-100301890D01*
X98510086Y-100234459D01*
X98539946Y-100279147D01*
X99021715Y-100601054D01*
X99590000Y-100714093D01*
X100158285Y-100601054D01*
X100640054Y-100279147D01*
X100961961Y-99797378D01*
X101075000Y-99229093D01*
X101075000Y-99170907D01*
X100961961Y-98602622D01*
X100640054Y-98120853D01*
X100158285Y-97798946D01*
X99590000Y-97685907D01*
X99021715Y-97798946D01*
X98539946Y-98120853D01*
X98512150Y-98162452D01*
X98503162Y-98114683D01*
X98364090Y-97898559D01*
X98151890Y-97753569D01*
X97900000Y-97702560D01*
X96200000Y-97702560D01*
X95964683Y-97746838D01*
X95748559Y-97885910D01*
X95603569Y-98098110D01*
X95552560Y-98350000D01*
X75057000Y-98350000D01*
X75057000Y-96540000D01*
X131485907Y-96540000D01*
X131598946Y-97108285D01*
X131920853Y-97590054D01*
X132402622Y-97911961D01*
X132970907Y-98025000D01*
X133029093Y-98025000D01*
X133597378Y-97911961D01*
X134079147Y-97590054D01*
X134401054Y-97108285D01*
X134514093Y-96540000D01*
X134401054Y-95971715D01*
X134079147Y-95489946D01*
X134037548Y-95462150D01*
X134085317Y-95453162D01*
X134301441Y-95314090D01*
X134446431Y-95101890D01*
X134497440Y-94850000D01*
X134497440Y-93150000D01*
X134453162Y-92914683D01*
X134314090Y-92698559D01*
X134101890Y-92553569D01*
X133850000Y-92502560D01*
X132150000Y-92502560D01*
X131914683Y-92546838D01*
X131698559Y-92685910D01*
X131553569Y-92898110D01*
X131502560Y-93150000D01*
X131502560Y-94850000D01*
X131546838Y-95085317D01*
X131685910Y-95301441D01*
X131898110Y-95446431D01*
X131965541Y-95460086D01*
X131920853Y-95489946D01*
X131598946Y-95971715D01*
X131485907Y-96540000D01*
X75057000Y-96540000D01*
X75057000Y-89916000D01*
X82184999Y-89916000D01*
X82185000Y-89916005D01*
X82185000Y-92202000D01*
X82309457Y-92827687D01*
X82663880Y-93358120D01*
X83194313Y-93712543D01*
X83820000Y-93837000D01*
X84445687Y-93712543D01*
X84785980Y-93485167D01*
X104414838Y-93485167D01*
X104556883Y-93828943D01*
X104819673Y-94092192D01*
X105163201Y-94234838D01*
X105535167Y-94235162D01*
X105878943Y-94093117D01*
X106142192Y-93830327D01*
X106242778Y-93588090D01*
X108595868Y-91235000D01*
X114850000Y-91235000D01*
X115169541Y-91171439D01*
X115440434Y-90990434D01*
X116990434Y-89440434D01*
X117074854Y-89314090D01*
X117171439Y-89169541D01*
X117235000Y-88850000D01*
X117235000Y-88047440D01*
X117250000Y-88047440D01*
X117485317Y-88003162D01*
X117701441Y-87864090D01*
X117846431Y-87651890D01*
X117860086Y-87584459D01*
X117889946Y-87629147D01*
X118371715Y-87951054D01*
X118940000Y-88064093D01*
X119508285Y-87951054D01*
X119906213Y-87685167D01*
X125314838Y-87685167D01*
X125456883Y-88028943D01*
X125719673Y-88292192D01*
X125961910Y-88392778D01*
X126265000Y-88695868D01*
X126265000Y-93722766D01*
X126165162Y-93963201D01*
X126164838Y-94335167D01*
X126306883Y-94678943D01*
X126569673Y-94942192D01*
X126913201Y-95084838D01*
X127285167Y-95085162D01*
X127628943Y-94943117D01*
X127892192Y-94680327D01*
X128034838Y-94336799D01*
X128035162Y-93964833D01*
X127935000Y-93722422D01*
X127935000Y-88350000D01*
X127921275Y-88281000D01*
X127871440Y-88030460D01*
X127817679Y-87950000D01*
X128402560Y-87950000D01*
X128402560Y-89650000D01*
X128446838Y-89885317D01*
X128585910Y-90101441D01*
X128798110Y-90246431D01*
X129050000Y-90297440D01*
X130750000Y-90297440D01*
X130985317Y-90253162D01*
X131201441Y-90114090D01*
X131346431Y-89901890D01*
X131360086Y-89834459D01*
X131389946Y-89879147D01*
X131871715Y-90201054D01*
X132440000Y-90314093D01*
X133008285Y-90201054D01*
X133490054Y-89879147D01*
X133710000Y-89549974D01*
X133929946Y-89879147D01*
X134411715Y-90201054D01*
X134980000Y-90314093D01*
X135548285Y-90201054D01*
X136030054Y-89879147D01*
X136351961Y-89397378D01*
X136465000Y-88829093D01*
X136465000Y-88770907D01*
X136351961Y-88202622D01*
X136030054Y-87720853D01*
X135548285Y-87398946D01*
X134980000Y-87285907D01*
X134411715Y-87398946D01*
X133929946Y-87720853D01*
X133710000Y-88050026D01*
X133490054Y-87720853D01*
X133008285Y-87398946D01*
X132440000Y-87285907D01*
X131871715Y-87398946D01*
X131389946Y-87720853D01*
X131362150Y-87762452D01*
X131353162Y-87714683D01*
X131214090Y-87498559D01*
X131001890Y-87353569D01*
X130750000Y-87302560D01*
X129050000Y-87302560D01*
X128814683Y-87346838D01*
X128598559Y-87485910D01*
X128453569Y-87698110D01*
X128402560Y-87950000D01*
X127817679Y-87950000D01*
X127690434Y-87759566D01*
X127142535Y-87211667D01*
X127043117Y-86971057D01*
X126780327Y-86707808D01*
X126436799Y-86565162D01*
X126064833Y-86564838D01*
X125721057Y-86706883D01*
X125457808Y-86969673D01*
X125315162Y-87313201D01*
X125314838Y-87685167D01*
X119906213Y-87685167D01*
X119990054Y-87629147D01*
X120311961Y-87147378D01*
X120425000Y-86579093D01*
X120425000Y-86520907D01*
X120311961Y-85952622D01*
X119990054Y-85470853D01*
X119508285Y-85148946D01*
X118940000Y-85035907D01*
X118371715Y-85148946D01*
X117889946Y-85470853D01*
X117862150Y-85512452D01*
X117853162Y-85464683D01*
X117714090Y-85248559D01*
X117501890Y-85103569D01*
X117250000Y-85052560D01*
X115550000Y-85052560D01*
X115314683Y-85096838D01*
X115098559Y-85235910D01*
X114953569Y-85448110D01*
X114902560Y-85700000D01*
X114902560Y-87400000D01*
X114946838Y-87635317D01*
X115085910Y-87851441D01*
X115298110Y-87996431D01*
X115550000Y-88047440D01*
X115565000Y-88047440D01*
X115565000Y-88504132D01*
X114504132Y-89565000D01*
X108250000Y-89565000D01*
X107930459Y-89628561D01*
X107659566Y-89809566D01*
X105061667Y-92407465D01*
X104821057Y-92506883D01*
X104557808Y-92769673D01*
X104415162Y-93113201D01*
X104414838Y-93485167D01*
X84785980Y-93485167D01*
X84976120Y-93358120D01*
X85330543Y-92827687D01*
X85455000Y-92202000D01*
X85455000Y-91371167D01*
X97616838Y-91371167D01*
X97758883Y-91714943D01*
X98021673Y-91978192D01*
X98365201Y-92120838D01*
X98737167Y-92121162D01*
X99080943Y-91979117D01*
X99091793Y-91968285D01*
X99960760Y-91968285D01*
X100171169Y-92477515D01*
X100560436Y-92867461D01*
X101069298Y-93078759D01*
X101620285Y-93079240D01*
X102129515Y-92868831D01*
X102519461Y-92479564D01*
X102730759Y-91970702D01*
X102731240Y-91419715D01*
X102520831Y-90910485D01*
X102131564Y-90520539D01*
X101622702Y-90309241D01*
X101071715Y-90308760D01*
X100562485Y-90519169D01*
X100172539Y-90908436D01*
X99961241Y-91417298D01*
X99960760Y-91968285D01*
X99091793Y-91968285D01*
X99344192Y-91716327D01*
X99444778Y-91474090D01*
X101945868Y-88973000D01*
X102689021Y-88973000D01*
X102759946Y-89079147D01*
X103241715Y-89401054D01*
X103810000Y-89514093D01*
X104378285Y-89401054D01*
X104860054Y-89079147D01*
X104887850Y-89037548D01*
X104896838Y-89085317D01*
X105035910Y-89301441D01*
X105248110Y-89446431D01*
X105500000Y-89497440D01*
X107200000Y-89497440D01*
X107435317Y-89453162D01*
X107651441Y-89314090D01*
X107796431Y-89101890D01*
X107847440Y-88850000D01*
X107847440Y-88324285D01*
X108414760Y-88324285D01*
X108625169Y-88833515D01*
X109014436Y-89223461D01*
X109523298Y-89434759D01*
X110074285Y-89435240D01*
X110583515Y-89224831D01*
X110973461Y-88835564D01*
X111184759Y-88326702D01*
X111185240Y-87775715D01*
X110974831Y-87266485D01*
X110585564Y-86876539D01*
X110076702Y-86665241D01*
X109525715Y-86664760D01*
X109016485Y-86875169D01*
X108626539Y-87264436D01*
X108415241Y-87773298D01*
X108414760Y-88324285D01*
X107847440Y-88324285D01*
X107847440Y-87150000D01*
X107803162Y-86914683D01*
X107664090Y-86698559D01*
X107451890Y-86553569D01*
X107200000Y-86502560D01*
X105500000Y-86502560D01*
X105264683Y-86546838D01*
X105048559Y-86685910D01*
X104903569Y-86898110D01*
X104889914Y-86965541D01*
X104860054Y-86920853D01*
X104378285Y-86598946D01*
X103810000Y-86485907D01*
X103241715Y-86598946D01*
X102759946Y-86920853D01*
X102504604Y-87303000D01*
X101600000Y-87303000D01*
X101280459Y-87366561D01*
X101009566Y-87547566D01*
X98263667Y-90293465D01*
X98023057Y-90392883D01*
X97759808Y-90655673D01*
X97617162Y-90999201D01*
X97616838Y-91371167D01*
X85455000Y-91371167D01*
X85455000Y-90593240D01*
X86275239Y-89773000D01*
X91693995Y-89773000D01*
X91694000Y-89773001D01*
X92319688Y-89648543D01*
X92850120Y-89294120D01*
X97721874Y-84422366D01*
X97776120Y-84386120D01*
X97812366Y-84331874D01*
X99454117Y-82690122D01*
X99454120Y-82690120D01*
X99490970Y-82634970D01*
X99546120Y-82598120D01*
X109904239Y-72240000D01*
X135135907Y-72240000D01*
X135248946Y-72808285D01*
X135570853Y-73290054D01*
X136052622Y-73611961D01*
X136620907Y-73725000D01*
X136679093Y-73725000D01*
X137247378Y-73611961D01*
X137729147Y-73290054D01*
X138051054Y-72808285D01*
X138164093Y-72240000D01*
X138051054Y-71671715D01*
X137729147Y-71189946D01*
X137687548Y-71162150D01*
X137735317Y-71153162D01*
X137951441Y-71014090D01*
X138096431Y-70801890D01*
X138147440Y-70550000D01*
X138147440Y-68850000D01*
X138103162Y-68614683D01*
X137964090Y-68398559D01*
X137751890Y-68253569D01*
X137500000Y-68202560D01*
X135800000Y-68202560D01*
X135564683Y-68246838D01*
X135348559Y-68385910D01*
X135203569Y-68598110D01*
X135152560Y-68850000D01*
X135152560Y-70550000D01*
X135196838Y-70785317D01*
X135335910Y-71001441D01*
X135548110Y-71146431D01*
X135615541Y-71160086D01*
X135570853Y-71189946D01*
X135248946Y-71671715D01*
X135135907Y-72240000D01*
X109904239Y-72240000D01*
X111900117Y-70244122D01*
X111900120Y-70244120D01*
X113170117Y-68974122D01*
X113170120Y-68974120D01*
X114440117Y-67704122D01*
X114440120Y-67704120D01*
X118459239Y-63685000D01*
X122800000Y-63685000D01*
X123302733Y-63585000D01*
X134172760Y-63585000D01*
X137743880Y-67156120D01*
X138274312Y-67510543D01*
X138900000Y-67635001D01*
X138900005Y-67635000D01*
X140006907Y-67635000D01*
X140208000Y-67675000D01*
X140833687Y-67550543D01*
X141364120Y-67196120D01*
X141444666Y-67075574D01*
X142125239Y-66395000D01*
X148232761Y-66395000D01*
X148688878Y-66851117D01*
X148688880Y-66851120D01*
X149583878Y-67746117D01*
X149583880Y-67746120D01*
X150443878Y-68606117D01*
X150443880Y-68606120D01*
X150952760Y-69115000D01*
X143243880Y-76823880D01*
X142889457Y-77354312D01*
X142764999Y-77980000D01*
X142765000Y-77980005D01*
X142765000Y-106399995D01*
X142764999Y-106400000D01*
X142889457Y-107025688D01*
X143243880Y-107556120D01*
X145345776Y-109658016D01*
X145655880Y-110122120D01*
X146417878Y-110884117D01*
X146417880Y-110884120D01*
X147433880Y-111900120D01*
X155561878Y-120028117D01*
X155561880Y-120028120D01*
X155723285Y-120135967D01*
X156092312Y-120382543D01*
X156718000Y-120507001D01*
X156718005Y-120507000D01*
X157782662Y-120507000D01*
X157811190Y-120518846D01*
X157987996Y-120519000D01*
X157988000Y-120519001D01*
X157988004Y-120519000D01*
X158163265Y-120519153D01*
X158192678Y-120507000D01*
X158750000Y-120507000D01*
X159375687Y-120382543D01*
X159906120Y-120028120D01*
X160260543Y-119497687D01*
X160385000Y-118872000D01*
X160260543Y-118246313D01*
X159906120Y-117715880D01*
X159375687Y-117361457D01*
X158750000Y-117237000D01*
X157395239Y-117237000D01*
X151139440Y-110981200D01*
X164452939Y-110981200D01*
X164615446Y-111798179D01*
X165078228Y-112490781D01*
X165770830Y-112953563D01*
X165808872Y-112961130D01*
X165770830Y-112968697D01*
X165078228Y-113431479D01*
X164615446Y-114124081D01*
X164452939Y-114941060D01*
X164615446Y-115758039D01*
X165078228Y-116450641D01*
X165770830Y-116913423D01*
X166587809Y-117075930D01*
X168712191Y-117075930D01*
X169529170Y-116913423D01*
X170221772Y-116450641D01*
X170684554Y-115758039D01*
X170847061Y-114941060D01*
X170684554Y-114124081D01*
X170221772Y-113431479D01*
X169529170Y-112968697D01*
X169491128Y-112961130D01*
X169529170Y-112953563D01*
X170221772Y-112490781D01*
X170684554Y-111798179D01*
X170847061Y-110981200D01*
X170684554Y-110164221D01*
X170221772Y-109471619D01*
X169529170Y-109008837D01*
X169416972Y-108986519D01*
X169585072Y-108942562D01*
X170250144Y-108438579D01*
X170671724Y-107718447D01*
X170735745Y-107477612D01*
X170622795Y-107145800D01*
X167777000Y-107145800D01*
X167777000Y-107165800D01*
X167523000Y-107165800D01*
X167523000Y-107145800D01*
X164677205Y-107145800D01*
X164564255Y-107477612D01*
X164628276Y-107718447D01*
X165049856Y-108438579D01*
X165714928Y-108942562D01*
X165883028Y-108986519D01*
X165770830Y-109008837D01*
X165078228Y-109471619D01*
X164615446Y-110164221D01*
X164452939Y-110981200D01*
X151139440Y-110981200D01*
X149746120Y-109587880D01*
X148730120Y-108571880D01*
X148730117Y-108571878D01*
X148278225Y-108119985D01*
X147968120Y-107655880D01*
X146486525Y-106174285D01*
X157164760Y-106174285D01*
X157375169Y-106683515D01*
X157764436Y-107073461D01*
X158273298Y-107284759D01*
X158824285Y-107285240D01*
X159333515Y-107074831D01*
X159723461Y-106685564D01*
X159934759Y-106176702D01*
X159935240Y-105625715D01*
X159724831Y-105116485D01*
X159335564Y-104726539D01*
X158826702Y-104515241D01*
X158275715Y-104514760D01*
X157766485Y-104725169D01*
X157376539Y-105114436D01*
X157165241Y-105623298D01*
X157164760Y-106174285D01*
X146486525Y-106174285D01*
X146035000Y-105722760D01*
X146035000Y-103517752D01*
X164564255Y-103517752D01*
X164628276Y-103758587D01*
X165049856Y-104478719D01*
X165714928Y-104982702D01*
X165929724Y-105038870D01*
X165714928Y-105095038D01*
X165049856Y-105599021D01*
X164628276Y-106319153D01*
X164564255Y-106559988D01*
X164677205Y-106891800D01*
X167523000Y-106891800D01*
X167523000Y-103185940D01*
X167777000Y-103185940D01*
X167777000Y-106891800D01*
X170622795Y-106891800D01*
X170735745Y-106559988D01*
X170671724Y-106319153D01*
X170250144Y-105599021D01*
X169585072Y-105095038D01*
X169370276Y-105038870D01*
X169585072Y-104982702D01*
X170250144Y-104478719D01*
X170671724Y-103758587D01*
X170735745Y-103517752D01*
X170622795Y-103185940D01*
X167777000Y-103185940D01*
X167523000Y-103185940D01*
X164677205Y-103185940D01*
X164564255Y-103517752D01*
X146035000Y-103517752D01*
X146035000Y-102600128D01*
X164564255Y-102600128D01*
X164677205Y-102931940D01*
X167523000Y-102931940D01*
X167523000Y-100924070D01*
X167777000Y-100924070D01*
X167777000Y-102931940D01*
X170622795Y-102931940D01*
X170735745Y-102600128D01*
X170671724Y-102359293D01*
X170250144Y-101639161D01*
X169585072Y-101135178D01*
X168777760Y-100924070D01*
X167777000Y-100924070D01*
X167523000Y-100924070D01*
X166522240Y-100924070D01*
X165714928Y-101135178D01*
X165049856Y-101639161D01*
X164628276Y-102359293D01*
X164564255Y-102600128D01*
X146035000Y-102600128D01*
X146035000Y-98950000D01*
X155702560Y-98950000D01*
X155702560Y-100650000D01*
X155746838Y-100885317D01*
X155885910Y-101101441D01*
X156098110Y-101246431D01*
X156350000Y-101297440D01*
X158050000Y-101297440D01*
X158285317Y-101253162D01*
X158501441Y-101114090D01*
X158646431Y-100901890D01*
X158668301Y-100793893D01*
X158973076Y-101071645D01*
X159383110Y-101241476D01*
X159613000Y-101120155D01*
X159613000Y-99927000D01*
X159867000Y-99927000D01*
X159867000Y-101120155D01*
X160096890Y-101241476D01*
X160506924Y-101071645D01*
X160935183Y-100681358D01*
X161181486Y-100156892D01*
X161060819Y-99927000D01*
X159867000Y-99927000D01*
X159613000Y-99927000D01*
X159593000Y-99927000D01*
X159593000Y-99673000D01*
X159613000Y-99673000D01*
X159613000Y-98479845D01*
X159867000Y-98479845D01*
X159867000Y-99673000D01*
X161060819Y-99673000D01*
X161181486Y-99443108D01*
X160935183Y-98918642D01*
X160506924Y-98528355D01*
X160096890Y-98358524D01*
X159867000Y-98479845D01*
X159613000Y-98479845D01*
X159383110Y-98358524D01*
X158973076Y-98528355D01*
X158670063Y-98804501D01*
X158653162Y-98714683D01*
X158514090Y-98498559D01*
X158301890Y-98353569D01*
X158050000Y-98302560D01*
X156350000Y-98302560D01*
X156114683Y-98346838D01*
X155898559Y-98485910D01*
X155753569Y-98698110D01*
X155702560Y-98950000D01*
X146035000Y-98950000D01*
X146035000Y-94670907D01*
X155675000Y-94670907D01*
X155675000Y-94729093D01*
X155788039Y-95297378D01*
X156109946Y-95779147D01*
X156591715Y-96101054D01*
X157160000Y-96214093D01*
X157728285Y-96101054D01*
X158210054Y-95779147D01*
X158237850Y-95737548D01*
X158246838Y-95785317D01*
X158385910Y-96001441D01*
X158598110Y-96146431D01*
X158850000Y-96197440D01*
X160550000Y-96197440D01*
X160785317Y-96153162D01*
X161001441Y-96014090D01*
X161047356Y-95946890D01*
X169258524Y-95946890D01*
X169428355Y-96356924D01*
X169818642Y-96785183D01*
X170343108Y-97031486D01*
X170573000Y-96910819D01*
X170573000Y-95717000D01*
X170827000Y-95717000D01*
X170827000Y-96910819D01*
X171056892Y-97031486D01*
X171581358Y-96785183D01*
X171971645Y-96356924D01*
X172141476Y-95946890D01*
X172020155Y-95717000D01*
X170827000Y-95717000D01*
X170573000Y-95717000D01*
X169379845Y-95717000D01*
X169258524Y-95946890D01*
X161047356Y-95946890D01*
X161146431Y-95801890D01*
X161197440Y-95550000D01*
X161197440Y-93850000D01*
X161153162Y-93614683D01*
X161014090Y-93398559D01*
X160801890Y-93253569D01*
X160550000Y-93202560D01*
X158850000Y-93202560D01*
X158614683Y-93246838D01*
X158398559Y-93385910D01*
X158253569Y-93598110D01*
X158239914Y-93665541D01*
X158210054Y-93620853D01*
X157728285Y-93298946D01*
X157160000Y-93185907D01*
X156591715Y-93298946D01*
X156109946Y-93620853D01*
X155788039Y-94102622D01*
X155675000Y-94670907D01*
X146035000Y-94670907D01*
X146035000Y-92730285D01*
X163206760Y-92730285D01*
X163417169Y-93239515D01*
X163806436Y-93629461D01*
X164315298Y-93840759D01*
X164866285Y-93841240D01*
X165375515Y-93630831D01*
X165765461Y-93241564D01*
X165976759Y-92732702D01*
X165977224Y-92200000D01*
X169202560Y-92200000D01*
X169202560Y-93900000D01*
X169246838Y-94135317D01*
X169385910Y-94351441D01*
X169598110Y-94496431D01*
X169706107Y-94518301D01*
X169428355Y-94823076D01*
X169258524Y-95233110D01*
X169379845Y-95463000D01*
X170573000Y-95463000D01*
X170573000Y-95443000D01*
X170827000Y-95443000D01*
X170827000Y-95463000D01*
X172020155Y-95463000D01*
X172141476Y-95233110D01*
X171971645Y-94823076D01*
X171695499Y-94520063D01*
X171785317Y-94503162D01*
X172001441Y-94364090D01*
X172146431Y-94151890D01*
X172197440Y-93900000D01*
X172197440Y-92200000D01*
X172153162Y-91964683D01*
X172014090Y-91748559D01*
X171801890Y-91603569D01*
X171550000Y-91552560D01*
X169850000Y-91552560D01*
X169614683Y-91596838D01*
X169398559Y-91735910D01*
X169253569Y-91948110D01*
X169202560Y-92200000D01*
X165977224Y-92200000D01*
X165977240Y-92181715D01*
X165766831Y-91672485D01*
X165377564Y-91282539D01*
X164868702Y-91071241D01*
X164317715Y-91070760D01*
X163808485Y-91281169D01*
X163418539Y-91670436D01*
X163207241Y-92179298D01*
X163206760Y-92730285D01*
X146035000Y-92730285D01*
X146035000Y-88412285D01*
X158380760Y-88412285D01*
X158591169Y-88921515D01*
X158980436Y-89311461D01*
X159489298Y-89522759D01*
X160040285Y-89523240D01*
X160549515Y-89312831D01*
X160939461Y-88923564D01*
X161150759Y-88414702D01*
X161151240Y-87863715D01*
X160940831Y-87354485D01*
X160551564Y-86964539D01*
X160042702Y-86753241D01*
X159491715Y-86752760D01*
X158982485Y-86963169D01*
X158592539Y-87352436D01*
X158381241Y-87861298D01*
X158380760Y-88412285D01*
X146035000Y-88412285D01*
X146035000Y-82010000D01*
X158235907Y-82010000D01*
X158348946Y-82578285D01*
X158670853Y-83060054D01*
X158712452Y-83087850D01*
X158664683Y-83096838D01*
X158448559Y-83235910D01*
X158303569Y-83448110D01*
X158252560Y-83700000D01*
X158252560Y-85400000D01*
X158296838Y-85635317D01*
X158435910Y-85851441D01*
X158648110Y-85996431D01*
X158900000Y-86047440D01*
X160600000Y-86047440D01*
X160835317Y-86003162D01*
X161051441Y-85864090D01*
X161196431Y-85651890D01*
X161247440Y-85400000D01*
X161247440Y-83700000D01*
X161203162Y-83464683D01*
X161064090Y-83248559D01*
X160851890Y-83103569D01*
X160784459Y-83089914D01*
X160829147Y-83060054D01*
X161048879Y-82731200D01*
X164302939Y-82731200D01*
X164465446Y-83548179D01*
X164928228Y-84240781D01*
X165620830Y-84703563D01*
X165658872Y-84711130D01*
X165620830Y-84718697D01*
X164928228Y-85181479D01*
X164465446Y-85874081D01*
X164302939Y-86691060D01*
X164465446Y-87508039D01*
X164928228Y-88200641D01*
X165620830Y-88663423D01*
X166437809Y-88825930D01*
X168562191Y-88825930D01*
X169379170Y-88663423D01*
X170071772Y-88200641D01*
X170534554Y-87508039D01*
X170697061Y-86691060D01*
X170534554Y-85874081D01*
X170071772Y-85181479D01*
X169379170Y-84718697D01*
X169341128Y-84711130D01*
X169379170Y-84703563D01*
X170071772Y-84240781D01*
X170534554Y-83548179D01*
X170697061Y-82731200D01*
X170534554Y-81914221D01*
X170071772Y-81221619D01*
X169379170Y-80758837D01*
X169266972Y-80736519D01*
X169435072Y-80692562D01*
X170100144Y-80188579D01*
X170521724Y-79468447D01*
X170585745Y-79227612D01*
X170472795Y-78895800D01*
X167627000Y-78895800D01*
X167627000Y-78915800D01*
X167373000Y-78915800D01*
X167373000Y-78895800D01*
X164527205Y-78895800D01*
X164414255Y-79227612D01*
X164478276Y-79468447D01*
X164899856Y-80188579D01*
X165564928Y-80692562D01*
X165733028Y-80736519D01*
X165620830Y-80758837D01*
X164928228Y-81221619D01*
X164465446Y-81914221D01*
X164302939Y-82731200D01*
X161048879Y-82731200D01*
X161151054Y-82578285D01*
X161264093Y-82010000D01*
X161151054Y-81441715D01*
X160829147Y-80959946D01*
X160347378Y-80638039D01*
X159779093Y-80525000D01*
X159720907Y-80525000D01*
X159152622Y-80638039D01*
X158670853Y-80959946D01*
X158348946Y-81441715D01*
X158235907Y-82010000D01*
X146035000Y-82010000D01*
X146035000Y-78657240D01*
X149424488Y-75267752D01*
X164414255Y-75267752D01*
X164478276Y-75508587D01*
X164899856Y-76228719D01*
X165564928Y-76732702D01*
X165779724Y-76788870D01*
X165564928Y-76845038D01*
X164899856Y-77349021D01*
X164478276Y-78069153D01*
X164414255Y-78309988D01*
X164527205Y-78641800D01*
X167373000Y-78641800D01*
X167373000Y-74935940D01*
X167627000Y-74935940D01*
X167627000Y-78641800D01*
X170472795Y-78641800D01*
X170585745Y-78309988D01*
X170521724Y-78069153D01*
X170100144Y-77349021D01*
X169435072Y-76845038D01*
X169220276Y-76788870D01*
X169435072Y-76732702D01*
X170100144Y-76228719D01*
X170521724Y-75508587D01*
X170585745Y-75267752D01*
X170472795Y-74935940D01*
X167627000Y-74935940D01*
X167373000Y-74935940D01*
X164527205Y-74935940D01*
X164414255Y-75267752D01*
X149424488Y-75267752D01*
X150342112Y-74350128D01*
X164414255Y-74350128D01*
X164527205Y-74681940D01*
X167373000Y-74681940D01*
X167373000Y-72674070D01*
X167627000Y-72674070D01*
X167627000Y-74681940D01*
X170472795Y-74681940D01*
X170585745Y-74350128D01*
X170521724Y-74109293D01*
X170100144Y-73389161D01*
X169435072Y-72885178D01*
X168627760Y-72674070D01*
X167627000Y-72674070D01*
X167373000Y-72674070D01*
X166372240Y-72674070D01*
X165564928Y-72885178D01*
X164899856Y-73389161D01*
X164478276Y-74109293D01*
X164414255Y-74350128D01*
X150342112Y-74350128D01*
X153857240Y-70835000D01*
X156910000Y-70835000D01*
X157535687Y-70710543D01*
X158049531Y-70367204D01*
X158135910Y-70501441D01*
X158348110Y-70646431D01*
X158600000Y-70697440D01*
X160300000Y-70697440D01*
X160535317Y-70653162D01*
X160751441Y-70514090D01*
X160896431Y-70301890D01*
X160947440Y-70050000D01*
X160947440Y-68350000D01*
X160903162Y-68114683D01*
X160764090Y-67898559D01*
X160551890Y-67753569D01*
X160300000Y-67702560D01*
X158600000Y-67702560D01*
X158364683Y-67746838D01*
X158148559Y-67885910D01*
X158048615Y-68032183D01*
X157535687Y-67689457D01*
X156910000Y-67565000D01*
X154027239Y-67565000D01*
X152756120Y-66293880D01*
X152756117Y-66293878D01*
X151896120Y-65433880D01*
X151896117Y-65433878D01*
X151001120Y-64538880D01*
X151001117Y-64538878D01*
X150066120Y-63603880D01*
X149535688Y-63249457D01*
X148910000Y-63124999D01*
X148909995Y-63125000D01*
X141448005Y-63125000D01*
X141448000Y-63124999D01*
X140822312Y-63249457D01*
X140557097Y-63426668D01*
X140291880Y-63603880D01*
X140291878Y-63603883D01*
X139554000Y-64341760D01*
X136006120Y-60793880D01*
X135475688Y-60439457D01*
X134850000Y-60314999D01*
X134849995Y-60315000D01*
X122800000Y-60315000D01*
X122297267Y-60415000D01*
X117782005Y-60415000D01*
X117782000Y-60414999D01*
X117156313Y-60539457D01*
X116625880Y-60893880D01*
X116625878Y-60893883D01*
X112127880Y-65391880D01*
X112127878Y-65391883D01*
X110857880Y-66661880D01*
X110857878Y-66661883D01*
X109587880Y-67931880D01*
X109587878Y-67931883D01*
X99231138Y-78288623D01*
X98953880Y-78473880D01*
X97141880Y-80285880D01*
X96956621Y-80563140D01*
X95463880Y-82055880D01*
X91016760Y-86503000D01*
X85598005Y-86503000D01*
X85598000Y-86502999D01*
X84972313Y-86627457D01*
X84441880Y-86981880D01*
X84441878Y-86981883D01*
X82663880Y-88759880D01*
X82309457Y-89290312D01*
X82184999Y-89916000D01*
X75057000Y-89916000D01*
X75057000Y-77610000D01*
X91185907Y-77610000D01*
X91298946Y-78178285D01*
X91620853Y-78660054D01*
X91662452Y-78687850D01*
X91614683Y-78696838D01*
X91398559Y-78835910D01*
X91253569Y-79048110D01*
X91202560Y-79300000D01*
X91202560Y-81000000D01*
X91246838Y-81235317D01*
X91385910Y-81451441D01*
X91598110Y-81596431D01*
X91850000Y-81647440D01*
X93550000Y-81647440D01*
X93785317Y-81603162D01*
X94001441Y-81464090D01*
X94146431Y-81251890D01*
X94197440Y-81000000D01*
X94197440Y-79300000D01*
X94153162Y-79064683D01*
X94014090Y-78848559D01*
X93801890Y-78703569D01*
X93734459Y-78689914D01*
X93779147Y-78660054D01*
X94101054Y-78178285D01*
X94214093Y-77610000D01*
X94101054Y-77041715D01*
X93779147Y-76559946D01*
X93297378Y-76238039D01*
X92729093Y-76125000D01*
X92670907Y-76125000D01*
X92102622Y-76238039D01*
X91620853Y-76559946D01*
X91298946Y-77041715D01*
X91185907Y-77610000D01*
X75057000Y-77610000D01*
X75057000Y-72829167D01*
X87964838Y-72829167D01*
X88106883Y-73172943D01*
X88369673Y-73436192D01*
X88611910Y-73536778D01*
X89325566Y-74250434D01*
X89596459Y-74431439D01*
X89916000Y-74495000D01*
X97028000Y-74495000D01*
X97347541Y-74431439D01*
X97618434Y-74250434D01*
X99055500Y-72813368D01*
X99284907Y-72859000D01*
X99343093Y-72859000D01*
X99911378Y-72745961D01*
X100393147Y-72424054D01*
X100584000Y-72138422D01*
X100774853Y-72424054D01*
X101256622Y-72745961D01*
X101824907Y-72859000D01*
X101883093Y-72859000D01*
X102451378Y-72745961D01*
X102933147Y-72424054D01*
X103043432Y-72259000D01*
X103123995Y-72259000D01*
X103124000Y-72259001D01*
X103412869Y-72201540D01*
X103462675Y-72191633D01*
X103749790Y-71999790D01*
X121332577Y-54417002D01*
X157813422Y-54417002D01*
X159632208Y-56235787D01*
X159632210Y-56235790D01*
X159919325Y-56427633D01*
X159975516Y-56438810D01*
X160258000Y-56495001D01*
X160258005Y-56495000D01*
X168438874Y-56495000D01*
X168555585Y-56669670D01*
X168569913Y-56679243D01*
X168548683Y-56683238D01*
X168332559Y-56822310D01*
X168187569Y-57034510D01*
X168136560Y-57286400D01*
X168136560Y-59013600D01*
X168180838Y-59248917D01*
X168319910Y-59465041D01*
X168532110Y-59610031D01*
X168784000Y-59661040D01*
X170816000Y-59661040D01*
X171051317Y-59616762D01*
X171267441Y-59477690D01*
X171412431Y-59265490D01*
X171463440Y-59013600D01*
X171463440Y-57286400D01*
X171419162Y-57051083D01*
X171280090Y-56834959D01*
X171067890Y-56689969D01*
X171026561Y-56681600D01*
X171044415Y-56669670D01*
X171369271Y-56183489D01*
X171483345Y-55610000D01*
X171369271Y-55036511D01*
X171044415Y-54550330D01*
X170729634Y-54340000D01*
X171044415Y-54129670D01*
X171369271Y-53643489D01*
X171483345Y-53070000D01*
X171369271Y-52496511D01*
X171044415Y-52010330D01*
X170729634Y-51800000D01*
X171044415Y-51589670D01*
X171369271Y-51103489D01*
X171483345Y-50530000D01*
X171369271Y-49956511D01*
X171044415Y-49470330D01*
X170558234Y-49145474D01*
X169984745Y-49031400D01*
X169615255Y-49031400D01*
X169041766Y-49145474D01*
X168555585Y-49470330D01*
X168438874Y-49645000D01*
X154702005Y-49645000D01*
X154702000Y-49644999D01*
X154419516Y-49701190D01*
X154363325Y-49712367D01*
X154076210Y-49904210D01*
X154076208Y-49904213D01*
X152033420Y-51947000D01*
X151904580Y-51947000D01*
X159904139Y-43947440D01*
X161000000Y-43947440D01*
X161235317Y-43903162D01*
X161451441Y-43764090D01*
X161454589Y-43759482D01*
X165364336Y-43759482D01*
X165946950Y-45169515D01*
X167024811Y-46249259D01*
X168433825Y-46834333D01*
X169959482Y-46835664D01*
X171369515Y-46253050D01*
X172449259Y-45175189D01*
X173034333Y-43766175D01*
X173035664Y-42240518D01*
X172453050Y-40830485D01*
X171375189Y-39750741D01*
X169966175Y-39165667D01*
X168440518Y-39164336D01*
X167030485Y-39746950D01*
X165950741Y-40824811D01*
X165365667Y-42233825D01*
X165364336Y-43759482D01*
X161454589Y-43759482D01*
X161596431Y-43551890D01*
X161647440Y-43300000D01*
X161647440Y-41600000D01*
X161603162Y-41364683D01*
X161464090Y-41148559D01*
X161251890Y-41003569D01*
X161000000Y-40952560D01*
X159300000Y-40952560D01*
X159064683Y-40996838D01*
X158848559Y-41135910D01*
X158703569Y-41348110D01*
X158689914Y-41415541D01*
X158660054Y-41370853D01*
X158178285Y-41048946D01*
X157610000Y-40935907D01*
X157041715Y-41048946D01*
X156559946Y-41370853D01*
X156340000Y-41700026D01*
X156120054Y-41370853D01*
X155638285Y-41048946D01*
X155070000Y-40935907D01*
X154501715Y-41048946D01*
X154019946Y-41370853D01*
X153800000Y-41700026D01*
X153580054Y-41370853D01*
X153098285Y-41048946D01*
X152530000Y-40935907D01*
X151961715Y-41048946D01*
X151479946Y-41370853D01*
X151158039Y-41852622D01*
X151045000Y-42420907D01*
X151045000Y-42479093D01*
X151158039Y-43047378D01*
X151479946Y-43529147D01*
X151961715Y-43851054D01*
X152530000Y-43964093D01*
X153098285Y-43851054D01*
X153580054Y-43529147D01*
X153800000Y-43199974D01*
X154019946Y-43529147D01*
X154501715Y-43851054D01*
X155070000Y-43964093D01*
X155638285Y-43851054D01*
X156120054Y-43529147D01*
X156340000Y-43199974D01*
X156559946Y-43529147D01*
X157041715Y-43851054D01*
X157421769Y-43926652D01*
X150417420Y-50931000D01*
X119888005Y-50931000D01*
X119888000Y-50930999D01*
X119605516Y-50987190D01*
X119549325Y-50998367D01*
X119262210Y-51190210D01*
X119262208Y-51190213D01*
X105043420Y-65409000D01*
X103043432Y-65409000D01*
X102933147Y-65243946D01*
X102451378Y-64922039D01*
X101883093Y-64809000D01*
X101824907Y-64809000D01*
X101256622Y-64922039D01*
X100774853Y-65243946D01*
X100774029Y-65245179D01*
X100767162Y-65208683D01*
X100628090Y-64992559D01*
X100415890Y-64847569D01*
X100164000Y-64796560D01*
X98464000Y-64796560D01*
X98228683Y-64840838D01*
X98012559Y-64979910D01*
X97867569Y-65192110D01*
X97816560Y-65444000D01*
X97816560Y-65459000D01*
X97282000Y-65459000D01*
X96962460Y-65522560D01*
X96691566Y-65703566D01*
X95929566Y-66465566D01*
X95748561Y-66736459D01*
X95685000Y-67056000D01*
X95685000Y-70012132D01*
X94650132Y-71047000D01*
X91023868Y-71047000D01*
X90808535Y-70831667D01*
X90709117Y-70591057D01*
X90446327Y-70327808D01*
X90102799Y-70185162D01*
X89730833Y-70184838D01*
X89387057Y-70326883D01*
X89123808Y-70589673D01*
X88981162Y-70933201D01*
X88981063Y-71046735D01*
X88879057Y-71088883D01*
X88615808Y-71351673D01*
X88473162Y-71695201D01*
X88473063Y-71808735D01*
X88371057Y-71850883D01*
X88107808Y-72113673D01*
X87965162Y-72457201D01*
X87964838Y-72829167D01*
X75057000Y-72829167D01*
X75057000Y-67760000D01*
X77385907Y-67760000D01*
X77498946Y-68328285D01*
X77820853Y-68810054D01*
X77862452Y-68837850D01*
X77814683Y-68846838D01*
X77598559Y-68985910D01*
X77453569Y-69198110D01*
X77402560Y-69450000D01*
X77402560Y-71150000D01*
X77446838Y-71385317D01*
X77585910Y-71601441D01*
X77798110Y-71746431D01*
X78050000Y-71797440D01*
X79750000Y-71797440D01*
X79985317Y-71753162D01*
X80201441Y-71614090D01*
X80346431Y-71401890D01*
X80397440Y-71150000D01*
X80397440Y-69450000D01*
X80353162Y-69214683D01*
X80214090Y-68998559D01*
X80001890Y-68853569D01*
X79934459Y-68839914D01*
X79979147Y-68810054D01*
X80301054Y-68328285D01*
X80414093Y-67760000D01*
X80301054Y-67191715D01*
X80120107Y-66920907D01*
X81625000Y-66920907D01*
X81625000Y-66979093D01*
X81738039Y-67547378D01*
X82059946Y-68029147D01*
X82541715Y-68351054D01*
X83110000Y-68464093D01*
X83678285Y-68351054D01*
X84160054Y-68029147D01*
X84187850Y-67987548D01*
X84196838Y-68035317D01*
X84335910Y-68251441D01*
X84548110Y-68396431D01*
X84800000Y-68447440D01*
X86500000Y-68447440D01*
X86735317Y-68403162D01*
X86951441Y-68264090D01*
X87096431Y-68051890D01*
X87147440Y-67800000D01*
X87147440Y-66100000D01*
X87103162Y-65864683D01*
X86964090Y-65648559D01*
X86751890Y-65503569D01*
X86500000Y-65452560D01*
X84800000Y-65452560D01*
X84564683Y-65496838D01*
X84348559Y-65635910D01*
X84203569Y-65848110D01*
X84189914Y-65915541D01*
X84160054Y-65870853D01*
X83678285Y-65548946D01*
X83110000Y-65435907D01*
X82541715Y-65548946D01*
X82059946Y-65870853D01*
X81738039Y-66352622D01*
X81625000Y-66920907D01*
X80120107Y-66920907D01*
X79979147Y-66709946D01*
X79497378Y-66388039D01*
X78929093Y-66275000D01*
X78870907Y-66275000D01*
X78302622Y-66388039D01*
X77820853Y-66709946D01*
X77498946Y-67191715D01*
X77385907Y-67760000D01*
X75057000Y-67760000D01*
X75057000Y-63020907D01*
X81625000Y-63020907D01*
X81625000Y-63079093D01*
X81738039Y-63647378D01*
X82059946Y-64129147D01*
X82541715Y-64451054D01*
X83110000Y-64564093D01*
X83678285Y-64451054D01*
X84160054Y-64129147D01*
X84187850Y-64087548D01*
X84196838Y-64135317D01*
X84335910Y-64351441D01*
X84548110Y-64496431D01*
X84800000Y-64547440D01*
X86500000Y-64547440D01*
X86735317Y-64503162D01*
X86951441Y-64364090D01*
X87096431Y-64151890D01*
X87147440Y-63900000D01*
X87147440Y-62200000D01*
X87103162Y-61964683D01*
X86964090Y-61748559D01*
X86751890Y-61603569D01*
X86500000Y-61552560D01*
X84800000Y-61552560D01*
X84564683Y-61596838D01*
X84348559Y-61735910D01*
X84203569Y-61948110D01*
X84189914Y-62015541D01*
X84160054Y-61970853D01*
X83678285Y-61648946D01*
X83110000Y-61535907D01*
X82541715Y-61648946D01*
X82059946Y-61970853D01*
X81738039Y-62452622D01*
X81625000Y-63020907D01*
X75057000Y-63020907D01*
X75057000Y-60174285D01*
X81864760Y-60174285D01*
X82075169Y-60683515D01*
X82464436Y-61073461D01*
X82973298Y-61284759D01*
X83524285Y-61285240D01*
X84033515Y-61074831D01*
X84423461Y-60685564D01*
X84634759Y-60176702D01*
X84635240Y-59625715D01*
X84424831Y-59116485D01*
X84035564Y-58726539D01*
X83526702Y-58515241D01*
X82975715Y-58514760D01*
X82466485Y-58725169D01*
X82076539Y-59114436D01*
X81865241Y-59623298D01*
X81864760Y-60174285D01*
X75057000Y-60174285D01*
X75057000Y-55200000D01*
X76052560Y-55200000D01*
X76052560Y-56900000D01*
X76096838Y-57135317D01*
X76235910Y-57351441D01*
X76448110Y-57496431D01*
X76700000Y-57547440D01*
X78400000Y-57547440D01*
X78635317Y-57503162D01*
X78851441Y-57364090D01*
X78996431Y-57151890D01*
X79010086Y-57084459D01*
X79039946Y-57129147D01*
X79521715Y-57451054D01*
X80090000Y-57564093D01*
X80658285Y-57451054D01*
X81140054Y-57129147D01*
X81452000Y-56662285D01*
X99198760Y-56662285D01*
X99409169Y-57171515D01*
X99798436Y-57561461D01*
X100307298Y-57772759D01*
X100858285Y-57773240D01*
X101367515Y-57562831D01*
X101757461Y-57173564D01*
X101968759Y-56664702D01*
X101969240Y-56113715D01*
X101758831Y-55604485D01*
X101369564Y-55214539D01*
X100860702Y-55003241D01*
X100309715Y-55002760D01*
X99800485Y-55213169D01*
X99410539Y-55602436D01*
X99199241Y-56111298D01*
X99198760Y-56662285D01*
X81452000Y-56662285D01*
X81461961Y-56647378D01*
X81575000Y-56079093D01*
X81575000Y-56020907D01*
X81461961Y-55452622D01*
X81140054Y-54970853D01*
X80658285Y-54648946D01*
X80090000Y-54535907D01*
X79521715Y-54648946D01*
X79039946Y-54970853D01*
X79012150Y-55012452D01*
X79003162Y-54964683D01*
X78864090Y-54748559D01*
X78651890Y-54603569D01*
X78400000Y-54552560D01*
X76700000Y-54552560D01*
X76464683Y-54596838D01*
X76248559Y-54735910D01*
X76103569Y-54948110D01*
X76052560Y-55200000D01*
X75057000Y-55200000D01*
X75057000Y-43759482D01*
X75364336Y-43759482D01*
X75946950Y-45169515D01*
X77024811Y-46249259D01*
X78433825Y-46834333D01*
X79959482Y-46835664D01*
X81369515Y-46253050D01*
X82449259Y-45175189D01*
X83034333Y-43766175D01*
X83034441Y-43641809D01*
X83364070Y-43641809D01*
X83364070Y-45766191D01*
X83526577Y-46583170D01*
X83989359Y-47275772D01*
X84681961Y-47738554D01*
X85498940Y-47901061D01*
X86315919Y-47738554D01*
X87008521Y-47275772D01*
X87471303Y-46583170D01*
X87478870Y-46545128D01*
X87486437Y-46583170D01*
X87949219Y-47275772D01*
X88641821Y-47738554D01*
X89458800Y-47901061D01*
X90275779Y-47738554D01*
X90968381Y-47275772D01*
X91431163Y-46583170D01*
X91453481Y-46470972D01*
X91497438Y-46639072D01*
X92001421Y-47304144D01*
X92721553Y-47725724D01*
X92962388Y-47789745D01*
X93294200Y-47676795D01*
X93294200Y-44831000D01*
X93548200Y-44831000D01*
X93548200Y-47676795D01*
X93880012Y-47789745D01*
X94120847Y-47725724D01*
X94840979Y-47304144D01*
X95344962Y-46639072D01*
X95401130Y-46424276D01*
X95457298Y-46639072D01*
X95961281Y-47304144D01*
X96681413Y-47725724D01*
X96922248Y-47789745D01*
X97254060Y-47676795D01*
X97254060Y-44831000D01*
X97508060Y-44831000D01*
X97508060Y-47676795D01*
X97839872Y-47789745D01*
X98080707Y-47725724D01*
X98800839Y-47304144D01*
X99304822Y-46639072D01*
X99515930Y-45831760D01*
X99515930Y-44831000D01*
X97508060Y-44831000D01*
X97254060Y-44831000D01*
X93548200Y-44831000D01*
X93294200Y-44831000D01*
X93274200Y-44831000D01*
X93274200Y-44577000D01*
X93294200Y-44577000D01*
X93294200Y-41731205D01*
X93548200Y-41731205D01*
X93548200Y-44577000D01*
X97254060Y-44577000D01*
X97254060Y-41731205D01*
X97508060Y-41731205D01*
X97508060Y-44577000D01*
X99515930Y-44577000D01*
X99515930Y-43576240D01*
X99304822Y-42768928D01*
X98800839Y-42103856D01*
X98080707Y-41682276D01*
X97839872Y-41618255D01*
X97508060Y-41731205D01*
X97254060Y-41731205D01*
X96922248Y-41618255D01*
X96681413Y-41682276D01*
X95961281Y-42103856D01*
X95457298Y-42768928D01*
X95401130Y-42983724D01*
X95344962Y-42768928D01*
X94840979Y-42103856D01*
X94120847Y-41682276D01*
X93880012Y-41618255D01*
X93548200Y-41731205D01*
X93294200Y-41731205D01*
X92962388Y-41618255D01*
X92721553Y-41682276D01*
X92001421Y-42103856D01*
X91497438Y-42768928D01*
X91453481Y-42937028D01*
X91431163Y-42824830D01*
X90968381Y-42132228D01*
X90275779Y-41669446D01*
X89458800Y-41506939D01*
X88641821Y-41669446D01*
X87949219Y-42132228D01*
X87486437Y-42824830D01*
X87478870Y-42862872D01*
X87471303Y-42824830D01*
X87008521Y-42132228D01*
X86315919Y-41669446D01*
X85498940Y-41506939D01*
X84681961Y-41669446D01*
X83989359Y-42132228D01*
X83526577Y-42824830D01*
X83364070Y-43641809D01*
X83034441Y-43641809D01*
X83035664Y-42240518D01*
X82677175Y-41372907D01*
X100369000Y-41372907D01*
X100369000Y-41431093D01*
X100482039Y-41999378D01*
X100803946Y-42481147D01*
X101285715Y-42803054D01*
X101854000Y-42916093D01*
X102422285Y-42803054D01*
X102904054Y-42481147D01*
X103124000Y-42151974D01*
X103343946Y-42481147D01*
X103825715Y-42803054D01*
X104394000Y-42916093D01*
X104962285Y-42803054D01*
X105444054Y-42481147D01*
X105471850Y-42439548D01*
X105480838Y-42487317D01*
X105619910Y-42703441D01*
X105832110Y-42848431D01*
X106084000Y-42899440D01*
X107784000Y-42899440D01*
X108019317Y-42855162D01*
X108235441Y-42716090D01*
X108380431Y-42503890D01*
X108431440Y-42252000D01*
X108431440Y-40552000D01*
X108390421Y-40334000D01*
X111088960Y-40334000D01*
X111088960Y-42366000D01*
X111133238Y-42601317D01*
X111272310Y-42817441D01*
X111484510Y-42962431D01*
X111736400Y-43013440D01*
X113463600Y-43013440D01*
X113698917Y-42969162D01*
X113915041Y-42830090D01*
X114060031Y-42617890D01*
X114068400Y-42576561D01*
X114080330Y-42594415D01*
X114566511Y-42919271D01*
X115140000Y-43033345D01*
X115713489Y-42919271D01*
X116199670Y-42594415D01*
X116406461Y-42284931D01*
X116777964Y-42700732D01*
X117305209Y-42954709D01*
X117320974Y-42957358D01*
X117553000Y-42836217D01*
X117553000Y-41477000D01*
X117807000Y-41477000D01*
X117807000Y-42836217D01*
X118039026Y-42957358D01*
X118054791Y-42954709D01*
X118582036Y-42700732D01*
X118971954Y-42264320D01*
X119165184Y-41711913D01*
X119020924Y-41477000D01*
X117807000Y-41477000D01*
X117553000Y-41477000D01*
X117533000Y-41477000D01*
X117533000Y-41223000D01*
X117553000Y-41223000D01*
X117553000Y-39863783D01*
X117807000Y-39863783D01*
X117807000Y-41223000D01*
X119020924Y-41223000D01*
X119165184Y-40988087D01*
X118971954Y-40435680D01*
X118949010Y-40410000D01*
X123132041Y-40410000D01*
X123246115Y-40983489D01*
X123570971Y-41469670D01*
X123885752Y-41680000D01*
X123570971Y-41890330D01*
X123246115Y-42376511D01*
X123132041Y-42950000D01*
X123246115Y-43523489D01*
X123570971Y-44009670D01*
X124057152Y-44334526D01*
X124630641Y-44448600D01*
X124689359Y-44448600D01*
X125262848Y-44334526D01*
X125728442Y-44023426D01*
X125733238Y-44048917D01*
X125872310Y-44265041D01*
X126084510Y-44410031D01*
X126336400Y-44461040D01*
X128063600Y-44461040D01*
X128298917Y-44416762D01*
X128515041Y-44277690D01*
X128660031Y-44065490D01*
X128711040Y-43813600D01*
X128711040Y-43690000D01*
X136572041Y-43690000D01*
X136686115Y-44263489D01*
X137010971Y-44749670D01*
X137497152Y-45074526D01*
X138070641Y-45188600D01*
X138129359Y-45188600D01*
X138702848Y-45074526D01*
X139189029Y-44749670D01*
X139370000Y-44478828D01*
X139550971Y-44749670D01*
X140037152Y-45074526D01*
X140610641Y-45188600D01*
X140669359Y-45188600D01*
X141242848Y-45074526D01*
X141729029Y-44749670D01*
X141910000Y-44478828D01*
X142090971Y-44749670D01*
X142577152Y-45074526D01*
X143150641Y-45188600D01*
X143209359Y-45188600D01*
X143782848Y-45074526D01*
X144269029Y-44749670D01*
X144450000Y-44478828D01*
X144630971Y-44749670D01*
X145117152Y-45074526D01*
X145690641Y-45188600D01*
X145749359Y-45188600D01*
X146322848Y-45074526D01*
X146809029Y-44749670D01*
X147133885Y-44263489D01*
X147247959Y-43690000D01*
X147133885Y-43116511D01*
X146809029Y-42630330D01*
X146494248Y-42420000D01*
X146809029Y-42209670D01*
X147133885Y-41723489D01*
X147247959Y-41150000D01*
X147133885Y-40576511D01*
X146809029Y-40090330D01*
X146322848Y-39765474D01*
X145749359Y-39651400D01*
X145690641Y-39651400D01*
X145117152Y-39765474D01*
X144630971Y-40090330D01*
X144450000Y-40361172D01*
X144269029Y-40090330D01*
X143782848Y-39765474D01*
X143209359Y-39651400D01*
X143150641Y-39651400D01*
X142577152Y-39765474D01*
X142090971Y-40090330D01*
X141910000Y-40361172D01*
X141729029Y-40090330D01*
X141242848Y-39765474D01*
X140669359Y-39651400D01*
X140610641Y-39651400D01*
X140037152Y-39765474D01*
X139571558Y-40076574D01*
X139566762Y-40051083D01*
X139427690Y-39834959D01*
X139215490Y-39689969D01*
X138963600Y-39638960D01*
X137236400Y-39638960D01*
X137001083Y-39683238D01*
X136784959Y-39822310D01*
X136639969Y-40034510D01*
X136588960Y-40286400D01*
X136588960Y-42013600D01*
X136633238Y-42248917D01*
X136772310Y-42465041D01*
X136984510Y-42610031D01*
X137028131Y-42618864D01*
X137010971Y-42630330D01*
X136686115Y-43116511D01*
X136572041Y-43690000D01*
X128711040Y-43690000D01*
X128711040Y-42086400D01*
X128666762Y-41851083D01*
X128527690Y-41634959D01*
X128315490Y-41489969D01*
X128271869Y-41481136D01*
X128289029Y-41469670D01*
X128613885Y-40983489D01*
X128727959Y-40410000D01*
X128613885Y-39836511D01*
X128289029Y-39350330D01*
X127802848Y-39025474D01*
X127229359Y-38911400D01*
X127170641Y-38911400D01*
X126597152Y-39025474D01*
X126110971Y-39350330D01*
X125930000Y-39621172D01*
X125749029Y-39350330D01*
X125262848Y-39025474D01*
X124689359Y-38911400D01*
X124630641Y-38911400D01*
X124057152Y-39025474D01*
X123570971Y-39350330D01*
X123246115Y-39836511D01*
X123132041Y-40410000D01*
X118949010Y-40410000D01*
X118582036Y-39999268D01*
X118054791Y-39745291D01*
X118039026Y-39742642D01*
X117807000Y-39863783D01*
X117553000Y-39863783D01*
X117320974Y-39742642D01*
X117305209Y-39745291D01*
X116777964Y-39999268D01*
X116406461Y-40415069D01*
X116199670Y-40105585D01*
X115713489Y-39780729D01*
X115140000Y-39666655D01*
X114566511Y-39780729D01*
X114080330Y-40105585D01*
X114070757Y-40119913D01*
X114066762Y-40098683D01*
X113927690Y-39882559D01*
X113715490Y-39737569D01*
X113463600Y-39686560D01*
X111736400Y-39686560D01*
X111501083Y-39730838D01*
X111284959Y-39869910D01*
X111139969Y-40082110D01*
X111088960Y-40334000D01*
X108390421Y-40334000D01*
X108387162Y-40316683D01*
X108248090Y-40100559D01*
X108035890Y-39955569D01*
X107784000Y-39904560D01*
X106084000Y-39904560D01*
X105848683Y-39948838D01*
X105632559Y-40087910D01*
X105487569Y-40300110D01*
X105473914Y-40367541D01*
X105444054Y-40322853D01*
X104962285Y-40000946D01*
X104394000Y-39887907D01*
X103825715Y-40000946D01*
X103343946Y-40322853D01*
X103124000Y-40652026D01*
X102904054Y-40322853D01*
X102422285Y-40000946D01*
X101854000Y-39887907D01*
X101285715Y-40000946D01*
X100803946Y-40322853D01*
X100482039Y-40804622D01*
X100369000Y-41372907D01*
X82677175Y-41372907D01*
X82453050Y-40830485D01*
X81375189Y-39750741D01*
X79966175Y-39165667D01*
X78440518Y-39164336D01*
X77030485Y-39746950D01*
X75950741Y-40824811D01*
X75365667Y-42233825D01*
X75364336Y-43759482D01*
X75057000Y-43759482D01*
X75057000Y-38735000D01*
X173355000Y-38735000D01*
X173355000Y-137033326D01*
M02*
