G04 #@! TF.FileFunction,Other,Fab,Bot*
%FSLAX46Y46*%
G04 Gerber Fmt 4.6, Leading zero omitted, Abs format (unit mm)*
G04 Created by KiCad (PCBNEW 4.0.2-stable) date 10/05/17 15:38:04*
%MOMM*%
G01*
G04 APERTURE LIST*
%ADD10C,0.100000*%
%ADD11C,0.150000*%
%ADD12C,0.075000*%
G04 APERTURE END LIST*
D10*
X171485000Y-122080000D02*
X173390000Y-122080000D01*
X173390000Y-122080000D02*
X173390000Y-127160000D01*
X173390000Y-127160000D02*
X170850000Y-127160000D01*
X170850000Y-127160000D02*
X170850000Y-122715000D01*
X170850000Y-122715000D02*
X171485000Y-122080000D01*
X169030000Y-123030000D02*
X170850000Y-123030000D01*
X169030000Y-123030000D02*
X169030000Y-123670000D01*
X169030000Y-123670000D02*
X170850000Y-123670000D01*
X173390000Y-123030000D02*
X175850000Y-123030000D01*
X175850000Y-123030000D02*
X175850000Y-123670000D01*
X173390000Y-123670000D02*
X175850000Y-123670000D01*
X169030000Y-125570000D02*
X170850000Y-125570000D01*
X169030000Y-125570000D02*
X169030000Y-126210000D01*
X169030000Y-126210000D02*
X170850000Y-126210000D01*
X173390000Y-125570000D02*
X175850000Y-125570000D01*
X175850000Y-125570000D02*
X175850000Y-126210000D01*
X173390000Y-126210000D02*
X175850000Y-126210000D01*
X83865000Y-127070000D02*
X81960000Y-127070000D01*
X81960000Y-127070000D02*
X81960000Y-121990000D01*
X81960000Y-121990000D02*
X84500000Y-121990000D01*
X84500000Y-121990000D02*
X84500000Y-126435000D01*
X84500000Y-126435000D02*
X83865000Y-127070000D01*
X86320000Y-126120000D02*
X84500000Y-126120000D01*
X86320000Y-126120000D02*
X86320000Y-125480000D01*
X86320000Y-125480000D02*
X84500000Y-125480000D01*
X81960000Y-126120000D02*
X79500000Y-126120000D01*
X79500000Y-126120000D02*
X79500000Y-125480000D01*
X81960000Y-125480000D02*
X79500000Y-125480000D01*
X86320000Y-123580000D02*
X84500000Y-123580000D01*
X86320000Y-123580000D02*
X86320000Y-122940000D01*
X86320000Y-122940000D02*
X84500000Y-122940000D01*
X81960000Y-123580000D02*
X79500000Y-123580000D01*
X79500000Y-123580000D02*
X79500000Y-122940000D01*
X81960000Y-122940000D02*
X79500000Y-122940000D01*
X131450000Y-140630000D02*
X131450000Y-141650000D01*
X131570000Y-141770000D02*
X125230000Y-141770000D01*
X125230000Y-135430000D02*
X125230000Y-141770000D01*
X131570000Y-135430000D02*
X125230000Y-135430000D01*
X131570000Y-135430000D02*
X131570000Y-141770000D01*
X131450000Y-136570000D02*
X130430000Y-136570000D01*
X130430000Y-135550000D02*
X130430000Y-136570000D01*
X126370000Y-136570000D02*
X125350000Y-136570000D01*
X126370000Y-135550000D02*
X126370000Y-136570000D01*
X131450000Y-140630000D02*
X130430000Y-140630000D01*
X130430000Y-140630000D02*
X130430000Y-141650000D01*
X126370000Y-141650000D02*
X126370000Y-140630000D01*
X126370000Y-140630000D02*
X125350000Y-140630000D01*
X130440000Y-138600000D02*
G75*
G03X130440000Y-138600000I-2040000J0D01*
G01*
X129035000Y-138600000D02*
G75*
G03X129035000Y-138600000I-635000J0D01*
G01*
X131450000Y-141650000D02*
X130430000Y-141650000D01*
X131450000Y-135550000D02*
X130430000Y-135550000D01*
X131450000Y-135550000D02*
X131450000Y-136570000D01*
X125350000Y-135550000D02*
X125350000Y-136570000D01*
X125350000Y-135550000D02*
X126370000Y-135550000D01*
X126370000Y-141650000D02*
X125350000Y-141650000D01*
X125350000Y-140630000D02*
X125350000Y-141650000D01*
X104760000Y-104156000D02*
X103520000Y-104156000D01*
X104760000Y-106156000D02*
X104760000Y-104156000D01*
X103520000Y-106156000D02*
X104760000Y-106156000D01*
X103520000Y-104156000D02*
X103520000Y-106156000D01*
X108570000Y-104156000D02*
X107330000Y-104156000D01*
X108570000Y-106156000D02*
X108570000Y-104156000D01*
X107330000Y-106156000D02*
X108570000Y-106156000D01*
X107330000Y-104156000D02*
X107330000Y-106156000D01*
X123556000Y-104156000D02*
X122316000Y-104156000D01*
X123556000Y-106156000D02*
X123556000Y-104156000D01*
X122316000Y-106156000D02*
X123556000Y-106156000D01*
X122316000Y-104156000D02*
X122316000Y-106156000D01*
X127620000Y-104156000D02*
X126380000Y-104156000D01*
X127620000Y-106156000D02*
X127620000Y-104156000D01*
X126380000Y-106156000D02*
X127620000Y-106156000D01*
X126380000Y-104156000D02*
X126380000Y-106156000D01*
X142352000Y-104156000D02*
X141112000Y-104156000D01*
X142352000Y-106156000D02*
X142352000Y-104156000D01*
X141112000Y-106156000D02*
X142352000Y-106156000D01*
X141112000Y-104156000D02*
X141112000Y-106156000D01*
X146162000Y-104156000D02*
X144922000Y-104156000D01*
X146162000Y-106156000D02*
X146162000Y-104156000D01*
X144922000Y-106156000D02*
X146162000Y-106156000D01*
X144922000Y-104156000D02*
X144922000Y-106156000D01*
X161402000Y-104156000D02*
X160162000Y-104156000D01*
X161402000Y-106156000D02*
X161402000Y-104156000D01*
X160162000Y-106156000D02*
X161402000Y-106156000D01*
X160162000Y-104156000D02*
X160162000Y-106156000D01*
X165212000Y-104156000D02*
X163972000Y-104156000D01*
X165212000Y-106156000D02*
X165212000Y-104156000D01*
X163972000Y-106156000D02*
X165212000Y-106156000D01*
X163972000Y-104156000D02*
X163972000Y-106156000D01*
D11*
X176328571Y-120804762D02*
X176185714Y-120852381D01*
X175947618Y-120852381D01*
X175852380Y-120804762D01*
X175804761Y-120757143D01*
X175757142Y-120661905D01*
X175757142Y-120566667D01*
X175804761Y-120471429D01*
X175852380Y-120423810D01*
X175947618Y-120376190D01*
X176138095Y-120328571D01*
X176233333Y-120280952D01*
X176280952Y-120233333D01*
X176328571Y-120138095D01*
X176328571Y-120042857D01*
X176280952Y-119947619D01*
X176233333Y-119900000D01*
X176138095Y-119852381D01*
X175899999Y-119852381D01*
X175757142Y-119900000D01*
X175328571Y-120852381D02*
X175328571Y-119852381D01*
X174328571Y-119900000D02*
X174423809Y-119852381D01*
X174566666Y-119852381D01*
X174709524Y-119900000D01*
X174804762Y-119995238D01*
X174852381Y-120090476D01*
X174900000Y-120280952D01*
X174900000Y-120423810D01*
X174852381Y-120614286D01*
X174804762Y-120709524D01*
X174709524Y-120804762D01*
X174566666Y-120852381D01*
X174471428Y-120852381D01*
X174328571Y-120804762D01*
X174280952Y-120757143D01*
X174280952Y-120423810D01*
X174471428Y-120423810D01*
X173852381Y-120852381D02*
X173852381Y-119852381D01*
X173280952Y-120852381D01*
X173280952Y-119852381D01*
X172852381Y-120566667D02*
X172376190Y-120566667D01*
X172947619Y-120852381D02*
X172614286Y-119852381D01*
X172280952Y-120852381D01*
X171471428Y-120852381D02*
X171947619Y-120852381D01*
X171947619Y-119852381D01*
X171376190Y-120947619D02*
X170614285Y-120947619D01*
X170376190Y-120852381D02*
X170376190Y-119852381D01*
X169900000Y-120852381D02*
X169900000Y-119852381D01*
X169328571Y-120852381D01*
X169328571Y-119852381D01*
X168852381Y-120852381D02*
X168852381Y-119852381D01*
X168471428Y-119852381D01*
X168376190Y-119900000D01*
X168328571Y-119947619D01*
X168280952Y-120042857D01*
X168280952Y-120185714D01*
X168328571Y-120280952D01*
X168376190Y-120328571D01*
X168471428Y-120376190D01*
X168852381Y-120376190D01*
X167852381Y-119852381D02*
X167852381Y-120661905D01*
X167804762Y-120757143D01*
X167757143Y-120804762D01*
X167661905Y-120852381D01*
X167471428Y-120852381D01*
X167376190Y-120804762D01*
X167328571Y-120757143D01*
X167280952Y-120661905D01*
X167280952Y-119852381D01*
X166947619Y-119852381D02*
X166376190Y-119852381D01*
X166661905Y-120852381D02*
X166661905Y-119852381D01*
X172572381Y-123881905D02*
X171572381Y-123881905D01*
X171572381Y-124262858D01*
X171620000Y-124358096D01*
X171667619Y-124405715D01*
X171762857Y-124453334D01*
X171905714Y-124453334D01*
X172000952Y-124405715D01*
X172048571Y-124358096D01*
X172096190Y-124262858D01*
X172096190Y-123881905D01*
X171572381Y-124786667D02*
X171572381Y-125453334D01*
X172572381Y-125024762D01*
X89378571Y-121254762D02*
X89235714Y-121302381D01*
X88997618Y-121302381D01*
X88902380Y-121254762D01*
X88854761Y-121207143D01*
X88807142Y-121111905D01*
X88807142Y-121016667D01*
X88854761Y-120921429D01*
X88902380Y-120873810D01*
X88997618Y-120826190D01*
X89188095Y-120778571D01*
X89283333Y-120730952D01*
X89330952Y-120683333D01*
X89378571Y-120588095D01*
X89378571Y-120492857D01*
X89330952Y-120397619D01*
X89283333Y-120350000D01*
X89188095Y-120302381D01*
X88949999Y-120302381D01*
X88807142Y-120350000D01*
X88378571Y-121302381D02*
X88378571Y-120302381D01*
X87378571Y-120350000D02*
X87473809Y-120302381D01*
X87616666Y-120302381D01*
X87759524Y-120350000D01*
X87854762Y-120445238D01*
X87902381Y-120540476D01*
X87950000Y-120730952D01*
X87950000Y-120873810D01*
X87902381Y-121064286D01*
X87854762Y-121159524D01*
X87759524Y-121254762D01*
X87616666Y-121302381D01*
X87521428Y-121302381D01*
X87378571Y-121254762D01*
X87330952Y-121207143D01*
X87330952Y-120873810D01*
X87521428Y-120873810D01*
X86902381Y-121302381D02*
X86902381Y-120302381D01*
X86330952Y-121302381D01*
X86330952Y-120302381D01*
X85902381Y-121016667D02*
X85426190Y-121016667D01*
X85997619Y-121302381D02*
X85664286Y-120302381D01*
X85330952Y-121302381D01*
X84521428Y-121302381D02*
X84997619Y-121302381D01*
X84997619Y-120302381D01*
X84426190Y-121397619D02*
X83664285Y-121397619D01*
X83426190Y-121302381D02*
X83426190Y-120302381D01*
X82950000Y-121302381D02*
X82950000Y-120302381D01*
X82378571Y-121302381D01*
X82378571Y-120302381D01*
X81902381Y-121302381D02*
X81902381Y-120302381D01*
X81521428Y-120302381D01*
X81426190Y-120350000D01*
X81378571Y-120397619D01*
X81330952Y-120492857D01*
X81330952Y-120635714D01*
X81378571Y-120730952D01*
X81426190Y-120778571D01*
X81521428Y-120826190D01*
X81902381Y-120826190D01*
X80902381Y-120302381D02*
X80902381Y-121111905D01*
X80854762Y-121207143D01*
X80807143Y-121254762D01*
X80711905Y-121302381D01*
X80521428Y-121302381D01*
X80426190Y-121254762D01*
X80378571Y-121207143D01*
X80330952Y-121111905D01*
X80330952Y-120302381D01*
X79997619Y-120302381D02*
X79426190Y-120302381D01*
X79711905Y-121302381D02*
X79711905Y-120302381D01*
X83682381Y-123315714D02*
X82682381Y-123315714D01*
X82682381Y-123696667D01*
X82730000Y-123791905D01*
X82777619Y-123839524D01*
X82872857Y-123887143D01*
X83015714Y-123887143D01*
X83110952Y-123839524D01*
X83158571Y-123791905D01*
X83206190Y-123696667D01*
X83206190Y-123315714D01*
X83682381Y-124839524D02*
X83682381Y-124268095D01*
X83682381Y-124553809D02*
X82682381Y-124553809D01*
X82825238Y-124458571D01*
X82920476Y-124363333D01*
X82968095Y-124268095D01*
X83682381Y-125791905D02*
X83682381Y-125220476D01*
X83682381Y-125506190D02*
X82682381Y-125506190D01*
X82825238Y-125410952D01*
X82920476Y-125315714D01*
X82968095Y-125220476D01*
X123804762Y-131814286D02*
X123852381Y-131957143D01*
X123852381Y-132195239D01*
X123804762Y-132290477D01*
X123757143Y-132338096D01*
X123661905Y-132385715D01*
X123566667Y-132385715D01*
X123471429Y-132338096D01*
X123423810Y-132290477D01*
X123376190Y-132195239D01*
X123328571Y-132004762D01*
X123280952Y-131909524D01*
X123233333Y-131861905D01*
X123138095Y-131814286D01*
X123042857Y-131814286D01*
X122947619Y-131861905D01*
X122900000Y-131909524D01*
X122852381Y-132004762D01*
X122852381Y-132242858D01*
X122900000Y-132385715D01*
X123852381Y-132814286D02*
X122852381Y-132814286D01*
X122900000Y-133814286D02*
X122852381Y-133719048D01*
X122852381Y-133576191D01*
X122900000Y-133433333D01*
X122995238Y-133338095D01*
X123090476Y-133290476D01*
X123280952Y-133242857D01*
X123423810Y-133242857D01*
X123614286Y-133290476D01*
X123709524Y-133338095D01*
X123804762Y-133433333D01*
X123852381Y-133576191D01*
X123852381Y-133671429D01*
X123804762Y-133814286D01*
X123757143Y-133861905D01*
X123423810Y-133861905D01*
X123423810Y-133671429D01*
X123852381Y-134290476D02*
X122852381Y-134290476D01*
X123852381Y-134861905D01*
X122852381Y-134861905D01*
X123566667Y-135290476D02*
X123566667Y-135766667D01*
X123852381Y-135195238D02*
X122852381Y-135528571D01*
X123852381Y-135861905D01*
X123852381Y-136671429D02*
X123852381Y-136195238D01*
X122852381Y-136195238D01*
X123947619Y-136766667D02*
X123947619Y-137528572D01*
X123852381Y-137766667D02*
X122852381Y-137766667D01*
X123852381Y-138242857D02*
X122852381Y-138242857D01*
X123852381Y-138814286D01*
X122852381Y-138814286D01*
X123852381Y-139290476D02*
X122852381Y-139290476D01*
X122852381Y-139671429D01*
X122900000Y-139766667D01*
X122947619Y-139814286D01*
X123042857Y-139861905D01*
X123185714Y-139861905D01*
X123280952Y-139814286D01*
X123328571Y-139766667D01*
X123376190Y-139671429D01*
X123376190Y-139290476D01*
X122852381Y-140290476D02*
X123661905Y-140290476D01*
X123757143Y-140338095D01*
X123804762Y-140385714D01*
X123852381Y-140480952D01*
X123852381Y-140671429D01*
X123804762Y-140766667D01*
X123757143Y-140814286D01*
X123661905Y-140861905D01*
X122852381Y-140861905D01*
X122852381Y-141195238D02*
X122852381Y-141766667D01*
X123852381Y-141480952D02*
X122852381Y-141480952D01*
X123947619Y-141861905D02*
X123947619Y-142623810D01*
X123804762Y-142814286D02*
X123852381Y-142957143D01*
X123852381Y-143195239D01*
X123804762Y-143290477D01*
X123757143Y-143338096D01*
X123661905Y-143385715D01*
X123566667Y-143385715D01*
X123471429Y-143338096D01*
X123423810Y-143290477D01*
X123376190Y-143195239D01*
X123328571Y-143004762D01*
X123280952Y-142909524D01*
X123233333Y-142861905D01*
X123138095Y-142814286D01*
X123042857Y-142814286D01*
X122947619Y-142861905D01*
X122900000Y-142909524D01*
X122852381Y-143004762D01*
X122852381Y-143242858D01*
X122900000Y-143385715D01*
X123852381Y-143814286D02*
X122852381Y-143814286D01*
X123566667Y-144147620D01*
X122852381Y-144480953D01*
X123852381Y-144480953D01*
X123566667Y-144909524D02*
X123566667Y-145385715D01*
X123852381Y-144814286D02*
X122852381Y-145147619D01*
X123852381Y-145480953D01*
X133852381Y-137861905D02*
X132852381Y-137861905D01*
X132852381Y-138242858D01*
X132900000Y-138338096D01*
X132947619Y-138385715D01*
X133042857Y-138433334D01*
X133185714Y-138433334D01*
X133280952Y-138385715D01*
X133328571Y-138338096D01*
X133376190Y-138242858D01*
X133376190Y-137861905D01*
X133852381Y-139385715D02*
X133852381Y-138814286D01*
X133852381Y-139100000D02*
X132852381Y-139100000D01*
X132995238Y-139004762D01*
X133090476Y-138909524D01*
X133138095Y-138814286D01*
X106342381Y-104489334D02*
X106342381Y-103917905D01*
X106342381Y-104203619D02*
X105342381Y-104203619D01*
X105485238Y-104108381D01*
X105580476Y-104013143D01*
X105628095Y-103917905D01*
X105342381Y-105108381D02*
X105342381Y-105203620D01*
X105390000Y-105298858D01*
X105437619Y-105346477D01*
X105532857Y-105394096D01*
X105723333Y-105441715D01*
X105961429Y-105441715D01*
X106151905Y-105394096D01*
X106247143Y-105346477D01*
X106294762Y-105298858D01*
X106342381Y-105203620D01*
X106342381Y-105108381D01*
X106294762Y-105013143D01*
X106247143Y-104965524D01*
X106151905Y-104917905D01*
X105961429Y-104870286D01*
X105723333Y-104870286D01*
X105532857Y-104917905D01*
X105437619Y-104965524D01*
X105390000Y-105013143D01*
X105342381Y-105108381D01*
X105342381Y-106060762D02*
X105342381Y-106156001D01*
X105390000Y-106251239D01*
X105437619Y-106298858D01*
X105532857Y-106346477D01*
X105723333Y-106394096D01*
X105961429Y-106394096D01*
X106151905Y-106346477D01*
X106247143Y-106298858D01*
X106294762Y-106251239D01*
X106342381Y-106156001D01*
X106342381Y-106060762D01*
X106294762Y-105965524D01*
X106247143Y-105917905D01*
X106151905Y-105870286D01*
X105961429Y-105822667D01*
X105723333Y-105822667D01*
X105532857Y-105870286D01*
X105437619Y-105917905D01*
X105390000Y-105965524D01*
X105342381Y-106060762D01*
D12*
X104366190Y-105072667D02*
X104128095Y-104906000D01*
X104366190Y-104786953D02*
X103866190Y-104786953D01*
X103866190Y-104977429D01*
X103890000Y-105025048D01*
X103913810Y-105048857D01*
X103961429Y-105072667D01*
X104032857Y-105072667D01*
X104080476Y-105048857D01*
X104104286Y-105025048D01*
X104128095Y-104977429D01*
X104128095Y-104786953D01*
X104366190Y-105548857D02*
X104366190Y-105263143D01*
X104366190Y-105406000D02*
X103866190Y-105406000D01*
X103937619Y-105358381D01*
X103985238Y-105310762D01*
X104009048Y-105263143D01*
D11*
X110152381Y-104465524D02*
X110152381Y-103894095D01*
X110152381Y-104179809D02*
X109152381Y-104179809D01*
X109295238Y-104084571D01*
X109390476Y-103989333D01*
X109438095Y-103894095D01*
X109152381Y-105084571D02*
X109152381Y-105179810D01*
X109200000Y-105275048D01*
X109247619Y-105322667D01*
X109342857Y-105370286D01*
X109533333Y-105417905D01*
X109771429Y-105417905D01*
X109961905Y-105370286D01*
X110057143Y-105322667D01*
X110104762Y-105275048D01*
X110152381Y-105179810D01*
X110152381Y-105084571D01*
X110104762Y-104989333D01*
X110057143Y-104941714D01*
X109961905Y-104894095D01*
X109771429Y-104846476D01*
X109533333Y-104846476D01*
X109342857Y-104894095D01*
X109247619Y-104941714D01*
X109200000Y-104989333D01*
X109152381Y-105084571D01*
X110152381Y-105846476D02*
X109152381Y-105846476D01*
X110152381Y-106417905D02*
X109580952Y-105989333D01*
X109152381Y-106417905D02*
X109723810Y-105846476D01*
D12*
X108176190Y-105072667D02*
X107938095Y-104906000D01*
X108176190Y-104786953D02*
X107676190Y-104786953D01*
X107676190Y-104977429D01*
X107700000Y-105025048D01*
X107723810Y-105048857D01*
X107771429Y-105072667D01*
X107842857Y-105072667D01*
X107890476Y-105048857D01*
X107914286Y-105025048D01*
X107938095Y-104977429D01*
X107938095Y-104786953D01*
X107723810Y-105263143D02*
X107700000Y-105286953D01*
X107676190Y-105334572D01*
X107676190Y-105453619D01*
X107700000Y-105501238D01*
X107723810Y-105525048D01*
X107771429Y-105548857D01*
X107819048Y-105548857D01*
X107890476Y-105525048D01*
X108176190Y-105239334D01*
X108176190Y-105548857D01*
D11*
X125138381Y-104489334D02*
X125138381Y-103917905D01*
X125138381Y-104203619D02*
X124138381Y-104203619D01*
X124281238Y-104108381D01*
X124376476Y-104013143D01*
X124424095Y-103917905D01*
X124138381Y-105108381D02*
X124138381Y-105203620D01*
X124186000Y-105298858D01*
X124233619Y-105346477D01*
X124328857Y-105394096D01*
X124519333Y-105441715D01*
X124757429Y-105441715D01*
X124947905Y-105394096D01*
X125043143Y-105346477D01*
X125090762Y-105298858D01*
X125138381Y-105203620D01*
X125138381Y-105108381D01*
X125090762Y-105013143D01*
X125043143Y-104965524D01*
X124947905Y-104917905D01*
X124757429Y-104870286D01*
X124519333Y-104870286D01*
X124328857Y-104917905D01*
X124233619Y-104965524D01*
X124186000Y-105013143D01*
X124138381Y-105108381D01*
X124138381Y-106060762D02*
X124138381Y-106156001D01*
X124186000Y-106251239D01*
X124233619Y-106298858D01*
X124328857Y-106346477D01*
X124519333Y-106394096D01*
X124757429Y-106394096D01*
X124947905Y-106346477D01*
X125043143Y-106298858D01*
X125090762Y-106251239D01*
X125138381Y-106156001D01*
X125138381Y-106060762D01*
X125090762Y-105965524D01*
X125043143Y-105917905D01*
X124947905Y-105870286D01*
X124757429Y-105822667D01*
X124519333Y-105822667D01*
X124328857Y-105870286D01*
X124233619Y-105917905D01*
X124186000Y-105965524D01*
X124138381Y-106060762D01*
D12*
X123162190Y-105072667D02*
X122924095Y-104906000D01*
X123162190Y-104786953D02*
X122662190Y-104786953D01*
X122662190Y-104977429D01*
X122686000Y-105025048D01*
X122709810Y-105048857D01*
X122757429Y-105072667D01*
X122828857Y-105072667D01*
X122876476Y-105048857D01*
X122900286Y-105025048D01*
X122924095Y-104977429D01*
X122924095Y-104786953D01*
X122662190Y-105239334D02*
X122662190Y-105548857D01*
X122852667Y-105382191D01*
X122852667Y-105453619D01*
X122876476Y-105501238D01*
X122900286Y-105525048D01*
X122947905Y-105548857D01*
X123066952Y-105548857D01*
X123114571Y-105525048D01*
X123138381Y-105501238D01*
X123162190Y-105453619D01*
X123162190Y-105310762D01*
X123138381Y-105263143D01*
X123114571Y-105239334D01*
D11*
X129202381Y-104465524D02*
X129202381Y-103894095D01*
X129202381Y-104179809D02*
X128202381Y-104179809D01*
X128345238Y-104084571D01*
X128440476Y-103989333D01*
X128488095Y-103894095D01*
X128202381Y-105084571D02*
X128202381Y-105179810D01*
X128250000Y-105275048D01*
X128297619Y-105322667D01*
X128392857Y-105370286D01*
X128583333Y-105417905D01*
X128821429Y-105417905D01*
X129011905Y-105370286D01*
X129107143Y-105322667D01*
X129154762Y-105275048D01*
X129202381Y-105179810D01*
X129202381Y-105084571D01*
X129154762Y-104989333D01*
X129107143Y-104941714D01*
X129011905Y-104894095D01*
X128821429Y-104846476D01*
X128583333Y-104846476D01*
X128392857Y-104894095D01*
X128297619Y-104941714D01*
X128250000Y-104989333D01*
X128202381Y-105084571D01*
X129202381Y-105846476D02*
X128202381Y-105846476D01*
X129202381Y-106417905D02*
X128630952Y-105989333D01*
X128202381Y-106417905D02*
X128773810Y-105846476D01*
D12*
X127226190Y-105072667D02*
X126988095Y-104906000D01*
X127226190Y-104786953D02*
X126726190Y-104786953D01*
X126726190Y-104977429D01*
X126750000Y-105025048D01*
X126773810Y-105048857D01*
X126821429Y-105072667D01*
X126892857Y-105072667D01*
X126940476Y-105048857D01*
X126964286Y-105025048D01*
X126988095Y-104977429D01*
X126988095Y-104786953D01*
X126892857Y-105501238D02*
X127226190Y-105501238D01*
X126702381Y-105382191D02*
X127059524Y-105263143D01*
X127059524Y-105572667D01*
D11*
X143934381Y-104489334D02*
X143934381Y-103917905D01*
X143934381Y-104203619D02*
X142934381Y-104203619D01*
X143077238Y-104108381D01*
X143172476Y-104013143D01*
X143220095Y-103917905D01*
X142934381Y-105108381D02*
X142934381Y-105203620D01*
X142982000Y-105298858D01*
X143029619Y-105346477D01*
X143124857Y-105394096D01*
X143315333Y-105441715D01*
X143553429Y-105441715D01*
X143743905Y-105394096D01*
X143839143Y-105346477D01*
X143886762Y-105298858D01*
X143934381Y-105203620D01*
X143934381Y-105108381D01*
X143886762Y-105013143D01*
X143839143Y-104965524D01*
X143743905Y-104917905D01*
X143553429Y-104870286D01*
X143315333Y-104870286D01*
X143124857Y-104917905D01*
X143029619Y-104965524D01*
X142982000Y-105013143D01*
X142934381Y-105108381D01*
X142934381Y-106060762D02*
X142934381Y-106156001D01*
X142982000Y-106251239D01*
X143029619Y-106298858D01*
X143124857Y-106346477D01*
X143315333Y-106394096D01*
X143553429Y-106394096D01*
X143743905Y-106346477D01*
X143839143Y-106298858D01*
X143886762Y-106251239D01*
X143934381Y-106156001D01*
X143934381Y-106060762D01*
X143886762Y-105965524D01*
X143839143Y-105917905D01*
X143743905Y-105870286D01*
X143553429Y-105822667D01*
X143315333Y-105822667D01*
X143124857Y-105870286D01*
X143029619Y-105917905D01*
X142982000Y-105965524D01*
X142934381Y-106060762D01*
D12*
X141958190Y-105072667D02*
X141720095Y-104906000D01*
X141958190Y-104786953D02*
X141458190Y-104786953D01*
X141458190Y-104977429D01*
X141482000Y-105025048D01*
X141505810Y-105048857D01*
X141553429Y-105072667D01*
X141624857Y-105072667D01*
X141672476Y-105048857D01*
X141696286Y-105025048D01*
X141720095Y-104977429D01*
X141720095Y-104786953D01*
X141458190Y-105525048D02*
X141458190Y-105286953D01*
X141696286Y-105263143D01*
X141672476Y-105286953D01*
X141648667Y-105334572D01*
X141648667Y-105453619D01*
X141672476Y-105501238D01*
X141696286Y-105525048D01*
X141743905Y-105548857D01*
X141862952Y-105548857D01*
X141910571Y-105525048D01*
X141934381Y-105501238D01*
X141958190Y-105453619D01*
X141958190Y-105334572D01*
X141934381Y-105286953D01*
X141910571Y-105263143D01*
D11*
X147744381Y-104465524D02*
X147744381Y-103894095D01*
X147744381Y-104179809D02*
X146744381Y-104179809D01*
X146887238Y-104084571D01*
X146982476Y-103989333D01*
X147030095Y-103894095D01*
X146744381Y-105084571D02*
X146744381Y-105179810D01*
X146792000Y-105275048D01*
X146839619Y-105322667D01*
X146934857Y-105370286D01*
X147125333Y-105417905D01*
X147363429Y-105417905D01*
X147553905Y-105370286D01*
X147649143Y-105322667D01*
X147696762Y-105275048D01*
X147744381Y-105179810D01*
X147744381Y-105084571D01*
X147696762Y-104989333D01*
X147649143Y-104941714D01*
X147553905Y-104894095D01*
X147363429Y-104846476D01*
X147125333Y-104846476D01*
X146934857Y-104894095D01*
X146839619Y-104941714D01*
X146792000Y-104989333D01*
X146744381Y-105084571D01*
X147744381Y-105846476D02*
X146744381Y-105846476D01*
X147744381Y-106417905D02*
X147172952Y-105989333D01*
X146744381Y-106417905D02*
X147315810Y-105846476D01*
D12*
X145768190Y-105072667D02*
X145530095Y-104906000D01*
X145768190Y-104786953D02*
X145268190Y-104786953D01*
X145268190Y-104977429D01*
X145292000Y-105025048D01*
X145315810Y-105048857D01*
X145363429Y-105072667D01*
X145434857Y-105072667D01*
X145482476Y-105048857D01*
X145506286Y-105025048D01*
X145530095Y-104977429D01*
X145530095Y-104786953D01*
X145268190Y-105501238D02*
X145268190Y-105406000D01*
X145292000Y-105358381D01*
X145315810Y-105334572D01*
X145387238Y-105286953D01*
X145482476Y-105263143D01*
X145672952Y-105263143D01*
X145720571Y-105286953D01*
X145744381Y-105310762D01*
X145768190Y-105358381D01*
X145768190Y-105453619D01*
X145744381Y-105501238D01*
X145720571Y-105525048D01*
X145672952Y-105548857D01*
X145553905Y-105548857D01*
X145506286Y-105525048D01*
X145482476Y-105501238D01*
X145458667Y-105453619D01*
X145458667Y-105358381D01*
X145482476Y-105310762D01*
X145506286Y-105286953D01*
X145553905Y-105263143D01*
D11*
X162984381Y-104489334D02*
X162984381Y-103917905D01*
X162984381Y-104203619D02*
X161984381Y-104203619D01*
X162127238Y-104108381D01*
X162222476Y-104013143D01*
X162270095Y-103917905D01*
X161984381Y-105108381D02*
X161984381Y-105203620D01*
X162032000Y-105298858D01*
X162079619Y-105346477D01*
X162174857Y-105394096D01*
X162365333Y-105441715D01*
X162603429Y-105441715D01*
X162793905Y-105394096D01*
X162889143Y-105346477D01*
X162936762Y-105298858D01*
X162984381Y-105203620D01*
X162984381Y-105108381D01*
X162936762Y-105013143D01*
X162889143Y-104965524D01*
X162793905Y-104917905D01*
X162603429Y-104870286D01*
X162365333Y-104870286D01*
X162174857Y-104917905D01*
X162079619Y-104965524D01*
X162032000Y-105013143D01*
X161984381Y-105108381D01*
X161984381Y-106060762D02*
X161984381Y-106156001D01*
X162032000Y-106251239D01*
X162079619Y-106298858D01*
X162174857Y-106346477D01*
X162365333Y-106394096D01*
X162603429Y-106394096D01*
X162793905Y-106346477D01*
X162889143Y-106298858D01*
X162936762Y-106251239D01*
X162984381Y-106156001D01*
X162984381Y-106060762D01*
X162936762Y-105965524D01*
X162889143Y-105917905D01*
X162793905Y-105870286D01*
X162603429Y-105822667D01*
X162365333Y-105822667D01*
X162174857Y-105870286D01*
X162079619Y-105917905D01*
X162032000Y-105965524D01*
X161984381Y-106060762D01*
D12*
X161008190Y-105072667D02*
X160770095Y-104906000D01*
X161008190Y-104786953D02*
X160508190Y-104786953D01*
X160508190Y-104977429D01*
X160532000Y-105025048D01*
X160555810Y-105048857D01*
X160603429Y-105072667D01*
X160674857Y-105072667D01*
X160722476Y-105048857D01*
X160746286Y-105025048D01*
X160770095Y-104977429D01*
X160770095Y-104786953D01*
X160508190Y-105239334D02*
X160508190Y-105572667D01*
X161008190Y-105358381D01*
D11*
X166794381Y-104465524D02*
X166794381Y-103894095D01*
X166794381Y-104179809D02*
X165794381Y-104179809D01*
X165937238Y-104084571D01*
X166032476Y-103989333D01*
X166080095Y-103894095D01*
X165794381Y-105084571D02*
X165794381Y-105179810D01*
X165842000Y-105275048D01*
X165889619Y-105322667D01*
X165984857Y-105370286D01*
X166175333Y-105417905D01*
X166413429Y-105417905D01*
X166603905Y-105370286D01*
X166699143Y-105322667D01*
X166746762Y-105275048D01*
X166794381Y-105179810D01*
X166794381Y-105084571D01*
X166746762Y-104989333D01*
X166699143Y-104941714D01*
X166603905Y-104894095D01*
X166413429Y-104846476D01*
X166175333Y-104846476D01*
X165984857Y-104894095D01*
X165889619Y-104941714D01*
X165842000Y-104989333D01*
X165794381Y-105084571D01*
X166794381Y-105846476D02*
X165794381Y-105846476D01*
X166794381Y-106417905D02*
X166222952Y-105989333D01*
X165794381Y-106417905D02*
X166365810Y-105846476D01*
D12*
X164818190Y-105072667D02*
X164580095Y-104906000D01*
X164818190Y-104786953D02*
X164318190Y-104786953D01*
X164318190Y-104977429D01*
X164342000Y-105025048D01*
X164365810Y-105048857D01*
X164413429Y-105072667D01*
X164484857Y-105072667D01*
X164532476Y-105048857D01*
X164556286Y-105025048D01*
X164580095Y-104977429D01*
X164580095Y-104786953D01*
X164532476Y-105358381D02*
X164508667Y-105310762D01*
X164484857Y-105286953D01*
X164437238Y-105263143D01*
X164413429Y-105263143D01*
X164365810Y-105286953D01*
X164342000Y-105310762D01*
X164318190Y-105358381D01*
X164318190Y-105453619D01*
X164342000Y-105501238D01*
X164365810Y-105525048D01*
X164413429Y-105548857D01*
X164437238Y-105548857D01*
X164484857Y-105525048D01*
X164508667Y-105501238D01*
X164532476Y-105453619D01*
X164532476Y-105358381D01*
X164556286Y-105310762D01*
X164580095Y-105286953D01*
X164627714Y-105263143D01*
X164722952Y-105263143D01*
X164770571Y-105286953D01*
X164794381Y-105310762D01*
X164818190Y-105358381D01*
X164818190Y-105453619D01*
X164794381Y-105501238D01*
X164770571Y-105525048D01*
X164722952Y-105548857D01*
X164627714Y-105548857D01*
X164580095Y-105525048D01*
X164556286Y-105501238D01*
X164532476Y-105453619D01*
M02*
