G04 #@! TF.FileFunction,Other,User*
%FSLAX46Y46*%
G04 Gerber Fmt 4.6, Leading zero omitted, Abs format (unit mm)*
G04 Created by KiCad (PCBNEW 4.0.2-stable) date 10/05/17 15:38:04*
%MOMM*%
G01*
G04 APERTURE LIST*
%ADD10C,0.100000*%
%ADD11C,0.050000*%
G04 APERTURE END LIST*
D10*
D11*
X90950000Y-136500000D02*
G75*
G03X90950000Y-136500000I-3450000J0D01*
G01*
X173050000Y-136500000D02*
G75*
G03X173050000Y-136500000I-3450000J0D01*
G01*
X173050000Y-54500000D02*
G75*
G03X173050000Y-54500000I-3450000J0D01*
G01*
X90950000Y-54500000D02*
G75*
G03X90950000Y-54500000I-3450000J0D01*
G01*
X167550000Y-121550000D02*
X167550000Y-127700000D01*
X167550000Y-127700000D02*
X176350000Y-127700000D01*
X176350000Y-127700000D02*
X176350000Y-121550000D01*
X176350000Y-121550000D02*
X167550000Y-121550000D01*
X87800000Y-127600000D02*
X87800000Y-121450000D01*
X87800000Y-121450000D02*
X79000000Y-121450000D01*
X79000000Y-121450000D02*
X79000000Y-127600000D01*
X79000000Y-127600000D02*
X87800000Y-127600000D01*
X132540000Y-134460000D02*
X132540000Y-142740000D01*
X132540000Y-134460000D02*
X124260000Y-134460000D01*
X124260000Y-142740000D02*
X132540000Y-142740000D01*
X124260000Y-142740000D02*
X124260000Y-134460000D01*
X101216980Y-100734760D02*
X106126980Y-100734760D01*
X106126980Y-100734760D02*
X106126980Y-90234760D01*
X106126980Y-90234760D02*
X101216980Y-90234760D01*
X101216980Y-90234760D02*
X101216980Y-100734760D01*
X120366980Y-100734760D02*
X125276980Y-100734760D01*
X125276980Y-100734760D02*
X125276980Y-90234760D01*
X125276980Y-90234760D02*
X120366980Y-90234760D01*
X120366980Y-90234760D02*
X120366980Y-100734760D01*
X138966980Y-100734760D02*
X143876980Y-100734760D01*
X143876980Y-100734760D02*
X143876980Y-90234760D01*
X143876980Y-90234760D02*
X138966980Y-90234760D01*
X138966980Y-90234760D02*
X138966980Y-100734760D01*
X157916980Y-100734760D02*
X162826980Y-100734760D01*
X162826980Y-100734760D02*
X162826980Y-90234760D01*
X162826980Y-90234760D02*
X157916980Y-90234760D01*
X157916980Y-90234760D02*
X157916980Y-100734760D01*
M02*
