G04 #@! TF.FileFunction,Soldermask,Bot*
%FSLAX46Y46*%
G04 Gerber Fmt 4.6, Leading zero omitted, Abs format (unit mm)*
G04 Created by KiCad (PCBNEW 4.0.2-stable) date 10/05/17 14:11:08*
%MOMM*%
G01*
G04 APERTURE LIST*
%ADD10C,0.100000*%
%ADD11R,2.200000X2.200000*%
%ADD12O,2.200000X2.200000*%
%ADD13C,8.400000*%
%ADD14C,6.800000*%
%ADD15C,1.200000*%
%ADD16R,2.100000X2.100000*%
%ADD17O,2.100000X2.100000*%
%ADD18O,5.401260X2.900000*%
%ADD19O,2.900000X5.401260*%
%ADD20C,2.600000*%
%ADD21C,2.400000*%
%ADD22R,1.700000X1.900000*%
G04 APERTURE END LIST*
D10*
D11*
X123116980Y-98024760D03*
D12*
X123116980Y-95484760D03*
X123116980Y-92944760D03*
D13*
X116150000Y-125500000D03*
X116150000Y-65500000D03*
D11*
X160666980Y-98024760D03*
D12*
X160666980Y-95484760D03*
X160666980Y-92944760D03*
D13*
X153700000Y-125500000D03*
X153700000Y-65500000D03*
D11*
X103966980Y-98024760D03*
D12*
X103966980Y-95484760D03*
X103966980Y-92944760D03*
D13*
X97000000Y-125500000D03*
X97000000Y-65500000D03*
D11*
X141716980Y-98024760D03*
D12*
X141716980Y-95484760D03*
X141716980Y-92944760D03*
D13*
X134750000Y-125500000D03*
X134750000Y-65500000D03*
D14*
X87500000Y-136500000D03*
D15*
X89900000Y-136500000D03*
X89197056Y-138197056D03*
X87500000Y-138900000D03*
X85802944Y-138197056D03*
X85100000Y-136500000D03*
X85802944Y-134802944D03*
X87500000Y-134100000D03*
X89197056Y-134802944D03*
D14*
X169600000Y-136500000D03*
D15*
X172000000Y-136500000D03*
X171297056Y-138197056D03*
X169600000Y-138900000D03*
X167902944Y-138197056D03*
X167200000Y-136500000D03*
X167902944Y-134802944D03*
X169600000Y-134100000D03*
X171297056Y-134802944D03*
D14*
X169600000Y-54500000D03*
D15*
X172000000Y-54500000D03*
X171297056Y-56197056D03*
X169600000Y-56900000D03*
X167902944Y-56197056D03*
X167200000Y-54500000D03*
X167902944Y-52802944D03*
X169600000Y-52100000D03*
X171297056Y-52802944D03*
D14*
X87500000Y-54500000D03*
D15*
X89900000Y-54500000D03*
X89197056Y-56197056D03*
X87500000Y-56900000D03*
X85802944Y-56197056D03*
X85100000Y-54500000D03*
X85802944Y-52802944D03*
X87500000Y-52100000D03*
X89197056Y-52802944D03*
D16*
X169350000Y-123350000D03*
D17*
X169350000Y-125890000D03*
D18*
X172300000Y-95068800D03*
X172300000Y-99031200D03*
D16*
X86000000Y-125800000D03*
D17*
X86000000Y-123260000D03*
D19*
X126518800Y-51950000D03*
X130481200Y-51950000D03*
D18*
X172700000Y-74018800D03*
X172700000Y-77981200D03*
X85450000Y-78681200D03*
X85450000Y-74718800D03*
D20*
X125860000Y-136060000D03*
X130940000Y-136060000D03*
X130940000Y-141140000D03*
X125860000Y-141140000D03*
D21*
X128400000Y-138600000D03*
D18*
X84600000Y-104481200D03*
X84600000Y-100518800D03*
D22*
X104000000Y-103750000D03*
X104000000Y-106450000D03*
X107850000Y-103800000D03*
X107850000Y-106500000D03*
X123100000Y-104000000D03*
X123100000Y-106700000D03*
X127000000Y-103900000D03*
X127000000Y-106600000D03*
X141700000Y-103450000D03*
X141700000Y-106150000D03*
X145600000Y-103500000D03*
X145600000Y-106200000D03*
X160700000Y-103950000D03*
X160700000Y-106650000D03*
X164650000Y-103900000D03*
X164650000Y-106600000D03*
M02*
