G04 #@! TF.FileFunction,Other,User*
%FSLAX46Y46*%
G04 Gerber Fmt 4.6, Leading zero omitted, Abs format (unit mm)*
G04 Created by KiCad (PCBNEW 4.0.2-stable) date 10/05/17 14:11:08*
%MOMM*%
G01*
G04 APERTURE LIST*
%ADD10C,0.100000*%
%ADD11C,0.050000*%
G04 APERTURE END LIST*
D10*
D11*
X103100000Y-102750000D02*
X103100000Y-107450000D01*
X103100000Y-102750000D02*
X104900000Y-102750000D01*
X104900000Y-107450000D02*
X103100000Y-107450000D01*
X104900000Y-107450000D02*
X104900000Y-102750000D01*
X106950000Y-102800000D02*
X106950000Y-107500000D01*
X106950000Y-102800000D02*
X108750000Y-102800000D01*
X108750000Y-107500000D02*
X106950000Y-107500000D01*
X108750000Y-107500000D02*
X108750000Y-102800000D01*
X122200000Y-103000000D02*
X122200000Y-107700000D01*
X122200000Y-103000000D02*
X124000000Y-103000000D01*
X124000000Y-107700000D02*
X122200000Y-107700000D01*
X124000000Y-107700000D02*
X124000000Y-103000000D01*
X126100000Y-102900000D02*
X126100000Y-107600000D01*
X126100000Y-102900000D02*
X127900000Y-102900000D01*
X127900000Y-107600000D02*
X126100000Y-107600000D01*
X127900000Y-107600000D02*
X127900000Y-102900000D01*
X140800000Y-102450000D02*
X140800000Y-107150000D01*
X140800000Y-102450000D02*
X142600000Y-102450000D01*
X142600000Y-107150000D02*
X140800000Y-107150000D01*
X142600000Y-107150000D02*
X142600000Y-102450000D01*
X144700000Y-102500000D02*
X144700000Y-107200000D01*
X144700000Y-102500000D02*
X146500000Y-102500000D01*
X146500000Y-107200000D02*
X144700000Y-107200000D01*
X146500000Y-107200000D02*
X146500000Y-102500000D01*
X159800000Y-102950000D02*
X159800000Y-107650000D01*
X159800000Y-102950000D02*
X161600000Y-102950000D01*
X161600000Y-107650000D02*
X159800000Y-107650000D01*
X161600000Y-107650000D02*
X161600000Y-102950000D01*
X163750000Y-102900000D02*
X163750000Y-107600000D01*
X163750000Y-102900000D02*
X165550000Y-102900000D01*
X165550000Y-107600000D02*
X163750000Y-107600000D01*
X165550000Y-107600000D02*
X165550000Y-102900000D01*
M02*
