G04 #@! TF.FileFunction,Other,Fab,Bot*
%FSLAX46Y46*%
G04 Gerber Fmt 4.6, Leading zero omitted, Abs format (unit mm)*
G04 Created by KiCad (PCBNEW 4.0.2-stable) date 10/05/17 14:11:08*
%MOMM*%
G01*
G04 APERTURE LIST*
%ADD10C,0.100000*%
%ADD11C,0.150000*%
%ADD12C,0.075000*%
G04 APERTURE END LIST*
D10*
X171485000Y-122080000D02*
X173390000Y-122080000D01*
X173390000Y-122080000D02*
X173390000Y-127160000D01*
X173390000Y-127160000D02*
X170850000Y-127160000D01*
X170850000Y-127160000D02*
X170850000Y-122715000D01*
X170850000Y-122715000D02*
X171485000Y-122080000D01*
X169030000Y-123030000D02*
X170850000Y-123030000D01*
X169030000Y-123030000D02*
X169030000Y-123670000D01*
X169030000Y-123670000D02*
X170850000Y-123670000D01*
X173390000Y-123030000D02*
X175850000Y-123030000D01*
X175850000Y-123030000D02*
X175850000Y-123670000D01*
X173390000Y-123670000D02*
X175850000Y-123670000D01*
X169030000Y-125570000D02*
X170850000Y-125570000D01*
X169030000Y-125570000D02*
X169030000Y-126210000D01*
X169030000Y-126210000D02*
X170850000Y-126210000D01*
X173390000Y-125570000D02*
X175850000Y-125570000D01*
X175850000Y-125570000D02*
X175850000Y-126210000D01*
X173390000Y-126210000D02*
X175850000Y-126210000D01*
X83865000Y-127070000D02*
X81960000Y-127070000D01*
X81960000Y-127070000D02*
X81960000Y-121990000D01*
X81960000Y-121990000D02*
X84500000Y-121990000D01*
X84500000Y-121990000D02*
X84500000Y-126435000D01*
X84500000Y-126435000D02*
X83865000Y-127070000D01*
X86320000Y-126120000D02*
X84500000Y-126120000D01*
X86320000Y-126120000D02*
X86320000Y-125480000D01*
X86320000Y-125480000D02*
X84500000Y-125480000D01*
X81960000Y-126120000D02*
X79500000Y-126120000D01*
X79500000Y-126120000D02*
X79500000Y-125480000D01*
X81960000Y-125480000D02*
X79500000Y-125480000D01*
X86320000Y-123580000D02*
X84500000Y-123580000D01*
X86320000Y-123580000D02*
X86320000Y-122940000D01*
X86320000Y-122940000D02*
X84500000Y-122940000D01*
X81960000Y-123580000D02*
X79500000Y-123580000D01*
X79500000Y-123580000D02*
X79500000Y-122940000D01*
X81960000Y-122940000D02*
X79500000Y-122940000D01*
X131450000Y-140630000D02*
X131450000Y-141650000D01*
X131570000Y-141770000D02*
X125230000Y-141770000D01*
X125230000Y-135430000D02*
X125230000Y-141770000D01*
X131570000Y-135430000D02*
X125230000Y-135430000D01*
X131570000Y-135430000D02*
X131570000Y-141770000D01*
X131450000Y-136570000D02*
X130430000Y-136570000D01*
X130430000Y-135550000D02*
X130430000Y-136570000D01*
X126370000Y-136570000D02*
X125350000Y-136570000D01*
X126370000Y-135550000D02*
X126370000Y-136570000D01*
X131450000Y-140630000D02*
X130430000Y-140630000D01*
X130430000Y-140630000D02*
X130430000Y-141650000D01*
X126370000Y-141650000D02*
X126370000Y-140630000D01*
X126370000Y-140630000D02*
X125350000Y-140630000D01*
X130440000Y-138600000D02*
G75*
G03X130440000Y-138600000I-2040000J0D01*
G01*
X129035000Y-138600000D02*
G75*
G03X129035000Y-138600000I-635000J0D01*
G01*
X131450000Y-141650000D02*
X130430000Y-141650000D01*
X131450000Y-135550000D02*
X130430000Y-135550000D01*
X131450000Y-135550000D02*
X131450000Y-136570000D01*
X125350000Y-135550000D02*
X125350000Y-136570000D01*
X125350000Y-135550000D02*
X126370000Y-135550000D01*
X126370000Y-141650000D02*
X125350000Y-141650000D01*
X125350000Y-140630000D02*
X125350000Y-141650000D01*
X104620000Y-104100000D02*
X103380000Y-104100000D01*
X104620000Y-106100000D02*
X104620000Y-104100000D01*
X103380000Y-106100000D02*
X104620000Y-106100000D01*
X103380000Y-104100000D02*
X103380000Y-106100000D01*
X108470000Y-104150000D02*
X107230000Y-104150000D01*
X108470000Y-106150000D02*
X108470000Y-104150000D01*
X107230000Y-106150000D02*
X108470000Y-106150000D01*
X107230000Y-104150000D02*
X107230000Y-106150000D01*
X123720000Y-104350000D02*
X122480000Y-104350000D01*
X123720000Y-106350000D02*
X123720000Y-104350000D01*
X122480000Y-106350000D02*
X123720000Y-106350000D01*
X122480000Y-104350000D02*
X122480000Y-106350000D01*
X127620000Y-104250000D02*
X126380000Y-104250000D01*
X127620000Y-106250000D02*
X127620000Y-104250000D01*
X126380000Y-106250000D02*
X127620000Y-106250000D01*
X126380000Y-104250000D02*
X126380000Y-106250000D01*
X142320000Y-103800000D02*
X141080000Y-103800000D01*
X142320000Y-105800000D02*
X142320000Y-103800000D01*
X141080000Y-105800000D02*
X142320000Y-105800000D01*
X141080000Y-103800000D02*
X141080000Y-105800000D01*
X146220000Y-103850000D02*
X144980000Y-103850000D01*
X146220000Y-105850000D02*
X146220000Y-103850000D01*
X144980000Y-105850000D02*
X146220000Y-105850000D01*
X144980000Y-103850000D02*
X144980000Y-105850000D01*
X161320000Y-104300000D02*
X160080000Y-104300000D01*
X161320000Y-106300000D02*
X161320000Y-104300000D01*
X160080000Y-106300000D02*
X161320000Y-106300000D01*
X160080000Y-104300000D02*
X160080000Y-106300000D01*
X165270000Y-104250000D02*
X164030000Y-104250000D01*
X165270000Y-106250000D02*
X165270000Y-104250000D01*
X164030000Y-106250000D02*
X165270000Y-106250000D01*
X164030000Y-104250000D02*
X164030000Y-106250000D01*
D11*
X176328571Y-120804762D02*
X176185714Y-120852381D01*
X175947618Y-120852381D01*
X175852380Y-120804762D01*
X175804761Y-120757143D01*
X175757142Y-120661905D01*
X175757142Y-120566667D01*
X175804761Y-120471429D01*
X175852380Y-120423810D01*
X175947618Y-120376190D01*
X176138095Y-120328571D01*
X176233333Y-120280952D01*
X176280952Y-120233333D01*
X176328571Y-120138095D01*
X176328571Y-120042857D01*
X176280952Y-119947619D01*
X176233333Y-119900000D01*
X176138095Y-119852381D01*
X175899999Y-119852381D01*
X175757142Y-119900000D01*
X175328571Y-120852381D02*
X175328571Y-119852381D01*
X174328571Y-119900000D02*
X174423809Y-119852381D01*
X174566666Y-119852381D01*
X174709524Y-119900000D01*
X174804762Y-119995238D01*
X174852381Y-120090476D01*
X174900000Y-120280952D01*
X174900000Y-120423810D01*
X174852381Y-120614286D01*
X174804762Y-120709524D01*
X174709524Y-120804762D01*
X174566666Y-120852381D01*
X174471428Y-120852381D01*
X174328571Y-120804762D01*
X174280952Y-120757143D01*
X174280952Y-120423810D01*
X174471428Y-120423810D01*
X173852381Y-120852381D02*
X173852381Y-119852381D01*
X173280952Y-120852381D01*
X173280952Y-119852381D01*
X172852381Y-120566667D02*
X172376190Y-120566667D01*
X172947619Y-120852381D02*
X172614286Y-119852381D01*
X172280952Y-120852381D01*
X171471428Y-120852381D02*
X171947619Y-120852381D01*
X171947619Y-119852381D01*
X171376190Y-120947619D02*
X170614285Y-120947619D01*
X170376190Y-120852381D02*
X170376190Y-119852381D01*
X169900000Y-120852381D02*
X169900000Y-119852381D01*
X169328571Y-120852381D01*
X169328571Y-119852381D01*
X168852381Y-120852381D02*
X168852381Y-119852381D01*
X168471428Y-119852381D01*
X168376190Y-119900000D01*
X168328571Y-119947619D01*
X168280952Y-120042857D01*
X168280952Y-120185714D01*
X168328571Y-120280952D01*
X168376190Y-120328571D01*
X168471428Y-120376190D01*
X168852381Y-120376190D01*
X167852381Y-119852381D02*
X167852381Y-120661905D01*
X167804762Y-120757143D01*
X167757143Y-120804762D01*
X167661905Y-120852381D01*
X167471428Y-120852381D01*
X167376190Y-120804762D01*
X167328571Y-120757143D01*
X167280952Y-120661905D01*
X167280952Y-119852381D01*
X166947619Y-119852381D02*
X166376190Y-119852381D01*
X166661905Y-120852381D02*
X166661905Y-119852381D01*
X172572381Y-123881905D02*
X171572381Y-123881905D01*
X171572381Y-124262858D01*
X171620000Y-124358096D01*
X171667619Y-124405715D01*
X171762857Y-124453334D01*
X171905714Y-124453334D01*
X172000952Y-124405715D01*
X172048571Y-124358096D01*
X172096190Y-124262858D01*
X172096190Y-123881905D01*
X171572381Y-124786667D02*
X171572381Y-125453334D01*
X172572381Y-125024762D01*
X89378571Y-121254762D02*
X89235714Y-121302381D01*
X88997618Y-121302381D01*
X88902380Y-121254762D01*
X88854761Y-121207143D01*
X88807142Y-121111905D01*
X88807142Y-121016667D01*
X88854761Y-120921429D01*
X88902380Y-120873810D01*
X88997618Y-120826190D01*
X89188095Y-120778571D01*
X89283333Y-120730952D01*
X89330952Y-120683333D01*
X89378571Y-120588095D01*
X89378571Y-120492857D01*
X89330952Y-120397619D01*
X89283333Y-120350000D01*
X89188095Y-120302381D01*
X88949999Y-120302381D01*
X88807142Y-120350000D01*
X88378571Y-121302381D02*
X88378571Y-120302381D01*
X87378571Y-120350000D02*
X87473809Y-120302381D01*
X87616666Y-120302381D01*
X87759524Y-120350000D01*
X87854762Y-120445238D01*
X87902381Y-120540476D01*
X87950000Y-120730952D01*
X87950000Y-120873810D01*
X87902381Y-121064286D01*
X87854762Y-121159524D01*
X87759524Y-121254762D01*
X87616666Y-121302381D01*
X87521428Y-121302381D01*
X87378571Y-121254762D01*
X87330952Y-121207143D01*
X87330952Y-120873810D01*
X87521428Y-120873810D01*
X86902381Y-121302381D02*
X86902381Y-120302381D01*
X86330952Y-121302381D01*
X86330952Y-120302381D01*
X85902381Y-121016667D02*
X85426190Y-121016667D01*
X85997619Y-121302381D02*
X85664286Y-120302381D01*
X85330952Y-121302381D01*
X84521428Y-121302381D02*
X84997619Y-121302381D01*
X84997619Y-120302381D01*
X84426190Y-121397619D02*
X83664285Y-121397619D01*
X83426190Y-121302381D02*
X83426190Y-120302381D01*
X82950000Y-121302381D02*
X82950000Y-120302381D01*
X82378571Y-121302381D01*
X82378571Y-120302381D01*
X81902381Y-121302381D02*
X81902381Y-120302381D01*
X81521428Y-120302381D01*
X81426190Y-120350000D01*
X81378571Y-120397619D01*
X81330952Y-120492857D01*
X81330952Y-120635714D01*
X81378571Y-120730952D01*
X81426190Y-120778571D01*
X81521428Y-120826190D01*
X81902381Y-120826190D01*
X80902381Y-120302381D02*
X80902381Y-121111905D01*
X80854762Y-121207143D01*
X80807143Y-121254762D01*
X80711905Y-121302381D01*
X80521428Y-121302381D01*
X80426190Y-121254762D01*
X80378571Y-121207143D01*
X80330952Y-121111905D01*
X80330952Y-120302381D01*
X79997619Y-120302381D02*
X79426190Y-120302381D01*
X79711905Y-121302381D02*
X79711905Y-120302381D01*
X83682381Y-123315714D02*
X82682381Y-123315714D01*
X82682381Y-123696667D01*
X82730000Y-123791905D01*
X82777619Y-123839524D01*
X82872857Y-123887143D01*
X83015714Y-123887143D01*
X83110952Y-123839524D01*
X83158571Y-123791905D01*
X83206190Y-123696667D01*
X83206190Y-123315714D01*
X83682381Y-124839524D02*
X83682381Y-124268095D01*
X83682381Y-124553809D02*
X82682381Y-124553809D01*
X82825238Y-124458571D01*
X82920476Y-124363333D01*
X82968095Y-124268095D01*
X83682381Y-125791905D02*
X83682381Y-125220476D01*
X83682381Y-125506190D02*
X82682381Y-125506190D01*
X82825238Y-125410952D01*
X82920476Y-125315714D01*
X82968095Y-125220476D01*
X123804762Y-131814286D02*
X123852381Y-131957143D01*
X123852381Y-132195239D01*
X123804762Y-132290477D01*
X123757143Y-132338096D01*
X123661905Y-132385715D01*
X123566667Y-132385715D01*
X123471429Y-132338096D01*
X123423810Y-132290477D01*
X123376190Y-132195239D01*
X123328571Y-132004762D01*
X123280952Y-131909524D01*
X123233333Y-131861905D01*
X123138095Y-131814286D01*
X123042857Y-131814286D01*
X122947619Y-131861905D01*
X122900000Y-131909524D01*
X122852381Y-132004762D01*
X122852381Y-132242858D01*
X122900000Y-132385715D01*
X123852381Y-132814286D02*
X122852381Y-132814286D01*
X122900000Y-133814286D02*
X122852381Y-133719048D01*
X122852381Y-133576191D01*
X122900000Y-133433333D01*
X122995238Y-133338095D01*
X123090476Y-133290476D01*
X123280952Y-133242857D01*
X123423810Y-133242857D01*
X123614286Y-133290476D01*
X123709524Y-133338095D01*
X123804762Y-133433333D01*
X123852381Y-133576191D01*
X123852381Y-133671429D01*
X123804762Y-133814286D01*
X123757143Y-133861905D01*
X123423810Y-133861905D01*
X123423810Y-133671429D01*
X123852381Y-134290476D02*
X122852381Y-134290476D01*
X123852381Y-134861905D01*
X122852381Y-134861905D01*
X123566667Y-135290476D02*
X123566667Y-135766667D01*
X123852381Y-135195238D02*
X122852381Y-135528571D01*
X123852381Y-135861905D01*
X123852381Y-136671429D02*
X123852381Y-136195238D01*
X122852381Y-136195238D01*
X123947619Y-136766667D02*
X123947619Y-137528572D01*
X123852381Y-137766667D02*
X122852381Y-137766667D01*
X123852381Y-138242857D02*
X122852381Y-138242857D01*
X123852381Y-138814286D01*
X122852381Y-138814286D01*
X123852381Y-139290476D02*
X122852381Y-139290476D01*
X122852381Y-139671429D01*
X122900000Y-139766667D01*
X122947619Y-139814286D01*
X123042857Y-139861905D01*
X123185714Y-139861905D01*
X123280952Y-139814286D01*
X123328571Y-139766667D01*
X123376190Y-139671429D01*
X123376190Y-139290476D01*
X122852381Y-140290476D02*
X123661905Y-140290476D01*
X123757143Y-140338095D01*
X123804762Y-140385714D01*
X123852381Y-140480952D01*
X123852381Y-140671429D01*
X123804762Y-140766667D01*
X123757143Y-140814286D01*
X123661905Y-140861905D01*
X122852381Y-140861905D01*
X122852381Y-141195238D02*
X122852381Y-141766667D01*
X123852381Y-141480952D02*
X122852381Y-141480952D01*
X123947619Y-141861905D02*
X123947619Y-142623810D01*
X123804762Y-142814286D02*
X123852381Y-142957143D01*
X123852381Y-143195239D01*
X123804762Y-143290477D01*
X123757143Y-143338096D01*
X123661905Y-143385715D01*
X123566667Y-143385715D01*
X123471429Y-143338096D01*
X123423810Y-143290477D01*
X123376190Y-143195239D01*
X123328571Y-143004762D01*
X123280952Y-142909524D01*
X123233333Y-142861905D01*
X123138095Y-142814286D01*
X123042857Y-142814286D01*
X122947619Y-142861905D01*
X122900000Y-142909524D01*
X122852381Y-143004762D01*
X122852381Y-143242858D01*
X122900000Y-143385715D01*
X123852381Y-143814286D02*
X122852381Y-143814286D01*
X123566667Y-144147620D01*
X122852381Y-144480953D01*
X123852381Y-144480953D01*
X123566667Y-144909524D02*
X123566667Y-145385715D01*
X123852381Y-144814286D02*
X122852381Y-145147619D01*
X123852381Y-145480953D01*
X133852381Y-137861905D02*
X132852381Y-137861905D01*
X132852381Y-138242858D01*
X132900000Y-138338096D01*
X132947619Y-138385715D01*
X133042857Y-138433334D01*
X133185714Y-138433334D01*
X133280952Y-138385715D01*
X133328571Y-138338096D01*
X133376190Y-138242858D01*
X133376190Y-137861905D01*
X133852381Y-139385715D02*
X133852381Y-138814286D01*
X133852381Y-139100000D02*
X132852381Y-139100000D01*
X132995238Y-139004762D01*
X133090476Y-138909524D01*
X133138095Y-138814286D01*
X106202381Y-104433334D02*
X106202381Y-103861905D01*
X106202381Y-104147619D02*
X105202381Y-104147619D01*
X105345238Y-104052381D01*
X105440476Y-103957143D01*
X105488095Y-103861905D01*
X105202381Y-105052381D02*
X105202381Y-105147620D01*
X105250000Y-105242858D01*
X105297619Y-105290477D01*
X105392857Y-105338096D01*
X105583333Y-105385715D01*
X105821429Y-105385715D01*
X106011905Y-105338096D01*
X106107143Y-105290477D01*
X106154762Y-105242858D01*
X106202381Y-105147620D01*
X106202381Y-105052381D01*
X106154762Y-104957143D01*
X106107143Y-104909524D01*
X106011905Y-104861905D01*
X105821429Y-104814286D01*
X105583333Y-104814286D01*
X105392857Y-104861905D01*
X105297619Y-104909524D01*
X105250000Y-104957143D01*
X105202381Y-105052381D01*
X105202381Y-106004762D02*
X105202381Y-106100001D01*
X105250000Y-106195239D01*
X105297619Y-106242858D01*
X105392857Y-106290477D01*
X105583333Y-106338096D01*
X105821429Y-106338096D01*
X106011905Y-106290477D01*
X106107143Y-106242858D01*
X106154762Y-106195239D01*
X106202381Y-106100001D01*
X106202381Y-106004762D01*
X106154762Y-105909524D01*
X106107143Y-105861905D01*
X106011905Y-105814286D01*
X105821429Y-105766667D01*
X105583333Y-105766667D01*
X105392857Y-105814286D01*
X105297619Y-105861905D01*
X105250000Y-105909524D01*
X105202381Y-106004762D01*
D12*
X104226190Y-104766667D02*
X104226190Y-104480953D01*
X104226190Y-104623810D02*
X103726190Y-104623810D01*
X103797619Y-104576191D01*
X103845238Y-104528572D01*
X103869048Y-104480953D01*
X103726190Y-105076191D02*
X103726190Y-105123810D01*
X103750000Y-105171429D01*
X103773810Y-105195238D01*
X103821429Y-105219048D01*
X103916667Y-105242857D01*
X104035714Y-105242857D01*
X104130952Y-105219048D01*
X104178571Y-105195238D01*
X104202381Y-105171429D01*
X104226190Y-105123810D01*
X104226190Y-105076191D01*
X104202381Y-105028572D01*
X104178571Y-105004762D01*
X104130952Y-104980953D01*
X104035714Y-104957143D01*
X103916667Y-104957143D01*
X103821429Y-104980953D01*
X103773810Y-105004762D01*
X103750000Y-105028572D01*
X103726190Y-105076191D01*
X103726190Y-105552381D02*
X103726190Y-105600000D01*
X103750000Y-105647619D01*
X103773810Y-105671428D01*
X103821429Y-105695238D01*
X103916667Y-105719047D01*
X104035714Y-105719047D01*
X104130952Y-105695238D01*
X104178571Y-105671428D01*
X104202381Y-105647619D01*
X104226190Y-105600000D01*
X104226190Y-105552381D01*
X104202381Y-105504762D01*
X104178571Y-105480952D01*
X104130952Y-105457143D01*
X104035714Y-105433333D01*
X103916667Y-105433333D01*
X103821429Y-105457143D01*
X103773810Y-105480952D01*
X103750000Y-105504762D01*
X103726190Y-105552381D01*
D11*
X110052381Y-104459524D02*
X110052381Y-103888095D01*
X110052381Y-104173809D02*
X109052381Y-104173809D01*
X109195238Y-104078571D01*
X109290476Y-103983333D01*
X109338095Y-103888095D01*
X109052381Y-105078571D02*
X109052381Y-105173810D01*
X109100000Y-105269048D01*
X109147619Y-105316667D01*
X109242857Y-105364286D01*
X109433333Y-105411905D01*
X109671429Y-105411905D01*
X109861905Y-105364286D01*
X109957143Y-105316667D01*
X110004762Y-105269048D01*
X110052381Y-105173810D01*
X110052381Y-105078571D01*
X110004762Y-104983333D01*
X109957143Y-104935714D01*
X109861905Y-104888095D01*
X109671429Y-104840476D01*
X109433333Y-104840476D01*
X109242857Y-104888095D01*
X109147619Y-104935714D01*
X109100000Y-104983333D01*
X109052381Y-105078571D01*
X110052381Y-105840476D02*
X109052381Y-105840476D01*
X110052381Y-106411905D02*
X109480952Y-105983333D01*
X109052381Y-106411905D02*
X109623810Y-105840476D01*
D12*
X108076190Y-104804762D02*
X108076190Y-104519048D01*
X108076190Y-104661905D02*
X107576190Y-104661905D01*
X107647619Y-104614286D01*
X107695238Y-104566667D01*
X107719048Y-104519048D01*
X107576190Y-105114286D02*
X107576190Y-105161905D01*
X107600000Y-105209524D01*
X107623810Y-105233333D01*
X107671429Y-105257143D01*
X107766667Y-105280952D01*
X107885714Y-105280952D01*
X107980952Y-105257143D01*
X108028571Y-105233333D01*
X108052381Y-105209524D01*
X108076190Y-105161905D01*
X108076190Y-105114286D01*
X108052381Y-105066667D01*
X108028571Y-105042857D01*
X107980952Y-105019048D01*
X107885714Y-104995238D01*
X107766667Y-104995238D01*
X107671429Y-105019048D01*
X107623810Y-105042857D01*
X107600000Y-105066667D01*
X107576190Y-105114286D01*
X108076190Y-105495238D02*
X107576190Y-105495238D01*
X108076190Y-105780952D02*
X107790476Y-105566666D01*
X107576190Y-105780952D02*
X107861905Y-105495238D01*
D11*
X125302381Y-104683334D02*
X125302381Y-104111905D01*
X125302381Y-104397619D02*
X124302381Y-104397619D01*
X124445238Y-104302381D01*
X124540476Y-104207143D01*
X124588095Y-104111905D01*
X124302381Y-105302381D02*
X124302381Y-105397620D01*
X124350000Y-105492858D01*
X124397619Y-105540477D01*
X124492857Y-105588096D01*
X124683333Y-105635715D01*
X124921429Y-105635715D01*
X125111905Y-105588096D01*
X125207143Y-105540477D01*
X125254762Y-105492858D01*
X125302381Y-105397620D01*
X125302381Y-105302381D01*
X125254762Y-105207143D01*
X125207143Y-105159524D01*
X125111905Y-105111905D01*
X124921429Y-105064286D01*
X124683333Y-105064286D01*
X124492857Y-105111905D01*
X124397619Y-105159524D01*
X124350000Y-105207143D01*
X124302381Y-105302381D01*
X124302381Y-106254762D02*
X124302381Y-106350001D01*
X124350000Y-106445239D01*
X124397619Y-106492858D01*
X124492857Y-106540477D01*
X124683333Y-106588096D01*
X124921429Y-106588096D01*
X125111905Y-106540477D01*
X125207143Y-106492858D01*
X125254762Y-106445239D01*
X125302381Y-106350001D01*
X125302381Y-106254762D01*
X125254762Y-106159524D01*
X125207143Y-106111905D01*
X125111905Y-106064286D01*
X124921429Y-106016667D01*
X124683333Y-106016667D01*
X124492857Y-106064286D01*
X124397619Y-106111905D01*
X124350000Y-106159524D01*
X124302381Y-106254762D01*
D12*
X123326190Y-105016667D02*
X123326190Y-104730953D01*
X123326190Y-104873810D02*
X122826190Y-104873810D01*
X122897619Y-104826191D01*
X122945238Y-104778572D01*
X122969048Y-104730953D01*
X122826190Y-105326191D02*
X122826190Y-105373810D01*
X122850000Y-105421429D01*
X122873810Y-105445238D01*
X122921429Y-105469048D01*
X123016667Y-105492857D01*
X123135714Y-105492857D01*
X123230952Y-105469048D01*
X123278571Y-105445238D01*
X123302381Y-105421429D01*
X123326190Y-105373810D01*
X123326190Y-105326191D01*
X123302381Y-105278572D01*
X123278571Y-105254762D01*
X123230952Y-105230953D01*
X123135714Y-105207143D01*
X123016667Y-105207143D01*
X122921429Y-105230953D01*
X122873810Y-105254762D01*
X122850000Y-105278572D01*
X122826190Y-105326191D01*
X122826190Y-105802381D02*
X122826190Y-105850000D01*
X122850000Y-105897619D01*
X122873810Y-105921428D01*
X122921429Y-105945238D01*
X123016667Y-105969047D01*
X123135714Y-105969047D01*
X123230952Y-105945238D01*
X123278571Y-105921428D01*
X123302381Y-105897619D01*
X123326190Y-105850000D01*
X123326190Y-105802381D01*
X123302381Y-105754762D01*
X123278571Y-105730952D01*
X123230952Y-105707143D01*
X123135714Y-105683333D01*
X123016667Y-105683333D01*
X122921429Y-105707143D01*
X122873810Y-105730952D01*
X122850000Y-105754762D01*
X122826190Y-105802381D01*
D11*
X129202381Y-104559524D02*
X129202381Y-103988095D01*
X129202381Y-104273809D02*
X128202381Y-104273809D01*
X128345238Y-104178571D01*
X128440476Y-104083333D01*
X128488095Y-103988095D01*
X128202381Y-105178571D02*
X128202381Y-105273810D01*
X128250000Y-105369048D01*
X128297619Y-105416667D01*
X128392857Y-105464286D01*
X128583333Y-105511905D01*
X128821429Y-105511905D01*
X129011905Y-105464286D01*
X129107143Y-105416667D01*
X129154762Y-105369048D01*
X129202381Y-105273810D01*
X129202381Y-105178571D01*
X129154762Y-105083333D01*
X129107143Y-105035714D01*
X129011905Y-104988095D01*
X128821429Y-104940476D01*
X128583333Y-104940476D01*
X128392857Y-104988095D01*
X128297619Y-105035714D01*
X128250000Y-105083333D01*
X128202381Y-105178571D01*
X129202381Y-105940476D02*
X128202381Y-105940476D01*
X129202381Y-106511905D02*
X128630952Y-106083333D01*
X128202381Y-106511905D02*
X128773810Y-105940476D01*
D12*
X127226190Y-104904762D02*
X127226190Y-104619048D01*
X127226190Y-104761905D02*
X126726190Y-104761905D01*
X126797619Y-104714286D01*
X126845238Y-104666667D01*
X126869048Y-104619048D01*
X126726190Y-105214286D02*
X126726190Y-105261905D01*
X126750000Y-105309524D01*
X126773810Y-105333333D01*
X126821429Y-105357143D01*
X126916667Y-105380952D01*
X127035714Y-105380952D01*
X127130952Y-105357143D01*
X127178571Y-105333333D01*
X127202381Y-105309524D01*
X127226190Y-105261905D01*
X127226190Y-105214286D01*
X127202381Y-105166667D01*
X127178571Y-105142857D01*
X127130952Y-105119048D01*
X127035714Y-105095238D01*
X126916667Y-105095238D01*
X126821429Y-105119048D01*
X126773810Y-105142857D01*
X126750000Y-105166667D01*
X126726190Y-105214286D01*
X127226190Y-105595238D02*
X126726190Y-105595238D01*
X127226190Y-105880952D02*
X126940476Y-105666666D01*
X126726190Y-105880952D02*
X127011905Y-105595238D01*
D11*
X143902381Y-104133334D02*
X143902381Y-103561905D01*
X143902381Y-103847619D02*
X142902381Y-103847619D01*
X143045238Y-103752381D01*
X143140476Y-103657143D01*
X143188095Y-103561905D01*
X142902381Y-104752381D02*
X142902381Y-104847620D01*
X142950000Y-104942858D01*
X142997619Y-104990477D01*
X143092857Y-105038096D01*
X143283333Y-105085715D01*
X143521429Y-105085715D01*
X143711905Y-105038096D01*
X143807143Y-104990477D01*
X143854762Y-104942858D01*
X143902381Y-104847620D01*
X143902381Y-104752381D01*
X143854762Y-104657143D01*
X143807143Y-104609524D01*
X143711905Y-104561905D01*
X143521429Y-104514286D01*
X143283333Y-104514286D01*
X143092857Y-104561905D01*
X142997619Y-104609524D01*
X142950000Y-104657143D01*
X142902381Y-104752381D01*
X142902381Y-105704762D02*
X142902381Y-105800001D01*
X142950000Y-105895239D01*
X142997619Y-105942858D01*
X143092857Y-105990477D01*
X143283333Y-106038096D01*
X143521429Y-106038096D01*
X143711905Y-105990477D01*
X143807143Y-105942858D01*
X143854762Y-105895239D01*
X143902381Y-105800001D01*
X143902381Y-105704762D01*
X143854762Y-105609524D01*
X143807143Y-105561905D01*
X143711905Y-105514286D01*
X143521429Y-105466667D01*
X143283333Y-105466667D01*
X143092857Y-105514286D01*
X142997619Y-105561905D01*
X142950000Y-105609524D01*
X142902381Y-105704762D01*
D12*
X141926190Y-104466667D02*
X141926190Y-104180953D01*
X141926190Y-104323810D02*
X141426190Y-104323810D01*
X141497619Y-104276191D01*
X141545238Y-104228572D01*
X141569048Y-104180953D01*
X141426190Y-104776191D02*
X141426190Y-104823810D01*
X141450000Y-104871429D01*
X141473810Y-104895238D01*
X141521429Y-104919048D01*
X141616667Y-104942857D01*
X141735714Y-104942857D01*
X141830952Y-104919048D01*
X141878571Y-104895238D01*
X141902381Y-104871429D01*
X141926190Y-104823810D01*
X141926190Y-104776191D01*
X141902381Y-104728572D01*
X141878571Y-104704762D01*
X141830952Y-104680953D01*
X141735714Y-104657143D01*
X141616667Y-104657143D01*
X141521429Y-104680953D01*
X141473810Y-104704762D01*
X141450000Y-104728572D01*
X141426190Y-104776191D01*
X141426190Y-105252381D02*
X141426190Y-105300000D01*
X141450000Y-105347619D01*
X141473810Y-105371428D01*
X141521429Y-105395238D01*
X141616667Y-105419047D01*
X141735714Y-105419047D01*
X141830952Y-105395238D01*
X141878571Y-105371428D01*
X141902381Y-105347619D01*
X141926190Y-105300000D01*
X141926190Y-105252381D01*
X141902381Y-105204762D01*
X141878571Y-105180952D01*
X141830952Y-105157143D01*
X141735714Y-105133333D01*
X141616667Y-105133333D01*
X141521429Y-105157143D01*
X141473810Y-105180952D01*
X141450000Y-105204762D01*
X141426190Y-105252381D01*
D11*
X147802381Y-104159524D02*
X147802381Y-103588095D01*
X147802381Y-103873809D02*
X146802381Y-103873809D01*
X146945238Y-103778571D01*
X147040476Y-103683333D01*
X147088095Y-103588095D01*
X146802381Y-104778571D02*
X146802381Y-104873810D01*
X146850000Y-104969048D01*
X146897619Y-105016667D01*
X146992857Y-105064286D01*
X147183333Y-105111905D01*
X147421429Y-105111905D01*
X147611905Y-105064286D01*
X147707143Y-105016667D01*
X147754762Y-104969048D01*
X147802381Y-104873810D01*
X147802381Y-104778571D01*
X147754762Y-104683333D01*
X147707143Y-104635714D01*
X147611905Y-104588095D01*
X147421429Y-104540476D01*
X147183333Y-104540476D01*
X146992857Y-104588095D01*
X146897619Y-104635714D01*
X146850000Y-104683333D01*
X146802381Y-104778571D01*
X147802381Y-105540476D02*
X146802381Y-105540476D01*
X147802381Y-106111905D02*
X147230952Y-105683333D01*
X146802381Y-106111905D02*
X147373810Y-105540476D01*
D12*
X145826190Y-104504762D02*
X145826190Y-104219048D01*
X145826190Y-104361905D02*
X145326190Y-104361905D01*
X145397619Y-104314286D01*
X145445238Y-104266667D01*
X145469048Y-104219048D01*
X145326190Y-104814286D02*
X145326190Y-104861905D01*
X145350000Y-104909524D01*
X145373810Y-104933333D01*
X145421429Y-104957143D01*
X145516667Y-104980952D01*
X145635714Y-104980952D01*
X145730952Y-104957143D01*
X145778571Y-104933333D01*
X145802381Y-104909524D01*
X145826190Y-104861905D01*
X145826190Y-104814286D01*
X145802381Y-104766667D01*
X145778571Y-104742857D01*
X145730952Y-104719048D01*
X145635714Y-104695238D01*
X145516667Y-104695238D01*
X145421429Y-104719048D01*
X145373810Y-104742857D01*
X145350000Y-104766667D01*
X145326190Y-104814286D01*
X145826190Y-105195238D02*
X145326190Y-105195238D01*
X145826190Y-105480952D02*
X145540476Y-105266666D01*
X145326190Y-105480952D02*
X145611905Y-105195238D01*
D11*
X162902381Y-104633334D02*
X162902381Y-104061905D01*
X162902381Y-104347619D02*
X161902381Y-104347619D01*
X162045238Y-104252381D01*
X162140476Y-104157143D01*
X162188095Y-104061905D01*
X161902381Y-105252381D02*
X161902381Y-105347620D01*
X161950000Y-105442858D01*
X161997619Y-105490477D01*
X162092857Y-105538096D01*
X162283333Y-105585715D01*
X162521429Y-105585715D01*
X162711905Y-105538096D01*
X162807143Y-105490477D01*
X162854762Y-105442858D01*
X162902381Y-105347620D01*
X162902381Y-105252381D01*
X162854762Y-105157143D01*
X162807143Y-105109524D01*
X162711905Y-105061905D01*
X162521429Y-105014286D01*
X162283333Y-105014286D01*
X162092857Y-105061905D01*
X161997619Y-105109524D01*
X161950000Y-105157143D01*
X161902381Y-105252381D01*
X161902381Y-106204762D02*
X161902381Y-106300001D01*
X161950000Y-106395239D01*
X161997619Y-106442858D01*
X162092857Y-106490477D01*
X162283333Y-106538096D01*
X162521429Y-106538096D01*
X162711905Y-106490477D01*
X162807143Y-106442858D01*
X162854762Y-106395239D01*
X162902381Y-106300001D01*
X162902381Y-106204762D01*
X162854762Y-106109524D01*
X162807143Y-106061905D01*
X162711905Y-106014286D01*
X162521429Y-105966667D01*
X162283333Y-105966667D01*
X162092857Y-106014286D01*
X161997619Y-106061905D01*
X161950000Y-106109524D01*
X161902381Y-106204762D01*
D12*
X160926190Y-104966667D02*
X160926190Y-104680953D01*
X160926190Y-104823810D02*
X160426190Y-104823810D01*
X160497619Y-104776191D01*
X160545238Y-104728572D01*
X160569048Y-104680953D01*
X160426190Y-105276191D02*
X160426190Y-105323810D01*
X160450000Y-105371429D01*
X160473810Y-105395238D01*
X160521429Y-105419048D01*
X160616667Y-105442857D01*
X160735714Y-105442857D01*
X160830952Y-105419048D01*
X160878571Y-105395238D01*
X160902381Y-105371429D01*
X160926190Y-105323810D01*
X160926190Y-105276191D01*
X160902381Y-105228572D01*
X160878571Y-105204762D01*
X160830952Y-105180953D01*
X160735714Y-105157143D01*
X160616667Y-105157143D01*
X160521429Y-105180953D01*
X160473810Y-105204762D01*
X160450000Y-105228572D01*
X160426190Y-105276191D01*
X160426190Y-105752381D02*
X160426190Y-105800000D01*
X160450000Y-105847619D01*
X160473810Y-105871428D01*
X160521429Y-105895238D01*
X160616667Y-105919047D01*
X160735714Y-105919047D01*
X160830952Y-105895238D01*
X160878571Y-105871428D01*
X160902381Y-105847619D01*
X160926190Y-105800000D01*
X160926190Y-105752381D01*
X160902381Y-105704762D01*
X160878571Y-105680952D01*
X160830952Y-105657143D01*
X160735714Y-105633333D01*
X160616667Y-105633333D01*
X160521429Y-105657143D01*
X160473810Y-105680952D01*
X160450000Y-105704762D01*
X160426190Y-105752381D01*
D11*
X166852381Y-104559524D02*
X166852381Y-103988095D01*
X166852381Y-104273809D02*
X165852381Y-104273809D01*
X165995238Y-104178571D01*
X166090476Y-104083333D01*
X166138095Y-103988095D01*
X165852381Y-105178571D02*
X165852381Y-105273810D01*
X165900000Y-105369048D01*
X165947619Y-105416667D01*
X166042857Y-105464286D01*
X166233333Y-105511905D01*
X166471429Y-105511905D01*
X166661905Y-105464286D01*
X166757143Y-105416667D01*
X166804762Y-105369048D01*
X166852381Y-105273810D01*
X166852381Y-105178571D01*
X166804762Y-105083333D01*
X166757143Y-105035714D01*
X166661905Y-104988095D01*
X166471429Y-104940476D01*
X166233333Y-104940476D01*
X166042857Y-104988095D01*
X165947619Y-105035714D01*
X165900000Y-105083333D01*
X165852381Y-105178571D01*
X166852381Y-105940476D02*
X165852381Y-105940476D01*
X166852381Y-106511905D02*
X166280952Y-106083333D01*
X165852381Y-106511905D02*
X166423810Y-105940476D01*
D12*
X164876190Y-104904762D02*
X164876190Y-104619048D01*
X164876190Y-104761905D02*
X164376190Y-104761905D01*
X164447619Y-104714286D01*
X164495238Y-104666667D01*
X164519048Y-104619048D01*
X164376190Y-105214286D02*
X164376190Y-105261905D01*
X164400000Y-105309524D01*
X164423810Y-105333333D01*
X164471429Y-105357143D01*
X164566667Y-105380952D01*
X164685714Y-105380952D01*
X164780952Y-105357143D01*
X164828571Y-105333333D01*
X164852381Y-105309524D01*
X164876190Y-105261905D01*
X164876190Y-105214286D01*
X164852381Y-105166667D01*
X164828571Y-105142857D01*
X164780952Y-105119048D01*
X164685714Y-105095238D01*
X164566667Y-105095238D01*
X164471429Y-105119048D01*
X164423810Y-105142857D01*
X164400000Y-105166667D01*
X164376190Y-105214286D01*
X164876190Y-105595238D02*
X164376190Y-105595238D01*
X164876190Y-105880952D02*
X164590476Y-105666666D01*
X164376190Y-105880952D02*
X164661905Y-105595238D01*
M02*
