G04 #@! TF.FileFunction,Legend,Top*
%FSLAX46Y46*%
G04 Gerber Fmt 4.6, Leading zero omitted, Abs format (unit mm)*
G04 Created by KiCad (PCBNEW 4.0.2-stable) date 10/05/17 14:11:08*
%MOMM*%
G01*
G04 APERTURE LIST*
%ADD10C,0.100000*%
%ADD11C,0.200000*%
%ADD12C,0.030000*%
%ADD13C,0.120000*%
%ADD14C,0.150000*%
G04 APERTURE END LIST*
D10*
D11*
X82500000Y-49500000D02*
X82500000Y-141500000D01*
X174600000Y-49500000D02*
X82500000Y-49500000D01*
X174600000Y-141500000D02*
X174600000Y-49500000D01*
X82500000Y-141500000D02*
X174600000Y-141500000D01*
X84000000Y-50500000D02*
X83500000Y-50500000D01*
D12*
X112164500Y-121494360D02*
X112164500Y-129492820D01*
X116165000Y-121494360D02*
X116165000Y-129492820D01*
X120162960Y-121494360D02*
X110160440Y-121496900D01*
X120162960Y-129492820D02*
X110162980Y-129492820D01*
X112161960Y-61491940D02*
X112164500Y-69490400D01*
X116165000Y-69490400D02*
X116165000Y-61491940D01*
X120162960Y-61497020D02*
X110162980Y-61491940D01*
X120165500Y-69487860D02*
X110162980Y-69490400D01*
X123165240Y-87491380D02*
X120152800Y-87491380D01*
X120152800Y-87491380D02*
X120162960Y-103498460D01*
X120162960Y-103498460D02*
X128156340Y-103490840D01*
X128156340Y-103490840D02*
X128156340Y-119500460D01*
X128156340Y-119500460D02*
X120152800Y-119495380D01*
X120152800Y-119495380D02*
X120178200Y-131479100D01*
X120178200Y-131479100D02*
X128179200Y-131479100D01*
X128179200Y-131479100D02*
X128179200Y-137994200D01*
X128179200Y-137994200D02*
X110183300Y-137956100D01*
X110183300Y-137956100D02*
X110170600Y-99525900D01*
X110170600Y-99525900D02*
X116139600Y-99525900D01*
X116139600Y-99525900D02*
X116139600Y-91524900D01*
X116139600Y-91524900D02*
X110170600Y-91524900D01*
X110170600Y-91524900D02*
X110170600Y-53043900D01*
X110170600Y-53043900D02*
X128204600Y-53043900D01*
X128204600Y-53043900D02*
X128204600Y-59520900D01*
X128204600Y-59520900D02*
X120203600Y-59520900D01*
X120203600Y-59520900D02*
X120203600Y-71458900D01*
X120203600Y-71458900D02*
X128204600Y-71458900D01*
X128204600Y-71458900D02*
X128204600Y-87460900D01*
X128204600Y-87460900D02*
X123165240Y-87491380D01*
D13*
X120496980Y-100604760D02*
X120496980Y-90364760D01*
X125137980Y-100604760D02*
X125137980Y-90364760D01*
X120496980Y-100604760D02*
X125137980Y-100604760D01*
X120496980Y-90364760D02*
X125137980Y-90364760D01*
X122006980Y-100604760D02*
X122006980Y-90364760D01*
X120496980Y-97334760D02*
X122006980Y-97334760D01*
X120496980Y-93633760D02*
X122006980Y-93633760D01*
D12*
X149714500Y-121494360D02*
X149714500Y-129492820D01*
X153715000Y-121494360D02*
X153715000Y-129492820D01*
X157712960Y-121494360D02*
X147710440Y-121496900D01*
X157712960Y-129492820D02*
X147712980Y-129492820D01*
X149711960Y-61491940D02*
X149714500Y-69490400D01*
X153715000Y-69490400D02*
X153715000Y-61491940D01*
X157712960Y-61497020D02*
X147712980Y-61491940D01*
X157715500Y-69487860D02*
X147712980Y-69490400D01*
X160715240Y-87491380D02*
X157702800Y-87491380D01*
X157702800Y-87491380D02*
X157712960Y-103498460D01*
X157712960Y-103498460D02*
X165706340Y-103490840D01*
X165706340Y-103490840D02*
X165706340Y-119500460D01*
X165706340Y-119500460D02*
X157702800Y-119495380D01*
X157702800Y-119495380D02*
X157728200Y-131479100D01*
X157728200Y-131479100D02*
X165729200Y-131479100D01*
X165729200Y-131479100D02*
X165729200Y-137994200D01*
X165729200Y-137994200D02*
X147733300Y-137956100D01*
X147733300Y-137956100D02*
X147720600Y-99525900D01*
X147720600Y-99525900D02*
X153689600Y-99525900D01*
X153689600Y-99525900D02*
X153689600Y-91524900D01*
X153689600Y-91524900D02*
X147720600Y-91524900D01*
X147720600Y-91524900D02*
X147720600Y-53043900D01*
X147720600Y-53043900D02*
X165754600Y-53043900D01*
X165754600Y-53043900D02*
X165754600Y-59520900D01*
X165754600Y-59520900D02*
X157753600Y-59520900D01*
X157753600Y-59520900D02*
X157753600Y-71458900D01*
X157753600Y-71458900D02*
X165754600Y-71458900D01*
X165754600Y-71458900D02*
X165754600Y-87460900D01*
X165754600Y-87460900D02*
X160715240Y-87491380D01*
D13*
X158046980Y-100604760D02*
X158046980Y-90364760D01*
X162687980Y-100604760D02*
X162687980Y-90364760D01*
X158046980Y-100604760D02*
X162687980Y-100604760D01*
X158046980Y-90364760D02*
X162687980Y-90364760D01*
X159556980Y-100604760D02*
X159556980Y-90364760D01*
X158046980Y-97334760D02*
X159556980Y-97334760D01*
X158046980Y-93633760D02*
X159556980Y-93633760D01*
D12*
X93014500Y-121494360D02*
X93014500Y-129492820D01*
X97015000Y-121494360D02*
X97015000Y-129492820D01*
X101012960Y-121494360D02*
X91010440Y-121496900D01*
X101012960Y-129492820D02*
X91012980Y-129492820D01*
X93011960Y-61491940D02*
X93014500Y-69490400D01*
X97015000Y-69490400D02*
X97015000Y-61491940D01*
X101012960Y-61497020D02*
X91012980Y-61491940D01*
X101015500Y-69487860D02*
X91012980Y-69490400D01*
X104015240Y-87491380D02*
X101002800Y-87491380D01*
X101002800Y-87491380D02*
X101012960Y-103498460D01*
X101012960Y-103498460D02*
X109006340Y-103490840D01*
X109006340Y-103490840D02*
X109006340Y-119500460D01*
X109006340Y-119500460D02*
X101002800Y-119495380D01*
X101002800Y-119495380D02*
X101028200Y-131479100D01*
X101028200Y-131479100D02*
X109029200Y-131479100D01*
X109029200Y-131479100D02*
X109029200Y-137994200D01*
X109029200Y-137994200D02*
X91033300Y-137956100D01*
X91033300Y-137956100D02*
X91020600Y-99525900D01*
X91020600Y-99525900D02*
X96989600Y-99525900D01*
X96989600Y-99525900D02*
X96989600Y-91524900D01*
X96989600Y-91524900D02*
X91020600Y-91524900D01*
X91020600Y-91524900D02*
X91020600Y-53043900D01*
X91020600Y-53043900D02*
X109054600Y-53043900D01*
X109054600Y-53043900D02*
X109054600Y-59520900D01*
X109054600Y-59520900D02*
X101053600Y-59520900D01*
X101053600Y-59520900D02*
X101053600Y-71458900D01*
X101053600Y-71458900D02*
X109054600Y-71458900D01*
X109054600Y-71458900D02*
X109054600Y-87460900D01*
X109054600Y-87460900D02*
X104015240Y-87491380D01*
D13*
X101346980Y-100604760D02*
X101346980Y-90364760D01*
X105987980Y-100604760D02*
X105987980Y-90364760D01*
X101346980Y-100604760D02*
X105987980Y-100604760D01*
X101346980Y-90364760D02*
X105987980Y-90364760D01*
X102856980Y-100604760D02*
X102856980Y-90364760D01*
X101346980Y-97334760D02*
X102856980Y-97334760D01*
X101346980Y-93633760D02*
X102856980Y-93633760D01*
D12*
X130764500Y-121494360D02*
X130764500Y-129492820D01*
X134765000Y-121494360D02*
X134765000Y-129492820D01*
X138762960Y-121494360D02*
X128760440Y-121496900D01*
X138762960Y-129492820D02*
X128762980Y-129492820D01*
X130761960Y-61491940D02*
X130764500Y-69490400D01*
X134765000Y-69490400D02*
X134765000Y-61491940D01*
X138762960Y-61497020D02*
X128762980Y-61491940D01*
X138765500Y-69487860D02*
X128762980Y-69490400D01*
X141765240Y-87491380D02*
X138752800Y-87491380D01*
X138752800Y-87491380D02*
X138762960Y-103498460D01*
X138762960Y-103498460D02*
X146756340Y-103490840D01*
X146756340Y-103490840D02*
X146756340Y-119500460D01*
X146756340Y-119500460D02*
X138752800Y-119495380D01*
X138752800Y-119495380D02*
X138778200Y-131479100D01*
X138778200Y-131479100D02*
X146779200Y-131479100D01*
X146779200Y-131479100D02*
X146779200Y-137994200D01*
X146779200Y-137994200D02*
X128783300Y-137956100D01*
X128783300Y-137956100D02*
X128770600Y-99525900D01*
X128770600Y-99525900D02*
X134739600Y-99525900D01*
X134739600Y-99525900D02*
X134739600Y-91524900D01*
X134739600Y-91524900D02*
X128770600Y-91524900D01*
X128770600Y-91524900D02*
X128770600Y-53043900D01*
X128770600Y-53043900D02*
X146804600Y-53043900D01*
X146804600Y-53043900D02*
X146804600Y-59520900D01*
X146804600Y-59520900D02*
X138803600Y-59520900D01*
X138803600Y-59520900D02*
X138803600Y-71458900D01*
X138803600Y-71458900D02*
X146804600Y-71458900D01*
X146804600Y-71458900D02*
X146804600Y-87460900D01*
X146804600Y-87460900D02*
X141765240Y-87491380D01*
D13*
X139096980Y-100604760D02*
X139096980Y-90364760D01*
X143737980Y-100604760D02*
X143737980Y-90364760D01*
X139096980Y-100604760D02*
X143737980Y-100604760D01*
X139096980Y-90364760D02*
X143737980Y-90364760D01*
X140606980Y-100604760D02*
X140606980Y-90364760D01*
X139096980Y-97334760D02*
X140606980Y-97334760D01*
X139096980Y-93633760D02*
X140606980Y-93633760D01*
D14*
X120176679Y-95676518D02*
X120129060Y-95771756D01*
X120033822Y-95866994D01*
X119890965Y-96009851D01*
X119843346Y-96105090D01*
X119843346Y-96200328D01*
X120081441Y-96152709D02*
X120033822Y-96247947D01*
X119938584Y-96343185D01*
X119748108Y-96390804D01*
X119414774Y-96390804D01*
X119224298Y-96343185D01*
X119129060Y-96247947D01*
X119081441Y-96152709D01*
X119081441Y-95962232D01*
X119129060Y-95866994D01*
X119224298Y-95771756D01*
X119414774Y-95724137D01*
X119748108Y-95724137D01*
X119938584Y-95771756D01*
X120033822Y-95866994D01*
X120081441Y-95962232D01*
X120081441Y-96152709D01*
X119176679Y-95343185D02*
X119129060Y-95295566D01*
X119081441Y-95200328D01*
X119081441Y-94962232D01*
X119129060Y-94866994D01*
X119176679Y-94819375D01*
X119271917Y-94771756D01*
X119367155Y-94771756D01*
X119510012Y-94819375D01*
X120081441Y-95390804D01*
X120081441Y-94771756D01*
X157726679Y-95676518D02*
X157679060Y-95771756D01*
X157583822Y-95866994D01*
X157440965Y-96009851D01*
X157393346Y-96105090D01*
X157393346Y-96200328D01*
X157631441Y-96152709D02*
X157583822Y-96247947D01*
X157488584Y-96343185D01*
X157298108Y-96390804D01*
X156964774Y-96390804D01*
X156774298Y-96343185D01*
X156679060Y-96247947D01*
X156631441Y-96152709D01*
X156631441Y-95962232D01*
X156679060Y-95866994D01*
X156774298Y-95771756D01*
X156964774Y-95724137D01*
X157298108Y-95724137D01*
X157488584Y-95771756D01*
X157583822Y-95866994D01*
X157631441Y-95962232D01*
X157631441Y-96152709D01*
X156964774Y-94866994D02*
X157631441Y-94866994D01*
X156583822Y-95105090D02*
X157298108Y-95343185D01*
X157298108Y-94724137D01*
X101026679Y-95676518D02*
X100979060Y-95771756D01*
X100883822Y-95866994D01*
X100740965Y-96009851D01*
X100693346Y-96105090D01*
X100693346Y-96200328D01*
X100931441Y-96152709D02*
X100883822Y-96247947D01*
X100788584Y-96343185D01*
X100598108Y-96390804D01*
X100264774Y-96390804D01*
X100074298Y-96343185D01*
X99979060Y-96247947D01*
X99931441Y-96152709D01*
X99931441Y-95962232D01*
X99979060Y-95866994D01*
X100074298Y-95771756D01*
X100264774Y-95724137D01*
X100598108Y-95724137D01*
X100788584Y-95771756D01*
X100883822Y-95866994D01*
X100931441Y-95962232D01*
X100931441Y-96152709D01*
X100931441Y-94771756D02*
X100931441Y-95343185D01*
X100931441Y-95057471D02*
X99931441Y-95057471D01*
X100074298Y-95152709D01*
X100169536Y-95247947D01*
X100217155Y-95343185D01*
X138776679Y-95676518D02*
X138729060Y-95771756D01*
X138633822Y-95866994D01*
X138490965Y-96009851D01*
X138443346Y-96105090D01*
X138443346Y-96200328D01*
X138681441Y-96152709D02*
X138633822Y-96247947D01*
X138538584Y-96343185D01*
X138348108Y-96390804D01*
X138014774Y-96390804D01*
X137824298Y-96343185D01*
X137729060Y-96247947D01*
X137681441Y-96152709D01*
X137681441Y-95962232D01*
X137729060Y-95866994D01*
X137824298Y-95771756D01*
X138014774Y-95724137D01*
X138348108Y-95724137D01*
X138538584Y-95771756D01*
X138633822Y-95866994D01*
X138681441Y-95962232D01*
X138681441Y-96152709D01*
X137681441Y-95390804D02*
X137681441Y-94771756D01*
X138062393Y-95105090D01*
X138062393Y-94962232D01*
X138110012Y-94866994D01*
X138157631Y-94819375D01*
X138252870Y-94771756D01*
X138490965Y-94771756D01*
X138586203Y-94819375D01*
X138633822Y-94866994D01*
X138681441Y-94962232D01*
X138681441Y-95247947D01*
X138633822Y-95343185D01*
X138586203Y-95390804D01*
M02*
