M48
INCH,TZ
T1C0.016
T2C0.020
T3C0.039
T4C0.059
T5C0.067
T6C0.071
T7C0.118
T8C0.126
%
G90
G05
T1
X3.1413Y-2.9795
X3.1417Y-4.2205
X3.1421Y-2.8795
X3.1433Y-3.1681
X3.1465Y-3.1008
X3.1535Y-3.9606
X3.1535Y-4.1299
X3.1575Y-3.8543
X3.1587Y-3.0378
X3.1654Y-4.2953
X3.1732Y-4.0315
X3.1772Y-4.4921
X3.1854Y-3.2024
X3.1929Y-4.6063
X3.1929Y-4.9016
X3.1949Y-5.3209
X3.1969Y-4.7913
X3.1969Y-5.0276
X3.2008Y-4.6929
X3.2047Y-4.4252
X3.2055Y-3.1504
X3.2063Y-2.8559
X3.2067Y-5.5059
X3.2126Y-5.1476
X3.2165Y-2.9465
X3.2185Y-3.0933
X3.2283Y-3.8465
X3.2323Y-4.2913
X3.248Y-4.1929
X3.2642Y-3.1681
X3.2654Y-2.8583
X3.2693Y-3.0276
X3.2972Y-5.6142
X3.2992Y-4.5
X3.3189Y-4.2677
X3.3189Y-5.1417
X3.3252Y-2.8583
X3.328Y-3.1937
X3.3346Y-4.4252
X3.3386Y-3.8465
X3.3425Y-4.5709
X3.3819Y-4.7441
X3.3937Y-3.1937
X3.4055Y-4.3465
X3.4091Y-2.8508
X3.4252Y-4.4921
X3.4291Y-4.248
X3.4402Y-5.6142
X3.4409Y-3.8858
X3.4547Y-5.1161
X3.4673Y-3.0343
X3.4689Y-2.8591
X3.4846Y-3.187
X3.4882Y-4.0039
X3.4961Y-3.1063
X3.4961Y-4.0866
X3.4984Y-2.9303
X3.5079Y-2.8417
X3.5079Y-4.185
X3.5276Y-4.2795
X3.5303Y-3.0673
X3.5315Y-4.4134
X3.535Y-2.8791
X3.5366Y-2.9815
X3.5409Y-3.1512
X3.5413Y-4.9075
X3.563Y-3.9016
X3.5669Y-5.1476
X3.5787Y-4.0945
X3.5906Y-4.0039
X3.5984Y-5.6063
X3.6024Y-4.7323
X3.6063Y-4.1811
X3.6378Y-4.2795
X3.6614Y-4.
X3.6654Y-3.8898
X3.6654Y-4.0787
X3.6732Y-4.1811
X3.6799Y-5.4402
X3.7028Y-5.6004
X3.7165Y-5.2402
X3.7736Y-4.6909
X3.7949Y-5.45
X3.8327Y-5.3031
X3.8327Y-5.5335
X3.8425Y-3.7205
X3.8701Y-5.1634
X3.878Y-3.6811
X3.878Y-3.7559
X3.8902Y-5.635
X3.9075Y-4.1949
X3.9201Y-5.3551
X3.9331Y-3.689
X3.9331Y-3.7559
X3.935Y-5.2598
X3.9764Y-3.6929
X3.9803Y-4.7185
X4.0118Y-3.7559
X4.0177Y-5.1634
X4.0276Y-3.6969
X4.0354Y-5.4665
X4.0394Y-4.9035
X4.0492Y-5.5886
X4.0591Y-5.3209
X4.0945Y-4.2953
X4.1398Y-4.8307
X4.1402Y-5.5098
X4.1449Y-5.635
X4.1516Y-4.9882
X4.1535Y-4.6909
X4.1614Y-3.6929
X4.1654Y-3.7598
X4.1654Y-5.1634
X4.2205Y-3.7598
X4.2244Y-3.689
X4.2252Y-5.015
X4.2402Y-5.185
X4.2421Y-5.498
X4.2598Y-4.8299
X4.265Y-4.715
X4.2756Y-3.685
X4.2756Y-3.7598
X4.2835Y-5.3228
X4.3079Y-5.5575
X4.3244Y-5.4315
X4.3346Y-3.7638
X4.3425Y-3.689
X4.3425Y-5.2185
X4.3449Y-5.035
X4.35Y-4.9051
X4.3591Y-5.1256
X4.3642Y-5.624
X4.3665Y-5.3567
X4.3976Y-3.6969
X4.3976Y-3.7677
X4.4236Y-5.5634
X4.4252Y-4.6902
X4.4461Y-5.463
X4.4646Y-3.689
X4.4685Y-3.7598
X4.4728Y-5.3504
X4.4728Y-5.624
X4.4941Y-5.265
X4.5Y-5.178
X4.5394Y-3.6969
X4.5394Y-3.7598
X4.5571Y-5.5244
X4.5571Y-5.6142
X4.5764Y-5.361
X4.5866Y-5.4055
X4.5886Y-4.2008
X4.6142Y-3.6929
X4.6142Y-3.7559
X4.6252Y-4.6752
X4.65Y-5.3039
X4.6543Y-5.628
X4.6709Y-5.172
X4.6811Y-3.6929
X4.685Y-3.7559
X4.713Y-5.4224
X4.7386Y-5.5831
X4.7402Y-3.685
X4.7402Y-3.7638
X4.7531Y-4.6969
X4.7795Y-3.7205
X4.7811Y-4.9945
X4.7925Y-5.139
X4.7984Y-5.3264
X4.802Y-4.8441
X4.8197Y-5.6504
X4.837Y-4.6933
X4.8484Y-4.3091
X4.8614Y-5.4512
X4.8697Y-1.913
X4.8736Y-1.9949
X4.8744Y-1.8409
X4.8752Y-2.0728
X4.8752Y-2.1614
X4.8764Y-2.2217
X4.8827Y-5.5484
X4.9Y-5.0433
X4.9Y-5.1697
X4.9244Y-4.865
X4.9264Y-1.911
X4.928Y-4.7252
X4.928Y-5.2642
X4.9319Y-1.8425
X4.9331Y-3.6929
X4.9331Y-3.7559
X4.9366Y-2.2201
X4.9366Y-5.6386
X4.9756Y-2.1701
X4.9882Y-3.7638
X4.9921Y-3.6811
X4.9937Y-1.9094
X4.9969Y-1.8386
X5.0244Y-2.2161
X5.0433Y-3.7638
X5.0472Y-3.6969
X5.0551Y-5.3701
X5.0606Y-1.8457
X5.0606Y-1.911
X5.0701Y-2.1441
X5.0835Y-2.211
X5.0984Y-3.7598
X5.1075Y-5.6362
X5.1102Y-3.689
X5.1327Y-1.8425
X5.135Y-1.9094
X5.1449Y-2.1988
X5.1496Y-3.7598
X5.1614Y-3.689
X5.1744Y-5.1898
X5.1764Y-5.1205
X5.1878Y-5.2535
X5.215Y-5.6177
X5.2165Y-3.7638
X5.2244Y-3.6929
X5.2256Y-5.348
X5.2303Y-1.8421
X5.2303Y-2.1961
X5.2335Y-1.9142
X5.2335Y-2.0024
X5.2366Y-2.0866
X5.2717Y-3.685
X5.2717Y-3.7638
X5.3063Y-5.2031
X5.3217Y-5.4319
X5.3248Y-4.1791
X5.3307Y-3.7638
X5.3425Y-3.6929
X5.348Y-5.2689
X5.3642Y-5.6161
X5.3701Y-5.5197
X5.3768Y-5.5638
X5.3835Y-5.4142
X5.3976Y-3.6929
X5.4016Y-3.7638
X5.439Y-5.2642
X5.4449Y-4.7035
X5.4528Y-3.7638
X5.4567Y-3.685
X5.4626Y-5.4693
X5.489Y-4.8114
X5.4913Y-5.3571
X5.5079Y-3.7126
X5.5079Y-3.7638
X5.5374Y-4.9634
X5.5374Y-5.1217
X5.5531Y-5.6161
X5.5571Y-4.6705
X5.5681Y-5.4031
X5.5835Y-5.5197
X5.5866Y-4.3031
X5.5969Y-5.0224
X5.6098Y-4.8488
X5.6496Y-3.7598
X5.6496Y-5.1413
X5.6575Y-3.6929
X5.6783Y-5.5197
X5.6894Y-5.3988
X5.6909Y-5.3059
X5.6957Y-4.8157
X5.711Y-5.0008
X5.7165Y-3.6929
X5.7165Y-3.7559
X5.7197Y-5.6236
X5.7398Y-4.7213
X5.7677Y-3.7598
X5.7717Y-3.6969
X5.7772Y-5.5307
X5.7992Y-4.9303
X5.8059Y-5.115
X5.8169Y-5.3878
X5.8307Y-3.7638
X5.8343Y-5.2382
X5.8346Y-3.6929
X5.8441Y-5.6236
X5.898Y-5.5264
X5.9016Y-3.7008
X5.9016Y-3.7559
X5.9244Y-5.3394
X5.9244Y-5.4492
X5.9606Y-3.7677
X5.9685Y-3.689
X5.9839Y-5.1701
X5.9925Y-5.6236
X6.0039Y-5.4319
X6.0102Y-5.2535
X6.015Y-4.6969
X6.0236Y-3.7638
X6.0276Y-3.689
X6.05Y-5.348
X6.05Y-5.522
X6.0748Y-3.689
X6.0827Y-3.7677
X6.0886Y-5.628
X6.1299Y-4.1988
X6.1382Y-5.1567
X6.1402Y-5.2602
X6.1417Y-3.6929
X6.1496Y-3.7559
X6.1622Y-5.5287
X6.1646Y-5.4583
X6.1819Y-5.3461
X6.2087Y-3.6969
X6.2087Y-3.7598
X6.226Y-4.6882
X6.248Y-5.6256
X6.2677Y-3.7165
X6.2701Y-5.1831
X6.2854Y-5.3724
X6.2854Y-5.511
X6.2984Y-5.2622
X6.3307Y-4.3189
X6.335Y-4.9142
X6.3622Y-4.7961
X6.3642Y-5.3504
X6.3799Y-5.185
X6.4055Y-3.6811
X6.4094Y-3.7559
X6.4154Y-5.0819
X6.4409Y-5.5945
X6.4614Y-5.2161
X6.4681Y-5.5417
X6.4803Y-3.685
X6.4819Y-4.6969
X6.4843Y-3.7598
X6.5236Y-4.8543
X6.5382Y-5.0118
X6.5492Y-5.1102
X6.5846Y-5.6583
X6.5906Y-4.7075
X6.5906Y-4.8543
X6.6217Y-2.8984
X6.6256Y-2.9622
X6.6551Y-3.1461
X6.6559Y-3.0709
X6.6622Y-3.0031
X6.6752Y-2.8472
X6.6783Y-2.7846
X6.6791Y-5.6102
X6.6886Y-5.1134
X6.6902Y-4.1106
X6.6902Y-4.2327
X6.6913Y-3.9929
X6.6988Y-4.5209
X6.6988Y-4.6244
X6.7079Y-4.3295
X6.7122Y-4.4154
X6.7224Y-2.9882
X6.7417Y-3.1602
X6.7606Y-2.8232
X6.7772Y-4.013
X6.7835Y-4.135
X6.7835Y-4.4134
X6.7835Y-4.4988
X6.7835Y-4.5709
X6.7854Y-4.248
X6.7933Y-4.7067
X6.8004Y-5.6343
X6.8094Y-2.7862
X6.8146Y-3.1583
X6.822Y-4.3295
X6.8244Y-4.6157
X6.8283Y-5.1134
X6.8504Y-4.9843
X6.8531Y-5.4598
X6.8606Y-4.0811
X6.8661Y-4.1988
X6.872Y-2.828
X6.8858Y-3.1657
X6.8906Y-3.972
X6.9012Y-3.8264
X6.9094Y-5.2559
X6.9094Y-5.376
X6.9094Y-5.5
X6.9122Y-2.9929
X6.9209Y-2.7807
X6.9224Y-2.8776
X6.9264Y-4.7354
X6.9323Y-4.565
X6.9366Y-3.0677
X6.9406Y-5.2079
X6.9409Y-4.4331
X6.9453Y-3.7331
X6.9453Y-4.3055
X6.9465Y-4.1732
X6.9504Y-3.9031
X6.952Y-3.1701
X6.9543Y-4.028
X6.9606Y-3.102
X6.9618Y-2.9449
X6.9697Y-3.0161
X6.9768Y-2.7882
X6.9846Y-2.848
T2
X3.3504Y-2.1457
X3.3504Y-5.374
X3.3781Y-2.0789
X3.3781Y-2.2125
X3.3781Y-5.3072
X3.3781Y-5.4408
X3.4449Y-2.0512
X3.4449Y-2.2402
X3.4449Y-5.2795
X3.4449Y-5.4685
X3.5117Y-2.0789
X3.5117Y-2.2125
X3.5117Y-5.3072
X3.5117Y-5.4408
X3.5394Y-2.1457
X3.5394Y-5.374
X6.5827Y-2.1457
X6.5827Y-5.374
X6.6104Y-2.0789
X6.6104Y-2.2125
X6.6104Y-5.3072
X6.6104Y-5.4408
X6.6772Y-2.0512
X6.6772Y-2.2402
X6.6772Y-5.2795
X6.6772Y-5.4685
X6.744Y-2.0789
X6.744Y-2.2125
X6.744Y-5.3072
X6.744Y-5.4408
X6.7717Y-2.1457
X6.7717Y-5.374
T3
X3.3858Y-4.8528
X3.3858Y-4.9528
X4.0932Y-3.6592
X4.0932Y-3.7592
X4.0932Y-3.8592
X4.8471Y-3.6592
X4.8471Y-3.7592
X4.8471Y-3.8592
X5.5794Y-3.6592
X5.5794Y-3.7592
X5.5794Y-3.8592
X6.3255Y-3.6592
X6.3255Y-3.7592
X6.3255Y-3.8592
X6.6673Y-4.8563
X6.6673Y-4.9563
T4
X5.0551Y-5.4567
T5
X4.9551Y-5.3567
X4.9551Y-5.5567
X5.1551Y-5.3567
X5.1551Y-5.5567
T6
X3.3307Y-3.9574
X3.3307Y-4.1134
X3.3642Y-2.9417
X3.3642Y-3.0977
X4.9811Y-2.0453
X5.1371Y-2.0453
X6.7835Y-3.7429
X6.7835Y-3.8989
X6.7992Y-2.9141
X6.7992Y-3.0701
T7
X3.8189Y-2.5787
X3.8189Y-4.9409
X4.5728Y-2.5787
X4.5728Y-4.9409
X5.3051Y-2.5787
X5.3051Y-4.9409
X6.0512Y-2.5787
X6.0512Y-4.9409
T8
X3.4449Y-2.1457
X3.4449Y-5.374
X6.6772Y-2.1457
X6.6772Y-5.374
T0
M30
