M48
METRIC,TZ
T1C0.800
T2C1.000
T3C1.600
T4C1.801
%
G90
G05
T1
X76.78Y-77.23
X76.78Y-80.75
X77.59Y-63.2
X77.65Y-66.61
X81.78Y-77.23
X81.78Y-80.75
X82.59Y-63.2
X82.65Y-66.61
X128.78Y-59.69
X128.78Y-64.69
X136.19Y-64.45
X136.19Y-69.45
T2
X63.44Y-82.78
X63.44Y-85.32
X63.44Y-87.86
X68.46Y-113.97
X68.46Y-116.51
X93.39Y-132.84
X95.93Y-132.84
X98.47Y-132.84
X108.37Y-52.84
X110.91Y-52.84
X113.45Y-52.84
X143.75Y-97.83
X143.75Y-100.37
X143.75Y-102.91
T3
X90.77Y-77.62
X90.77Y-85.24
X90.77Y-92.86
X90.77Y-100.48
X90.77Y-108.1
X90.77Y-115.72
X123.79Y-77.62
X123.79Y-85.24
X123.79Y-92.86
X123.79Y-100.48
X123.79Y-108.1
X123.79Y-113.172
T4
X78.791Y-57.658
X82.753Y-57.658
X134.11Y-81.129
X134.11Y-85.091
X138.889Y-54.32
X142.851Y-54.32
T0
M30
