G04 #@! TF.FileFunction,Soldermask,Bot*
%FSLAX46Y46*%
G04 Gerber Fmt 4.6, Leading zero omitted, Abs format (unit mm)*
G04 Created by KiCad (PCBNEW 4.0.2-stable) date 10/05/17 15:07:02*
%MOMM*%
G01*
G04 APERTURE LIST*
%ADD10C,0.100000*%
%ADD11R,2.127200X2.127200*%
%ADD12O,2.127200X2.127200*%
%ADD13R,2.100000X2.100000*%
%ADD14O,2.100000X2.100000*%
%ADD15R,2.432000X2.127200*%
%ADD16O,2.432000X2.127200*%
%ADD17R,4.360000X2.380000*%
%ADD18O,4.360000X2.380000*%
%ADD19C,1.900000*%
%ADD20O,5.401260X3.399740*%
%ADD21O,3.399740X5.401260*%
%ADD22R,2.127200X2.432000*%
%ADD23O,2.127200X2.432000*%
%ADD24C,6.800000*%
%ADD25C,1.200000*%
G04 APERTURE END LIST*
D10*
D11*
X127200000Y-42950000D03*
D12*
X127200000Y-40410000D03*
X124660000Y-42950000D03*
X124660000Y-40410000D03*
D13*
X113500000Y-127950000D03*
D14*
X116040000Y-127950000D03*
D15*
X169800000Y-58150000D03*
D16*
X169800000Y-55610000D03*
X169800000Y-53070000D03*
X169800000Y-50530000D03*
D13*
X113700000Y-118900000D03*
D14*
X113700000Y-121440000D03*
X113700000Y-123980000D03*
D13*
X77550000Y-56050000D03*
D14*
X80090000Y-56050000D03*
D13*
X85650000Y-66950000D03*
D14*
X83110000Y-66950000D03*
D13*
X85650000Y-63050000D03*
D14*
X83110000Y-63050000D03*
D13*
X157200000Y-99800000D03*
D14*
X159740000Y-99800000D03*
D13*
X159700000Y-94700000D03*
D14*
X157160000Y-94700000D03*
D13*
X92700000Y-80150000D03*
D14*
X92700000Y-77610000D03*
D13*
X106350000Y-88000000D03*
D14*
X103810000Y-88000000D03*
D13*
X159750000Y-84550000D03*
D14*
X159750000Y-82010000D03*
D13*
X159450000Y-69200000D03*
D14*
X156910000Y-69200000D03*
D13*
X113030000Y-101092000D03*
D14*
X110490000Y-101092000D03*
D13*
X136650000Y-69700000D03*
D14*
X136650000Y-72240000D03*
D13*
X124950000Y-118050000D03*
D14*
X124950000Y-120590000D03*
D17*
X78050000Y-123400000D03*
D18*
X78050000Y-120860000D03*
X78050000Y-118320000D03*
D13*
X118900000Y-134350000D03*
D14*
X118900000Y-131810000D03*
X121440000Y-134350000D03*
X121440000Y-131810000D03*
X123980000Y-134350000D03*
X123980000Y-131810000D03*
D13*
X118500000Y-118150000D03*
D14*
X121040000Y-118150000D03*
D13*
X133000000Y-94000000D03*
D14*
X133000000Y-96540000D03*
D13*
X170700000Y-93050000D03*
D14*
X170700000Y-95590000D03*
D19*
X109900000Y-132850000D03*
X122936000Y-114808000D03*
X128500000Y-117300000D03*
X164592000Y-92456000D03*
X83250000Y-59900000D03*
X101346000Y-91694000D03*
X109800000Y-88050000D03*
X123698000Y-99568000D03*
X100584000Y-56388000D03*
X159766000Y-88138000D03*
X158550000Y-105900000D03*
X78994000Y-106934000D03*
D13*
X140300000Y-129700000D03*
D14*
X137760000Y-129700000D03*
X135220000Y-129700000D03*
X132680000Y-129700000D03*
X130140000Y-129700000D03*
D13*
X78900000Y-70300000D03*
D14*
X78900000Y-67760000D03*
D20*
X167500000Y-82731200D03*
X167500000Y-78768800D03*
X167500000Y-86691060D03*
X167500000Y-74808940D03*
D21*
X89458800Y-44704000D03*
X93421200Y-44704000D03*
X85498940Y-44704000D03*
X97381060Y-44704000D03*
D20*
X167650000Y-107018800D03*
X167650000Y-110981200D03*
X167650000Y-103058940D03*
X167650000Y-114941060D03*
D13*
X116400000Y-86550000D03*
D14*
X118940000Y-86550000D03*
D13*
X133000000Y-100600000D03*
D14*
X130460000Y-100600000D03*
D13*
X116078000Y-109220000D03*
D14*
X118618000Y-109220000D03*
X121158000Y-109220000D03*
D13*
X134250000Y-108400000D03*
D14*
X136790000Y-108400000D03*
D13*
X97050000Y-99200000D03*
D14*
X99590000Y-99200000D03*
D22*
X112600000Y-41350000D03*
D23*
X115140000Y-41350000D03*
X117680000Y-41350000D03*
D11*
X138100000Y-41150000D03*
D12*
X138100000Y-43690000D03*
X140640000Y-41150000D03*
X140640000Y-43690000D03*
X143180000Y-41150000D03*
X143180000Y-43690000D03*
X145720000Y-41150000D03*
X145720000Y-43690000D03*
D24*
X79200000Y-43000000D03*
D25*
X81600000Y-43000000D03*
X80897056Y-44697056D03*
X79200000Y-45400000D03*
X77502944Y-44697056D03*
X76800000Y-43000000D03*
X77502944Y-41302944D03*
X79200000Y-40600000D03*
X80897056Y-41302944D03*
D24*
X169200000Y-43000000D03*
D25*
X171600000Y-43000000D03*
X170897056Y-44697056D03*
X169200000Y-45400000D03*
X167502944Y-44697056D03*
X166800000Y-43000000D03*
X167502944Y-41302944D03*
X169200000Y-40600000D03*
X170897056Y-41302944D03*
D24*
X169200000Y-133000000D03*
D25*
X171600000Y-133000000D03*
X170897056Y-134697056D03*
X169200000Y-135400000D03*
X167502944Y-134697056D03*
X166800000Y-133000000D03*
X167502944Y-131302944D03*
X169200000Y-130600000D03*
X170897056Y-131302944D03*
D24*
X79200000Y-133000000D03*
D25*
X81600000Y-133000000D03*
X80897056Y-134697056D03*
X79200000Y-135400000D03*
X77502944Y-134697056D03*
X76800000Y-133000000D03*
X77502944Y-131302944D03*
X79200000Y-130600000D03*
X80897056Y-131302944D03*
D15*
X169050000Y-121000000D03*
D16*
X169050000Y-123540000D03*
X169050000Y-126080000D03*
D13*
X160150000Y-42450000D03*
D14*
X157610000Y-42450000D03*
X155070000Y-42450000D03*
X152530000Y-42450000D03*
D13*
X106934000Y-41402000D03*
D14*
X104394000Y-41402000D03*
X101854000Y-41402000D03*
D13*
X129900000Y-88800000D03*
D14*
X132440000Y-88800000D03*
X134980000Y-88800000D03*
D13*
X99314000Y-66294000D03*
D14*
X101854000Y-66294000D03*
X99314000Y-68834000D03*
X101854000Y-68834000D03*
X99314000Y-71374000D03*
X101854000Y-71374000D03*
M02*
