M48
INCH,TZ
T1C0.012
T2C0.016
T3C0.020
T4C0.031
T5C0.039
T6C0.040
T7C0.071
T8C0.126
%
G90
G05
T1
X3.36Y-3.23
X3.6Y-2.6
X3.62Y-3.97
X3.62Y-4.01
X3.63Y-3.74
X3.67Y-2.6
X3.71Y-2.63
X3.71Y-2.68
X3.86Y-4.69
X3.86Y-4.75
X3.8937Y-4.7205
X3.92Y-4.69
X3.92Y-4.75
X3.93Y-4.99
X4.62Y-3.63
X4.83Y-3.71
X6.21Y-4.66
X6.22Y-4.71
T2
X2.9831Y-4.0413
X3.0008Y-4.4551
X3.0118Y-3.9402
X3.0185Y-4.3626
X3.0185Y-4.5496
X3.0311Y-3.6925
X3.0339Y-4.2547
X3.0346Y-3.0276
X3.0346Y-3.1571
X3.0346Y-3.3283
X3.0382Y-3.8236
X3.04Y-1.87
X3.0425Y-4.424
X3.07Y-2.56
X3.0823Y-4.1008
X3.0823Y-4.3185
X3.0953Y-3.9732
X3.1079Y-3.4579
X3.1154Y-2.5618
X3.1173Y-4.5496
X3.122Y-2.9051
X3.1461Y-4.4638
X3.16Y-1.88
X3.1606Y-3.6819
X3.1744Y-3.0555
X3.1791Y-4.3075
X3.1799Y-2.5543
X3.1854Y-3.8543
X3.1878Y-4.3693
X3.1902Y-4.2197
X3.1988Y-3.5524
X3.2075Y-4.0744
X3.2075Y-4.5783
X3.2165Y-2.9717
X3.2209Y-4.4177
X3.2276Y-3.9843
X3.2402Y-2.5559
X3.2406Y-4.2528
X3.2654Y-2.8594
X3.2736Y-4.3406
X3.2776Y-5.3413
X3.2803Y-4.0677
X3.289Y-4.1843
X3.2969Y-3.1043
X3.3Y-3.54
X3.3Y-3.63
X3.3031Y-5.2634
X3.3059Y-2.5634
X3.3091Y-5.3701
X3.3181Y-5.1988
X3.3197Y-4.4177
X3.3421Y-5.1614
X3.3425Y-3.1606
X3.3449Y-5.289
X3.3496Y-3.3705
X3.3531Y-2.8071
X3.3571Y-4.0878
X3.3594Y-4.3492
X3.37Y-3.47
X3.3705Y-5.2291
X3.3811Y-2.9925
X3.3839Y-1.5886
X3.3925Y-4.1843
X3.3925Y-4.2835
X3.3945Y-5.313
X3.3984Y-2.9016
X3.4Y-2.16
X3.402Y-5.3642
X3.4228Y-3.2689
X3.4291Y-5.1614
X3.4406Y-3.1185
X3.45Y-5.3
X3.4575Y-5.2291
X3.465Y-1.578
X3.4846Y-4.4
X3.4874Y-5.3717
X3.4965Y-3.0413
X3.4965Y-3.2272
X3.498Y-4.2965
X3.5Y-2.86
X3.5035Y-3.3634
X3.51Y-2.58
X3.52Y-2.83
X3.52Y-4.49
X3.53Y-4.89
X3.5339Y-5.1421
X3.5386Y-3.3146
X3.54Y-2.8
X3.5429Y-5.2185
X3.55Y-2.61
X3.5626Y-1.587
X3.5717Y-5.3717
X3.59Y-2.14
X3.6224Y-5.2185
X3.6256Y-5.1374
X3.628Y-4.3386
X3.6406Y-1.5929
X3.6465Y-5.3791
X3.6772Y-5.0846
X3.6929Y-5.2035
X3.7335Y-5.3791
X3.7469Y-1.5854
X3.79Y-4.11
X3.8039Y-3.2768
X3.8189Y-5.385
X3.82Y-4.01
X3.8248Y-4.4783
X3.828Y-1.5886
X3.8406Y-4.8445
X3.87Y-3.21
X3.88Y-3.59
X3.8941Y-5.3803
X3.9028Y-3.3594
X3.93Y-4.01
X3.9413Y-3.135
X3.9555Y-3.2713
X3.9598Y-3.3969
X4.Y-4.9941
X4.0154Y-5.3803
X4.0437Y-3.3307
X4.05Y-4.5551
X4.06Y-4.67
X4.061Y-3.2406
X4.0965Y-5.3571
X4.1051Y-3.1504
X4.1228Y-5.313
X4.1358Y-4.2953
X4.1425Y-3.2386
X4.1476Y-3.6732
X4.1756Y-3.0823
X4.1823Y-3.3594
X4.1953Y-5.3571
X4.2008Y-4.2953
X4.2154Y-5.2933
X4.2547Y-3.2012
X4.2547Y-5.302
X4.2638Y-3.1173
X4.2681Y-2.9744
X4.2681Y-3.289
X4.2835Y-5.3547
X4.3Y-4.37
X4.3Y-4.45
X4.3118Y-2.8886
X4.3319Y-5.3173
X4.35Y-2.86
X4.35Y-2.95
X4.3516Y-3.2362
X4.352Y-3.0488
X4.3559Y-3.1087
X4.36Y-2.72
X4.3634Y-3.174
X4.3693Y-3.3661
X4.37Y-3.74
X4.37Y-3.78
X4.3933Y-5.3724
X4.4024Y-5.2756
X4.41Y-2.67
X4.4402Y-3.1799
X4.4508Y-5.3217
X4.4528Y-5.1965
X4.46Y-2.62
X4.4654Y-3.2776
X4.4724Y-3.3614
X4.4882Y-3.4299
X4.4969Y-5.3614
X4.5079Y-5.1591
X4.5299Y-5.1965
X4.5299Y-5.2909
X4.5693Y-5.137
X4.57Y-3.92
X4.572Y-3.2925
X4.5803Y-5.3547
X4.5839Y-3.2024
X4.5846Y-5.2161
X4.5854Y-1.926
X4.5961Y-1.8134
X4.611Y-5.3819
X4.6201Y-1.965
X4.6244Y-1.7476
X4.6394Y-3.2402
X4.6559Y-1.8181
X4.6634Y-1.8839
X4.6783Y-5.3819
X4.6858Y-3.3
X4.6874Y-1.7354
X4.713Y-1.6516
X4.72Y-3.93
X4.7205Y-1.587
X4.728Y-1.7819
X4.7295Y-3.198
X4.7488Y-1.8705
X4.7504Y-5.3791
X4.7563Y-4.752
X4.7567Y-1.7402
X4.7654Y-3.2819
X4.7685Y-1.5854
X4.7701Y-1.6606
X4.7807Y-4.8157
X4.7909Y-3.189
X4.8181Y-1.6201
X4.8181Y-1.6846
X4.8197Y-1.8272
X4.8197Y-5.3776
X4.8224Y-1.7402
X4.8346Y-2.4429
X4.8354Y-4.7343
X4.8445Y-4.8488
X4.887Y-5.3776
X4.9016Y-4.9634
X4.91Y-4.12
X4.92Y-2.94
X4.92Y-3.
X4.9236Y-4.8598
X4.95Y-2.2
X4.96Y-3.05
X4.9606Y-5.3717
X4.965Y-5.2291
X4.965Y-5.3205
X4.9665Y-5.2831
X4.9677Y-5.161
X4.97Y-2.92
X4.9705Y-3.4449
X4.9917Y-4.9984
X4.9972Y-5.0941
X4.9972Y-5.1469
X5.0039Y-3.7067
X5.01Y-2.97
X5.0138Y-4.8224
X5.02Y-2.93
X5.02Y-3.05
X5.0248Y-5.2094
X5.0291Y-5.3063
X5.0335Y-4.9236
X5.0425Y-5.0512
X5.048Y-5.1173
X5.0972Y-5.3461
X5.0996Y-5.2031
X5.161Y-5.2425
X5.1701Y-5.3327
X5.2142Y-5.2976
X5.24Y-4.8
X5.2602Y-5.1878
X5.2713Y-5.3571
X5.335Y-5.2559
X5.38Y-2.94
X5.39Y-4.71
X5.4008Y-4.8921
X5.4228Y-5.3264
X5.4252Y-5.2051
X5.4409Y-4.9335
X5.4472Y-5.3614
X5.4815Y-4.9614
X5.4866Y-5.2669
X5.52Y-2.6
X5.5335Y-5.013
X5.54Y-3.75
X5.54Y-3.85
X5.5484Y-5.3614
X5.5594Y-5.2358
X5.5846Y-5.1799
X5.5965Y-5.0776
X5.622Y-5.302
X5.6307Y-5.1094
X5.6343Y-5.2358
X5.6354Y-5.1799
X5.6823Y-5.2992
X5.6839Y-5.3606
X5.7067Y-5.1823
X5.7071Y-5.2689
X5.7134Y-5.2283
X5.7398Y-5.2921
X5.7591Y-5.2378
X5.76Y-3.59
X5.7661Y-5.0433
X5.78Y-4.29
X5.7839Y-5.289
X5.8Y-3.46
X5.8079Y-5.0028
X5.81Y-4.32
X5.83Y-3.52
X5.83Y-4.13
X5.8366Y-5.102
X5.8421Y-4.974
X5.85Y-4.36
X5.8543Y-5.0445
X5.8906Y-5.161
X5.8994Y-2.5935
X5.9102Y-5.0665
X5.928Y-4.9654
X5.93Y-3.47
X5.9346Y-2.6311
X5.95Y-5.0972
X5.95Y-5.1394
X5.9587Y-5.2161
X5.96Y-4.76
X5.9685Y-2.6555
X5.97Y-4.82
X5.974Y-5.0327
X5.9783Y-4.9524
X5.9831Y-5.1921
X5.9898Y-2.7512
X5.9929Y-4.7563
X6.0114Y-5.1118
X6.0157Y-4.6606
X6.0213Y-4.7992
X6.0248Y-4.9138
X6.03Y-4.09
X6.03Y-4.15
X6.0307Y-2.7177
X6.0402Y-4.7177
X6.0461Y-4.863
X6.0764Y-3.4539
X6.1067Y-2.7165
X6.1181Y-3.8047
X6.1181Y-3.8457
X6.15Y-5.11
X6.1776Y-3.8047
X6.2161Y-3.8476
X6.25Y-4.68
X6.2535Y-3.8047
X6.2854Y-2.398
X6.2921Y-2.3429
X6.2921Y-2.4575
X6.2921Y-2.5213
X6.3008Y-3.8476
X6.3142Y-4.0283
X6.3358Y-3.8039
X6.3559Y-2.4661
X6.3579Y-2.3429
X6.3579Y-2.4091
X6.3579Y-2.5256
X6.3756Y-3.85
X6.3799Y-3.9689
X6.38Y-2.61
X6.3843Y-3.9028
X6.3866Y-4.0744
X6.3945Y-3.7831
X6.413Y-2.4268
X6.4197Y-2.4661
X6.4264Y-2.3496
X6.4264Y-2.6992
X6.4327Y-4.015
X6.4417Y-2.5256
X6.4437Y-3.7531
X6.4461Y-2.598
X6.4461Y-4.1252
X6.448Y-3.8193
X6.4614Y-3.8941
X6.4681Y-3.9598
X6.4768Y-2.7587
X6.4921Y-2.411
X6.4921Y-2.4594
X6.4988Y-2.3453
X6.5154Y-2.8248
X6.5165Y-3.872
X6.5228Y-3.9445
X6.5295Y-3.8016
X6.5547Y-3.7409
X6.5559Y-2.4047
X6.5559Y-2.4642
X6.5713Y-3.872
X6.5846Y-2.8224
X6.589Y-3.8016
X6.5976Y-3.9315
X6.6087Y-2.4531
X6.611Y-2.3846
X6.622Y-2.5299
X6.6252Y-3.7445
X6.6461Y-3.8083
X6.6638Y-3.8587
X6.6835Y-3.9488
X6.7Y-2.44
X6.7386Y-4.124
X6.7472Y-3.8697
X6.7472Y-3.9469
X6.7484Y-4.2209
X6.7575Y-4.0504
T3
X3.0236Y-1.6929
X3.0236Y-5.2362
X3.0513Y-1.6261
X3.0513Y-1.7597
X3.0513Y-5.1694
X3.0513Y-5.303
X3.1181Y-1.5984
X3.1181Y-1.7874
X3.1181Y-5.1417
X3.1181Y-5.3307
X3.1849Y-1.6261
X3.1849Y-1.7597
X3.1849Y-5.1694
X3.1849Y-5.303
X3.2126Y-1.6929
X3.2126Y-5.2362
X6.5669Y-1.6929
X6.5669Y-5.2362
X6.5946Y-1.6261
X6.5946Y-1.7597
X6.5946Y-5.1694
X6.5946Y-5.303
X6.6614Y-1.5984
X6.6614Y-1.7874
X6.6614Y-5.1417
X6.6614Y-5.3307
X6.7282Y-1.6261
X6.7282Y-1.7597
X6.7282Y-5.1694
X6.7282Y-5.303
X6.7559Y-1.6929
X6.7559Y-5.2362
T4
X3.11Y-4.21
X3.2776Y-2.3583
X3.96Y-2.22
X3.99Y-3.61
X4.3228Y-3.4665
X4.3268Y-5.2303
X4.84Y-4.52
X4.87Y-3.92
X5.0591Y-4.6181
X6.2421Y-4.1693
X6.29Y-3.47
X6.48Y-3.64
T5
X3.0531Y-2.2067
X3.0728Y-4.6583
X3.0728Y-4.7583
X3.0728Y-4.8583
X3.1063Y-2.6677
X3.1063Y-2.7677
X3.1531Y-2.2067
X3.272Y-2.4823
X3.272Y-2.6358
X3.372Y-2.4823
X3.372Y-2.6358
X3.6496Y-3.0555
X3.6496Y-3.1555
X3.8209Y-3.9055
X3.91Y-2.61
X3.91Y-2.71
X3.91Y-2.81
X3.9209Y-3.9055
X4.01Y-1.63
X4.01Y-2.61
X4.01Y-2.71
X4.01Y-2.81
X4.087Y-3.4646
X4.11Y-1.63
X4.187Y-3.4646
X4.21Y-1.63
X4.35Y-3.98
X4.45Y-3.98
X4.4685Y-5.0374
X4.4764Y-4.6811
X4.4764Y-4.7811
X4.4764Y-4.8811
X4.5685Y-5.0374
X4.57Y-4.3
X4.5827Y-3.4075
X4.6654Y-4.6516
X4.67Y-4.3
X4.6811Y-5.1894
X4.6811Y-5.2894
X4.6827Y-3.4075
X4.7654Y-4.6516
X4.77Y-4.3
X4.7811Y-5.1894
X4.7811Y-5.2894
X4.8811Y-5.1894
X4.8811Y-5.2894
X4.9193Y-4.6476
X4.9193Y-4.7476
X5.1142Y-3.4961
X5.1236Y-5.1063
X5.1362Y-3.9606
X5.2142Y-3.4961
X5.2236Y-5.1063
X5.2362Y-3.7008
X5.2362Y-3.8008
X5.2362Y-3.9606
X5.2854Y-4.2677
X5.3142Y-3.4961
X5.3236Y-5.1063
X5.3799Y-2.7441
X5.3799Y-2.8441
X5.3854Y-4.2677
X5.4236Y-5.1063
X5.5236Y-5.1063
X6.0051Y-1.6713
X6.1051Y-1.6713
X6.1776Y-2.7244
X6.1874Y-3.7283
X6.189Y-3.9291
X6.2051Y-1.6713
X6.2776Y-2.7244
X6.2874Y-3.7283
X6.289Y-3.9291
X6.2894Y-3.2287
X6.2894Y-3.3287
X6.3051Y-1.6713
X6.7205Y-3.6634
X6.7205Y-3.7634
T6
X4.4331Y-1.628
X4.5331Y-1.628
X4.6331Y-1.628
X4.9079Y-1.5909
X4.9079Y-1.6909
X5.0079Y-1.5909
X5.0079Y-1.6909
X5.437Y-1.6201
X5.437Y-1.7201
X5.537Y-1.6201
X5.537Y-1.7201
X5.637Y-1.6201
X5.637Y-1.7201
X5.737Y-1.6201
X5.737Y-1.7201
X6.6555Y-4.7638
X6.6555Y-4.8638
X6.6555Y-4.9638
X6.685Y-1.9894
X6.685Y-2.0894
X6.685Y-2.1894
X6.685Y-2.2894
T7
X3.3661Y-1.76
X3.522Y-1.76
X3.678Y-1.76
X3.8339Y-1.76
X6.5945Y-2.9452
X6.5945Y-3.1011
X6.5945Y-3.2571
X6.5945Y-3.413
X6.6004Y-4.0574
X6.6004Y-4.2133
X6.6004Y-4.3693
X6.6004Y-4.5252
T8
X3.1181Y-1.6929
X3.1181Y-5.2362
X6.6614Y-1.6929
X6.6614Y-5.2362
T0
M30
