%FSLAX45Y45*%
G04 Gerber Fmt 4.5, Leading zero omitted, Abs format (unit mm)*
G04 Created by KiCad (PCBNEW 4.0.2-stable) date 10/05/17 15:07:09*
%MOMM*%
G01*
G04 APERTURE LIST*
%ADD10C,0.127000*%
%ADD11C,0.150000*%
%ADD12C,0.200000*%
%ADD13C,0.300000*%
G04 APERTURE END LIST*
D10*
D11*
X17420000Y-3800000D02*
X7420000Y-3800000D01*
X17420000Y-13800000D02*
X17420000Y-3800000D01*
X7420000Y-13800000D02*
X17420000Y-13800000D01*
X7420000Y-3800000D02*
X7420000Y-13800000D01*
D12*
X8519400Y-8189200D02*
X8549400Y-8219200D01*
X8549400Y-8189200D02*
X8519400Y-8219200D01*
X9129000Y-6589000D02*
X9159000Y-6619000D01*
X9159000Y-6589000D02*
X9129000Y-6619000D01*
X9179800Y-10068800D02*
X9209800Y-10098800D01*
X9209800Y-10068800D02*
X9179800Y-10098800D01*
X9179800Y-10170400D02*
X9209800Y-10200400D01*
X9209800Y-10170400D02*
X9179800Y-10200400D01*
X9205200Y-9484600D02*
X9235200Y-9514600D01*
X9235200Y-9484600D02*
X9205200Y-9514600D01*
X9306800Y-6589000D02*
X9336800Y-6619000D01*
X9336800Y-6589000D02*
X9306800Y-6619000D01*
X9408400Y-6665200D02*
X9438400Y-6695200D01*
X9438400Y-6665200D02*
X9408400Y-6695200D01*
X9408400Y-6792200D02*
X9438400Y-6822200D01*
X9438400Y-6792200D02*
X9408400Y-6822200D01*
X9789400Y-11897600D02*
X9819400Y-11927600D01*
X9819400Y-11897600D02*
X9789400Y-11927600D01*
X9789400Y-12050000D02*
X9819400Y-12080000D01*
X9819400Y-12050000D02*
X9789400Y-12080000D01*
X9875000Y-11975000D02*
X9905000Y-12005000D01*
X9905000Y-11975000D02*
X9875000Y-12005000D01*
X9941800Y-11897600D02*
X9971800Y-11927600D01*
X9971800Y-11897600D02*
X9941800Y-11927600D01*
X9941800Y-12050000D02*
X9971800Y-12080000D01*
X9971800Y-12050000D02*
X9941800Y-12080000D01*
X9967200Y-12659600D02*
X9997200Y-12689600D01*
X9997200Y-12659600D02*
X9967200Y-12689600D01*
X11719800Y-9205200D02*
X11749800Y-9235200D01*
X11749800Y-9205200D02*
X11719800Y-9235200D01*
X12253200Y-9408400D02*
X12283200Y-9438400D01*
X12283200Y-9408400D02*
X12253200Y-9438400D01*
X15758400Y-11821400D02*
X15788400Y-11851400D01*
X15788400Y-11821400D02*
X15758400Y-11851400D01*
X15783800Y-11948400D02*
X15813800Y-11978400D01*
X15813800Y-11948400D02*
X15783800Y-11978400D01*
X7597000Y-10265000D02*
G75*
G03X7597000Y-10265000I-20000J0D01*
G01*
X7642000Y-11316000D02*
G75*
G03X7642000Y-11316000I-20000J0D01*
G01*
X7670000Y-10008000D02*
G75*
G03X7670000Y-10008000I-20000J0D01*
G01*
X7687000Y-11081000D02*
G75*
G03X7687000Y-11081000I-20000J0D01*
G01*
X7687000Y-11556000D02*
G75*
G03X7687000Y-11556000I-20000J0D01*
G01*
X7719000Y-9379000D02*
G75*
G03X7719000Y-9379000I-20000J0D01*
G01*
X7726000Y-10807000D02*
G75*
G03X7726000Y-10807000I-20000J0D01*
G01*
X7728000Y-7690000D02*
G75*
G03X7728000Y-7690000I-20000J0D01*
G01*
X7728000Y-8019000D02*
G75*
G03X7728000Y-8019000I-20000J0D01*
G01*
X7728000Y-8454000D02*
G75*
G03X7728000Y-8454000I-20000J0D01*
G01*
X7737000Y-9712000D02*
G75*
G03X7737000Y-9712000I-20000J0D01*
G01*
X7741600Y-4749800D02*
G75*
G03X7741600Y-4749800I-20000J0D01*
G01*
X7748000Y-11237000D02*
G75*
G03X7748000Y-11237000I-20000J0D01*
G01*
X7817800Y-6502400D02*
G75*
G03X7817800Y-6502400I-20000J0D01*
G01*
X7849000Y-10416000D02*
G75*
G03X7849000Y-10416000I-20000J0D01*
G01*
X7849000Y-10969000D02*
G75*
G03X7849000Y-10969000I-20000J0D01*
G01*
X7882000Y-10092000D02*
G75*
G03X7882000Y-10092000I-20000J0D01*
G01*
X7914000Y-8783000D02*
G75*
G03X7914000Y-8783000I-20000J0D01*
G01*
X7933000Y-6507000D02*
G75*
G03X7933000Y-6507000I-20000J0D01*
G01*
X7938000Y-11556000D02*
G75*
G03X7938000Y-11556000I-20000J0D01*
G01*
X7950000Y-7379000D02*
G75*
G03X7950000Y-7379000I-20000J0D01*
G01*
X8011000Y-11338000D02*
G75*
G03X8011000Y-11338000I-20000J0D01*
G01*
X8046400Y-4775200D02*
G75*
G03X8046400Y-4775200I-20000J0D01*
G01*
X8048000Y-9352000D02*
G75*
G03X8048000Y-9352000I-20000J0D01*
G01*
X8083000Y-7761000D02*
G75*
G03X8083000Y-7761000I-20000J0D01*
G01*
X8095000Y-10941000D02*
G75*
G03X8095000Y-10941000I-20000J0D01*
G01*
X8097000Y-6488000D02*
G75*
G03X8097000Y-6488000I-20000J0D01*
G01*
X8111000Y-9790000D02*
G75*
G03X8111000Y-9790000I-20000J0D01*
G01*
X8117000Y-11098000D02*
G75*
G03X8117000Y-11098000I-20000J0D01*
G01*
X8123000Y-10718000D02*
G75*
G03X8123000Y-10718000I-20000J0D01*
G01*
X8145000Y-9023000D02*
G75*
G03X8145000Y-9023000I-20000J0D01*
G01*
X8167000Y-10349000D02*
G75*
G03X8167000Y-10349000I-20000J0D01*
G01*
X8167000Y-11629000D02*
G75*
G03X8167000Y-11629000I-20000J0D01*
G01*
X8190000Y-7548000D02*
G75*
G03X8190000Y-7548000I-20000J0D01*
G01*
X8201000Y-11221000D02*
G75*
G03X8201000Y-11221000I-20000J0D01*
G01*
X8218000Y-10120000D02*
G75*
G03X8218000Y-10120000I-20000J0D01*
G01*
X8250000Y-6492000D02*
G75*
G03X8250000Y-6492000I-20000J0D01*
G01*
X8251000Y-10802000D02*
G75*
G03X8251000Y-10802000I-20000J0D01*
G01*
X8314000Y-7263000D02*
G75*
G03X8314000Y-7263000I-20000J0D01*
G01*
X8335000Y-11025000D02*
G75*
G03X8335000Y-11025000I-20000J0D01*
G01*
X8345000Y-13567000D02*
G75*
G03X8345000Y-13567000I-20000J0D01*
G01*
X8352000Y-10332000D02*
G75*
G03X8352000Y-10332000I-20000J0D01*
G01*
X8374000Y-10628000D02*
G75*
G03X8374000Y-10628000I-20000J0D01*
G01*
X8394000Y-7885000D02*
G75*
G03X8394000Y-7885000I-20000J0D01*
G01*
X8402000Y-8991600D02*
G75*
G03X8402000Y-8991600I-20000J0D01*
G01*
X8402000Y-9220200D02*
G75*
G03X8402000Y-9220200I-20000J0D01*
G01*
X8410000Y-13369000D02*
G75*
G03X8410000Y-13369000I-20000J0D01*
G01*
X8417000Y-6511000D02*
G75*
G03X8417000Y-6511000I-20000J0D01*
G01*
X8425000Y-13640000D02*
G75*
G03X8425000Y-13640000I-20000J0D01*
G01*
X8448000Y-13205000D02*
G75*
G03X8448000Y-13205000I-20000J0D01*
G01*
X8452000Y-11221000D02*
G75*
G03X8452000Y-11221000I-20000J0D01*
G01*
X8509000Y-13110000D02*
G75*
G03X8509000Y-13110000I-20000J0D01*
G01*
X8510000Y-8028000D02*
G75*
G03X8510000Y-8028000I-20000J0D01*
G01*
X8516000Y-13434000D02*
G75*
G03X8516000Y-13434000I-20000J0D01*
G01*
X8528000Y-8561000D02*
G75*
G03X8528000Y-8561000I-20000J0D01*
G01*
X8537000Y-7130000D02*
G75*
G03X8537000Y-7130000I-20000J0D01*
G01*
X8547000Y-10383000D02*
G75*
G03X8547000Y-10383000I-20000J0D01*
G01*
X8553000Y-11047000D02*
G75*
G03X8553000Y-11047000I-20000J0D01*
G01*
X8579800Y-8813800D02*
G75*
G03X8579800Y-8813800I-20000J0D01*
G01*
X8581000Y-13282000D02*
G75*
G03X8581000Y-13282000I-20000J0D01*
G01*
X8608000Y-7601000D02*
G75*
G03X8608000Y-7601000I-20000J0D01*
G01*
X8615000Y-4035000D02*
G75*
G03X8615000Y-4035000I-20000J0D01*
G01*
X8637000Y-10628000D02*
G75*
G03X8637000Y-10628000I-20000J0D01*
G01*
X8637000Y-10880000D02*
G75*
G03X8637000Y-10880000I-20000J0D01*
G01*
X8642000Y-13495000D02*
G75*
G03X8642000Y-13495000I-20000J0D01*
G01*
X8652000Y-7370000D02*
G75*
G03X8652000Y-7370000I-20000J0D01*
G01*
X8656000Y-5486400D02*
G75*
G03X8656000Y-5486400I-20000J0D01*
G01*
X8661000Y-13625000D02*
G75*
G03X8661000Y-13625000I-20000J0D01*
G01*
X8714000Y-8303000D02*
G75*
G03X8714000Y-8303000I-20000J0D01*
G01*
X8730000Y-13110000D02*
G75*
G03X8730000Y-13110000I-20000J0D01*
G01*
X8759000Y-7921000D02*
G75*
G03X8759000Y-7921000I-20000J0D01*
G01*
X8783000Y-13462000D02*
G75*
G03X8783000Y-13462000I-20000J0D01*
G01*
X8802000Y-13282000D02*
G75*
G03X8802000Y-13282000I-20000J0D01*
G01*
X8821000Y-4008000D02*
G75*
G03X8821000Y-4008000I-20000J0D01*
G01*
X8871000Y-11176000D02*
G75*
G03X8871000Y-11176000I-20000J0D01*
G01*
X8878000Y-13644000D02*
G75*
G03X8878000Y-13644000I-20000J0D01*
G01*
X8901000Y-7725000D02*
G75*
G03X8901000Y-7725000I-20000J0D01*
G01*
X8901000Y-8197000D02*
G75*
G03X8901000Y-8197000I-20000J0D01*
G01*
X8905000Y-10913000D02*
G75*
G03X8905000Y-10913000I-20000J0D01*
G01*
X8910000Y-7264400D02*
G75*
G03X8910000Y-7264400I-20000J0D01*
G01*
X8919000Y-8543000D02*
G75*
G03X8919000Y-8543000I-20000J0D01*
G01*
X8935400Y-6553200D02*
G75*
G03X8935400Y-6553200I-20000J0D01*
G01*
X8960800Y-7188200D02*
G75*
G03X8960800Y-7188200I-20000J0D01*
G01*
X8960800Y-11404600D02*
G75*
G03X8960800Y-11404600I-20000J0D01*
G01*
X8986200Y-12420600D02*
G75*
G03X8986200Y-12420600I-20000J0D01*
G01*
X8996000Y-13061000D02*
G75*
G03X8996000Y-13061000I-20000J0D01*
G01*
X9008000Y-8419000D02*
G75*
G03X9008000Y-8419000I-20000J0D01*
G01*
X9011600Y-7112000D02*
G75*
G03X9011600Y-7112000I-20000J0D01*
G01*
X9019000Y-13255000D02*
G75*
G03X9019000Y-13255000I-20000J0D01*
G01*
X9037000Y-6629400D02*
G75*
G03X9037000Y-6629400I-20000J0D01*
G01*
X9069000Y-4031000D02*
G75*
G03X9069000Y-4031000I-20000J0D01*
G01*
X9092000Y-13644000D02*
G75*
G03X9092000Y-13644000I-20000J0D01*
G01*
X9138600Y-5435600D02*
G75*
G03X9138600Y-5435600I-20000J0D01*
G01*
X9221000Y-13255000D02*
G75*
G03X9221000Y-13255000I-20000J0D01*
G01*
X9229000Y-13049000D02*
G75*
G03X9229000Y-13049000I-20000J0D01*
G01*
X9235000Y-11020000D02*
G75*
G03X9235000Y-11020000I-20000J0D01*
G01*
X9267000Y-4046000D02*
G75*
G03X9267000Y-4046000I-20000J0D01*
G01*
X9282000Y-13663000D02*
G75*
G03X9282000Y-13663000I-20000J0D01*
G01*
X9360000Y-12915000D02*
G75*
G03X9360000Y-12915000I-20000J0D01*
G01*
X9400000Y-13217000D02*
G75*
G03X9400000Y-13217000I-20000J0D01*
G01*
X9503000Y-13663000D02*
G75*
G03X9503000Y-13663000I-20000J0D01*
G01*
X9537000Y-4027000D02*
G75*
G03X9537000Y-4027000I-20000J0D01*
G01*
X9646600Y-10439400D02*
G75*
G03X9646600Y-10439400I-20000J0D01*
G01*
X9720000Y-13678000D02*
G75*
G03X9720000Y-13678000I-20000J0D01*
G01*
X9722800Y-10185400D02*
G75*
G03X9722800Y-10185400I-20000J0D01*
G01*
X9735000Y-11375000D02*
G75*
G03X9735000Y-11375000I-20000J0D01*
G01*
X9743000Y-4035000D02*
G75*
G03X9743000Y-4035000I-20000J0D01*
G01*
X9775000Y-12305000D02*
G75*
G03X9775000Y-12305000I-20000J0D01*
G01*
X9875200Y-9118600D02*
G75*
G03X9875200Y-9118600I-20000J0D01*
G01*
X9911000Y-13666000D02*
G75*
G03X9911000Y-13666000I-20000J0D01*
G01*
X9933000Y-8533000D02*
G75*
G03X9933000Y-8533000I-20000J0D01*
G01*
X10002200Y-10185400D02*
G75*
G03X10002200Y-10185400I-20000J0D01*
G01*
X10067000Y-8309000D02*
G75*
G03X10067000Y-8309000I-20000J0D01*
G01*
X10078000Y-8628000D02*
G75*
G03X10078000Y-8628000I-20000J0D01*
G01*
X10180000Y-12685000D02*
G75*
G03X10180000Y-12685000I-20000J0D01*
G01*
X10219000Y-13666000D02*
G75*
G03X10219000Y-13666000I-20000J0D01*
G01*
X10291000Y-8460000D02*
G75*
G03X10291000Y-8460000I-20000J0D01*
G01*
X10307000Y-11570000D02*
G75*
G03X10307000Y-11570000I-20000J0D01*
G01*
X10332400Y-11861800D02*
G75*
G03X10332400Y-11861800I-20000J0D01*
G01*
X10335000Y-8231000D02*
G75*
G03X10335000Y-8231000I-20000J0D01*
G01*
X10425000Y-13607000D02*
G75*
G03X10425000Y-13607000I-20000J0D01*
G01*
X10447000Y-8002000D02*
G75*
G03X10447000Y-8002000I-20000J0D01*
G01*
X10492000Y-13495000D02*
G75*
G03X10492000Y-13495000I-20000J0D01*
G01*
X10525000Y-10910000D02*
G75*
G03X10525000Y-10910000I-20000J0D01*
G01*
X10542000Y-8226000D02*
G75*
G03X10542000Y-8226000I-20000J0D01*
G01*
X10555000Y-9330000D02*
G75*
G03X10555000Y-9330000I-20000J0D01*
G01*
X10626000Y-7829000D02*
G75*
G03X10626000Y-7829000I-20000J0D01*
G01*
X10643000Y-8533000D02*
G75*
G03X10643000Y-8533000I-20000J0D01*
G01*
X10676000Y-13607000D02*
G75*
G03X10676000Y-13607000I-20000J0D01*
G01*
X10690000Y-10910000D02*
G75*
G03X10690000Y-10910000I-20000J0D01*
G01*
X10727000Y-13445000D02*
G75*
G03X10727000Y-13445000I-20000J0D01*
G01*
X10827000Y-8131000D02*
G75*
G03X10827000Y-8131000I-20000J0D01*
G01*
X10827000Y-13467000D02*
G75*
G03X10827000Y-13467000I-20000J0D01*
G01*
X10850000Y-7918000D02*
G75*
G03X10850000Y-7918000I-20000J0D01*
G01*
X10861000Y-7555000D02*
G75*
G03X10861000Y-7555000I-20000J0D01*
G01*
X10861000Y-8354000D02*
G75*
G03X10861000Y-8354000I-20000J0D01*
G01*
X10900000Y-13601000D02*
G75*
G03X10900000Y-13601000I-20000J0D01*
G01*
X10942000Y-11099800D02*
G75*
G03X10942000Y-11099800I-20000J0D01*
G01*
X10942000Y-11303000D02*
G75*
G03X10942000Y-11303000I-20000J0D01*
G01*
X10972000Y-7337000D02*
G75*
G03X10972000Y-7337000I-20000J0D01*
G01*
X11023000Y-13506000D02*
G75*
G03X11023000Y-13506000I-20000J0D01*
G01*
X11069000Y-7264400D02*
G75*
G03X11069000Y-7264400I-20000J0D01*
G01*
X11069000Y-7493000D02*
G75*
G03X11069000Y-7493000I-20000J0D01*
G01*
X11073000Y-8220000D02*
G75*
G03X11073000Y-8220000I-20000J0D01*
G01*
X11074000Y-7744000D02*
G75*
G03X11074000Y-7744000I-20000J0D01*
G01*
X11084000Y-7896000D02*
G75*
G03X11084000Y-7896000I-20000J0D01*
G01*
X11094400Y-6908800D02*
G75*
G03X11094400Y-6908800I-20000J0D01*
G01*
X11103000Y-8062000D02*
G75*
G03X11103000Y-8062000I-20000J0D01*
G01*
X11118000Y-8550000D02*
G75*
G03X11118000Y-8550000I-20000J0D01*
G01*
X11119800Y-9499600D02*
G75*
G03X11119800Y-9499600I-20000J0D01*
G01*
X11119800Y-9601200D02*
G75*
G03X11119800Y-9601200I-20000J0D01*
G01*
X11179000Y-13646000D02*
G75*
G03X11179000Y-13646000I-20000J0D01*
G01*
X11202000Y-13400000D02*
G75*
G03X11202000Y-13400000I-20000J0D01*
G01*
X11221400Y-6781800D02*
G75*
G03X11221400Y-6781800I-20000J0D01*
G01*
X11298000Y-8077000D02*
G75*
G03X11298000Y-8077000I-20000J0D01*
G01*
X11325000Y-13517000D02*
G75*
G03X11325000Y-13517000I-20000J0D01*
G01*
X11330000Y-13199000D02*
G75*
G03X11330000Y-13199000I-20000J0D01*
G01*
X11348400Y-6654800D02*
G75*
G03X11348400Y-6654800I-20000J0D01*
G01*
X11362000Y-8325000D02*
G75*
G03X11362000Y-8325000I-20000J0D01*
G01*
X11380000Y-8538000D02*
G75*
G03X11380000Y-8538000I-20000J0D01*
G01*
X11420000Y-8712000D02*
G75*
G03X11420000Y-8712000I-20000J0D01*
G01*
X11442000Y-13618000D02*
G75*
G03X11442000Y-13618000I-20000J0D01*
G01*
X11470000Y-13104000D02*
G75*
G03X11470000Y-13104000I-20000J0D01*
G01*
X11526000Y-13199000D02*
G75*
G03X11526000Y-13199000I-20000J0D01*
G01*
X11526000Y-13439000D02*
G75*
G03X11526000Y-13439000I-20000J0D01*
G01*
X11626000Y-13048000D02*
G75*
G03X11626000Y-13048000I-20000J0D01*
G01*
X11627800Y-9956800D02*
G75*
G03X11627800Y-9956800I-20000J0D01*
G01*
X11633000Y-8363000D02*
G75*
G03X11633000Y-8363000I-20000J0D01*
G01*
X11654000Y-13601000D02*
G75*
G03X11654000Y-13601000I-20000J0D01*
G01*
X11663000Y-8134000D02*
G75*
G03X11663000Y-8134000I-20000J0D01*
G01*
X11665000Y-13249000D02*
G75*
G03X11665000Y-13249000I-20000J0D01*
G01*
X11667000Y-4892000D02*
G75*
G03X11667000Y-4892000I-20000J0D01*
G01*
X11694000Y-4606000D02*
G75*
G03X11694000Y-4606000I-20000J0D01*
G01*
X11732000Y-13670000D02*
G75*
G03X11732000Y-13670000I-20000J0D01*
G01*
X11755000Y-4991000D02*
G75*
G03X11755000Y-4991000I-20000J0D01*
G01*
X11766000Y-4439000D02*
G75*
G03X11766000Y-4439000I-20000J0D01*
G01*
X11804000Y-8230000D02*
G75*
G03X11804000Y-8230000I-20000J0D01*
G01*
X11846000Y-4618000D02*
G75*
G03X11846000Y-4618000I-20000J0D01*
G01*
X11865000Y-4785000D02*
G75*
G03X11865000Y-4785000I-20000J0D01*
G01*
X11903000Y-13670000D02*
G75*
G03X11903000Y-13670000I-20000J0D01*
G01*
X11922000Y-8382000D02*
G75*
G03X11922000Y-8382000I-20000J0D01*
G01*
X11926000Y-4408000D02*
G75*
G03X11926000Y-4408000I-20000J0D01*
G01*
X11991000Y-4195000D02*
G75*
G03X11991000Y-4195000I-20000J0D01*
G01*
X12008800Y-9982200D02*
G75*
G03X12008800Y-9982200I-20000J0D01*
G01*
X12010000Y-4031000D02*
G75*
G03X12010000Y-4031000I-20000J0D01*
G01*
X12029000Y-4526000D02*
G75*
G03X12029000Y-4526000I-20000J0D01*
G01*
X12033000Y-8123000D02*
G75*
G03X12033000Y-8123000I-20000J0D01*
G01*
X12082000Y-4751000D02*
G75*
G03X12082000Y-4751000I-20000J0D01*
G01*
X12086000Y-13663000D02*
G75*
G03X12086000Y-13663000I-20000J0D01*
G01*
X12101000Y-12070000D02*
G75*
G03X12101000Y-12070000I-20000J0D01*
G01*
X12102000Y-4420000D02*
G75*
G03X12102000Y-4420000I-20000J0D01*
G01*
X12124000Y-8336000D02*
G75*
G03X12124000Y-8336000I-20000J0D01*
G01*
X12132000Y-4027000D02*
G75*
G03X12132000Y-4027000I-20000J0D01*
G01*
X12136000Y-4218000D02*
G75*
G03X12136000Y-4218000I-20000J0D01*
G01*
X12163000Y-12232000D02*
G75*
G03X12163000Y-12232000I-20000J0D01*
G01*
X12189000Y-8100000D02*
G75*
G03X12189000Y-8100000I-20000J0D01*
G01*
X12258000Y-4115000D02*
G75*
G03X12258000Y-4115000I-20000J0D01*
G01*
X12258000Y-4279000D02*
G75*
G03X12258000Y-4279000I-20000J0D01*
G01*
X12262000Y-4641000D02*
G75*
G03X12262000Y-4641000I-20000J0D01*
G01*
X12262000Y-13659000D02*
G75*
G03X12262000Y-13659000I-20000J0D01*
G01*
X12269000Y-4420000D02*
G75*
G03X12269000Y-4420000I-20000J0D01*
G01*
X12300000Y-6205000D02*
G75*
G03X12300000Y-6205000I-20000J0D01*
G01*
X12302000Y-12025000D02*
G75*
G03X12302000Y-12025000I-20000J0D01*
G01*
X12325000Y-12316000D02*
G75*
G03X12325000Y-12316000I-20000J0D01*
G01*
X12433000Y-13659000D02*
G75*
G03X12433000Y-13659000I-20000J0D01*
G01*
X12470000Y-12607000D02*
G75*
G03X12470000Y-12607000I-20000J0D01*
G01*
X12491400Y-10464800D02*
G75*
G03X12491400Y-10464800I-20000J0D01*
G01*
X12516800Y-7467600D02*
G75*
G03X12516800Y-7467600I-20000J0D01*
G01*
X12516800Y-7620000D02*
G75*
G03X12516800Y-7620000I-20000J0D01*
G01*
X12526000Y-12344000D02*
G75*
G03X12526000Y-12344000I-20000J0D01*
G01*
X12593000Y-5588000D02*
G75*
G03X12593000Y-5588000I-20000J0D01*
G01*
X12618400Y-7747000D02*
G75*
G03X12618400Y-7747000I-20000J0D01*
G01*
X12620000Y-13644000D02*
G75*
G03X12620000Y-13644000I-20000J0D01*
G01*
X12631000Y-13282000D02*
G75*
G03X12631000Y-13282000I-20000J0D01*
G01*
X12631000Y-13514000D02*
G75*
G03X12631000Y-13514000I-20000J0D01*
G01*
X12635000Y-13419000D02*
G75*
G03X12635000Y-13419000I-20000J0D01*
G01*
X12638000Y-13109000D02*
G75*
G03X12638000Y-13109000I-20000J0D01*
G01*
X12643800Y-7416800D02*
G75*
G03X12643800Y-7416800I-20000J0D01*
G01*
X12645000Y-8750000D02*
G75*
G03X12645000Y-8750000I-20000J0D01*
G01*
X12699000Y-12696000D02*
G75*
G03X12699000Y-12696000I-20000J0D01*
G01*
X12713000Y-12939000D02*
G75*
G03X12713000Y-12939000I-20000J0D01*
G01*
X12713000Y-13073000D02*
G75*
G03X12713000Y-13073000I-20000J0D01*
G01*
X12730000Y-9415000D02*
G75*
G03X12730000Y-9415000I-20000J0D01*
G01*
X12745400Y-7543800D02*
G75*
G03X12745400Y-7543800I-20000J0D01*
G01*
X12755000Y-12249000D02*
G75*
G03X12755000Y-12249000I-20000J0D01*
G01*
X12770800Y-7442200D02*
G75*
G03X12770800Y-7442200I-20000J0D01*
G01*
X12770800Y-7747000D02*
G75*
G03X12770800Y-7747000I-20000J0D01*
G01*
X12783000Y-13232000D02*
G75*
G03X12783000Y-13232000I-20000J0D01*
G01*
X12794000Y-13478000D02*
G75*
G03X12794000Y-13478000I-20000J0D01*
G01*
X12805000Y-12506000D02*
G75*
G03X12805000Y-12506000I-20000J0D01*
G01*
X12828000Y-12830000D02*
G75*
G03X12828000Y-12830000I-20000J0D01*
G01*
X12842000Y-12998000D02*
G75*
G03X12842000Y-12998000I-20000J0D01*
G01*
X12967000Y-13579000D02*
G75*
G03X12967000Y-13579000I-20000J0D01*
G01*
X12973000Y-13216000D02*
G75*
G03X12973000Y-13216000I-20000J0D01*
G01*
X13129000Y-13316000D02*
G75*
G03X13129000Y-13316000I-20000J0D01*
G01*
X13152000Y-13545000D02*
G75*
G03X13152000Y-13545000I-20000J0D01*
G01*
X13264000Y-13456000D02*
G75*
G03X13264000Y-13456000I-20000J0D01*
G01*
X13329600Y-12192000D02*
G75*
G03X13329600Y-12192000I-20000J0D01*
G01*
X13381000Y-13177000D02*
G75*
G03X13381000Y-13177000I-20000J0D01*
G01*
X13409000Y-13607000D02*
G75*
G03X13409000Y-13607000I-20000J0D01*
G01*
X13571000Y-13350000D02*
G75*
G03X13571000Y-13350000I-20000J0D01*
G01*
X13685200Y-7467600D02*
G75*
G03X13685200Y-7467600I-20000J0D01*
G01*
X13710600Y-11963400D02*
G75*
G03X13710600Y-11963400I-20000J0D01*
G01*
X13738000Y-12426000D02*
G75*
G03X13738000Y-12426000I-20000J0D01*
G01*
X13794000Y-13529000D02*
G75*
G03X13794000Y-13529000I-20000J0D01*
G01*
X13800000Y-13221000D02*
G75*
G03X13800000Y-13221000I-20000J0D01*
G01*
X13840000Y-12531000D02*
G75*
G03X13840000Y-12531000I-20000J0D01*
G01*
X13856000Y-13618000D02*
G75*
G03X13856000Y-13618000I-20000J0D01*
G01*
X13943000Y-12602000D02*
G75*
G03X13943000Y-12602000I-20000J0D01*
G01*
X13956000Y-13378000D02*
G75*
G03X13956000Y-13378000I-20000J0D01*
G01*
X14040800Y-6604000D02*
G75*
G03X14040800Y-6604000I-20000J0D01*
G01*
X14075000Y-12733000D02*
G75*
G03X14075000Y-12733000I-20000J0D01*
G01*
X14091600Y-9525000D02*
G75*
G03X14091600Y-9525000I-20000J0D01*
G01*
X14091600Y-9779000D02*
G75*
G03X14091600Y-9779000I-20000J0D01*
G01*
X14113000Y-13618000D02*
G75*
G03X14113000Y-13618000I-20000J0D01*
G01*
X14141000Y-13299000D02*
G75*
G03X14141000Y-13299000I-20000J0D01*
G01*
X14205000Y-13157000D02*
G75*
G03X14205000Y-13157000I-20000J0D01*
G01*
X14235000Y-12897000D02*
G75*
G03X14235000Y-12897000I-20000J0D01*
G01*
X14300000Y-13467000D02*
G75*
G03X14300000Y-13467000I-20000J0D01*
G01*
X14322000Y-12978000D02*
G75*
G03X14322000Y-12978000I-20000J0D01*
G01*
X14331000Y-13299000D02*
G75*
G03X14331000Y-13299000I-20000J0D01*
G01*
X14334000Y-13157000D02*
G75*
G03X14334000Y-13157000I-20000J0D01*
G01*
X14453000Y-13460000D02*
G75*
G03X14453000Y-13460000I-20000J0D01*
G01*
X14457000Y-13616000D02*
G75*
G03X14457000Y-13616000I-20000J0D01*
G01*
X14515000Y-13163000D02*
G75*
G03X14515000Y-13163000I-20000J0D01*
G01*
X14516000Y-13383000D02*
G75*
G03X14516000Y-13383000I-20000J0D01*
G01*
X14532000Y-13280000D02*
G75*
G03X14532000Y-13280000I-20000J0D01*
G01*
X14599000Y-13442000D02*
G75*
G03X14599000Y-13442000I-20000J0D01*
G01*
X14648000Y-13304000D02*
G75*
G03X14648000Y-13304000I-20000J0D01*
G01*
X14650400Y-9118600D02*
G75*
G03X14650400Y-9118600I-20000J0D01*
G01*
X14666000Y-12810000D02*
G75*
G03X14666000Y-12810000I-20000J0D01*
G01*
X14701200Y-10896600D02*
G75*
G03X14701200Y-10896600I-20000J0D01*
G01*
X14711000Y-13434000D02*
G75*
G03X14711000Y-13434000I-20000J0D01*
G01*
X14752000Y-8788400D02*
G75*
G03X14752000Y-8788400I-20000J0D01*
G01*
X14772000Y-12707000D02*
G75*
G03X14772000Y-12707000I-20000J0D01*
G01*
X14777400Y-10972800D02*
G75*
G03X14777400Y-10972800I-20000J0D01*
G01*
X14828200Y-8940800D02*
G75*
G03X14828200Y-8940800I-20000J0D01*
G01*
X14828200Y-10490200D02*
G75*
G03X14828200Y-10490200I-20000J0D01*
G01*
X14845000Y-12959000D02*
G75*
G03X14845000Y-12959000I-20000J0D01*
G01*
X14859000Y-12634000D02*
G75*
G03X14859000Y-12634000I-20000J0D01*
G01*
X14879000Y-11074400D02*
G75*
G03X14879000Y-11074400I-20000J0D01*
G01*
X14890000Y-12813000D02*
G75*
G03X14890000Y-12813000I-20000J0D01*
G01*
X14982000Y-13109000D02*
G75*
G03X14982000Y-13109000I-20000J0D01*
G01*
X15004500Y-6587500D02*
G75*
G03X15004500Y-6587500I-20000J0D01*
G01*
X15032000Y-12869000D02*
G75*
G03X15032000Y-12869000I-20000J0D01*
G01*
X15077000Y-12612000D02*
G75*
G03X15077000Y-12612000I-20000J0D01*
G01*
X15082200Y-8813800D02*
G75*
G03X15082200Y-8813800I-20000J0D01*
G01*
X15094000Y-6683000D02*
G75*
G03X15094000Y-6683000I-20000J0D01*
G01*
X15133000Y-12947000D02*
G75*
G03X15133000Y-12947000I-20000J0D01*
G01*
X15133000Y-13054000D02*
G75*
G03X15133000Y-13054000I-20000J0D01*
G01*
X15155000Y-13249000D02*
G75*
G03X15155000Y-13249000I-20000J0D01*
G01*
X15158400Y-12090400D02*
G75*
G03X15158400Y-12090400I-20000J0D01*
G01*
X15180000Y-6745000D02*
G75*
G03X15180000Y-6745000I-20000J0D01*
G01*
X15183800Y-12242800D02*
G75*
G03X15183800Y-12242800I-20000J0D01*
G01*
X15194000Y-12783000D02*
G75*
G03X15194000Y-12783000I-20000J0D01*
G01*
X15205000Y-12579000D02*
G75*
G03X15205000Y-12579000I-20000J0D01*
G01*
X15217000Y-13188000D02*
G75*
G03X15217000Y-13188000I-20000J0D01*
G01*
X15234000Y-6988000D02*
G75*
G03X15234000Y-6988000I-20000J0D01*
G01*
X15242000Y-12081000D02*
G75*
G03X15242000Y-12081000I-20000J0D01*
G01*
X15289000Y-12984000D02*
G75*
G03X15289000Y-12984000I-20000J0D01*
G01*
X15300000Y-11838000D02*
G75*
G03X15300000Y-11838000I-20000J0D01*
G01*
X15314000Y-12190000D02*
G75*
G03X15314000Y-12190000I-20000J0D01*
G01*
X15323000Y-12481000D02*
G75*
G03X15323000Y-12481000I-20000J0D01*
G01*
X15336200Y-10388600D02*
G75*
G03X15336200Y-10388600I-20000J0D01*
G01*
X15336200Y-10541000D02*
G75*
G03X15336200Y-10541000I-20000J0D01*
G01*
X15338000Y-6903000D02*
G75*
G03X15338000Y-6903000I-20000J0D01*
G01*
X15362000Y-11983000D02*
G75*
G03X15362000Y-11983000I-20000J0D01*
G01*
X15377000Y-12352000D02*
G75*
G03X15377000Y-12352000I-20000J0D01*
G01*
X15454000Y-8773000D02*
G75*
G03X15454000Y-8773000I-20000J0D01*
G01*
X15531000Y-6900000D02*
G75*
G03X15531000Y-6900000I-20000J0D01*
G01*
X15560000Y-9664000D02*
G75*
G03X15560000Y-9664000I-20000J0D01*
G01*
X15560000Y-9768000D02*
G75*
G03X15560000Y-9768000I-20000J0D01*
G01*
X15641000Y-12979400D02*
G75*
G03X15641000Y-12979400I-20000J0D01*
G01*
X15711000Y-9664000D02*
G75*
G03X15711000Y-9664000I-20000J0D01*
G01*
X15809000Y-9773000D02*
G75*
G03X15809000Y-9773000I-20000J0D01*
G01*
X15895000Y-11887200D02*
G75*
G03X15895000Y-11887200I-20000J0D01*
G01*
X15904000Y-9664000D02*
G75*
G03X15904000Y-9664000I-20000J0D01*
G01*
X15985000Y-6091000D02*
G75*
G03X15985000Y-6091000I-20000J0D01*
G01*
X16002000Y-5951000D02*
G75*
G03X16002000Y-5951000I-20000J0D01*
G01*
X16002000Y-6242000D02*
G75*
G03X16002000Y-6242000I-20000J0D01*
G01*
X16002000Y-6404000D02*
G75*
G03X16002000Y-6404000I-20000J0D01*
G01*
X16024000Y-9773000D02*
G75*
G03X16024000Y-9773000I-20000J0D01*
G01*
X16058000Y-10232000D02*
G75*
G03X16058000Y-10232000I-20000J0D01*
G01*
X16113000Y-9662000D02*
G75*
G03X16113000Y-9662000I-20000J0D01*
G01*
X16164000Y-6264000D02*
G75*
G03X16164000Y-6264000I-20000J0D01*
G01*
X16169000Y-5951000D02*
G75*
G03X16169000Y-5951000I-20000J0D01*
G01*
X16169000Y-6119000D02*
G75*
G03X16169000Y-6119000I-20000J0D01*
G01*
X16169000Y-6415000D02*
G75*
G03X16169000Y-6415000I-20000J0D01*
G01*
X16214000Y-9779000D02*
G75*
G03X16214000Y-9779000I-20000J0D01*
G01*
X16225000Y-10081000D02*
G75*
G03X16225000Y-10081000I-20000J0D01*
G01*
X16225200Y-6629400D02*
G75*
G03X16225200Y-6629400I-20000J0D01*
G01*
X16236000Y-9913000D02*
G75*
G03X16236000Y-9913000I-20000J0D01*
G01*
X16242000Y-10349000D02*
G75*
G03X16242000Y-10349000I-20000J0D01*
G01*
X16262000Y-9609000D02*
G75*
G03X16262000Y-9609000I-20000J0D01*
G01*
X16309000Y-6164000D02*
G75*
G03X16309000Y-6164000I-20000J0D01*
G01*
X16326000Y-6264000D02*
G75*
G03X16326000Y-6264000I-20000J0D01*
G01*
X16343000Y-5968000D02*
G75*
G03X16343000Y-5968000I-20000J0D01*
G01*
X16343000Y-6856000D02*
G75*
G03X16343000Y-6856000I-20000J0D01*
G01*
X16359000Y-10198000D02*
G75*
G03X16359000Y-10198000I-20000J0D01*
G01*
X16382000Y-6415000D02*
G75*
G03X16382000Y-6415000I-20000J0D01*
G01*
X16387000Y-9533000D02*
G75*
G03X16387000Y-9533000I-20000J0D01*
G01*
X16393000Y-6599000D02*
G75*
G03X16393000Y-6599000I-20000J0D01*
G01*
X16393000Y-10478000D02*
G75*
G03X16393000Y-10478000I-20000J0D01*
G01*
X16398000Y-9701000D02*
G75*
G03X16398000Y-9701000I-20000J0D01*
G01*
X16432000Y-9891000D02*
G75*
G03X16432000Y-9891000I-20000J0D01*
G01*
X16449000Y-10058000D02*
G75*
G03X16449000Y-10058000I-20000J0D01*
G01*
X16471000Y-7007000D02*
G75*
G03X16471000Y-7007000I-20000J0D01*
G01*
X16510000Y-6124000D02*
G75*
G03X16510000Y-6124000I-20000J0D01*
G01*
X16510000Y-6247000D02*
G75*
G03X16510000Y-6247000I-20000J0D01*
G01*
X16527000Y-5957000D02*
G75*
G03X16527000Y-5957000I-20000J0D01*
G01*
X16569000Y-7175000D02*
G75*
G03X16569000Y-7175000I-20000J0D01*
G01*
X16572000Y-9835000D02*
G75*
G03X16572000Y-9835000I-20000J0D01*
G01*
X16588000Y-10019000D02*
G75*
G03X16588000Y-10019000I-20000J0D01*
G01*
X16605000Y-9656000D02*
G75*
G03X16605000Y-9656000I-20000J0D01*
G01*
X16669000Y-9502000D02*
G75*
G03X16669000Y-9502000I-20000J0D01*
G01*
X16672000Y-6108000D02*
G75*
G03X16672000Y-6108000I-20000J0D01*
G01*
X16672000Y-6259000D02*
G75*
G03X16672000Y-6259000I-20000J0D01*
G01*
X16711000Y-9835000D02*
G75*
G03X16711000Y-9835000I-20000J0D01*
G01*
X16745000Y-7169000D02*
G75*
G03X16745000Y-7169000I-20000J0D01*
G01*
X16756000Y-9656000D02*
G75*
G03X16756000Y-9656000I-20000J0D01*
G01*
X16778000Y-9986000D02*
G75*
G03X16778000Y-9986000I-20000J0D01*
G01*
X16806000Y-6231000D02*
G75*
G03X16806000Y-6231000I-20000J0D01*
G01*
X16812000Y-6057000D02*
G75*
G03X16812000Y-6057000I-20000J0D01*
G01*
X16840000Y-6426000D02*
G75*
G03X16840000Y-6426000I-20000J0D01*
G01*
X16848000Y-9511000D02*
G75*
G03X16848000Y-9511000I-20000J0D01*
G01*
X16901000Y-9673000D02*
G75*
G03X16901000Y-9673000I-20000J0D01*
G01*
X16946000Y-9801000D02*
G75*
G03X16946000Y-9801000I-20000J0D01*
G01*
X16996000Y-10030000D02*
G75*
G03X16996000Y-10030000I-20000J0D01*
G01*
X17038000Y-6197600D02*
G75*
G03X17038000Y-6197600I-20000J0D01*
G01*
X17136000Y-10475000D02*
G75*
G03X17136000Y-10475000I-20000J0D01*
G01*
X17158000Y-9829000D02*
G75*
G03X17158000Y-9829000I-20000J0D01*
G01*
X17158000Y-10025000D02*
G75*
G03X17158000Y-10025000I-20000J0D01*
G01*
X17161000Y-10721000D02*
G75*
G03X17161000Y-10721000I-20000J0D01*
G01*
X17184000Y-10288000D02*
G75*
G03X17184000Y-10288000I-20000J0D01*
G01*
X7680000Y-4275000D02*
X7680000Y-4325000D01*
X7655000Y-4300000D02*
X7705000Y-4300000D01*
X7680000Y-13275000D02*
X7680000Y-13325000D01*
X7655000Y-13300000D02*
X7705000Y-13300000D01*
X7750294Y-4105294D02*
X7750294Y-4155294D01*
X7725294Y-4130294D02*
X7775294Y-4130294D01*
X7750294Y-4444706D02*
X7750294Y-4494706D01*
X7725294Y-4469706D02*
X7775294Y-4469706D01*
X7750294Y-13105294D02*
X7750294Y-13155294D01*
X7725294Y-13130294D02*
X7775294Y-13130294D01*
X7750294Y-13444706D02*
X7750294Y-13494706D01*
X7725294Y-13469706D02*
X7775294Y-13469706D01*
X7920000Y-4035000D02*
X7920000Y-4085000D01*
X7895000Y-4060000D02*
X7945000Y-4060000D01*
X7920000Y-4515000D02*
X7920000Y-4565000D01*
X7895000Y-4540000D02*
X7945000Y-4540000D01*
X7920000Y-13035000D02*
X7920000Y-13085000D01*
X7895000Y-13060000D02*
X7945000Y-13060000D01*
X7920000Y-13515000D02*
X7920000Y-13565000D01*
X7895000Y-13540000D02*
X7945000Y-13540000D01*
X8089706Y-4105294D02*
X8089706Y-4155294D01*
X8064706Y-4130294D02*
X8114706Y-4130294D01*
X8089706Y-4444706D02*
X8089706Y-4494706D01*
X8064706Y-4469706D02*
X8114706Y-4469706D01*
X8089706Y-13105294D02*
X8089706Y-13155294D01*
X8064706Y-13130294D02*
X8114706Y-13130294D01*
X8089706Y-13444706D02*
X8089706Y-13494706D01*
X8064706Y-13469706D02*
X8114706Y-13469706D01*
X8160000Y-4275000D02*
X8160000Y-4325000D01*
X8135000Y-4300000D02*
X8185000Y-4300000D01*
X8160000Y-13275000D02*
X8160000Y-13325000D01*
X8135000Y-13300000D02*
X8185000Y-13300000D01*
X16680000Y-4275000D02*
X16680000Y-4325000D01*
X16655000Y-4300000D02*
X16705000Y-4300000D01*
X16680000Y-13275000D02*
X16680000Y-13325000D01*
X16655000Y-13300000D02*
X16705000Y-13300000D01*
X16750294Y-4105294D02*
X16750294Y-4155294D01*
X16725294Y-4130294D02*
X16775294Y-4130294D01*
X16750294Y-4444706D02*
X16750294Y-4494706D01*
X16725294Y-4469706D02*
X16775294Y-4469706D01*
X16750294Y-13105294D02*
X16750294Y-13155294D01*
X16725294Y-13130294D02*
X16775294Y-13130294D01*
X16750294Y-13444706D02*
X16750294Y-13494706D01*
X16725294Y-13469706D02*
X16775294Y-13469706D01*
X16920000Y-4035000D02*
X16920000Y-4085000D01*
X16895000Y-4060000D02*
X16945000Y-4060000D01*
X16920000Y-4515000D02*
X16920000Y-4565000D01*
X16895000Y-4540000D02*
X16945000Y-4540000D01*
X16920000Y-13035000D02*
X16920000Y-13085000D01*
X16895000Y-13060000D02*
X16945000Y-13060000D01*
X16920000Y-13515000D02*
X16920000Y-13565000D01*
X16895000Y-13540000D02*
X16945000Y-13540000D01*
X17089706Y-4105294D02*
X17089706Y-4155294D01*
X17064706Y-4130294D02*
X17114706Y-4130294D01*
X17089706Y-4444706D02*
X17089706Y-4494706D01*
X17064706Y-4469706D02*
X17114706Y-4469706D01*
X17089706Y-13105294D02*
X17089706Y-13155294D01*
X17064706Y-13130294D02*
X17114706Y-13130294D01*
X17089706Y-13444706D02*
X17089706Y-13494706D01*
X17064706Y-13469706D02*
X17114706Y-13469706D01*
X17160000Y-4275000D02*
X17160000Y-4325000D01*
X17135000Y-4300000D02*
X17185000Y-4300000D01*
X17160000Y-13275000D02*
X17160000Y-13325000D01*
X17135000Y-13300000D02*
X17185000Y-13300000D01*
X7927684Y-10721685D02*
X7927684Y-10665116D01*
X7871115Y-10665116D01*
X7871115Y-10721685D01*
X7927684Y-10721685D01*
X8353284Y-6018284D02*
X8353284Y-5961715D01*
X8296715Y-5961715D01*
X8296715Y-6018284D01*
X8353284Y-6018284D01*
X10086685Y-5667084D02*
X10086685Y-5610515D01*
X10030116Y-5610515D01*
X10030116Y-5667084D01*
X10086685Y-5667084D01*
X10162885Y-9197685D02*
X10162885Y-9141116D01*
X10106316Y-9141116D01*
X10106316Y-9197685D01*
X10162885Y-9197685D01*
X11008285Y-8833285D02*
X11008285Y-8776716D01*
X10951716Y-8776716D01*
X10951716Y-8833285D01*
X11008285Y-8833285D01*
X11018285Y-13313284D02*
X11018285Y-13256715D01*
X10961716Y-13256715D01*
X10961716Y-13313284D01*
X11018285Y-13313284D01*
X12321884Y-11509084D02*
X12321884Y-11452515D01*
X12265315Y-11452515D01*
X12265315Y-11509084D01*
X12321884Y-11509084D01*
X12398084Y-9985085D02*
X12398084Y-9928516D01*
X12341515Y-9928516D01*
X12341515Y-9985085D01*
X12398084Y-9985085D01*
X12878284Y-11758284D02*
X12878284Y-11701715D01*
X12821715Y-11701715D01*
X12821715Y-11758284D01*
X12878284Y-11758284D01*
X15883284Y-10618285D02*
X15883284Y-10561716D01*
X15826715Y-10561716D01*
X15826715Y-10618285D01*
X15883284Y-10618285D01*
X16004884Y-8842085D02*
X16004884Y-8785516D01*
X15948315Y-8785516D01*
X15948315Y-8842085D01*
X16004884Y-8842085D01*
X16487484Y-9273885D02*
X16487484Y-9217316D01*
X16430915Y-9217316D01*
X16430915Y-9273885D01*
X16487484Y-9273885D01*
X7755000Y-5655000D02*
X7805000Y-5605000D01*
X7755000Y-5555000D01*
X7705000Y-5605000D01*
X7755000Y-5655000D01*
X7805000Y-11882000D02*
X7855000Y-11832000D01*
X7805000Y-11782000D01*
X7755000Y-11832000D01*
X7805000Y-11882000D01*
X7805000Y-12136000D02*
X7855000Y-12086000D01*
X7805000Y-12036000D01*
X7755000Y-12086000D01*
X7805000Y-12136000D01*
X7805000Y-12390000D02*
X7855000Y-12340000D01*
X7805000Y-12290000D01*
X7755000Y-12340000D01*
X7805000Y-12390000D01*
X7890000Y-6826000D02*
X7940000Y-6776000D01*
X7890000Y-6726000D01*
X7840000Y-6776000D01*
X7890000Y-6826000D01*
X7890000Y-7080000D02*
X7940000Y-7030000D01*
X7890000Y-6980000D01*
X7840000Y-7030000D01*
X7890000Y-7080000D01*
X8009000Y-5655000D02*
X8059000Y-5605000D01*
X8009000Y-5555000D01*
X7959000Y-5605000D01*
X8009000Y-5655000D01*
X8311000Y-6355000D02*
X8361000Y-6305000D01*
X8311000Y-6255000D01*
X8261000Y-6305000D01*
X8311000Y-6355000D01*
X8311000Y-6745000D02*
X8361000Y-6695000D01*
X8311000Y-6645000D01*
X8261000Y-6695000D01*
X8311000Y-6745000D01*
X8565000Y-6355000D02*
X8615000Y-6305000D01*
X8565000Y-6255000D01*
X8515000Y-6305000D01*
X8565000Y-6355000D01*
X8565000Y-6745000D02*
X8615000Y-6695000D01*
X8565000Y-6645000D01*
X8515000Y-6695000D01*
X8565000Y-6745000D01*
X9270000Y-7811000D02*
X9320000Y-7761000D01*
X9270000Y-7711000D01*
X9220000Y-7761000D01*
X9270000Y-7811000D01*
X9270000Y-8065000D02*
X9320000Y-8015000D01*
X9270000Y-7965000D01*
X9220000Y-8015000D01*
X9270000Y-8065000D01*
X9705000Y-9970000D02*
X9755000Y-9920000D01*
X9705000Y-9870000D01*
X9655000Y-9920000D01*
X9705000Y-9970000D01*
X9931400Y-6679400D02*
X9981400Y-6629400D01*
X9931400Y-6579400D01*
X9881400Y-6629400D01*
X9931400Y-6679400D01*
X9931400Y-6933400D02*
X9981400Y-6883400D01*
X9931400Y-6833400D01*
X9881400Y-6883400D01*
X9931400Y-6933400D01*
X9931400Y-7187400D02*
X9981400Y-7137400D01*
X9931400Y-7087400D01*
X9881400Y-7137400D01*
X9931400Y-7187400D01*
X9959000Y-9970000D02*
X10009000Y-9920000D01*
X9959000Y-9870000D01*
X9909000Y-9920000D01*
X9959000Y-9970000D01*
X10185400Y-4190200D02*
X10235400Y-4140200D01*
X10185400Y-4090200D01*
X10135400Y-4140200D01*
X10185400Y-4190200D01*
X10185400Y-6679400D02*
X10235400Y-6629400D01*
X10185400Y-6579400D01*
X10135400Y-6629400D01*
X10185400Y-6679400D01*
X10185400Y-6933400D02*
X10235400Y-6883400D01*
X10185400Y-6833400D01*
X10135400Y-6883400D01*
X10185400Y-6933400D01*
X10185400Y-7187400D02*
X10235400Y-7137400D01*
X10185400Y-7087400D01*
X10135400Y-7137400D01*
X10185400Y-7187400D01*
X10381000Y-8850000D02*
X10431000Y-8800000D01*
X10381000Y-8750000D01*
X10331000Y-8800000D01*
X10381000Y-8850000D01*
X10439400Y-4190200D02*
X10489400Y-4140200D01*
X10439400Y-4090200D01*
X10389400Y-4140200D01*
X10439400Y-4190200D01*
X10635000Y-8850000D02*
X10685000Y-8800000D01*
X10635000Y-8750000D01*
X10585000Y-8800000D01*
X10635000Y-8850000D01*
X10693400Y-4190200D02*
X10743400Y-4140200D01*
X10693400Y-4090200D01*
X10643400Y-4140200D01*
X10693400Y-4190200D01*
X11049000Y-10159200D02*
X11099000Y-10109200D01*
X11049000Y-10059200D01*
X10999000Y-10109200D01*
X11049000Y-10159200D01*
X11303000Y-10159200D02*
X11353000Y-10109200D01*
X11303000Y-10059200D01*
X11253000Y-10109200D01*
X11303000Y-10159200D01*
X11350000Y-12845000D02*
X11400000Y-12795000D01*
X11350000Y-12745000D01*
X11300000Y-12795000D01*
X11350000Y-12845000D01*
X11370000Y-11940000D02*
X11420000Y-11890000D01*
X11370000Y-11840000D01*
X11320000Y-11890000D01*
X11370000Y-11940000D01*
X11370000Y-12194000D02*
X11420000Y-12144000D01*
X11370000Y-12094000D01*
X11320000Y-12144000D01*
X11370000Y-12194000D01*
X11370000Y-12448000D02*
X11420000Y-12398000D01*
X11370000Y-12348000D01*
X11320000Y-12398000D01*
X11370000Y-12448000D01*
X11604000Y-12845000D02*
X11654000Y-12795000D01*
X11604000Y-12745000D01*
X11554000Y-12795000D01*
X11604000Y-12845000D01*
X11607800Y-10972000D02*
X11657800Y-10922000D01*
X11607800Y-10872000D01*
X11557800Y-10922000D01*
X11607800Y-10972000D01*
X11640000Y-8705000D02*
X11690000Y-8655000D01*
X11640000Y-8605000D01*
X11590000Y-8655000D01*
X11640000Y-8705000D01*
X11850000Y-11865000D02*
X11900000Y-11815000D01*
X11850000Y-11765000D01*
X11800000Y-11815000D01*
X11850000Y-11865000D01*
X11861800Y-10972000D02*
X11911800Y-10922000D01*
X11861800Y-10872000D01*
X11811800Y-10922000D01*
X11861800Y-10972000D01*
X11890000Y-13231000D02*
X11940000Y-13181000D01*
X11890000Y-13131000D01*
X11840000Y-13181000D01*
X11890000Y-13231000D01*
X11890000Y-13485000D02*
X11940000Y-13435000D01*
X11890000Y-13385000D01*
X11840000Y-13435000D01*
X11890000Y-13485000D01*
X11894000Y-8705000D02*
X11944000Y-8655000D01*
X11894000Y-8605000D01*
X11844000Y-8655000D01*
X11894000Y-8705000D01*
X12104000Y-11865000D02*
X12154000Y-11815000D01*
X12104000Y-11765000D01*
X12054000Y-11815000D01*
X12104000Y-11865000D01*
X12115800Y-10972000D02*
X12165800Y-10922000D01*
X12115800Y-10872000D01*
X12065800Y-10922000D01*
X12115800Y-10972000D01*
X12144000Y-13231000D02*
X12194000Y-13181000D01*
X12144000Y-13131000D01*
X12094000Y-13181000D01*
X12144000Y-13231000D01*
X12144000Y-13485000D02*
X12194000Y-13435000D01*
X12144000Y-13385000D01*
X12094000Y-13435000D01*
X12144000Y-13485000D01*
X12398000Y-13231000D02*
X12448000Y-13181000D01*
X12398000Y-13131000D01*
X12348000Y-13181000D01*
X12398000Y-13231000D01*
X12398000Y-13485000D02*
X12448000Y-13435000D01*
X12398000Y-13385000D01*
X12348000Y-13435000D01*
X12398000Y-13485000D01*
X12495000Y-11855000D02*
X12545000Y-11805000D01*
X12495000Y-11755000D01*
X12445000Y-11805000D01*
X12495000Y-11855000D01*
X12495000Y-12109000D02*
X12545000Y-12059000D01*
X12495000Y-12009000D01*
X12445000Y-12059000D01*
X12495000Y-12109000D01*
X12990000Y-8930000D02*
X13040000Y-8880000D01*
X12990000Y-8830000D01*
X12940000Y-8880000D01*
X12990000Y-8930000D01*
X13014000Y-13020000D02*
X13064000Y-12970000D01*
X13014000Y-12920000D01*
X12964000Y-12970000D01*
X13014000Y-13020000D01*
X13046000Y-10110000D02*
X13096000Y-10060000D01*
X13046000Y-10010000D01*
X12996000Y-10060000D01*
X13046000Y-10110000D01*
X13244000Y-8930000D02*
X13294000Y-8880000D01*
X13244000Y-8830000D01*
X13194000Y-8880000D01*
X13244000Y-8930000D01*
X13268000Y-13020000D02*
X13318000Y-12970000D01*
X13268000Y-12920000D01*
X13218000Y-12970000D01*
X13268000Y-13020000D01*
X13300000Y-9450000D02*
X13350000Y-9400000D01*
X13300000Y-9350000D01*
X13250000Y-9400000D01*
X13300000Y-9450000D01*
X13300000Y-9704000D02*
X13350000Y-9654000D01*
X13300000Y-9604000D01*
X13250000Y-9654000D01*
X13300000Y-9704000D01*
X13300000Y-10110000D02*
X13350000Y-10060000D01*
X13300000Y-10010000D01*
X13250000Y-10060000D01*
X13300000Y-10110000D01*
X13425000Y-10890000D02*
X13475000Y-10840000D01*
X13425000Y-10790000D01*
X13375000Y-10840000D01*
X13425000Y-10890000D01*
X13498000Y-8930000D02*
X13548000Y-8880000D01*
X13498000Y-8830000D01*
X13448000Y-8880000D01*
X13498000Y-8930000D01*
X13522000Y-13020000D02*
X13572000Y-12970000D01*
X13522000Y-12920000D01*
X13472000Y-12970000D01*
X13522000Y-13020000D01*
X13665000Y-7020000D02*
X13715000Y-6970000D01*
X13665000Y-6920000D01*
X13615000Y-6970000D01*
X13665000Y-7020000D01*
X13665000Y-7274000D02*
X13715000Y-7224000D01*
X13665000Y-7174000D01*
X13615000Y-7224000D01*
X13665000Y-7274000D01*
X13679000Y-10890000D02*
X13729000Y-10840000D01*
X13679000Y-10790000D01*
X13629000Y-10840000D01*
X13679000Y-10890000D01*
X13776000Y-13020000D02*
X13826000Y-12970000D01*
X13776000Y-12920000D01*
X13726000Y-12970000D01*
X13776000Y-13020000D01*
X14030000Y-13020000D02*
X14080000Y-12970000D01*
X14030000Y-12920000D01*
X13980000Y-12970000D01*
X14030000Y-13020000D01*
X15253000Y-4295000D02*
X15303000Y-4245000D01*
X15253000Y-4195000D01*
X15203000Y-4245000D01*
X15253000Y-4295000D01*
X15507000Y-4295000D02*
X15557000Y-4245000D01*
X15507000Y-4195000D01*
X15457000Y-4245000D01*
X15507000Y-4295000D01*
X15691000Y-6970000D02*
X15741000Y-6920000D01*
X15691000Y-6870000D01*
X15641000Y-6920000D01*
X15691000Y-6970000D01*
X15716000Y-9520000D02*
X15766000Y-9470000D01*
X15716000Y-9420000D01*
X15666000Y-9470000D01*
X15716000Y-9520000D01*
X15720000Y-10030000D02*
X15770000Y-9980000D01*
X15720000Y-9930000D01*
X15670000Y-9980000D01*
X15720000Y-10030000D01*
X15761000Y-4295000D02*
X15811000Y-4245000D01*
X15761000Y-4195000D01*
X15711000Y-4245000D01*
X15761000Y-4295000D01*
X15945000Y-6970000D02*
X15995000Y-6920000D01*
X15945000Y-6870000D01*
X15895000Y-6920000D01*
X15945000Y-6970000D01*
X15970000Y-9520000D02*
X16020000Y-9470000D01*
X15970000Y-9420000D01*
X15920000Y-9470000D01*
X15970000Y-9520000D01*
X15974000Y-10030000D02*
X16024000Y-9980000D01*
X15974000Y-9930000D01*
X15924000Y-9980000D01*
X15974000Y-10030000D01*
X15975000Y-8251000D02*
X16025000Y-8201000D01*
X15975000Y-8151000D01*
X15925000Y-8201000D01*
X15975000Y-8251000D01*
X15975000Y-8505000D02*
X16025000Y-8455000D01*
X15975000Y-8405000D01*
X15925000Y-8455000D01*
X15975000Y-8505000D01*
X16015000Y-4295000D02*
X16065000Y-4245000D01*
X16015000Y-4195000D01*
X15965000Y-4245000D01*
X16015000Y-4295000D01*
X17070000Y-9355000D02*
X17120000Y-9305000D01*
X17070000Y-9255000D01*
X17020000Y-9305000D01*
X17070000Y-9355000D01*
X17070000Y-9609000D02*
X17120000Y-9559000D01*
X17070000Y-9509000D01*
X17020000Y-9559000D01*
X17070000Y-9609000D01*
X11209200Y-4084200D02*
X11310800Y-4185800D01*
X11310800Y-4084200D02*
X11209200Y-4185800D01*
X11310800Y-4135000D02*
G75*
G03X11310800Y-4135000I-50800J0D01*
G01*
X11463200Y-4084200D02*
X11564800Y-4185800D01*
X11564800Y-4084200D02*
X11463200Y-4185800D01*
X11564800Y-4135000D02*
G75*
G03X11564800Y-4135000I-50800J0D01*
G01*
X11717200Y-4084200D02*
X11818800Y-4185800D01*
X11818800Y-4084200D02*
X11717200Y-4185800D01*
X11818800Y-4135000D02*
G75*
G03X11818800Y-4135000I-50800J0D01*
G01*
X12415200Y-3990200D02*
X12516800Y-4091800D01*
X12516800Y-3990200D02*
X12415200Y-4091800D01*
X12516800Y-4041000D02*
G75*
G03X12516800Y-4041000I-50800J0D01*
G01*
X12415200Y-4244200D02*
X12516800Y-4345800D01*
X12516800Y-4244200D02*
X12415200Y-4345800D01*
X12516800Y-4295000D02*
G75*
G03X12516800Y-4295000I-50800J0D01*
G01*
X12669200Y-3990200D02*
X12770800Y-4091800D01*
X12770800Y-3990200D02*
X12669200Y-4091800D01*
X12770800Y-4041000D02*
G75*
G03X12770800Y-4041000I-50800J0D01*
G01*
X12669200Y-4244200D02*
X12770800Y-4345800D01*
X12770800Y-4244200D02*
X12669200Y-4345800D01*
X12770800Y-4295000D02*
G75*
G03X12770800Y-4295000I-50800J0D01*
G01*
X13759200Y-4064200D02*
X13860800Y-4165800D01*
X13860800Y-4064200D02*
X13759200Y-4165800D01*
X13860800Y-4115000D02*
G75*
G03X13860800Y-4115000I-50800J0D01*
G01*
X13759200Y-4318200D02*
X13860800Y-4419800D01*
X13860800Y-4318200D02*
X13759200Y-4419800D01*
X13860800Y-4369000D02*
G75*
G03X13860800Y-4369000I-50800J0D01*
G01*
X14013200Y-4064200D02*
X14114800Y-4165800D01*
X14114800Y-4064200D02*
X14013200Y-4165800D01*
X14114800Y-4115000D02*
G75*
G03X14114800Y-4115000I-50800J0D01*
G01*
X14013200Y-4318200D02*
X14114800Y-4419800D01*
X14114800Y-4318200D02*
X14013200Y-4419800D01*
X14114800Y-4369000D02*
G75*
G03X14114800Y-4369000I-50800J0D01*
G01*
X14267200Y-4064200D02*
X14368800Y-4165800D01*
X14368800Y-4064200D02*
X14267200Y-4165800D01*
X14368800Y-4115000D02*
G75*
G03X14368800Y-4115000I-50800J0D01*
G01*
X14267200Y-4318200D02*
X14368800Y-4419800D01*
X14368800Y-4318200D02*
X14267200Y-4419800D01*
X14368800Y-4369000D02*
G75*
G03X14368800Y-4369000I-50800J0D01*
G01*
X14521200Y-4064200D02*
X14622800Y-4165800D01*
X14622800Y-4064200D02*
X14521200Y-4165800D01*
X14622800Y-4115000D02*
G75*
G03X14622800Y-4115000I-50800J0D01*
G01*
X14521200Y-4318200D02*
X14622800Y-4419800D01*
X14622800Y-4318200D02*
X14521200Y-4419800D01*
X14622800Y-4369000D02*
G75*
G03X14622800Y-4369000I-50800J0D01*
G01*
X16854200Y-12049200D02*
X16955800Y-12150800D01*
X16955800Y-12049200D02*
X16854200Y-12150800D01*
X16955800Y-12100000D02*
G75*
G03X16955800Y-12100000I-50800J0D01*
G01*
X16854200Y-12303200D02*
X16955800Y-12404800D01*
X16955800Y-12303200D02*
X16854200Y-12404800D01*
X16955800Y-12354000D02*
G75*
G03X16955800Y-12354000I-50800J0D01*
G01*
X16854200Y-12557200D02*
X16955800Y-12658800D01*
X16955800Y-12557200D02*
X16854200Y-12658800D01*
X16955800Y-12608000D02*
G75*
G03X16955800Y-12608000I-50800J0D01*
G01*
X16929200Y-5002200D02*
X17030800Y-5103800D01*
X17030800Y-5002200D02*
X16929200Y-5103800D01*
X17030800Y-5053000D02*
G75*
G03X17030800Y-5053000I-50800J0D01*
G01*
X16929200Y-5256200D02*
X17030800Y-5357800D01*
X17030800Y-5256200D02*
X16929200Y-5357800D01*
X17030800Y-5307000D02*
G75*
G03X17030800Y-5307000I-50800J0D01*
G01*
X16929200Y-5510200D02*
X17030800Y-5611800D01*
X17030800Y-5510200D02*
X16929200Y-5611800D01*
X17030800Y-5561000D02*
G75*
G03X17030800Y-5561000I-50800J0D01*
G01*
X16929200Y-5764200D02*
X17030800Y-5865800D01*
X17030800Y-5764200D02*
X16929200Y-5865800D01*
X17030800Y-5815000D02*
G75*
G03X17030800Y-5815000I-50800J0D01*
G01*
X8459851Y-4380357D02*
X8639937Y-4560443D01*
X8639937Y-4380357D02*
X8459851Y-4560443D01*
X8549894Y-4380357D02*
X8549894Y-4560443D01*
X8459851Y-4470400D02*
X8639937Y-4470400D01*
X8855837Y-4380357D02*
X9035923Y-4560443D01*
X9035923Y-4380357D02*
X8855837Y-4560443D01*
X8945880Y-4380357D02*
X8945880Y-4560443D01*
X8855837Y-4470400D02*
X9035923Y-4470400D01*
X9252077Y-4380357D02*
X9432163Y-4560443D01*
X9432163Y-4380357D02*
X9252077Y-4560443D01*
X9342120Y-4380357D02*
X9342120Y-4560443D01*
X9252077Y-4470400D02*
X9432163Y-4470400D01*
X9648063Y-4380357D02*
X9828149Y-4560443D01*
X9828149Y-4380357D02*
X9648063Y-4560443D01*
X9738106Y-4380357D02*
X9738106Y-4560443D01*
X9648063Y-4470400D02*
X9828149Y-4470400D01*
X16659957Y-7390851D02*
X16840043Y-7570937D01*
X16840043Y-7390851D02*
X16659957Y-7570937D01*
X16750000Y-7390851D02*
X16750000Y-7570937D01*
X16659957Y-7480894D02*
X16840043Y-7480894D01*
X16659957Y-7786837D02*
X16840043Y-7966923D01*
X16840043Y-7786837D02*
X16659957Y-7966923D01*
X16750000Y-7786837D02*
X16750000Y-7966923D01*
X16659957Y-7876880D02*
X16840043Y-7876880D01*
X16659957Y-8183077D02*
X16840043Y-8363163D01*
X16840043Y-8183077D02*
X16659957Y-8363163D01*
X16750000Y-8183077D02*
X16750000Y-8363163D01*
X16659957Y-8273120D02*
X16840043Y-8273120D01*
X16659957Y-8579063D02*
X16840043Y-8759149D01*
X16840043Y-8579063D02*
X16659957Y-8759149D01*
X16750000Y-8579063D02*
X16750000Y-8759149D01*
X16659957Y-8669106D02*
X16840043Y-8669106D01*
X16674957Y-10215851D02*
X16855043Y-10395937D01*
X16855043Y-10215851D02*
X16674957Y-10395937D01*
X16765000Y-10215851D02*
X16765000Y-10395937D01*
X16674957Y-10305894D02*
X16855043Y-10305894D01*
X16674957Y-10611837D02*
X16855043Y-10791923D01*
X16855043Y-10611837D02*
X16674957Y-10791923D01*
X16765000Y-10611837D02*
X16765000Y-10791923D01*
X16674957Y-10701880D02*
X16855043Y-10701880D01*
X16674957Y-11008077D02*
X16855043Y-11188163D01*
X16855043Y-11008077D02*
X16674957Y-11188163D01*
X16765000Y-11008077D02*
X16765000Y-11188163D01*
X16674957Y-11098120D02*
X16855043Y-11098120D01*
X16674957Y-11404063D02*
X16855043Y-11584149D01*
X16855043Y-11404063D02*
X16674957Y-11584149D01*
X16765000Y-11404063D02*
X16765000Y-11584149D01*
X16674957Y-11494106D02*
X16855043Y-11494106D01*
X7760000Y-4140000D02*
X8080000Y-4460000D01*
X8080000Y-4140000D02*
X7760000Y-4460000D01*
X8033138Y-4413138D02*
X8033138Y-4186862D01*
X7806862Y-4186862D01*
X7806862Y-4413138D01*
X8033138Y-4413138D01*
X7760000Y-13140000D02*
X8080000Y-13460000D01*
X8080000Y-13140000D02*
X7760000Y-13460000D01*
X8033138Y-13413138D02*
X8033138Y-13186862D01*
X7806862Y-13186862D01*
X7806862Y-13413138D01*
X8033138Y-13413138D01*
X16760000Y-4140000D02*
X17080000Y-4460000D01*
X17080000Y-4140000D02*
X16760000Y-4460000D01*
X17033138Y-4413138D02*
X17033138Y-4186862D01*
X16806862Y-4186862D01*
X16806862Y-4413138D01*
X17033138Y-4413138D01*
X16760000Y-13140000D02*
X17080000Y-13460000D01*
X17080000Y-13140000D02*
X16760000Y-13460000D01*
X17033138Y-13413138D02*
X17033138Y-13186862D01*
X16806862Y-13186862D01*
X16806862Y-13413138D01*
X17033138Y-13413138D01*
D13*
X7683928Y-14273214D02*
X7683928Y-13973214D01*
X7755357Y-13973214D01*
X7798214Y-13987500D01*
X7826786Y-14016071D01*
X7841071Y-14044643D01*
X7855357Y-14101786D01*
X7855357Y-14144643D01*
X7841071Y-14201786D01*
X7826786Y-14230357D01*
X7798214Y-14258929D01*
X7755357Y-14273214D01*
X7683928Y-14273214D01*
X7983928Y-14273214D02*
X7983928Y-14073214D01*
X7983928Y-14130357D02*
X7998214Y-14101786D01*
X8012500Y-14087500D01*
X8041071Y-14073214D01*
X8069643Y-14073214D01*
X8169643Y-14273214D02*
X8169643Y-14073214D01*
X8169643Y-13973214D02*
X8155357Y-13987500D01*
X8169643Y-14001786D01*
X8183928Y-13987500D01*
X8169643Y-13973214D01*
X8169643Y-14001786D01*
X8355357Y-14273214D02*
X8326786Y-14258929D01*
X8312500Y-14230357D01*
X8312500Y-13973214D01*
X8512500Y-14273214D02*
X8483929Y-14258929D01*
X8469643Y-14230357D01*
X8469643Y-13973214D01*
X8855357Y-14273214D02*
X8855357Y-13973214D01*
X8955357Y-14187500D01*
X9055357Y-13973214D01*
X9055357Y-14273214D01*
X9326786Y-14273214D02*
X9326786Y-14116071D01*
X9312500Y-14087500D01*
X9283929Y-14073214D01*
X9226786Y-14073214D01*
X9198214Y-14087500D01*
X9326786Y-14258929D02*
X9298214Y-14273214D01*
X9226786Y-14273214D01*
X9198214Y-14258929D01*
X9183929Y-14230357D01*
X9183929Y-14201786D01*
X9198214Y-14173214D01*
X9226786Y-14158929D01*
X9298214Y-14158929D01*
X9326786Y-14144643D01*
X9469643Y-14073214D02*
X9469643Y-14373214D01*
X9469643Y-14087500D02*
X9498214Y-14073214D01*
X9555357Y-14073214D01*
X9583929Y-14087500D01*
X9598214Y-14101786D01*
X9612500Y-14130357D01*
X9612500Y-14216071D01*
X9598214Y-14244643D01*
X9583929Y-14258929D01*
X9555357Y-14273214D01*
X9498214Y-14273214D01*
X9469643Y-14258929D01*
X9741071Y-14244643D02*
X9755357Y-14258929D01*
X9741071Y-14273214D01*
X9726786Y-14258929D01*
X9741071Y-14244643D01*
X9741071Y-14273214D01*
X9741071Y-14087500D02*
X9755357Y-14101786D01*
X9741071Y-14116071D01*
X9726786Y-14101786D01*
X9741071Y-14087500D01*
X9741071Y-14116071D01*
X7382500Y-14752500D02*
X7412500Y-14782500D01*
X7412500Y-14752500D02*
X7382500Y-14782500D01*
X7741071Y-14603214D02*
X7769643Y-14603214D01*
X7798214Y-14617500D01*
X7812500Y-14631786D01*
X7826786Y-14660357D01*
X7841071Y-14717500D01*
X7841071Y-14788929D01*
X7826786Y-14846071D01*
X7812500Y-14874643D01*
X7798214Y-14888929D01*
X7769643Y-14903214D01*
X7741071Y-14903214D01*
X7712500Y-14888929D01*
X7698214Y-14874643D01*
X7683928Y-14846071D01*
X7669643Y-14788929D01*
X7669643Y-14717500D01*
X7683928Y-14660357D01*
X7698214Y-14631786D01*
X7712500Y-14617500D01*
X7741071Y-14603214D01*
X7969643Y-14874643D02*
X7983928Y-14888929D01*
X7969643Y-14903214D01*
X7955357Y-14888929D01*
X7969643Y-14874643D01*
X7969643Y-14903214D01*
X8083928Y-14603214D02*
X8269643Y-14603214D01*
X8169643Y-14717500D01*
X8212500Y-14717500D01*
X8241071Y-14731786D01*
X8255357Y-14746071D01*
X8269643Y-14774643D01*
X8269643Y-14846071D01*
X8255357Y-14874643D01*
X8241071Y-14888929D01*
X8212500Y-14903214D01*
X8126786Y-14903214D01*
X8098214Y-14888929D01*
X8083928Y-14874643D01*
X8455357Y-14603214D02*
X8483929Y-14603214D01*
X8512500Y-14617500D01*
X8526786Y-14631786D01*
X8541071Y-14660357D01*
X8555357Y-14717500D01*
X8555357Y-14788929D01*
X8541071Y-14846071D01*
X8526786Y-14874643D01*
X8512500Y-14888929D01*
X8483929Y-14903214D01*
X8455357Y-14903214D01*
X8426786Y-14888929D01*
X8412500Y-14874643D01*
X8398214Y-14846071D01*
X8383928Y-14788929D01*
X8383928Y-14717500D01*
X8398214Y-14660357D01*
X8412500Y-14631786D01*
X8426786Y-14617500D01*
X8455357Y-14603214D01*
X8683929Y-14903214D02*
X8683929Y-14703214D01*
X8683929Y-14731786D02*
X8698214Y-14717500D01*
X8726786Y-14703214D01*
X8769643Y-14703214D01*
X8798214Y-14717500D01*
X8812500Y-14746071D01*
X8812500Y-14903214D01*
X8812500Y-14746071D02*
X8826786Y-14717500D01*
X8855357Y-14703214D01*
X8898214Y-14703214D01*
X8926786Y-14717500D01*
X8941071Y-14746071D01*
X8941071Y-14903214D01*
X9083929Y-14903214D02*
X9083929Y-14703214D01*
X9083929Y-14731786D02*
X9098214Y-14717500D01*
X9126786Y-14703214D01*
X9169643Y-14703214D01*
X9198214Y-14717500D01*
X9212500Y-14746071D01*
X9212500Y-14903214D01*
X9212500Y-14746071D02*
X9226786Y-14717500D01*
X9255357Y-14703214D01*
X9298214Y-14703214D01*
X9326786Y-14717500D01*
X9341071Y-14746071D01*
X9341071Y-14903214D01*
X9926786Y-14588929D02*
X9669643Y-14974643D01*
X10312500Y-14603214D02*
X10341071Y-14603214D01*
X10369643Y-14617500D01*
X10383928Y-14631786D01*
X10398214Y-14660357D01*
X10412500Y-14717500D01*
X10412500Y-14788929D01*
X10398214Y-14846071D01*
X10383928Y-14874643D01*
X10369643Y-14888929D01*
X10341071Y-14903214D01*
X10312500Y-14903214D01*
X10283928Y-14888929D01*
X10269643Y-14874643D01*
X10255357Y-14846071D01*
X10241071Y-14788929D01*
X10241071Y-14717500D01*
X10255357Y-14660357D01*
X10269643Y-14631786D01*
X10283928Y-14617500D01*
X10312500Y-14603214D01*
X10541071Y-14874643D02*
X10555357Y-14888929D01*
X10541071Y-14903214D01*
X10526786Y-14888929D01*
X10541071Y-14874643D01*
X10541071Y-14903214D01*
X10741071Y-14603214D02*
X10769643Y-14603214D01*
X10798214Y-14617500D01*
X10812500Y-14631786D01*
X10826786Y-14660357D01*
X10841071Y-14717500D01*
X10841071Y-14788929D01*
X10826786Y-14846071D01*
X10812500Y-14874643D01*
X10798214Y-14888929D01*
X10769643Y-14903214D01*
X10741071Y-14903214D01*
X10712500Y-14888929D01*
X10698214Y-14874643D01*
X10683928Y-14846071D01*
X10669643Y-14788929D01*
X10669643Y-14717500D01*
X10683928Y-14660357D01*
X10698214Y-14631786D01*
X10712500Y-14617500D01*
X10741071Y-14603214D01*
X11126786Y-14903214D02*
X10955357Y-14903214D01*
X11041071Y-14903214D02*
X11041071Y-14603214D01*
X11012500Y-14646071D01*
X10983928Y-14674643D01*
X10955357Y-14688929D01*
X11241071Y-14631786D02*
X11255357Y-14617500D01*
X11283928Y-14603214D01*
X11355357Y-14603214D01*
X11383928Y-14617500D01*
X11398214Y-14631786D01*
X11412500Y-14660357D01*
X11412500Y-14688929D01*
X11398214Y-14731786D01*
X11226785Y-14903214D01*
X11412500Y-14903214D01*
X11526786Y-14603214D02*
X11526786Y-14660357D01*
X11641071Y-14603214D02*
X11641071Y-14660357D01*
X12083928Y-15017500D02*
X12069643Y-15003214D01*
X12041071Y-14960357D01*
X12026785Y-14931786D01*
X12012500Y-14888929D01*
X11998214Y-14817500D01*
X11998214Y-14760357D01*
X12012500Y-14688929D01*
X12026785Y-14646071D01*
X12041071Y-14617500D01*
X12069643Y-14574643D01*
X12083928Y-14560357D01*
X12355357Y-14903214D02*
X12183928Y-14903214D01*
X12269643Y-14903214D02*
X12269643Y-14603214D01*
X12241071Y-14646071D01*
X12212500Y-14674643D01*
X12183928Y-14688929D01*
X12526785Y-14731786D02*
X12498214Y-14717500D01*
X12483928Y-14703214D01*
X12469643Y-14674643D01*
X12469643Y-14660357D01*
X12483928Y-14631786D01*
X12498214Y-14617500D01*
X12526785Y-14603214D01*
X12583928Y-14603214D01*
X12612500Y-14617500D01*
X12626785Y-14631786D01*
X12641071Y-14660357D01*
X12641071Y-14674643D01*
X12626785Y-14703214D01*
X12612500Y-14717500D01*
X12583928Y-14731786D01*
X12526785Y-14731786D01*
X12498214Y-14746071D01*
X12483928Y-14760357D01*
X12469643Y-14788929D01*
X12469643Y-14846071D01*
X12483928Y-14874643D01*
X12498214Y-14888929D01*
X12526785Y-14903214D01*
X12583928Y-14903214D01*
X12612500Y-14888929D01*
X12626785Y-14874643D01*
X12641071Y-14846071D01*
X12641071Y-14788929D01*
X12626785Y-14760357D01*
X12612500Y-14746071D01*
X12583928Y-14731786D01*
X12998214Y-14903214D02*
X12998214Y-14603214D01*
X13126785Y-14903214D02*
X13126785Y-14746071D01*
X13112500Y-14717500D01*
X13083928Y-14703214D01*
X13041071Y-14703214D01*
X13012500Y-14717500D01*
X12998214Y-14731786D01*
X13312500Y-14903214D02*
X13283928Y-14888929D01*
X13269643Y-14874643D01*
X13255357Y-14846071D01*
X13255357Y-14760357D01*
X13269643Y-14731786D01*
X13283928Y-14717500D01*
X13312500Y-14703214D01*
X13355357Y-14703214D01*
X13383928Y-14717500D01*
X13398214Y-14731786D01*
X13412500Y-14760357D01*
X13412500Y-14846071D01*
X13398214Y-14874643D01*
X13383928Y-14888929D01*
X13355357Y-14903214D01*
X13312500Y-14903214D01*
X13583928Y-14903214D02*
X13555357Y-14888929D01*
X13541071Y-14860357D01*
X13541071Y-14603214D01*
X13812500Y-14888929D02*
X13783928Y-14903214D01*
X13726786Y-14903214D01*
X13698214Y-14888929D01*
X13683928Y-14860357D01*
X13683928Y-14746071D01*
X13698214Y-14717500D01*
X13726786Y-14703214D01*
X13783928Y-14703214D01*
X13812500Y-14717500D01*
X13826786Y-14746071D01*
X13826786Y-14774643D01*
X13683928Y-14803214D01*
X13941071Y-14888929D02*
X13969643Y-14903214D01*
X14026786Y-14903214D01*
X14055357Y-14888929D01*
X14069643Y-14860357D01*
X14069643Y-14846071D01*
X14055357Y-14817500D01*
X14026786Y-14803214D01*
X13983928Y-14803214D01*
X13955357Y-14788929D01*
X13941071Y-14760357D01*
X13941071Y-14746071D01*
X13955357Y-14717500D01*
X13983928Y-14703214D01*
X14026786Y-14703214D01*
X14055357Y-14717500D01*
X14169643Y-15017500D02*
X14183928Y-15003214D01*
X14212500Y-14960357D01*
X14226786Y-14931786D01*
X14241071Y-14888929D01*
X14255357Y-14817500D01*
X14255357Y-14760357D01*
X14241071Y-14688929D01*
X14226786Y-14646071D01*
X14212500Y-14617500D01*
X14183928Y-14574643D01*
X14169643Y-14560357D01*
X7412500Y-15163500D02*
G75*
G03X7412500Y-15163500I-20000J0D01*
G01*
X7741071Y-14999214D02*
X7769643Y-14999214D01*
X7798214Y-15013500D01*
X7812500Y-15027786D01*
X7826786Y-15056357D01*
X7841071Y-15113500D01*
X7841071Y-15184929D01*
X7826786Y-15242071D01*
X7812500Y-15270643D01*
X7798214Y-15284929D01*
X7769643Y-15299214D01*
X7741071Y-15299214D01*
X7712500Y-15284929D01*
X7698214Y-15270643D01*
X7683928Y-15242071D01*
X7669643Y-15184929D01*
X7669643Y-15113500D01*
X7683928Y-15056357D01*
X7698214Y-15027786D01*
X7712500Y-15013500D01*
X7741071Y-14999214D01*
X7969643Y-15270643D02*
X7983928Y-15284929D01*
X7969643Y-15299214D01*
X7955357Y-15284929D01*
X7969643Y-15270643D01*
X7969643Y-15299214D01*
X8241071Y-15099214D02*
X8241071Y-15299214D01*
X8169643Y-14984929D02*
X8098214Y-15199214D01*
X8283928Y-15199214D01*
X8455357Y-14999214D02*
X8483929Y-14999214D01*
X8512500Y-15013500D01*
X8526786Y-15027786D01*
X8541071Y-15056357D01*
X8555357Y-15113500D01*
X8555357Y-15184929D01*
X8541071Y-15242071D01*
X8526786Y-15270643D01*
X8512500Y-15284929D01*
X8483929Y-15299214D01*
X8455357Y-15299214D01*
X8426786Y-15284929D01*
X8412500Y-15270643D01*
X8398214Y-15242071D01*
X8383928Y-15184929D01*
X8383928Y-15113500D01*
X8398214Y-15056357D01*
X8412500Y-15027786D01*
X8426786Y-15013500D01*
X8455357Y-14999214D01*
X8683929Y-15299214D02*
X8683929Y-15099214D01*
X8683929Y-15127786D02*
X8698214Y-15113500D01*
X8726786Y-15099214D01*
X8769643Y-15099214D01*
X8798214Y-15113500D01*
X8812500Y-15142071D01*
X8812500Y-15299214D01*
X8812500Y-15142071D02*
X8826786Y-15113500D01*
X8855357Y-15099214D01*
X8898214Y-15099214D01*
X8926786Y-15113500D01*
X8941071Y-15142071D01*
X8941071Y-15299214D01*
X9083929Y-15299214D02*
X9083929Y-15099214D01*
X9083929Y-15127786D02*
X9098214Y-15113500D01*
X9126786Y-15099214D01*
X9169643Y-15099214D01*
X9198214Y-15113500D01*
X9212500Y-15142071D01*
X9212500Y-15299214D01*
X9212500Y-15142071D02*
X9226786Y-15113500D01*
X9255357Y-15099214D01*
X9298214Y-15099214D01*
X9326786Y-15113500D01*
X9341071Y-15142071D01*
X9341071Y-15299214D01*
X9926786Y-14984929D02*
X9669643Y-15370643D01*
X10312500Y-14999214D02*
X10341071Y-14999214D01*
X10369643Y-15013500D01*
X10383928Y-15027786D01*
X10398214Y-15056357D01*
X10412500Y-15113500D01*
X10412500Y-15184929D01*
X10398214Y-15242071D01*
X10383928Y-15270643D01*
X10369643Y-15284929D01*
X10341071Y-15299214D01*
X10312500Y-15299214D01*
X10283928Y-15284929D01*
X10269643Y-15270643D01*
X10255357Y-15242071D01*
X10241071Y-15184929D01*
X10241071Y-15113500D01*
X10255357Y-15056357D01*
X10269643Y-15027786D01*
X10283928Y-15013500D01*
X10312500Y-14999214D01*
X10541071Y-15270643D02*
X10555357Y-15284929D01*
X10541071Y-15299214D01*
X10526786Y-15284929D01*
X10541071Y-15270643D01*
X10541071Y-15299214D01*
X10741071Y-14999214D02*
X10769643Y-14999214D01*
X10798214Y-15013500D01*
X10812500Y-15027786D01*
X10826786Y-15056357D01*
X10841071Y-15113500D01*
X10841071Y-15184929D01*
X10826786Y-15242071D01*
X10812500Y-15270643D01*
X10798214Y-15284929D01*
X10769643Y-15299214D01*
X10741071Y-15299214D01*
X10712500Y-15284929D01*
X10698214Y-15270643D01*
X10683928Y-15242071D01*
X10669643Y-15184929D01*
X10669643Y-15113500D01*
X10683928Y-15056357D01*
X10698214Y-15027786D01*
X10712500Y-15013500D01*
X10741071Y-14999214D01*
X11126786Y-15299214D02*
X10955357Y-15299214D01*
X11041071Y-15299214D02*
X11041071Y-14999214D01*
X11012500Y-15042071D01*
X10983928Y-15070643D01*
X10955357Y-15084929D01*
X11383928Y-14999214D02*
X11326785Y-14999214D01*
X11298214Y-15013500D01*
X11283928Y-15027786D01*
X11255357Y-15070643D01*
X11241071Y-15127786D01*
X11241071Y-15242071D01*
X11255357Y-15270643D01*
X11269643Y-15284929D01*
X11298214Y-15299214D01*
X11355357Y-15299214D01*
X11383928Y-15284929D01*
X11398214Y-15270643D01*
X11412500Y-15242071D01*
X11412500Y-15170643D01*
X11398214Y-15142071D01*
X11383928Y-15127786D01*
X11355357Y-15113500D01*
X11298214Y-15113500D01*
X11269643Y-15127786D01*
X11255357Y-15142071D01*
X11241071Y-15170643D01*
X11526786Y-14999214D02*
X11526786Y-15056357D01*
X11641071Y-14999214D02*
X11641071Y-15056357D01*
X12083928Y-15413500D02*
X12069643Y-15399214D01*
X12041071Y-15356357D01*
X12026785Y-15327786D01*
X12012500Y-15284929D01*
X11998214Y-15213500D01*
X11998214Y-15156357D01*
X12012500Y-15084929D01*
X12026785Y-15042071D01*
X12041071Y-15013500D01*
X12069643Y-14970643D01*
X12083928Y-14956357D01*
X12169643Y-14999214D02*
X12355357Y-14999214D01*
X12255357Y-15113500D01*
X12298214Y-15113500D01*
X12326785Y-15127786D01*
X12341071Y-15142071D01*
X12355357Y-15170643D01*
X12355357Y-15242071D01*
X12341071Y-15270643D01*
X12326785Y-15284929D01*
X12298214Y-15299214D01*
X12212500Y-15299214D01*
X12183928Y-15284929D01*
X12169643Y-15270643D01*
X12455357Y-14999214D02*
X12655357Y-14999214D01*
X12526785Y-15299214D01*
X12898214Y-15099214D02*
X12898214Y-15299214D01*
X12826785Y-14984929D02*
X12755357Y-15199214D01*
X12941071Y-15199214D01*
X13283928Y-15299214D02*
X13283928Y-14999214D01*
X13412500Y-15299214D02*
X13412500Y-15142071D01*
X13398214Y-15113500D01*
X13369643Y-15099214D01*
X13326785Y-15099214D01*
X13298214Y-15113500D01*
X13283928Y-15127786D01*
X13598214Y-15299214D02*
X13569643Y-15284929D01*
X13555357Y-15270643D01*
X13541071Y-15242071D01*
X13541071Y-15156357D01*
X13555357Y-15127786D01*
X13569643Y-15113500D01*
X13598214Y-15099214D01*
X13641071Y-15099214D01*
X13669643Y-15113500D01*
X13683928Y-15127786D01*
X13698214Y-15156357D01*
X13698214Y-15242071D01*
X13683928Y-15270643D01*
X13669643Y-15284929D01*
X13641071Y-15299214D01*
X13598214Y-15299214D01*
X13869643Y-15299214D02*
X13841071Y-15284929D01*
X13826786Y-15256357D01*
X13826786Y-14999214D01*
X14098214Y-15284929D02*
X14069643Y-15299214D01*
X14012500Y-15299214D01*
X13983928Y-15284929D01*
X13969643Y-15256357D01*
X13969643Y-15142071D01*
X13983928Y-15113500D01*
X14012500Y-15099214D01*
X14069643Y-15099214D01*
X14098214Y-15113500D01*
X14112500Y-15142071D01*
X14112500Y-15170643D01*
X13969643Y-15199214D01*
X14226786Y-15284929D02*
X14255357Y-15299214D01*
X14312500Y-15299214D01*
X14341071Y-15284929D01*
X14355357Y-15256357D01*
X14355357Y-15242071D01*
X14341071Y-15213500D01*
X14312500Y-15199214D01*
X14269643Y-15199214D01*
X14241071Y-15184929D01*
X14226786Y-15156357D01*
X14226786Y-15142071D01*
X14241071Y-15113500D01*
X14269643Y-15099214D01*
X14312500Y-15099214D01*
X14341071Y-15113500D01*
X14455357Y-15413500D02*
X14469643Y-15399214D01*
X14498214Y-15356357D01*
X14512500Y-15327786D01*
X14526786Y-15284929D01*
X14541071Y-15213500D01*
X14541071Y-15156357D01*
X14526786Y-15084929D01*
X14512500Y-15042071D01*
X14498214Y-15013500D01*
X14469643Y-14970643D01*
X14455357Y-14956357D01*
X7387500Y-15534500D02*
X7387500Y-15584500D01*
X7362500Y-15559500D02*
X7412500Y-15559500D01*
X7741071Y-15395214D02*
X7769643Y-15395214D01*
X7798214Y-15409500D01*
X7812500Y-15423786D01*
X7826786Y-15452357D01*
X7841071Y-15509500D01*
X7841071Y-15580929D01*
X7826786Y-15638071D01*
X7812500Y-15666643D01*
X7798214Y-15680929D01*
X7769643Y-15695214D01*
X7741071Y-15695214D01*
X7712500Y-15680929D01*
X7698214Y-15666643D01*
X7683928Y-15638071D01*
X7669643Y-15580929D01*
X7669643Y-15509500D01*
X7683928Y-15452357D01*
X7698214Y-15423786D01*
X7712500Y-15409500D01*
X7741071Y-15395214D01*
X7969643Y-15666643D02*
X7983928Y-15680929D01*
X7969643Y-15695214D01*
X7955357Y-15680929D01*
X7969643Y-15666643D01*
X7969643Y-15695214D01*
X8255357Y-15395214D02*
X8112500Y-15395214D01*
X8098214Y-15538071D01*
X8112500Y-15523786D01*
X8141071Y-15509500D01*
X8212500Y-15509500D01*
X8241071Y-15523786D01*
X8255357Y-15538071D01*
X8269643Y-15566643D01*
X8269643Y-15638071D01*
X8255357Y-15666643D01*
X8241071Y-15680929D01*
X8212500Y-15695214D01*
X8141071Y-15695214D01*
X8112500Y-15680929D01*
X8098214Y-15666643D01*
X8455357Y-15395214D02*
X8483929Y-15395214D01*
X8512500Y-15409500D01*
X8526786Y-15423786D01*
X8541071Y-15452357D01*
X8555357Y-15509500D01*
X8555357Y-15580929D01*
X8541071Y-15638071D01*
X8526786Y-15666643D01*
X8512500Y-15680929D01*
X8483929Y-15695214D01*
X8455357Y-15695214D01*
X8426786Y-15680929D01*
X8412500Y-15666643D01*
X8398214Y-15638071D01*
X8383928Y-15580929D01*
X8383928Y-15509500D01*
X8398214Y-15452357D01*
X8412500Y-15423786D01*
X8426786Y-15409500D01*
X8455357Y-15395214D01*
X8683929Y-15695214D02*
X8683929Y-15495214D01*
X8683929Y-15523786D02*
X8698214Y-15509500D01*
X8726786Y-15495214D01*
X8769643Y-15495214D01*
X8798214Y-15509500D01*
X8812500Y-15538071D01*
X8812500Y-15695214D01*
X8812500Y-15538071D02*
X8826786Y-15509500D01*
X8855357Y-15495214D01*
X8898214Y-15495214D01*
X8926786Y-15509500D01*
X8941071Y-15538071D01*
X8941071Y-15695214D01*
X9083929Y-15695214D02*
X9083929Y-15495214D01*
X9083929Y-15523786D02*
X9098214Y-15509500D01*
X9126786Y-15495214D01*
X9169643Y-15495214D01*
X9198214Y-15509500D01*
X9212500Y-15538071D01*
X9212500Y-15695214D01*
X9212500Y-15538071D02*
X9226786Y-15509500D01*
X9255357Y-15495214D01*
X9298214Y-15495214D01*
X9326786Y-15509500D01*
X9341071Y-15538071D01*
X9341071Y-15695214D01*
X9926786Y-15380929D02*
X9669643Y-15766643D01*
X10312500Y-15395214D02*
X10341071Y-15395214D01*
X10369643Y-15409500D01*
X10383928Y-15423786D01*
X10398214Y-15452357D01*
X10412500Y-15509500D01*
X10412500Y-15580929D01*
X10398214Y-15638071D01*
X10383928Y-15666643D01*
X10369643Y-15680929D01*
X10341071Y-15695214D01*
X10312500Y-15695214D01*
X10283928Y-15680929D01*
X10269643Y-15666643D01*
X10255357Y-15638071D01*
X10241071Y-15580929D01*
X10241071Y-15509500D01*
X10255357Y-15452357D01*
X10269643Y-15423786D01*
X10283928Y-15409500D01*
X10312500Y-15395214D01*
X10541071Y-15666643D02*
X10555357Y-15680929D01*
X10541071Y-15695214D01*
X10526786Y-15680929D01*
X10541071Y-15666643D01*
X10541071Y-15695214D01*
X10741071Y-15395214D02*
X10769643Y-15395214D01*
X10798214Y-15409500D01*
X10812500Y-15423786D01*
X10826786Y-15452357D01*
X10841071Y-15509500D01*
X10841071Y-15580929D01*
X10826786Y-15638071D01*
X10812500Y-15666643D01*
X10798214Y-15680929D01*
X10769643Y-15695214D01*
X10741071Y-15695214D01*
X10712500Y-15680929D01*
X10698214Y-15666643D01*
X10683928Y-15638071D01*
X10669643Y-15580929D01*
X10669643Y-15509500D01*
X10683928Y-15452357D01*
X10698214Y-15423786D01*
X10712500Y-15409500D01*
X10741071Y-15395214D01*
X10955357Y-15423786D02*
X10969643Y-15409500D01*
X10998214Y-15395214D01*
X11069643Y-15395214D01*
X11098214Y-15409500D01*
X11112500Y-15423786D01*
X11126786Y-15452357D01*
X11126786Y-15480929D01*
X11112500Y-15523786D01*
X10941071Y-15695214D01*
X11126786Y-15695214D01*
X11312500Y-15395214D02*
X11341071Y-15395214D01*
X11369643Y-15409500D01*
X11383928Y-15423786D01*
X11398214Y-15452357D01*
X11412500Y-15509500D01*
X11412500Y-15580929D01*
X11398214Y-15638071D01*
X11383928Y-15666643D01*
X11369643Y-15680929D01*
X11341071Y-15695214D01*
X11312500Y-15695214D01*
X11283928Y-15680929D01*
X11269643Y-15666643D01*
X11255357Y-15638071D01*
X11241071Y-15580929D01*
X11241071Y-15509500D01*
X11255357Y-15452357D01*
X11269643Y-15423786D01*
X11283928Y-15409500D01*
X11312500Y-15395214D01*
X11526786Y-15395214D02*
X11526786Y-15452357D01*
X11641071Y-15395214D02*
X11641071Y-15452357D01*
X12083928Y-15809500D02*
X12069643Y-15795214D01*
X12041071Y-15752357D01*
X12026785Y-15723786D01*
X12012500Y-15680929D01*
X11998214Y-15609500D01*
X11998214Y-15552357D01*
X12012500Y-15480929D01*
X12026785Y-15438071D01*
X12041071Y-15409500D01*
X12069643Y-15366643D01*
X12083928Y-15352357D01*
X12169643Y-15395214D02*
X12355357Y-15395214D01*
X12255357Y-15509500D01*
X12298214Y-15509500D01*
X12326785Y-15523786D01*
X12341071Y-15538071D01*
X12355357Y-15566643D01*
X12355357Y-15638071D01*
X12341071Y-15666643D01*
X12326785Y-15680929D01*
X12298214Y-15695214D01*
X12212500Y-15695214D01*
X12183928Y-15680929D01*
X12169643Y-15666643D01*
X12469643Y-15423786D02*
X12483928Y-15409500D01*
X12512500Y-15395214D01*
X12583928Y-15395214D01*
X12612500Y-15409500D01*
X12626785Y-15423786D01*
X12641071Y-15452357D01*
X12641071Y-15480929D01*
X12626785Y-15523786D01*
X12455357Y-15695214D01*
X12641071Y-15695214D01*
X12998214Y-15695214D02*
X12998214Y-15395214D01*
X13126785Y-15695214D02*
X13126785Y-15538071D01*
X13112500Y-15509500D01*
X13083928Y-15495214D01*
X13041071Y-15495214D01*
X13012500Y-15509500D01*
X12998214Y-15523786D01*
X13312500Y-15695214D02*
X13283928Y-15680929D01*
X13269643Y-15666643D01*
X13255357Y-15638071D01*
X13255357Y-15552357D01*
X13269643Y-15523786D01*
X13283928Y-15509500D01*
X13312500Y-15495214D01*
X13355357Y-15495214D01*
X13383928Y-15509500D01*
X13398214Y-15523786D01*
X13412500Y-15552357D01*
X13412500Y-15638071D01*
X13398214Y-15666643D01*
X13383928Y-15680929D01*
X13355357Y-15695214D01*
X13312500Y-15695214D01*
X13583928Y-15695214D02*
X13555357Y-15680929D01*
X13541071Y-15652357D01*
X13541071Y-15395214D01*
X13812500Y-15680929D02*
X13783928Y-15695214D01*
X13726786Y-15695214D01*
X13698214Y-15680929D01*
X13683928Y-15652357D01*
X13683928Y-15538071D01*
X13698214Y-15509500D01*
X13726786Y-15495214D01*
X13783928Y-15495214D01*
X13812500Y-15509500D01*
X13826786Y-15538071D01*
X13826786Y-15566643D01*
X13683928Y-15595214D01*
X13941071Y-15680929D02*
X13969643Y-15695214D01*
X14026786Y-15695214D01*
X14055357Y-15680929D01*
X14069643Y-15652357D01*
X14069643Y-15638071D01*
X14055357Y-15609500D01*
X14026786Y-15595214D01*
X13983928Y-15595214D01*
X13955357Y-15580929D01*
X13941071Y-15552357D01*
X13941071Y-15538071D01*
X13955357Y-15509500D01*
X13983928Y-15495214D01*
X14026786Y-15495214D01*
X14055357Y-15509500D01*
X14169643Y-15809500D02*
X14183928Y-15795214D01*
X14212500Y-15752357D01*
X14226786Y-15723786D01*
X14241071Y-15680929D01*
X14255357Y-15609500D01*
X14255357Y-15552357D01*
X14241071Y-15480929D01*
X14226786Y-15438071D01*
X14212500Y-15409500D01*
X14183928Y-15366643D01*
X14169643Y-15352357D01*
X7400784Y-15983785D02*
X7400784Y-15927216D01*
X7344215Y-15927216D01*
X7344215Y-15983785D01*
X7400784Y-15983785D01*
X7741071Y-15791214D02*
X7769643Y-15791214D01*
X7798214Y-15805500D01*
X7812500Y-15819786D01*
X7826786Y-15848357D01*
X7841071Y-15905500D01*
X7841071Y-15976929D01*
X7826786Y-16034071D01*
X7812500Y-16062643D01*
X7798214Y-16076929D01*
X7769643Y-16091214D01*
X7741071Y-16091214D01*
X7712500Y-16076929D01*
X7698214Y-16062643D01*
X7683928Y-16034071D01*
X7669643Y-15976929D01*
X7669643Y-15905500D01*
X7683928Y-15848357D01*
X7698214Y-15819786D01*
X7712500Y-15805500D01*
X7741071Y-15791214D01*
X7969643Y-16062643D02*
X7983928Y-16076929D01*
X7969643Y-16091214D01*
X7955357Y-16076929D01*
X7969643Y-16062643D01*
X7969643Y-16091214D01*
X8155357Y-15919786D02*
X8126786Y-15905500D01*
X8112500Y-15891214D01*
X8098214Y-15862643D01*
X8098214Y-15848357D01*
X8112500Y-15819786D01*
X8126786Y-15805500D01*
X8155357Y-15791214D01*
X8212500Y-15791214D01*
X8241071Y-15805500D01*
X8255357Y-15819786D01*
X8269643Y-15848357D01*
X8269643Y-15862643D01*
X8255357Y-15891214D01*
X8241071Y-15905500D01*
X8212500Y-15919786D01*
X8155357Y-15919786D01*
X8126786Y-15934071D01*
X8112500Y-15948357D01*
X8098214Y-15976929D01*
X8098214Y-16034071D01*
X8112500Y-16062643D01*
X8126786Y-16076929D01*
X8155357Y-16091214D01*
X8212500Y-16091214D01*
X8241071Y-16076929D01*
X8255357Y-16062643D01*
X8269643Y-16034071D01*
X8269643Y-15976929D01*
X8255357Y-15948357D01*
X8241071Y-15934071D01*
X8212500Y-15919786D01*
X8455357Y-15791214D02*
X8483929Y-15791214D01*
X8512500Y-15805500D01*
X8526786Y-15819786D01*
X8541071Y-15848357D01*
X8555357Y-15905500D01*
X8555357Y-15976929D01*
X8541071Y-16034071D01*
X8526786Y-16062643D01*
X8512500Y-16076929D01*
X8483929Y-16091214D01*
X8455357Y-16091214D01*
X8426786Y-16076929D01*
X8412500Y-16062643D01*
X8398214Y-16034071D01*
X8383928Y-15976929D01*
X8383928Y-15905500D01*
X8398214Y-15848357D01*
X8412500Y-15819786D01*
X8426786Y-15805500D01*
X8455357Y-15791214D01*
X8683929Y-16091214D02*
X8683929Y-15891214D01*
X8683929Y-15919786D02*
X8698214Y-15905500D01*
X8726786Y-15891214D01*
X8769643Y-15891214D01*
X8798214Y-15905500D01*
X8812500Y-15934071D01*
X8812500Y-16091214D01*
X8812500Y-15934071D02*
X8826786Y-15905500D01*
X8855357Y-15891214D01*
X8898214Y-15891214D01*
X8926786Y-15905500D01*
X8941071Y-15934071D01*
X8941071Y-16091214D01*
X9083929Y-16091214D02*
X9083929Y-15891214D01*
X9083929Y-15919786D02*
X9098214Y-15905500D01*
X9126786Y-15891214D01*
X9169643Y-15891214D01*
X9198214Y-15905500D01*
X9212500Y-15934071D01*
X9212500Y-16091214D01*
X9212500Y-15934071D02*
X9226786Y-15905500D01*
X9255357Y-15891214D01*
X9298214Y-15891214D01*
X9326786Y-15905500D01*
X9341071Y-15934071D01*
X9341071Y-16091214D01*
X9926786Y-15776929D02*
X9669643Y-16162643D01*
X10312500Y-15791214D02*
X10341071Y-15791214D01*
X10369643Y-15805500D01*
X10383928Y-15819786D01*
X10398214Y-15848357D01*
X10412500Y-15905500D01*
X10412500Y-15976929D01*
X10398214Y-16034071D01*
X10383928Y-16062643D01*
X10369643Y-16076929D01*
X10341071Y-16091214D01*
X10312500Y-16091214D01*
X10283928Y-16076929D01*
X10269643Y-16062643D01*
X10255357Y-16034071D01*
X10241071Y-15976929D01*
X10241071Y-15905500D01*
X10255357Y-15848357D01*
X10269643Y-15819786D01*
X10283928Y-15805500D01*
X10312500Y-15791214D01*
X10541071Y-16062643D02*
X10555357Y-16076929D01*
X10541071Y-16091214D01*
X10526786Y-16076929D01*
X10541071Y-16062643D01*
X10541071Y-16091214D01*
X10741071Y-15791214D02*
X10769643Y-15791214D01*
X10798214Y-15805500D01*
X10812500Y-15819786D01*
X10826786Y-15848357D01*
X10841071Y-15905500D01*
X10841071Y-15976929D01*
X10826786Y-16034071D01*
X10812500Y-16062643D01*
X10798214Y-16076929D01*
X10769643Y-16091214D01*
X10741071Y-16091214D01*
X10712500Y-16076929D01*
X10698214Y-16062643D01*
X10683928Y-16034071D01*
X10669643Y-15976929D01*
X10669643Y-15905500D01*
X10683928Y-15848357D01*
X10698214Y-15819786D01*
X10712500Y-15805500D01*
X10741071Y-15791214D01*
X10941071Y-15791214D02*
X11126786Y-15791214D01*
X11026786Y-15905500D01*
X11069643Y-15905500D01*
X11098214Y-15919786D01*
X11112500Y-15934071D01*
X11126786Y-15962643D01*
X11126786Y-16034071D01*
X11112500Y-16062643D01*
X11098214Y-16076929D01*
X11069643Y-16091214D01*
X10983928Y-16091214D01*
X10955357Y-16076929D01*
X10941071Y-16062643D01*
X11412500Y-16091214D02*
X11241071Y-16091214D01*
X11326785Y-16091214D02*
X11326785Y-15791214D01*
X11298214Y-15834071D01*
X11269643Y-15862643D01*
X11241071Y-15876929D01*
X11526786Y-15791214D02*
X11526786Y-15848357D01*
X11641071Y-15791214D02*
X11641071Y-15848357D01*
X12083928Y-16205500D02*
X12069643Y-16191214D01*
X12041071Y-16148357D01*
X12026785Y-16119786D01*
X12012500Y-16076929D01*
X11998214Y-16005500D01*
X11998214Y-15948357D01*
X12012500Y-15876929D01*
X12026785Y-15834071D01*
X12041071Y-15805500D01*
X12069643Y-15762643D01*
X12083928Y-15748357D01*
X12355357Y-16091214D02*
X12183928Y-16091214D01*
X12269643Y-16091214D02*
X12269643Y-15791214D01*
X12241071Y-15834071D01*
X12212500Y-15862643D01*
X12183928Y-15876929D01*
X12469643Y-15819786D02*
X12483928Y-15805500D01*
X12512500Y-15791214D01*
X12583928Y-15791214D01*
X12612500Y-15805500D01*
X12626785Y-15819786D01*
X12641071Y-15848357D01*
X12641071Y-15876929D01*
X12626785Y-15919786D01*
X12455357Y-16091214D01*
X12641071Y-16091214D01*
X12998214Y-16091214D02*
X12998214Y-15791214D01*
X13126785Y-16091214D02*
X13126785Y-15934071D01*
X13112500Y-15905500D01*
X13083928Y-15891214D01*
X13041071Y-15891214D01*
X13012500Y-15905500D01*
X12998214Y-15919786D01*
X13312500Y-16091214D02*
X13283928Y-16076929D01*
X13269643Y-16062643D01*
X13255357Y-16034071D01*
X13255357Y-15948357D01*
X13269643Y-15919786D01*
X13283928Y-15905500D01*
X13312500Y-15891214D01*
X13355357Y-15891214D01*
X13383928Y-15905500D01*
X13398214Y-15919786D01*
X13412500Y-15948357D01*
X13412500Y-16034071D01*
X13398214Y-16062643D01*
X13383928Y-16076929D01*
X13355357Y-16091214D01*
X13312500Y-16091214D01*
X13583928Y-16091214D02*
X13555357Y-16076929D01*
X13541071Y-16048357D01*
X13541071Y-15791214D01*
X13812500Y-16076929D02*
X13783928Y-16091214D01*
X13726786Y-16091214D01*
X13698214Y-16076929D01*
X13683928Y-16048357D01*
X13683928Y-15934071D01*
X13698214Y-15905500D01*
X13726786Y-15891214D01*
X13783928Y-15891214D01*
X13812500Y-15905500D01*
X13826786Y-15934071D01*
X13826786Y-15962643D01*
X13683928Y-15991214D01*
X13941071Y-16076929D02*
X13969643Y-16091214D01*
X14026786Y-16091214D01*
X14055357Y-16076929D01*
X14069643Y-16048357D01*
X14069643Y-16034071D01*
X14055357Y-16005500D01*
X14026786Y-15991214D01*
X13983928Y-15991214D01*
X13955357Y-15976929D01*
X13941071Y-15948357D01*
X13941071Y-15934071D01*
X13955357Y-15905500D01*
X13983928Y-15891214D01*
X14026786Y-15891214D01*
X14055357Y-15905500D01*
X14169643Y-16205500D02*
X14183928Y-16191214D01*
X14212500Y-16148357D01*
X14226786Y-16119786D01*
X14241071Y-16076929D01*
X14255357Y-16005500D01*
X14255357Y-15948357D01*
X14241071Y-15876929D01*
X14226786Y-15834071D01*
X14212500Y-15805500D01*
X14183928Y-15762643D01*
X14169643Y-15748357D01*
X7362500Y-16401500D02*
X7412500Y-16351500D01*
X7362500Y-16301500D01*
X7312500Y-16351500D01*
X7362500Y-16401500D01*
X7841071Y-16487214D02*
X7669643Y-16487214D01*
X7755357Y-16487214D02*
X7755357Y-16187214D01*
X7726786Y-16230071D01*
X7698214Y-16258643D01*
X7669643Y-16272929D01*
X7969643Y-16458643D02*
X7983928Y-16472929D01*
X7969643Y-16487214D01*
X7955357Y-16472929D01*
X7969643Y-16458643D01*
X7969643Y-16487214D01*
X8169643Y-16187214D02*
X8198214Y-16187214D01*
X8226786Y-16201500D01*
X8241071Y-16215786D01*
X8255357Y-16244357D01*
X8269643Y-16301500D01*
X8269643Y-16372929D01*
X8255357Y-16430071D01*
X8241071Y-16458643D01*
X8226786Y-16472929D01*
X8198214Y-16487214D01*
X8169643Y-16487214D01*
X8141071Y-16472929D01*
X8126786Y-16458643D01*
X8112500Y-16430071D01*
X8098214Y-16372929D01*
X8098214Y-16301500D01*
X8112500Y-16244357D01*
X8126786Y-16215786D01*
X8141071Y-16201500D01*
X8169643Y-16187214D01*
X8455357Y-16187214D02*
X8483929Y-16187214D01*
X8512500Y-16201500D01*
X8526786Y-16215786D01*
X8541071Y-16244357D01*
X8555357Y-16301500D01*
X8555357Y-16372929D01*
X8541071Y-16430071D01*
X8526786Y-16458643D01*
X8512500Y-16472929D01*
X8483929Y-16487214D01*
X8455357Y-16487214D01*
X8426786Y-16472929D01*
X8412500Y-16458643D01*
X8398214Y-16430071D01*
X8383928Y-16372929D01*
X8383928Y-16301500D01*
X8398214Y-16244357D01*
X8412500Y-16215786D01*
X8426786Y-16201500D01*
X8455357Y-16187214D01*
X8683929Y-16487214D02*
X8683929Y-16287214D01*
X8683929Y-16315786D02*
X8698214Y-16301500D01*
X8726786Y-16287214D01*
X8769643Y-16287214D01*
X8798214Y-16301500D01*
X8812500Y-16330071D01*
X8812500Y-16487214D01*
X8812500Y-16330071D02*
X8826786Y-16301500D01*
X8855357Y-16287214D01*
X8898214Y-16287214D01*
X8926786Y-16301500D01*
X8941071Y-16330071D01*
X8941071Y-16487214D01*
X9083929Y-16487214D02*
X9083929Y-16287214D01*
X9083929Y-16315786D02*
X9098214Y-16301500D01*
X9126786Y-16287214D01*
X9169643Y-16287214D01*
X9198214Y-16301500D01*
X9212500Y-16330071D01*
X9212500Y-16487214D01*
X9212500Y-16330071D02*
X9226786Y-16301500D01*
X9255357Y-16287214D01*
X9298214Y-16287214D01*
X9326786Y-16301500D01*
X9341071Y-16330071D01*
X9341071Y-16487214D01*
X9926786Y-16172929D02*
X9669643Y-16558643D01*
X10312500Y-16187214D02*
X10341071Y-16187214D01*
X10369643Y-16201500D01*
X10383928Y-16215786D01*
X10398214Y-16244357D01*
X10412500Y-16301500D01*
X10412500Y-16372929D01*
X10398214Y-16430071D01*
X10383928Y-16458643D01*
X10369643Y-16472929D01*
X10341071Y-16487214D01*
X10312500Y-16487214D01*
X10283928Y-16472929D01*
X10269643Y-16458643D01*
X10255357Y-16430071D01*
X10241071Y-16372929D01*
X10241071Y-16301500D01*
X10255357Y-16244357D01*
X10269643Y-16215786D01*
X10283928Y-16201500D01*
X10312500Y-16187214D01*
X10541071Y-16458643D02*
X10555357Y-16472929D01*
X10541071Y-16487214D01*
X10526786Y-16472929D01*
X10541071Y-16458643D01*
X10541071Y-16487214D01*
X10741071Y-16187214D02*
X10769643Y-16187214D01*
X10798214Y-16201500D01*
X10812500Y-16215786D01*
X10826786Y-16244357D01*
X10841071Y-16301500D01*
X10841071Y-16372929D01*
X10826786Y-16430071D01*
X10812500Y-16458643D01*
X10798214Y-16472929D01*
X10769643Y-16487214D01*
X10741071Y-16487214D01*
X10712500Y-16472929D01*
X10698214Y-16458643D01*
X10683928Y-16430071D01*
X10669643Y-16372929D01*
X10669643Y-16301500D01*
X10683928Y-16244357D01*
X10698214Y-16215786D01*
X10712500Y-16201500D01*
X10741071Y-16187214D01*
X10941071Y-16187214D02*
X11126786Y-16187214D01*
X11026786Y-16301500D01*
X11069643Y-16301500D01*
X11098214Y-16315786D01*
X11112500Y-16330071D01*
X11126786Y-16358643D01*
X11126786Y-16430071D01*
X11112500Y-16458643D01*
X11098214Y-16472929D01*
X11069643Y-16487214D01*
X10983928Y-16487214D01*
X10955357Y-16472929D01*
X10941071Y-16458643D01*
X11269643Y-16487214D02*
X11326785Y-16487214D01*
X11355357Y-16472929D01*
X11369643Y-16458643D01*
X11398214Y-16415786D01*
X11412500Y-16358643D01*
X11412500Y-16244357D01*
X11398214Y-16215786D01*
X11383928Y-16201500D01*
X11355357Y-16187214D01*
X11298214Y-16187214D01*
X11269643Y-16201500D01*
X11255357Y-16215786D01*
X11241071Y-16244357D01*
X11241071Y-16315786D01*
X11255357Y-16344357D01*
X11269643Y-16358643D01*
X11298214Y-16372929D01*
X11355357Y-16372929D01*
X11383928Y-16358643D01*
X11398214Y-16344357D01*
X11412500Y-16315786D01*
X11526786Y-16187214D02*
X11526786Y-16244357D01*
X11641071Y-16187214D02*
X11641071Y-16244357D01*
X12083928Y-16601500D02*
X12069643Y-16587214D01*
X12041071Y-16544357D01*
X12026785Y-16515786D01*
X12012500Y-16472929D01*
X11998214Y-16401500D01*
X11998214Y-16344357D01*
X12012500Y-16272929D01*
X12026785Y-16230071D01*
X12041071Y-16201500D01*
X12069643Y-16158643D01*
X12083928Y-16144357D01*
X12169643Y-16187214D02*
X12369643Y-16187214D01*
X12241071Y-16487214D01*
X12526785Y-16315786D02*
X12498214Y-16301500D01*
X12483928Y-16287214D01*
X12469643Y-16258643D01*
X12469643Y-16244357D01*
X12483928Y-16215786D01*
X12498214Y-16201500D01*
X12526785Y-16187214D01*
X12583928Y-16187214D01*
X12612500Y-16201500D01*
X12626785Y-16215786D01*
X12641071Y-16244357D01*
X12641071Y-16258643D01*
X12626785Y-16287214D01*
X12612500Y-16301500D01*
X12583928Y-16315786D01*
X12526785Y-16315786D01*
X12498214Y-16330071D01*
X12483928Y-16344357D01*
X12469643Y-16372929D01*
X12469643Y-16430071D01*
X12483928Y-16458643D01*
X12498214Y-16472929D01*
X12526785Y-16487214D01*
X12583928Y-16487214D01*
X12612500Y-16472929D01*
X12626785Y-16458643D01*
X12641071Y-16430071D01*
X12641071Y-16372929D01*
X12626785Y-16344357D01*
X12612500Y-16330071D01*
X12583928Y-16315786D01*
X12998214Y-16487214D02*
X12998214Y-16187214D01*
X13126785Y-16487214D02*
X13126785Y-16330071D01*
X13112500Y-16301500D01*
X13083928Y-16287214D01*
X13041071Y-16287214D01*
X13012500Y-16301500D01*
X12998214Y-16315786D01*
X13312500Y-16487214D02*
X13283928Y-16472929D01*
X13269643Y-16458643D01*
X13255357Y-16430071D01*
X13255357Y-16344357D01*
X13269643Y-16315786D01*
X13283928Y-16301500D01*
X13312500Y-16287214D01*
X13355357Y-16287214D01*
X13383928Y-16301500D01*
X13398214Y-16315786D01*
X13412500Y-16344357D01*
X13412500Y-16430071D01*
X13398214Y-16458643D01*
X13383928Y-16472929D01*
X13355357Y-16487214D01*
X13312500Y-16487214D01*
X13583928Y-16487214D02*
X13555357Y-16472929D01*
X13541071Y-16444357D01*
X13541071Y-16187214D01*
X13812500Y-16472929D02*
X13783928Y-16487214D01*
X13726786Y-16487214D01*
X13698214Y-16472929D01*
X13683928Y-16444357D01*
X13683928Y-16330071D01*
X13698214Y-16301500D01*
X13726786Y-16287214D01*
X13783928Y-16287214D01*
X13812500Y-16301500D01*
X13826786Y-16330071D01*
X13826786Y-16358643D01*
X13683928Y-16387214D01*
X13941071Y-16472929D02*
X13969643Y-16487214D01*
X14026786Y-16487214D01*
X14055357Y-16472929D01*
X14069643Y-16444357D01*
X14069643Y-16430071D01*
X14055357Y-16401500D01*
X14026786Y-16387214D01*
X13983928Y-16387214D01*
X13955357Y-16372929D01*
X13941071Y-16344357D01*
X13941071Y-16330071D01*
X13955357Y-16301500D01*
X13983928Y-16287214D01*
X14026786Y-16287214D01*
X14055357Y-16301500D01*
X14169643Y-16601500D02*
X14183928Y-16587214D01*
X14212500Y-16544357D01*
X14226786Y-16515786D01*
X14241071Y-16472929D01*
X14255357Y-16401500D01*
X14255357Y-16344357D01*
X14241071Y-16272929D01*
X14226786Y-16230071D01*
X14212500Y-16201500D01*
X14183928Y-16158643D01*
X14169643Y-16144357D01*
X7310900Y-16696700D02*
X7412500Y-16798300D01*
X7412500Y-16696700D02*
X7310900Y-16798300D01*
X7412500Y-16747500D02*
G75*
G03X7412500Y-16747500I-50800J0D01*
G01*
X7841071Y-16883214D02*
X7669643Y-16883214D01*
X7755357Y-16883214D02*
X7755357Y-16583214D01*
X7726786Y-16626071D01*
X7698214Y-16654643D01*
X7669643Y-16668929D01*
X7969643Y-16854643D02*
X7983928Y-16868929D01*
X7969643Y-16883214D01*
X7955357Y-16868929D01*
X7969643Y-16854643D01*
X7969643Y-16883214D01*
X8169643Y-16583214D02*
X8198214Y-16583214D01*
X8226786Y-16597500D01*
X8241071Y-16611786D01*
X8255357Y-16640357D01*
X8269643Y-16697500D01*
X8269643Y-16768929D01*
X8255357Y-16826072D01*
X8241071Y-16854643D01*
X8226786Y-16868929D01*
X8198214Y-16883214D01*
X8169643Y-16883214D01*
X8141071Y-16868929D01*
X8126786Y-16854643D01*
X8112500Y-16826072D01*
X8098214Y-16768929D01*
X8098214Y-16697500D01*
X8112500Y-16640357D01*
X8126786Y-16611786D01*
X8141071Y-16597500D01*
X8169643Y-16583214D01*
X8383928Y-16611786D02*
X8398214Y-16597500D01*
X8426786Y-16583214D01*
X8498214Y-16583214D01*
X8526786Y-16597500D01*
X8541071Y-16611786D01*
X8555357Y-16640357D01*
X8555357Y-16668929D01*
X8541071Y-16711786D01*
X8369643Y-16883214D01*
X8555357Y-16883214D01*
X8683929Y-16883214D02*
X8683929Y-16683214D01*
X8683929Y-16711786D02*
X8698214Y-16697500D01*
X8726786Y-16683214D01*
X8769643Y-16683214D01*
X8798214Y-16697500D01*
X8812500Y-16726071D01*
X8812500Y-16883214D01*
X8812500Y-16726071D02*
X8826786Y-16697500D01*
X8855357Y-16683214D01*
X8898214Y-16683214D01*
X8926786Y-16697500D01*
X8941071Y-16726071D01*
X8941071Y-16883214D01*
X9083929Y-16883214D02*
X9083929Y-16683214D01*
X9083929Y-16711786D02*
X9098214Y-16697500D01*
X9126786Y-16683214D01*
X9169643Y-16683214D01*
X9198214Y-16697500D01*
X9212500Y-16726071D01*
X9212500Y-16883214D01*
X9212500Y-16726071D02*
X9226786Y-16697500D01*
X9255357Y-16683214D01*
X9298214Y-16683214D01*
X9326786Y-16697500D01*
X9341071Y-16726071D01*
X9341071Y-16883214D01*
X9926786Y-16568929D02*
X9669643Y-16954643D01*
X10312500Y-16583214D02*
X10341071Y-16583214D01*
X10369643Y-16597500D01*
X10383928Y-16611786D01*
X10398214Y-16640357D01*
X10412500Y-16697500D01*
X10412500Y-16768929D01*
X10398214Y-16826072D01*
X10383928Y-16854643D01*
X10369643Y-16868929D01*
X10341071Y-16883214D01*
X10312500Y-16883214D01*
X10283928Y-16868929D01*
X10269643Y-16854643D01*
X10255357Y-16826072D01*
X10241071Y-16768929D01*
X10241071Y-16697500D01*
X10255357Y-16640357D01*
X10269643Y-16611786D01*
X10283928Y-16597500D01*
X10312500Y-16583214D01*
X10541071Y-16854643D02*
X10555357Y-16868929D01*
X10541071Y-16883214D01*
X10526786Y-16868929D01*
X10541071Y-16854643D01*
X10541071Y-16883214D01*
X10741071Y-16583214D02*
X10769643Y-16583214D01*
X10798214Y-16597500D01*
X10812500Y-16611786D01*
X10826786Y-16640357D01*
X10841071Y-16697500D01*
X10841071Y-16768929D01*
X10826786Y-16826072D01*
X10812500Y-16854643D01*
X10798214Y-16868929D01*
X10769643Y-16883214D01*
X10741071Y-16883214D01*
X10712500Y-16868929D01*
X10698214Y-16854643D01*
X10683928Y-16826072D01*
X10669643Y-16768929D01*
X10669643Y-16697500D01*
X10683928Y-16640357D01*
X10698214Y-16611786D01*
X10712500Y-16597500D01*
X10741071Y-16583214D01*
X11098214Y-16683214D02*
X11098214Y-16883214D01*
X11026786Y-16568929D02*
X10955357Y-16783214D01*
X11141071Y-16783214D01*
X11312500Y-16583214D02*
X11341071Y-16583214D01*
X11369643Y-16597500D01*
X11383928Y-16611786D01*
X11398214Y-16640357D01*
X11412500Y-16697500D01*
X11412500Y-16768929D01*
X11398214Y-16826072D01*
X11383928Y-16854643D01*
X11369643Y-16868929D01*
X11341071Y-16883214D01*
X11312500Y-16883214D01*
X11283928Y-16868929D01*
X11269643Y-16854643D01*
X11255357Y-16826072D01*
X11241071Y-16768929D01*
X11241071Y-16697500D01*
X11255357Y-16640357D01*
X11269643Y-16611786D01*
X11283928Y-16597500D01*
X11312500Y-16583214D01*
X11526786Y-16583214D02*
X11526786Y-16640357D01*
X11641071Y-16583214D02*
X11641071Y-16640357D01*
X12083928Y-16997500D02*
X12069643Y-16983214D01*
X12041071Y-16940357D01*
X12026785Y-16911786D01*
X12012500Y-16868929D01*
X11998214Y-16797500D01*
X11998214Y-16740357D01*
X12012500Y-16668929D01*
X12026785Y-16626071D01*
X12041071Y-16597500D01*
X12069643Y-16554643D01*
X12083928Y-16540357D01*
X12183928Y-16611786D02*
X12198214Y-16597500D01*
X12226785Y-16583214D01*
X12298214Y-16583214D01*
X12326785Y-16597500D01*
X12341071Y-16611786D01*
X12355357Y-16640357D01*
X12355357Y-16668929D01*
X12341071Y-16711786D01*
X12169643Y-16883214D01*
X12355357Y-16883214D01*
X12469643Y-16611786D02*
X12483928Y-16597500D01*
X12512500Y-16583214D01*
X12583928Y-16583214D01*
X12612500Y-16597500D01*
X12626785Y-16611786D01*
X12641071Y-16640357D01*
X12641071Y-16668929D01*
X12626785Y-16711786D01*
X12455357Y-16883214D01*
X12641071Y-16883214D01*
X12998214Y-16883214D02*
X12998214Y-16583214D01*
X13126785Y-16883214D02*
X13126785Y-16726071D01*
X13112500Y-16697500D01*
X13083928Y-16683214D01*
X13041071Y-16683214D01*
X13012500Y-16697500D01*
X12998214Y-16711786D01*
X13312500Y-16883214D02*
X13283928Y-16868929D01*
X13269643Y-16854643D01*
X13255357Y-16826072D01*
X13255357Y-16740357D01*
X13269643Y-16711786D01*
X13283928Y-16697500D01*
X13312500Y-16683214D01*
X13355357Y-16683214D01*
X13383928Y-16697500D01*
X13398214Y-16711786D01*
X13412500Y-16740357D01*
X13412500Y-16826072D01*
X13398214Y-16854643D01*
X13383928Y-16868929D01*
X13355357Y-16883214D01*
X13312500Y-16883214D01*
X13583928Y-16883214D02*
X13555357Y-16868929D01*
X13541071Y-16840357D01*
X13541071Y-16583214D01*
X13812500Y-16868929D02*
X13783928Y-16883214D01*
X13726786Y-16883214D01*
X13698214Y-16868929D01*
X13683928Y-16840357D01*
X13683928Y-16726071D01*
X13698214Y-16697500D01*
X13726786Y-16683214D01*
X13783928Y-16683214D01*
X13812500Y-16697500D01*
X13826786Y-16726071D01*
X13826786Y-16754643D01*
X13683928Y-16783214D01*
X13941071Y-16868929D02*
X13969643Y-16883214D01*
X14026786Y-16883214D01*
X14055357Y-16868929D01*
X14069643Y-16840357D01*
X14069643Y-16826072D01*
X14055357Y-16797500D01*
X14026786Y-16783214D01*
X13983928Y-16783214D01*
X13955357Y-16768929D01*
X13941071Y-16740357D01*
X13941071Y-16726071D01*
X13955357Y-16697500D01*
X13983928Y-16683214D01*
X14026786Y-16683214D01*
X14055357Y-16697500D01*
X14169643Y-16997500D02*
X14183928Y-16983214D01*
X14212500Y-16940357D01*
X14226786Y-16911786D01*
X14241071Y-16868929D01*
X14255357Y-16797500D01*
X14255357Y-16740357D01*
X14241071Y-16668929D01*
X14226786Y-16626071D01*
X14212500Y-16597500D01*
X14183928Y-16554643D01*
X14169643Y-16540357D01*
X7232414Y-17053457D02*
X7412500Y-17233543D01*
X7412500Y-17053457D02*
X7232414Y-17233543D01*
X7322457Y-17053457D02*
X7322457Y-17233543D01*
X7232414Y-17143500D02*
X7412500Y-17143500D01*
X7841071Y-17279214D02*
X7669643Y-17279214D01*
X7755357Y-17279214D02*
X7755357Y-16979214D01*
X7726786Y-17022072D01*
X7698214Y-17050643D01*
X7669643Y-17064929D01*
X7969643Y-17250643D02*
X7983928Y-17264929D01*
X7969643Y-17279214D01*
X7955357Y-17264929D01*
X7969643Y-17250643D01*
X7969643Y-17279214D01*
X8155357Y-17107786D02*
X8126786Y-17093500D01*
X8112500Y-17079214D01*
X8098214Y-17050643D01*
X8098214Y-17036357D01*
X8112500Y-17007786D01*
X8126786Y-16993500D01*
X8155357Y-16979214D01*
X8212500Y-16979214D01*
X8241071Y-16993500D01*
X8255357Y-17007786D01*
X8269643Y-17036357D01*
X8269643Y-17050643D01*
X8255357Y-17079214D01*
X8241071Y-17093500D01*
X8212500Y-17107786D01*
X8155357Y-17107786D01*
X8126786Y-17122072D01*
X8112500Y-17136357D01*
X8098214Y-17164929D01*
X8098214Y-17222072D01*
X8112500Y-17250643D01*
X8126786Y-17264929D01*
X8155357Y-17279214D01*
X8212500Y-17279214D01*
X8241071Y-17264929D01*
X8255357Y-17250643D01*
X8269643Y-17222072D01*
X8269643Y-17164929D01*
X8255357Y-17136357D01*
X8241071Y-17122072D01*
X8212500Y-17107786D01*
X8455357Y-16979214D02*
X8483929Y-16979214D01*
X8512500Y-16993500D01*
X8526786Y-17007786D01*
X8541071Y-17036357D01*
X8555357Y-17093500D01*
X8555357Y-17164929D01*
X8541071Y-17222072D01*
X8526786Y-17250643D01*
X8512500Y-17264929D01*
X8483929Y-17279214D01*
X8455357Y-17279214D01*
X8426786Y-17264929D01*
X8412500Y-17250643D01*
X8398214Y-17222072D01*
X8383928Y-17164929D01*
X8383928Y-17093500D01*
X8398214Y-17036357D01*
X8412500Y-17007786D01*
X8426786Y-16993500D01*
X8455357Y-16979214D01*
X8683929Y-17279214D02*
X8683929Y-17079214D01*
X8683929Y-17107786D02*
X8698214Y-17093500D01*
X8726786Y-17079214D01*
X8769643Y-17079214D01*
X8798214Y-17093500D01*
X8812500Y-17122072D01*
X8812500Y-17279214D01*
X8812500Y-17122072D02*
X8826786Y-17093500D01*
X8855357Y-17079214D01*
X8898214Y-17079214D01*
X8926786Y-17093500D01*
X8941071Y-17122072D01*
X8941071Y-17279214D01*
X9083929Y-17279214D02*
X9083929Y-17079214D01*
X9083929Y-17107786D02*
X9098214Y-17093500D01*
X9126786Y-17079214D01*
X9169643Y-17079214D01*
X9198214Y-17093500D01*
X9212500Y-17122072D01*
X9212500Y-17279214D01*
X9212500Y-17122072D02*
X9226786Y-17093500D01*
X9255357Y-17079214D01*
X9298214Y-17079214D01*
X9326786Y-17093500D01*
X9341071Y-17122072D01*
X9341071Y-17279214D01*
X9926786Y-16964929D02*
X9669643Y-17350643D01*
X10312500Y-16979214D02*
X10341071Y-16979214D01*
X10369643Y-16993500D01*
X10383928Y-17007786D01*
X10398214Y-17036357D01*
X10412500Y-17093500D01*
X10412500Y-17164929D01*
X10398214Y-17222072D01*
X10383928Y-17250643D01*
X10369643Y-17264929D01*
X10341071Y-17279214D01*
X10312500Y-17279214D01*
X10283928Y-17264929D01*
X10269643Y-17250643D01*
X10255357Y-17222072D01*
X10241071Y-17164929D01*
X10241071Y-17093500D01*
X10255357Y-17036357D01*
X10269643Y-17007786D01*
X10283928Y-16993500D01*
X10312500Y-16979214D01*
X10541071Y-17250643D02*
X10555357Y-17264929D01*
X10541071Y-17279214D01*
X10526786Y-17264929D01*
X10541071Y-17250643D01*
X10541071Y-17279214D01*
X10741071Y-16979214D02*
X10769643Y-16979214D01*
X10798214Y-16993500D01*
X10812500Y-17007786D01*
X10826786Y-17036357D01*
X10841071Y-17093500D01*
X10841071Y-17164929D01*
X10826786Y-17222072D01*
X10812500Y-17250643D01*
X10798214Y-17264929D01*
X10769643Y-17279214D01*
X10741071Y-17279214D01*
X10712500Y-17264929D01*
X10698214Y-17250643D01*
X10683928Y-17222072D01*
X10669643Y-17164929D01*
X10669643Y-17093500D01*
X10683928Y-17036357D01*
X10698214Y-17007786D01*
X10712500Y-16993500D01*
X10741071Y-16979214D01*
X10941071Y-16979214D02*
X11141071Y-16979214D01*
X11012500Y-17279214D01*
X11412500Y-17279214D02*
X11241071Y-17279214D01*
X11326785Y-17279214D02*
X11326785Y-16979214D01*
X11298214Y-17022072D01*
X11269643Y-17050643D01*
X11241071Y-17064929D01*
X11526786Y-16979214D02*
X11526786Y-17036357D01*
X11641071Y-16979214D02*
X11641071Y-17036357D01*
X12083928Y-17393500D02*
X12069643Y-17379214D01*
X12041071Y-17336357D01*
X12026785Y-17307786D01*
X12012500Y-17264929D01*
X11998214Y-17193500D01*
X11998214Y-17136357D01*
X12012500Y-17064929D01*
X12026785Y-17022072D01*
X12041071Y-16993500D01*
X12069643Y-16950643D01*
X12083928Y-16936357D01*
X12355357Y-17279214D02*
X12183928Y-17279214D01*
X12269643Y-17279214D02*
X12269643Y-16979214D01*
X12241071Y-17022072D01*
X12212500Y-17050643D01*
X12183928Y-17064929D01*
X12469643Y-17007786D02*
X12483928Y-16993500D01*
X12512500Y-16979214D01*
X12583928Y-16979214D01*
X12612500Y-16993500D01*
X12626785Y-17007786D01*
X12641071Y-17036357D01*
X12641071Y-17064929D01*
X12626785Y-17107786D01*
X12455357Y-17279214D01*
X12641071Y-17279214D01*
X12998214Y-17279214D02*
X12998214Y-16979214D01*
X13126785Y-17279214D02*
X13126785Y-17122072D01*
X13112500Y-17093500D01*
X13083928Y-17079214D01*
X13041071Y-17079214D01*
X13012500Y-17093500D01*
X12998214Y-17107786D01*
X13312500Y-17279214D02*
X13283928Y-17264929D01*
X13269643Y-17250643D01*
X13255357Y-17222072D01*
X13255357Y-17136357D01*
X13269643Y-17107786D01*
X13283928Y-17093500D01*
X13312500Y-17079214D01*
X13355357Y-17079214D01*
X13383928Y-17093500D01*
X13398214Y-17107786D01*
X13412500Y-17136357D01*
X13412500Y-17222072D01*
X13398214Y-17250643D01*
X13383928Y-17264929D01*
X13355357Y-17279214D01*
X13312500Y-17279214D01*
X13583928Y-17279214D02*
X13555357Y-17264929D01*
X13541071Y-17236357D01*
X13541071Y-16979214D01*
X13812500Y-17264929D02*
X13783928Y-17279214D01*
X13726786Y-17279214D01*
X13698214Y-17264929D01*
X13683928Y-17236357D01*
X13683928Y-17122072D01*
X13698214Y-17093500D01*
X13726786Y-17079214D01*
X13783928Y-17079214D01*
X13812500Y-17093500D01*
X13826786Y-17122072D01*
X13826786Y-17150643D01*
X13683928Y-17179214D01*
X13941071Y-17264929D02*
X13969643Y-17279214D01*
X14026786Y-17279214D01*
X14055357Y-17264929D01*
X14069643Y-17236357D01*
X14069643Y-17222072D01*
X14055357Y-17193500D01*
X14026786Y-17179214D01*
X13983928Y-17179214D01*
X13955357Y-17164929D01*
X13941071Y-17136357D01*
X13941071Y-17122072D01*
X13955357Y-17093500D01*
X13983928Y-17079214D01*
X14026786Y-17079214D01*
X14055357Y-17093500D01*
X14169643Y-17393500D02*
X14183928Y-17379214D01*
X14212500Y-17336357D01*
X14226786Y-17307786D01*
X14241071Y-17264929D01*
X14255357Y-17193500D01*
X14255357Y-17136357D01*
X14241071Y-17064929D01*
X14226786Y-17022072D01*
X14212500Y-16993500D01*
X14183928Y-16950643D01*
X14169643Y-16936357D01*
X7092500Y-17379500D02*
X7412500Y-17699500D01*
X7412500Y-17379500D02*
X7092500Y-17699500D01*
X7365638Y-17652638D02*
X7365638Y-17426362D01*
X7139362Y-17426362D01*
X7139362Y-17652638D01*
X7365638Y-17652638D01*
X7655357Y-17375214D02*
X7841071Y-17375214D01*
X7741071Y-17489500D01*
X7783928Y-17489500D01*
X7812500Y-17503786D01*
X7826786Y-17518072D01*
X7841071Y-17546643D01*
X7841071Y-17618072D01*
X7826786Y-17646643D01*
X7812500Y-17660929D01*
X7783928Y-17675214D01*
X7698214Y-17675214D01*
X7669643Y-17660929D01*
X7655357Y-17646643D01*
X7969643Y-17646643D02*
X7983928Y-17660929D01*
X7969643Y-17675214D01*
X7955357Y-17660929D01*
X7969643Y-17646643D01*
X7969643Y-17675214D01*
X8098214Y-17403786D02*
X8112500Y-17389500D01*
X8141071Y-17375214D01*
X8212500Y-17375214D01*
X8241071Y-17389500D01*
X8255357Y-17403786D01*
X8269643Y-17432357D01*
X8269643Y-17460929D01*
X8255357Y-17503786D01*
X8083928Y-17675214D01*
X8269643Y-17675214D01*
X8455357Y-17375214D02*
X8483929Y-17375214D01*
X8512500Y-17389500D01*
X8526786Y-17403786D01*
X8541071Y-17432357D01*
X8555357Y-17489500D01*
X8555357Y-17560929D01*
X8541071Y-17618072D01*
X8526786Y-17646643D01*
X8512500Y-17660929D01*
X8483929Y-17675214D01*
X8455357Y-17675214D01*
X8426786Y-17660929D01*
X8412500Y-17646643D01*
X8398214Y-17618072D01*
X8383928Y-17560929D01*
X8383928Y-17489500D01*
X8398214Y-17432357D01*
X8412500Y-17403786D01*
X8426786Y-17389500D01*
X8455357Y-17375214D01*
X8683929Y-17675214D02*
X8683929Y-17475214D01*
X8683929Y-17503786D02*
X8698214Y-17489500D01*
X8726786Y-17475214D01*
X8769643Y-17475214D01*
X8798214Y-17489500D01*
X8812500Y-17518072D01*
X8812500Y-17675214D01*
X8812500Y-17518072D02*
X8826786Y-17489500D01*
X8855357Y-17475214D01*
X8898214Y-17475214D01*
X8926786Y-17489500D01*
X8941071Y-17518072D01*
X8941071Y-17675214D01*
X9083929Y-17675214D02*
X9083929Y-17475214D01*
X9083929Y-17503786D02*
X9098214Y-17489500D01*
X9126786Y-17475214D01*
X9169643Y-17475214D01*
X9198214Y-17489500D01*
X9212500Y-17518072D01*
X9212500Y-17675214D01*
X9212500Y-17518072D02*
X9226786Y-17489500D01*
X9255357Y-17475214D01*
X9298214Y-17475214D01*
X9326786Y-17489500D01*
X9341071Y-17518072D01*
X9341071Y-17675214D01*
X9926786Y-17360929D02*
X9669643Y-17746643D01*
X10312500Y-17375214D02*
X10341071Y-17375214D01*
X10369643Y-17389500D01*
X10383928Y-17403786D01*
X10398214Y-17432357D01*
X10412500Y-17489500D01*
X10412500Y-17560929D01*
X10398214Y-17618072D01*
X10383928Y-17646643D01*
X10369643Y-17660929D01*
X10341071Y-17675214D01*
X10312500Y-17675214D01*
X10283928Y-17660929D01*
X10269643Y-17646643D01*
X10255357Y-17618072D01*
X10241071Y-17560929D01*
X10241071Y-17489500D01*
X10255357Y-17432357D01*
X10269643Y-17403786D01*
X10283928Y-17389500D01*
X10312500Y-17375214D01*
X10541071Y-17646643D02*
X10555357Y-17660929D01*
X10541071Y-17675214D01*
X10526786Y-17660929D01*
X10541071Y-17646643D01*
X10541071Y-17675214D01*
X10841071Y-17675214D02*
X10669643Y-17675214D01*
X10755357Y-17675214D02*
X10755357Y-17375214D01*
X10726786Y-17418072D01*
X10698214Y-17446643D01*
X10669643Y-17460929D01*
X10955357Y-17403786D02*
X10969643Y-17389500D01*
X10998214Y-17375214D01*
X11069643Y-17375214D01*
X11098214Y-17389500D01*
X11112500Y-17403786D01*
X11126786Y-17432357D01*
X11126786Y-17460929D01*
X11112500Y-17503786D01*
X10941071Y-17675214D01*
X11126786Y-17675214D01*
X11383928Y-17375214D02*
X11326785Y-17375214D01*
X11298214Y-17389500D01*
X11283928Y-17403786D01*
X11255357Y-17446643D01*
X11241071Y-17503786D01*
X11241071Y-17618072D01*
X11255357Y-17646643D01*
X11269643Y-17660929D01*
X11298214Y-17675214D01*
X11355357Y-17675214D01*
X11383928Y-17660929D01*
X11398214Y-17646643D01*
X11412500Y-17618072D01*
X11412500Y-17546643D01*
X11398214Y-17518072D01*
X11383928Y-17503786D01*
X11355357Y-17489500D01*
X11298214Y-17489500D01*
X11269643Y-17503786D01*
X11255357Y-17518072D01*
X11241071Y-17546643D01*
X11526786Y-17375214D02*
X11526786Y-17432357D01*
X11641071Y-17375214D02*
X11641071Y-17432357D01*
X12083928Y-17789500D02*
X12069643Y-17775214D01*
X12041071Y-17732357D01*
X12026785Y-17703786D01*
X12012500Y-17660929D01*
X11998214Y-17589500D01*
X11998214Y-17532357D01*
X12012500Y-17460929D01*
X12026785Y-17418072D01*
X12041071Y-17389500D01*
X12069643Y-17346643D01*
X12083928Y-17332357D01*
X12326785Y-17475214D02*
X12326785Y-17675214D01*
X12255357Y-17360929D02*
X12183928Y-17575214D01*
X12369643Y-17575214D01*
X12712500Y-17675214D02*
X12712500Y-17375214D01*
X12841071Y-17675214D02*
X12841071Y-17518072D01*
X12826785Y-17489500D01*
X12798214Y-17475214D01*
X12755357Y-17475214D01*
X12726785Y-17489500D01*
X12712500Y-17503786D01*
X13026785Y-17675214D02*
X12998214Y-17660929D01*
X12983928Y-17646643D01*
X12969643Y-17618072D01*
X12969643Y-17532357D01*
X12983928Y-17503786D01*
X12998214Y-17489500D01*
X13026785Y-17475214D01*
X13069643Y-17475214D01*
X13098214Y-17489500D01*
X13112500Y-17503786D01*
X13126785Y-17532357D01*
X13126785Y-17618072D01*
X13112500Y-17646643D01*
X13098214Y-17660929D01*
X13069643Y-17675214D01*
X13026785Y-17675214D01*
X13298214Y-17675214D02*
X13269643Y-17660929D01*
X13255357Y-17632357D01*
X13255357Y-17375214D01*
X13526786Y-17660929D02*
X13498214Y-17675214D01*
X13441071Y-17675214D01*
X13412500Y-17660929D01*
X13398214Y-17632357D01*
X13398214Y-17518072D01*
X13412500Y-17489500D01*
X13441071Y-17475214D01*
X13498214Y-17475214D01*
X13526786Y-17489500D01*
X13541071Y-17518072D01*
X13541071Y-17546643D01*
X13398214Y-17575214D01*
X13655357Y-17660929D02*
X13683928Y-17675214D01*
X13741071Y-17675214D01*
X13769643Y-17660929D01*
X13783928Y-17632357D01*
X13783928Y-17618072D01*
X13769643Y-17589500D01*
X13741071Y-17575214D01*
X13698214Y-17575214D01*
X13669643Y-17560929D01*
X13655357Y-17532357D01*
X13655357Y-17518072D01*
X13669643Y-17489500D01*
X13698214Y-17475214D01*
X13741071Y-17475214D01*
X13769643Y-17489500D01*
X13883928Y-17789500D02*
X13898214Y-17775214D01*
X13926786Y-17732357D01*
X13941071Y-17703786D01*
X13955357Y-17660929D01*
X13969643Y-17589500D01*
X13969643Y-17532357D01*
X13955357Y-17460929D01*
X13941071Y-17418072D01*
X13926786Y-17389500D01*
X13898214Y-17346643D01*
X13883928Y-17332357D01*
M02*
