G04 #@! TF.FileFunction,Other,User*
%FSLAX46Y46*%
G04 Gerber Fmt 4.6, Leading zero omitted, Abs format (unit mm)*
G04 Created by KiCad (PCBNEW 4.0.2-stable) date 10/05/17 15:07:02*
%MOMM*%
G01*
G04 APERTURE LIST*
%ADD10C,0.100000*%
%ADD11C,0.050000*%
G04 APERTURE END LIST*
D10*
D11*
X95380000Y-120450000D02*
X95380000Y-124950000D01*
X95380000Y-120450000D02*
X93630000Y-120450000D01*
X93630000Y-124950000D02*
X95380000Y-124950000D01*
X93630000Y-124950000D02*
X93630000Y-120450000D01*
X108050000Y-108230000D02*
X103550000Y-108230000D01*
X108050000Y-108230000D02*
X108050000Y-106480000D01*
X103550000Y-106480000D02*
X103550000Y-108230000D01*
X103550000Y-106480000D02*
X108050000Y-106480000D01*
X95380000Y-114100000D02*
X95380000Y-118600000D01*
X95380000Y-114100000D02*
X93630000Y-114100000D01*
X93630000Y-118600000D02*
X95380000Y-118600000D01*
X93630000Y-118600000D02*
X93630000Y-114100000D01*
X100750000Y-126080000D02*
X96250000Y-126080000D01*
X100750000Y-126080000D02*
X100750000Y-124330000D01*
X96250000Y-124330000D02*
X96250000Y-126080000D01*
X96250000Y-124330000D02*
X100750000Y-124330000D01*
X105800000Y-129330000D02*
X101300000Y-129330000D01*
X105800000Y-129330000D02*
X105800000Y-127580000D01*
X101300000Y-127580000D02*
X101300000Y-129330000D01*
X101300000Y-127580000D02*
X105800000Y-127580000D01*
X103950000Y-112170000D02*
X108450000Y-112170000D01*
X103950000Y-112170000D02*
X103950000Y-113920000D01*
X108450000Y-113920000D02*
X108450000Y-112170000D01*
X108450000Y-113920000D02*
X103950000Y-113920000D01*
X104070000Y-119200000D02*
X104070000Y-114700000D01*
X104070000Y-119200000D02*
X105820000Y-119200000D01*
X105820000Y-114700000D02*
X104070000Y-114700000D01*
X105820000Y-114700000D02*
X105820000Y-119200000D01*
X111350000Y-98530000D02*
X106850000Y-98530000D01*
X111350000Y-98530000D02*
X111350000Y-96780000D01*
X106850000Y-96780000D02*
X106850000Y-98530000D01*
X106850000Y-96780000D02*
X111350000Y-96780000D01*
X122880000Y-123950000D02*
X122880000Y-128450000D01*
X122880000Y-123950000D02*
X121130000Y-123950000D01*
X121130000Y-128450000D02*
X122880000Y-128450000D01*
X121130000Y-128450000D02*
X121130000Y-123950000D01*
X133900000Y-79600000D02*
X133900000Y-74900000D01*
X133900000Y-79600000D02*
X135700000Y-79600000D01*
X135700000Y-74900000D02*
X133900000Y-74900000D01*
X135700000Y-74900000D02*
X135700000Y-79600000D01*
X155900000Y-65320000D02*
X160400000Y-65320000D01*
X155900000Y-65320000D02*
X155900000Y-67070000D01*
X160400000Y-67070000D02*
X160400000Y-65320000D01*
X160400000Y-67070000D02*
X155900000Y-67070000D01*
X117300000Y-75800000D02*
X112600000Y-75800000D01*
X117300000Y-75800000D02*
X117300000Y-74000000D01*
X112600000Y-74000000D02*
X112600000Y-75800000D01*
X112600000Y-74000000D02*
X117300000Y-74000000D01*
X115950000Y-73650000D02*
X111250000Y-73650000D01*
X115950000Y-73650000D02*
X115950000Y-71850000D01*
X111250000Y-71850000D02*
X111250000Y-73650000D01*
X111250000Y-71850000D02*
X115950000Y-71850000D01*
X147950000Y-123620000D02*
X152450000Y-123620000D01*
X147950000Y-123620000D02*
X147950000Y-125370000D01*
X152450000Y-125370000D02*
X152450000Y-123620000D01*
X152450000Y-125370000D02*
X147950000Y-125370000D01*
X147950000Y-118070000D02*
X152450000Y-118070000D01*
X147950000Y-118070000D02*
X147950000Y-119820000D01*
X152450000Y-119820000D02*
X152450000Y-118070000D01*
X152450000Y-119820000D02*
X147950000Y-119820000D01*
X79370000Y-53700000D02*
X79370000Y-49200000D01*
X79370000Y-53700000D02*
X81120000Y-53700000D01*
X81120000Y-49200000D02*
X79370000Y-49200000D01*
X81120000Y-49200000D02*
X81120000Y-53700000D01*
X149550000Y-104950000D02*
X149550000Y-98450000D01*
X149550000Y-104950000D02*
X151650000Y-104950000D01*
X151650000Y-98450000D02*
X149550000Y-98450000D01*
X151650000Y-98450000D02*
X151650000Y-104950000D01*
X123800000Y-46500000D02*
X128500000Y-46500000D01*
X123800000Y-46500000D02*
X123800000Y-48300000D01*
X128500000Y-48300000D02*
X128500000Y-46500000D01*
X128500000Y-48300000D02*
X123800000Y-48300000D01*
X149080000Y-98450000D02*
X149080000Y-102950000D01*
X149080000Y-98450000D02*
X147330000Y-98450000D01*
X147330000Y-102950000D02*
X149080000Y-102950000D01*
X147330000Y-102950000D02*
X147330000Y-98450000D01*
X89600000Y-58030000D02*
X85100000Y-58030000D01*
X89600000Y-58030000D02*
X89600000Y-56280000D01*
X85100000Y-56280000D02*
X85100000Y-58030000D01*
X85100000Y-56280000D02*
X89600000Y-56280000D01*
X89600000Y-60530000D02*
X85100000Y-60530000D01*
X89600000Y-60530000D02*
X89600000Y-58780000D01*
X85100000Y-58780000D02*
X85100000Y-60530000D01*
X85100000Y-58780000D02*
X89600000Y-58780000D01*
X140172000Y-123562000D02*
X135672000Y-123562000D01*
X140172000Y-123562000D02*
X140172000Y-121812000D01*
X135672000Y-121812000D02*
X135672000Y-123562000D01*
X135672000Y-121812000D02*
X140172000Y-121812000D01*
X149080000Y-90750000D02*
X149080000Y-95250000D01*
X149080000Y-90750000D02*
X147330000Y-90750000D01*
X147330000Y-95250000D02*
X149080000Y-95250000D01*
X147330000Y-95250000D02*
X147330000Y-90750000D01*
X151850000Y-88950000D02*
X151850000Y-95450000D01*
X151850000Y-88950000D02*
X149750000Y-88950000D01*
X149750000Y-95450000D02*
X151850000Y-95450000D01*
X149750000Y-95450000D02*
X149750000Y-88950000D01*
X90220000Y-59850000D02*
X90220000Y-55350000D01*
X90220000Y-59850000D02*
X91970000Y-59850000D01*
X91970000Y-55350000D02*
X90220000Y-55350000D01*
X91970000Y-55350000D02*
X91970000Y-59850000D01*
X95976000Y-62602000D02*
X91476000Y-62602000D01*
X95976000Y-62602000D02*
X95976000Y-60852000D01*
X91476000Y-60852000D02*
X91476000Y-62602000D01*
X91476000Y-60852000D02*
X95976000Y-60852000D01*
X90714000Y-69224000D02*
X95214000Y-69224000D01*
X90714000Y-69224000D02*
X90714000Y-70974000D01*
X95214000Y-70974000D02*
X95214000Y-69224000D01*
X95214000Y-70974000D02*
X90714000Y-70974000D01*
X156970000Y-81810000D02*
X156970000Y-86510000D01*
X156970000Y-81810000D02*
X155170000Y-81810000D01*
X155170000Y-86510000D02*
X156970000Y-86510000D01*
X155170000Y-86510000D02*
X155170000Y-81810000D01*
X91020000Y-99750000D02*
X91020000Y-95250000D01*
X91020000Y-99750000D02*
X92770000Y-99750000D01*
X92770000Y-95250000D02*
X91020000Y-95250000D01*
X92770000Y-95250000D02*
X92770000Y-99750000D01*
X158830000Y-70850000D02*
X163530000Y-70850000D01*
X158830000Y-70850000D02*
X158830000Y-72650000D01*
X163530000Y-72650000D02*
X163530000Y-70850000D01*
X163530000Y-72650000D02*
X158830000Y-72650000D01*
X83574000Y-82868000D02*
X78874000Y-82868000D01*
X83574000Y-82868000D02*
X83574000Y-81068000D01*
X78874000Y-81068000D02*
X78874000Y-82868000D01*
X78874000Y-81068000D02*
X83574000Y-81068000D01*
X157000000Y-106450000D02*
X157000000Y-111150000D01*
X157000000Y-106450000D02*
X155200000Y-106450000D01*
X155200000Y-111150000D02*
X157000000Y-111150000D01*
X155200000Y-111150000D02*
X155200000Y-106450000D01*
X171080000Y-63182000D02*
X171080000Y-67882000D01*
X171080000Y-63182000D02*
X169280000Y-63182000D01*
X169280000Y-67882000D02*
X171080000Y-67882000D01*
X169280000Y-67882000D02*
X169280000Y-63182000D01*
X128950000Y-44700000D02*
X128950000Y-38650000D01*
X122900000Y-44700000D02*
X122900000Y-38650000D01*
X128950000Y-44700000D02*
X122900000Y-44700000D01*
X128950000Y-38650000D02*
X122900000Y-38650000D01*
X111700000Y-129750000D02*
X117850000Y-129750000D01*
X117850000Y-129750000D02*
X117850000Y-126150000D01*
X117850000Y-126150000D02*
X111700000Y-126150000D01*
X111700000Y-126150000D02*
X111700000Y-129750000D01*
X168050000Y-59900000D02*
X171550000Y-59900000D01*
X168050000Y-48750000D02*
X171550000Y-48750000D01*
X168050000Y-59900000D02*
X168050000Y-48750000D01*
X171550000Y-59900000D02*
X171550000Y-48750000D01*
X111900000Y-117100000D02*
X111900000Y-125750000D01*
X111900000Y-125750000D02*
X115500000Y-125750000D01*
X115500000Y-125750000D02*
X115500000Y-117100000D01*
X115500000Y-117100000D02*
X111900000Y-117100000D01*
X88300000Y-125800000D02*
X83600000Y-125800000D01*
X88300000Y-125800000D02*
X88300000Y-124000000D01*
X83600000Y-124000000D02*
X83600000Y-125800000D01*
X83600000Y-124000000D02*
X88300000Y-124000000D01*
X101500000Y-135750000D02*
X96800000Y-135750000D01*
X101500000Y-135750000D02*
X101500000Y-133950000D01*
X96800000Y-133950000D02*
X96800000Y-135750000D01*
X96800000Y-133950000D02*
X101500000Y-133950000D01*
X83550000Y-127850000D02*
X88250000Y-127850000D01*
X83550000Y-127850000D02*
X83550000Y-129650000D01*
X88250000Y-129650000D02*
X88250000Y-127850000D01*
X88250000Y-129650000D02*
X83550000Y-129650000D01*
X88250000Y-115100000D02*
X83550000Y-115100000D01*
X88250000Y-115100000D02*
X88250000Y-113300000D01*
X83550000Y-113300000D02*
X83550000Y-115100000D01*
X83550000Y-113300000D02*
X88250000Y-113300000D01*
X83550000Y-116900000D02*
X88250000Y-116900000D01*
X83550000Y-116900000D02*
X83550000Y-118700000D01*
X88250000Y-118700000D02*
X88250000Y-116900000D01*
X88250000Y-118700000D02*
X83550000Y-118700000D01*
X83600000Y-120450000D02*
X88300000Y-120450000D01*
X83600000Y-120450000D02*
X83600000Y-122250000D01*
X88300000Y-122250000D02*
X88300000Y-120450000D01*
X88300000Y-122250000D02*
X83600000Y-122250000D01*
X98400000Y-106500000D02*
X103100000Y-106500000D01*
X98400000Y-106500000D02*
X98400000Y-108300000D01*
X103100000Y-108300000D02*
X103100000Y-106500000D01*
X103100000Y-108300000D02*
X98400000Y-108300000D01*
X98500000Y-112250000D02*
X93800000Y-112250000D01*
X98500000Y-112250000D02*
X98500000Y-110450000D01*
X93800000Y-110450000D02*
X93800000Y-112250000D01*
X93800000Y-110450000D02*
X98500000Y-110450000D01*
X96100000Y-130600000D02*
X100800000Y-130600000D01*
X96100000Y-130600000D02*
X96100000Y-132400000D01*
X100800000Y-132400000D02*
X100800000Y-130600000D01*
X100800000Y-132400000D02*
X96100000Y-132400000D01*
X92900000Y-107800000D02*
X97600000Y-107800000D01*
X92900000Y-107800000D02*
X92900000Y-109600000D01*
X97600000Y-109600000D02*
X97600000Y-107800000D01*
X97600000Y-109600000D02*
X92900000Y-109600000D01*
X96150000Y-127550000D02*
X100850000Y-127550000D01*
X96150000Y-127550000D02*
X96150000Y-129350000D01*
X100850000Y-129350000D02*
X100850000Y-127550000D01*
X100850000Y-129350000D02*
X96150000Y-129350000D01*
X99450000Y-115200000D02*
X99450000Y-110500000D01*
X99450000Y-115200000D02*
X101250000Y-115200000D01*
X101250000Y-110500000D02*
X99450000Y-110500000D01*
X101250000Y-110500000D02*
X101250000Y-115200000D01*
X101100000Y-124300000D02*
X105800000Y-124300000D01*
X101100000Y-124300000D02*
X101100000Y-126100000D01*
X105800000Y-126100000D02*
X105800000Y-124300000D01*
X105800000Y-126100000D02*
X101100000Y-126100000D01*
X103800000Y-110200000D02*
X108500000Y-110200000D01*
X103800000Y-110200000D02*
X103800000Y-112000000D01*
X108500000Y-112000000D02*
X108500000Y-110200000D01*
X108500000Y-112000000D02*
X103800000Y-112000000D01*
X108450000Y-124350000D02*
X108450000Y-129050000D01*
X108450000Y-124350000D02*
X106650000Y-124350000D01*
X106650000Y-129050000D02*
X108450000Y-129050000D01*
X106650000Y-129050000D02*
X106650000Y-124350000D01*
X107150000Y-119300000D02*
X107150000Y-114600000D01*
X107150000Y-119300000D02*
X108950000Y-119300000D01*
X108950000Y-114600000D02*
X107150000Y-114600000D01*
X108950000Y-114600000D02*
X108950000Y-119300000D01*
X120050000Y-123950000D02*
X120050000Y-128650000D01*
X120050000Y-123950000D02*
X118250000Y-123950000D01*
X118250000Y-128650000D02*
X120050000Y-128650000D01*
X118250000Y-128650000D02*
X118250000Y-123950000D01*
X101700000Y-102750000D02*
X101700000Y-98050000D01*
X101700000Y-102750000D02*
X103500000Y-102750000D01*
X103500000Y-98050000D02*
X101700000Y-98050000D01*
X103500000Y-98050000D02*
X103500000Y-102750000D01*
X93300000Y-102750000D02*
X93300000Y-98050000D01*
X93300000Y-102750000D02*
X95100000Y-102750000D01*
X95100000Y-98050000D02*
X93300000Y-98050000D01*
X95100000Y-98050000D02*
X95100000Y-102750000D01*
X78050000Y-48900000D02*
X78050000Y-53600000D01*
X78050000Y-48900000D02*
X76250000Y-48900000D01*
X76250000Y-53600000D02*
X78050000Y-53600000D01*
X76250000Y-53600000D02*
X76250000Y-48900000D01*
X78930000Y-83682000D02*
X83630000Y-83682000D01*
X78930000Y-83682000D02*
X78930000Y-85482000D01*
X83630000Y-85482000D02*
X83630000Y-83682000D01*
X83630000Y-85482000D02*
X78930000Y-85482000D01*
X166900000Y-63900000D02*
X166900000Y-68600000D01*
X166900000Y-63900000D02*
X165100000Y-63900000D01*
X165100000Y-68600000D02*
X166900000Y-68600000D01*
X165100000Y-68600000D02*
X165100000Y-63900000D01*
X152300000Y-111100000D02*
X152300000Y-106400000D01*
X152300000Y-111100000D02*
X154100000Y-111100000D01*
X154100000Y-106400000D02*
X152300000Y-106400000D01*
X154100000Y-106400000D02*
X154100000Y-111100000D01*
X123800000Y-48800000D02*
X128500000Y-48800000D01*
X123800000Y-48800000D02*
X123800000Y-50600000D01*
X128500000Y-50600000D02*
X128500000Y-48800000D01*
X128500000Y-50600000D02*
X123800000Y-50600000D01*
X159100000Y-122950000D02*
X154400000Y-122950000D01*
X159100000Y-122950000D02*
X159100000Y-121150000D01*
X154400000Y-121150000D02*
X154400000Y-122950000D01*
X154400000Y-121150000D02*
X159100000Y-121150000D01*
X129100000Y-51300000D02*
X129100000Y-60300000D01*
X129100000Y-60300000D02*
X122600000Y-60300000D01*
X122600000Y-60300000D02*
X122600000Y-51300000D01*
X122600000Y-51300000D02*
X129100000Y-51300000D01*
X159500000Y-125200000D02*
X159500000Y-134200000D01*
X159500000Y-134200000D02*
X153000000Y-134200000D01*
X153000000Y-134200000D02*
X153000000Y-125200000D01*
X153000000Y-125200000D02*
X159500000Y-125200000D01*
X91600000Y-62800000D02*
X87900000Y-62800000D01*
X91600000Y-69100000D02*
X87900000Y-69100000D01*
X91600000Y-62800000D02*
X91600000Y-69100000D01*
X87900000Y-62800000D02*
X87900000Y-69100000D01*
X143650000Y-126400000D02*
X147450000Y-126400000D01*
X147450000Y-126400000D02*
X147450000Y-117000000D01*
X147450000Y-117000000D02*
X143650000Y-117000000D01*
X143650000Y-117000000D02*
X143650000Y-126400000D01*
X119500000Y-77100000D02*
X117500000Y-77100000D01*
X117500000Y-77100000D02*
X117500000Y-79600000D01*
X119500000Y-79600000D02*
X117500000Y-79600000D01*
X119500000Y-79600000D02*
X119500000Y-77100000D01*
X75750000Y-57850000D02*
X81900000Y-57850000D01*
X81900000Y-57850000D02*
X81900000Y-54250000D01*
X81900000Y-54250000D02*
X75750000Y-54250000D01*
X75750000Y-54250000D02*
X75750000Y-57850000D01*
X87450000Y-65150000D02*
X81300000Y-65150000D01*
X81300000Y-65150000D02*
X81300000Y-68750000D01*
X81300000Y-68750000D02*
X87450000Y-68750000D01*
X87450000Y-68750000D02*
X87450000Y-65150000D01*
X87450000Y-61250000D02*
X81300000Y-61250000D01*
X81300000Y-61250000D02*
X81300000Y-64850000D01*
X81300000Y-64850000D02*
X87450000Y-64850000D01*
X87450000Y-64850000D02*
X87450000Y-61250000D01*
X155400000Y-101600000D02*
X161550000Y-101600000D01*
X161550000Y-101600000D02*
X161550000Y-98000000D01*
X161550000Y-98000000D02*
X155400000Y-98000000D01*
X155400000Y-98000000D02*
X155400000Y-101600000D01*
X161500000Y-92900000D02*
X155350000Y-92900000D01*
X155350000Y-92900000D02*
X155350000Y-96500000D01*
X155350000Y-96500000D02*
X161500000Y-96500000D01*
X161500000Y-96500000D02*
X161500000Y-92900000D01*
X94500000Y-81950000D02*
X94500000Y-75800000D01*
X94500000Y-75800000D02*
X90900000Y-75800000D01*
X90900000Y-75800000D02*
X90900000Y-81950000D01*
X90900000Y-81950000D02*
X94500000Y-81950000D01*
X108150000Y-86200000D02*
X102000000Y-86200000D01*
X102000000Y-86200000D02*
X102000000Y-89800000D01*
X102000000Y-89800000D02*
X108150000Y-89800000D01*
X108150000Y-89800000D02*
X108150000Y-86200000D01*
X161550000Y-86350000D02*
X161550000Y-80200000D01*
X161550000Y-80200000D02*
X157950000Y-80200000D01*
X157950000Y-80200000D02*
X157950000Y-86350000D01*
X157950000Y-86350000D02*
X161550000Y-86350000D01*
X161250000Y-67400000D02*
X155100000Y-67400000D01*
X155100000Y-67400000D02*
X155100000Y-71000000D01*
X155100000Y-71000000D02*
X161250000Y-71000000D01*
X161250000Y-71000000D02*
X161250000Y-67400000D01*
X88700000Y-133700000D02*
X93400000Y-133700000D01*
X88700000Y-133700000D02*
X88700000Y-135500000D01*
X93400000Y-135500000D02*
X93400000Y-133700000D01*
X93400000Y-135500000D02*
X88700000Y-135500000D01*
X114830000Y-99292000D02*
X108680000Y-99292000D01*
X108680000Y-99292000D02*
X108680000Y-102892000D01*
X108680000Y-102892000D02*
X114830000Y-102892000D01*
X114830000Y-102892000D02*
X114830000Y-99292000D01*
X134850000Y-67900000D02*
X134850000Y-74050000D01*
X134850000Y-74050000D02*
X138450000Y-74050000D01*
X138450000Y-74050000D02*
X138450000Y-67900000D01*
X138450000Y-67900000D02*
X134850000Y-67900000D01*
X123150000Y-116250000D02*
X123150000Y-122400000D01*
X123150000Y-122400000D02*
X126750000Y-122400000D01*
X126750000Y-122400000D02*
X126750000Y-116250000D01*
X126750000Y-116250000D02*
X123150000Y-116250000D01*
X79850000Y-125200000D02*
X79850000Y-116550000D01*
X79850000Y-116550000D02*
X76250000Y-116550000D01*
X76250000Y-116550000D02*
X76250000Y-125200000D01*
X76250000Y-125200000D02*
X79850000Y-125200000D01*
X117100000Y-136150000D02*
X125750000Y-136150000D01*
X125750000Y-136150000D02*
X125750000Y-130000000D01*
X125750000Y-130000000D02*
X117100000Y-130000000D01*
X117100000Y-130000000D02*
X117100000Y-136150000D01*
X116700000Y-119950000D02*
X122850000Y-119950000D01*
X122850000Y-119950000D02*
X122850000Y-116350000D01*
X122850000Y-116350000D02*
X116700000Y-116350000D01*
X116700000Y-116350000D02*
X116700000Y-119950000D01*
X131200000Y-92200000D02*
X131200000Y-98350000D01*
X131200000Y-98350000D02*
X134800000Y-98350000D01*
X134800000Y-98350000D02*
X134800000Y-92200000D01*
X134800000Y-92200000D02*
X131200000Y-92200000D01*
X168900000Y-91250000D02*
X168900000Y-97400000D01*
X168900000Y-97400000D02*
X172500000Y-97400000D01*
X172500000Y-97400000D02*
X172500000Y-91250000D01*
X172500000Y-91250000D02*
X168900000Y-91250000D01*
X140100000Y-121150000D02*
X140100000Y-111850000D01*
X132700000Y-121150000D02*
X132700000Y-111850000D01*
X140100000Y-121150000D02*
X132700000Y-121150000D01*
X140100000Y-111850000D02*
X132700000Y-111850000D01*
X120900000Y-70650000D02*
X120900000Y-81250000D01*
X131500000Y-70650000D02*
X131500000Y-81250000D01*
X120900000Y-70650000D02*
X131500000Y-70650000D01*
X120900000Y-81250000D02*
X131500000Y-81250000D01*
X108400000Y-92900000D02*
X108400000Y-96600000D01*
X114800000Y-92900000D02*
X114800000Y-96600000D01*
X108400000Y-92900000D02*
X114800000Y-92900000D01*
X108400000Y-96600000D02*
X114800000Y-96600000D01*
X93100000Y-92850000D02*
X93100000Y-96550000D01*
X99500000Y-92850000D02*
X99500000Y-96550000D01*
X93100000Y-92850000D02*
X99500000Y-92850000D01*
X93100000Y-96550000D02*
X99500000Y-96550000D01*
X137070000Y-94400000D02*
X137070000Y-99800000D01*
X144530000Y-94400000D02*
X144530000Y-99800000D01*
X137070000Y-94400000D02*
X144530000Y-94400000D01*
X137070000Y-99800000D02*
X144530000Y-99800000D01*
X110900000Y-132850000D02*
G75*
G03X110900000Y-132850000I-1000000J0D01*
G01*
X123936000Y-114808000D02*
G75*
G03X123936000Y-114808000I-1000000J0D01*
G01*
X129500000Y-117300000D02*
G75*
G03X129500000Y-117300000I-1000000J0D01*
G01*
X165592000Y-92456000D02*
G75*
G03X165592000Y-92456000I-1000000J0D01*
G01*
X84250000Y-59900000D02*
G75*
G03X84250000Y-59900000I-1000000J0D01*
G01*
X102346000Y-91694000D02*
G75*
G03X102346000Y-91694000I-1000000J0D01*
G01*
X110800000Y-88050000D02*
G75*
G03X110800000Y-88050000I-1000000J0D01*
G01*
X124698000Y-99568000D02*
G75*
G03X124698000Y-99568000I-1000000J0D01*
G01*
X101584000Y-56388000D02*
G75*
G03X101584000Y-56388000I-1000000J0D01*
G01*
X160766000Y-88138000D02*
G75*
G03X160766000Y-88138000I-1000000J0D01*
G01*
X159550000Y-105900000D02*
G75*
G03X159550000Y-105900000I-1000000J0D01*
G01*
X79994000Y-106934000D02*
G75*
G03X79994000Y-106934000I-1000000J0D01*
G01*
X142100000Y-127900000D02*
X128350000Y-127900000D01*
X128350000Y-127900000D02*
X128350000Y-137700000D01*
X128350000Y-137700000D02*
X142100000Y-137700000D01*
X142100000Y-137700000D02*
X142100000Y-127900000D01*
X80700000Y-72100000D02*
X80700000Y-65950000D01*
X80700000Y-65950000D02*
X77100000Y-65950000D01*
X77100000Y-65950000D02*
X77100000Y-72100000D01*
X77100000Y-72100000D02*
X80700000Y-72100000D01*
X116368000Y-92846000D02*
X120868000Y-92846000D01*
X116368000Y-92846000D02*
X116368000Y-94596000D01*
X120868000Y-94596000D02*
X120868000Y-92846000D01*
X120868000Y-94596000D02*
X116368000Y-94596000D01*
X114600000Y-88350000D02*
X120750000Y-88350000D01*
X120750000Y-88350000D02*
X120750000Y-84750000D01*
X120750000Y-84750000D02*
X114600000Y-84750000D01*
X114600000Y-84750000D02*
X114600000Y-88350000D01*
X134800000Y-98800000D02*
X128650000Y-98800000D01*
X128650000Y-98800000D02*
X128650000Y-102400000D01*
X128650000Y-102400000D02*
X134800000Y-102400000D01*
X134800000Y-102400000D02*
X134800000Y-98800000D01*
X114278000Y-111020000D02*
X122928000Y-111020000D01*
X122928000Y-111020000D02*
X122928000Y-107420000D01*
X122928000Y-107420000D02*
X114278000Y-107420000D01*
X114278000Y-107420000D02*
X114278000Y-111020000D01*
X132450000Y-110200000D02*
X138600000Y-110200000D01*
X138600000Y-110200000D02*
X138600000Y-106600000D01*
X138600000Y-106600000D02*
X132450000Y-106600000D01*
X132450000Y-106600000D02*
X132450000Y-110200000D01*
X95250000Y-101000000D02*
X101400000Y-101000000D01*
X101400000Y-101000000D02*
X101400000Y-97400000D01*
X101400000Y-97400000D02*
X95250000Y-97400000D01*
X95250000Y-97400000D02*
X95250000Y-101000000D01*
X124850000Y-91800000D02*
X121150000Y-91800000D01*
X124850000Y-98200000D02*
X121150000Y-98200000D01*
X124850000Y-91800000D02*
X124850000Y-98200000D01*
X121150000Y-91800000D02*
X121150000Y-98200000D01*
X110850000Y-43100000D02*
X119450000Y-43100000D01*
X110850000Y-39600000D02*
X119450000Y-39600000D01*
X110850000Y-43100000D02*
X110850000Y-39600000D01*
X119450000Y-43100000D02*
X119450000Y-39600000D01*
X136350000Y-39400000D02*
X136350000Y-45450000D01*
X147500000Y-39400000D02*
X147500000Y-45450000D01*
X136350000Y-39400000D02*
X147500000Y-39400000D01*
X136350000Y-45450000D02*
X147500000Y-45450000D01*
X82650000Y-43000000D02*
G75*
G03X82650000Y-43000000I-3450000J0D01*
G01*
X172650000Y-43000000D02*
G75*
G03X172650000Y-43000000I-3450000J0D01*
G01*
X172650000Y-133000000D02*
G75*
G03X172650000Y-133000000I-3450000J0D01*
G01*
X82650000Y-133000000D02*
G75*
G03X82650000Y-133000000I-3450000J0D01*
G01*
X167300000Y-119250000D02*
X167300000Y-127850000D01*
X170800000Y-119250000D02*
X170800000Y-127850000D01*
X167300000Y-119250000D02*
X170800000Y-119250000D01*
X167300000Y-127850000D02*
X170800000Y-127850000D01*
X161950000Y-40650000D02*
X150750000Y-40650000D01*
X150750000Y-40650000D02*
X150750000Y-44250000D01*
X150750000Y-44250000D02*
X161950000Y-44250000D01*
X161950000Y-44250000D02*
X161950000Y-40650000D01*
X108734000Y-39602000D02*
X100084000Y-39602000D01*
X100084000Y-39602000D02*
X100084000Y-43202000D01*
X100084000Y-43202000D02*
X108734000Y-43202000D01*
X108734000Y-43202000D02*
X108734000Y-39602000D01*
X128100000Y-90600000D02*
X136750000Y-90600000D01*
X136750000Y-90600000D02*
X136750000Y-87000000D01*
X136750000Y-87000000D02*
X128100000Y-87000000D01*
X128100000Y-87000000D02*
X128100000Y-90600000D01*
X97514000Y-64494000D02*
X97514000Y-73144000D01*
X97514000Y-73144000D02*
X103664000Y-73144000D01*
X103664000Y-73144000D02*
X103664000Y-64494000D01*
X103664000Y-64494000D02*
X97514000Y-64494000D01*
X146150000Y-77800000D02*
X146150000Y-86600000D01*
X153350000Y-77800000D02*
X146150000Y-77800000D01*
X153350000Y-86600000D02*
X153350000Y-77800000D01*
X146150000Y-86600000D02*
X153350000Y-86600000D01*
X116170000Y-78050000D02*
X114570000Y-78050000D01*
X116170000Y-78050000D02*
X116170000Y-77150000D01*
X114570000Y-77150000D02*
X114570000Y-78050000D01*
X114570000Y-77150000D02*
X116170000Y-77150000D01*
X116140000Y-79530000D02*
X114540000Y-79530000D01*
X116140000Y-79530000D02*
X116140000Y-78630000D01*
X114540000Y-78630000D02*
X114540000Y-79530000D01*
X114540000Y-78630000D02*
X116140000Y-78630000D01*
M02*
