G04 #@! TF.FileFunction,Copper,L2,Bot,Signal*
%FSLAX46Y46*%
G04 Gerber Fmt 4.6, Leading zero omitted, Abs format (unit mm)*
G04 Created by KiCad (PCBNEW 4.0.2-stable) date 10/05/17 14:13:38*
%MOMM*%
G01*
G04 APERTURE LIST*
%ADD10C,0.100000*%
%ADD11C,2.000000*%
%ADD12C,2.400000*%
%ADD13C,5.000000*%
%ADD14C,4.000000*%
%ADD15O,5.001260X2.999740*%
%ADD16O,2.999740X5.001260*%
%ADD17C,6.400000*%
%ADD18C,0.800000*%
%ADD19C,0.600000*%
%ADD20C,1.000000*%
%ADD21C,0.254000*%
G04 APERTURE END LIST*
D10*
D11*
X71000000Y-69000000D03*
X71000000Y-79000000D03*
X71000000Y-89000000D03*
X71000000Y-99000000D03*
X81500000Y-69000000D03*
X81500000Y-79000000D03*
X81500000Y-89000000D03*
X81500000Y-99000000D03*
D12*
X158100000Y-60600000D03*
X158100000Y-75600000D03*
X144000000Y-55000000D03*
X144000000Y-70000000D03*
D13*
X94190000Y-104050000D03*
D14*
X127210000Y-101502380D03*
D13*
X94190000Y-96430000D03*
X127210000Y-96430000D03*
X94190000Y-88810000D03*
X127210000Y-88810000D03*
X94190000Y-81190000D03*
X127210000Y-81190000D03*
X94190000Y-73570000D03*
X127210000Y-73570000D03*
X94190000Y-65950000D03*
X127210000Y-65950000D03*
D15*
X139700000Y-90518800D03*
X139700000Y-94481200D03*
X139700000Y-80418800D03*
X139700000Y-84381200D03*
D16*
X87418800Y-42000000D03*
X91381200Y-42000000D03*
X95618800Y-42100000D03*
X99581200Y-42100000D03*
D15*
X71500000Y-113481200D03*
X71500000Y-109518800D03*
X158100000Y-50218800D03*
X158100000Y-54181200D03*
X72500000Y-61781200D03*
X72500000Y-57818800D03*
X72500000Y-53781200D03*
X72500000Y-49818800D03*
D16*
X142918800Y-41500000D03*
X146881200Y-41500000D03*
X89781200Y-128000000D03*
X85818800Y-128000000D03*
X132881200Y-128400000D03*
X128918800Y-128400000D03*
D17*
X69500000Y-130000000D03*
D18*
X71900000Y-130000000D03*
X71197056Y-131697056D03*
X69500000Y-132400000D03*
X67802944Y-131697056D03*
X67100000Y-130000000D03*
X67802944Y-128302944D03*
X69500000Y-127600000D03*
X71197056Y-128302944D03*
D17*
X159500000Y-130000000D03*
D18*
X161900000Y-130000000D03*
X161197056Y-131697056D03*
X159500000Y-132400000D03*
X157802944Y-131697056D03*
X157100000Y-130000000D03*
X157802944Y-128302944D03*
X159500000Y-127600000D03*
X161197056Y-128302944D03*
D17*
X159500000Y-40000000D03*
D18*
X161900000Y-40000000D03*
X161197056Y-41697056D03*
X159500000Y-42400000D03*
X157802944Y-41697056D03*
X157100000Y-40000000D03*
X157802944Y-38302944D03*
X159500000Y-37600000D03*
X161197056Y-38302944D03*
D17*
X69500000Y-40000000D03*
D18*
X71900000Y-40000000D03*
X71197056Y-41697056D03*
X69500000Y-42400000D03*
X67802944Y-41697056D03*
X67100000Y-40000000D03*
X67802944Y-38302944D03*
X69500000Y-37600000D03*
X71197056Y-38302944D03*
D19*
X91340000Y-48240000D03*
X91380000Y-45390000D03*
X89350000Y-46020000D03*
X89450000Y-48220000D03*
X87600000Y-47350000D03*
X87500000Y-45520000D03*
X85570000Y-44730000D03*
X85760000Y-46480000D03*
X85800000Y-48270000D03*
X83900000Y-48430000D03*
X84010000Y-46670000D03*
X84120000Y-44650000D03*
X84160000Y-42520000D03*
X84210000Y-40460000D03*
X83760000Y-37770000D03*
X85690000Y-38790000D03*
X85220000Y-36620000D03*
X87500000Y-36370000D03*
X87420000Y-38400000D03*
X89470000Y-38650000D03*
X89710000Y-36370000D03*
X91660000Y-36370000D03*
X91660000Y-38180000D03*
X78790000Y-56940000D03*
X76470000Y-57050000D03*
X75890000Y-58980000D03*
X77760000Y-58650000D03*
X79710000Y-58650000D03*
X79880000Y-60410000D03*
X78090000Y-60740000D03*
X76000000Y-61130000D03*
X77340000Y-63000000D03*
X79430000Y-63000000D03*
X79680000Y-65770000D03*
X77530000Y-65770000D03*
X75210000Y-65990000D03*
X73480000Y-64370000D03*
X72500000Y-65970000D03*
X70970000Y-64350000D03*
X68790000Y-64070000D03*
X69120000Y-66110000D03*
X66830000Y-66130000D03*
X66610000Y-64180000D03*
X66780000Y-62190000D03*
X68870000Y-62250000D03*
X68820000Y-59760000D03*
X66440000Y-59790000D03*
X66750000Y-57700000D03*
X68930000Y-57670000D03*
X90920000Y-63950000D03*
X90830000Y-61830000D03*
X92790000Y-61800000D03*
X94770000Y-61660000D03*
X96500000Y-63000000D03*
X98800000Y-63340000D03*
X98740000Y-61640000D03*
X100840000Y-61860000D03*
X101060000Y-63840000D03*
X99520000Y-65380000D03*
X97760000Y-65660000D03*
X97040000Y-68150000D03*
X98940000Y-67670000D03*
X100920000Y-67560000D03*
X100840000Y-69650000D03*
X98990000Y-69910000D03*
X97040000Y-70070000D03*
X95330000Y-69540000D03*
X93070000Y-69770000D03*
X91170000Y-69930000D03*
X90940000Y-68060000D03*
X90720000Y-65830000D03*
X155910000Y-116730000D03*
X150600000Y-116230000D03*
X146910000Y-116400000D03*
X143440000Y-116620000D03*
X144450000Y-119470000D03*
X149090000Y-119750000D03*
X153500000Y-119020000D03*
X158080000Y-120250000D03*
X158250000Y-117680000D03*
X158530000Y-114390000D03*
X155400000Y-114220000D03*
X152330000Y-114330000D03*
X147690000Y-114160000D03*
X144450000Y-114160000D03*
X140820000Y-114050000D03*
X140260000Y-117850000D03*
X140710000Y-121650000D03*
X144000000Y-121990000D03*
X149140000Y-122100000D03*
X155070000Y-122990000D03*
X158360000Y-122940000D03*
X161440000Y-122380000D03*
X161440000Y-119640000D03*
X161850000Y-115940000D03*
X161730000Y-113540000D03*
X162040000Y-110910000D03*
X159940000Y-110760000D03*
X157090000Y-110760000D03*
X154420000Y-111020000D03*
X151300000Y-110730000D03*
X147720000Y-110700000D03*
X144140000Y-111010000D03*
X140990000Y-110750000D03*
X137910000Y-110390000D03*
X137910000Y-112740000D03*
X135450000Y-115620000D03*
X138140000Y-116570000D03*
X138300000Y-121090000D03*
X138810000Y-124840000D03*
X143220000Y-124720000D03*
X147580000Y-124840000D03*
X152220000Y-124840000D03*
X132690000Y-116230000D03*
X135530000Y-111760000D03*
X132080000Y-110950000D03*
X128630000Y-114600000D03*
X131670000Y-119480000D03*
X135740000Y-120090000D03*
X135740000Y-123950000D03*
X136350000Y-128020000D03*
X142850000Y-127610000D03*
X147320000Y-128630000D03*
X151990000Y-128630000D03*
X150980000Y-132080000D03*
X146510000Y-132080000D03*
X141430000Y-131880000D03*
X136750000Y-131060000D03*
X132370000Y-122950000D03*
X128640000Y-122240000D03*
X126680000Y-120640000D03*
X126770000Y-115130000D03*
X127390000Y-111480000D03*
X123660000Y-111130000D03*
X123390000Y-114860000D03*
X119840000Y-117880000D03*
X118060000Y-115660000D03*
X119930000Y-111570000D03*
X117610000Y-111570000D03*
X115210000Y-112730000D03*
X114410000Y-117970000D03*
X111040000Y-119570000D03*
X111660000Y-115390000D03*
X111660000Y-112900000D03*
X110320000Y-108280000D03*
X112990000Y-107840000D03*
X116550000Y-107120000D03*
X116280000Y-103040000D03*
X114060000Y-103300000D03*
X111130000Y-104010000D03*
X110640000Y-98070000D03*
X113050000Y-98350000D03*
X116340000Y-98850000D03*
X116510000Y-95440000D03*
X113550000Y-95050000D03*
X110310000Y-94660000D03*
X110080000Y-91030000D03*
X112600000Y-91420000D03*
X116340000Y-91700000D03*
X116400000Y-88230000D03*
X112540000Y-87120000D03*
X109410000Y-87170000D03*
X107440000Y-89610000D03*
X108050000Y-94280000D03*
X108250000Y-100580000D03*
X108450000Y-105050000D03*
X108660000Y-110950000D03*
X108660000Y-116640000D03*
X108860000Y-121920000D03*
X112110000Y-122530000D03*
X117800000Y-121310000D03*
X123080000Y-119080000D03*
X124910000Y-124560000D03*
X120040000Y-126190000D03*
X114350000Y-126190000D03*
X108860000Y-125580000D03*
X111300000Y-130450000D03*
X116990000Y-130250000D03*
X123900000Y-130860000D03*
X103920000Y-38050000D03*
X109440000Y-37690000D03*
X114950000Y-37520000D03*
X119210000Y-37690000D03*
X124370000Y-37520000D03*
X128640000Y-37870000D03*
X128730000Y-41250000D03*
X125170000Y-41430000D03*
X119750000Y-40810000D03*
X115300000Y-40810000D03*
X109440000Y-41250000D03*
X106150000Y-41340000D03*
X104810000Y-41690000D03*
X103390000Y-44180000D03*
X106150000Y-45250000D03*
X112100000Y-44720000D03*
X117440000Y-44270000D03*
X120460000Y-44630000D03*
X124370000Y-45070000D03*
X125620000Y-45070000D03*
X130060000Y-44890000D03*
X128820000Y-50050000D03*
X121700000Y-50140000D03*
X118150000Y-50140000D03*
X113970000Y-50230000D03*
X112100000Y-50230000D03*
X108280000Y-50050000D03*
X103750000Y-49430000D03*
X109350000Y-47030000D03*
X113610000Y-47120000D03*
X118500000Y-47650000D03*
X123040000Y-47830000D03*
X126150000Y-47830000D03*
X126150000Y-52900000D03*
X129620000Y-52810000D03*
X129880000Y-56540000D03*
X129790000Y-59120000D03*
X125530000Y-58760000D03*
X125790000Y-55740000D03*
X121970000Y-53430000D03*
X118060000Y-52980000D03*
X118860000Y-55920000D03*
X121620000Y-56100000D03*
X121790000Y-58410000D03*
X116280000Y-58760000D03*
X114950000Y-54580000D03*
X110410000Y-53430000D03*
X106500000Y-53870000D03*
X107920000Y-57870000D03*
X110680000Y-58230000D03*
X112370000Y-55830000D03*
X112710000Y-60800000D03*
X109520000Y-60910000D03*
X105840000Y-60850000D03*
X105450000Y-64040000D03*
X108690000Y-64210000D03*
X112260000Y-64370000D03*
X116340000Y-63030000D03*
X115950000Y-65990000D03*
X115750000Y-70140000D03*
X112460000Y-69340000D03*
X106410000Y-67560000D03*
X107480000Y-68280000D03*
X106500000Y-73430000D03*
X106590000Y-76540000D03*
X103840000Y-79480000D03*
X98860000Y-79570000D03*
X98320000Y-82410000D03*
X97970000Y-86320000D03*
X101080000Y-88720000D03*
X101260000Y-83920000D03*
X105260000Y-82410000D03*
X107210000Y-79480000D03*
X109700000Y-75570000D03*
X109350000Y-71740000D03*
X112810000Y-73160000D03*
X116370000Y-74230000D03*
X116370000Y-77790000D03*
X113350000Y-77170000D03*
X112990000Y-80100000D03*
X116190000Y-81250000D03*
X116190000Y-85080000D03*
X111300000Y-84010000D03*
X110060000Y-80190000D03*
X107840000Y-84810000D03*
X105260000Y-87570000D03*
X66470000Y-115590000D03*
X68760000Y-115840000D03*
X67670000Y-113600000D03*
X65770000Y-113460000D03*
X65970000Y-111510000D03*
X67920000Y-111260000D03*
X67840000Y-109020000D03*
X66050000Y-109470000D03*
X66190000Y-107400000D03*
X68170000Y-107180000D03*
X70800000Y-106840000D03*
X73540000Y-106950000D03*
X76360000Y-106810000D03*
X77480000Y-108350000D03*
X74990000Y-108550000D03*
X75570000Y-110180000D03*
X78030000Y-110480000D03*
X76670000Y-112000000D03*
X74820000Y-112170000D03*
X75940000Y-113840000D03*
X77950000Y-114490000D03*
X76720000Y-115830000D03*
X75020000Y-115800000D03*
X73230000Y-115920000D03*
X71450000Y-116010000D03*
X92520000Y-131170000D03*
X92700000Y-133480000D03*
X90710000Y-133580000D03*
X90480000Y-131470000D03*
X88550000Y-131250000D03*
X88700000Y-133280000D03*
X86660000Y-133200000D03*
X86620000Y-131350000D03*
X84820000Y-131370000D03*
X84590000Y-133340000D03*
X82890000Y-132970000D03*
X82860000Y-130700000D03*
X83010000Y-128200000D03*
X82810000Y-125900000D03*
X82840000Y-123410000D03*
X82810000Y-121430000D03*
X84550000Y-122130000D03*
X84490000Y-124280000D03*
X86640000Y-123910000D03*
X86530000Y-121200000D03*
X88490000Y-122460000D03*
X88320000Y-124580000D03*
X90250000Y-123860000D03*
X90440000Y-121620000D03*
X92450000Y-121930000D03*
X92560000Y-124050000D03*
X92540000Y-125920000D03*
X92620000Y-127930000D03*
X100320000Y-100200000D03*
X98260000Y-100200000D03*
X96160000Y-100770000D03*
X97610000Y-101880000D03*
X100200000Y-101880000D03*
X100390000Y-103900000D03*
X97800000Y-103750000D03*
X98030000Y-105610000D03*
X100240000Y-105650000D03*
X100280000Y-107860000D03*
X97920000Y-107940000D03*
X95940000Y-107980000D03*
X93350000Y-107630000D03*
X91250000Y-107780000D03*
X89920000Y-106870000D03*
X90410000Y-104660000D03*
X89650000Y-102680000D03*
X90080000Y-100540000D03*
X91990000Y-100460000D03*
X93980000Y-100240000D03*
X162000000Y-49570000D03*
X162140000Y-51580000D03*
X161860000Y-53980000D03*
X161630000Y-56630000D03*
X162050000Y-59200000D03*
X162160000Y-61500000D03*
X160400000Y-61500000D03*
X160260000Y-59570000D03*
X159870000Y-57080000D03*
X157810000Y-56970000D03*
X155910000Y-57000000D03*
X155820000Y-59090000D03*
X155650000Y-61300000D03*
X153870000Y-61020000D03*
X154030000Y-59010000D03*
X154060000Y-57300000D03*
X154120000Y-55280000D03*
X154180000Y-53570000D03*
X154240000Y-51800000D03*
X154430000Y-50150000D03*
X141580000Y-97540000D03*
X139900000Y-97540000D03*
X137770000Y-97960000D03*
X136020000Y-96580000D03*
X134800000Y-94560000D03*
X133080000Y-95670000D03*
X133240000Y-97650000D03*
X130800000Y-97840000D03*
X131030000Y-95550000D03*
X131600000Y-93420000D03*
X133810000Y-92540000D03*
X136090000Y-91590000D03*
X134720000Y-89880000D03*
X132210000Y-90180000D03*
X130610000Y-91330000D03*
X129350000Y-93000000D03*
X126490000Y-92770000D03*
X124400000Y-92160000D03*
X123060000Y-90260000D03*
X122910000Y-93000000D03*
X123220000Y-95210000D03*
X123290000Y-97570000D03*
X147540000Y-45130000D03*
X145130000Y-44640000D03*
X145270000Y-46760000D03*
X147520000Y-46940000D03*
X147320000Y-48830000D03*
X145350000Y-48810000D03*
X143480000Y-48730000D03*
X143380000Y-46940000D03*
X143440000Y-44890000D03*
X141670000Y-44660000D03*
X141770000Y-46470000D03*
X141550000Y-48610000D03*
X139720000Y-48480000D03*
X137550000Y-48420000D03*
X137710000Y-46470000D03*
X139860000Y-46170000D03*
X140020000Y-44080000D03*
X137460000Y-44460000D03*
X137810000Y-41910000D03*
X139870000Y-41760000D03*
X140170000Y-39200000D03*
X137660000Y-39700000D03*
X138230000Y-37340000D03*
X141120000Y-37380000D03*
X143710000Y-37570000D03*
X146530000Y-37530000D03*
X137660000Y-77950000D03*
X139830000Y-77950000D03*
X141920000Y-77950000D03*
X141010000Y-76280000D03*
X138650000Y-76280000D03*
X136470000Y-76280000D03*
X134650000Y-77040000D03*
X134800000Y-79550000D03*
X132510000Y-79900000D03*
X131940000Y-77460000D03*
X130490000Y-75480000D03*
X130760000Y-73340000D03*
X130300000Y-71090000D03*
X123670000Y-71490000D03*
X122440000Y-72980000D03*
X123440000Y-74680000D03*
X122430000Y-76080000D03*
X124400000Y-76310000D03*
X123060000Y-78370000D03*
X122910000Y-80580000D03*
X122800000Y-82520000D03*
X122950000Y-84730000D03*
X125040000Y-84730000D03*
X127100000Y-85040000D03*
X129160000Y-85150000D03*
X131670000Y-84810000D03*
X134110000Y-85000000D03*
X135830000Y-83860000D03*
X135750000Y-81340000D03*
X133620000Y-82220000D03*
X131330000Y-81880000D03*
X130910000Y-79210000D03*
X129160000Y-77300000D03*
X126720000Y-77000000D03*
D20*
X91381200Y-42000000D02*
X91381200Y-38458800D01*
X91340000Y-45430000D02*
X91340000Y-48240000D01*
X91380000Y-45390000D02*
X91340000Y-45430000D01*
X89350000Y-48120000D02*
X89350000Y-46020000D01*
X89450000Y-48220000D02*
X89350000Y-48120000D01*
X87600000Y-45620000D02*
X87600000Y-47350000D01*
X87500000Y-45520000D02*
X87600000Y-45620000D01*
X85570000Y-46290000D02*
X85570000Y-44730000D01*
X85760000Y-46480000D02*
X85570000Y-46290000D01*
X84060000Y-48270000D02*
X85800000Y-48270000D01*
X83900000Y-48430000D02*
X84060000Y-48270000D01*
X84010000Y-44760000D02*
X84010000Y-46670000D01*
X84120000Y-44650000D02*
X84010000Y-44760000D01*
X84160000Y-40510000D02*
X84160000Y-42520000D01*
X84210000Y-40460000D02*
X84160000Y-40510000D01*
X84670000Y-37770000D02*
X83760000Y-37770000D01*
X85690000Y-38790000D02*
X84670000Y-37770000D01*
X87250000Y-36620000D02*
X85220000Y-36620000D01*
X87500000Y-36370000D02*
X87250000Y-36620000D01*
X89220000Y-38400000D02*
X87420000Y-38400000D01*
X89470000Y-38650000D02*
X89220000Y-38400000D01*
X91660000Y-36370000D02*
X89710000Y-36370000D01*
X91381200Y-38458800D02*
X91660000Y-38180000D01*
X72500000Y-57818800D02*
X69078800Y-57818800D01*
X79740000Y-57890000D02*
X79740000Y-58870000D01*
X78790000Y-56940000D02*
X79740000Y-57890000D01*
X76470000Y-58400000D02*
X76470000Y-57050000D01*
X75890000Y-58980000D02*
X76470000Y-58400000D01*
X79710000Y-58650000D02*
X77760000Y-58650000D01*
X78420000Y-60410000D02*
X79880000Y-60410000D01*
X78090000Y-60740000D02*
X78420000Y-60410000D01*
X76000000Y-61660000D02*
X76000000Y-61130000D01*
X77340000Y-63000000D02*
X76000000Y-61660000D01*
X79430000Y-65520000D02*
X79430000Y-63000000D01*
X79680000Y-65770000D02*
X79430000Y-65520000D01*
X75430000Y-65770000D02*
X77530000Y-65770000D01*
X75210000Y-65990000D02*
X75430000Y-65770000D01*
X73480000Y-64990000D02*
X73480000Y-64370000D01*
X72500000Y-65970000D02*
X73480000Y-64990000D01*
X69070000Y-64350000D02*
X70970000Y-64350000D01*
X68790000Y-64070000D02*
X69070000Y-64350000D01*
X66850000Y-66110000D02*
X69120000Y-66110000D01*
X66830000Y-66130000D02*
X66850000Y-66110000D01*
X66610000Y-62360000D02*
X66610000Y-64180000D01*
X66780000Y-62190000D02*
X66610000Y-62360000D01*
X68870000Y-59810000D02*
X68870000Y-62250000D01*
X68820000Y-59760000D02*
X68870000Y-59810000D01*
X66440000Y-58010000D02*
X66440000Y-59790000D01*
X66750000Y-57700000D02*
X66440000Y-58010000D01*
X69078800Y-57818800D02*
X68930000Y-57670000D01*
X90920000Y-61920000D02*
X90920000Y-63950000D01*
X90830000Y-61830000D02*
X90920000Y-61920000D01*
X94630000Y-61800000D02*
X92790000Y-61800000D01*
X94770000Y-61660000D02*
X94630000Y-61800000D01*
X98460000Y-63000000D02*
X96500000Y-63000000D01*
X98800000Y-63340000D02*
X98460000Y-63000000D01*
X100620000Y-61640000D02*
X98740000Y-61640000D01*
X100840000Y-61860000D02*
X100620000Y-61640000D01*
X99520000Y-65380000D02*
X101060000Y-63840000D01*
X97760000Y-67430000D02*
X97760000Y-65660000D01*
X97040000Y-68150000D02*
X97760000Y-67430000D01*
X100810000Y-67670000D02*
X98940000Y-67670000D01*
X100920000Y-67560000D02*
X100810000Y-67670000D01*
X99250000Y-69650000D02*
X100840000Y-69650000D01*
X98990000Y-69910000D02*
X99250000Y-69650000D01*
X95860000Y-70070000D02*
X97040000Y-70070000D01*
X95330000Y-69540000D02*
X95860000Y-70070000D01*
X91330000Y-69770000D02*
X93070000Y-69770000D01*
X91170000Y-69930000D02*
X91330000Y-69770000D01*
X90940000Y-66050000D02*
X90940000Y-68060000D01*
X90720000Y-65830000D02*
X90940000Y-66050000D01*
X151100000Y-116730000D02*
X155910000Y-116730000D01*
X150600000Y-116230000D02*
X151100000Y-116730000D01*
X143660000Y-116400000D02*
X146910000Y-116400000D01*
X143440000Y-116620000D02*
X143660000Y-116400000D01*
X148810000Y-119470000D02*
X144450000Y-119470000D01*
X149090000Y-119750000D02*
X148810000Y-119470000D01*
X156850000Y-119020000D02*
X153500000Y-119020000D01*
X158080000Y-120250000D02*
X156850000Y-119020000D01*
X158250000Y-114670000D02*
X158250000Y-117680000D01*
X158530000Y-114390000D02*
X158250000Y-114670000D01*
X152440000Y-114220000D02*
X155400000Y-114220000D01*
X152330000Y-114330000D02*
X152440000Y-114220000D01*
X144450000Y-114160000D02*
X147690000Y-114160000D01*
X140820000Y-117290000D02*
X140820000Y-114050000D01*
X140260000Y-117850000D02*
X140820000Y-117290000D01*
X143660000Y-121650000D02*
X140710000Y-121650000D01*
X144000000Y-121990000D02*
X143660000Y-121650000D01*
X154180000Y-122100000D02*
X149140000Y-122100000D01*
X155070000Y-122990000D02*
X154180000Y-122100000D01*
X160880000Y-122940000D02*
X158360000Y-122940000D01*
X161440000Y-122380000D02*
X160880000Y-122940000D01*
X161440000Y-116350000D02*
X161440000Y-119640000D01*
X161850000Y-115940000D02*
X161440000Y-116350000D01*
X161730000Y-111220000D02*
X161730000Y-113540000D01*
X162040000Y-110910000D02*
X161730000Y-111220000D01*
X157090000Y-110760000D02*
X159940000Y-110760000D01*
X151590000Y-111020000D02*
X154420000Y-111020000D01*
X151300000Y-110730000D02*
X151590000Y-111020000D01*
X144450000Y-110700000D02*
X147720000Y-110700000D01*
X144140000Y-111010000D02*
X144450000Y-110700000D01*
X138270000Y-110750000D02*
X140990000Y-110750000D01*
X137910000Y-110390000D02*
X138270000Y-110750000D01*
X137910000Y-113160000D02*
X137910000Y-112740000D01*
X135450000Y-115620000D02*
X137910000Y-113160000D01*
X138140000Y-120930000D02*
X138140000Y-116570000D01*
X138300000Y-121090000D02*
X138140000Y-120930000D01*
X143100000Y-124840000D02*
X138810000Y-124840000D01*
X143220000Y-124720000D02*
X143100000Y-124840000D01*
X152220000Y-124840000D02*
X147580000Y-124840000D01*
X132881200Y-128400000D02*
X134090000Y-128400000D01*
X134090000Y-128400000D02*
X136750000Y-131060000D01*
X132690000Y-114600000D02*
X132690000Y-116230000D01*
X135530000Y-111760000D02*
X132690000Y-114600000D01*
X132080000Y-111150000D02*
X132080000Y-110950000D01*
X128630000Y-114600000D02*
X132080000Y-111150000D01*
X135130000Y-119480000D02*
X131670000Y-119480000D01*
X135740000Y-120090000D02*
X135130000Y-119480000D01*
X135740000Y-127410000D02*
X135740000Y-123950000D01*
X136350000Y-128020000D02*
X135740000Y-127410000D01*
X146300000Y-127610000D02*
X142850000Y-127610000D01*
X147320000Y-128630000D02*
X146300000Y-127610000D01*
X151990000Y-131070000D02*
X151990000Y-128630000D01*
X150980000Y-132080000D02*
X151990000Y-131070000D01*
X141630000Y-132080000D02*
X146510000Y-132080000D01*
X141430000Y-131880000D02*
X141630000Y-132080000D01*
X128918800Y-128400000D02*
X126360000Y-128400000D01*
X129350000Y-122950000D02*
X132370000Y-122950000D01*
X128640000Y-122240000D02*
X129350000Y-122950000D01*
X126680000Y-115220000D02*
X126680000Y-120640000D01*
X126770000Y-115130000D02*
X126680000Y-115220000D01*
X124010000Y-111480000D02*
X127390000Y-111480000D01*
X123660000Y-111130000D02*
X124010000Y-111480000D01*
X122860000Y-114860000D02*
X123390000Y-114860000D01*
X119840000Y-117880000D02*
X122860000Y-114860000D01*
X118060000Y-113440000D02*
X118060000Y-115660000D01*
X119930000Y-111570000D02*
X118060000Y-113440000D01*
X116370000Y-111570000D02*
X117610000Y-111570000D01*
X115210000Y-112730000D02*
X116370000Y-111570000D01*
X112640000Y-117970000D02*
X114410000Y-117970000D01*
X111040000Y-119570000D02*
X112640000Y-117970000D01*
X111660000Y-112900000D02*
X111660000Y-115390000D01*
X112550000Y-108280000D02*
X110320000Y-108280000D01*
X112990000Y-107840000D02*
X112550000Y-108280000D01*
X116550000Y-103310000D02*
X116550000Y-107120000D01*
X116280000Y-103040000D02*
X116550000Y-103310000D01*
X111840000Y-103300000D02*
X114060000Y-103300000D01*
X111130000Y-104010000D02*
X111840000Y-103300000D01*
X112770000Y-98070000D02*
X110640000Y-98070000D01*
X113050000Y-98350000D02*
X112770000Y-98070000D01*
X116340000Y-95610000D02*
X116340000Y-98850000D01*
X116510000Y-95440000D02*
X116340000Y-95610000D01*
X110700000Y-95050000D02*
X113550000Y-95050000D01*
X110310000Y-94660000D02*
X110700000Y-95050000D01*
X112210000Y-91030000D02*
X110080000Y-91030000D01*
X112600000Y-91420000D02*
X112210000Y-91030000D01*
X116340000Y-88290000D02*
X116340000Y-91700000D01*
X116400000Y-88230000D02*
X116340000Y-88290000D01*
X109460000Y-87120000D02*
X112540000Y-87120000D01*
X109410000Y-87170000D02*
X109460000Y-87120000D01*
X107440000Y-93670000D02*
X107440000Y-89610000D01*
X108050000Y-94280000D02*
X107440000Y-93670000D01*
X108250000Y-104850000D02*
X108250000Y-100580000D01*
X108450000Y-105050000D02*
X108250000Y-104850000D01*
X108660000Y-116640000D02*
X108660000Y-110950000D01*
X111500000Y-121920000D02*
X108860000Y-121920000D01*
X112110000Y-122530000D02*
X111500000Y-121920000D01*
X120850000Y-121310000D02*
X117800000Y-121310000D01*
X123080000Y-119080000D02*
X120850000Y-121310000D01*
X121670000Y-124560000D02*
X124910000Y-124560000D01*
X120040000Y-126190000D02*
X121670000Y-124560000D01*
X109470000Y-126190000D02*
X114350000Y-126190000D01*
X108860000Y-125580000D02*
X109470000Y-126190000D01*
X116790000Y-130450000D02*
X111300000Y-130450000D01*
X116990000Y-130250000D02*
X116790000Y-130450000D01*
X126360000Y-128400000D02*
X123900000Y-130860000D01*
X99581200Y-42100000D02*
X99870000Y-42100000D01*
X99870000Y-42100000D02*
X103920000Y-38050000D01*
X109440000Y-37690000D02*
X109610000Y-37520000D01*
X109610000Y-37520000D02*
X114950000Y-37520000D01*
X119210000Y-37690000D02*
X119380000Y-37520000D01*
X119380000Y-37520000D02*
X124370000Y-37520000D01*
X128640000Y-37870000D02*
X128730000Y-37960000D01*
X128730000Y-37960000D02*
X128730000Y-41250000D01*
X125170000Y-41430000D02*
X124550000Y-40810000D01*
X124550000Y-40810000D02*
X119750000Y-40810000D01*
X115300000Y-40810000D02*
X114860000Y-41250000D01*
X114860000Y-41250000D02*
X109440000Y-41250000D01*
X106150000Y-41340000D02*
X105800000Y-41690000D01*
X105800000Y-41690000D02*
X104810000Y-41690000D01*
X103390000Y-44180000D02*
X104460000Y-45250000D01*
X104460000Y-45250000D02*
X106150000Y-45250000D01*
X112100000Y-44720000D02*
X112550000Y-44270000D01*
X112550000Y-44270000D02*
X117440000Y-44270000D01*
X120460000Y-44630000D02*
X120900000Y-45070000D01*
X120900000Y-45070000D02*
X124370000Y-45070000D01*
X125620000Y-45070000D02*
X125800000Y-44890000D01*
X125800000Y-44890000D02*
X130060000Y-44890000D01*
X128820000Y-50050000D02*
X128730000Y-50140000D01*
X128730000Y-50140000D02*
X121700000Y-50140000D01*
X118150000Y-50140000D02*
X118060000Y-50230000D01*
X118060000Y-50230000D02*
X113970000Y-50230000D01*
X112100000Y-50230000D02*
X111920000Y-50050000D01*
X111920000Y-50050000D02*
X108280000Y-50050000D01*
X103750000Y-49430000D02*
X106150000Y-47030000D01*
X106150000Y-47030000D02*
X109350000Y-47030000D01*
X113610000Y-47120000D02*
X114140000Y-47650000D01*
X114140000Y-47650000D02*
X118500000Y-47650000D01*
X123040000Y-47830000D02*
X126150000Y-47830000D01*
X126150000Y-52900000D02*
X126240000Y-52810000D01*
X126240000Y-52810000D02*
X129620000Y-52810000D01*
X129880000Y-56540000D02*
X129790000Y-56630000D01*
X129790000Y-56630000D02*
X129790000Y-59120000D01*
X125530000Y-58760000D02*
X125790000Y-58500000D01*
X125790000Y-58500000D02*
X125790000Y-55740000D01*
X121970000Y-53430000D02*
X121520000Y-52980000D01*
X121520000Y-52980000D02*
X118060000Y-52980000D01*
X118860000Y-55920000D02*
X119040000Y-56100000D01*
X119040000Y-56100000D02*
X121620000Y-56100000D01*
X121790000Y-58410000D02*
X121440000Y-58760000D01*
X121440000Y-58760000D02*
X116280000Y-58760000D01*
X114950000Y-54580000D02*
X113800000Y-53430000D01*
X113800000Y-53430000D02*
X110410000Y-53430000D01*
X106500000Y-53870000D02*
X107920000Y-55290000D01*
X107920000Y-55290000D02*
X107920000Y-57870000D01*
X110680000Y-58230000D02*
X112370000Y-56540000D01*
X112370000Y-56540000D02*
X112370000Y-55830000D01*
X112710000Y-60800000D02*
X112600000Y-60910000D01*
X112600000Y-60910000D02*
X109520000Y-60910000D01*
X105840000Y-60850000D02*
X105450000Y-61240000D01*
X105450000Y-61240000D02*
X105450000Y-64040000D01*
X108690000Y-64210000D02*
X108850000Y-64370000D01*
X108850000Y-64370000D02*
X112260000Y-64370000D01*
X116340000Y-63030000D02*
X115950000Y-63420000D01*
X115950000Y-63420000D02*
X115950000Y-65990000D01*
X115750000Y-70140000D02*
X114950000Y-69340000D01*
X114950000Y-69340000D02*
X112460000Y-69340000D01*
X106410000Y-67560000D02*
X107130000Y-68280000D01*
X107130000Y-68280000D02*
X107480000Y-68280000D01*
X106500000Y-73430000D02*
X106590000Y-73520000D01*
X106590000Y-73520000D02*
X106590000Y-76540000D01*
X103840000Y-79480000D02*
X103750000Y-79570000D01*
X103750000Y-79570000D02*
X98860000Y-79570000D01*
X98320000Y-82410000D02*
X97970000Y-82760000D01*
X97970000Y-82760000D02*
X97970000Y-86320000D01*
X101080000Y-88720000D02*
X101260000Y-88540000D01*
X101260000Y-88540000D02*
X101260000Y-83920000D01*
X105260000Y-82410000D02*
X107210000Y-80460000D01*
X107210000Y-80460000D02*
X107210000Y-79480000D01*
X109700000Y-75570000D02*
X109350000Y-75220000D01*
X109350000Y-75220000D02*
X109350000Y-71740000D01*
X112810000Y-73160000D02*
X113880000Y-74230000D01*
X113880000Y-74230000D02*
X116370000Y-74230000D01*
X116370000Y-77790000D02*
X115750000Y-77170000D01*
X115750000Y-77170000D02*
X113350000Y-77170000D01*
X112990000Y-80100000D02*
X114140000Y-81250000D01*
X114140000Y-81250000D02*
X116190000Y-81250000D01*
X116190000Y-85080000D02*
X115120000Y-84010000D01*
X115120000Y-84010000D02*
X111300000Y-84010000D01*
X110060000Y-80190000D02*
X107840000Y-82410000D01*
X107840000Y-82410000D02*
X107840000Y-84810000D01*
X105260000Y-87570000D02*
X104290000Y-88540000D01*
X104290000Y-88540000D02*
X100990000Y-88540000D01*
X65740000Y-114860000D02*
X65740000Y-113380000D01*
X66470000Y-115590000D02*
X65740000Y-114860000D01*
X68760000Y-114690000D02*
X68760000Y-115840000D01*
X67670000Y-113600000D02*
X68760000Y-114690000D01*
X65770000Y-111710000D02*
X65770000Y-113460000D01*
X65970000Y-111510000D02*
X65770000Y-111710000D01*
X67920000Y-109100000D02*
X67920000Y-111260000D01*
X67840000Y-109020000D02*
X67920000Y-109100000D01*
X66050000Y-107540000D02*
X66050000Y-109470000D01*
X66190000Y-107400000D02*
X66050000Y-107540000D01*
X70460000Y-107180000D02*
X68170000Y-107180000D01*
X70800000Y-106840000D02*
X70460000Y-107180000D01*
X76220000Y-106950000D02*
X73540000Y-106950000D01*
X76360000Y-106810000D02*
X76220000Y-106950000D01*
X75190000Y-108350000D02*
X77480000Y-108350000D01*
X74990000Y-108550000D02*
X75190000Y-108350000D01*
X77730000Y-110180000D02*
X75570000Y-110180000D01*
X78030000Y-110480000D02*
X77730000Y-110180000D01*
X74990000Y-112000000D02*
X76670000Y-112000000D01*
X74820000Y-112170000D02*
X74990000Y-112000000D01*
X77300000Y-113840000D02*
X75940000Y-113840000D01*
X77950000Y-114490000D02*
X77300000Y-113840000D01*
X75050000Y-115830000D02*
X76720000Y-115830000D01*
X75020000Y-115800000D02*
X75050000Y-115830000D01*
X71540000Y-115920000D02*
X73230000Y-115920000D01*
X71450000Y-116010000D02*
X71540000Y-115920000D01*
X92520000Y-133300000D02*
X92520000Y-131170000D01*
X92700000Y-133480000D02*
X92520000Y-133300000D01*
X90710000Y-131700000D02*
X90710000Y-133580000D01*
X90480000Y-131470000D02*
X90710000Y-131700000D01*
X88550000Y-133130000D02*
X88550000Y-131250000D01*
X88700000Y-133280000D02*
X88550000Y-133130000D01*
X86660000Y-131390000D02*
X86660000Y-133200000D01*
X86620000Y-131350000D02*
X86660000Y-131390000D01*
X84820000Y-133110000D02*
X84820000Y-131370000D01*
X84590000Y-133340000D02*
X84820000Y-133110000D01*
X82890000Y-130730000D02*
X82890000Y-132970000D01*
X82860000Y-130700000D02*
X82890000Y-130730000D01*
X83010000Y-126100000D02*
X83010000Y-128200000D01*
X82810000Y-125900000D02*
X83010000Y-126100000D01*
X82840000Y-121460000D02*
X82840000Y-123410000D01*
X82810000Y-121430000D02*
X82840000Y-121460000D01*
X84550000Y-124220000D02*
X84550000Y-122130000D01*
X84490000Y-124280000D02*
X84550000Y-124220000D01*
X86640000Y-121310000D02*
X86640000Y-123910000D01*
X86530000Y-121200000D02*
X86640000Y-121310000D01*
X88490000Y-124410000D02*
X88490000Y-122460000D01*
X88320000Y-124580000D02*
X88490000Y-124410000D01*
X90250000Y-121810000D02*
X90250000Y-123860000D01*
X90440000Y-121620000D02*
X90250000Y-121810000D01*
X92450000Y-123940000D02*
X92450000Y-121930000D01*
X92560000Y-124050000D02*
X92450000Y-123940000D01*
X92540000Y-127850000D02*
X92540000Y-125920000D01*
X92620000Y-127930000D02*
X92540000Y-127850000D01*
X98260000Y-100200000D02*
X100320000Y-100200000D01*
X96500000Y-100770000D02*
X96160000Y-100770000D01*
X97610000Y-101880000D02*
X96500000Y-100770000D01*
X100200000Y-103710000D02*
X100200000Y-101880000D01*
X100390000Y-103900000D02*
X100200000Y-103710000D01*
X97800000Y-105380000D02*
X97800000Y-103750000D01*
X98030000Y-105610000D02*
X97800000Y-105380000D01*
X100240000Y-107820000D02*
X100240000Y-105650000D01*
X100280000Y-107860000D02*
X100240000Y-107820000D01*
X95980000Y-107940000D02*
X97920000Y-107940000D01*
X95940000Y-107980000D02*
X95980000Y-107940000D01*
X91400000Y-107630000D02*
X93350000Y-107630000D01*
X91250000Y-107780000D02*
X91400000Y-107630000D01*
X89920000Y-105150000D02*
X89920000Y-106870000D01*
X90410000Y-104660000D02*
X89920000Y-105150000D01*
X89650000Y-100970000D02*
X89650000Y-102680000D01*
X90080000Y-100540000D02*
X89650000Y-100970000D01*
X93760000Y-100460000D02*
X91990000Y-100460000D01*
X93980000Y-100240000D02*
X93760000Y-100460000D01*
X69308800Y-109518800D02*
X71500000Y-109518800D01*
X158100000Y-50218800D02*
X154498800Y-50218800D01*
X162000000Y-49570000D02*
X158100000Y-53470000D01*
X162140000Y-53700000D02*
X162140000Y-51580000D01*
X161860000Y-53980000D02*
X162140000Y-53700000D01*
X161630000Y-58780000D02*
X161630000Y-56630000D01*
X162050000Y-59200000D02*
X161630000Y-58780000D01*
X160400000Y-61500000D02*
X162160000Y-61500000D01*
X160260000Y-57470000D02*
X160260000Y-59570000D01*
X159870000Y-57080000D02*
X160260000Y-57470000D01*
X155940000Y-56970000D02*
X157810000Y-56970000D01*
X155910000Y-57000000D02*
X155940000Y-56970000D01*
X155820000Y-61130000D02*
X155820000Y-59090000D01*
X155650000Y-61300000D02*
X155820000Y-61130000D01*
X153870000Y-59170000D02*
X153870000Y-61020000D01*
X154030000Y-59010000D02*
X153870000Y-59170000D01*
X154060000Y-55340000D02*
X154060000Y-57300000D01*
X154120000Y-55280000D02*
X154060000Y-55340000D01*
X154180000Y-51860000D02*
X154180000Y-53570000D01*
X154240000Y-51800000D02*
X154180000Y-51860000D01*
X154498800Y-50218800D02*
X154430000Y-50150000D01*
X158100000Y-53470000D02*
X158100000Y-54181200D01*
X139900000Y-97540000D02*
X141580000Y-97540000D01*
X137400000Y-97960000D02*
X137770000Y-97960000D01*
X136020000Y-96580000D02*
X137400000Y-97960000D01*
X134190000Y-94560000D02*
X134800000Y-94560000D01*
X133080000Y-95670000D02*
X134190000Y-94560000D01*
X130990000Y-97650000D02*
X133240000Y-97650000D01*
X130800000Y-97840000D02*
X130990000Y-97650000D01*
X131030000Y-93990000D02*
X131030000Y-95550000D01*
X131600000Y-93420000D02*
X131030000Y-93990000D01*
X135140000Y-92540000D02*
X133810000Y-92540000D01*
X136090000Y-91590000D02*
X135140000Y-92540000D01*
X132510000Y-89880000D02*
X134720000Y-89880000D01*
X132210000Y-90180000D02*
X132510000Y-89880000D01*
X130610000Y-91740000D02*
X130610000Y-91330000D01*
X129350000Y-93000000D02*
X130610000Y-91740000D01*
X125010000Y-92770000D02*
X126490000Y-92770000D01*
X124400000Y-92160000D02*
X125010000Y-92770000D01*
X123060000Y-92850000D02*
X123060000Y-90260000D01*
X122910000Y-93000000D02*
X123060000Y-92850000D01*
X123220000Y-97500000D02*
X123220000Y-95210000D01*
X123290000Y-97570000D02*
X123220000Y-97500000D01*
X139700000Y-94890000D02*
X139700000Y-94481200D01*
X146881200Y-41500000D02*
X146881200Y-37881200D01*
X147620000Y-46900000D02*
X147440000Y-46900000D01*
X147620000Y-45210000D02*
X147620000Y-46900000D01*
X147540000Y-45130000D02*
X147620000Y-45210000D01*
X145130000Y-46620000D02*
X145130000Y-44640000D01*
X145270000Y-46760000D02*
X145130000Y-46620000D01*
X147520000Y-48630000D02*
X147520000Y-46940000D01*
X147320000Y-48830000D02*
X147520000Y-48630000D01*
X143560000Y-48810000D02*
X145350000Y-48810000D01*
X143480000Y-48730000D02*
X143560000Y-48810000D01*
X143380000Y-44950000D02*
X143380000Y-46940000D01*
X143440000Y-44890000D02*
X143380000Y-44950000D01*
X141670000Y-46370000D02*
X141670000Y-44660000D01*
X141770000Y-46470000D02*
X141670000Y-46370000D01*
X139850000Y-48610000D02*
X141550000Y-48610000D01*
X139720000Y-48480000D02*
X139850000Y-48610000D01*
X137550000Y-46630000D02*
X137550000Y-48420000D01*
X137710000Y-46470000D02*
X137550000Y-46630000D01*
X139860000Y-44240000D02*
X139860000Y-46170000D01*
X140020000Y-44080000D02*
X139860000Y-44240000D01*
X137460000Y-42260000D02*
X137460000Y-44460000D01*
X137810000Y-41910000D02*
X137460000Y-42260000D01*
X139870000Y-39500000D02*
X139870000Y-41760000D01*
X140170000Y-39200000D02*
X139870000Y-39500000D01*
X137660000Y-37910000D02*
X137660000Y-39700000D01*
X138230000Y-37340000D02*
X137660000Y-37910000D01*
X143520000Y-37380000D02*
X141120000Y-37380000D01*
X143710000Y-37570000D02*
X143520000Y-37380000D01*
X146881200Y-37881200D02*
X146530000Y-37530000D01*
X127210000Y-73570000D02*
X127820000Y-73570000D01*
X127820000Y-73570000D02*
X130300000Y-71090000D01*
X139830000Y-77950000D02*
X137660000Y-77950000D01*
X141920000Y-77190000D02*
X141920000Y-77950000D01*
X141010000Y-76280000D02*
X141920000Y-77190000D01*
X136470000Y-76280000D02*
X138650000Y-76280000D01*
X134650000Y-79400000D02*
X134650000Y-77040000D01*
X134800000Y-79550000D02*
X134650000Y-79400000D01*
X132510000Y-78030000D02*
X132510000Y-79900000D01*
X131940000Y-77460000D02*
X132510000Y-78030000D01*
X130490000Y-73610000D02*
X130490000Y-75480000D01*
X130760000Y-73340000D02*
X130490000Y-73610000D01*
X123670000Y-71490000D02*
X122440000Y-72720000D01*
X122440000Y-72720000D02*
X122440000Y-72980000D01*
X123440000Y-74680000D02*
X122430000Y-75690000D01*
X122430000Y-75690000D02*
X122430000Y-76080000D01*
X124400000Y-76310000D02*
X123060000Y-77650000D01*
X123060000Y-77650000D02*
X123060000Y-78370000D01*
X122910000Y-80580000D02*
X122800000Y-80690000D01*
X122800000Y-80690000D02*
X122800000Y-82520000D01*
X122950000Y-84730000D02*
X125040000Y-84730000D01*
X127100000Y-85040000D02*
X127210000Y-85150000D01*
X127210000Y-85150000D02*
X129160000Y-85150000D01*
X131670000Y-84810000D02*
X131860000Y-85000000D01*
X131860000Y-85000000D02*
X134110000Y-85000000D01*
X135830000Y-83860000D02*
X135750000Y-83780000D01*
X135750000Y-83780000D02*
X135750000Y-81340000D01*
X133620000Y-82220000D02*
X133280000Y-81880000D01*
X133280000Y-81880000D02*
X131330000Y-81880000D01*
X130910000Y-79210000D02*
X129160000Y-77460000D01*
X129160000Y-77460000D02*
X129160000Y-77300000D01*
X126720000Y-77000000D02*
X126030000Y-76310000D01*
X126030000Y-76310000D02*
X124510000Y-76310000D01*
D21*
G36*
X93872839Y-134290000D02*
X81766852Y-134290000D01*
X81762509Y-128127000D01*
X83683930Y-128127000D01*
X83683930Y-129127760D01*
X83895038Y-129935072D01*
X84399021Y-130600144D01*
X85119153Y-131021724D01*
X85359988Y-131085745D01*
X85691800Y-130972795D01*
X85691800Y-128127000D01*
X85945800Y-128127000D01*
X85945800Y-130972795D01*
X86277612Y-131085745D01*
X86518447Y-131021724D01*
X87238579Y-130600144D01*
X87742562Y-129935072D01*
X87800000Y-129715420D01*
X87857438Y-129935072D01*
X88361421Y-130600144D01*
X89081553Y-131021724D01*
X89322388Y-131085745D01*
X89654200Y-130972795D01*
X89654200Y-128127000D01*
X89908200Y-128127000D01*
X89908200Y-130972795D01*
X90240012Y-131085745D01*
X90480847Y-131021724D01*
X91200979Y-130600144D01*
X91704962Y-129935072D01*
X91916070Y-129127760D01*
X91916070Y-128127000D01*
X89908200Y-128127000D01*
X89654200Y-128127000D01*
X85945800Y-128127000D01*
X85691800Y-128127000D01*
X83683930Y-128127000D01*
X81762509Y-128127000D01*
X81761625Y-126872240D01*
X83683930Y-126872240D01*
X83683930Y-127873000D01*
X85691800Y-127873000D01*
X85691800Y-125027205D01*
X85945800Y-125027205D01*
X85945800Y-127873000D01*
X89654200Y-127873000D01*
X89654200Y-125027205D01*
X89908200Y-125027205D01*
X89908200Y-127873000D01*
X91916070Y-127873000D01*
X91916070Y-126872240D01*
X91704962Y-126064928D01*
X91200979Y-125399856D01*
X90480847Y-124978276D01*
X90240012Y-124914255D01*
X89908200Y-125027205D01*
X89654200Y-125027205D01*
X89322388Y-124914255D01*
X89081553Y-124978276D01*
X88361421Y-125399856D01*
X87857438Y-126064928D01*
X87800000Y-126284580D01*
X87742562Y-126064928D01*
X87238579Y-125399856D01*
X86518447Y-124978276D01*
X86277612Y-124914255D01*
X85945800Y-125027205D01*
X85691800Y-125027205D01*
X85359988Y-124914255D01*
X85119153Y-124978276D01*
X84399021Y-125399856D01*
X83895038Y-126064928D01*
X83683930Y-126872240D01*
X81761625Y-126872240D01*
X81757089Y-120436385D01*
X93863089Y-120377618D01*
X93872839Y-134290000D01*
X93872839Y-134290000D01*
G37*
X93872839Y-134290000D02*
X81766852Y-134290000D01*
X81762509Y-128127000D01*
X83683930Y-128127000D01*
X83683930Y-129127760D01*
X83895038Y-129935072D01*
X84399021Y-130600144D01*
X85119153Y-131021724D01*
X85359988Y-131085745D01*
X85691800Y-130972795D01*
X85691800Y-128127000D01*
X85945800Y-128127000D01*
X85945800Y-130972795D01*
X86277612Y-131085745D01*
X86518447Y-131021724D01*
X87238579Y-130600144D01*
X87742562Y-129935072D01*
X87800000Y-129715420D01*
X87857438Y-129935072D01*
X88361421Y-130600144D01*
X89081553Y-131021724D01*
X89322388Y-131085745D01*
X89654200Y-130972795D01*
X89654200Y-128127000D01*
X89908200Y-128127000D01*
X89908200Y-130972795D01*
X90240012Y-131085745D01*
X90480847Y-131021724D01*
X91200979Y-130600144D01*
X91704962Y-129935072D01*
X91916070Y-129127760D01*
X91916070Y-128127000D01*
X89908200Y-128127000D01*
X89654200Y-128127000D01*
X85945800Y-128127000D01*
X85691800Y-128127000D01*
X83683930Y-128127000D01*
X81762509Y-128127000D01*
X81761625Y-126872240D01*
X83683930Y-126872240D01*
X83683930Y-127873000D01*
X85691800Y-127873000D01*
X85691800Y-125027205D01*
X85945800Y-125027205D01*
X85945800Y-127873000D01*
X89654200Y-127873000D01*
X89654200Y-125027205D01*
X89908200Y-125027205D01*
X89908200Y-127873000D01*
X91916070Y-127873000D01*
X91916070Y-126872240D01*
X91704962Y-126064928D01*
X91200979Y-125399856D01*
X90480847Y-124978276D01*
X90240012Y-124914255D01*
X89908200Y-125027205D01*
X89654200Y-125027205D01*
X89322388Y-124914255D01*
X89081553Y-124978276D01*
X88361421Y-125399856D01*
X87857438Y-126064928D01*
X87800000Y-126284580D01*
X87742562Y-126064928D01*
X87238579Y-125399856D01*
X86518447Y-124978276D01*
X86277612Y-124914255D01*
X85945800Y-125027205D01*
X85691800Y-125027205D01*
X85359988Y-124914255D01*
X85119153Y-124978276D01*
X84399021Y-125399856D01*
X83895038Y-126064928D01*
X83683930Y-126872240D01*
X81761625Y-126872240D01*
X81757089Y-120436385D01*
X93863089Y-120377618D01*
X93872839Y-134290000D01*
G36*
X78833693Y-106076729D02*
X78892302Y-116763000D01*
X65210000Y-116763000D01*
X65210000Y-113940012D01*
X68414255Y-113940012D01*
X68478276Y-114180847D01*
X68899856Y-114900979D01*
X69564928Y-115404962D01*
X70372240Y-115616070D01*
X71373000Y-115616070D01*
X71373000Y-113608200D01*
X71627000Y-113608200D01*
X71627000Y-115616070D01*
X72627760Y-115616070D01*
X73435072Y-115404962D01*
X74100144Y-114900979D01*
X74521724Y-114180847D01*
X74585745Y-113940012D01*
X74472795Y-113608200D01*
X71627000Y-113608200D01*
X71373000Y-113608200D01*
X68527205Y-113608200D01*
X68414255Y-113940012D01*
X65210000Y-113940012D01*
X65210000Y-109977612D01*
X68414255Y-109977612D01*
X68478276Y-110218447D01*
X68899856Y-110938579D01*
X69564928Y-111442562D01*
X69784580Y-111500000D01*
X69564928Y-111557438D01*
X68899856Y-112061421D01*
X68478276Y-112781553D01*
X68414255Y-113022388D01*
X68527205Y-113354200D01*
X71373000Y-113354200D01*
X71373000Y-109645800D01*
X71627000Y-109645800D01*
X71627000Y-113354200D01*
X74472795Y-113354200D01*
X74585745Y-113022388D01*
X74521724Y-112781553D01*
X74100144Y-112061421D01*
X73435072Y-111557438D01*
X73215420Y-111500000D01*
X73435072Y-111442562D01*
X74100144Y-110938579D01*
X74521724Y-110218447D01*
X74585745Y-109977612D01*
X74472795Y-109645800D01*
X71627000Y-109645800D01*
X71373000Y-109645800D01*
X68527205Y-109645800D01*
X68414255Y-109977612D01*
X65210000Y-109977612D01*
X65210000Y-109059988D01*
X68414255Y-109059988D01*
X68527205Y-109391800D01*
X71373000Y-109391800D01*
X71373000Y-107383930D01*
X71627000Y-107383930D01*
X71627000Y-109391800D01*
X74472795Y-109391800D01*
X74585745Y-109059988D01*
X74521724Y-108819153D01*
X74100144Y-108099021D01*
X73435072Y-107595038D01*
X72627760Y-107383930D01*
X71627000Y-107383930D01*
X71373000Y-107383930D01*
X70372240Y-107383930D01*
X69564928Y-107595038D01*
X68899856Y-108099021D01*
X68478276Y-108819153D01*
X68414255Y-109059988D01*
X65210000Y-109059988D01*
X65210000Y-106047473D01*
X78833693Y-106076729D01*
X78833693Y-106076729D01*
G37*
X78833693Y-106076729D02*
X78892302Y-116763000D01*
X65210000Y-116763000D01*
X65210000Y-113940012D01*
X68414255Y-113940012D01*
X68478276Y-114180847D01*
X68899856Y-114900979D01*
X69564928Y-115404962D01*
X70372240Y-115616070D01*
X71373000Y-115616070D01*
X71373000Y-113608200D01*
X71627000Y-113608200D01*
X71627000Y-115616070D01*
X72627760Y-115616070D01*
X73435072Y-115404962D01*
X74100144Y-114900979D01*
X74521724Y-114180847D01*
X74585745Y-113940012D01*
X74472795Y-113608200D01*
X71627000Y-113608200D01*
X71373000Y-113608200D01*
X68527205Y-113608200D01*
X68414255Y-113940012D01*
X65210000Y-113940012D01*
X65210000Y-109977612D01*
X68414255Y-109977612D01*
X68478276Y-110218447D01*
X68899856Y-110938579D01*
X69564928Y-111442562D01*
X69784580Y-111500000D01*
X69564928Y-111557438D01*
X68899856Y-112061421D01*
X68478276Y-112781553D01*
X68414255Y-113022388D01*
X68527205Y-113354200D01*
X71373000Y-113354200D01*
X71373000Y-109645800D01*
X71627000Y-109645800D01*
X71627000Y-113354200D01*
X74472795Y-113354200D01*
X74585745Y-113022388D01*
X74521724Y-112781553D01*
X74100144Y-112061421D01*
X73435072Y-111557438D01*
X73215420Y-111500000D01*
X73435072Y-111442562D01*
X74100144Y-110938579D01*
X74521724Y-110218447D01*
X74585745Y-109977612D01*
X74472795Y-109645800D01*
X71627000Y-109645800D01*
X71373000Y-109645800D01*
X68527205Y-109645800D01*
X68414255Y-109977612D01*
X65210000Y-109977612D01*
X65210000Y-109059988D01*
X68414255Y-109059988D01*
X68527205Y-109391800D01*
X71373000Y-109391800D01*
X71373000Y-107383930D01*
X71627000Y-107383930D01*
X71627000Y-109391800D01*
X74472795Y-109391800D01*
X74585745Y-109059988D01*
X74521724Y-108819153D01*
X74100144Y-108099021D01*
X73435072Y-107595038D01*
X72627760Y-107383930D01*
X71627000Y-107383930D01*
X71373000Y-107383930D01*
X70372240Y-107383930D01*
X69564928Y-107595038D01*
X68899856Y-108099021D01*
X68478276Y-108819153D01*
X68414255Y-109059988D01*
X65210000Y-109059988D01*
X65210000Y-106047473D01*
X78833693Y-106076729D01*
G36*
X81062066Y-66853321D02*
X65426535Y-66892681D01*
X65387465Y-56207000D01*
X80983928Y-56207000D01*
X81062066Y-66853321D01*
X81062066Y-66853321D01*
G37*
X81062066Y-66853321D02*
X65426535Y-66892681D01*
X65387465Y-56207000D01*
X80983928Y-56207000D01*
X81062066Y-66853321D01*
G36*
X101963102Y-60707328D02*
X101972879Y-70972792D01*
X96017310Y-70963069D01*
X95968153Y-70913826D01*
X94816326Y-70435546D01*
X93569146Y-70434457D01*
X92416485Y-70910727D01*
X92370017Y-70957114D01*
X89977367Y-70953208D01*
X90006854Y-60770426D01*
X90010347Y-60764879D01*
X90018575Y-60718337D01*
X90018556Y-60716789D01*
X101949243Y-60697133D01*
X101963102Y-60707328D01*
X101963102Y-60707328D01*
G37*
X101963102Y-60707328D02*
X101972879Y-70972792D01*
X96017310Y-70963069D01*
X95968153Y-70913826D01*
X94816326Y-70435546D01*
X93569146Y-70434457D01*
X92416485Y-70910727D01*
X92370017Y-70957114D01*
X89977367Y-70953208D01*
X90006854Y-60770426D01*
X90010347Y-60764879D01*
X90018575Y-60718337D01*
X90018556Y-60716789D01*
X101949243Y-60697133D01*
X101963102Y-60707328D01*
G36*
X101294914Y-108952605D02*
X88856614Y-108913399D01*
X88827387Y-99336604D01*
X92983839Y-99323686D01*
X93563674Y-99564454D01*
X94810854Y-99565543D01*
X95414476Y-99316131D01*
X101441058Y-99297401D01*
X101294914Y-108952605D01*
X101294914Y-108952605D01*
G37*
X101294914Y-108952605D02*
X88856614Y-108913399D01*
X88827387Y-99336604D01*
X92983839Y-99323686D01*
X93563674Y-99564454D01*
X94810854Y-99565543D01*
X95414476Y-99316131D01*
X101441058Y-99297401D01*
X101294914Y-108952605D01*
G36*
X92803631Y-49243000D02*
X83056819Y-49243000D01*
X83037556Y-35710000D01*
X92870959Y-35710000D01*
X92803631Y-49243000D01*
X92803631Y-49243000D01*
G37*
X92803631Y-49243000D02*
X83056819Y-49243000D01*
X83037556Y-35710000D01*
X92870959Y-35710000D01*
X92803631Y-49243000D01*
G36*
X124075124Y-88666744D02*
X124074457Y-89430854D01*
X124550727Y-90583515D01*
X125431847Y-91466174D01*
X126583674Y-91944454D01*
X127830854Y-91945543D01*
X128983515Y-91469273D01*
X129866174Y-90588153D01*
X130344454Y-89436326D01*
X130345042Y-88763475D01*
X142763000Y-88955056D01*
X142763000Y-98953059D01*
X127958330Y-98959978D01*
X127736433Y-98867838D01*
X126688166Y-98866923D01*
X126461264Y-98960677D01*
X121617120Y-98962941D01*
X121626878Y-88628973D01*
X124075124Y-88666744D01*
X124075124Y-88666744D01*
G37*
X124075124Y-88666744D02*
X124074457Y-89430854D01*
X124550727Y-90583515D01*
X125431847Y-91466174D01*
X126583674Y-91944454D01*
X127830854Y-91945543D01*
X128983515Y-91469273D01*
X129866174Y-90588153D01*
X130344454Y-89436326D01*
X130345042Y-88763475D01*
X142763000Y-88955056D01*
X142763000Y-98953059D01*
X127958330Y-98959978D01*
X127736433Y-98867838D01*
X126688166Y-98866923D01*
X126461264Y-98960677D01*
X121617120Y-98962941D01*
X121626878Y-88628973D01*
X124075124Y-88666744D01*
G36*
X131623000Y-75210000D02*
X131633006Y-75259410D01*
X131661447Y-75301035D01*
X131703841Y-75328315D01*
X131751029Y-75336996D01*
X142734522Y-75248021D01*
X142861475Y-85863238D01*
X128353132Y-85890143D01*
X127836326Y-85675546D01*
X126589146Y-85674457D01*
X126056841Y-85894401D01*
X121546450Y-85902765D01*
X121528715Y-81810854D01*
X124074457Y-81810854D01*
X124550727Y-82963515D01*
X125431847Y-83846174D01*
X126583674Y-84324454D01*
X127830854Y-84325543D01*
X128983515Y-83849273D01*
X129866174Y-82968153D01*
X130344454Y-81816326D01*
X130345543Y-80569146D01*
X129869273Y-79416485D01*
X128988153Y-78533826D01*
X127836326Y-78055546D01*
X126589146Y-78054457D01*
X125436485Y-78530727D01*
X124553826Y-79411847D01*
X124075546Y-80563674D01*
X124074457Y-81810854D01*
X121528715Y-81810854D01*
X121477552Y-70007000D01*
X131623000Y-70007000D01*
X131623000Y-75210000D01*
X131623000Y-75210000D01*
G37*
X131623000Y-75210000D02*
X131633006Y-75259410D01*
X131661447Y-75301035D01*
X131703841Y-75328315D01*
X131751029Y-75336996D01*
X142734522Y-75248021D01*
X142861475Y-85863238D01*
X128353132Y-85890143D01*
X127836326Y-85675546D01*
X126589146Y-85674457D01*
X126056841Y-85894401D01*
X121546450Y-85902765D01*
X121528715Y-81810854D01*
X124074457Y-81810854D01*
X124550727Y-82963515D01*
X125431847Y-83846174D01*
X126583674Y-84324454D01*
X127830854Y-84325543D01*
X128983515Y-83849273D01*
X129866174Y-82968153D01*
X130344454Y-81816326D01*
X130345543Y-80569146D01*
X129869273Y-79416485D01*
X128988153Y-78533826D01*
X127836326Y-78055546D01*
X126589146Y-78054457D01*
X125436485Y-78530727D01*
X124553826Y-79411847D01*
X124075546Y-80563674D01*
X124074457Y-81810854D01*
X121528715Y-81810854D01*
X121477552Y-70007000D01*
X131623000Y-70007000D01*
X131623000Y-75210000D01*
G36*
X148881628Y-36026797D02*
X148734364Y-49712492D01*
X136586365Y-49663508D01*
X136517641Y-36007203D01*
X148881628Y-36026797D01*
X148881628Y-36026797D01*
G37*
X148881628Y-36026797D02*
X148734364Y-49712492D01*
X136586365Y-49663508D01*
X136517641Y-36007203D01*
X148881628Y-36026797D01*
G36*
X163514335Y-62623000D02*
X152738013Y-62623000D01*
X152855998Y-47776545D01*
X163671646Y-47737464D01*
X163514335Y-62623000D01*
X163514335Y-62623000D01*
G37*
X163514335Y-62623000D02*
X152738013Y-62623000D01*
X152855998Y-47776545D01*
X163671646Y-47737464D01*
X163514335Y-62623000D01*
G36*
X80722682Y-50710081D02*
X80732719Y-50759484D01*
X80761186Y-50801091D01*
X80803598Y-50828344D01*
X80849682Y-50837000D01*
X94451161Y-50837000D01*
X94500571Y-50826994D01*
X94542196Y-50798553D01*
X94569476Y-50756159D01*
X94578161Y-50710321D01*
X94616016Y-35710000D01*
X135102912Y-35710000D01*
X135093000Y-51559921D01*
X135102975Y-51609337D01*
X135131390Y-51650979D01*
X135173767Y-51678286D01*
X135220080Y-51687000D01*
X151053299Y-51677079D01*
X151083000Y-64260300D01*
X151093123Y-64309686D01*
X151121662Y-64351243D01*
X151164120Y-64378423D01*
X151210000Y-64387000D01*
X163494197Y-64387000D01*
X163790000Y-95643592D01*
X163790000Y-119045901D01*
X163753737Y-134290000D01*
X95787106Y-134290000D01*
X95789311Y-130759482D01*
X155664336Y-130759482D01*
X156246950Y-132169515D01*
X157324811Y-133249259D01*
X158733825Y-133834333D01*
X160259482Y-133835664D01*
X161669515Y-133253050D01*
X162749259Y-132175189D01*
X163334333Y-130766175D01*
X163335664Y-129240518D01*
X162753050Y-127830485D01*
X161675189Y-126750741D01*
X160266175Y-126165667D01*
X158740518Y-126164336D01*
X157330485Y-126746950D01*
X156250741Y-127824811D01*
X155665667Y-129233825D01*
X155664336Y-130759482D01*
X95789311Y-130759482D01*
X95797000Y-118450079D01*
X95787025Y-118400663D01*
X95758610Y-118359021D01*
X95716233Y-118331714D01*
X95670576Y-118323001D01*
X80598602Y-118254625D01*
X80666998Y-104360625D01*
X80657236Y-104311166D01*
X80629000Y-104269402D01*
X80586741Y-104241914D01*
X80540325Y-104233000D01*
X65210000Y-104193742D01*
X65210000Y-99323795D01*
X69364716Y-99323795D01*
X69613106Y-99924943D01*
X70072637Y-100385278D01*
X70673352Y-100634716D01*
X71323795Y-100635284D01*
X71924943Y-100386894D01*
X72385278Y-99927363D01*
X72634716Y-99326648D01*
X72634718Y-99323795D01*
X79864716Y-99323795D01*
X80113106Y-99924943D01*
X80572637Y-100385278D01*
X81173352Y-100634716D01*
X81823795Y-100635284D01*
X82424943Y-100386894D01*
X82885278Y-99927363D01*
X83134716Y-99326648D01*
X83135284Y-98676205D01*
X82886894Y-98075057D01*
X82427363Y-97614722D01*
X81826648Y-97365284D01*
X81176205Y-97364716D01*
X80575057Y-97613106D01*
X80114722Y-98072637D01*
X79865284Y-98673352D01*
X79864716Y-99323795D01*
X72634718Y-99323795D01*
X72635284Y-98676205D01*
X72386894Y-98075057D01*
X71927363Y-97614722D01*
X71326648Y-97365284D01*
X70676205Y-97364716D01*
X70075057Y-97613106D01*
X69614722Y-98072637D01*
X69365284Y-98673352D01*
X69364716Y-99323795D01*
X65210000Y-99323795D01*
X65210000Y-96900000D01*
X86233000Y-96900000D01*
X86233000Y-110589385D01*
X86243006Y-110638795D01*
X86271447Y-110680420D01*
X86313841Y-110707700D01*
X86360072Y-110716385D01*
X102990072Y-110707000D01*
X103039476Y-110696966D01*
X103081085Y-110668502D01*
X103108341Y-110626092D01*
X103117000Y-110580000D01*
X103117000Y-97019047D01*
X103106994Y-96969637D01*
X103078553Y-96928012D01*
X103036159Y-96900732D01*
X102990909Y-96892050D01*
X97324633Y-96851488D01*
X97325543Y-95809146D01*
X96849273Y-94656485D01*
X95968153Y-93773826D01*
X94816326Y-93295546D01*
X93569146Y-93294457D01*
X92416485Y-93770727D01*
X91533826Y-94651847D01*
X91055546Y-95803674D01*
X91054670Y-96806604D01*
X86360909Y-96773003D01*
X86311429Y-96782655D01*
X86269602Y-96810797D01*
X86242019Y-96852995D01*
X86233000Y-96900000D01*
X65210000Y-96900000D01*
X65210000Y-89323795D01*
X69364716Y-89323795D01*
X69613106Y-89924943D01*
X70072637Y-90385278D01*
X70673352Y-90634716D01*
X71323795Y-90635284D01*
X71924943Y-90386894D01*
X72385278Y-89927363D01*
X72634716Y-89326648D01*
X72634718Y-89323795D01*
X79864716Y-89323795D01*
X80113106Y-89924943D01*
X80572637Y-90385278D01*
X81173352Y-90634716D01*
X81823795Y-90635284D01*
X82424943Y-90386894D01*
X82885278Y-89927363D01*
X83091446Y-89430854D01*
X91054457Y-89430854D01*
X91530727Y-90583515D01*
X92411847Y-91466174D01*
X93563674Y-91944454D01*
X94810854Y-91945543D01*
X95963515Y-91469273D01*
X96846174Y-90588153D01*
X97324454Y-89436326D01*
X97325543Y-88189146D01*
X96849273Y-87036485D01*
X95968153Y-86153826D01*
X94816326Y-85675546D01*
X93569146Y-85674457D01*
X92416485Y-86150727D01*
X91533826Y-87031847D01*
X91055546Y-88183674D01*
X91054457Y-89430854D01*
X83091446Y-89430854D01*
X83134716Y-89326648D01*
X83135284Y-88676205D01*
X82886894Y-88075057D01*
X82427363Y-87614722D01*
X81826648Y-87365284D01*
X81176205Y-87364716D01*
X80575057Y-87613106D01*
X80114722Y-88072637D01*
X79865284Y-88673352D01*
X79864716Y-89323795D01*
X72634718Y-89323795D01*
X72635284Y-88676205D01*
X72386894Y-88075057D01*
X71927363Y-87614722D01*
X71326648Y-87365284D01*
X70676205Y-87364716D01*
X70075057Y-87613106D01*
X69614722Y-88072637D01*
X69365284Y-88673352D01*
X69364716Y-89323795D01*
X65210000Y-89323795D01*
X65210000Y-81810854D01*
X91054457Y-81810854D01*
X91530727Y-82963515D01*
X92411847Y-83846174D01*
X93563674Y-84324454D01*
X94810854Y-84325543D01*
X95963515Y-83849273D01*
X96846174Y-82968153D01*
X97324454Y-81816326D01*
X97325543Y-80569146D01*
X96849273Y-79416485D01*
X95968153Y-78533826D01*
X94816326Y-78055546D01*
X93569146Y-78054457D01*
X92416485Y-78530727D01*
X91533826Y-79411847D01*
X91055546Y-80563674D01*
X91054457Y-81810854D01*
X65210000Y-81810854D01*
X65210000Y-79323795D01*
X69364716Y-79323795D01*
X69613106Y-79924943D01*
X70072637Y-80385278D01*
X70673352Y-80634716D01*
X71323795Y-80635284D01*
X71924943Y-80386894D01*
X72385278Y-79927363D01*
X72634716Y-79326648D01*
X72634718Y-79323795D01*
X79864716Y-79323795D01*
X80113106Y-79924943D01*
X80572637Y-80385278D01*
X81173352Y-80634716D01*
X81823795Y-80635284D01*
X82424943Y-80386894D01*
X82885278Y-79927363D01*
X83134716Y-79326648D01*
X83135284Y-78676205D01*
X82886894Y-78075057D01*
X82427363Y-77614722D01*
X81826648Y-77365284D01*
X81176205Y-77364716D01*
X80575057Y-77613106D01*
X80114722Y-78072637D01*
X79865284Y-78673352D01*
X79864716Y-79323795D01*
X72634718Y-79323795D01*
X72635284Y-78676205D01*
X72386894Y-78075057D01*
X71927363Y-77614722D01*
X71326648Y-77365284D01*
X70676205Y-77364716D01*
X70075057Y-77613106D01*
X69614722Y-78072637D01*
X69365284Y-78673352D01*
X69364716Y-79323795D01*
X65210000Y-79323795D01*
X65210000Y-70927000D01*
X82980000Y-70927000D01*
X83029410Y-70916994D01*
X83071035Y-70888553D01*
X83098315Y-70846159D01*
X83106998Y-70800656D01*
X83114362Y-69375665D01*
X83134716Y-69326648D01*
X83135284Y-68676205D01*
X83118191Y-68634837D01*
X83169016Y-58800000D01*
X87373000Y-58800000D01*
X87373000Y-73280000D01*
X87383006Y-73329410D01*
X87411447Y-73371035D01*
X87453841Y-73398315D01*
X87499488Y-73406999D01*
X91055129Y-73421327D01*
X91054457Y-74190854D01*
X91530727Y-75343515D01*
X92411847Y-76226174D01*
X93563674Y-76704454D01*
X94810854Y-76705543D01*
X95963515Y-76229273D01*
X96846174Y-75348153D01*
X97324454Y-74196326D01*
X97325109Y-73446594D01*
X103386405Y-73471019D01*
X103435855Y-73461212D01*
X103477594Y-73432940D01*
X103505045Y-73390655D01*
X103513914Y-73344920D01*
X103544845Y-68980792D01*
X119623002Y-68980792D01*
X119652637Y-73732236D01*
X119643053Y-73748243D01*
X119635800Y-73791489D01*
X119836228Y-101059191D01*
X119846597Y-101108527D01*
X119875343Y-101149941D01*
X119917937Y-101176909D01*
X119963480Y-101185258D01*
X124575283Y-101176007D01*
X124574543Y-102024214D01*
X124974853Y-102993038D01*
X125715443Y-103734922D01*
X126683567Y-104136922D01*
X127731834Y-104137837D01*
X128700658Y-103737527D01*
X129442542Y-102996937D01*
X129844542Y-102028813D01*
X129845296Y-101165435D01*
X144371281Y-101136296D01*
X144420671Y-101126191D01*
X144462238Y-101097667D01*
X144489433Y-101055218D01*
X144498026Y-101009383D01*
X144515257Y-75963403D01*
X156264682Y-75963403D01*
X156543455Y-76638086D01*
X157059199Y-77154730D01*
X157733395Y-77434681D01*
X158463403Y-77435318D01*
X159138086Y-77156545D01*
X159654730Y-76640801D01*
X159934681Y-75966605D01*
X159935318Y-75236597D01*
X159656545Y-74561914D01*
X159140801Y-74045270D01*
X158466605Y-73765319D01*
X157736597Y-73764682D01*
X157061914Y-74043455D01*
X156545270Y-74559199D01*
X156265319Y-75233395D01*
X156264682Y-75963403D01*
X144515257Y-75963403D01*
X144517000Y-73430087D01*
X144507028Y-73380670D01*
X144478616Y-73339026D01*
X144436240Y-73311717D01*
X144390000Y-73303000D01*
X133721147Y-73303000D01*
X133284777Y-73295208D01*
X133232071Y-70363403D01*
X142164682Y-70363403D01*
X142443455Y-71038086D01*
X142959199Y-71554730D01*
X143633395Y-71834681D01*
X144363403Y-71835318D01*
X145038086Y-71556545D01*
X145554730Y-71040801D01*
X145834681Y-70366605D01*
X145835318Y-69636597D01*
X145556545Y-68961914D01*
X145040801Y-68445270D01*
X144366605Y-68165319D01*
X143636597Y-68164682D01*
X142961914Y-68443455D01*
X142445270Y-68959199D01*
X142165319Y-69633395D01*
X142164682Y-70363403D01*
X133232071Y-70363403D01*
X133206979Y-68967717D01*
X133196087Y-68918495D01*
X133166903Y-68877388D01*
X133124025Y-68850875D01*
X133079905Y-68843000D01*
X128409373Y-68846504D01*
X128983515Y-68609273D01*
X129866174Y-67728153D01*
X130344454Y-66576326D01*
X130345543Y-65329146D01*
X129869273Y-64176485D01*
X128988153Y-63293826D01*
X127836326Y-62815546D01*
X126589146Y-62814457D01*
X125436485Y-63290727D01*
X124553826Y-64171847D01*
X124075546Y-65323674D01*
X124074457Y-66570854D01*
X124550727Y-67723515D01*
X125431847Y-68606174D01*
X126014952Y-68848300D01*
X119749905Y-68853000D01*
X119700502Y-68863043D01*
X119658899Y-68891515D01*
X119631651Y-68933930D01*
X119623002Y-68980792D01*
X103544845Y-68980792D01*
X103616997Y-58800900D01*
X103607341Y-58751420D01*
X103579196Y-58709595D01*
X103536996Y-58682016D01*
X103490000Y-58673000D01*
X87500000Y-58673000D01*
X87450590Y-58683006D01*
X87408965Y-58711447D01*
X87381685Y-58753841D01*
X87373000Y-58800000D01*
X83169016Y-58800000D01*
X83186777Y-55363403D01*
X142164682Y-55363403D01*
X142443455Y-56038086D01*
X142959199Y-56554730D01*
X143633395Y-56834681D01*
X144363403Y-56835318D01*
X145038086Y-56556545D01*
X145554730Y-56040801D01*
X145834681Y-55366605D01*
X145835318Y-54636597D01*
X145556545Y-53961914D01*
X145040801Y-53445270D01*
X144366605Y-53165319D01*
X143636597Y-53164682D01*
X142961914Y-53443455D01*
X142445270Y-53959199D01*
X142165319Y-54633395D01*
X142164682Y-55363403D01*
X83186777Y-55363403D01*
X83186998Y-55320656D01*
X83177248Y-55271195D01*
X83149023Y-55229424D01*
X83106770Y-55201926D01*
X83059790Y-55193000D01*
X65210000Y-55222504D01*
X65210000Y-40759482D01*
X65664336Y-40759482D01*
X66246950Y-42169515D01*
X67324811Y-43249259D01*
X68733825Y-43834333D01*
X70259482Y-43835664D01*
X71669515Y-43253050D01*
X72749259Y-42175189D01*
X73334333Y-40766175D01*
X73335664Y-39240518D01*
X72753050Y-37830485D01*
X71675189Y-36750741D01*
X70266175Y-36165667D01*
X68740518Y-36164336D01*
X67330485Y-36746950D01*
X66250741Y-37824811D01*
X65665667Y-39233825D01*
X65664336Y-40759482D01*
X65210000Y-40759482D01*
X65210000Y-35710000D01*
X80713153Y-35710000D01*
X80722682Y-50710081D01*
X80722682Y-50710081D01*
G37*
X80722682Y-50710081D02*
X80732719Y-50759484D01*
X80761186Y-50801091D01*
X80803598Y-50828344D01*
X80849682Y-50837000D01*
X94451161Y-50837000D01*
X94500571Y-50826994D01*
X94542196Y-50798553D01*
X94569476Y-50756159D01*
X94578161Y-50710321D01*
X94616016Y-35710000D01*
X135102912Y-35710000D01*
X135093000Y-51559921D01*
X135102975Y-51609337D01*
X135131390Y-51650979D01*
X135173767Y-51678286D01*
X135220080Y-51687000D01*
X151053299Y-51677079D01*
X151083000Y-64260300D01*
X151093123Y-64309686D01*
X151121662Y-64351243D01*
X151164120Y-64378423D01*
X151210000Y-64387000D01*
X163494197Y-64387000D01*
X163790000Y-95643592D01*
X163790000Y-119045901D01*
X163753737Y-134290000D01*
X95787106Y-134290000D01*
X95789311Y-130759482D01*
X155664336Y-130759482D01*
X156246950Y-132169515D01*
X157324811Y-133249259D01*
X158733825Y-133834333D01*
X160259482Y-133835664D01*
X161669515Y-133253050D01*
X162749259Y-132175189D01*
X163334333Y-130766175D01*
X163335664Y-129240518D01*
X162753050Y-127830485D01*
X161675189Y-126750741D01*
X160266175Y-126165667D01*
X158740518Y-126164336D01*
X157330485Y-126746950D01*
X156250741Y-127824811D01*
X155665667Y-129233825D01*
X155664336Y-130759482D01*
X95789311Y-130759482D01*
X95797000Y-118450079D01*
X95787025Y-118400663D01*
X95758610Y-118359021D01*
X95716233Y-118331714D01*
X95670576Y-118323001D01*
X80598602Y-118254625D01*
X80666998Y-104360625D01*
X80657236Y-104311166D01*
X80629000Y-104269402D01*
X80586741Y-104241914D01*
X80540325Y-104233000D01*
X65210000Y-104193742D01*
X65210000Y-99323795D01*
X69364716Y-99323795D01*
X69613106Y-99924943D01*
X70072637Y-100385278D01*
X70673352Y-100634716D01*
X71323795Y-100635284D01*
X71924943Y-100386894D01*
X72385278Y-99927363D01*
X72634716Y-99326648D01*
X72634718Y-99323795D01*
X79864716Y-99323795D01*
X80113106Y-99924943D01*
X80572637Y-100385278D01*
X81173352Y-100634716D01*
X81823795Y-100635284D01*
X82424943Y-100386894D01*
X82885278Y-99927363D01*
X83134716Y-99326648D01*
X83135284Y-98676205D01*
X82886894Y-98075057D01*
X82427363Y-97614722D01*
X81826648Y-97365284D01*
X81176205Y-97364716D01*
X80575057Y-97613106D01*
X80114722Y-98072637D01*
X79865284Y-98673352D01*
X79864716Y-99323795D01*
X72634718Y-99323795D01*
X72635284Y-98676205D01*
X72386894Y-98075057D01*
X71927363Y-97614722D01*
X71326648Y-97365284D01*
X70676205Y-97364716D01*
X70075057Y-97613106D01*
X69614722Y-98072637D01*
X69365284Y-98673352D01*
X69364716Y-99323795D01*
X65210000Y-99323795D01*
X65210000Y-96900000D01*
X86233000Y-96900000D01*
X86233000Y-110589385D01*
X86243006Y-110638795D01*
X86271447Y-110680420D01*
X86313841Y-110707700D01*
X86360072Y-110716385D01*
X102990072Y-110707000D01*
X103039476Y-110696966D01*
X103081085Y-110668502D01*
X103108341Y-110626092D01*
X103117000Y-110580000D01*
X103117000Y-97019047D01*
X103106994Y-96969637D01*
X103078553Y-96928012D01*
X103036159Y-96900732D01*
X102990909Y-96892050D01*
X97324633Y-96851488D01*
X97325543Y-95809146D01*
X96849273Y-94656485D01*
X95968153Y-93773826D01*
X94816326Y-93295546D01*
X93569146Y-93294457D01*
X92416485Y-93770727D01*
X91533826Y-94651847D01*
X91055546Y-95803674D01*
X91054670Y-96806604D01*
X86360909Y-96773003D01*
X86311429Y-96782655D01*
X86269602Y-96810797D01*
X86242019Y-96852995D01*
X86233000Y-96900000D01*
X65210000Y-96900000D01*
X65210000Y-89323795D01*
X69364716Y-89323795D01*
X69613106Y-89924943D01*
X70072637Y-90385278D01*
X70673352Y-90634716D01*
X71323795Y-90635284D01*
X71924943Y-90386894D01*
X72385278Y-89927363D01*
X72634716Y-89326648D01*
X72634718Y-89323795D01*
X79864716Y-89323795D01*
X80113106Y-89924943D01*
X80572637Y-90385278D01*
X81173352Y-90634716D01*
X81823795Y-90635284D01*
X82424943Y-90386894D01*
X82885278Y-89927363D01*
X83091446Y-89430854D01*
X91054457Y-89430854D01*
X91530727Y-90583515D01*
X92411847Y-91466174D01*
X93563674Y-91944454D01*
X94810854Y-91945543D01*
X95963515Y-91469273D01*
X96846174Y-90588153D01*
X97324454Y-89436326D01*
X97325543Y-88189146D01*
X96849273Y-87036485D01*
X95968153Y-86153826D01*
X94816326Y-85675546D01*
X93569146Y-85674457D01*
X92416485Y-86150727D01*
X91533826Y-87031847D01*
X91055546Y-88183674D01*
X91054457Y-89430854D01*
X83091446Y-89430854D01*
X83134716Y-89326648D01*
X83135284Y-88676205D01*
X82886894Y-88075057D01*
X82427363Y-87614722D01*
X81826648Y-87365284D01*
X81176205Y-87364716D01*
X80575057Y-87613106D01*
X80114722Y-88072637D01*
X79865284Y-88673352D01*
X79864716Y-89323795D01*
X72634718Y-89323795D01*
X72635284Y-88676205D01*
X72386894Y-88075057D01*
X71927363Y-87614722D01*
X71326648Y-87365284D01*
X70676205Y-87364716D01*
X70075057Y-87613106D01*
X69614722Y-88072637D01*
X69365284Y-88673352D01*
X69364716Y-89323795D01*
X65210000Y-89323795D01*
X65210000Y-81810854D01*
X91054457Y-81810854D01*
X91530727Y-82963515D01*
X92411847Y-83846174D01*
X93563674Y-84324454D01*
X94810854Y-84325543D01*
X95963515Y-83849273D01*
X96846174Y-82968153D01*
X97324454Y-81816326D01*
X97325543Y-80569146D01*
X96849273Y-79416485D01*
X95968153Y-78533826D01*
X94816326Y-78055546D01*
X93569146Y-78054457D01*
X92416485Y-78530727D01*
X91533826Y-79411847D01*
X91055546Y-80563674D01*
X91054457Y-81810854D01*
X65210000Y-81810854D01*
X65210000Y-79323795D01*
X69364716Y-79323795D01*
X69613106Y-79924943D01*
X70072637Y-80385278D01*
X70673352Y-80634716D01*
X71323795Y-80635284D01*
X71924943Y-80386894D01*
X72385278Y-79927363D01*
X72634716Y-79326648D01*
X72634718Y-79323795D01*
X79864716Y-79323795D01*
X80113106Y-79924943D01*
X80572637Y-80385278D01*
X81173352Y-80634716D01*
X81823795Y-80635284D01*
X82424943Y-80386894D01*
X82885278Y-79927363D01*
X83134716Y-79326648D01*
X83135284Y-78676205D01*
X82886894Y-78075057D01*
X82427363Y-77614722D01*
X81826648Y-77365284D01*
X81176205Y-77364716D01*
X80575057Y-77613106D01*
X80114722Y-78072637D01*
X79865284Y-78673352D01*
X79864716Y-79323795D01*
X72634718Y-79323795D01*
X72635284Y-78676205D01*
X72386894Y-78075057D01*
X71927363Y-77614722D01*
X71326648Y-77365284D01*
X70676205Y-77364716D01*
X70075057Y-77613106D01*
X69614722Y-78072637D01*
X69365284Y-78673352D01*
X69364716Y-79323795D01*
X65210000Y-79323795D01*
X65210000Y-70927000D01*
X82980000Y-70927000D01*
X83029410Y-70916994D01*
X83071035Y-70888553D01*
X83098315Y-70846159D01*
X83106998Y-70800656D01*
X83114362Y-69375665D01*
X83134716Y-69326648D01*
X83135284Y-68676205D01*
X83118191Y-68634837D01*
X83169016Y-58800000D01*
X87373000Y-58800000D01*
X87373000Y-73280000D01*
X87383006Y-73329410D01*
X87411447Y-73371035D01*
X87453841Y-73398315D01*
X87499488Y-73406999D01*
X91055129Y-73421327D01*
X91054457Y-74190854D01*
X91530727Y-75343515D01*
X92411847Y-76226174D01*
X93563674Y-76704454D01*
X94810854Y-76705543D01*
X95963515Y-76229273D01*
X96846174Y-75348153D01*
X97324454Y-74196326D01*
X97325109Y-73446594D01*
X103386405Y-73471019D01*
X103435855Y-73461212D01*
X103477594Y-73432940D01*
X103505045Y-73390655D01*
X103513914Y-73344920D01*
X103544845Y-68980792D01*
X119623002Y-68980792D01*
X119652637Y-73732236D01*
X119643053Y-73748243D01*
X119635800Y-73791489D01*
X119836228Y-101059191D01*
X119846597Y-101108527D01*
X119875343Y-101149941D01*
X119917937Y-101176909D01*
X119963480Y-101185258D01*
X124575283Y-101176007D01*
X124574543Y-102024214D01*
X124974853Y-102993038D01*
X125715443Y-103734922D01*
X126683567Y-104136922D01*
X127731834Y-104137837D01*
X128700658Y-103737527D01*
X129442542Y-102996937D01*
X129844542Y-102028813D01*
X129845296Y-101165435D01*
X144371281Y-101136296D01*
X144420671Y-101126191D01*
X144462238Y-101097667D01*
X144489433Y-101055218D01*
X144498026Y-101009383D01*
X144515257Y-75963403D01*
X156264682Y-75963403D01*
X156543455Y-76638086D01*
X157059199Y-77154730D01*
X157733395Y-77434681D01*
X158463403Y-77435318D01*
X159138086Y-77156545D01*
X159654730Y-76640801D01*
X159934681Y-75966605D01*
X159935318Y-75236597D01*
X159656545Y-74561914D01*
X159140801Y-74045270D01*
X158466605Y-73765319D01*
X157736597Y-73764682D01*
X157061914Y-74043455D01*
X156545270Y-74559199D01*
X156265319Y-75233395D01*
X156264682Y-75963403D01*
X144515257Y-75963403D01*
X144517000Y-73430087D01*
X144507028Y-73380670D01*
X144478616Y-73339026D01*
X144436240Y-73311717D01*
X144390000Y-73303000D01*
X133721147Y-73303000D01*
X133284777Y-73295208D01*
X133232071Y-70363403D01*
X142164682Y-70363403D01*
X142443455Y-71038086D01*
X142959199Y-71554730D01*
X143633395Y-71834681D01*
X144363403Y-71835318D01*
X145038086Y-71556545D01*
X145554730Y-71040801D01*
X145834681Y-70366605D01*
X145835318Y-69636597D01*
X145556545Y-68961914D01*
X145040801Y-68445270D01*
X144366605Y-68165319D01*
X143636597Y-68164682D01*
X142961914Y-68443455D01*
X142445270Y-68959199D01*
X142165319Y-69633395D01*
X142164682Y-70363403D01*
X133232071Y-70363403D01*
X133206979Y-68967717D01*
X133196087Y-68918495D01*
X133166903Y-68877388D01*
X133124025Y-68850875D01*
X133079905Y-68843000D01*
X128409373Y-68846504D01*
X128983515Y-68609273D01*
X129866174Y-67728153D01*
X130344454Y-66576326D01*
X130345543Y-65329146D01*
X129869273Y-64176485D01*
X128988153Y-63293826D01*
X127836326Y-62815546D01*
X126589146Y-62814457D01*
X125436485Y-63290727D01*
X124553826Y-64171847D01*
X124075546Y-65323674D01*
X124074457Y-66570854D01*
X124550727Y-67723515D01*
X125431847Y-68606174D01*
X126014952Y-68848300D01*
X119749905Y-68853000D01*
X119700502Y-68863043D01*
X119658899Y-68891515D01*
X119631651Y-68933930D01*
X119623002Y-68980792D01*
X103544845Y-68980792D01*
X103616997Y-58800900D01*
X103607341Y-58751420D01*
X103579196Y-58709595D01*
X103536996Y-58682016D01*
X103490000Y-58673000D01*
X87500000Y-58673000D01*
X87450590Y-58683006D01*
X87408965Y-58711447D01*
X87381685Y-58753841D01*
X87373000Y-58800000D01*
X83169016Y-58800000D01*
X83186777Y-55363403D01*
X142164682Y-55363403D01*
X142443455Y-56038086D01*
X142959199Y-56554730D01*
X143633395Y-56834681D01*
X144363403Y-56835318D01*
X145038086Y-56556545D01*
X145554730Y-56040801D01*
X145834681Y-55366605D01*
X145835318Y-54636597D01*
X145556545Y-53961914D01*
X145040801Y-53445270D01*
X144366605Y-53165319D01*
X143636597Y-53164682D01*
X142961914Y-53443455D01*
X142445270Y-53959199D01*
X142165319Y-54633395D01*
X142164682Y-55363403D01*
X83186777Y-55363403D01*
X83186998Y-55320656D01*
X83177248Y-55271195D01*
X83149023Y-55229424D01*
X83106770Y-55201926D01*
X83059790Y-55193000D01*
X65210000Y-55222504D01*
X65210000Y-40759482D01*
X65664336Y-40759482D01*
X66246950Y-42169515D01*
X67324811Y-43249259D01*
X68733825Y-43834333D01*
X70259482Y-43835664D01*
X71669515Y-43253050D01*
X72749259Y-42175189D01*
X73334333Y-40766175D01*
X73335664Y-39240518D01*
X72753050Y-37830485D01*
X71675189Y-36750741D01*
X70266175Y-36165667D01*
X68740518Y-36164336D01*
X67330485Y-36746950D01*
X66250741Y-37824811D01*
X65665667Y-39233825D01*
X65664336Y-40759482D01*
X65210000Y-40759482D01*
X65210000Y-35710000D01*
X80713153Y-35710000D01*
X80722682Y-50710081D01*
M02*
