M48
INCH,TZ
T1C0.016
T2C0.020
T3C0.039
T4C0.047
T5C0.063
T6C0.071
T7C0.126
%
G90
G05
T1
X2.5894Y-4.4669
X2.5972Y-4.3902
X2.6004Y-4.3098
X2.6059Y-4.2283
X2.6157Y-2.3539
X2.6169Y-4.5508
X2.6224Y-2.5268
X2.628Y-2.2717
X2.6291Y-2.4484
X2.6311Y-2.6035
X2.6642Y-4.4724
X2.6709Y-4.2921
X2.674Y-4.3803
X2.6839Y-4.2197
X2.7071Y-4.5606
X2.7083Y-2.5224
X2.7094Y-2.3528
X2.7114Y-2.4508
X2.7138Y-2.2705
X2.7213Y-2.6028
X2.7874Y-4.2063
X2.7941Y-2.5335
X2.813Y-4.5673
X2.8543Y-2.5972
X2.8831Y-4.5638
X2.8929Y-2.5343
X2.8953Y-4.2106
X2.9457Y-4.4161
X2.9524Y-4.2736
X2.9535Y-4.5591
X2.961Y-2.598
X2.9752Y-4.3378
X2.9878Y-2.322
X2.9898Y-4.4819
X2.9921Y-2.4067
X3.0063Y-4.2051
X3.0106Y-2.2461
X3.0185Y-4.4094
X3.0205Y-4.5602
X3.0449Y-2.4803
X3.0504Y-4.2657
X3.0524Y-2.5894
X3.0614Y-2.3091
X3.0689Y-4.5075
X3.072Y-4.3496
X3.0744Y-2.3913
X3.102Y-2.2417
X3.1272Y-2.4803
X3.137Y-2.5894
X3.1382Y-2.3091
X3.1449Y-2.3783
X3.2602Y-4.7807
X3.2602Y-4.9567
X3.2614Y-4.8587
X3.2622Y-5.1457
X3.2634Y-5.235
X3.2681Y-5.0472
X3.2976Y-1.487
X3.3031Y-1.9067
X3.3075Y-1.8374
X3.3118Y-1.7579
X3.3134Y-1.674
X3.3154Y-1.5929
X3.3264Y-4.8929
X3.3287Y-4.8083
X3.3303Y-5.2496
X3.3394Y-5.172
X3.3551Y-1.4417
X3.3689Y-1.761
X3.3736Y-1.5272
X3.3764Y-1.8299
X3.378Y-1.9004
X3.4067Y-4.7717
X3.4102Y-5.1713
X3.411Y-4.8783
X3.4118Y-5.2441
X3.4417Y-1.5118
X3.4449Y-1.4319
X3.4449Y-1.7921
X3.4488Y-1.8642
X3.4772Y-4.9047
X3.4839Y-4.8213
X3.4862Y-5.1673
X3.4921Y-5.2472
X3.5177Y-1.8118
X3.5217Y-1.8984
X3.5224Y-1.5217
X3.5295Y-4.0425
X3.5319Y-1.4319
X3.5402Y-4.2075
X3.5465Y-3.9583
X3.5531Y-4.8764
X3.5594Y-4.1205
X3.5606Y-4.7882
X3.5622Y-5.176
X3.5713Y-5.2591
X3.5717Y-2.5917
X3.576Y-2.4343
X3.5795Y-2.5177
X3.5803Y-2.6795
X3.5894Y-2.7531
X3.5925Y-4.2433
X3.5961Y-1.8992
X3.5976Y-1.787
X3.6087Y-1.4319
X3.6087Y-1.5031
X3.6217Y-3.9551
X3.6398Y-4.8004
X3.6425Y-5.1642
X3.6433Y-4.9575
X3.6441Y-4.8839
X3.6465Y-5.0366
X3.6496Y-5.2551
X3.6531Y-2.4331
X3.6642Y-2.7469
X3.6752Y-4.2374
X3.7Y-3.9465
X3.7311Y-2.4276
X3.7531Y-2.7378
X3.7772Y-4.2512
X3.7858Y-3.9673
X3.7992Y-2.4803
X3.8205Y-2.6831
X3.8205Y-2.7587
X3.8429Y-4.011
X3.8488Y-2.585
X3.8504Y-4.0846
X3.8551Y-4.2496
X3.8571Y-3.3984
X3.8594Y-4.1579
X3.8685Y-3.9449
X3.8709Y-3.2445
X3.8874Y-2.4268
X3.8898Y-2.4937
X3.8921Y-3.1327
X3.8953Y-2.6642
X3.8972Y-2.7524
X3.9181Y-2.574
X3.9449Y-4.011
X3.9465Y-4.1594
X3.948Y-4.2465
X3.9496Y-3.9449
X3.9524Y-4.0906
X3.9701Y-2.4354
X3.9701Y-2.7421
X3.9732Y-2.6598
X3.9787Y-2.5134
X3.9795Y-3.4929
X3.9866Y-3.3039
X4.0705Y-1.7394
X4.0846Y-1.9461
X4.0882Y-3.1291
X4.0913Y-1.498
X4.1264Y-1.6413
X4.1441Y-3.2445
X4.1441Y-3.4476
X4.1516Y-2.5213
X4.1669Y-2.3957
X4.1791Y-1.6276
X4.1791Y-1.7815
X4.1894Y-2.6598
X4.1929Y-2.1209
X4.1929Y-2.8909
X4.1965Y-3.0134
X4.2209Y-3.1291
X4.2299Y-3.528
X4.2315Y-2.6882
X4.2457Y-3.339
X4.2488Y-2.2783
X4.2539Y-3.7118
X4.2618Y-3.9598
X4.263Y-1.9705
X4.2697Y-4.1358
X4.278Y-4.3681
X4.278Y-4.5921
X4.2791Y-2.528
X4.2858Y-4.8
X4.2858Y-4.9441
X4.3051Y-1.8516
X4.3051Y-2.8244
X4.3075Y-3.4319
X4.3087Y-1.4839
X4.3087Y-1.624
X4.3118Y-2.398
X4.3189Y-2.9752
X4.3331Y-3.1571
X4.3339Y-3.5839
X4.3429Y-3.7268
X4.3433Y-4.263
X4.3469Y-2.1035
X4.3559Y-3.861
X4.3575Y-2.2925
X4.3717Y-4.7075
X4.3752Y-4.0949
X4.3819Y-3.3075
X4.3819Y-5.1358
X4.3961Y-4.4449
X4.3961Y-4.5429
X4.4134Y-1.7606
X4.4134Y-1.9776
X4.4138Y-4.824
X4.4197Y-2.5343
X4.424Y-2.198
X4.4276Y-2.7299
X4.4307Y-3.4299
X4.4331Y-3.5992
X4.4374Y-2.3937
X4.4413Y-2.8803
X4.4484Y-3.1535
X4.4484Y-4.2457
X4.4508Y-3.872
X4.4626Y-3.0382
X4.4705Y-3.7421
X4.4728Y-1.8551
X4.487Y-1.9776
X4.4906Y-4.0669
X4.502Y-4.9681
X4.5043Y-4.6445
X4.5256Y-1.4772
X4.5256Y-2.1488
X4.5358Y-4.4382
X4.5394Y-1.6067
X4.5571Y-2.7614
X4.565Y-2.598
X4.5744Y-3.1988
X4.5744Y-3.3496
X4.578Y-2.3134
X4.578Y-4.0567
X4.5803Y-2.4815
X4.5803Y-3.6102
X4.5803Y-3.8917
X4.5815Y-2.9224
X4.5815Y-3.0626
X4.5827Y-3.4736
X4.587Y-3.7575
X4.5886Y-4.2173
X4.6059Y-5.128
X4.6236Y-1.7429
X4.6303Y-4.3925
X4.6378Y-4.776
X4.648Y-2.0858
X4.648Y-4.5535
X4.6516Y-1.974
X4.6654Y-1.876
X4.6795Y-2.2016
X4.6933Y-1.4839
X4.7146Y-1.6067
X4.7181Y-4.6409
X4.7217Y-4.3925
X4.726Y-4.9681
X4.7425Y-1.7571
X4.7882Y-2.2087
X4.7913Y-1.974
X4.7949Y-2.2996
X4.802Y-2.1035
X4.8201Y-2.9953
X4.8205Y-2.8732
X4.8346Y-3.2488
X4.839Y-3.1724
X4.839Y-3.6614
X4.8406Y-3.3358
X4.8441Y-1.8831
X4.8449Y-3.0854
X4.8449Y-3.5535
X4.8457Y-4.6882
X4.8512Y-3.7484
X4.8539Y-3.8413
X4.8579Y-4.522
X4.8598Y-2.9402
X4.8685Y-4.3752
X4.8689Y-2.8146
X4.878Y-5.152
X4.8965Y-1.4772
X4.8965Y-1.7744
X4.8976Y-3.0043
X4.8976Y-3.6283
X4.9177Y-4.9039
X4.9228Y-3.3358
X4.928Y-1.6311
X4.9421Y-2.3134
X4.9457Y-1.7744
X4.9524Y-2.1945
X4.9665Y-1.8831
X4.9665Y-2.0827
X4.9799Y-3.6524
X4.9874Y-4.7496
X4.989Y-3.0315
X4.9909Y-4.5327
X5.0039Y-3.348
X5.0154Y-4.389
X5.0642Y-4.5118
X5.0646Y-1.4909
X5.0646Y-4.8126
X5.0681Y-1.624
X5.0717Y-1.9705
X5.085Y-3.0433
X5.085Y-3.3524
X5.0925Y-3.6614
X5.1031Y-2.0791
X5.1098Y-2.3276
X5.1134Y-2.226
X5.1205Y-1.7673
X5.1299Y-2.7988
X5.1374Y-2.9717
X5.1421Y-3.5957
X5.148Y-2.8874
X5.1496Y-3.852
X5.1539Y-3.1185
X5.1587Y-3.7618
X5.1705Y-3.2236
X5.1811Y-3.678
X5.1839Y-3.339
X5.1839Y-4.7039
X5.1945Y-3.0496
X5.2Y-4.3681
X5.2051Y-3.5504
X5.2114Y-4.8406
X5.2169Y-3.1457
X5.224Y-4.576
X5.2394Y-3.7665
X5.2457Y-3.8445
X5.2606Y-3.237
X5.2681Y-3.6433
X5.2799Y-3.3465
X5.3012Y-3.0331
X5.3039Y-3.5386
X5.3071Y-3.1319
X5.3071Y-3.7228
X5.3327Y-4.552
X5.3358Y-4.4
X5.3441Y-4.728
X5.3441Y-4.8799
X5.3445Y-3.2024
X5.3476Y-3.3016
X5.3551Y-3.8024
X5.3579Y-3.6059
X5.3681Y-5.0402
X5.3728Y-3.0031
X5.3839Y-5.1598
X5.4118Y-1.7504
X5.4154Y-1.9063
X5.4197Y-1.563
X5.4197Y-3.0689
X5.4217Y-1.8295
X5.424Y-3.8567
X5.4256Y-1.65
X5.4295Y-4.3461
X5.4295Y-4.4386
X5.4386Y-4.5894
X5.4421Y-1.4701
X5.4449Y-4.7673
X5.4587Y-3.0031
X5.465Y-4.915
X5.5008Y-1.9087
X5.5051Y-3.0689
X5.5063Y-1.8177
X5.5067Y-1.6441
X5.5079Y-3.8402
X5.5126Y-1.7354
X5.5185Y-1.5433
X5.522Y-4.6398
X5.5398Y-4.7894
X5.5441Y-4.4902
X5.5508Y-4.3602
X5.5516Y-3.0031
X5.5559Y-1.4717
X5.5681Y-5.1921
X5.5728Y-1.9138
X5.574Y-3.8402
X5.5776Y-1.7583
X5.5815Y-1.8295
X5.5874Y-3.0689
X5.624Y-5.024
X5.6386Y-4.9102
X5.6449Y-1.848
X5.6472Y-1.7673
X5.6472Y-4.5913
X5.6488Y-1.9185
X5.6579Y-1.4791
X5.6693Y-4.8028
X5.6748Y-4.3705
X5.687Y-4.4945
X5.687Y-4.7035
X5.7138Y-1.7575
X5.7193Y-1.8409
X5.7224Y-1.9217
X5.7681Y-5.2
X5.7689Y-1.4776
X5.7839Y-4.5827
X5.8Y-1.9224
X5.8Y-5.0642
X5.8079Y-1.848
X5.8087Y-1.7768
X5.8102Y-4.915
X5.8146Y-4.4945
X5.8157Y-4.3583
X5.8697Y-4.7146
X5.8717Y-4.8071
X5.9291Y-4.576
X5.9441Y-5.2
X5.9567Y-4.3594
X5.9839Y-5.0642
X5.9929Y-4.915
X5.9972Y-4.5012
X6.0433Y-4.6858
X6.0579Y-2.4024
X6.0642Y-2.3232
X6.0654Y-2.2559
X6.0677Y-2.1764
X6.0701Y-2.1091
X6.0724Y-2.0394
X6.0795Y-4.3709
X6.0799Y-1.9744
X6.1051Y-4.8421
X6.1181Y-4.4969
X6.128Y-2.4134
X6.1346Y-2.3264
X6.1382Y-2.2441
X6.1382Y-4.5957
X6.1846Y-4.3606
X6.213Y-2.2429
X6.2236Y-4.7343
X6.2303Y-4.6331
X6.2346Y-4.8402
X6.2413Y-4.5035
X6.2941Y-2.2472
X6.2969Y-4.3606
X6.3094Y-2.3453
X6.315Y-2.4213
X6.3559Y-4.7102
X6.3559Y-4.8181
X6.3634Y-2.2295
X6.3673Y-4.4701
X6.372Y-4.5646
X6.3724Y-2.1252
X6.378Y-1.9516
X6.3795Y-4.3665
X6.3799Y-2.3307
X6.3835Y-2.0307
X6.3843Y-2.4213
T2
X2.6417Y-1.5748
X2.6417Y-5.1181
X2.6694Y-1.508
X2.6694Y-1.6416
X2.6694Y-5.0513
X2.6694Y-5.1849
X2.7362Y-1.4803
X2.7362Y-1.6693
X2.7362Y-5.0236
X2.7362Y-5.2126
X2.803Y-1.508
X2.803Y-1.6416
X2.803Y-5.0513
X2.803Y-5.1849
X2.8307Y-1.5748
X2.8307Y-5.1181
X6.185Y-1.5748
X6.185Y-5.1181
X6.2127Y-1.508
X6.2127Y-1.6416
X6.2127Y-5.0513
X6.2127Y-5.1849
X6.2795Y-1.4803
X6.2795Y-1.6693
X6.2795Y-5.0236
X6.2795Y-5.2126
X6.3463Y-1.508
X6.3463Y-1.6416
X6.3463Y-5.0513
X6.3463Y-5.1849
X6.374Y-1.5748
X6.374Y-5.1181
T3
X2.7953Y-2.7165
X2.7953Y-3.1102
X2.7953Y-3.5039
X2.7953Y-3.8976
X3.2087Y-2.7165
X3.2087Y-3.1102
X3.2087Y-3.5039
X3.2087Y-3.8976
T4
X5.6693Y-2.1654
X5.6693Y-2.7559
X6.2244Y-2.3858
X6.2244Y-2.9764
T5
X3.7083Y-2.5965
X3.7083Y-2.8965
X3.7083Y-3.1965
X3.7083Y-3.4965
X3.7083Y-3.7965
X3.7083Y-4.0965
X5.0083Y-2.5965
X5.0083Y-2.8965
X5.0083Y-3.1965
X5.0083Y-3.4965
X5.0083Y-3.7965
X5.0083Y-3.9962
T6
X2.815Y-4.3118
X2.815Y-4.4678
X2.8543Y-1.9614
X2.8543Y-2.1174
X2.8543Y-2.2763
X2.8543Y-2.4323
X3.3787Y-5.0394
X3.4417Y-1.6535
X3.5347Y-5.0394
X3.5977Y-1.6535
X3.7645Y-1.6575
X3.9205Y-1.6575
X5.0755Y-5.0551
X5.2315Y-5.0551
X5.5Y-3.1661
X5.5Y-3.3221
X5.5Y-3.5637
X5.5Y-3.7197
X5.6267Y-1.6339
X5.7827Y-1.6339
X6.2244Y-1.9771
X6.2244Y-2.1331
T7
X2.7362Y-1.5748
X2.7362Y-5.1181
X6.2795Y-1.5748
X6.2795Y-5.1181
T0
M30
