%FSLAX45Y45*%
G04 Gerber Fmt 4.5, Leading zero omitted, Abs format (unit mm)*
G04 Created by KiCad (PCBNEW 4.0.2-stable) date 10/05/17 14:13:45*
%MOMM*%
G01*
G04 APERTURE LIST*
%ADD10C,0.127000*%
%ADD11C,0.150000*%
%ADD12C,0.200000*%
%ADD13C,0.300000*%
G04 APERTURE END LIST*
D10*
D11*
X6450000Y-13500000D02*
X6450000Y-3500000D01*
X16450000Y-13500000D02*
X6450000Y-13500000D01*
X16450000Y-3500000D02*
X16450000Y-13500000D01*
X6450000Y-3500000D02*
X16450000Y-3500000D01*
D12*
X6557000Y-11326000D02*
X6597000Y-11366000D01*
X6597000Y-11326000D02*
X6557000Y-11366000D01*
X6577000Y-11131000D02*
X6617000Y-11171000D01*
X6617000Y-11131000D02*
X6577000Y-11171000D01*
X6585000Y-10927000D02*
X6625000Y-10967000D01*
X6625000Y-10927000D02*
X6585000Y-10967000D01*
X6599000Y-10720000D02*
X6639000Y-10760000D01*
X6639000Y-10720000D02*
X6599000Y-10760000D01*
X6624000Y-5959000D02*
X6664000Y-5999000D01*
X6664000Y-5959000D02*
X6624000Y-5999000D01*
X6627000Y-11539000D02*
X6667000Y-11579000D01*
X6667000Y-11539000D02*
X6627000Y-11579000D01*
X6641000Y-6398000D02*
X6681000Y-6438000D01*
X6681000Y-6398000D02*
X6641000Y-6438000D01*
X6655000Y-5750000D02*
X6695000Y-5790000D01*
X6695000Y-5750000D02*
X6655000Y-5790000D01*
X6658000Y-6199000D02*
X6698000Y-6239000D01*
X6698000Y-6199000D02*
X6658000Y-6239000D01*
X6663000Y-6593000D02*
X6703000Y-6633000D01*
X6703000Y-6593000D02*
X6663000Y-6633000D01*
X6747000Y-11340000D02*
X6787000Y-11380000D01*
X6787000Y-11340000D02*
X6747000Y-11380000D01*
X6764000Y-10882000D02*
X6804000Y-10922000D01*
X6804000Y-10882000D02*
X6764000Y-10922000D01*
X6772000Y-11106000D02*
X6812000Y-11146000D01*
X6812000Y-11106000D02*
X6772000Y-11146000D01*
X6797000Y-10698000D02*
X6837000Y-10738000D01*
X6837000Y-10698000D02*
X6797000Y-10738000D01*
X6856000Y-11564000D02*
X6896000Y-11604000D01*
X6896000Y-11564000D02*
X6856000Y-11604000D01*
X6859000Y-6387000D02*
X6899000Y-6427000D01*
X6899000Y-6387000D02*
X6859000Y-6427000D01*
X6862000Y-5956000D02*
X6902000Y-5996000D01*
X6902000Y-5956000D02*
X6862000Y-5996000D01*
X6867000Y-6205000D02*
X6907000Y-6245000D01*
X6907000Y-6205000D02*
X6867000Y-6245000D01*
X6873000Y-5747000D02*
X6913000Y-5787000D01*
X6913000Y-5747000D02*
X6873000Y-5787000D01*
X6892000Y-6591000D02*
X6932000Y-6631000D01*
X6932000Y-6591000D02*
X6892000Y-6631000D01*
X7060000Y-10664000D02*
X7100000Y-10704000D01*
X7100000Y-10664000D02*
X7060000Y-10704000D01*
X7077000Y-6415000D02*
X7117000Y-6455000D01*
X7117000Y-6415000D02*
X7077000Y-6455000D01*
X7125000Y-11581000D02*
X7165000Y-11621000D01*
X7165000Y-11581000D02*
X7125000Y-11621000D01*
X7230000Y-6577000D02*
X7270000Y-6617000D01*
X7270000Y-6577000D02*
X7230000Y-6617000D01*
X7303000Y-11572000D02*
X7343000Y-11612000D01*
X7343000Y-11572000D02*
X7303000Y-11612000D01*
X7328000Y-6417000D02*
X7368000Y-6457000D01*
X7368000Y-6417000D02*
X7328000Y-6457000D01*
X7334000Y-10675000D02*
X7374000Y-10715000D01*
X7374000Y-10675000D02*
X7334000Y-10715000D01*
X7462000Y-11197000D02*
X7502000Y-11237000D01*
X7502000Y-11197000D02*
X7462000Y-11237000D01*
X7479000Y-10835000D02*
X7519000Y-10875000D01*
X7519000Y-10835000D02*
X7479000Y-10875000D01*
X7482000Y-11560000D02*
X7522000Y-11600000D01*
X7522000Y-11560000D02*
X7482000Y-11600000D01*
X7501000Y-6579000D02*
X7541000Y-6619000D01*
X7541000Y-6579000D02*
X7501000Y-6619000D01*
X7537000Y-10998000D02*
X7577000Y-11038000D01*
X7577000Y-10998000D02*
X7537000Y-11038000D01*
X7569000Y-5878000D02*
X7609000Y-5918000D01*
X7609000Y-5878000D02*
X7569000Y-5918000D01*
X7574000Y-11364000D02*
X7614000Y-11404000D01*
X7614000Y-11364000D02*
X7574000Y-11404000D01*
X7580000Y-6093000D02*
X7620000Y-6133000D01*
X7620000Y-6093000D02*
X7580000Y-6133000D01*
X7616000Y-10661000D02*
X7656000Y-10701000D01*
X7656000Y-10661000D02*
X7616000Y-10701000D01*
X7627000Y-5685000D02*
X7667000Y-5725000D01*
X7667000Y-5685000D02*
X7627000Y-5725000D01*
X7647000Y-11180000D02*
X7687000Y-11220000D01*
X7687000Y-11180000D02*
X7647000Y-11220000D01*
X7652000Y-11563000D02*
X7692000Y-11603000D01*
X7692000Y-11563000D02*
X7652000Y-11603000D01*
X7714000Y-6280000D02*
X7754000Y-6320000D01*
X7754000Y-6280000D02*
X7714000Y-6320000D01*
X7728000Y-10815000D02*
X7768000Y-10855000D01*
X7768000Y-10815000D02*
X7728000Y-10855000D01*
X7733000Y-6557000D02*
X7773000Y-6597000D01*
X7773000Y-6557000D02*
X7733000Y-6597000D01*
X7756000Y-5845000D02*
X7796000Y-5885000D01*
X7796000Y-5845000D02*
X7756000Y-5885000D01*
X7775000Y-11429000D02*
X7815000Y-11469000D01*
X7815000Y-11429000D02*
X7775000Y-11469000D01*
X7783000Y-11028000D02*
X7823000Y-11068000D01*
X7823000Y-11028000D02*
X7783000Y-11068000D01*
X7789000Y-6054000D02*
X7829000Y-6094000D01*
X7829000Y-6054000D02*
X7789000Y-6094000D01*
X7859000Y-5674000D02*
X7899000Y-5714000D01*
X7899000Y-5674000D02*
X7859000Y-5714000D01*
X7923000Y-6280000D02*
X7963000Y-6320000D01*
X7963000Y-6280000D02*
X7923000Y-6320000D01*
X7948000Y-6557000D02*
X7988000Y-6597000D01*
X7988000Y-6557000D02*
X7948000Y-6597000D01*
X7951000Y-5845000D02*
X7991000Y-5885000D01*
X7991000Y-5845000D02*
X7951000Y-5885000D01*
X7968000Y-6021000D02*
X8008000Y-6061000D01*
X8008000Y-6021000D02*
X7968000Y-6061000D01*
X8261000Y-12123000D02*
X8301000Y-12163000D01*
X8301000Y-12123000D02*
X8261000Y-12163000D01*
X8261000Y-12570000D02*
X8301000Y-12610000D01*
X8301000Y-12570000D02*
X8261000Y-12610000D01*
X8264000Y-12321000D02*
X8304000Y-12361000D01*
X8304000Y-12321000D02*
X8264000Y-12361000D01*
X8266000Y-13050000D02*
X8306000Y-13090000D01*
X8306000Y-13050000D02*
X8266000Y-13090000D01*
X8269000Y-13277000D02*
X8309000Y-13317000D01*
X8309000Y-13277000D02*
X8269000Y-13317000D01*
X8281000Y-12800000D02*
X8321000Y-12840000D01*
X8321000Y-12800000D02*
X8281000Y-12840000D01*
X8356000Y-3757000D02*
X8396000Y-3797000D01*
X8396000Y-3757000D02*
X8356000Y-3797000D01*
X8370000Y-4823000D02*
X8410000Y-4863000D01*
X8410000Y-4823000D02*
X8370000Y-4863000D01*
X8381000Y-4647000D02*
X8421000Y-4687000D01*
X8421000Y-4647000D02*
X8381000Y-4687000D01*
X8392000Y-4445000D02*
X8432000Y-4485000D01*
X8432000Y-4445000D02*
X8392000Y-4485000D01*
X8396000Y-4232000D02*
X8436000Y-4272000D01*
X8436000Y-4232000D02*
X8396000Y-4272000D01*
X8401000Y-4026000D02*
X8441000Y-4066000D01*
X8441000Y-4026000D02*
X8401000Y-4066000D01*
X8429000Y-12408000D02*
X8469000Y-12448000D01*
X8469000Y-12408000D02*
X8429000Y-12448000D01*
X8435000Y-12193000D02*
X8475000Y-12233000D01*
X8475000Y-12193000D02*
X8435000Y-12233000D01*
X8439000Y-13314000D02*
X8479000Y-13354000D01*
X8479000Y-13314000D02*
X8439000Y-13354000D01*
X8462000Y-13117000D02*
X8502000Y-13157000D01*
X8502000Y-13117000D02*
X8462000Y-13157000D01*
X8502000Y-3642000D02*
X8542000Y-3682000D01*
X8542000Y-3642000D02*
X8502000Y-3682000D01*
X8537000Y-4453000D02*
X8577000Y-4493000D01*
X8577000Y-4453000D02*
X8537000Y-4493000D01*
X8549000Y-3859000D02*
X8589000Y-3899000D01*
X8589000Y-3859000D02*
X8549000Y-3899000D01*
X8556000Y-4628000D02*
X8596000Y-4668000D01*
X8596000Y-4628000D02*
X8556000Y-4668000D01*
X8560000Y-4807000D02*
X8600000Y-4847000D01*
X8600000Y-4807000D02*
X8560000Y-4847000D01*
X8633000Y-12100000D02*
X8673000Y-12140000D01*
X8673000Y-12100000D02*
X8633000Y-12140000D01*
X8642000Y-13115000D02*
X8682000Y-13155000D01*
X8682000Y-13115000D02*
X8642000Y-13155000D01*
X8644000Y-12371000D02*
X8684000Y-12411000D01*
X8684000Y-12371000D02*
X8644000Y-12411000D01*
X8646000Y-13300000D02*
X8686000Y-13340000D01*
X8686000Y-13300000D02*
X8646000Y-13340000D01*
X8722000Y-3820000D02*
X8762000Y-3860000D01*
X8762000Y-3820000D02*
X8722000Y-3860000D01*
X8730000Y-3617000D02*
X8770000Y-3657000D01*
X8770000Y-3617000D02*
X8730000Y-3657000D01*
X8730000Y-4532000D02*
X8770000Y-4572000D01*
X8770000Y-4532000D02*
X8730000Y-4572000D01*
X8740000Y-4715000D02*
X8780000Y-4755000D01*
X8780000Y-4715000D02*
X8740000Y-4755000D01*
X8812000Y-12438000D02*
X8852000Y-12478000D01*
X8852000Y-12438000D02*
X8812000Y-12478000D01*
X8829000Y-12226000D02*
X8869000Y-12266000D01*
X8869000Y-12226000D02*
X8829000Y-12266000D01*
X8835000Y-13105000D02*
X8875000Y-13145000D01*
X8875000Y-13105000D02*
X8835000Y-13145000D01*
X8850000Y-13308000D02*
X8890000Y-13348000D01*
X8890000Y-13308000D02*
X8850000Y-13348000D01*
X8915000Y-4582000D02*
X8955000Y-4622000D01*
X8955000Y-4582000D02*
X8915000Y-4622000D01*
X8925000Y-4802000D02*
X8965000Y-4842000D01*
X8965000Y-4802000D02*
X8925000Y-4842000D01*
X8927000Y-3845000D02*
X8967000Y-3885000D01*
X8967000Y-3845000D02*
X8927000Y-3885000D01*
X8945000Y-10248000D02*
X8985000Y-10288000D01*
X8985000Y-10248000D02*
X8945000Y-10288000D01*
X8951000Y-3617000D02*
X8991000Y-3657000D01*
X8991000Y-3617000D02*
X8951000Y-3657000D01*
X8972000Y-10667000D02*
X9012000Y-10707000D01*
X9012000Y-10667000D02*
X8972000Y-10707000D01*
X8988000Y-10034000D02*
X9028000Y-10074000D01*
X9028000Y-10034000D02*
X8988000Y-10074000D01*
X9005000Y-12366000D02*
X9045000Y-12406000D01*
X9045000Y-12366000D02*
X9005000Y-12406000D01*
X9021000Y-10446000D02*
X9061000Y-10486000D01*
X9061000Y-10446000D02*
X9021000Y-10486000D01*
X9024000Y-12142000D02*
X9064000Y-12182000D01*
X9064000Y-12142000D02*
X9024000Y-12182000D01*
X9028000Y-13127000D02*
X9068000Y-13167000D01*
X9068000Y-13127000D02*
X9028000Y-13167000D01*
X9051000Y-13338000D02*
X9091000Y-13378000D01*
X9091000Y-13338000D02*
X9051000Y-13378000D01*
X9052000Y-6563000D02*
X9092000Y-6603000D01*
X9092000Y-6563000D02*
X9052000Y-6603000D01*
X9063000Y-6163000D02*
X9103000Y-6203000D01*
X9103000Y-6163000D02*
X9063000Y-6203000D01*
X9072000Y-6375000D02*
X9112000Y-6415000D01*
X9112000Y-6375000D02*
X9072000Y-6415000D01*
X9074000Y-6786000D02*
X9114000Y-6826000D01*
X9114000Y-6786000D02*
X9074000Y-6826000D01*
X9097000Y-6973000D02*
X9137000Y-7013000D01*
X9137000Y-6973000D02*
X9097000Y-7013000D01*
X9105000Y-10758000D02*
X9145000Y-10798000D01*
X9145000Y-10758000D02*
X9105000Y-10798000D01*
X9114000Y-4804000D02*
X9154000Y-4844000D01*
X9154000Y-4804000D02*
X9114000Y-4844000D01*
X9118000Y-4519000D02*
X9158000Y-4559000D01*
X9158000Y-4519000D02*
X9118000Y-4559000D01*
X9146000Y-3617000D02*
X9186000Y-3657000D01*
X9186000Y-3617000D02*
X9146000Y-3657000D01*
X9146000Y-3798000D02*
X9186000Y-3838000D01*
X9186000Y-3798000D02*
X9146000Y-3838000D01*
X9179000Y-10026000D02*
X9219000Y-10066000D01*
X9219000Y-10026000D02*
X9179000Y-10066000D01*
X9225000Y-12173000D02*
X9265000Y-12213000D01*
X9265000Y-12173000D02*
X9225000Y-12213000D01*
X9232000Y-13097000D02*
X9272000Y-13137000D01*
X9272000Y-13097000D02*
X9232000Y-13137000D01*
X9234000Y-12572000D02*
X9274000Y-12612000D01*
X9274000Y-12572000D02*
X9234000Y-12612000D01*
X9236000Y-12385000D02*
X9276000Y-12425000D01*
X9276000Y-12385000D02*
X9236000Y-12425000D01*
X9242000Y-12773000D02*
X9282000Y-12813000D01*
X9282000Y-12773000D02*
X9242000Y-12813000D01*
X9250000Y-13328000D02*
X9290000Y-13368000D01*
X9290000Y-13328000D02*
X9250000Y-13368000D01*
X9259000Y-6160000D02*
X9299000Y-6200000D01*
X9299000Y-6160000D02*
X9259000Y-6200000D01*
X9287000Y-6957000D02*
X9327000Y-6997000D01*
X9327000Y-6957000D02*
X9287000Y-6997000D01*
X9315000Y-10743000D02*
X9355000Y-10783000D01*
X9355000Y-10743000D02*
X9315000Y-10783000D01*
X9378000Y-10004000D02*
X9418000Y-10044000D01*
X9418000Y-10004000D02*
X9378000Y-10044000D01*
X9457000Y-6146000D02*
X9497000Y-6186000D01*
X9497000Y-6146000D02*
X9457000Y-6186000D01*
X9513000Y-6934000D02*
X9553000Y-6974000D01*
X9553000Y-6934000D02*
X9513000Y-6974000D01*
X9574000Y-10778000D02*
X9614000Y-10818000D01*
X9614000Y-10778000D02*
X9574000Y-10818000D01*
X9596000Y-10057000D02*
X9636000Y-10097000D01*
X9636000Y-10057000D02*
X9596000Y-10097000D01*
X9630000Y-6280000D02*
X9670000Y-6320000D01*
X9670000Y-6280000D02*
X9630000Y-6320000D01*
X9684000Y-6795000D02*
X9724000Y-6835000D01*
X9724000Y-6795000D02*
X9684000Y-6835000D01*
X9684000Y-6987000D02*
X9724000Y-7027000D01*
X9724000Y-6987000D02*
X9684000Y-7027000D01*
X9741000Y-10168000D02*
X9781000Y-10208000D01*
X9781000Y-10168000D02*
X9741000Y-10208000D01*
X9756000Y-6546000D02*
X9796000Y-6586000D01*
X9796000Y-6546000D02*
X9756000Y-6586000D01*
X9760000Y-10355000D02*
X9800000Y-10395000D01*
X9800000Y-10355000D02*
X9760000Y-10395000D01*
X9772000Y-10774000D02*
X9812000Y-10814000D01*
X9812000Y-10774000D02*
X9772000Y-10814000D01*
X9777000Y-8612000D02*
X9817000Y-8652000D01*
X9817000Y-8612000D02*
X9777000Y-8652000D01*
X9783000Y-10541000D02*
X9823000Y-10581000D01*
X9823000Y-10541000D02*
X9783000Y-10581000D01*
X9806000Y-10000000D02*
X9846000Y-10040000D01*
X9846000Y-10000000D02*
X9806000Y-10040000D01*
X9812000Y-8221000D02*
X9852000Y-8261000D01*
X9852000Y-8221000D02*
X9812000Y-8261000D01*
X9854000Y-6144000D02*
X9894000Y-6184000D01*
X9894000Y-6144000D02*
X9854000Y-6184000D01*
X9860000Y-6314000D02*
X9900000Y-6354000D01*
X9900000Y-6314000D02*
X9860000Y-6354000D01*
X9866000Y-7937000D02*
X9906000Y-7977000D01*
X9906000Y-7937000D02*
X9866000Y-7977000D01*
X9874000Y-6747000D02*
X9914000Y-6787000D01*
X9914000Y-6747000D02*
X9874000Y-6787000D01*
X9879000Y-6971000D02*
X9919000Y-7011000D01*
X9919000Y-6971000D02*
X9879000Y-7011000D01*
X9932000Y-6518000D02*
X9972000Y-6558000D01*
X9972000Y-6518000D02*
X9932000Y-6558000D01*
X10000000Y-10168000D02*
X10040000Y-10208000D01*
X10040000Y-10168000D02*
X10000000Y-10208000D01*
X10004000Y-10545000D02*
X10044000Y-10585000D01*
X10044000Y-10545000D02*
X10004000Y-10585000D01*
X10008000Y-10766000D02*
X10048000Y-10806000D01*
X10048000Y-10766000D02*
X10008000Y-10806000D01*
X10012000Y-10000000D02*
X10052000Y-10040000D01*
X10052000Y-10000000D02*
X10012000Y-10040000D01*
X10019000Y-10370000D02*
X10059000Y-10410000D01*
X10059000Y-10370000D02*
X10019000Y-10410000D01*
X10064000Y-6166000D02*
X10104000Y-6206000D01*
X10104000Y-6166000D02*
X10064000Y-6206000D01*
X10064000Y-6945000D02*
X10104000Y-6985000D01*
X10104000Y-6945000D02*
X10064000Y-6985000D01*
X10072000Y-6736000D02*
X10112000Y-6776000D01*
X10112000Y-6736000D02*
X10072000Y-6776000D01*
X10086000Y-6364000D02*
X10126000Y-6404000D01*
X10126000Y-6364000D02*
X10086000Y-6404000D01*
X10088000Y-8852000D02*
X10128000Y-8892000D01*
X10128000Y-8852000D02*
X10088000Y-8892000D01*
X10106000Y-8372000D02*
X10146000Y-8412000D01*
X10146000Y-8372000D02*
X10106000Y-8412000D01*
X10319000Y-4398000D02*
X10359000Y-4438000D01*
X10359000Y-4398000D02*
X10319000Y-4438000D01*
X10355000Y-4923000D02*
X10395000Y-4963000D01*
X10395000Y-4923000D02*
X10355000Y-4963000D01*
X10364000Y-7928000D02*
X10404000Y-7968000D01*
X10404000Y-7928000D02*
X10364000Y-7968000D01*
X10372000Y-3785000D02*
X10412000Y-3825000D01*
X10412000Y-3785000D02*
X10372000Y-3825000D01*
X10461000Y-4149000D02*
X10501000Y-4189000D01*
X10501000Y-4149000D02*
X10461000Y-4189000D01*
X10506000Y-8221000D02*
X10546000Y-8261000D01*
X10546000Y-8221000D02*
X10506000Y-8261000D01*
X10506000Y-8737000D02*
X10546000Y-8777000D01*
X10546000Y-8737000D02*
X10506000Y-8777000D01*
X10525000Y-6384000D02*
X10565000Y-6424000D01*
X10565000Y-6384000D02*
X10525000Y-6424000D01*
X10564000Y-6065000D02*
X10604000Y-6105000D01*
X10604000Y-6065000D02*
X10564000Y-6105000D01*
X10595000Y-4114000D02*
X10635000Y-4154000D01*
X10635000Y-4114000D02*
X10595000Y-4154000D01*
X10595000Y-4505000D02*
X10635000Y-4545000D01*
X10635000Y-4505000D02*
X10595000Y-4545000D01*
X10621000Y-6736000D02*
X10661000Y-6776000D01*
X10661000Y-6736000D02*
X10621000Y-6776000D01*
X10630000Y-5367000D02*
X10670000Y-5407000D01*
X10670000Y-5367000D02*
X10630000Y-5407000D01*
X10630000Y-7323000D02*
X10670000Y-7363000D01*
X10670000Y-7323000D02*
X10630000Y-7363000D01*
X10639000Y-7634000D02*
X10679000Y-7674000D01*
X10679000Y-7634000D02*
X10639000Y-7674000D01*
X10701000Y-7928000D02*
X10741000Y-7968000D01*
X10741000Y-7928000D02*
X10701000Y-7968000D01*
X10724000Y-8941000D02*
X10764000Y-8981000D01*
X10764000Y-8941000D02*
X10724000Y-8981000D01*
X10728000Y-6808000D02*
X10768000Y-6848000D01*
X10768000Y-6808000D02*
X10728000Y-6848000D01*
X10764000Y-8461000D02*
X10804000Y-8501000D01*
X10804000Y-8461000D02*
X10764000Y-8501000D01*
X10772000Y-5767000D02*
X10812000Y-5807000D01*
X10812000Y-5767000D02*
X10772000Y-5807000D01*
X10785000Y-9408000D02*
X10825000Y-9448000D01*
X10825000Y-9408000D02*
X10785000Y-9448000D01*
X10805000Y-10038000D02*
X10845000Y-10078000D01*
X10845000Y-10038000D02*
X10805000Y-10078000D01*
X10808000Y-4985000D02*
X10848000Y-5025000D01*
X10848000Y-4985000D02*
X10808000Y-5025000D01*
X10825000Y-10485000D02*
X10865000Y-10525000D01*
X10865000Y-10485000D02*
X10825000Y-10525000D01*
X10846000Y-11075000D02*
X10886000Y-11115000D01*
X10886000Y-11075000D02*
X10846000Y-11115000D01*
X10846000Y-11644000D02*
X10886000Y-11684000D01*
X10886000Y-11644000D02*
X10846000Y-11684000D01*
X10849000Y-6401000D02*
X10889000Y-6441000D01*
X10889000Y-6401000D02*
X10849000Y-6441000D01*
X10866000Y-12172000D02*
X10906000Y-12212000D01*
X10906000Y-12172000D02*
X10866000Y-12212000D01*
X10866000Y-12538000D02*
X10906000Y-12578000D01*
X10906000Y-12538000D02*
X10866000Y-12578000D01*
X10915000Y-4683000D02*
X10955000Y-4723000D01*
X10955000Y-4683000D02*
X10915000Y-4723000D01*
X10915000Y-7154000D02*
X10955000Y-7194000D01*
X10955000Y-7154000D02*
X10915000Y-7194000D01*
X10921000Y-8697000D02*
X10961000Y-8737000D01*
X10961000Y-8697000D02*
X10921000Y-8737000D01*
X10924000Y-3749000D02*
X10964000Y-3789000D01*
X10964000Y-3749000D02*
X10924000Y-3789000D01*
X10924000Y-4105000D02*
X10964000Y-4145000D01*
X10964000Y-4105000D02*
X10924000Y-4145000D01*
X10932000Y-6071000D02*
X10972000Y-6111000D01*
X10972000Y-6071000D02*
X10932000Y-6111000D01*
X10950000Y-7537000D02*
X10990000Y-7577000D01*
X10990000Y-7537000D02*
X10950000Y-7577000D01*
X10986000Y-7999000D02*
X11026000Y-8039000D01*
X11026000Y-7999000D02*
X10986000Y-8039000D01*
X10988000Y-9083000D02*
X11028000Y-9123000D01*
X11028000Y-9083000D02*
X10988000Y-9123000D01*
X11011000Y-9446000D02*
X11051000Y-9486000D01*
X11051000Y-9446000D02*
X11011000Y-9486000D01*
X11012000Y-10808000D02*
X11052000Y-10848000D01*
X11052000Y-10808000D02*
X11012000Y-10848000D01*
X11021000Y-5323000D02*
X11061000Y-5363000D01*
X11061000Y-5323000D02*
X11021000Y-5363000D01*
X11044000Y-9787000D02*
X11084000Y-9827000D01*
X11084000Y-9787000D02*
X11044000Y-9827000D01*
X11048000Y-5803000D02*
X11088000Y-5843000D01*
X11088000Y-5803000D02*
X11048000Y-5843000D01*
X11084000Y-11937000D02*
X11124000Y-11977000D01*
X11124000Y-11937000D02*
X11084000Y-11977000D01*
X11093000Y-10381000D02*
X11133000Y-10421000D01*
X11133000Y-10381000D02*
X11093000Y-10421000D01*
X11110000Y-8381000D02*
X11150000Y-8421000D01*
X11150000Y-8381000D02*
X11110000Y-8421000D01*
X11110000Y-13025000D02*
X11150000Y-13065000D01*
X11150000Y-13025000D02*
X11110000Y-13065000D01*
X11146000Y-11270000D02*
X11186000Y-11310000D01*
X11186000Y-11270000D02*
X11146000Y-11310000D01*
X11146000Y-11519000D02*
X11186000Y-11559000D01*
X11186000Y-11519000D02*
X11146000Y-11559000D01*
X11190000Y-4452000D02*
X11230000Y-4492000D01*
X11230000Y-4452000D02*
X11190000Y-4492000D01*
X11190000Y-5003000D02*
X11230000Y-5043000D01*
X11230000Y-5003000D02*
X11190000Y-5043000D01*
X11191000Y-12233000D02*
X11231000Y-12273000D01*
X11231000Y-12233000D02*
X11191000Y-12273000D01*
X11206000Y-6417000D02*
X11246000Y-6457000D01*
X11246000Y-6417000D02*
X11206000Y-6457000D01*
X11217000Y-5563000D02*
X11257000Y-5603000D01*
X11257000Y-5563000D02*
X11217000Y-5603000D01*
X11226000Y-6914000D02*
X11266000Y-6954000D01*
X11266000Y-6914000D02*
X11226000Y-6954000D01*
X11234000Y-8692000D02*
X11274000Y-8732000D01*
X11274000Y-8692000D02*
X11234000Y-8732000D01*
X11240000Y-9122000D02*
X11280000Y-9162000D01*
X11280000Y-9122000D02*
X11240000Y-9162000D01*
X11251000Y-6060000D02*
X11291000Y-6100000D01*
X11291000Y-6060000D02*
X11251000Y-6100000D01*
X11261000Y-7296000D02*
X11301000Y-7336000D01*
X11301000Y-7296000D02*
X11261000Y-7336000D01*
X11279000Y-7990000D02*
X11319000Y-8030000D01*
X11319000Y-7990000D02*
X11279000Y-8030000D01*
X11279000Y-10764000D02*
X11319000Y-10804000D01*
X11319000Y-10764000D02*
X11279000Y-10804000D01*
X11285000Y-9815000D02*
X11325000Y-9855000D01*
X11325000Y-9815000D02*
X11285000Y-9855000D01*
X11315000Y-7697000D02*
X11355000Y-7737000D01*
X11355000Y-7697000D02*
X11315000Y-7737000D01*
X11335000Y-9485000D02*
X11375000Y-9525000D01*
X11375000Y-9485000D02*
X11335000Y-9525000D01*
X11341000Y-4692000D02*
X11381000Y-4732000D01*
X11381000Y-4692000D02*
X11341000Y-4732000D01*
X11377000Y-5003000D02*
X11417000Y-5043000D01*
X11417000Y-5003000D02*
X11377000Y-5043000D01*
X11386000Y-10310000D02*
X11426000Y-10350000D01*
X11426000Y-10310000D02*
X11386000Y-10350000D01*
X11415000Y-12599000D02*
X11455000Y-12639000D01*
X11455000Y-12599000D02*
X11415000Y-12639000D01*
X11421000Y-11777000D02*
X11461000Y-11817000D01*
X11461000Y-11777000D02*
X11421000Y-11817000D01*
X11475000Y-3732000D02*
X11515000Y-3772000D01*
X11515000Y-3732000D02*
X11475000Y-3772000D01*
X11475000Y-5438000D02*
X11515000Y-5478000D01*
X11515000Y-5438000D02*
X11475000Y-5478000D01*
X11501000Y-11253000D02*
X11541000Y-11293000D01*
X11541000Y-11253000D02*
X11501000Y-11293000D01*
X11510000Y-4061000D02*
X11550000Y-4101000D01*
X11550000Y-4061000D02*
X11510000Y-4101000D01*
X11555000Y-6994000D02*
X11595000Y-7034000D01*
X11595000Y-6994000D02*
X11555000Y-7034000D01*
X11575000Y-6579000D02*
X11615000Y-6619000D01*
X11615000Y-6579000D02*
X11575000Y-6619000D01*
X11599000Y-8105000D02*
X11639000Y-8145000D01*
X11639000Y-8105000D02*
X11599000Y-8145000D01*
X11599000Y-8488000D02*
X11639000Y-8528000D01*
X11639000Y-8488000D02*
X11599000Y-8528000D01*
X11608000Y-5856000D02*
X11648000Y-5896000D01*
X11648000Y-5856000D02*
X11608000Y-5896000D01*
X11608000Y-10284000D02*
X11648000Y-10324000D01*
X11648000Y-10284000D02*
X11608000Y-10324000D01*
X11614000Y-6283000D02*
X11654000Y-6323000D01*
X11654000Y-6283000D02*
X11614000Y-6323000D01*
X11614000Y-9150000D02*
X11654000Y-9190000D01*
X11654000Y-9150000D02*
X11614000Y-9190000D01*
X11614000Y-9865000D02*
X11654000Y-9905000D01*
X11654000Y-9865000D02*
X11614000Y-9905000D01*
X11617000Y-7403000D02*
X11657000Y-7443000D01*
X11657000Y-7403000D02*
X11617000Y-7443000D01*
X11617000Y-7759000D02*
X11657000Y-7799000D01*
X11657000Y-7759000D02*
X11617000Y-7799000D01*
X11620000Y-8803000D02*
X11660000Y-8843000D01*
X11660000Y-8803000D02*
X11620000Y-8843000D01*
X11631000Y-9524000D02*
X11671000Y-9564000D01*
X11671000Y-9524000D02*
X11631000Y-9564000D01*
X11635000Y-10692000D02*
X11675000Y-10732000D01*
X11675000Y-10692000D02*
X11635000Y-10732000D01*
X11679000Y-13005000D02*
X11719000Y-13045000D01*
X11719000Y-13005000D02*
X11679000Y-13045000D01*
X11724000Y-4407000D02*
X11764000Y-4447000D01*
X11764000Y-4407000D02*
X11724000Y-4447000D01*
X11741000Y-11137000D02*
X11781000Y-11177000D01*
X11781000Y-11137000D02*
X11741000Y-11177000D01*
X11760000Y-12111000D02*
X11800000Y-12151000D01*
X11800000Y-12111000D02*
X11760000Y-12151000D01*
X11786000Y-5278000D02*
X11826000Y-5318000D01*
X11826000Y-5278000D02*
X11786000Y-5318000D01*
X11786000Y-11546000D02*
X11826000Y-11586000D01*
X11826000Y-11546000D02*
X11786000Y-11586000D01*
X11795000Y-4994000D02*
X11835000Y-5034000D01*
X11835000Y-4994000D02*
X11795000Y-5034000D01*
X11830000Y-4745000D02*
X11870000Y-4785000D01*
X11870000Y-4745000D02*
X11830000Y-4785000D01*
X11866000Y-5572000D02*
X11906000Y-5612000D01*
X11906000Y-5572000D02*
X11866000Y-5612000D01*
X11901000Y-3749000D02*
X11941000Y-3789000D01*
X11941000Y-3749000D02*
X11901000Y-3789000D01*
X11955000Y-4061000D02*
X11995000Y-4101000D01*
X11995000Y-4061000D02*
X11955000Y-4101000D01*
X11964000Y-11768000D02*
X12004000Y-11808000D01*
X12004000Y-11768000D02*
X11964000Y-11808000D01*
X11973000Y-11137000D02*
X12013000Y-11177000D01*
X12013000Y-11137000D02*
X11973000Y-11177000D01*
X11984000Y-12599000D02*
X12024000Y-12639000D01*
X12024000Y-12599000D02*
X11984000Y-12639000D01*
X12026000Y-4443000D02*
X12066000Y-4483000D01*
X12066000Y-4443000D02*
X12026000Y-4483000D01*
X12142000Y-5590000D02*
X12182000Y-5630000D01*
X12182000Y-5590000D02*
X12142000Y-5630000D01*
X12150000Y-4994000D02*
X12190000Y-5034000D01*
X12190000Y-4994000D02*
X12150000Y-5034000D01*
X12159000Y-5821000D02*
X12199000Y-5861000D01*
X12199000Y-5821000D02*
X12159000Y-5861000D01*
X12177000Y-5323000D02*
X12217000Y-5363000D01*
X12217000Y-5323000D02*
X12177000Y-5363000D01*
X12223000Y-7588000D02*
X12263000Y-7628000D01*
X12263000Y-7588000D02*
X12223000Y-7628000D01*
X12224000Y-7278000D02*
X12264000Y-7318000D01*
X12264000Y-7278000D02*
X12224000Y-7318000D01*
X12260000Y-8232000D02*
X12300000Y-8272000D01*
X12300000Y-8232000D02*
X12260000Y-8272000D01*
X12271000Y-8038000D02*
X12311000Y-8078000D01*
X12311000Y-8038000D02*
X12271000Y-8078000D01*
X12271000Y-9280000D02*
X12311000Y-9320000D01*
X12311000Y-9280000D02*
X12271000Y-9320000D01*
X12275000Y-8453000D02*
X12315000Y-8493000D01*
X12315000Y-8453000D02*
X12275000Y-8493000D01*
X12284000Y-4763000D02*
X12324000Y-4803000D01*
X12324000Y-4763000D02*
X12284000Y-4803000D01*
X12286000Y-7817000D02*
X12326000Y-7857000D01*
X12326000Y-7817000D02*
X12286000Y-7857000D01*
X12286000Y-9006000D02*
X12326000Y-9046000D01*
X12326000Y-9006000D02*
X12286000Y-9046000D01*
X12288000Y-11888000D02*
X12328000Y-11928000D01*
X12328000Y-11888000D02*
X12288000Y-11928000D01*
X12302000Y-9501000D02*
X12342000Y-9541000D01*
X12342000Y-9501000D02*
X12302000Y-9541000D01*
X12309000Y-9737000D02*
X12349000Y-9777000D01*
X12349000Y-9737000D02*
X12309000Y-9777000D01*
X12319000Y-11466000D02*
X12359000Y-11506000D01*
X12359000Y-11466000D02*
X12319000Y-11506000D01*
X12324000Y-7448000D02*
X12364000Y-7488000D01*
X12364000Y-7448000D02*
X12324000Y-7488000D01*
X12346000Y-11093000D02*
X12386000Y-11133000D01*
X12386000Y-11093000D02*
X12346000Y-11133000D01*
X12347000Y-7129000D02*
X12387000Y-7169000D01*
X12387000Y-7129000D02*
X12347000Y-7169000D01*
X12370000Y-13066000D02*
X12410000Y-13106000D01*
X12410000Y-13066000D02*
X12370000Y-13106000D01*
X12417000Y-3732000D02*
X12457000Y-3772000D01*
X12457000Y-3732000D02*
X12417000Y-3772000D01*
X12417000Y-4487000D02*
X12457000Y-4527000D01*
X12457000Y-4487000D02*
X12417000Y-4527000D01*
X12420000Y-7611000D02*
X12460000Y-7651000D01*
X12460000Y-7611000D02*
X12420000Y-7651000D01*
X12420000Y-9196000D02*
X12460000Y-9236000D01*
X12460000Y-9196000D02*
X12420000Y-9236000D01*
X12471000Y-12436000D02*
X12511000Y-12476000D01*
X12511000Y-12436000D02*
X12471000Y-12476000D01*
X12484000Y-8453000D02*
X12524000Y-8493000D01*
X12524000Y-8453000D02*
X12484000Y-8493000D01*
X12497000Y-4123000D02*
X12537000Y-4163000D01*
X12537000Y-4123000D02*
X12497000Y-4163000D01*
X12533000Y-5856000D02*
X12573000Y-5896000D01*
X12573000Y-5856000D02*
X12533000Y-5896000D01*
X12542000Y-4487000D02*
X12582000Y-4527000D01*
X12582000Y-4487000D02*
X12542000Y-4527000D01*
X12559000Y-5554000D02*
X12599000Y-5594000D01*
X12599000Y-5554000D02*
X12559000Y-5594000D01*
X12595000Y-4763000D02*
X12635000Y-4803000D01*
X12635000Y-4763000D02*
X12595000Y-4803000D01*
X12595000Y-5270000D02*
X12635000Y-5310000D01*
X12635000Y-5270000D02*
X12595000Y-5310000D01*
X12629000Y-9257000D02*
X12669000Y-9297000D01*
X12669000Y-9257000D02*
X12629000Y-9297000D01*
X12648000Y-12044000D02*
X12688000Y-12084000D01*
X12688000Y-12044000D02*
X12648000Y-12084000D01*
X12652000Y-7680000D02*
X12692000Y-7720000D01*
X12692000Y-7680000D02*
X12652000Y-7720000D01*
X12657000Y-11493000D02*
X12697000Y-11533000D01*
X12697000Y-11493000D02*
X12657000Y-11533000D01*
X12690000Y-8484000D02*
X12730000Y-8524000D01*
X12730000Y-8484000D02*
X12690000Y-8524000D01*
X12719000Y-11128000D02*
X12759000Y-11168000D01*
X12759000Y-11128000D02*
X12719000Y-11168000D01*
X12843000Y-11440000D02*
X12883000Y-11480000D01*
X12883000Y-11440000D02*
X12843000Y-11480000D01*
X12844000Y-3767000D02*
X12884000Y-3807000D01*
X12884000Y-3767000D02*
X12844000Y-3807000D01*
X12844000Y-12204000D02*
X12884000Y-12244000D01*
X12884000Y-12204000D02*
X12844000Y-12244000D01*
X12853000Y-4105000D02*
X12893000Y-4145000D01*
X12893000Y-4105000D02*
X12853000Y-4145000D01*
X12862000Y-4985000D02*
X12902000Y-5025000D01*
X12902000Y-4985000D02*
X12862000Y-5025000D01*
X12896000Y-7710000D02*
X12936000Y-7750000D01*
X12936000Y-7710000D02*
X12896000Y-7750000D01*
X12896000Y-8495000D02*
X12936000Y-8535000D01*
X12936000Y-8495000D02*
X12896000Y-8535000D01*
X12915000Y-9280000D02*
X12955000Y-9320000D01*
X12955000Y-9280000D02*
X12915000Y-9320000D01*
X12942000Y-5261000D02*
X12982000Y-5301000D01*
X12982000Y-5261000D02*
X12942000Y-5301000D01*
X12959000Y-5892000D02*
X12999000Y-5932000D01*
X12999000Y-5892000D02*
X12959000Y-5932000D01*
X12968000Y-5634000D02*
X13008000Y-5674000D01*
X13008000Y-5634000D02*
X12968000Y-5674000D01*
X12986000Y-4469000D02*
X13026000Y-4509000D01*
X13026000Y-4469000D02*
X12986000Y-4509000D01*
X13010000Y-7089000D02*
X13050000Y-7129000D01*
X13050000Y-7089000D02*
X13010000Y-7129000D01*
X13029000Y-7528000D02*
X13069000Y-7568000D01*
X13069000Y-7528000D02*
X13029000Y-7568000D01*
X13041000Y-9113000D02*
X13081000Y-9153000D01*
X13081000Y-9113000D02*
X13041000Y-9153000D01*
X13056000Y-7314000D02*
X13096000Y-7354000D01*
X13096000Y-7314000D02*
X13056000Y-7354000D01*
X13060000Y-9764000D02*
X13100000Y-9804000D01*
X13100000Y-9764000D02*
X13060000Y-9804000D01*
X13071000Y-7901000D02*
X13111000Y-7941000D01*
X13111000Y-7901000D02*
X13071000Y-7941000D01*
X13083000Y-9535000D02*
X13123000Y-9575000D01*
X13123000Y-9535000D02*
X13083000Y-9575000D01*
X13113000Y-8168000D02*
X13153000Y-8208000D01*
X13153000Y-8168000D02*
X13113000Y-8208000D01*
X13140000Y-9322000D02*
X13180000Y-9362000D01*
X13180000Y-9322000D02*
X13140000Y-9362000D01*
X13147000Y-8461000D02*
X13187000Y-8501000D01*
X13187000Y-8461000D02*
X13147000Y-8501000D01*
X13147000Y-11928000D02*
X13187000Y-11968000D01*
X13187000Y-11928000D02*
X13147000Y-11968000D01*
X13174000Y-7726000D02*
X13214000Y-7766000D01*
X13214000Y-7726000D02*
X13174000Y-7766000D01*
X13188000Y-11075000D02*
X13228000Y-11115000D01*
X13228000Y-11075000D02*
X13188000Y-11115000D01*
X13201000Y-8998000D02*
X13241000Y-9038000D01*
X13241000Y-8998000D02*
X13201000Y-9038000D01*
X13217000Y-12275000D02*
X13257000Y-12315000D01*
X13257000Y-12275000D02*
X13217000Y-12315000D01*
X13231000Y-7970000D02*
X13271000Y-8010000D01*
X13271000Y-7970000D02*
X13231000Y-8010000D01*
X13249000Y-11603000D02*
X13289000Y-11643000D01*
X13289000Y-11603000D02*
X13249000Y-11643000D01*
X13288000Y-9547000D02*
X13328000Y-9587000D01*
X13328000Y-9547000D02*
X13288000Y-9587000D01*
X13304000Y-9745000D02*
X13344000Y-9785000D01*
X13344000Y-9745000D02*
X13304000Y-9785000D01*
X13342000Y-8202000D02*
X13382000Y-8242000D01*
X13382000Y-8202000D02*
X13342000Y-8242000D01*
X13361000Y-9234000D02*
X13401000Y-9274000D01*
X13401000Y-9234000D02*
X13361000Y-9274000D01*
X13391000Y-8480000D02*
X13431000Y-8520000D01*
X13431000Y-8480000D02*
X13391000Y-8520000D01*
X13445000Y-7684000D02*
X13485000Y-7724000D01*
X13485000Y-7684000D02*
X13445000Y-7724000D01*
X13452000Y-8968000D02*
X13492000Y-9008000D01*
X13492000Y-8968000D02*
X13452000Y-9008000D01*
X13460000Y-7935000D02*
X13500000Y-7975000D01*
X13500000Y-7935000D02*
X13460000Y-7975000D01*
X13460000Y-9436000D02*
X13500000Y-9476000D01*
X13500000Y-9436000D02*
X13460000Y-9476000D01*
X13525000Y-11542000D02*
X13565000Y-11582000D01*
X13565000Y-11542000D02*
X13525000Y-11582000D01*
X13533000Y-11156000D02*
X13573000Y-11196000D01*
X13573000Y-11156000D02*
X13533000Y-11196000D01*
X13554000Y-11989000D02*
X13594000Y-12029000D01*
X13594000Y-11989000D02*
X13554000Y-12029000D01*
X13554000Y-12375000D02*
X13594000Y-12415000D01*
X13594000Y-12375000D02*
X13554000Y-12415000D01*
X13555000Y-8114000D02*
X13595000Y-8154000D01*
X13595000Y-8114000D02*
X13555000Y-8154000D01*
X13563000Y-8366000D02*
X13603000Y-8406000D01*
X13603000Y-8366000D02*
X13563000Y-8406000D01*
X13582000Y-9638000D02*
X13622000Y-9678000D01*
X13622000Y-9638000D02*
X13582000Y-9678000D01*
X13589000Y-9139000D02*
X13629000Y-9179000D01*
X13629000Y-9139000D02*
X13589000Y-9179000D01*
X13615000Y-12782000D02*
X13655000Y-12822000D01*
X13655000Y-12782000D02*
X13615000Y-12822000D01*
X13627000Y-7608000D02*
X13667000Y-7648000D01*
X13667000Y-7608000D02*
X13627000Y-7648000D01*
X13655000Y-13086000D02*
X13695000Y-13126000D01*
X13695000Y-13086000D02*
X13655000Y-13126000D01*
X13726000Y-4426000D02*
X13766000Y-4466000D01*
X13766000Y-4426000D02*
X13726000Y-4466000D01*
X13735000Y-4822000D02*
X13775000Y-4862000D01*
X13775000Y-4822000D02*
X13735000Y-4862000D01*
X13746000Y-3950000D02*
X13786000Y-3990000D01*
X13786000Y-3950000D02*
X13746000Y-3990000D01*
X13746000Y-7775000D02*
X13786000Y-7815000D01*
X13786000Y-7775000D02*
X13746000Y-7815000D01*
X13751000Y-4627000D02*
X13791000Y-4667000D01*
X13791000Y-4627000D02*
X13751000Y-4667000D01*
X13757000Y-9776000D02*
X13797000Y-9816000D01*
X13797000Y-9776000D02*
X13757000Y-9816000D01*
X13761000Y-4171000D02*
X13801000Y-4211000D01*
X13801000Y-4171000D02*
X13761000Y-4211000D01*
X13771000Y-11019000D02*
X13811000Y-11059000D01*
X13811000Y-11019000D02*
X13771000Y-11059000D01*
X13771000Y-11254000D02*
X13811000Y-11294000D01*
X13811000Y-11254000D02*
X13771000Y-11294000D01*
X13794000Y-11637000D02*
X13834000Y-11677000D01*
X13834000Y-11637000D02*
X13794000Y-11677000D01*
X13803000Y-3714000D02*
X13843000Y-3754000D01*
X13843000Y-3714000D02*
X13803000Y-3754000D01*
X13810000Y-12089000D02*
X13850000Y-12129000D01*
X13850000Y-12089000D02*
X13810000Y-12129000D01*
X13845000Y-7608000D02*
X13885000Y-7648000D01*
X13885000Y-7608000D02*
X13845000Y-7648000D01*
X13861000Y-12464000D02*
X13901000Y-12504000D01*
X13901000Y-12464000D02*
X13861000Y-12504000D01*
X13952000Y-4828000D02*
X13992000Y-4868000D01*
X13992000Y-4828000D02*
X13952000Y-4868000D01*
X13963000Y-7775000D02*
X14003000Y-7815000D01*
X14003000Y-7775000D02*
X13963000Y-7815000D01*
X13966000Y-4597000D02*
X14006000Y-4637000D01*
X14006000Y-4597000D02*
X13966000Y-4637000D01*
X13967000Y-4156000D02*
X14007000Y-4196000D01*
X14007000Y-4156000D02*
X13967000Y-4196000D01*
X13970000Y-9734000D02*
X14010000Y-9774000D01*
X14010000Y-9734000D02*
X13970000Y-9774000D01*
X13982000Y-4388000D02*
X14022000Y-4428000D01*
X14022000Y-4388000D02*
X13982000Y-4428000D01*
X13997000Y-3900000D02*
X14037000Y-3940000D01*
X14037000Y-3900000D02*
X13997000Y-3940000D01*
X14006000Y-11765000D02*
X14046000Y-11805000D01*
X14046000Y-11765000D02*
X14006000Y-11805000D01*
X14051000Y-12145000D02*
X14091000Y-12185000D01*
X14091000Y-12145000D02*
X14051000Y-12185000D01*
X14062000Y-11385000D02*
X14102000Y-11425000D01*
X14102000Y-11385000D02*
X14062000Y-11425000D01*
X14079000Y-11055000D02*
X14119000Y-11095000D01*
X14119000Y-11055000D02*
X14079000Y-11095000D01*
X14081000Y-7608000D02*
X14121000Y-7648000D01*
X14121000Y-7608000D02*
X14081000Y-7648000D01*
X14092000Y-3718000D02*
X14132000Y-3758000D01*
X14132000Y-3718000D02*
X14092000Y-3758000D01*
X14123000Y-13168000D02*
X14163000Y-13208000D01*
X14163000Y-13168000D02*
X14123000Y-13208000D01*
X14135000Y-4841000D02*
X14175000Y-4881000D01*
X14175000Y-4841000D02*
X14135000Y-4881000D01*
X14138000Y-9734000D02*
X14178000Y-9774000D01*
X14178000Y-9734000D02*
X14138000Y-9774000D01*
X14147000Y-4446000D02*
X14187000Y-4486000D01*
X14187000Y-4446000D02*
X14147000Y-4486000D01*
X14157000Y-4627000D02*
X14197000Y-4667000D01*
X14197000Y-4627000D02*
X14157000Y-4667000D01*
X14172000Y-7775000D02*
X14212000Y-7815000D01*
X14212000Y-7775000D02*
X14172000Y-7815000D01*
X14265000Y-12741000D02*
X14305000Y-12781000D01*
X14305000Y-12741000D02*
X14265000Y-12781000D01*
X14302000Y-12452000D02*
X14342000Y-12492000D01*
X14342000Y-12452000D02*
X14302000Y-12492000D01*
X14318000Y-4674000D02*
X14358000Y-4714000D01*
X14358000Y-4674000D02*
X14318000Y-4714000D01*
X14324000Y-4469000D02*
X14364000Y-4509000D01*
X14364000Y-4469000D02*
X14324000Y-4509000D01*
X14324000Y-11642000D02*
X14364000Y-11682000D01*
X14364000Y-11642000D02*
X14324000Y-11682000D01*
X14328000Y-4853000D02*
X14368000Y-4893000D01*
X14368000Y-4853000D02*
X14328000Y-4893000D01*
X14351000Y-3737000D02*
X14391000Y-3777000D01*
X14391000Y-3737000D02*
X14351000Y-3777000D01*
X14380000Y-12179000D02*
X14420000Y-12219000D01*
X14420000Y-12179000D02*
X14380000Y-12219000D01*
X14394000Y-11081000D02*
X14434000Y-11121000D01*
X14434000Y-11081000D02*
X14394000Y-11121000D01*
X14425000Y-11396000D02*
X14465000Y-11436000D01*
X14465000Y-11396000D02*
X14425000Y-11436000D01*
X14425000Y-11927000D02*
X14465000Y-11967000D01*
X14465000Y-11927000D02*
X14425000Y-11967000D01*
X14493000Y-4444000D02*
X14533000Y-4484000D01*
X14533000Y-4444000D02*
X14493000Y-4484000D01*
X14507000Y-4656000D02*
X14547000Y-4696000D01*
X14547000Y-4656000D02*
X14507000Y-4696000D01*
X14515000Y-4861000D02*
X14555000Y-4901000D01*
X14555000Y-4861000D02*
X14515000Y-4901000D01*
X14631000Y-13188000D02*
X14671000Y-13228000D01*
X14671000Y-13188000D02*
X14631000Y-13228000D01*
X14633000Y-3733000D02*
X14673000Y-3773000D01*
X14673000Y-3733000D02*
X14633000Y-3773000D01*
X14671000Y-11620000D02*
X14711000Y-11660000D01*
X14711000Y-11620000D02*
X14671000Y-11660000D01*
X14712000Y-4863000D02*
X14752000Y-4903000D01*
X14752000Y-4863000D02*
X14712000Y-4903000D01*
X14712000Y-12843000D02*
X14752000Y-12883000D01*
X14752000Y-12843000D02*
X14712000Y-12883000D01*
X14732000Y-4674000D02*
X14772000Y-4714000D01*
X14772000Y-4674000D02*
X14732000Y-4714000D01*
X14734000Y-4493000D02*
X14774000Y-4533000D01*
X14774000Y-4493000D02*
X14734000Y-4533000D01*
X14738000Y-12464000D02*
X14778000Y-12504000D01*
X14778000Y-12464000D02*
X14738000Y-12504000D01*
X14749000Y-11396000D02*
X14789000Y-11436000D01*
X14789000Y-11396000D02*
X14749000Y-11436000D01*
X14752000Y-11050000D02*
X14792000Y-11090000D01*
X14792000Y-11050000D02*
X14752000Y-11090000D01*
X14889000Y-11955000D02*
X14929000Y-11995000D01*
X14929000Y-11955000D02*
X14889000Y-11995000D01*
X14894000Y-12190000D02*
X14934000Y-12230000D01*
X14934000Y-12190000D02*
X14894000Y-12230000D01*
X15040000Y-11603000D02*
X15080000Y-11643000D01*
X15080000Y-11603000D02*
X15040000Y-11643000D01*
X15078000Y-13188000D02*
X15118000Y-13228000D01*
X15118000Y-13188000D02*
X15078000Y-13228000D01*
X15110000Y-11053000D02*
X15150000Y-11093000D01*
X15150000Y-11053000D02*
X15110000Y-11093000D01*
X15179000Y-12843000D02*
X15219000Y-12883000D01*
X15219000Y-12843000D02*
X15179000Y-12883000D01*
X15202000Y-12464000D02*
X15242000Y-12504000D01*
X15242000Y-12464000D02*
X15202000Y-12504000D01*
X15213000Y-11413000D02*
X15253000Y-11453000D01*
X15253000Y-11413000D02*
X15213000Y-11453000D01*
X15330000Y-11882000D02*
X15370000Y-11922000D01*
X15370000Y-11882000D02*
X15330000Y-11922000D01*
X15367000Y-6082000D02*
X15407000Y-6122000D01*
X15407000Y-6082000D02*
X15367000Y-6122000D01*
X15383000Y-5881000D02*
X15423000Y-5921000D01*
X15423000Y-5881000D02*
X15383000Y-5921000D01*
X15386000Y-5710000D02*
X15426000Y-5750000D01*
X15426000Y-5710000D02*
X15386000Y-5750000D01*
X15392000Y-5508000D02*
X15432000Y-5548000D01*
X15432000Y-5508000D02*
X15392000Y-5548000D01*
X15398000Y-5337000D02*
X15438000Y-5377000D01*
X15438000Y-5337000D02*
X15398000Y-5377000D01*
X15404000Y-5160000D02*
X15444000Y-5200000D01*
X15444000Y-5160000D02*
X15404000Y-5200000D01*
X15422000Y-11082000D02*
X15462000Y-11122000D01*
X15462000Y-11082000D02*
X15422000Y-11122000D01*
X15423000Y-4995000D02*
X15463000Y-5035000D01*
X15463000Y-4995000D02*
X15423000Y-5035000D01*
X15487000Y-12279000D02*
X15527000Y-12319000D01*
X15527000Y-12279000D02*
X15487000Y-12319000D01*
X15520000Y-11402000D02*
X15560000Y-11442000D01*
X15560000Y-11402000D02*
X15520000Y-11442000D01*
X15545000Y-6110000D02*
X15585000Y-6150000D01*
X15585000Y-6110000D02*
X15545000Y-6150000D01*
X15562000Y-5889000D02*
X15602000Y-5929000D01*
X15602000Y-5889000D02*
X15562000Y-5929000D01*
X15571000Y-5680000D02*
X15611000Y-5720000D01*
X15611000Y-5680000D02*
X15571000Y-5720000D01*
X15571000Y-11653000D02*
X15611000Y-11693000D01*
X15611000Y-11653000D02*
X15571000Y-11693000D01*
X15689000Y-11056000D02*
X15729000Y-11096000D01*
X15729000Y-11056000D02*
X15689000Y-11096000D01*
X15761000Y-5677000D02*
X15801000Y-5717000D01*
X15801000Y-5677000D02*
X15761000Y-5717000D01*
X15788000Y-12005000D02*
X15828000Y-12045000D01*
X15828000Y-12005000D02*
X15788000Y-12045000D01*
X15805000Y-11748000D02*
X15845000Y-11788000D01*
X15845000Y-11748000D02*
X15805000Y-11788000D01*
X15816000Y-12274000D02*
X15856000Y-12314000D01*
X15856000Y-12274000D02*
X15816000Y-12314000D01*
X15833000Y-11419000D02*
X15873000Y-11459000D01*
X15873000Y-11419000D02*
X15833000Y-11459000D01*
X15967000Y-5688000D02*
X16007000Y-5728000D01*
X16007000Y-5688000D02*
X15967000Y-5728000D01*
X15974000Y-11056000D02*
X16014000Y-11096000D01*
X16014000Y-11056000D02*
X15974000Y-11096000D01*
X16006000Y-5937000D02*
X16046000Y-5977000D01*
X16046000Y-5937000D02*
X16006000Y-5977000D01*
X16020000Y-6130000D02*
X16060000Y-6170000D01*
X16060000Y-6130000D02*
X16020000Y-6170000D01*
X16124000Y-11944000D02*
X16164000Y-11984000D01*
X16164000Y-11944000D02*
X16124000Y-11984000D01*
X16124000Y-12218000D02*
X16164000Y-12258000D01*
X16164000Y-12218000D02*
X16124000Y-12258000D01*
X16143000Y-5643000D02*
X16183000Y-5683000D01*
X16183000Y-5643000D02*
X16143000Y-5683000D01*
X16153000Y-11334000D02*
X16193000Y-11374000D01*
X16193000Y-11334000D02*
X16153000Y-11374000D01*
X16165000Y-11574000D02*
X16205000Y-11614000D01*
X16205000Y-11574000D02*
X16165000Y-11614000D01*
X16166000Y-5378000D02*
X16206000Y-5418000D01*
X16206000Y-5378000D02*
X16166000Y-5418000D01*
X16180000Y-4937000D02*
X16220000Y-4977000D01*
X16220000Y-4937000D02*
X16180000Y-4977000D01*
X16184000Y-11071000D02*
X16224000Y-11111000D01*
X16224000Y-11071000D02*
X16184000Y-11111000D01*
X16185000Y-5900000D02*
X16225000Y-5940000D01*
X16225000Y-5900000D02*
X16185000Y-5940000D01*
X16194000Y-5138000D02*
X16234000Y-5178000D01*
X16234000Y-5138000D02*
X16194000Y-5178000D01*
X16196000Y-6130000D02*
X16236000Y-6170000D01*
X16236000Y-6130000D02*
X16196000Y-6170000D01*
X6735000Y-4000000D02*
G75*
G03X6735000Y-4000000I-25000J0D01*
G01*
X6735000Y-13000000D02*
G75*
G03X6735000Y-13000000I-25000J0D01*
G01*
X6805294Y-3830294D02*
G75*
G03X6805294Y-3830294I-25000J0D01*
G01*
X6805294Y-4169706D02*
G75*
G03X6805294Y-4169706I-25000J0D01*
G01*
X6805294Y-12830294D02*
G75*
G03X6805294Y-12830294I-25000J0D01*
G01*
X6805294Y-13169706D02*
G75*
G03X6805294Y-13169706I-25000J0D01*
G01*
X6975000Y-3760000D02*
G75*
G03X6975000Y-3760000I-25000J0D01*
G01*
X6975000Y-4240000D02*
G75*
G03X6975000Y-4240000I-25000J0D01*
G01*
X6975000Y-12760000D02*
G75*
G03X6975000Y-12760000I-25000J0D01*
G01*
X6975000Y-13240000D02*
G75*
G03X6975000Y-13240000I-25000J0D01*
G01*
X7144706Y-3830294D02*
G75*
G03X7144706Y-3830294I-25000J0D01*
G01*
X7144706Y-4169706D02*
G75*
G03X7144706Y-4169706I-25000J0D01*
G01*
X7144706Y-12830294D02*
G75*
G03X7144706Y-12830294I-25000J0D01*
G01*
X7144706Y-13169706D02*
G75*
G03X7144706Y-13169706I-25000J0D01*
G01*
X7215000Y-4000000D02*
G75*
G03X7215000Y-4000000I-25000J0D01*
G01*
X7215000Y-13000000D02*
G75*
G03X7215000Y-13000000I-25000J0D01*
G01*
X15735000Y-4000000D02*
G75*
G03X15735000Y-4000000I-25000J0D01*
G01*
X15735000Y-13000000D02*
G75*
G03X15735000Y-13000000I-25000J0D01*
G01*
X15805294Y-3830294D02*
G75*
G03X15805294Y-3830294I-25000J0D01*
G01*
X15805294Y-4169706D02*
G75*
G03X15805294Y-4169706I-25000J0D01*
G01*
X15805294Y-12830294D02*
G75*
G03X15805294Y-12830294I-25000J0D01*
G01*
X15805294Y-13169706D02*
G75*
G03X15805294Y-13169706I-25000J0D01*
G01*
X15975000Y-3760000D02*
G75*
G03X15975000Y-3760000I-25000J0D01*
G01*
X15975000Y-4240000D02*
G75*
G03X15975000Y-4240000I-25000J0D01*
G01*
X15975000Y-12760000D02*
G75*
G03X15975000Y-12760000I-25000J0D01*
G01*
X15975000Y-13240000D02*
G75*
G03X15975000Y-13240000I-25000J0D01*
G01*
X16144706Y-3830294D02*
G75*
G03X16144706Y-3830294I-25000J0D01*
G01*
X16144706Y-4169706D02*
G75*
G03X16144706Y-4169706I-25000J0D01*
G01*
X16144706Y-12830294D02*
G75*
G03X16144706Y-12830294I-25000J0D01*
G01*
X16144706Y-13169706D02*
G75*
G03X16144706Y-13169706I-25000J0D01*
G01*
X16215000Y-4000000D02*
G75*
G03X16215000Y-4000000I-25000J0D01*
G01*
X16215000Y-13000000D02*
G75*
G03X16215000Y-13000000I-25000J0D01*
G01*
X7100000Y-6850000D02*
X7100000Y-6950000D01*
X7050000Y-6900000D02*
X7150000Y-6900000D01*
X7100000Y-7850000D02*
X7100000Y-7950000D01*
X7050000Y-7900000D02*
X7150000Y-7900000D01*
X7100000Y-8850000D02*
X7100000Y-8950000D01*
X7050000Y-8900000D02*
X7150000Y-8900000D01*
X7100000Y-9850000D02*
X7100000Y-9950000D01*
X7050000Y-9900000D02*
X7150000Y-9900000D01*
X8150000Y-6850000D02*
X8150000Y-6950000D01*
X8100000Y-6900000D02*
X8200000Y-6900000D01*
X8150000Y-7850000D02*
X8150000Y-7950000D01*
X8100000Y-7900000D02*
X8200000Y-7900000D01*
X8150000Y-8850000D02*
X8150000Y-8950000D01*
X8100000Y-8900000D02*
X8200000Y-8900000D01*
X8150000Y-9850000D02*
X8150000Y-9950000D01*
X8100000Y-9900000D02*
X8200000Y-9900000D01*
X14442427Y-5542427D02*
X14442427Y-5457573D01*
X14357573Y-5457573D01*
X14357573Y-5542427D01*
X14442427Y-5542427D01*
X14442427Y-7042427D02*
X14442427Y-6957573D01*
X14357573Y-6957573D01*
X14357573Y-7042427D01*
X14442427Y-7042427D01*
X15852427Y-6102427D02*
X15852427Y-6017573D01*
X15767573Y-6017573D01*
X15767573Y-6102427D01*
X15852427Y-6102427D01*
X15852427Y-7602427D02*
X15852427Y-7517573D01*
X15767573Y-7517573D01*
X15767573Y-7602427D01*
X15852427Y-7602427D01*
X9419000Y-6675000D02*
X9499000Y-6595000D01*
X9419000Y-6515000D01*
X9339000Y-6595000D01*
X9419000Y-6675000D01*
X9419000Y-7437000D02*
X9499000Y-7357000D01*
X9419000Y-7277000D01*
X9339000Y-7357000D01*
X9419000Y-7437000D01*
X9419000Y-8199000D02*
X9499000Y-8119000D01*
X9419000Y-8039000D01*
X9339000Y-8119000D01*
X9419000Y-8199000D01*
X9419000Y-8961000D02*
X9499000Y-8881000D01*
X9419000Y-8801000D01*
X9339000Y-8881000D01*
X9419000Y-8961000D01*
X9419000Y-9723000D02*
X9499000Y-9643000D01*
X9419000Y-9563000D01*
X9339000Y-9643000D01*
X9419000Y-9723000D01*
X9419000Y-10485000D02*
X9499000Y-10405000D01*
X9419000Y-10325000D01*
X9339000Y-10405000D01*
X9419000Y-10485000D01*
X12721000Y-6675000D02*
X12801000Y-6595000D01*
X12721000Y-6515000D01*
X12641000Y-6595000D01*
X12721000Y-6675000D01*
X12721000Y-7437000D02*
X12801000Y-7357000D01*
X12721000Y-7277000D01*
X12641000Y-7357000D01*
X12721000Y-7437000D01*
X12721000Y-8199000D02*
X12801000Y-8119000D01*
X12721000Y-8039000D01*
X12641000Y-8119000D01*
X12721000Y-8199000D01*
X12721000Y-8961000D02*
X12801000Y-8881000D01*
X12721000Y-8801000D01*
X12641000Y-8881000D01*
X12721000Y-8961000D01*
X12721000Y-9723000D02*
X12801000Y-9643000D01*
X12721000Y-9563000D01*
X12641000Y-9643000D01*
X12721000Y-9723000D01*
X12721000Y-10230238D02*
X12801000Y-10150238D01*
X12721000Y-10070238D01*
X12641000Y-10150238D01*
X12721000Y-10230238D01*
X7059957Y-10861837D02*
X7240043Y-11041923D01*
X7240043Y-10861837D02*
X7059957Y-11041923D01*
X7240043Y-10951880D02*
G75*
G03X7240043Y-10951880I-90043J0D01*
G01*
X7059957Y-11258077D02*
X7240043Y-11438163D01*
X7240043Y-11258077D02*
X7059957Y-11438163D01*
X7240043Y-11348120D02*
G75*
G03X7240043Y-11348120I-90043J0D01*
G01*
X7159957Y-4891837D02*
X7340043Y-5071923D01*
X7340043Y-4891837D02*
X7159957Y-5071923D01*
X7340043Y-4981880D02*
G75*
G03X7340043Y-4981880I-90043J0D01*
G01*
X7159957Y-5288077D02*
X7340043Y-5468163D01*
X7340043Y-5288077D02*
X7159957Y-5468163D01*
X7340043Y-5378120D02*
G75*
G03X7340043Y-5378120I-90043J0D01*
G01*
X7159957Y-5691837D02*
X7340043Y-5871923D01*
X7340043Y-5691837D02*
X7159957Y-5871923D01*
X7340043Y-5781880D02*
G75*
G03X7340043Y-5781880I-90043J0D01*
G01*
X7159957Y-6088077D02*
X7340043Y-6268163D01*
X7340043Y-6088077D02*
X7159957Y-6268163D01*
X7340043Y-6178120D02*
G75*
G03X7340043Y-6178120I-90043J0D01*
G01*
X8491837Y-12709957D02*
X8671923Y-12890043D01*
X8671923Y-12709957D02*
X8491837Y-12890043D01*
X8671923Y-12800000D02*
G75*
G03X8671923Y-12800000I-90043J0D01*
G01*
X8651837Y-4109957D02*
X8831923Y-4290043D01*
X8831923Y-4109957D02*
X8651837Y-4290043D01*
X8831923Y-4200000D02*
G75*
G03X8831923Y-4200000I-90043J0D01*
G01*
X8888077Y-12709957D02*
X9068163Y-12890043D01*
X9068163Y-12709957D02*
X8888077Y-12890043D01*
X9068163Y-12800000D02*
G75*
G03X9068163Y-12800000I-90043J0D01*
G01*
X9048077Y-4109957D02*
X9228163Y-4290043D01*
X9228163Y-4109957D02*
X9048077Y-4290043D01*
X9228163Y-4200000D02*
G75*
G03X9228163Y-4200000I-90043J0D01*
G01*
X9471837Y-4119957D02*
X9651923Y-4300043D01*
X9651923Y-4119957D02*
X9471837Y-4300043D01*
X9651923Y-4210000D02*
G75*
G03X9651923Y-4210000I-90043J0D01*
G01*
X9868077Y-4119957D02*
X10048163Y-4300043D01*
X10048163Y-4119957D02*
X9868077Y-4300043D01*
X10048163Y-4210000D02*
G75*
G03X10048163Y-4210000I-90043J0D01*
G01*
X12801837Y-12749957D02*
X12981923Y-12930043D01*
X12981923Y-12749957D02*
X12801837Y-12930043D01*
X12981923Y-12840000D02*
G75*
G03X12981923Y-12840000I-90043J0D01*
G01*
X13198077Y-12749957D02*
X13378163Y-12930043D01*
X13378163Y-12749957D02*
X13198077Y-12930043D01*
X13378163Y-12840000D02*
G75*
G03X13378163Y-12840000I-90043J0D01*
G01*
X13879957Y-7951837D02*
X14060043Y-8131923D01*
X14060043Y-7951837D02*
X13879957Y-8131923D01*
X14060043Y-8041880D02*
G75*
G03X14060043Y-8041880I-90043J0D01*
G01*
X13879957Y-8348077D02*
X14060043Y-8528163D01*
X14060043Y-8348077D02*
X13879957Y-8528163D01*
X14060043Y-8438120D02*
G75*
G03X14060043Y-8438120I-90043J0D01*
G01*
X13879957Y-8961837D02*
X14060043Y-9141923D01*
X14060043Y-8961837D02*
X13879957Y-9141923D01*
X14060043Y-9051880D02*
G75*
G03X14060043Y-9051880I-90043J0D01*
G01*
X13879957Y-9358077D02*
X14060043Y-9538163D01*
X14060043Y-9358077D02*
X13879957Y-9538163D01*
X14060043Y-9448120D02*
G75*
G03X14060043Y-9448120I-90043J0D01*
G01*
X14201837Y-4059957D02*
X14381923Y-4240043D01*
X14381923Y-4059957D02*
X14201837Y-4240043D01*
X14381923Y-4150000D02*
G75*
G03X14381923Y-4150000I-90043J0D01*
G01*
X14598077Y-4059957D02*
X14778163Y-4240043D01*
X14778163Y-4059957D02*
X14598077Y-4240043D01*
X14778163Y-4150000D02*
G75*
G03X14778163Y-4150000I-90043J0D01*
G01*
X15719957Y-4931837D02*
X15900043Y-5111923D01*
X15900043Y-4931837D02*
X15719957Y-5111923D01*
X15900043Y-5021880D02*
G75*
G03X15900043Y-5021880I-90043J0D01*
G01*
X15719957Y-5328077D02*
X15900043Y-5508163D01*
X15900043Y-5328077D02*
X15719957Y-5508163D01*
X15900043Y-5418120D02*
G75*
G03X15900043Y-5418120I-90043J0D01*
G01*
X6790000Y-3840000D02*
X7110000Y-4160000D01*
X7110000Y-3840000D02*
X6790000Y-4160000D01*
X6950000Y-3840000D02*
X6950000Y-4160000D01*
X6790000Y-4000000D02*
X7110000Y-4000000D01*
X6790000Y-12840000D02*
X7110000Y-13160000D01*
X7110000Y-12840000D02*
X6790000Y-13160000D01*
X6950000Y-12840000D02*
X6950000Y-13160000D01*
X6790000Y-13000000D02*
X7110000Y-13000000D01*
X15790000Y-3840000D02*
X16110000Y-4160000D01*
X16110000Y-3840000D02*
X15790000Y-4160000D01*
X15950000Y-3840000D02*
X15950000Y-4160000D01*
X15790000Y-4000000D02*
X16110000Y-4000000D01*
X15790000Y-12840000D02*
X16110000Y-13160000D01*
X16110000Y-12840000D02*
X15790000Y-13160000D01*
X15950000Y-12840000D02*
X15950000Y-13160000D01*
X15790000Y-13000000D02*
X16110000Y-13000000D01*
D13*
X6713928Y-13973214D02*
X6713928Y-13673214D01*
X6785357Y-13673214D01*
X6828214Y-13687500D01*
X6856786Y-13716071D01*
X6871071Y-13744643D01*
X6885357Y-13801786D01*
X6885357Y-13844643D01*
X6871071Y-13901786D01*
X6856786Y-13930357D01*
X6828214Y-13958929D01*
X6785357Y-13973214D01*
X6713928Y-13973214D01*
X7013928Y-13973214D02*
X7013928Y-13773214D01*
X7013928Y-13830357D02*
X7028214Y-13801786D01*
X7042500Y-13787500D01*
X7071071Y-13773214D01*
X7099643Y-13773214D01*
X7199643Y-13973214D02*
X7199643Y-13773214D01*
X7199643Y-13673214D02*
X7185357Y-13687500D01*
X7199643Y-13701786D01*
X7213928Y-13687500D01*
X7199643Y-13673214D01*
X7199643Y-13701786D01*
X7385357Y-13973214D02*
X7356786Y-13958929D01*
X7342500Y-13930357D01*
X7342500Y-13673214D01*
X7542500Y-13973214D02*
X7513928Y-13958929D01*
X7499643Y-13930357D01*
X7499643Y-13673214D01*
X7885357Y-13973214D02*
X7885357Y-13673214D01*
X7985357Y-13887500D01*
X8085357Y-13673214D01*
X8085357Y-13973214D01*
X8356786Y-13973214D02*
X8356786Y-13816071D01*
X8342500Y-13787500D01*
X8313928Y-13773214D01*
X8256786Y-13773214D01*
X8228214Y-13787500D01*
X8356786Y-13958929D02*
X8328214Y-13973214D01*
X8256786Y-13973214D01*
X8228214Y-13958929D01*
X8213928Y-13930357D01*
X8213928Y-13901786D01*
X8228214Y-13873214D01*
X8256786Y-13858929D01*
X8328214Y-13858929D01*
X8356786Y-13844643D01*
X8499643Y-13773214D02*
X8499643Y-14073214D01*
X8499643Y-13787500D02*
X8528214Y-13773214D01*
X8585357Y-13773214D01*
X8613929Y-13787500D01*
X8628214Y-13801786D01*
X8642500Y-13830357D01*
X8642500Y-13916071D01*
X8628214Y-13944643D01*
X8613929Y-13958929D01*
X8585357Y-13973214D01*
X8528214Y-13973214D01*
X8499643Y-13958929D01*
X8771071Y-13944643D02*
X8785357Y-13958929D01*
X8771071Y-13973214D01*
X8756786Y-13958929D01*
X8771071Y-13944643D01*
X8771071Y-13973214D01*
X8771071Y-13787500D02*
X8785357Y-13801786D01*
X8771071Y-13816071D01*
X8756786Y-13801786D01*
X8771071Y-13787500D01*
X8771071Y-13816071D01*
X6402500Y-14447500D02*
X6442500Y-14487500D01*
X6442500Y-14447500D02*
X6402500Y-14487500D01*
X6771071Y-14303214D02*
X6799643Y-14303214D01*
X6828214Y-14317500D01*
X6842500Y-14331786D01*
X6856786Y-14360357D01*
X6871071Y-14417500D01*
X6871071Y-14488929D01*
X6856786Y-14546071D01*
X6842500Y-14574643D01*
X6828214Y-14588929D01*
X6799643Y-14603214D01*
X6771071Y-14603214D01*
X6742500Y-14588929D01*
X6728214Y-14574643D01*
X6713928Y-14546071D01*
X6699643Y-14488929D01*
X6699643Y-14417500D01*
X6713928Y-14360357D01*
X6728214Y-14331786D01*
X6742500Y-14317500D01*
X6771071Y-14303214D01*
X6999643Y-14574643D02*
X7013928Y-14588929D01*
X6999643Y-14603214D01*
X6985357Y-14588929D01*
X6999643Y-14574643D01*
X6999643Y-14603214D01*
X7271071Y-14403214D02*
X7271071Y-14603214D01*
X7199643Y-14288929D02*
X7128214Y-14503214D01*
X7313928Y-14503214D01*
X7485357Y-14303214D02*
X7513928Y-14303214D01*
X7542500Y-14317500D01*
X7556786Y-14331786D01*
X7571071Y-14360357D01*
X7585357Y-14417500D01*
X7585357Y-14488929D01*
X7571071Y-14546071D01*
X7556786Y-14574643D01*
X7542500Y-14588929D01*
X7513928Y-14603214D01*
X7485357Y-14603214D01*
X7456786Y-14588929D01*
X7442500Y-14574643D01*
X7428214Y-14546071D01*
X7413928Y-14488929D01*
X7413928Y-14417500D01*
X7428214Y-14360357D01*
X7442500Y-14331786D01*
X7456786Y-14317500D01*
X7485357Y-14303214D01*
X7713928Y-14603214D02*
X7713928Y-14403214D01*
X7713928Y-14431786D02*
X7728214Y-14417500D01*
X7756786Y-14403214D01*
X7799643Y-14403214D01*
X7828214Y-14417500D01*
X7842500Y-14446071D01*
X7842500Y-14603214D01*
X7842500Y-14446071D02*
X7856786Y-14417500D01*
X7885357Y-14403214D01*
X7928214Y-14403214D01*
X7956786Y-14417500D01*
X7971071Y-14446071D01*
X7971071Y-14603214D01*
X8113928Y-14603214D02*
X8113928Y-14403214D01*
X8113928Y-14431786D02*
X8128214Y-14417500D01*
X8156786Y-14403214D01*
X8199643Y-14403214D01*
X8228214Y-14417500D01*
X8242500Y-14446071D01*
X8242500Y-14603214D01*
X8242500Y-14446071D02*
X8256786Y-14417500D01*
X8285357Y-14403214D01*
X8328214Y-14403214D01*
X8356786Y-14417500D01*
X8371071Y-14446071D01*
X8371071Y-14603214D01*
X8956786Y-14288929D02*
X8699643Y-14674643D01*
X9342500Y-14303214D02*
X9371071Y-14303214D01*
X9399643Y-14317500D01*
X9413928Y-14331786D01*
X9428214Y-14360357D01*
X9442500Y-14417500D01*
X9442500Y-14488929D01*
X9428214Y-14546071D01*
X9413928Y-14574643D01*
X9399643Y-14588929D01*
X9371071Y-14603214D01*
X9342500Y-14603214D01*
X9313928Y-14588929D01*
X9299643Y-14574643D01*
X9285357Y-14546071D01*
X9271071Y-14488929D01*
X9271071Y-14417500D01*
X9285357Y-14360357D01*
X9299643Y-14331786D01*
X9313928Y-14317500D01*
X9342500Y-14303214D01*
X9571071Y-14574643D02*
X9585357Y-14588929D01*
X9571071Y-14603214D01*
X9556786Y-14588929D01*
X9571071Y-14574643D01*
X9571071Y-14603214D01*
X9771071Y-14303214D02*
X9799643Y-14303214D01*
X9828214Y-14317500D01*
X9842500Y-14331786D01*
X9856786Y-14360357D01*
X9871071Y-14417500D01*
X9871071Y-14488929D01*
X9856786Y-14546071D01*
X9842500Y-14574643D01*
X9828214Y-14588929D01*
X9799643Y-14603214D01*
X9771071Y-14603214D01*
X9742500Y-14588929D01*
X9728214Y-14574643D01*
X9713928Y-14546071D01*
X9699643Y-14488929D01*
X9699643Y-14417500D01*
X9713928Y-14360357D01*
X9728214Y-14331786D01*
X9742500Y-14317500D01*
X9771071Y-14303214D01*
X10156786Y-14603214D02*
X9985357Y-14603214D01*
X10071071Y-14603214D02*
X10071071Y-14303214D01*
X10042500Y-14346071D01*
X10013928Y-14374643D01*
X9985357Y-14388929D01*
X10413928Y-14303214D02*
X10356786Y-14303214D01*
X10328214Y-14317500D01*
X10313928Y-14331786D01*
X10285357Y-14374643D01*
X10271071Y-14431786D01*
X10271071Y-14546071D01*
X10285357Y-14574643D01*
X10299643Y-14588929D01*
X10328214Y-14603214D01*
X10385357Y-14603214D01*
X10413928Y-14588929D01*
X10428214Y-14574643D01*
X10442500Y-14546071D01*
X10442500Y-14474643D01*
X10428214Y-14446071D01*
X10413928Y-14431786D01*
X10385357Y-14417500D01*
X10328214Y-14417500D01*
X10299643Y-14431786D01*
X10285357Y-14446071D01*
X10271071Y-14474643D01*
X10556786Y-14303214D02*
X10556786Y-14360357D01*
X10671071Y-14303214D02*
X10671071Y-14360357D01*
X11113928Y-14717500D02*
X11099643Y-14703214D01*
X11071071Y-14660357D01*
X11056786Y-14631786D01*
X11042500Y-14588929D01*
X11028214Y-14517500D01*
X11028214Y-14460357D01*
X11042500Y-14388929D01*
X11056786Y-14346071D01*
X11071071Y-14317500D01*
X11099643Y-14274643D01*
X11113928Y-14260357D01*
X11356785Y-14403214D02*
X11356785Y-14603214D01*
X11285357Y-14288929D02*
X11213928Y-14503214D01*
X11399643Y-14503214D01*
X11642500Y-14403214D02*
X11642500Y-14603214D01*
X11571071Y-14288929D02*
X11499643Y-14503214D01*
X11685357Y-14503214D01*
X11856785Y-14303214D02*
X11885357Y-14303214D01*
X11913928Y-14317500D01*
X11928214Y-14331786D01*
X11942500Y-14360357D01*
X11956785Y-14417500D01*
X11956785Y-14488929D01*
X11942500Y-14546071D01*
X11928214Y-14574643D01*
X11913928Y-14588929D01*
X11885357Y-14603214D01*
X11856785Y-14603214D01*
X11828214Y-14588929D01*
X11813928Y-14574643D01*
X11799643Y-14546071D01*
X11785357Y-14488929D01*
X11785357Y-14417500D01*
X11799643Y-14360357D01*
X11813928Y-14331786D01*
X11828214Y-14317500D01*
X11856785Y-14303214D01*
X12313928Y-14603214D02*
X12313928Y-14303214D01*
X12442500Y-14603214D02*
X12442500Y-14446071D01*
X12428214Y-14417500D01*
X12399643Y-14403214D01*
X12356785Y-14403214D01*
X12328214Y-14417500D01*
X12313928Y-14431786D01*
X12628214Y-14603214D02*
X12599643Y-14588929D01*
X12585357Y-14574643D01*
X12571071Y-14546071D01*
X12571071Y-14460357D01*
X12585357Y-14431786D01*
X12599643Y-14417500D01*
X12628214Y-14403214D01*
X12671071Y-14403214D01*
X12699643Y-14417500D01*
X12713928Y-14431786D01*
X12728214Y-14460357D01*
X12728214Y-14546071D01*
X12713928Y-14574643D01*
X12699643Y-14588929D01*
X12671071Y-14603214D01*
X12628214Y-14603214D01*
X12899643Y-14603214D02*
X12871071Y-14588929D01*
X12856786Y-14560357D01*
X12856786Y-14303214D01*
X13128214Y-14588929D02*
X13099643Y-14603214D01*
X13042500Y-14603214D01*
X13013928Y-14588929D01*
X12999643Y-14560357D01*
X12999643Y-14446071D01*
X13013928Y-14417500D01*
X13042500Y-14403214D01*
X13099643Y-14403214D01*
X13128214Y-14417500D01*
X13142500Y-14446071D01*
X13142500Y-14474643D01*
X12999643Y-14503214D01*
X13256786Y-14588929D02*
X13285357Y-14603214D01*
X13342500Y-14603214D01*
X13371071Y-14588929D01*
X13385357Y-14560357D01*
X13385357Y-14546071D01*
X13371071Y-14517500D01*
X13342500Y-14503214D01*
X13299643Y-14503214D01*
X13271071Y-14488929D01*
X13256786Y-14460357D01*
X13256786Y-14446071D01*
X13271071Y-14417500D01*
X13299643Y-14403214D01*
X13342500Y-14403214D01*
X13371071Y-14417500D01*
X13485357Y-14717500D02*
X13499643Y-14703214D01*
X13528214Y-14660357D01*
X13542500Y-14631786D01*
X13556786Y-14588929D01*
X13571071Y-14517500D01*
X13571071Y-14460357D01*
X13556786Y-14388929D01*
X13542500Y-14346071D01*
X13528214Y-14317500D01*
X13499643Y-14274643D01*
X13485357Y-14260357D01*
X6442500Y-14863500D02*
G75*
G03X6442500Y-14863500I-25000J0D01*
G01*
X6771071Y-14699214D02*
X6799643Y-14699214D01*
X6828214Y-14713500D01*
X6842500Y-14727786D01*
X6856786Y-14756357D01*
X6871071Y-14813500D01*
X6871071Y-14884929D01*
X6856786Y-14942071D01*
X6842500Y-14970643D01*
X6828214Y-14984929D01*
X6799643Y-14999214D01*
X6771071Y-14999214D01*
X6742500Y-14984929D01*
X6728214Y-14970643D01*
X6713928Y-14942071D01*
X6699643Y-14884929D01*
X6699643Y-14813500D01*
X6713928Y-14756357D01*
X6728214Y-14727786D01*
X6742500Y-14713500D01*
X6771071Y-14699214D01*
X6999643Y-14970643D02*
X7013928Y-14984929D01*
X6999643Y-14999214D01*
X6985357Y-14984929D01*
X6999643Y-14970643D01*
X6999643Y-14999214D01*
X7285357Y-14699214D02*
X7142500Y-14699214D01*
X7128214Y-14842071D01*
X7142500Y-14827786D01*
X7171071Y-14813500D01*
X7242500Y-14813500D01*
X7271071Y-14827786D01*
X7285357Y-14842071D01*
X7299643Y-14870643D01*
X7299643Y-14942071D01*
X7285357Y-14970643D01*
X7271071Y-14984929D01*
X7242500Y-14999214D01*
X7171071Y-14999214D01*
X7142500Y-14984929D01*
X7128214Y-14970643D01*
X7485357Y-14699214D02*
X7513928Y-14699214D01*
X7542500Y-14713500D01*
X7556786Y-14727786D01*
X7571071Y-14756357D01*
X7585357Y-14813500D01*
X7585357Y-14884929D01*
X7571071Y-14942071D01*
X7556786Y-14970643D01*
X7542500Y-14984929D01*
X7513928Y-14999214D01*
X7485357Y-14999214D01*
X7456786Y-14984929D01*
X7442500Y-14970643D01*
X7428214Y-14942071D01*
X7413928Y-14884929D01*
X7413928Y-14813500D01*
X7428214Y-14756357D01*
X7442500Y-14727786D01*
X7456786Y-14713500D01*
X7485357Y-14699214D01*
X7713928Y-14999214D02*
X7713928Y-14799214D01*
X7713928Y-14827786D02*
X7728214Y-14813500D01*
X7756786Y-14799214D01*
X7799643Y-14799214D01*
X7828214Y-14813500D01*
X7842500Y-14842071D01*
X7842500Y-14999214D01*
X7842500Y-14842071D02*
X7856786Y-14813500D01*
X7885357Y-14799214D01*
X7928214Y-14799214D01*
X7956786Y-14813500D01*
X7971071Y-14842071D01*
X7971071Y-14999214D01*
X8113928Y-14999214D02*
X8113928Y-14799214D01*
X8113928Y-14827786D02*
X8128214Y-14813500D01*
X8156786Y-14799214D01*
X8199643Y-14799214D01*
X8228214Y-14813500D01*
X8242500Y-14842071D01*
X8242500Y-14999214D01*
X8242500Y-14842071D02*
X8256786Y-14813500D01*
X8285357Y-14799214D01*
X8328214Y-14799214D01*
X8356786Y-14813500D01*
X8371071Y-14842071D01*
X8371071Y-14999214D01*
X8956786Y-14684929D02*
X8699643Y-15070643D01*
X9342500Y-14699214D02*
X9371071Y-14699214D01*
X9399643Y-14713500D01*
X9413928Y-14727786D01*
X9428214Y-14756357D01*
X9442500Y-14813500D01*
X9442500Y-14884929D01*
X9428214Y-14942071D01*
X9413928Y-14970643D01*
X9399643Y-14984929D01*
X9371071Y-14999214D01*
X9342500Y-14999214D01*
X9313928Y-14984929D01*
X9299643Y-14970643D01*
X9285357Y-14942071D01*
X9271071Y-14884929D01*
X9271071Y-14813500D01*
X9285357Y-14756357D01*
X9299643Y-14727786D01*
X9313928Y-14713500D01*
X9342500Y-14699214D01*
X9571071Y-14970643D02*
X9585357Y-14984929D01*
X9571071Y-14999214D01*
X9556786Y-14984929D01*
X9571071Y-14970643D01*
X9571071Y-14999214D01*
X9771071Y-14699214D02*
X9799643Y-14699214D01*
X9828214Y-14713500D01*
X9842500Y-14727786D01*
X9856786Y-14756357D01*
X9871071Y-14813500D01*
X9871071Y-14884929D01*
X9856786Y-14942071D01*
X9842500Y-14970643D01*
X9828214Y-14984929D01*
X9799643Y-14999214D01*
X9771071Y-14999214D01*
X9742500Y-14984929D01*
X9728214Y-14970643D01*
X9713928Y-14942071D01*
X9699643Y-14884929D01*
X9699643Y-14813500D01*
X9713928Y-14756357D01*
X9728214Y-14727786D01*
X9742500Y-14713500D01*
X9771071Y-14699214D01*
X9985357Y-14727786D02*
X9999643Y-14713500D01*
X10028214Y-14699214D01*
X10099643Y-14699214D01*
X10128214Y-14713500D01*
X10142500Y-14727786D01*
X10156786Y-14756357D01*
X10156786Y-14784929D01*
X10142500Y-14827786D01*
X9971071Y-14999214D01*
X10156786Y-14999214D01*
X10342500Y-14699214D02*
X10371071Y-14699214D01*
X10399643Y-14713500D01*
X10413928Y-14727786D01*
X10428214Y-14756357D01*
X10442500Y-14813500D01*
X10442500Y-14884929D01*
X10428214Y-14942071D01*
X10413928Y-14970643D01*
X10399643Y-14984929D01*
X10371071Y-14999214D01*
X10342500Y-14999214D01*
X10313928Y-14984929D01*
X10299643Y-14970643D01*
X10285357Y-14942071D01*
X10271071Y-14884929D01*
X10271071Y-14813500D01*
X10285357Y-14756357D01*
X10299643Y-14727786D01*
X10313928Y-14713500D01*
X10342500Y-14699214D01*
X10556786Y-14699214D02*
X10556786Y-14756357D01*
X10671071Y-14699214D02*
X10671071Y-14756357D01*
X11113928Y-15113500D02*
X11099643Y-15099214D01*
X11071071Y-15056357D01*
X11056786Y-15027786D01*
X11042500Y-14984929D01*
X11028214Y-14913500D01*
X11028214Y-14856357D01*
X11042500Y-14784929D01*
X11056786Y-14742071D01*
X11071071Y-14713500D01*
X11099643Y-14670643D01*
X11113928Y-14656357D01*
X11199643Y-14699214D02*
X11385357Y-14699214D01*
X11285357Y-14813500D01*
X11328214Y-14813500D01*
X11356785Y-14827786D01*
X11371071Y-14842071D01*
X11385357Y-14870643D01*
X11385357Y-14942071D01*
X11371071Y-14970643D01*
X11356785Y-14984929D01*
X11328214Y-14999214D01*
X11242500Y-14999214D01*
X11213928Y-14984929D01*
X11199643Y-14970643D01*
X11499643Y-14727786D02*
X11513928Y-14713500D01*
X11542500Y-14699214D01*
X11613928Y-14699214D01*
X11642500Y-14713500D01*
X11656785Y-14727786D01*
X11671071Y-14756357D01*
X11671071Y-14784929D01*
X11656785Y-14827786D01*
X11485357Y-14999214D01*
X11671071Y-14999214D01*
X12028214Y-14999214D02*
X12028214Y-14699214D01*
X12156785Y-14999214D02*
X12156785Y-14842071D01*
X12142500Y-14813500D01*
X12113928Y-14799214D01*
X12071071Y-14799214D01*
X12042500Y-14813500D01*
X12028214Y-14827786D01*
X12342500Y-14999214D02*
X12313928Y-14984929D01*
X12299643Y-14970643D01*
X12285357Y-14942071D01*
X12285357Y-14856357D01*
X12299643Y-14827786D01*
X12313928Y-14813500D01*
X12342500Y-14799214D01*
X12385357Y-14799214D01*
X12413928Y-14813500D01*
X12428214Y-14827786D01*
X12442500Y-14856357D01*
X12442500Y-14942071D01*
X12428214Y-14970643D01*
X12413928Y-14984929D01*
X12385357Y-14999214D01*
X12342500Y-14999214D01*
X12613928Y-14999214D02*
X12585357Y-14984929D01*
X12571071Y-14956357D01*
X12571071Y-14699214D01*
X12842500Y-14984929D02*
X12813928Y-14999214D01*
X12756786Y-14999214D01*
X12728214Y-14984929D01*
X12713928Y-14956357D01*
X12713928Y-14842071D01*
X12728214Y-14813500D01*
X12756786Y-14799214D01*
X12813928Y-14799214D01*
X12842500Y-14813500D01*
X12856786Y-14842071D01*
X12856786Y-14870643D01*
X12713928Y-14899214D01*
X12971071Y-14984929D02*
X12999643Y-14999214D01*
X13056786Y-14999214D01*
X13085357Y-14984929D01*
X13099643Y-14956357D01*
X13099643Y-14942071D01*
X13085357Y-14913500D01*
X13056786Y-14899214D01*
X13013928Y-14899214D01*
X12985357Y-14884929D01*
X12971071Y-14856357D01*
X12971071Y-14842071D01*
X12985357Y-14813500D01*
X13013928Y-14799214D01*
X13056786Y-14799214D01*
X13085357Y-14813500D01*
X13199643Y-15113500D02*
X13213928Y-15099214D01*
X13242500Y-15056357D01*
X13256786Y-15027786D01*
X13271071Y-14984929D01*
X13285357Y-14913500D01*
X13285357Y-14856357D01*
X13271071Y-14784929D01*
X13256786Y-14742071D01*
X13242500Y-14713500D01*
X13213928Y-14670643D01*
X13199643Y-14656357D01*
X6392500Y-15209500D02*
X6392500Y-15309500D01*
X6342500Y-15259500D02*
X6442500Y-15259500D01*
X6871071Y-15395214D02*
X6699643Y-15395214D01*
X6785357Y-15395214D02*
X6785357Y-15095214D01*
X6756786Y-15138071D01*
X6728214Y-15166643D01*
X6699643Y-15180929D01*
X6999643Y-15366643D02*
X7013928Y-15380929D01*
X6999643Y-15395214D01*
X6985357Y-15380929D01*
X6999643Y-15366643D01*
X6999643Y-15395214D01*
X7199643Y-15095214D02*
X7228214Y-15095214D01*
X7256786Y-15109500D01*
X7271071Y-15123786D01*
X7285357Y-15152357D01*
X7299643Y-15209500D01*
X7299643Y-15280929D01*
X7285357Y-15338071D01*
X7271071Y-15366643D01*
X7256786Y-15380929D01*
X7228214Y-15395214D01*
X7199643Y-15395214D01*
X7171071Y-15380929D01*
X7156786Y-15366643D01*
X7142500Y-15338071D01*
X7128214Y-15280929D01*
X7128214Y-15209500D01*
X7142500Y-15152357D01*
X7156786Y-15123786D01*
X7171071Y-15109500D01*
X7199643Y-15095214D01*
X7485357Y-15095214D02*
X7513928Y-15095214D01*
X7542500Y-15109500D01*
X7556786Y-15123786D01*
X7571071Y-15152357D01*
X7585357Y-15209500D01*
X7585357Y-15280929D01*
X7571071Y-15338071D01*
X7556786Y-15366643D01*
X7542500Y-15380929D01*
X7513928Y-15395214D01*
X7485357Y-15395214D01*
X7456786Y-15380929D01*
X7442500Y-15366643D01*
X7428214Y-15338071D01*
X7413928Y-15280929D01*
X7413928Y-15209500D01*
X7428214Y-15152357D01*
X7442500Y-15123786D01*
X7456786Y-15109500D01*
X7485357Y-15095214D01*
X7713928Y-15395214D02*
X7713928Y-15195214D01*
X7713928Y-15223786D02*
X7728214Y-15209500D01*
X7756786Y-15195214D01*
X7799643Y-15195214D01*
X7828214Y-15209500D01*
X7842500Y-15238071D01*
X7842500Y-15395214D01*
X7842500Y-15238071D02*
X7856786Y-15209500D01*
X7885357Y-15195214D01*
X7928214Y-15195214D01*
X7956786Y-15209500D01*
X7971071Y-15238071D01*
X7971071Y-15395214D01*
X8113928Y-15395214D02*
X8113928Y-15195214D01*
X8113928Y-15223786D02*
X8128214Y-15209500D01*
X8156786Y-15195214D01*
X8199643Y-15195214D01*
X8228214Y-15209500D01*
X8242500Y-15238071D01*
X8242500Y-15395214D01*
X8242500Y-15238071D02*
X8256786Y-15209500D01*
X8285357Y-15195214D01*
X8328214Y-15195214D01*
X8356786Y-15209500D01*
X8371071Y-15238071D01*
X8371071Y-15395214D01*
X8956786Y-15080929D02*
X8699643Y-15466643D01*
X9342500Y-15095214D02*
X9371071Y-15095214D01*
X9399643Y-15109500D01*
X9413928Y-15123786D01*
X9428214Y-15152357D01*
X9442500Y-15209500D01*
X9442500Y-15280929D01*
X9428214Y-15338071D01*
X9413928Y-15366643D01*
X9399643Y-15380929D01*
X9371071Y-15395214D01*
X9342500Y-15395214D01*
X9313928Y-15380929D01*
X9299643Y-15366643D01*
X9285357Y-15338071D01*
X9271071Y-15280929D01*
X9271071Y-15209500D01*
X9285357Y-15152357D01*
X9299643Y-15123786D01*
X9313928Y-15109500D01*
X9342500Y-15095214D01*
X9571071Y-15366643D02*
X9585357Y-15380929D01*
X9571071Y-15395214D01*
X9556786Y-15380929D01*
X9571071Y-15366643D01*
X9571071Y-15395214D01*
X9771071Y-15095214D02*
X9799643Y-15095214D01*
X9828214Y-15109500D01*
X9842500Y-15123786D01*
X9856786Y-15152357D01*
X9871071Y-15209500D01*
X9871071Y-15280929D01*
X9856786Y-15338071D01*
X9842500Y-15366643D01*
X9828214Y-15380929D01*
X9799643Y-15395214D01*
X9771071Y-15395214D01*
X9742500Y-15380929D01*
X9728214Y-15366643D01*
X9713928Y-15338071D01*
X9699643Y-15280929D01*
X9699643Y-15209500D01*
X9713928Y-15152357D01*
X9728214Y-15123786D01*
X9742500Y-15109500D01*
X9771071Y-15095214D01*
X9971071Y-15095214D02*
X10156786Y-15095214D01*
X10056786Y-15209500D01*
X10099643Y-15209500D01*
X10128214Y-15223786D01*
X10142500Y-15238071D01*
X10156786Y-15266643D01*
X10156786Y-15338071D01*
X10142500Y-15366643D01*
X10128214Y-15380929D01*
X10099643Y-15395214D01*
X10013928Y-15395214D01*
X9985357Y-15380929D01*
X9971071Y-15366643D01*
X10299643Y-15395214D02*
X10356786Y-15395214D01*
X10385357Y-15380929D01*
X10399643Y-15366643D01*
X10428214Y-15323786D01*
X10442500Y-15266643D01*
X10442500Y-15152357D01*
X10428214Y-15123786D01*
X10413928Y-15109500D01*
X10385357Y-15095214D01*
X10328214Y-15095214D01*
X10299643Y-15109500D01*
X10285357Y-15123786D01*
X10271071Y-15152357D01*
X10271071Y-15223786D01*
X10285357Y-15252357D01*
X10299643Y-15266643D01*
X10328214Y-15280929D01*
X10385357Y-15280929D01*
X10413928Y-15266643D01*
X10428214Y-15252357D01*
X10442500Y-15223786D01*
X10556786Y-15095214D02*
X10556786Y-15152357D01*
X10671071Y-15095214D02*
X10671071Y-15152357D01*
X11113928Y-15509500D02*
X11099643Y-15495214D01*
X11071071Y-15452357D01*
X11056786Y-15423786D01*
X11042500Y-15380929D01*
X11028214Y-15309500D01*
X11028214Y-15252357D01*
X11042500Y-15180929D01*
X11056786Y-15138071D01*
X11071071Y-15109500D01*
X11099643Y-15066643D01*
X11113928Y-15052357D01*
X11271071Y-15223786D02*
X11242500Y-15209500D01*
X11228214Y-15195214D01*
X11213928Y-15166643D01*
X11213928Y-15152357D01*
X11228214Y-15123786D01*
X11242500Y-15109500D01*
X11271071Y-15095214D01*
X11328214Y-15095214D01*
X11356785Y-15109500D01*
X11371071Y-15123786D01*
X11385357Y-15152357D01*
X11385357Y-15166643D01*
X11371071Y-15195214D01*
X11356785Y-15209500D01*
X11328214Y-15223786D01*
X11271071Y-15223786D01*
X11242500Y-15238071D01*
X11228214Y-15252357D01*
X11213928Y-15280929D01*
X11213928Y-15338071D01*
X11228214Y-15366643D01*
X11242500Y-15380929D01*
X11271071Y-15395214D01*
X11328214Y-15395214D01*
X11356785Y-15380929D01*
X11371071Y-15366643D01*
X11385357Y-15338071D01*
X11385357Y-15280929D01*
X11371071Y-15252357D01*
X11356785Y-15238071D01*
X11328214Y-15223786D01*
X11742500Y-15395214D02*
X11742500Y-15095214D01*
X11871071Y-15395214D02*
X11871071Y-15238071D01*
X11856785Y-15209500D01*
X11828214Y-15195214D01*
X11785357Y-15195214D01*
X11756785Y-15209500D01*
X11742500Y-15223786D01*
X12056785Y-15395214D02*
X12028214Y-15380929D01*
X12013928Y-15366643D01*
X11999643Y-15338071D01*
X11999643Y-15252357D01*
X12013928Y-15223786D01*
X12028214Y-15209500D01*
X12056785Y-15195214D01*
X12099643Y-15195214D01*
X12128214Y-15209500D01*
X12142500Y-15223786D01*
X12156785Y-15252357D01*
X12156785Y-15338071D01*
X12142500Y-15366643D01*
X12128214Y-15380929D01*
X12099643Y-15395214D01*
X12056785Y-15395214D01*
X12328214Y-15395214D02*
X12299643Y-15380929D01*
X12285357Y-15352357D01*
X12285357Y-15095214D01*
X12556786Y-15380929D02*
X12528214Y-15395214D01*
X12471071Y-15395214D01*
X12442500Y-15380929D01*
X12428214Y-15352357D01*
X12428214Y-15238071D01*
X12442500Y-15209500D01*
X12471071Y-15195214D01*
X12528214Y-15195214D01*
X12556786Y-15209500D01*
X12571071Y-15238071D01*
X12571071Y-15266643D01*
X12428214Y-15295214D01*
X12685357Y-15380929D02*
X12713928Y-15395214D01*
X12771071Y-15395214D01*
X12799643Y-15380929D01*
X12813928Y-15352357D01*
X12813928Y-15338071D01*
X12799643Y-15309500D01*
X12771071Y-15295214D01*
X12728214Y-15295214D01*
X12699643Y-15280929D01*
X12685357Y-15252357D01*
X12685357Y-15238071D01*
X12699643Y-15209500D01*
X12728214Y-15195214D01*
X12771071Y-15195214D01*
X12799643Y-15209500D01*
X12913928Y-15509500D02*
X12928214Y-15495214D01*
X12956786Y-15452357D01*
X12971071Y-15423786D01*
X12985357Y-15380929D01*
X12999643Y-15309500D01*
X12999643Y-15252357D01*
X12985357Y-15180929D01*
X12971071Y-15138071D01*
X12956786Y-15109500D01*
X12928214Y-15066643D01*
X12913928Y-15052357D01*
X6424927Y-15697927D02*
X6424927Y-15613073D01*
X6340073Y-15613073D01*
X6340073Y-15697927D01*
X6424927Y-15697927D01*
X6871071Y-15791214D02*
X6699643Y-15791214D01*
X6785357Y-15791214D02*
X6785357Y-15491214D01*
X6756786Y-15534071D01*
X6728214Y-15562643D01*
X6699643Y-15576929D01*
X6999643Y-15762643D02*
X7013928Y-15776929D01*
X6999643Y-15791214D01*
X6985357Y-15776929D01*
X6999643Y-15762643D01*
X6999643Y-15791214D01*
X7128214Y-15519786D02*
X7142500Y-15505500D01*
X7171071Y-15491214D01*
X7242500Y-15491214D01*
X7271071Y-15505500D01*
X7285357Y-15519786D01*
X7299643Y-15548357D01*
X7299643Y-15576929D01*
X7285357Y-15619786D01*
X7113928Y-15791214D01*
X7299643Y-15791214D01*
X7485357Y-15491214D02*
X7513928Y-15491214D01*
X7542500Y-15505500D01*
X7556786Y-15519786D01*
X7571071Y-15548357D01*
X7585357Y-15605500D01*
X7585357Y-15676929D01*
X7571071Y-15734071D01*
X7556786Y-15762643D01*
X7542500Y-15776929D01*
X7513928Y-15791214D01*
X7485357Y-15791214D01*
X7456786Y-15776929D01*
X7442500Y-15762643D01*
X7428214Y-15734071D01*
X7413928Y-15676929D01*
X7413928Y-15605500D01*
X7428214Y-15548357D01*
X7442500Y-15519786D01*
X7456786Y-15505500D01*
X7485357Y-15491214D01*
X7713928Y-15791214D02*
X7713928Y-15591214D01*
X7713928Y-15619786D02*
X7728214Y-15605500D01*
X7756786Y-15591214D01*
X7799643Y-15591214D01*
X7828214Y-15605500D01*
X7842500Y-15634071D01*
X7842500Y-15791214D01*
X7842500Y-15634071D02*
X7856786Y-15605500D01*
X7885357Y-15591214D01*
X7928214Y-15591214D01*
X7956786Y-15605500D01*
X7971071Y-15634071D01*
X7971071Y-15791214D01*
X8113928Y-15791214D02*
X8113928Y-15591214D01*
X8113928Y-15619786D02*
X8128214Y-15605500D01*
X8156786Y-15591214D01*
X8199643Y-15591214D01*
X8228214Y-15605500D01*
X8242500Y-15634071D01*
X8242500Y-15791214D01*
X8242500Y-15634071D02*
X8256786Y-15605500D01*
X8285357Y-15591214D01*
X8328214Y-15591214D01*
X8356786Y-15605500D01*
X8371071Y-15634071D01*
X8371071Y-15791214D01*
X8956786Y-15476929D02*
X8699643Y-15862643D01*
X9342500Y-15491214D02*
X9371071Y-15491214D01*
X9399643Y-15505500D01*
X9413928Y-15519786D01*
X9428214Y-15548357D01*
X9442500Y-15605500D01*
X9442500Y-15676929D01*
X9428214Y-15734071D01*
X9413928Y-15762643D01*
X9399643Y-15776929D01*
X9371071Y-15791214D01*
X9342500Y-15791214D01*
X9313928Y-15776929D01*
X9299643Y-15762643D01*
X9285357Y-15734071D01*
X9271071Y-15676929D01*
X9271071Y-15605500D01*
X9285357Y-15548357D01*
X9299643Y-15519786D01*
X9313928Y-15505500D01*
X9342500Y-15491214D01*
X9571071Y-15762643D02*
X9585357Y-15776929D01*
X9571071Y-15791214D01*
X9556786Y-15776929D01*
X9571071Y-15762643D01*
X9571071Y-15791214D01*
X9771071Y-15491214D02*
X9799643Y-15491214D01*
X9828214Y-15505500D01*
X9842500Y-15519786D01*
X9856786Y-15548357D01*
X9871071Y-15605500D01*
X9871071Y-15676929D01*
X9856786Y-15734071D01*
X9842500Y-15762643D01*
X9828214Y-15776929D01*
X9799643Y-15791214D01*
X9771071Y-15791214D01*
X9742500Y-15776929D01*
X9728214Y-15762643D01*
X9713928Y-15734071D01*
X9699643Y-15676929D01*
X9699643Y-15605500D01*
X9713928Y-15548357D01*
X9728214Y-15519786D01*
X9742500Y-15505500D01*
X9771071Y-15491214D01*
X10128214Y-15591214D02*
X10128214Y-15791214D01*
X10056786Y-15476929D02*
X9985357Y-15691214D01*
X10171071Y-15691214D01*
X10256786Y-15491214D02*
X10456786Y-15491214D01*
X10328214Y-15791214D01*
X10556786Y-15491214D02*
X10556786Y-15548357D01*
X10671071Y-15491214D02*
X10671071Y-15548357D01*
X11113928Y-15905500D02*
X11099643Y-15891214D01*
X11071071Y-15848357D01*
X11056786Y-15819786D01*
X11042500Y-15776929D01*
X11028214Y-15705500D01*
X11028214Y-15648357D01*
X11042500Y-15576929D01*
X11056786Y-15534071D01*
X11071071Y-15505500D01*
X11099643Y-15462643D01*
X11113928Y-15448357D01*
X11356785Y-15591214D02*
X11356785Y-15791214D01*
X11285357Y-15476929D02*
X11213928Y-15691214D01*
X11399643Y-15691214D01*
X11742500Y-15791214D02*
X11742500Y-15491214D01*
X11871071Y-15791214D02*
X11871071Y-15634071D01*
X11856785Y-15605500D01*
X11828214Y-15591214D01*
X11785357Y-15591214D01*
X11756785Y-15605500D01*
X11742500Y-15619786D01*
X12056785Y-15791214D02*
X12028214Y-15776929D01*
X12013928Y-15762643D01*
X11999643Y-15734071D01*
X11999643Y-15648357D01*
X12013928Y-15619786D01*
X12028214Y-15605500D01*
X12056785Y-15591214D01*
X12099643Y-15591214D01*
X12128214Y-15605500D01*
X12142500Y-15619786D01*
X12156785Y-15648357D01*
X12156785Y-15734071D01*
X12142500Y-15762643D01*
X12128214Y-15776929D01*
X12099643Y-15791214D01*
X12056785Y-15791214D01*
X12328214Y-15791214D02*
X12299643Y-15776929D01*
X12285357Y-15748357D01*
X12285357Y-15491214D01*
X12556786Y-15776929D02*
X12528214Y-15791214D01*
X12471071Y-15791214D01*
X12442500Y-15776929D01*
X12428214Y-15748357D01*
X12428214Y-15634071D01*
X12442500Y-15605500D01*
X12471071Y-15591214D01*
X12528214Y-15591214D01*
X12556786Y-15605500D01*
X12571071Y-15634071D01*
X12571071Y-15662643D01*
X12428214Y-15691214D01*
X12685357Y-15776929D02*
X12713928Y-15791214D01*
X12771071Y-15791214D01*
X12799643Y-15776929D01*
X12813928Y-15748357D01*
X12813928Y-15734071D01*
X12799643Y-15705500D01*
X12771071Y-15691214D01*
X12728214Y-15691214D01*
X12699643Y-15676929D01*
X12685357Y-15648357D01*
X12685357Y-15634071D01*
X12699643Y-15605500D01*
X12728214Y-15591214D01*
X12771071Y-15591214D01*
X12799643Y-15605500D01*
X12913928Y-15905500D02*
X12928214Y-15891214D01*
X12956786Y-15848357D01*
X12971071Y-15819786D01*
X12985357Y-15776929D01*
X12999643Y-15705500D01*
X12999643Y-15648357D01*
X12985357Y-15576929D01*
X12971071Y-15534071D01*
X12956786Y-15505500D01*
X12928214Y-15462643D01*
X12913928Y-15448357D01*
X6362500Y-16131500D02*
X6442500Y-16051500D01*
X6362500Y-15971500D01*
X6282500Y-16051500D01*
X6362500Y-16131500D01*
X6871071Y-16187214D02*
X6699643Y-16187214D01*
X6785357Y-16187214D02*
X6785357Y-15887214D01*
X6756786Y-15930071D01*
X6728214Y-15958643D01*
X6699643Y-15972929D01*
X6999643Y-16158643D02*
X7013928Y-16172929D01*
X6999643Y-16187214D01*
X6985357Y-16172929D01*
X6999643Y-16158643D01*
X6999643Y-16187214D01*
X7271071Y-15887214D02*
X7213928Y-15887214D01*
X7185357Y-15901500D01*
X7171071Y-15915786D01*
X7142500Y-15958643D01*
X7128214Y-16015786D01*
X7128214Y-16130071D01*
X7142500Y-16158643D01*
X7156786Y-16172929D01*
X7185357Y-16187214D01*
X7242500Y-16187214D01*
X7271071Y-16172929D01*
X7285357Y-16158643D01*
X7299643Y-16130071D01*
X7299643Y-16058643D01*
X7285357Y-16030071D01*
X7271071Y-16015786D01*
X7242500Y-16001500D01*
X7185357Y-16001500D01*
X7156786Y-16015786D01*
X7142500Y-16030071D01*
X7128214Y-16058643D01*
X7485357Y-15887214D02*
X7513928Y-15887214D01*
X7542500Y-15901500D01*
X7556786Y-15915786D01*
X7571071Y-15944357D01*
X7585357Y-16001500D01*
X7585357Y-16072929D01*
X7571071Y-16130071D01*
X7556786Y-16158643D01*
X7542500Y-16172929D01*
X7513928Y-16187214D01*
X7485357Y-16187214D01*
X7456786Y-16172929D01*
X7442500Y-16158643D01*
X7428214Y-16130071D01*
X7413928Y-16072929D01*
X7413928Y-16001500D01*
X7428214Y-15944357D01*
X7442500Y-15915786D01*
X7456786Y-15901500D01*
X7485357Y-15887214D01*
X7713928Y-16187214D02*
X7713928Y-15987214D01*
X7713928Y-16015786D02*
X7728214Y-16001500D01*
X7756786Y-15987214D01*
X7799643Y-15987214D01*
X7828214Y-16001500D01*
X7842500Y-16030071D01*
X7842500Y-16187214D01*
X7842500Y-16030071D02*
X7856786Y-16001500D01*
X7885357Y-15987214D01*
X7928214Y-15987214D01*
X7956786Y-16001500D01*
X7971071Y-16030071D01*
X7971071Y-16187214D01*
X8113928Y-16187214D02*
X8113928Y-15987214D01*
X8113928Y-16015786D02*
X8128214Y-16001500D01*
X8156786Y-15987214D01*
X8199643Y-15987214D01*
X8228214Y-16001500D01*
X8242500Y-16030071D01*
X8242500Y-16187214D01*
X8242500Y-16030071D02*
X8256786Y-16001500D01*
X8285357Y-15987214D01*
X8328214Y-15987214D01*
X8356786Y-16001500D01*
X8371071Y-16030071D01*
X8371071Y-16187214D01*
X8956786Y-15872929D02*
X8699643Y-16258643D01*
X9342500Y-15887214D02*
X9371071Y-15887214D01*
X9399643Y-15901500D01*
X9413928Y-15915786D01*
X9428214Y-15944357D01*
X9442500Y-16001500D01*
X9442500Y-16072929D01*
X9428214Y-16130071D01*
X9413928Y-16158643D01*
X9399643Y-16172929D01*
X9371071Y-16187214D01*
X9342500Y-16187214D01*
X9313928Y-16172929D01*
X9299643Y-16158643D01*
X9285357Y-16130071D01*
X9271071Y-16072929D01*
X9271071Y-16001500D01*
X9285357Y-15944357D01*
X9299643Y-15915786D01*
X9313928Y-15901500D01*
X9342500Y-15887214D01*
X9571071Y-16158643D02*
X9585357Y-16172929D01*
X9571071Y-16187214D01*
X9556786Y-16172929D01*
X9571071Y-16158643D01*
X9571071Y-16187214D01*
X9771071Y-15887214D02*
X9799643Y-15887214D01*
X9828214Y-15901500D01*
X9842500Y-15915786D01*
X9856786Y-15944357D01*
X9871071Y-16001500D01*
X9871071Y-16072929D01*
X9856786Y-16130071D01*
X9842500Y-16158643D01*
X9828214Y-16172929D01*
X9799643Y-16187214D01*
X9771071Y-16187214D01*
X9742500Y-16172929D01*
X9728214Y-16158643D01*
X9713928Y-16130071D01*
X9699643Y-16072929D01*
X9699643Y-16001500D01*
X9713928Y-15944357D01*
X9728214Y-15915786D01*
X9742500Y-15901500D01*
X9771071Y-15887214D01*
X10128214Y-15887214D02*
X10071071Y-15887214D01*
X10042500Y-15901500D01*
X10028214Y-15915786D01*
X9999643Y-15958643D01*
X9985357Y-16015786D01*
X9985357Y-16130071D01*
X9999643Y-16158643D01*
X10013928Y-16172929D01*
X10042500Y-16187214D01*
X10099643Y-16187214D01*
X10128214Y-16172929D01*
X10142500Y-16158643D01*
X10156786Y-16130071D01*
X10156786Y-16058643D01*
X10142500Y-16030071D01*
X10128214Y-16015786D01*
X10099643Y-16001500D01*
X10042500Y-16001500D01*
X10013928Y-16015786D01*
X9999643Y-16030071D01*
X9985357Y-16058643D01*
X10256786Y-15887214D02*
X10442500Y-15887214D01*
X10342500Y-16001500D01*
X10385357Y-16001500D01*
X10413928Y-16015786D01*
X10428214Y-16030071D01*
X10442500Y-16058643D01*
X10442500Y-16130071D01*
X10428214Y-16158643D01*
X10413928Y-16172929D01*
X10385357Y-16187214D01*
X10299643Y-16187214D01*
X10271071Y-16172929D01*
X10256786Y-16158643D01*
X10556786Y-15887214D02*
X10556786Y-15944357D01*
X10671071Y-15887214D02*
X10671071Y-15944357D01*
X11113928Y-16301500D02*
X11099643Y-16287214D01*
X11071071Y-16244357D01*
X11056786Y-16215786D01*
X11042500Y-16172929D01*
X11028214Y-16101500D01*
X11028214Y-16044357D01*
X11042500Y-15972929D01*
X11056786Y-15930071D01*
X11071071Y-15901500D01*
X11099643Y-15858643D01*
X11113928Y-15844357D01*
X11385357Y-16187214D02*
X11213928Y-16187214D01*
X11299643Y-16187214D02*
X11299643Y-15887214D01*
X11271071Y-15930071D01*
X11242500Y-15958643D01*
X11213928Y-15972929D01*
X11499643Y-15915786D02*
X11513928Y-15901500D01*
X11542500Y-15887214D01*
X11613928Y-15887214D01*
X11642500Y-15901500D01*
X11656785Y-15915786D01*
X11671071Y-15944357D01*
X11671071Y-15972929D01*
X11656785Y-16015786D01*
X11485357Y-16187214D01*
X11671071Y-16187214D01*
X12028214Y-16187214D02*
X12028214Y-15887214D01*
X12156785Y-16187214D02*
X12156785Y-16030071D01*
X12142500Y-16001500D01*
X12113928Y-15987214D01*
X12071071Y-15987214D01*
X12042500Y-16001500D01*
X12028214Y-16015786D01*
X12342500Y-16187214D02*
X12313928Y-16172929D01*
X12299643Y-16158643D01*
X12285357Y-16130071D01*
X12285357Y-16044357D01*
X12299643Y-16015786D01*
X12313928Y-16001500D01*
X12342500Y-15987214D01*
X12385357Y-15987214D01*
X12413928Y-16001500D01*
X12428214Y-16015786D01*
X12442500Y-16044357D01*
X12442500Y-16130071D01*
X12428214Y-16158643D01*
X12413928Y-16172929D01*
X12385357Y-16187214D01*
X12342500Y-16187214D01*
X12613928Y-16187214D02*
X12585357Y-16172929D01*
X12571071Y-16144357D01*
X12571071Y-15887214D01*
X12842500Y-16172929D02*
X12813928Y-16187214D01*
X12756786Y-16187214D01*
X12728214Y-16172929D01*
X12713928Y-16144357D01*
X12713928Y-16030071D01*
X12728214Y-16001500D01*
X12756786Y-15987214D01*
X12813928Y-15987214D01*
X12842500Y-16001500D01*
X12856786Y-16030071D01*
X12856786Y-16058643D01*
X12713928Y-16087214D01*
X12971071Y-16172929D02*
X12999643Y-16187214D01*
X13056786Y-16187214D01*
X13085357Y-16172929D01*
X13099643Y-16144357D01*
X13099643Y-16130071D01*
X13085357Y-16101500D01*
X13056786Y-16087214D01*
X13013928Y-16087214D01*
X12985357Y-16072929D01*
X12971071Y-16044357D01*
X12971071Y-16030071D01*
X12985357Y-16001500D01*
X13013928Y-15987214D01*
X13056786Y-15987214D01*
X13085357Y-16001500D01*
X13199643Y-16301500D02*
X13213928Y-16287214D01*
X13242500Y-16244357D01*
X13256786Y-16215786D01*
X13271071Y-16172929D01*
X13285357Y-16101500D01*
X13285357Y-16044357D01*
X13271071Y-15972929D01*
X13256786Y-15930071D01*
X13242500Y-15901500D01*
X13213928Y-15858643D01*
X13199643Y-15844357D01*
X6262414Y-16357457D02*
X6442500Y-16537543D01*
X6442500Y-16357457D02*
X6262414Y-16537543D01*
X6442500Y-16447500D02*
G75*
G03X6442500Y-16447500I-90043J0D01*
G01*
X6871071Y-16583214D02*
X6699643Y-16583214D01*
X6785357Y-16583214D02*
X6785357Y-16283214D01*
X6756786Y-16326071D01*
X6728214Y-16354643D01*
X6699643Y-16368929D01*
X6999643Y-16554643D02*
X7013928Y-16568929D01*
X6999643Y-16583214D01*
X6985357Y-16568929D01*
X6999643Y-16554643D01*
X6999643Y-16583214D01*
X7185357Y-16411786D02*
X7156786Y-16397500D01*
X7142500Y-16383214D01*
X7128214Y-16354643D01*
X7128214Y-16340357D01*
X7142500Y-16311786D01*
X7156786Y-16297500D01*
X7185357Y-16283214D01*
X7242500Y-16283214D01*
X7271071Y-16297500D01*
X7285357Y-16311786D01*
X7299643Y-16340357D01*
X7299643Y-16354643D01*
X7285357Y-16383214D01*
X7271071Y-16397500D01*
X7242500Y-16411786D01*
X7185357Y-16411786D01*
X7156786Y-16426071D01*
X7142500Y-16440357D01*
X7128214Y-16468929D01*
X7128214Y-16526071D01*
X7142500Y-16554643D01*
X7156786Y-16568929D01*
X7185357Y-16583214D01*
X7242500Y-16583214D01*
X7271071Y-16568929D01*
X7285357Y-16554643D01*
X7299643Y-16526071D01*
X7299643Y-16468929D01*
X7285357Y-16440357D01*
X7271071Y-16426071D01*
X7242500Y-16411786D01*
X7485357Y-16283214D02*
X7513928Y-16283214D01*
X7542500Y-16297500D01*
X7556786Y-16311786D01*
X7571071Y-16340357D01*
X7585357Y-16397500D01*
X7585357Y-16468929D01*
X7571071Y-16526071D01*
X7556786Y-16554643D01*
X7542500Y-16568929D01*
X7513928Y-16583214D01*
X7485357Y-16583214D01*
X7456786Y-16568929D01*
X7442500Y-16554643D01*
X7428214Y-16526071D01*
X7413928Y-16468929D01*
X7413928Y-16397500D01*
X7428214Y-16340357D01*
X7442500Y-16311786D01*
X7456786Y-16297500D01*
X7485357Y-16283214D01*
X7713928Y-16583214D02*
X7713928Y-16383214D01*
X7713928Y-16411786D02*
X7728214Y-16397500D01*
X7756786Y-16383214D01*
X7799643Y-16383214D01*
X7828214Y-16397500D01*
X7842500Y-16426071D01*
X7842500Y-16583214D01*
X7842500Y-16426071D02*
X7856786Y-16397500D01*
X7885357Y-16383214D01*
X7928214Y-16383214D01*
X7956786Y-16397500D01*
X7971071Y-16426071D01*
X7971071Y-16583214D01*
X8113928Y-16583214D02*
X8113928Y-16383214D01*
X8113928Y-16411786D02*
X8128214Y-16397500D01*
X8156786Y-16383214D01*
X8199643Y-16383214D01*
X8228214Y-16397500D01*
X8242500Y-16426071D01*
X8242500Y-16583214D01*
X8242500Y-16426071D02*
X8256786Y-16397500D01*
X8285357Y-16383214D01*
X8328214Y-16383214D01*
X8356786Y-16397500D01*
X8371071Y-16426071D01*
X8371071Y-16583214D01*
X8956786Y-16268929D02*
X8699643Y-16654643D01*
X9342500Y-16283214D02*
X9371071Y-16283214D01*
X9399643Y-16297500D01*
X9413928Y-16311786D01*
X9428214Y-16340357D01*
X9442500Y-16397500D01*
X9442500Y-16468929D01*
X9428214Y-16526071D01*
X9413928Y-16554643D01*
X9399643Y-16568929D01*
X9371071Y-16583214D01*
X9342500Y-16583214D01*
X9313928Y-16568929D01*
X9299643Y-16554643D01*
X9285357Y-16526071D01*
X9271071Y-16468929D01*
X9271071Y-16397500D01*
X9285357Y-16340357D01*
X9299643Y-16311786D01*
X9313928Y-16297500D01*
X9342500Y-16283214D01*
X9571071Y-16554643D02*
X9585357Y-16568929D01*
X9571071Y-16583214D01*
X9556786Y-16568929D01*
X9571071Y-16554643D01*
X9571071Y-16583214D01*
X9771071Y-16283214D02*
X9799643Y-16283214D01*
X9828214Y-16297500D01*
X9842500Y-16311786D01*
X9856786Y-16340357D01*
X9871071Y-16397500D01*
X9871071Y-16468929D01*
X9856786Y-16526071D01*
X9842500Y-16554643D01*
X9828214Y-16568929D01*
X9799643Y-16583214D01*
X9771071Y-16583214D01*
X9742500Y-16568929D01*
X9728214Y-16554643D01*
X9713928Y-16526071D01*
X9699643Y-16468929D01*
X9699643Y-16397500D01*
X9713928Y-16340357D01*
X9728214Y-16311786D01*
X9742500Y-16297500D01*
X9771071Y-16283214D01*
X9971071Y-16283214D02*
X10171071Y-16283214D01*
X10042500Y-16583214D01*
X10442500Y-16583214D02*
X10271071Y-16583214D01*
X10356786Y-16583214D02*
X10356786Y-16283214D01*
X10328214Y-16326071D01*
X10299643Y-16354643D01*
X10271071Y-16368929D01*
X10556786Y-16283214D02*
X10556786Y-16340357D01*
X10671071Y-16283214D02*
X10671071Y-16340357D01*
X11113928Y-16697500D02*
X11099643Y-16683214D01*
X11071071Y-16640357D01*
X11056786Y-16611786D01*
X11042500Y-16568929D01*
X11028214Y-16497500D01*
X11028214Y-16440357D01*
X11042500Y-16368929D01*
X11056786Y-16326071D01*
X11071071Y-16297500D01*
X11099643Y-16254643D01*
X11113928Y-16240357D01*
X11213928Y-16311786D02*
X11228214Y-16297500D01*
X11256785Y-16283214D01*
X11328214Y-16283214D01*
X11356785Y-16297500D01*
X11371071Y-16311786D01*
X11385357Y-16340357D01*
X11385357Y-16368929D01*
X11371071Y-16411786D01*
X11199643Y-16583214D01*
X11385357Y-16583214D01*
X11499643Y-16311786D02*
X11513928Y-16297500D01*
X11542500Y-16283214D01*
X11613928Y-16283214D01*
X11642500Y-16297500D01*
X11656785Y-16311786D01*
X11671071Y-16340357D01*
X11671071Y-16368929D01*
X11656785Y-16411786D01*
X11485357Y-16583214D01*
X11671071Y-16583214D01*
X12028214Y-16583214D02*
X12028214Y-16283214D01*
X12156785Y-16583214D02*
X12156785Y-16426071D01*
X12142500Y-16397500D01*
X12113928Y-16383214D01*
X12071071Y-16383214D01*
X12042500Y-16397500D01*
X12028214Y-16411786D01*
X12342500Y-16583214D02*
X12313928Y-16568929D01*
X12299643Y-16554643D01*
X12285357Y-16526071D01*
X12285357Y-16440357D01*
X12299643Y-16411786D01*
X12313928Y-16397500D01*
X12342500Y-16383214D01*
X12385357Y-16383214D01*
X12413928Y-16397500D01*
X12428214Y-16411786D01*
X12442500Y-16440357D01*
X12442500Y-16526071D01*
X12428214Y-16554643D01*
X12413928Y-16568929D01*
X12385357Y-16583214D01*
X12342500Y-16583214D01*
X12613928Y-16583214D02*
X12585357Y-16568929D01*
X12571071Y-16540357D01*
X12571071Y-16283214D01*
X12842500Y-16568929D02*
X12813928Y-16583214D01*
X12756786Y-16583214D01*
X12728214Y-16568929D01*
X12713928Y-16540357D01*
X12713928Y-16426071D01*
X12728214Y-16397500D01*
X12756786Y-16383214D01*
X12813928Y-16383214D01*
X12842500Y-16397500D01*
X12856786Y-16426071D01*
X12856786Y-16454643D01*
X12713928Y-16483214D01*
X12971071Y-16568929D02*
X12999643Y-16583214D01*
X13056786Y-16583214D01*
X13085357Y-16568929D01*
X13099643Y-16540357D01*
X13099643Y-16526071D01*
X13085357Y-16497500D01*
X13056786Y-16483214D01*
X13013928Y-16483214D01*
X12985357Y-16468929D01*
X12971071Y-16440357D01*
X12971071Y-16426071D01*
X12985357Y-16397500D01*
X13013928Y-16383214D01*
X13056786Y-16383214D01*
X13085357Y-16397500D01*
X13199643Y-16697500D02*
X13213928Y-16683214D01*
X13242500Y-16640357D01*
X13256786Y-16611786D01*
X13271071Y-16568929D01*
X13285357Y-16497500D01*
X13285357Y-16440357D01*
X13271071Y-16368929D01*
X13256786Y-16326071D01*
X13242500Y-16297500D01*
X13213928Y-16254643D01*
X13199643Y-16240357D01*
X6122500Y-16683500D02*
X6442500Y-17003500D01*
X6442500Y-16683500D02*
X6122500Y-17003500D01*
X6282500Y-16683500D02*
X6282500Y-17003500D01*
X6122500Y-16843500D02*
X6442500Y-16843500D01*
X6685357Y-16679214D02*
X6871071Y-16679214D01*
X6771071Y-16793500D01*
X6813928Y-16793500D01*
X6842500Y-16807786D01*
X6856786Y-16822072D01*
X6871071Y-16850643D01*
X6871071Y-16922072D01*
X6856786Y-16950643D01*
X6842500Y-16964929D01*
X6813928Y-16979214D01*
X6728214Y-16979214D01*
X6699643Y-16964929D01*
X6685357Y-16950643D01*
X6999643Y-16950643D02*
X7013928Y-16964929D01*
X6999643Y-16979214D01*
X6985357Y-16964929D01*
X6999643Y-16950643D01*
X6999643Y-16979214D01*
X7128214Y-16707786D02*
X7142500Y-16693500D01*
X7171071Y-16679214D01*
X7242500Y-16679214D01*
X7271071Y-16693500D01*
X7285357Y-16707786D01*
X7299643Y-16736357D01*
X7299643Y-16764929D01*
X7285357Y-16807786D01*
X7113928Y-16979214D01*
X7299643Y-16979214D01*
X7485357Y-16679214D02*
X7513928Y-16679214D01*
X7542500Y-16693500D01*
X7556786Y-16707786D01*
X7571071Y-16736357D01*
X7585357Y-16793500D01*
X7585357Y-16864929D01*
X7571071Y-16922072D01*
X7556786Y-16950643D01*
X7542500Y-16964929D01*
X7513928Y-16979214D01*
X7485357Y-16979214D01*
X7456786Y-16964929D01*
X7442500Y-16950643D01*
X7428214Y-16922072D01*
X7413928Y-16864929D01*
X7413928Y-16793500D01*
X7428214Y-16736357D01*
X7442500Y-16707786D01*
X7456786Y-16693500D01*
X7485357Y-16679214D01*
X7713928Y-16979214D02*
X7713928Y-16779214D01*
X7713928Y-16807786D02*
X7728214Y-16793500D01*
X7756786Y-16779214D01*
X7799643Y-16779214D01*
X7828214Y-16793500D01*
X7842500Y-16822072D01*
X7842500Y-16979214D01*
X7842500Y-16822072D02*
X7856786Y-16793500D01*
X7885357Y-16779214D01*
X7928214Y-16779214D01*
X7956786Y-16793500D01*
X7971071Y-16822072D01*
X7971071Y-16979214D01*
X8113928Y-16979214D02*
X8113928Y-16779214D01*
X8113928Y-16807786D02*
X8128214Y-16793500D01*
X8156786Y-16779214D01*
X8199643Y-16779214D01*
X8228214Y-16793500D01*
X8242500Y-16822072D01*
X8242500Y-16979214D01*
X8242500Y-16822072D02*
X8256786Y-16793500D01*
X8285357Y-16779214D01*
X8328214Y-16779214D01*
X8356786Y-16793500D01*
X8371071Y-16822072D01*
X8371071Y-16979214D01*
X8956786Y-16664929D02*
X8699643Y-17050643D01*
X9342500Y-16679214D02*
X9371071Y-16679214D01*
X9399643Y-16693500D01*
X9413928Y-16707786D01*
X9428214Y-16736357D01*
X9442500Y-16793500D01*
X9442500Y-16864929D01*
X9428214Y-16922072D01*
X9413928Y-16950643D01*
X9399643Y-16964929D01*
X9371071Y-16979214D01*
X9342500Y-16979214D01*
X9313928Y-16964929D01*
X9299643Y-16950643D01*
X9285357Y-16922072D01*
X9271071Y-16864929D01*
X9271071Y-16793500D01*
X9285357Y-16736357D01*
X9299643Y-16707786D01*
X9313928Y-16693500D01*
X9342500Y-16679214D01*
X9571071Y-16950643D02*
X9585357Y-16964929D01*
X9571071Y-16979214D01*
X9556786Y-16964929D01*
X9571071Y-16950643D01*
X9571071Y-16979214D01*
X9871071Y-16979214D02*
X9699643Y-16979214D01*
X9785357Y-16979214D02*
X9785357Y-16679214D01*
X9756786Y-16722071D01*
X9728214Y-16750643D01*
X9699643Y-16764929D01*
X9985357Y-16707786D02*
X9999643Y-16693500D01*
X10028214Y-16679214D01*
X10099643Y-16679214D01*
X10128214Y-16693500D01*
X10142500Y-16707786D01*
X10156786Y-16736357D01*
X10156786Y-16764929D01*
X10142500Y-16807786D01*
X9971071Y-16979214D01*
X10156786Y-16979214D01*
X10413928Y-16679214D02*
X10356786Y-16679214D01*
X10328214Y-16693500D01*
X10313928Y-16707786D01*
X10285357Y-16750643D01*
X10271071Y-16807786D01*
X10271071Y-16922072D01*
X10285357Y-16950643D01*
X10299643Y-16964929D01*
X10328214Y-16979214D01*
X10385357Y-16979214D01*
X10413928Y-16964929D01*
X10428214Y-16950643D01*
X10442500Y-16922072D01*
X10442500Y-16850643D01*
X10428214Y-16822072D01*
X10413928Y-16807786D01*
X10385357Y-16793500D01*
X10328214Y-16793500D01*
X10299643Y-16807786D01*
X10285357Y-16822072D01*
X10271071Y-16850643D01*
X10556786Y-16679214D02*
X10556786Y-16736357D01*
X10671071Y-16679214D02*
X10671071Y-16736357D01*
X11113928Y-17093500D02*
X11099643Y-17079214D01*
X11071071Y-17036357D01*
X11056786Y-17007786D01*
X11042500Y-16964929D01*
X11028214Y-16893500D01*
X11028214Y-16836357D01*
X11042500Y-16764929D01*
X11056786Y-16722071D01*
X11071071Y-16693500D01*
X11099643Y-16650643D01*
X11113928Y-16636357D01*
X11356785Y-16779214D02*
X11356785Y-16979214D01*
X11285357Y-16664929D02*
X11213928Y-16879214D01*
X11399643Y-16879214D01*
X11742500Y-16979214D02*
X11742500Y-16679214D01*
X11871071Y-16979214D02*
X11871071Y-16822072D01*
X11856785Y-16793500D01*
X11828214Y-16779214D01*
X11785357Y-16779214D01*
X11756785Y-16793500D01*
X11742500Y-16807786D01*
X12056785Y-16979214D02*
X12028214Y-16964929D01*
X12013928Y-16950643D01*
X11999643Y-16922072D01*
X11999643Y-16836357D01*
X12013928Y-16807786D01*
X12028214Y-16793500D01*
X12056785Y-16779214D01*
X12099643Y-16779214D01*
X12128214Y-16793500D01*
X12142500Y-16807786D01*
X12156785Y-16836357D01*
X12156785Y-16922072D01*
X12142500Y-16950643D01*
X12128214Y-16964929D01*
X12099643Y-16979214D01*
X12056785Y-16979214D01*
X12328214Y-16979214D02*
X12299643Y-16964929D01*
X12285357Y-16936357D01*
X12285357Y-16679214D01*
X12556786Y-16964929D02*
X12528214Y-16979214D01*
X12471071Y-16979214D01*
X12442500Y-16964929D01*
X12428214Y-16936357D01*
X12428214Y-16822072D01*
X12442500Y-16793500D01*
X12471071Y-16779214D01*
X12528214Y-16779214D01*
X12556786Y-16793500D01*
X12571071Y-16822072D01*
X12571071Y-16850643D01*
X12428214Y-16879214D01*
X12685357Y-16964929D02*
X12713928Y-16979214D01*
X12771071Y-16979214D01*
X12799643Y-16964929D01*
X12813928Y-16936357D01*
X12813928Y-16922072D01*
X12799643Y-16893500D01*
X12771071Y-16879214D01*
X12728214Y-16879214D01*
X12699643Y-16864929D01*
X12685357Y-16836357D01*
X12685357Y-16822072D01*
X12699643Y-16793500D01*
X12728214Y-16779214D01*
X12771071Y-16779214D01*
X12799643Y-16793500D01*
X12913928Y-17093500D02*
X12928214Y-17079214D01*
X12956786Y-17036357D01*
X12971071Y-17007786D01*
X12985357Y-16964929D01*
X12999643Y-16893500D01*
X12999643Y-16836357D01*
X12985357Y-16764929D01*
X12971071Y-16722071D01*
X12956786Y-16693500D01*
X12928214Y-16650643D01*
X12913928Y-16636357D01*
M02*
