G04 #@! TF.FileFunction,Other,User*
%FSLAX46Y46*%
G04 Gerber Fmt 4.6, Leading zero omitted, Abs format (unit mm)*
G04 Created by KiCad (PCBNEW 4.0.2-stable) date 10/05/17 14:13:38*
%MOMM*%
G01*
G04 APERTURE LIST*
%ADD10C,0.100000*%
%ADD11C,0.050000*%
G04 APERTURE END LIST*
D10*
D11*
X73850000Y-67150000D02*
X68150000Y-67150000D01*
X68150000Y-67150000D02*
X68150000Y-80850000D01*
X68150000Y-80850000D02*
X73850000Y-80850000D01*
X73850000Y-80850000D02*
X73850000Y-67150000D01*
X73850000Y-87150000D02*
X68150000Y-87150000D01*
X68150000Y-87150000D02*
X68150000Y-100850000D01*
X68150000Y-100850000D02*
X73850000Y-100850000D01*
X73850000Y-100850000D02*
X73850000Y-87150000D01*
X84350000Y-67150000D02*
X78650000Y-67150000D01*
X78650000Y-67150000D02*
X78650000Y-80850000D01*
X78650000Y-80850000D02*
X84350000Y-80850000D01*
X84350000Y-80850000D02*
X84350000Y-67150000D01*
X84350000Y-87150000D02*
X78650000Y-87150000D01*
X78650000Y-87150000D02*
X78650000Y-100850000D01*
X78650000Y-100850000D02*
X84350000Y-100850000D01*
X84350000Y-100850000D02*
X84350000Y-87150000D01*
X161950000Y-58750000D02*
X154250000Y-58750000D01*
X154250000Y-58750000D02*
X154250000Y-77450000D01*
X154250000Y-77450000D02*
X161950000Y-77450000D01*
X161950000Y-77450000D02*
X161950000Y-58750000D01*
X147850000Y-53150000D02*
X140150000Y-53150000D01*
X140150000Y-53150000D02*
X140150000Y-71850000D01*
X140150000Y-71850000D02*
X147850000Y-71850000D01*
X147850000Y-71850000D02*
X147850000Y-53150000D01*
X72950000Y-130000000D02*
G75*
G03X72950000Y-130000000I-3450000J0D01*
G01*
X162950000Y-130000000D02*
G75*
G03X162950000Y-130000000I-3450000J0D01*
G01*
X162950000Y-40000000D02*
G75*
G03X162950000Y-40000000I-3450000J0D01*
G01*
X72950000Y-40000000D02*
G75*
G03X72950000Y-40000000I-3450000J0D01*
G01*
M02*
